<?xml version="1.0" encoding="utf-8"?>
<!-- Generator: Adobe Illustrator 16.0.0, SVG Export Plug-In . SVG Version: 6.00 Build 0)  -->
<!DOCTYPE svg PUBLIC "-//W3C//DTD SVG 1.1//EN" "http://www.w3.org/Graphics/SVG/1.1/DTD/svg11.dtd">
<svg version="1.1" id="Layer_1" xmlns="http://www.w3.org/2000/svg" xmlns:xlink="http://www.w3.org/1999/xlink" x="0px" y="0px"
	 width="258.561px" height="71.982px" viewBox="0 0 258.561 71.982" enable-background="new 0 0 258.561 71.982"
	 xml:space="preserve">
<g>
	<g>
		<path fill="#FFFFFF" d="M188.951,40.486c-2.705-2.029-4.597-3.164-4.597-5.057c0-2,1.405-2.814,2.977-2.814
			c2.162,0,3.188,1.516,3.404,3.41h0.704V32.48c0-0.136-0.027-0.244-0.188-0.295c-1.083-0.379-2.624-0.515-3.787-0.515
			c-3.109,0-5.812,1.918-5.812,4.354c0,1.313,0.363,2.258,0.895,2.979h-0.01c0.012,0.013,0.024,0.021,0.033,0.031
			c0.656,0.873,1.556,1.432,2.351,1.963c4.058,2.681,4.973,4.111,5.004,5.867c0.074,3.902-7.234,5.955-12.046-1.543l-2.498-3.801
			c1.965-0.767,3.57-2.576,3.57-5.205c0-2.99-2.577-4.334-5.151-4.334h-7.426v0.66c2.295,0.274,2.192,0.153,2.192,2.522v11.48
			c0,2.381,0.104,2.248-2.192,2.526v0.664h6.864v-0.664c-2.298-0.278-2.197-0.146-2.197-2.526V41.93h2.402
			c3.084,5.127,3.849,7.354,5.404,7.907c0.347,0.123,4.351,1.41,7.178,1.41c3.245,0,6.711-1.785,6.711-5.002
			C192.735,44.002,191.816,42.619,188.951,40.486z M173.163,41.385h-2.122v-8.315h1.965c1.86,0,3.398,0.967,3.398,3.752
			C176.404,39.703,175.382,41.385,173.163,41.385z"/>
		<path fill="#FFFFFF" d="M121.832,49.811c0,0,0,0-12.483-14.793V46.35c0,0.537,0.104,0.973,0.15,1.383
			c0.131,0.924,1.005,1.281,2.695,1.412v0.666h-6.281v-0.666c1.235-0.131,2.077-0.488,2.204-1.412
			c0.054-0.41,0.155-0.846,0.155-1.383V34.275c-0.715-0.922-1.517-1.744-2.973-1.744v-0.672h4.662
			c3.819,4.645,7.798,9.361,11.615,14.004h0.052V35.322c0-0.539-0.104-0.973-0.155-1.383c-0.131-0.924-0.994-1.277-2.69-1.408
			v-0.672h6.281v0.672c-1.204,0.131-2.077,0.484-2.209,1.408c-0.05,0.41-0.151,0.844-0.151,1.383V49.81L121.832,49.811
			L121.832,49.811z"/>
		<path fill="#FFFFFF" d="M131.908,46.604c0,2.389-0.102,2.258,2.203,2.541v0.666h-6.896v-0.666
			c2.309-0.283,2.204-0.152,2.204-2.541V35.068c0-2.381,0.104-2.258-2.204-2.537v-0.664h6.896v0.664
			c-2.305,0.279-2.203,0.156-2.203,2.537V46.604z"/>
		<path fill="#FFFFFF" d="M164.526,45.193c-1.18,2.746-1,3.799-4.714,3.799c-2.309,0-3.312-0.184-3.312-2.363v-5.793h2.157
			c1.716,0,2.306,0.902,2.356,2.414h0.662v-5.465h-0.662c-0.051,1.59-0.744,2.232-2.356,2.232H156.5v-7.33h4.069
			c1.843,0,2.36,1.405,2.612,3.305h0.665v-4.125H152.04h-5.079v0.664c1.74,0,2.409,0.793,1.768,2.41
			c-1.589,3.924-3.153,7.867-4.796,11.791c-1.332-3.894-2.816-8.303-3.812-11.328c-0.852-2.465,0.177-2.873,1.589-2.873v-0.664
			h-6.521v0.664c1.234,0,1.563,0.793,2.52,3.537c1.562,4.358,3.309,9.305,4.871,13.742h1.305c2.155-5.256,4.334-10.486,6.486-15.738
			c0.54-1.285,0.922-1.541,1.671-1.541c2.306,0.279,1.975,0.156,1.975,2.537v11.535c0,2.389,0.332,2.258-1.975,2.541v0.666h12.382
			l0.771-4.617H164.526z"/>
		<path fill="#FFFFFF" d="M198.875,46.604c0,2.389-0.107,2.258,2.2,2.541v0.666h-6.896v-0.666c2.31-0.283,2.206-0.152,2.206-2.541
			V35.068c0-2.381,0.104-2.258-2.206-2.537v-0.664h6.896v0.664c-2.308,0.279-2.2,0.156-2.2,2.537V46.604z"/>
		<path fill="#FFFFFF" d="M225.09,31.867v0.664c1.512,0,2.331,0.74,1.458,2.307l-3.535,6.439l-3.104-6.439
			c-0.641-1.334-0.816-2.307,1.127-2.307v-0.664h-4.297h-1.78h-11.938l-0.694,3.916h0.644c0.843-1.689,1.355-3.096,3.587-3.096
			h2.081v13.916c0,2.389,0.101,2.258-2.207,2.541v0.666h6.896v-0.666c-2.307-0.283-2.206-0.152-2.206-2.541V32.688h2.079
			c2.102,0,3.516,1.254,4.38,2.813l3.61,7.16v3.941c0,2.389,0.104,2.258-2.204,2.541v0.666h6.894v-0.666
			c-2.303-0.283-2.203-0.152-2.203-2.541v-2.871c0-0.64,0.053-1.359,0.31-1.869l4.279-7.771c0.694-1.229,1.384-1.562,2.104-1.562
			v-0.664H225.09z"/>
		<path fill="#FFFFFF" d="M105.33,31.854l-8.078,0.021v0.67c1.619,0.174,2.792,0.886,2.962,2.129
			c0.069,0.55,0.211,1.134,0.211,1.857v9.584c0,5.521-2.487,8.689-7.208,8.689c-5.139,0-6.681-3.688-6.681-8.519v-10.1
			c0-3.205,0.094-3.265,3.198-3.642v-0.67h-9.279v0.67c3.108,0.377,2.969,0.437,2.969,3.642v10.274c0,6.24,2.276,9.97,9.617,9.97
			c4.448,0,9.177-2.759,9.177-10.175v-9.725c0-0.059,0-0.115,0-0.17c-0.031-2.994,1.133-3.43,3.093-3.746L105.33,31.854z"/>
	</g>
	<g>
		<path fill="#FFFFFF" d="M63.847,19.021c0,2.375-0.104,2.246,2.192,2.526v0.662h-6.866v-0.662c2.298-0.28,2.194-0.151,2.194-2.526
			V7.531c0-2.37-1.104-2.242-3.4-2.523v-0.66h8.072v0.66c-2.296,0.281-2.192,0.153-2.192,2.523v4.421h8.958V7.531
			c0-2.37,0.101-2.242-2.196-2.523v-0.66h6.864v0.66c-2.293,0.281-2.194,0.153-2.194,2.523v11.49c0,2.375-0.099,2.246,2.194,2.526
			v0.662h-6.864v-0.662c2.297-0.28,2.196-0.151,2.196-2.526v-6.027h-8.958V19.021z"/>
		<path fill="#FFFFFF" d="M84.958,19.021c0,2.375-0.104,2.246,2.193,2.526v0.662h-6.865v-0.662c2.297-0.28,2.195-0.151,2.195-2.526
			V7.531c0-2.37,0.102-2.242-2.195-2.523v-0.66h6.865v0.66c-2.297,0.281-2.193,0.153-2.193,2.523V19.021z"/>
		<path fill="#FFFFFF" d="M106.179,22.211c-4.059-4.797-8.271-9.828-12.43-14.729v11.287c0,0.53,0.102,0.969,0.154,1.376
			c0.127,0.922,0.993,1.272,2.677,1.404v0.662H90.33v-0.662c1.224-0.132,2.067-0.482,2.196-1.404
			c0.049-0.407,0.153-0.846,0.153-1.376V6.742c-0.718-0.916-1.509-1.734-2.965-1.734v-0.66h4.647
			c3.803,4.615,7.759,9.313,11.561,13.933h0.051V7.791c0-0.538-0.102-0.974-0.153-1.381c-0.125-0.919-0.996-1.272-2.68-1.402v-0.66
			h6.256v0.66c-1.2,0.13-2.067,0.483-2.199,1.402c-0.049,0.407-0.15,0.843-0.15,1.381v14.42H106.179z"/>
		<path fill="#FFFFFF" d="M109.942,13.176c0-3.931,3.319-9.143,10.209-9.143c2.475,0,3.648,0.462,4.899,0.875
			c0.716,0.229,0.995,0.583,0.995,0.992v3.293h-0.664c-0.075-2.043-1.378-4.262-5.435-4.262c-5.336,0-7.072,3.674-7.096,8.037
			c-0.026,4.032,2.015,8.657,7.196,8.657c3.192,0,3.474-1.18,3.474-3.167V16.9c0-2.376,0.099-2.244-2.707-2.526v-0.661h7.377v0.661
			c-2.296,0.282-2.193,0.15-2.193,2.526v4.442c-1.635,0.639-3.777,1.176-6.102,1.176C114.665,22.52,109.942,20.017,109.942,13.176z"
			/>
		<path fill="#FFFFFF" d="M136.948,19.021c0,2.375-0.103,2.246,2.195,2.526v0.662h-6.866v-0.662c2.295-0.28,2.194-0.151,2.194-2.526
			V5.161h-2.069c-2.221,0-2.73,1.399-3.574,3.087h-0.636l0.69-3.9h13.655l0.689,3.9h-0.64c-0.84-1.688-1.351-3.087-3.57-3.087
			h-2.068L136.948,19.021L136.948,19.021z"/>
		<path fill="#FFFFFF" d="M143.227,13.608c0-5.518,4.288-9.575,9.595-9.575c5.538,0,8.756,4.776,8.756,8.71
			c0,5.387-4.033,9.776-9.675,9.776C147.028,22.52,143.227,18.564,143.227,13.608z M158.666,13.508c0-6.102-3.291-8.575-6.407-8.575
			c-4.337,0-6.122,3.878-6.122,7.35c0,6.179,3.162,9.346,6.455,9.346C157.34,21.627,158.666,16.93,158.666,13.508z"/>
		<path fill="#FFFFFF" d="M178.042,22.211c-4.062-4.797-8.27-9.828-12.432-14.729v11.287c0,0.53,0.101,0.969,0.154,1.376
			c0.128,0.922,0.994,1.272,2.678,1.404v0.662h-6.253v-0.662c1.227-0.132,2.067-0.482,2.195-1.404
			c0.052-0.407,0.152-0.846,0.152-1.376V6.742c-0.713-0.916-1.504-1.734-2.96-1.734v-0.66h4.646
			c3.804,4.615,7.756,9.313,11.562,13.933h0.048V7.791c0-0.538-0.102-0.974-0.151-1.381c-0.127-0.919-0.993-1.272-2.68-1.402v-0.66
			h6.252v0.66c-1.197,0.13-2.064,0.483-2.192,1.402c-0.052,0.407-0.155,0.843-0.155,1.381v14.42H178.042z"/>
		<path fill="#FFFFFF" d="M35.129,0.927V0.9h-6.903v0.854c2.665,0.029,3.098,0.98,2.397,2.995l-5.225,14.229h-0.29L18.955,1.193
			h-1.557l-6.465,17.786h-0.439L5.861,4.846c-0.658-2.238,0.26-3.091,2.333-3.091V0.9H0v0.854c1.742,0,2.055,1.355,3.173,4.569
			l5.948,17.584h1.566L17.05,5.975l6.272,17.95h1.752c2.683-7.141,6.46-17.7,7.85-20.544c0.518-1.066,1.453-1.615,2.325-1.615V0.927
			H35.129z"/>
		<path fill="#FFFFFF" d="M53.486,12.623c-2.686-2.015-4.565-3.143-4.565-5.022c0-1.986,1.396-2.795,2.954-2.795
			c2.149,0,3.168,1.506,3.384,3.387h0.697V4.672c0-0.135-0.025-0.24-0.188-0.295c-1.074-0.376-2.605-0.512-3.761-0.512
			c-3.088,0-5.772,1.908-5.772,4.326c0,1.311,0.361,2.242,0.89,2.961h-0.009c0.01,0.01,0.021,0.019,0.032,0.028
			c0.648,0.869,1.544,1.423,2.336,1.951c4.028,2.658,4.969,4.082,4.969,5.828c0,1.623-1.219,3.25-3.464,3.411
			c-2.299,0.165-5.255-0.946-6.498-4.173c-1.104-3.094-3.352-9.599-4.869-14.088h-1.479c-2.119,5.643-4.99,13.913-6.089,16.158
			c-0.405,0.844-1.146,1.276-1.837,1.276v0.664h1.104h3.541v-0.664c-1.122,0-1.607-0.843-1.276-1.839l1.176-3.421h6.509l1.097,3.293
			l0.845,2.537c0,0,4.565,1.195,7.535,1.195c3.224,0,6.499-1.773,6.499-4.97C57.247,16.113,56.333,14.744,53.486,12.623z
			 M35.145,15.318l3.037-8.296h0.051l2.706,8.296H35.145z"/>
	</g>
	<g>
		<path fill="#FFFFFF" d="M198.901,5.535c-0.272-2.409-1.578-4.332-4.325-4.332c-1.993,0-4.005,1.03-4.005,3.57
			c0,2.404,2.402,3.846,5.838,6.424c3.637,2.713,4.809,4.465,4.809,7.315c0,4.085-3.963,6.353-8.079,6.353
			c-2.203,0-4.092-0.416-5.879-1.1c-0.132-0.068-0.237-0.207-0.237-0.478v-4.951h0.892c0.381,3.812,2.88,5.324,5.53,5.324
			c2.438,0,4.654-1.854,4.654-4.361c0-2.233-1.201-4.055-6.352-7.447c-1.854-1.235-4.153-2.58-4.153-6.317
			c0-3.102,3.2-5.535,7.153-5.535c1.477,0,3.436,0.172,4.809,0.656c0.207,0.062,0.239,0.207,0.239,0.377v4.502H198.901z"/>
		<path fill="#FFFFFF" d="M209.885,19.039c0,2.379-0.099,2.242,2.197,2.533v0.657h-6.869v-0.657
			c2.299-0.291,2.198-0.154,2.198-2.533V5.172h-2.072c-2.221,0-2.731,1.406-3.573,3.088h-0.636l0.688-3.9h13.659l0.69,3.9h-0.638
			c-0.842-1.682-1.354-3.088-3.572-3.088h-2.071L209.885,19.039L209.885,19.039z"/>
		<path fill="#FFFFFF" d="M218.795,16.305l-1.168,3.424c-0.333,1,0.15,1.844,1.274,1.844v0.657h-4.646v-0.657
			c0.687,0,1.431-0.443,1.838-1.281c1.098-2.25,4.084-10.594,6.204-16.24h1.43c1.734,5.133,4.337,13.003,5.207,15.271
			c0.564,1.424,0.973,2.25,2.067,2.25v0.657h-5.947v-0.657c1.606,0,1.765-0.844,1.356-1.973l-1.103-3.295H218.795z M224.98,15.338
			l-2.708-8.301h-0.05l-3.039,8.301H224.98z"/>
		<path fill="#FFFFFF" d="M237.976,19.039c0,2.379-0.102,2.242,2.193,2.533v0.657h-6.869v-0.657
			c2.299-0.291,2.199-0.154,2.199-2.533V5.172h-2.07c-2.224,0-2.729,1.406-3.576,3.088h-0.639l0.694-3.9h13.658l0.687,3.9h-0.641
			c-0.835-1.682-1.345-3.088-3.566-3.088h-2.07V19.039z"/>
		<path fill="#FFFFFF" d="M245.46,21.572c2.303-0.291,1.973-0.154,1.973-2.533V7.546c0-2.374,0.33-2.247-1.973-2.526v-0.66h11.185
			v4.103h-0.667c-0.253-1.883-0.76-3.289-2.601-3.289H249.9v7.312h2.145c1.607,0,2.299-0.643,2.348-2.226h0.666v5.434h-0.666
			c-0.047-1.51-0.636-2.401-2.348-2.401H249.9v5.771c0,2.178,1,2.358,3.297,2.358c3.703,0,3.521-1.051,4.698-3.782h0.663
			l-0.77,4.595H245.46V21.572z"/>
	</g>
</g>
<path fill="#FFFFFF" d="M64.461,65.375l-6.321,4.5l-6.318-4.5c-4.493-3.071-8.342-5.705-10.36-9.705
	c1.667,7.498,8.998,10.304,16.68,16.312c7.682-6.01,15.015-8.814,16.681-16.312C72.802,59.67,68.953,62.303,64.461,65.375z"/>
<path fill="#FFFFFF" d="M40.588,28.713v0.786c0.489,0.168,0.65,0.324,0.701,1.036v18.121c0,10.08,8.204,12.744,16.854,19.514
	c8.653-6.77,16.859-9.434,16.859-19.514V30.334c0.064-0.551,0.24-0.684,0.68-0.835v-0.786H40.588z"/>
<g>
	<path fill="#FFFFFF" d="M61.556,58.213c0,0,1.402-0.598,2.171-2.916c0.676,1.412,0.498,2.867,0.498,2.867
		C63.606,58.303,61.556,58.213,61.556,58.213z"/>
	<path fill="#FFFFFF" d="M69.086,44.957c0,0,0.854,4.656-2.171,4.816c-2.921,0.151-4.3-4.242-4.3-4.242s0.707,8.59,4.8,8.023
		C72.03,52.918,69.086,44.957,69.086,44.957z"/>
	<path fill="#FFFFFF" d="M46.845,57.105c0.001,0,0.003,0,0.006,0c3.415-0.777,6.027-4.767,6.796-6.365l0.485-1.014l0.296,1.086
		c0.015,0.061,0.333,1.254,0.333,2.834c0,0.174-0.006,0.354-0.015,0.537c1.179,0.043,2.019-0.193,2.542-0.736
		c0.749-0.779,0.977-2.248,0.693-4.494c-0.135-1.076-0.534-2.787-0.884-4.297c-0.182-0.771-0.351-1.5-0.453-2.016
		c-0.658-3.304,0.159-5.353,0.96-6.486c0.127-0.182,0.263-0.353,0.407-0.514c-2.36,0.797-4.342,2.032-6.387,4.073l1.438,1.67
		l0.588-0.549c0.554,2.07,0.156,3.979,0.156,3.979c-0.757-1.152-1.65-2.086-1.65-2.086l0.393-0.658l-1.295-1.506l-0.15-0.168
		c-1.593,2.188-2.11,3.981-2.11,3.981l1.131,1.031l0.66,0.598l0.219-0.635c1.217,2.275,0.107,4.402,0.107,4.402
		c-0.202-0.777-1.001-1.922-1.001-1.922l0.315-1.043l-1.681-1.523c-1.75,5.467-4.091,7.24-4.091,7.24s2.532-0.457,3.94-0.93
		C48.595,51.598,48.555,54.479,46.845,57.105z"/>
	<path fill="#FFFFFF" d="M72.369,37.383l-4.038,0.173c0.003,0.477-0.062,0.957-0.217,1.411c0.379,1.65,0.12,2.548,0.12,2.548
		c-0.679-1.574-1.195-2.011-1.195-2.011c-3.709-1.649-5.792,2.078-5.569,4.482c0.183,1.977,0.897,4.6,1.457,8.713
		c0.473,3.463-1.281,4.957-3.298,5.303c-0.044,0.006-0.088,0.017-0.131,0.021c-0.011,0-0.021,0.004-0.032,0.004
		c-0.324,0.043-0.674,0.059-1.043,0.049c-0.012,0-0.023,0-0.035,0c-0.04,0-0.082-0.006-0.12-0.006
		c-0.157-0.01-0.312-0.025-0.469-0.047c-1.566-0.215-5.082-0.854-8.708-0.941c2.135-1.246,3.804-3.401,4.734-4.932
		c0.056,0.424,0.102,0.938,0.102,1.508c0,0.285-0.013,0.582-0.039,0.889l-0.036,0.414l0.417,0.037
		c1.669,0.146,2.856-0.174,3.625-0.971c0.949-0.986,1.241-2.633,0.922-5.18c-0.143-1.119-0.544-2.851-0.899-4.382
		c-0.179-0.766-0.349-1.487-0.446-1.991c-0.602-3.011,0.113-4.839,0.82-5.841c0.558-0.786,1.319-1.36,2.158-1.639
		c0.015,0,0.028-0.006,0.044-0.006l1.377-4.236h0.432l-0.924,4.07c0.215-0.039,0.434-0.074,0.655-0.107l1.188-3.752h0.429
		L62.87,34.6c1.23-0.16,2.568-0.281,4.05-0.394c0.24,0.101,0.497,0.375,0.727,0.762l3.89-1.196l0.143,0.418l-3.715,1.444
		c0.029,0.076,0.058,0.156,0.084,0.236l4.063-0.506l0.067,0.438l-3.943,0.786c0.014,0.074,0.027,0.146,0.036,0.222l4.104,0.131
		L72.369,37.383z M60.667,39.199c0.815-0.57,2.2-1.01,3.498-0.91c0.332,0.025,0.61-0.061,0.254-0.252
		c-0.973-0.512-3.239-0.338-4.041,0.211c-1.285,0.877-1.066,2.438-1.037,2.476C59.597,40.275,60.034,39.646,60.667,39.199z"/>
</g>
</svg>
