<?xml version="1.0" encoding="utf-8"?>
<!-- Generator: Adobe Illustrator 16.0.0, SVG Export Plug-In . SVG Version: 6.00 Build 0)  -->
<!DOCTYPE svg PUBLIC "-//W3C//DTD SVG 1.1//EN" "http://www.w3.org/Graphics/SVG/1.1/DTD/svg11.dtd">
<svg version="1.1" id="Layer_1" xmlns="http://www.w3.org/2000/svg" xmlns:xlink="http://www.w3.org/1999/xlink" x="0px" y="0px"
	 width="150px" height="109.895px" viewBox="0 0 150 109.895" enable-background="new 0 0 150 109.895" xml:space="preserve">
<g>
	<path fill="#5E6A71" d="M21.161,109.761h-1.082v-3.882h-3.815v3.882h-1.082v-7.808h1.082v3.146h3.815v-3.146h1.082V109.761z"/>
	<path fill="#5E6A71" d="M29.116,102.734h-2.767v2.521h2.711v0.781h-2.711v2.944h3.246v0.781h-4.328v-7.808h3.848V102.734z"/>
	<path fill="#5E6A71" d="M36.066,101.953l2.911,7.808h-1.25l-0.803-2.298h-2.978l-0.836,2.298h-1.048l3.179-7.808H36.066z
		 M36.668,106.683c-0.391-1.082-0.77-2.164-1.16-3.569h-0.022c-0.401,1.406-0.814,2.488-1.238,3.569H36.668z"/>
	<path fill="#5E6A71" d="M42.103,101.953h1.082v7.027h3.246v0.781h-4.328V101.953z"/>
	<path fill="#5E6A71" d="M50.871,109.761v-7.027h-2.499v-0.781h6.09v0.781h-2.509v7.027H50.871z"/>
	<path fill="#5E6A71" d="M63.666,109.761h-1.082v-3.882H58.77v3.882h-1.082v-7.808h1.082v3.146h3.815v-3.146h1.082V109.761z"/>
	<path fill="#5E6A71" d="M76.308,103.158c-0.38-0.278-0.882-0.557-1.35-0.557c-0.781,0-1.216,0.457-1.216,1.06
		c0,0.558,0.48,0.97,1.484,1.695c1.07,0.781,1.695,1.495,1.695,2.499c0,1.238-1.171,2.042-2.42,2.042
		c-0.747,0-1.639-0.268-2.197-0.814l0.48-0.647c0.457,0.324,0.959,0.681,1.695,0.681c0.77,0,1.361-0.413,1.361-1.283
		c0-0.981-1.171-1.617-1.807-2.086c-0.647-0.501-1.372-0.981-1.372-2.085c0-1.049,1.016-1.841,2.231-1.841
		c0.814,0,1.495,0.291,1.93,0.781L76.308,103.158z"/>
	<path fill="#5E6A71" d="M86.582,103.281c-0.369-0.301-1.205-0.68-2.042-0.68c-1.93,0-3.067,1.383-3.067,3.212
		c0,1.974,1.361,3.301,3.067,3.301c0.848,0,1.517-0.268,1.974-0.58l0.425,0.647c-0.524,0.357-1.449,0.714-2.454,0.714
		c-2.789,0-4.204-1.907-4.204-4.06c0-1.963,1.538-4.016,4.338-4.016c1.115,0,1.896,0.391,2.41,0.792L86.582,103.281z"/>
	<path fill="#5E6A71" d="M90.543,109.761v-7.808h1.082v7.808H90.543z"/>
	<path fill="#5E6A71" d="M99.579,102.734h-2.767v2.521h2.711v0.781h-2.711v2.944h3.246v0.781H95.73v-7.808h3.849V102.734z"/>
	<path fill="#5E6A71" d="M110.344,109.761h-0.848c-1.695-2.03-4.605-5.532-5.074-6.213h-0.022v6.213h-0.893v-7.808h0.803
		c1.718,2.03,4.596,5.443,5.12,6.224h0.021v-6.224h0.893V109.761z"/>
	<path fill="#5E6A71" d="M120.351,103.281c-0.367-0.301-1.204-0.68-2.041-0.68c-1.929,0-3.066,1.383-3.066,3.212
		c0,1.974,1.36,3.301,3.066,3.301c0.848,0,1.518-0.268,1.976-0.58l0.423,0.647c-0.524,0.357-1.45,0.714-2.454,0.714
		c-2.787,0-4.205-1.907-4.205-4.06c0-1.963,1.54-4.016,4.339-4.016c1.116,0,1.897,0.391,2.409,0.792L120.351,103.281z"/>
	<path fill="#5E6A71" d="M128.161,102.734h-2.767v2.521h2.711v0.781h-2.711v2.944h3.246v0.781h-4.327v-7.808h3.848V102.734z"/>
	<path fill="#5E6A71" d="M135.748,103.158c-0.38-0.278-0.882-0.557-1.351-0.557c-0.781,0-1.215,0.457-1.215,1.06
		c0,0.558,0.479,0.97,1.483,1.695c1.07,0.781,1.694,1.495,1.694,2.499c0,1.238-1.171,2.042-2.42,2.042
		c-0.747,0-1.64-0.268-2.198-0.814l0.48-0.647c0.458,0.324,0.96,0.681,1.695,0.681c0.77,0,1.361-0.413,1.361-1.283
		c0-0.981-1.171-1.617-1.808-2.086c-0.646-0.501-1.372-0.981-1.372-2.085c0-1.049,1.015-1.841,2.231-1.841
		c0.814,0,1.494,0.291,1.93,0.781L135.748,103.158z"/>
</g>
<g>
	<g>
		<g>
			<path fill="#5E6A71" d="M95.617,83.021c-1.568-1.177-2.667-1.835-2.667-2.934c0-1.159,0.816-1.632,1.728-1.632
				c1.254,0,1.85,0.879,1.976,1.979h0.407v-2.056c0-0.078-0.016-0.142-0.109-0.171c-0.628-0.22-1.521-0.297-2.196-0.297
				c-1.805,0-3.371,1.112-3.371,2.525c0,0.763,0.211,1.31,0.518,1.729h-0.006c0.008,0.007,0.015,0.012,0.02,0.018
				c0.382,0.507,0.903,0.831,1.365,1.139c2.353,1.554,2.883,2.385,2.902,3.403c0.043,2.265-4.196,3.455-6.988-0.895l-1.449-2.205
				c1.141-0.444,2.071-1.495,2.071-3.02c0-1.735-1.496-2.514-2.988-2.514H82.52v0.383c1.331,0.159,1.272,0.089,1.272,1.463v6.66
				c0,1.382,0.059,1.304-1.272,1.466v0.385h3.983v-0.385c-1.334-0.162-1.276-0.084-1.276-1.466v-2.736h1.395
				c1.788,2.975,2.233,4.267,3.134,4.587c0.202,0.071,2.524,0.818,4.165,0.818c1.883,0,3.893-1.036,3.893-2.901
				C97.812,85.061,97.279,84.259,95.617,83.021z M86.459,83.542h-1.232v-4.824h1.14c1.079,0,1.972,0.561,1.972,2.176
				C88.338,82.567,87.745,83.542,86.459,83.542z"/>
			<path fill="#5E6A71" d="M56.68,88.431c0,0,0,0-7.243-8.582v6.575c0,0.311,0.061,0.564,0.087,0.802
				c0.077,0.536,0.584,0.744,1.564,0.819v0.386h-3.644v-0.386c0.717-0.076,1.205-0.283,1.278-0.819
				c0.031-0.238,0.091-0.491,0.091-0.802v-7.005c-0.415-0.535-0.88-1.011-1.724-1.011v-0.391h2.704
				c2.216,2.695,4.523,5.431,6.739,8.124h0.03v-6.115c0-0.313-0.061-0.564-0.091-0.803c-0.077-0.535-0.577-0.741-1.56-0.816v-0.391
				h3.643v0.391c-0.699,0.075-1.205,0.281-1.281,0.816c-0.029,0.239-0.087,0.49-0.087,0.803v8.405H56.68z"/>
			<path fill="#5E6A71" d="M62.525,86.57c0,1.386-0.059,1.31,1.278,1.474v0.386h-4.001v-0.386c1.341-0.165,1.28-0.088,1.28-1.474
				v-6.692c0-1.38,0.061-1.31-1.28-1.471v-0.385h4.001v0.385c-1.337,0.161-1.278,0.091-1.278,1.471V86.57z"/>
			<path fill="#5E6A71" d="M81.447,85.752c-0.684,1.593-0.58,2.205-2.735,2.205c-1.339,0-1.921-0.106-1.921-1.372v-3.36h1.252
				c0.995,0,1.339,0.524,1.366,1.4h0.386v-3.171h-0.386c-0.027,0.922-0.431,1.295-1.366,1.295h-1.252v-4.251h2.362
				c1.068,0,1.368,0.815,1.515,1.917h0.386v-2.393h-6.85h-2.946v0.385c1.009,0,1.396,0.459,1.025,1.398
				c-0.922,2.276-1.83,4.564-2.784,6.84c-0.772-2.259-1.633-4.816-2.21-6.572c-0.495-1.43,0.103-1.667,0.922-1.667v-0.385h-3.783
				v0.385c0.717,0,0.907,0.459,1.461,2.052c0.905,2.528,1.919,5.398,2.826,7.972h0.757c1.251-3.049,2.515-6.084,3.763-9.13
				c0.312-0.746,0.535-0.894,0.969-0.894c1.337,0.161,1.146,0.091,1.146,1.471v6.692c0,1.386,0.191,1.31-1.146,1.474v0.386h7.184
				l0.446-2.679H81.447z"/>
			<path fill="#5E6A71" d="M101.374,86.57c0,1.386-0.063,1.31,1.277,1.474v0.386h-4.002v-0.386c1.34-0.165,1.281-0.088,1.281-1.474
				v-6.692c0-1.38,0.059-1.31-1.281-1.471v-0.385h4.002v0.385c-1.341,0.161-1.277,0.091-1.277,1.471V86.57z"/>
			<path fill="#5E6A71" d="M116.583,78.022v0.385c0.877,0,1.353,0.429,0.846,1.337l-2.05,3.736l-1.801-3.736
				c-0.373-0.774-0.475-1.337,0.653-1.337v-0.385h-2.493h-1.031h-6.926l-0.403,2.271h0.373c0.488-0.98,0.786-1.795,2.08-1.795h1.208
				v8.072c0,1.386,0.058,1.31-1.281,1.474v0.386h4.001v-0.386c-1.338-0.165-1.28-0.088-1.28-1.474v-8.072h1.207
				c1.218,0,2.039,0.727,2.541,1.631l2.094,4.154v2.287c0,1.386,0.061,1.31-1.277,1.474v0.386h3.998v-0.386
				c-1.335-0.165-1.277-0.088-1.277-1.474v-1.666c0-0.37,0.029-0.789,0.18-1.085l2.482-4.506c0.402-0.714,0.804-0.906,1.22-0.906
				v-0.385H116.583z"/>
			<path fill="#5E6A71" d="M47.106,78.013l-4.688,0.012v0.389c0.939,0.101,1.621,0.514,1.719,1.236
				c0.04,0.317,0.122,0.657,0.122,1.078v5.56c0,3.203-1.443,5.041-4.182,5.041c-2.981,0-3.875-2.139-3.875-4.941v-5.86
				c0-1.86,0.054-1.893,1.855-2.113v-0.389h-5.383v0.389c1.804,0.22,1.724,0.253,1.724,2.113v5.961c0,3.62,1.32,5.783,5.578,5.783
				c2.58,0,5.324-1.601,5.324-5.903v-5.641c0-0.035,0-0.067,0-0.1c-0.018-1.736,0.657-1.989,1.794-2.173L47.106,78.013z"/>
		</g>
		<g>
			<path fill="#5E6A71" d="M37.04,70.561c0,1.377-0.06,1.303,1.272,1.466v0.384h-3.983v-0.384c1.333-0.163,1.274-0.089,1.274-1.466
				v-6.666c0-1.375-0.642-1.301-1.973-1.464v-0.383h4.682v0.383c-1.332,0.163-1.272,0.089-1.272,1.464v2.565h5.198v-2.565
				c0-1.375,0.057-1.301-1.274-1.464v-0.383h3.983v0.383c-1.332,0.163-1.274,0.089-1.274,1.464v6.666
				c0,1.377-0.058,1.303,1.274,1.466v0.384h-3.983v-0.384c1.332-0.163,1.274-0.089,1.274-1.466v-3.497H37.04V70.561z"/>
			<path fill="#5E6A71" d="M49.289,70.561c0,1.377-0.061,1.303,1.271,1.466v0.384h-3.981v-0.384
				c1.332-0.163,1.272-0.089,1.272-1.466v-6.666c0-1.375,0.06-1.301-1.272-1.464v-0.383h3.981v0.383
				c-1.332,0.163-1.271,0.089-1.271,1.464V70.561z"/>
			<path fill="#5E6A71" d="M61.599,72.411c-2.355-2.783-4.799-5.702-7.211-8.546v6.548c0,0.308,0.059,0.562,0.09,0.798
				c0.073,0.535,0.576,0.738,1.552,0.815v0.384h-3.626v-0.384c0.709-0.077,1.199-0.28,1.274-0.815
				c0.028-0.237,0.089-0.49,0.089-0.798v-6.977c-0.417-0.532-0.875-1.006-1.719-1.006v-0.383h2.695
				c2.207,2.678,4.501,5.403,6.708,8.083h0.028v-6.084c0-0.312-0.058-0.565-0.089-0.801c-0.072-0.534-0.577-0.739-1.555-0.814
				v-0.383h3.629v0.383c-0.695,0.075-1.199,0.28-1.274,0.814c-0.029,0.236-0.089,0.489-0.089,0.801v8.366H61.599z"/>
			<path fill="#5E6A71" d="M63.782,67.169c0-2.28,1.926-5.304,5.923-5.304c1.435,0,2.116,0.268,2.843,0.507
				c0.413,0.133,0.577,0.338,0.577,0.576v1.91H72.74c-0.043-1.185-0.8-2.472-3.153-2.472c-3.096,0-4.104,2.131-4.116,4.663
				c-0.016,2.339,1.168,5.022,4.175,5.022c1.851,0,2.013-0.684,2.013-1.837v-0.904c0-1.379,0.058-1.302-1.571-1.466v-0.383h4.28
				v0.383c-1.332,0.164-1.272,0.087-1.272,1.466v2.578c-0.948,0.37-2.191,0.681-3.539,0.681
				C66.522,72.59,63.782,71.138,63.782,67.169z"/>
			<path fill="#5E6A71" d="M79.449,70.561c0,1.377-0.059,1.303,1.272,1.466v0.384h-3.982v-0.384
				c1.331-0.163,1.272-0.089,1.272-1.466V62.52h-1.201c-1.289,0-1.583,0.812-2.073,1.791h-0.37l0.401-2.263h7.922l0.399,2.263
				h-0.369c-0.488-0.979-0.784-1.791-2.073-1.791h-1.199V70.561z"/>
			<path fill="#5E6A71" d="M83.091,67.42c0-3.201,2.487-5.555,5.568-5.555c3.212,0,5.077,2.771,5.077,5.053
				c0,3.125-2.339,5.671-5.612,5.671C85.296,72.59,83.091,70.295,83.091,67.42z M92.048,67.362c0-3.54-1.909-4.975-3.717-4.975
				c-2.516,0-3.551,2.25-3.551,4.264c0,3.584,1.834,5.421,3.744,5.421C91.279,72.072,92.048,69.347,92.048,67.362z"/>
			<path fill="#5E6A71" d="M103.289,72.411c-2.356-2.783-4.797-5.702-7.213-8.546v6.548c0,0.308,0.06,0.562,0.091,0.798
				c0.073,0.535,0.577,0.738,1.553,0.815v0.384h-3.627v-0.384c0.711-0.077,1.199-0.28,1.273-0.815
				c0.03-0.237,0.089-0.49,0.089-0.798v-6.977c-0.414-0.532-0.873-1.006-1.719-1.006v-0.383h2.697
				c2.207,2.678,4.499,5.403,6.708,8.083h0.027v-6.084c0-0.312-0.06-0.565-0.089-0.801c-0.073-0.534-0.575-0.739-1.555-0.814v-0.383
				h3.628v0.383c-0.696,0.075-1.198,0.28-1.273,0.814c-0.029,0.236-0.089,0.489-0.089,0.801v8.366H103.289z"/>
			<path fill="#5E6A71" d="M20.38,60.064v-0.016h-4.006v0.497c1.546,0.017,1.799,0.568,1.393,1.737l-3.031,8.254h-0.167
				l-3.57-10.318h-0.905l-3.75,10.318H6.089l-2.688-8.199c-0.382-1.298,0.152-1.792,1.353-1.792v-0.497H0v0.497
				c1.011,0,1.192,0.786,1.841,2.651l3.452,10.201h0.908l3.692-10.404l3.638,10.414h1.016c1.557-4.143,3.75-10.269,4.555-11.918
				c0.3-0.619,0.842-0.938,1.349-0.938v-0.486H20.38z"/>
			<path fill="#5E6A71" d="M31.031,66.849c-1.559-1.169-2.65-1.823-2.65-2.914c0-1.152,0.811-1.622,1.715-1.622
				c1.247,0,1.837,0.874,1.963,1.965h0.404v-2.042c0-0.078-0.016-0.14-0.11-0.171c-0.622-0.218-1.511-0.297-2.181-0.297
				c-1.792,0-3.349,1.107-3.349,2.51c0,0.76,0.209,1.301,0.516,1.717h-0.005c0.005,0.006,0.012,0.011,0.019,0.017
				c0.376,0.505,0.895,0.826,1.354,1.133c2.338,1.542,2.883,2.368,2.883,3.381c0,0.942-0.708,1.886-2.01,1.979
				c-1.333,0.096-3.049-0.549-3.771-2.421c-0.64-1.794-1.944-5.568-2.824-8.172h-0.859c-1.229,3.273-2.894,8.071-3.532,9.374
				c-0.235,0.489-0.664,0.741-1.065,0.741v0.385h0.64h2.054v-0.385c-0.65,0-0.931-0.489-0.739-1.067l0.682-1.985h3.776l0.636,1.91
				l0.492,1.472c0,0,2.648,0.693,4.37,0.693c1.87,0,3.771-1.029,3.771-2.882C33.211,68.873,32.681,68.079,31.031,66.849z
				 M20.388,68.412l1.763-4.812h0.029l1.571,4.812H20.388z"/>
		</g>
		<g>
			<path fill="#5E6A71" d="M115.391,62.737c-0.158-1.397-0.917-2.513-2.509-2.513c-1.157,0-2.325,0.598-2.325,2.071
				c0,1.396,1.395,2.231,3.389,3.727c2.109,1.574,2.789,2.59,2.789,4.244c0,2.37-2.299,3.685-4.688,3.685
				c-1.277,0-2.374-0.241-3.409-0.638c-0.079-0.04-0.14-0.12-0.14-0.276v-2.873h0.518c0.222,2.21,1.672,3.088,3.209,3.088
				c1.414,0,2.7-1.076,2.7-2.53c0-1.296-0.697-2.353-3.685-4.321c-1.076-0.717-2.409-1.497-2.409-3.665
				c0-1.799,1.856-3.211,4.148-3.211c0.858,0,1.993,0.099,2.789,0.38c0.121,0.036,0.14,0.12,0.14,0.219v2.612H115.391z"/>
			<path fill="#5E6A71" d="M121.762,70.571c0,1.38-0.058,1.301,1.276,1.469v0.381h-3.986V72.04c1.333-0.168,1.275-0.089,1.275-1.469
				v-8.045h-1.202c-1.289,0-1.585,0.816-2.073,1.792h-0.367l0.397-2.264h7.924l0.401,2.264h-0.371
				c-0.488-0.976-0.785-1.792-2.071-1.792h-1.203V70.571z"/>
			<path fill="#5E6A71" d="M126.933,68.984l-0.679,1.986c-0.193,0.58,0.088,1.069,0.739,1.069v0.381h-2.696V72.04
				c0.399,0,0.829-0.257,1.066-0.743c0.637-1.306,2.369-6.146,3.6-9.422h0.828c1.008,2.977,2.518,7.543,3.021,8.859
				c0.329,0.826,0.564,1.305,1.201,1.305v0.381h-3.452V72.04c0.933,0,1.025-0.489,0.788-1.144l-0.64-1.912H126.933z M130.52,68.423
				l-1.57-4.815h-0.029l-1.765,4.815H130.52z"/>
			<path fill="#5E6A71" d="M138.06,70.571c0,1.38-0.06,1.301,1.272,1.469v0.381h-3.985V72.04c1.334-0.168,1.276-0.089,1.276-1.469
				v-8.045h-1.201c-1.29,0-1.583,0.816-2.074,1.792h-0.372l0.403-2.264h7.924l0.397,2.264h-0.371
				c-0.484-0.976-0.78-1.792-2.069-1.792h-1.2V70.571z"/>
			<path fill="#5E6A71" d="M142.401,72.04c1.335-0.168,1.144-0.089,1.144-1.469v-6.667c0-1.377,0.191-1.304-1.144-1.466v-0.383
				h6.488v2.38h-0.387c-0.148-1.092-0.441-1.908-1.508-1.908h-2.019v4.241h1.244c0.933,0,1.335-0.372,1.361-1.291h0.387v3.152
				h-0.387c-0.026-0.876-0.367-1.394-1.361-1.394h-1.244v3.347c0,1.263,0.58,1.369,1.914,1.369c2.147,0,2.043-0.609,2.726-2.194H150
				l-0.446,2.665h-7.152V72.04z"/>
		</g>
	</g>
	<g>
		<g>
			<g>
				<g>
					<path fill="#5E6A71" d="M83.051,44.1l-7.586,5.414L67.885,44.1c-5.39-3.694-10.009-6.861-12.429-11.672
						c2,9.019,10.794,12.39,20.008,19.622c9.216-7.232,18.016-10.604,20.015-19.622C93.059,37.238,88.439,40.406,83.051,44.1z"/>
					<g>
						<path fill="#981E32" d="M54.409,0v0.946c0.585,0.203,0.779,0.389,0.842,1.247V23.99c0,12.125,9.84,15.328,20.221,23.475
							c10.382-8.146,20.228-11.349,20.228-23.475V1.949c0.077-0.661,0.288-0.822,0.814-1.003V0H54.409z"/>
					</g>
				</g>
			</g>
		</g>
		<g>
			<g>
				<g>
					<path fill="#FFFFFF" d="M79.566,35.485c0,0,1.684-0.718,2.603-3.507c0.812,1.7,0.598,3.449,0.598,3.449
						C82.024,35.594,79.566,35.485,79.566,35.485z"/>
					<path fill="#FFFFFF" d="M88.602,19.54c0,0,1.023,5.601-2.606,5.793c-3.504,0.184-5.16-5.103-5.16-5.103
						s0.848,10.332,5.76,9.652C92.131,29.116,88.602,19.54,88.602,19.54z"/>
				</g>
			</g>
			<path fill="#FFFFFF" d="M61.915,34.152c0.002,0,0.005,0,0.007,0c4.098-0.935,7.232-5.73,8.154-7.655l0.584-1.221l0.354,1.307
				c0.018,0.073,0.401,1.51,0.401,3.411c0,0.208-0.007,0.426-0.018,0.645c1.414,0.053,2.421-0.233,3.051-0.885
				c0.898-0.938,1.17-2.704,0.832-5.407c-0.164-1.294-0.642-3.353-1.062-5.168c-0.218-0.927-0.42-1.805-0.542-2.425
				c-0.79-3.972,0.188-6.436,1.15-7.803c0.151-0.217,0.315-0.421,0.488-0.617c-2.831,0.958-5.208,2.446-7.661,4.901l1.724,2.009
				l0.706-0.66c0.664,2.49,0.187,4.786,0.187,4.786c-0.908-1.387-1.98-2.51-1.98-2.51l0.473-0.792l-1.555-1.812l-0.181-0.201
				c-1.911,2.633-2.531,4.791-2.531,4.791l1.358,1.238l0.79,0.719l0.263-0.762c1.459,2.737,0.129,5.296,0.129,5.296
				c-0.243-0.935-1.201-2.312-1.201-2.312l0.378-1.255l-2.017-1.833c-2.099,6.577-4.907,8.709-4.907,8.709s3.039-0.549,4.726-1.117
				C64.014,27.529,63.966,30.995,61.915,34.152z"/>
			<path fill="#FFFFFF" d="M92.539,10.43l-4.846,0.206c0.005,0.574-0.073,1.151-0.26,1.698c0.453,1.986,0.143,3.063,0.143,3.063
				c-0.814-1.893-1.435-2.416-1.435-2.416c-4.448-1.987-6.948,2.499-6.682,5.393c0.22,2.376,1.077,5.532,1.75,10.48
				c0.566,4.165-1.537,5.962-3.959,6.377c-0.052,0.009-0.103,0.019-0.156,0.027c-0.013,0-0.024,0.005-0.037,0.005
				c-0.391,0.05-0.811,0.069-1.251,0.056c-0.016,0-0.031,0-0.043,0c-0.049,0-0.098-0.006-0.145-0.006
				c-0.188-0.012-0.377-0.03-0.562-0.056C73.176,35,68.961,34.231,64.61,34.126c2.559-1.5,4.562-4.093,5.677-5.935
				c0.068,0.511,0.122,1.132,0.122,1.817c0,0.342-0.014,0.698-0.047,1.067l-0.042,0.499l0.5,0.045
				c2.003,0.174,3.427-0.209,4.348-1.169c1.141-1.187,1.49-3.167,1.107-6.229c-0.169-1.347-0.652-3.43-1.078-5.271
				c-0.216-0.921-0.42-1.79-0.537-2.396c-0.72-3.62,0.136-5.818,0.983-7.024c0.667-0.947,1.584-1.638,2.59-1.972
				c0.018-0.001,0.033-0.006,0.053-0.006l1.65-5.097h0.52l-1.108,4.896c0.258-0.049,0.52-0.089,0.786-0.128l1.424-4.514h0.517
				l-0.935,4.372c1.478-0.192,3.08-0.339,4.858-0.473c0.289,0.121,0.596,0.453,0.873,0.916l4.666-1.439l0.17,0.502l-4.456,1.74
				c0.035,0.09,0.068,0.188,0.103,0.283l4.873-0.607l0.081,0.526l-4.732,0.946c0.018,0.089,0.031,0.177,0.044,0.266l4.926,0.157
				L92.539,10.43z M78.499,12.615c0.977-0.687,2.64-1.216,4.198-1.097c0.397,0.033,0.73-0.071,0.303-0.301
				c-1.168-0.615-3.885-0.407-4.848,0.253c-1.543,1.055-1.281,2.931-1.244,2.976C77.215,13.908,77.737,13.152,78.499,12.615z"/>
		</g>
	</g>
</g>
</svg>
