<svg id="Layer_1" data-name="Layer 1" xmlns="http://www.w3.org/2000/svg" viewBox="0 0 20 16.54"><title>menu-stack</title><g id="Page-1"><g id="menu"><path id="Combined-Shape" d="M0,1.73H20v2H0Zm0,6H20v2H0Z" transform="translate(0 -1.73)"/></g></g><path d="M4.81,18.18V13.79L3,18.18H2.72L.91,13.79v4.39H.25V12.84h1l1.65,4,1.66-4h1v5.33Z" transform="translate(0 -1.73)"/><path d="M6.54,16.24a1.93,1.93,0,0,1,1.9-2,1.88,1.88,0,0,1,1.85,2.07v.15H7.18a1.36,1.36,0,0,0,1.39,1.34,1.69,1.69,0,0,0,1.19-.49l.29.39a2.1,2.1,0,0,1-1.54.59A1.91,1.91,0,0,1,6.54,16.24Zm1.9-1.53A1.29,1.29,0,0,0,7.18,16H9.71A1.25,1.25,0,0,0,8.44,14.71Z" transform="translate(0 -1.73)"/><path d="M14,18.18V15.65c0-.68-.34-.9-.86-.9a1.49,1.49,0,0,0-1.14.6v2.82h-.6V14.31h.6v.56a1.92,1.92,0,0,1,1.38-.66,1.1,1.1,0,0,1,1.23,1.25v2.71Z" transform="translate(0 -1.73)"/><path d="M18.43,18.18v-.54a1.89,1.89,0,0,1-1.37.64A1.09,1.09,0,0,1,15.82,17V14.31h.6v2.54c0,.68.34.88.86.88a1.48,1.48,0,0,0,1.14-.58V14.31H19v3.86Z" transform="translate(0 -1.73)"/></svg>
