<?xml version="1.0" encoding="utf-8"?>
<!-- Generator: Adobe Illustrator 16.0.0, SVG Export Plug-In . SVG Version: 6.00 Build 0)  -->
<!DOCTYPE svg PUBLIC "-//W3C//DTD SVG 1.1//EN" "http://www.w3.org/Graphics/SVG/1.1/DTD/svg11.dtd">
<svg version="1.1" id="Layer_1" xmlns="http://www.w3.org/2000/svg" xmlns:xlink="http://www.w3.org/1999/xlink" x="0px" y="0px"
	 width="259.56px" height="71.979px" viewBox="0 0 259.56 71.979" enable-background="new 0 0 259.56 71.979" xml:space="preserve">
<g>
	<g>
		<path fill="#68737A" d="M189.95,40.482c-2.705-2.03-4.598-3.164-4.598-5.058c0-1.999,1.406-2.813,2.977-2.813
			c2.162,0,3.188,1.516,3.404,3.409h0.704v-3.544c0-0.135-0.027-0.245-0.188-0.295c-1.082-0.379-2.623-0.515-3.786-0.515
			c-3.11,0-5.812,1.918-5.812,4.354c0,1.315,0.363,2.258,0.896,2.979h-0.01c0.012,0.011,0.024,0.021,0.033,0.03
			c0.655,0.874,1.556,1.432,2.351,1.964c4.058,2.68,4.972,4.11,5.005,5.867c0.074,3.902-7.235,5.955-12.047-1.544l-2.497-3.801
			c1.964-0.766,3.569-2.576,3.569-5.205c0-2.989-2.576-4.333-5.151-4.333h-7.426v0.66c2.296,0.275,2.192,0.153,2.192,2.523v11.48
			c0,2.38,0.104,2.247-2.192,2.526v0.665h6.864v-0.665c-2.298-0.279-2.197-0.146-2.197-2.526v-4.717h2.401
			c3.085,5.126,3.849,7.353,5.404,7.908c0.347,0.122,4.351,1.41,7.178,1.41c3.245,0,6.711-1.785,6.711-5.003
			C193.734,43.997,192.815,42.614,189.95,40.482z M174.161,41.381h-2.121v-8.316h1.965c1.86,0,3.398,0.966,3.398,3.751
			C177.403,39.699,176.381,41.381,174.161,41.381z"/>
		<path fill="#68737A" d="M121.831,49.806c0,0,0,0-12.483-14.792v11.331c0,0.538,0.104,0.974,0.15,1.384
			c0.131,0.923,1.005,1.28,2.695,1.411v0.666h-6.28V49.14c1.234-0.131,2.077-0.488,2.203-1.411c0.054-0.41,0.155-0.846,0.155-1.384
			V34.271c-0.716-0.922-1.516-1.744-2.972-1.744v-0.672h4.661c3.819,4.645,7.798,9.36,11.615,14.004h0.052V35.318
			c0-0.539-0.104-0.973-0.156-1.383c-0.13-0.924-0.993-1.277-2.689-1.408v-0.672h6.281v0.672c-1.204,0.131-2.077,0.484-2.209,1.408
			c-0.051,0.41-0.151,0.844-0.151,1.383v14.487H121.831z"/>
		<path fill="#68737A" d="M131.908,46.6c0,2.389-0.103,2.258,2.202,2.54v0.666h-6.895V49.14c2.308-0.282,2.204-0.151,2.204-2.54
			V35.064c0-2.382,0.104-2.258-2.204-2.537v-0.664h6.895v0.664c-2.305,0.279-2.202,0.155-2.202,2.537V46.6z"/>
		<path fill="#68737A" d="M164.525,45.189c-1.18,2.746-1,3.799-4.714,3.799c-2.308,0-3.312-0.184-3.312-2.363v-5.793h2.157
			c1.716,0,2.306,0.902,2.355,2.414h0.663V37.78h-0.663c-0.05,1.59-0.743,2.233-2.355,2.233H156.5v-7.331h4.069
			c1.843,0,2.36,1.406,2.612,3.305h0.665v-4.124H152.04h-5.079v0.664c1.74,0,2.409,0.793,1.767,2.41
			c-1.589,3.923-3.152,7.867-4.796,11.791c-1.332-3.893-2.816-8.303-3.812-11.329c-0.852-2.464,0.178-2.872,1.589-2.872v-0.664
			h-6.521v0.664c1.235,0,1.564,0.793,2.52,3.537c1.562,4.359,3.309,9.305,4.871,13.741h1.305c2.155-5.255,4.334-10.485,6.486-15.737
			c0.54-1.286,0.923-1.541,1.671-1.541c2.306,0.279,1.974,0.155,1.974,2.537V46.6c0,2.389,0.332,2.258-1.974,2.54v0.666h12.382
			l0.771-4.616H164.525z"/>
		<path fill="#68737A" d="M199.873,46.6c0,2.389-0.107,2.258,2.2,2.54v0.666h-6.896V49.14c2.31-0.282,2.206-0.151,2.206-2.54V35.064
			c0-2.382,0.104-2.258-2.206-2.537v-0.664h6.896v0.664c-2.308,0.279-2.2,0.155-2.2,2.537V46.6z"/>
		<path fill="#68737A" d="M226.089,31.863v0.664c1.511,0,2.331,0.74,1.459,2.307l-3.536,6.439l-3.104-6.439
			c-0.641-1.334-0.816-2.307,1.127-2.307v-0.664h-4.297h-1.779h-11.938l-0.694,3.916h0.643c0.844-1.69,1.356-3.097,3.587-3.097
			h2.081V46.6c0,2.389,0.101,2.258-2.207,2.54v0.666h6.896V49.14c-2.308-0.282-2.206-0.151-2.206-2.54V32.683h2.079
			c2.102,0,3.516,1.255,4.38,2.815l3.61,7.159V46.6c0,2.389,0.104,2.258-2.203,2.54v0.666h6.894V49.14
			c-2.304-0.282-2.203-0.151-2.203-2.54v-2.871c0-0.639,0.052-1.359,0.309-1.869l4.279-7.771c0.695-1.229,1.384-1.562,2.104-1.562
			v-0.664H226.089z"/>
		<path fill="#68737A" d="M105.329,31.85l-8.078,0.021v0.67c1.619,0.174,2.792,0.885,2.962,2.129
			c0.069,0.549,0.211,1.133,0.211,1.857v9.584c0,5.521-2.487,8.689-7.207,8.689c-5.139,0-6.681-3.688-6.681-8.518V36.181
			c0-3.204,0.094-3.263,3.197-3.64v-0.67h-9.278v0.67c3.107,0.377,2.969,0.436,2.969,3.64v10.276c0,6.24,2.276,9.969,9.617,9.969
			c4.448,0,9.177-2.758,9.177-10.175v-9.724c0-0.059,0-0.115,0-0.17c-0.032-2.994,1.132-3.43,3.093-3.746L105.329,31.85z"/>
	</g>
	<g>
		<path fill="#68737A" d="M63.847,19.021c0,2.375-0.104,2.246,2.192,2.527v0.662h-6.865v-0.662c2.297-0.281,2.194-0.152,2.194-2.527
			V7.531c0-2.369-1.104-2.242-3.4-2.523v-0.66h8.071v0.66c-2.296,0.281-2.192,0.154-2.192,2.523v4.422h8.958V7.531
			c0-2.369,0.101-2.242-2.196-2.523v-0.66h6.864v0.66c-2.293,0.281-2.194,0.154-2.194,2.523v11.49c0,2.375-0.099,2.246,2.194,2.527
			v0.662h-6.864v-0.662c2.297-0.281,2.196-0.152,2.196-2.527v-6.027h-8.958V19.021z"/>
		<path fill="#68737A" d="M84.958,19.021c0,2.375-0.104,2.246,2.193,2.527v0.662h-6.865v-0.662c2.297-0.281,2.195-0.152,2.195-2.527
			V7.531c0-2.369,0.102-2.242-2.195-2.523v-0.66h6.865v0.66c-2.298,0.281-2.193,0.154-2.193,2.523V19.021z"/>
		<path fill="#68737A" d="M106.179,22.211c-4.058-4.797-8.271-9.828-12.429-14.73v11.287c0,0.531,0.101,0.969,0.154,1.377
			c0.127,0.922,0.993,1.273,2.677,1.404v0.662H90.33v-0.662c1.223-0.131,2.066-0.482,2.195-1.404
			c0.05-0.408,0.153-0.846,0.153-1.377V6.742c-0.717-0.916-1.508-1.734-2.964-1.734v-0.66h4.647
			c3.803,4.615,7.759,9.314,11.561,13.932h0.05V7.791c0-0.537-0.101-0.973-0.153-1.381c-0.125-0.918-0.996-1.273-2.68-1.402v-0.66
			h6.256v0.66c-1.2,0.129-2.066,0.484-2.199,1.402c-0.049,0.408-0.149,0.844-0.149,1.381v14.42H106.179z"/>
		<path fill="#68737A" d="M109.941,13.176c0-3.93,3.319-9.143,10.209-9.143c2.475,0,3.649,0.463,4.9,0.875
			c0.715,0.229,0.995,0.584,0.995,0.992v3.293h-0.663c-0.076-2.043-1.379-4.262-5.436-4.262c-5.336,0-7.072,3.674-7.096,8.039
			c-0.026,4.031,2.016,8.656,7.197,8.656c3.191,0,3.473-1.18,3.473-3.166v-1.559c0-2.377,0.099-2.244-2.707-2.527v-0.66h7.377v0.66
			c-2.297,0.283-2.193,0.15-2.193,2.527v4.443c-1.635,0.637-3.778,1.174-6.103,1.174C114.664,22.52,109.941,20.018,109.941,13.176z"
			/>
		<path fill="#68737A" d="M136.948,19.021c0,2.375-0.104,2.246,2.194,2.527v0.662h-6.866v-0.662
			c2.295-0.281,2.194-0.152,2.194-2.527V5.162h-2.069c-2.221,0-2.73,1.398-3.574,3.086h-0.636l0.69-3.9h13.655l0.689,3.9h-0.64
			c-0.84-1.688-1.351-3.086-3.571-3.086h-2.067V19.021z"/>
		<path fill="#68737A" d="M143.227,13.609c0-5.518,4.287-9.576,9.595-9.576c5.538,0,8.756,4.777,8.756,8.711
			c0,5.387-4.033,9.775-9.675,9.775C147.028,22.52,143.227,18.564,143.227,13.609z M158.665,13.508c0-6.102-3.29-8.576-6.406-8.576
			c-4.337,0-6.123,3.879-6.123,7.35c0,6.18,3.163,9.346,6.456,9.346C157.34,21.627,158.665,16.93,158.665,13.508z"/>
		<path fill="#68737A" d="M178.042,22.211c-4.062-4.797-8.271-9.828-12.432-14.73v11.287c0,0.531,0.101,0.969,0.153,1.377
			c0.128,0.922,0.995,1.273,2.679,1.404v0.662h-6.253v-0.662c1.227-0.131,2.068-0.482,2.196-1.404
			c0.051-0.408,0.152-0.846,0.152-1.377V6.742c-0.713-0.916-1.504-1.734-2.961-1.734v-0.66h4.646
			c3.804,4.615,7.757,9.314,11.562,13.932h0.048V7.791c0-0.537-0.102-0.973-0.152-1.381c-0.127-0.918-0.993-1.273-2.679-1.402v-0.66
			h6.252v0.66c-1.198,0.129-2.065,0.484-2.193,1.402c-0.051,0.408-0.154,0.844-0.154,1.381v14.42H178.042z"/>
		<path fill="#68737A" d="M35.129,0.928V0.9h-6.904v0.855c2.664,0.029,3.098,0.98,2.398,2.996L25.398,18.98h-0.29L18.955,1.193
			h-1.557L10.933,18.98h-0.438L5.861,4.846c-0.658-2.238,0.26-3.09,2.333-3.09V0.9H0v0.855c1.741,0,2.054,1.355,3.173,4.57
			L9.12,23.909h1.566L17.05,5.975l6.272,17.951h1.753c2.683-7.141,6.46-17.701,7.85-20.543c0.518-1.068,1.453-1.617,2.325-1.617
			V0.928H35.129z"/>
		<path fill="#68737A" d="M53.486,12.623c-2.686-2.014-4.565-3.143-4.565-5.023c0-1.986,1.396-2.795,2.954-2.795
			c2.149,0,3.169,1.506,3.385,3.387h0.697v-3.52c0-0.135-0.026-0.24-0.188-0.295c-1.074-0.375-2.604-0.512-3.76-0.512
			c-3.088,0-5.773,1.908-5.773,4.326c0,1.311,0.361,2.242,0.891,2.961h-0.009c0.01,0.01,0.021,0.02,0.032,0.029
			c0.649,0.869,1.544,1.422,2.336,1.951c4.028,2.658,4.969,4.082,4.969,5.828c0,1.623-1.22,3.25-3.465,3.412
			c-2.299,0.164-5.255-0.947-6.498-4.174c-1.104-3.094-3.352-9.598-4.868-14.088h-1.48c-2.118,5.643-4.99,13.914-6.089,16.158
			c-0.405,0.844-1.146,1.277-1.837,1.277v0.664h1.104h3.541v-0.664c-1.122,0-1.607-0.842-1.276-1.838l1.175-3.422h6.509l1.098,3.293
			l0.845,2.537c0,0,4.565,1.195,7.535,1.195c3.223,0,6.499-1.773,6.499-4.969C57.246,16.113,56.333,14.744,53.486,12.623z
			 M35.145,15.318l3.036-8.295h0.051l2.706,8.295H35.145z"/>
	</g>
	<g>
		<path fill="#68737A" d="M198.901,5.535c-0.272-2.408-1.578-4.332-4.325-4.332c-1.992,0-4.005,1.031-4.005,3.57
			c0,2.406,2.402,3.846,5.838,6.424c3.637,2.713,4.809,4.465,4.809,7.316c0,4.084-3.963,6.351-8.079,6.351
			c-2.203,0-4.091-0.416-5.879-1.099c-0.132-0.068-0.237-0.207-0.237-0.477v-4.951h0.892c0.381,3.811,2.88,5.324,5.53,5.324
			c2.438,0,4.654-1.855,4.654-4.361c0-2.234-1.201-4.055-6.351-7.447c-1.854-1.236-4.153-2.58-4.153-6.318
			c0-3.102,3.199-5.535,7.152-5.535c1.476,0,3.436,0.172,4.808,0.656c0.207,0.062,0.24,0.207,0.24,0.377v4.502H198.901z"/>
		<path fill="#68737A" d="M210.885,19.039c0,2.379-0.099,2.242,2.197,2.533v0.658h-6.869v-0.658
			c2.299-0.291,2.198-0.154,2.198-2.533V5.172h-2.072c-2.221,0-2.732,1.406-3.573,3.088h-0.636l0.687-3.9h13.659l0.69,3.9h-0.638
			c-0.842-1.682-1.353-3.088-3.572-3.088h-2.071V19.039z"/>
		<path fill="#68737A" d="M219.795,16.305l-1.168,3.424c-0.334,1,0.15,1.844,1.274,1.844v0.658h-4.646v-0.658
			c0.686,0,1.43-0.443,1.838-1.281c1.098-2.25,4.084-10.594,6.204-16.24h1.429c1.735,5.133,4.337,13.002,5.207,15.271
			c0.565,1.424,0.973,2.25,2.068,2.25v0.658h-5.947v-0.658c1.607,0,1.765-0.844,1.356-1.973l-1.103-3.295H219.795z M225.98,15.338
			l-2.709-8.301h-0.05l-3.039,8.301H225.98z"/>
		<path fill="#68737A" d="M238.976,19.039c0,2.379-0.101,2.242,2.194,2.533v0.658h-6.869v-0.658
			c2.298-0.291,2.199-0.154,2.199-2.533V5.172h-2.071c-2.223,0-2.728,1.406-3.576,3.088h-0.638l0.694-3.9h13.658l0.687,3.9h-0.641
			c-0.836-1.682-1.346-3.088-3.566-3.088h-2.071V19.039z"/>
		<path fill="#68737A" d="M246.46,21.572c2.302-0.291,1.973-0.154,1.973-2.533V7.547c0-2.375,0.329-2.248-1.973-2.527v-0.66h11.185
			v4.102h-0.667c-0.253-1.883-0.759-3.289-2.6-3.289h-3.477v7.311h2.145c1.607,0,2.3-0.641,2.347-2.225h0.666v5.434h-0.666
			c-0.047-1.51-0.635-2.402-2.347-2.402h-2.145v5.77c0,2.178,0.999,2.359,3.297,2.359c3.703,0,3.522-1.051,4.698-3.783h0.663
			l-0.769,4.596H246.46V21.572z"/>
	</g>
	<g>
		<g>
			<g>
				<g>
					<path fill="#68737A" d="M64.461,65.37l-6.322,4.501L51.82,65.37c-4.492-3.071-8.342-5.704-10.36-9.704
						c1.667,7.497,8.998,10.302,16.679,16.312c7.682-6.011,15.015-8.815,16.682-16.312C72.802,59.666,68.952,62.299,64.461,65.37z"
						/>
					<g>
						<path fill="#A90533" d="M40.588,28.709v0.786c0.489,0.168,0.649,0.324,0.701,1.036v18.121
							c0,10.079,8.203,12.743,16.854,19.514c8.654-6.771,16.86-9.435,16.86-19.514V30.329c0.064-0.55,0.24-0.683,0.68-0.834v-0.786
							H40.588z"/>
					</g>
				</g>
			</g>
		</g>
		<g>
			<g>
				<g>
					<path fill="#FFFFFF" d="M61.556,58.209c0,0,1.403-0.598,2.171-2.916c0.677,1.412,0.498,2.866,0.498,2.866
						C63.605,58.299,61.556,58.209,61.556,58.209z"/>
					<path fill="#FFFFFF" d="M69.086,44.953c0,0,0.854,4.656-2.171,4.815c-2.921,0.153-4.3-4.241-4.3-4.241s0.706,8.589,4.8,8.023
						C72.03,52.914,69.086,44.953,69.086,44.953z"/>
				</g>
			</g>
			<path fill="#FFFFFF" d="M46.845,57.101c0.001,0,0.003,0,0.006,0c3.415-0.776,6.028-4.765,6.797-6.364l0.486-1.015l0.295,1.086
				c0.015,0.062,0.333,1.255,0.333,2.835c0,0.174-0.005,0.355-0.014,0.536c1.179,0.044,2.018-0.193,2.542-0.735
				c0.749-0.779,0.976-2.248,0.693-4.494c-0.136-1.076-0.534-2.787-0.885-4.297c-0.181-0.771-0.35-1.501-0.452-2.016
				c-0.658-3.303,0.158-5.352,0.96-6.487c0.127-0.181,0.263-0.351,0.406-0.513c-2.359,0.797-4.341,2.033-6.386,4.074l1.438,1.67
				l0.588-0.549c0.554,2.07,0.156,3.979,0.156,3.979c-0.757-1.152-1.65-2.086-1.65-2.086l0.393-0.658l-1.295-1.506l-0.151-0.168
				c-1.593,2.189-2.11,3.982-2.11,3.982l1.132,1.03l0.659,0.598l0.219-0.634c1.217,2.275,0.107,4.402,0.107,4.402
				c-0.202-0.777-1.001-1.922-1.001-1.922l0.315-1.043l-1.681-1.523c-1.75,5.467-4.091,7.239-4.091,7.239s2.532-0.457,3.94-0.929
				C48.595,51.594,48.555,54.474,46.845,57.101z"/>
			<path fill="#FFFFFF" d="M72.369,37.379l-4.038,0.171c0.003,0.478-0.062,0.958-0.218,1.413c0.379,1.649,0.12,2.546,0.12,2.546
				c-0.679-1.573-1.195-2.009-1.195-2.009c-3.709-1.651-5.792,2.077-5.569,4.482c0.183,1.977,0.897,4.6,1.458,8.713
				c0.472,3.463-1.282,4.957-3.299,5.302c-0.044,0.007-0.088,0.017-0.131,0.022c-0.012,0-0.021,0.004-0.032,0.004
				c-0.325,0.042-0.675,0.059-1.043,0.048c-0.013,0-0.024,0-0.036,0c-0.04,0-0.082-0.006-0.12-0.006
				c-0.157-0.009-0.312-0.025-0.468-0.046c-1.566-0.215-5.081-0.854-8.708-0.941c2.134-1.247,3.803-3.402,4.733-4.933
				c0.056,0.424,0.102,0.94,0.102,1.509c0,0.285-0.013,0.582-0.039,0.888l-0.036,0.415l0.417,0.037
				c1.67,0.146,2.857-0.174,3.625-0.972c0.95-0.986,1.241-2.632,0.922-5.179c-0.142-1.119-0.544-2.851-0.898-4.381
				c-0.18-0.766-0.35-1.488-0.447-1.992c-0.601-3.01,0.114-4.838,0.82-5.84c0.557-0.787,1.319-1.361,2.158-1.639
				c0.015-0.001,0.028-0.006,0.044-0.007l1.377-4.235h0.432l-0.924,4.07c0.215-0.04,0.433-0.074,0.655-0.107l1.188-3.752h0.43
				l-0.778,3.635c1.23-0.16,2.568-0.281,4.05-0.393c0.24,0.1,0.497,0.375,0.727,0.762l3.89-1.197l0.142,0.418l-3.714,1.445
				c0.029,0.076,0.057,0.156,0.084,0.235l4.062-0.505l0.067,0.438l-3.943,0.786c0.014,0.074,0.026,0.147,0.036,0.222l4.104,0.131
				L72.369,37.379z M60.667,39.195c0.815-0.57,2.2-1.011,3.498-0.911c0.332,0.026,0.61-0.06,0.254-0.251
				c-0.973-0.512-3.239-0.338-4.041,0.211c-1.284,0.877-1.067,2.437-1.037,2.475C59.597,40.271,60.034,39.643,60.667,39.195z"/>
		</g>
	</g>
</g>
</svg>
