<?xml version="1.0" encoding="utf-8"?>
<!-- Generator: Adobe Illustrator 18.0.0, SVG Export Plug-In . SVG Version: 6.00 Build 0)  -->
<!DOCTYPE svg PUBLIC "-//W3C//DTD SVG 1.1//EN" "http://www.w3.org/Graphics/SVG/1.1/DTD/svg11.dtd">
<svg version="1.1" id="Layer_1" xmlns="http://www.w3.org/2000/svg" xmlns:xlink="http://www.w3.org/1999/xlink" x="0px" y="0px"
	 viewBox="230.4 333.1 148.7 120.3" enable-background="new 230.4 333.1 148.7 120.3" xml:space="preserve">
<path fill="#FFFFFF" d="M312.7,376.7l-7.5,5.3l-7.5-5.3c-5.3-3.7-9.9-6.8-12.3-11.6c2,8.9,10.7,12.3,19.8,19.4
	c9.1-7.1,17.8-10.5,19.8-19.4C322.6,369.9,318,373.1,312.7,376.7z"/>
<g>
	<path fill="#FFFFFF" d="M312.6,344.2c-1.2-0.6-3.9-0.4-4.8,0.3c-1.5,1.1-1.3,2.9-1.2,3c0.2-0.6,0.7-1.3,1.5-1.9
		c1-0.7,2.6-1.2,4.1-1.1C312.7,344.5,313,344.4,312.6,344.2z"/>
	<path fill="#FFFFFF" d="M284.3,333.1v0.9c0.6,0.2,0.8,0.4,0.8,1.2v21.6c0,12,9.7,15.1,20,23.2c10.4-8.1,20.1-11.3,20.1-23.2v-21.8
		c0.1-0.7,0.3-0.8,0.8-1v-1L284.3,333.1L284.3,333.1z M289.3,361.4c0,0,2.8-2.1,4.8-8.6l2,1.8l-0.4,1.3c0,0,1,1.4,1.2,2.3
		c0,0,1.4-2.6-0.1-5.2l-0.3,0.8l-0.8-0.7l-1.4-1.2c0,0,0.6-2.2,2.5-4.8l0.3,0.1l1.6,1.8l-0.5,0.8c0,0,1.1,1.1,2,2.5
		c0,0,0.5-2.3-0.2-4.8l-0.7,0.7l-1.7-2c2.5-2.5,4.8-3.9,7.6-4.8c-0.2,0.2-0.3,0.4-0.5,0.6c-1,1.4-2,3.8-1.2,7.7
		c0.1,0.6,0.3,1.5,0.5,2.4c0.5,1.8,0.9,3.9,1.1,5.1c0.4,2.7,0.1,4.5-0.8,5.3c-0.7,0.7-1.7,1-3.1,0.9c0-0.2,0-0.4,0-0.6
		c0-1.9-0.4-3.3-0.4-3.4l-0.4-1.3l-0.6,1.2c-1,2-4,6.7-8.1,7.6c2.1-3.2,2.1-6.6,2.2-6.6C292.2,360.9,289.3,361.4,289.3,361.4z
		 M312.4,368.1c-0.8,0.2-3.2,0.1-3.2,0.1s1.7-0.7,2.6-3.5C312.6,366.4,312.4,368.1,312.4,368.1z M316.2,362.7
		c-4.9,0.6-5.7-9.6-5.7-9.6s1.7,5.2,5.1,5c3.6-0.2,2.6-5.7,2.6-5.7S321.6,361.9,316.2,362.7z M322,343.4l-4.8,0.2
		c0,0.6-0.1,1.2-0.3,1.7c0.5,2,0.1,3.1,0.1,3.1c-0.8-1.9-1.4-2.4-1.4-2.4c-4.4-2-6.8,2.5-6.6,5.3c0.2,2.4,1.1,5.4,1.8,10.4
		c0.6,4.1-1.5,5.9-4,6.3c-0.1,0-0.1,0-0.2,0c-0.4,0-0.8,0.1-1.3,0.1h-0.1c-0.2,0-0.4,0-0.6-0.1c-1.9-0.3-6-1-10.3-1.1
		c2.6-1.5,4.6-4,5.6-5.8c0.1,0.5,0.1,1.1,0.1,1.8c0,0.3,0,0.7,0,1.1v0.5h0.5c2,0.2,3.4-0.2,4.2-1.2c1.1-1.2,1.5-3.2,1.1-6.1
		c-0.2-1.3-0.7-3.4-1.1-5.2c-0.2-0.9-0.4-1.8-0.5-2.4c-0.7-3.6,0.1-5.7,1-6.9c0.7-0.9,1.6-1.6,2.6-2c0,0,0,0,0.1,0l1.7-5h0.5
		l-1.1,4.8c0.3,0,0.5-0.1,0.8-0.1l1.4-4.5h0.5l-0.9,4.4c1.5-0.2,3.1-0.3,4.8-0.5c0.3,0.1,0.6,0.5,0.9,0.9l4.7-1.4l0.2,0.5l-4.5,1.7
		c0,0.1,0.1,0.2,0.1,0.3l4.6-0.7l0.1,0.5l-4.7,0.9c0,0.1,0,0.2,0,0.3l4.8,0.2V343.4L322,343.4z"/>
</g>
<g>
	<g>
		<g>
			<path fill="#FFFFFF" stroke="#FFFFFF" stroke-width="0.3" stroke-miterlimit="10" d="M325.1,415.2c-1.6-1.2-2.7-1.8-2.7-2.9
				c0-1.2,0.8-1.6,1.7-1.6c1.3,0,1.8,0.9,2,2h0.4v-2.1c0-0.1,0-0.1-0.1-0.2c-0.6-0.2-1.5-0.3-2.2-0.3c-1.8,0-3.4,1.1-3.4,2.5
				c0,0.8,0.2,1.3,0.5,1.7l0,0l0,0c0.4,0.5,0.9,0.8,1.4,1.1c2.4,1.6,2.9,2.4,2.9,3.4c0,2.3-4.1,3.5-6.9-0.9l-1.4-2.2
				c1.1-0.4,2.1-1.5,2.1-3c0-1.7-1.5-2.5-3-2.5h-4.2v0.4c1.3,0.2,1.3,0.1,1.3,1.5v6.6c0,1.4,0.1,1.3-1.3,1.5v0.4h4v-0.4
				c-1.3-0.2-1.3-0.1-1.3-1.5v-2.7h1.4c1.8,3,2.2,4.2,3.1,4.6c0.2,0.1,2.5,0.8,4.1,0.8c1.9,0,3.9-1,3.9-2.9
				C327.2,417.3,326.8,416.5,325.1,415.2z M316.1,415.7h-1.2v-4.8h1.1c1.1,0,2,0.6,2,2.2C317.9,414.8,317.3,415.7,316.1,415.7z"/>
			<path fill="#FFFFFF" stroke="#FFFFFF" stroke-width="0.3" stroke-miterlimit="10" d="M286.6,420.5c0,0,0,0-7.1-8.5v6.5
				c0,0.3,0.1,0.6,0.1,0.8c0.1,0.5,0.6,0.7,1.6,0.8v0.4h-3.6v-0.4c0.7-0.1,1.2-0.3,1.3-0.8c0-0.2,0.1-0.5,0.1-0.8v-6.9
				c-0.4-0.5-0.9-1-1.7-1v-0.4h2.7c2.2,2.7,4.5,5.3,6.6,8l0,0v-6c0-0.3-0.1-0.6-0.1-0.8c-0.1-0.5-0.6-0.7-1.6-0.8v-0.4h3.6v0.4
				c-0.7,0.1-1.2,0.3-1.3,0.8c0,0.2-0.1,0.5-0.1,0.8v8.3L286.6,420.5L286.6,420.5z"/>
			<path fill="#FFFFFF" stroke="#FFFFFF" stroke-width="0.3" stroke-miterlimit="10" d="M292.3,418.7c0,1.4-0.1,1.3,1.3,1.5v0.4h-4
				v-0.5c1.3-0.2,1.3-0.1,1.3-1.5V412c0-1.4,0.1-1.3-1.3-1.5v-0.3h4v0.4c-1.3,0.2-1.3,0.1-1.3,1.5V418.7L292.3,418.7z"/>
			<path fill="#FFFFFF" stroke="#FFFFFF" stroke-width="0.3" stroke-miterlimit="10" d="M311,418c-0.7,1.6-0.6,2.2-2.7,2.2
				c-1.3,0-1.9-0.1-1.9-1.4v-3.4h1.2c1,0,1.3,0.5,1.4,1.4h0.4v-3.2h-0.4c0,0.9-0.4,1.3-1.4,1.3h-1.3v-4.2h2.4c1.1,0,1.4,0.8,1.5,1.9
				h0.4v-2.3h-6.7h-2.9v0.4c1,0,1.4,0.5,1,1.4c-0.9,2.3-1.8,4.6-2.8,6.7c-0.8-2.3-1.6-4.8-2.2-6.5c-0.5-1.4,0.1-1.7,0.9-1.7v-0.3
				h-3.8v0.4c0.7,0,0.9,0.5,1.5,2.1c0.9,2.5,1.9,5.3,2.8,7.9h0.8c1.3-3,2.5-6,3.8-9c0.3-0.7,0.5-0.9,1-0.9c1.3,0.2,1.1,0.1,1.1,1.5
				v6.6c0,1.4,0.2,1.3-1.1,1.5v0.4h7.1l0.4-2.7L311,418L311,418z"/>
			<path fill="#FFFFFF" stroke="#FFFFFF" stroke-width="0.3" stroke-miterlimit="10" d="M330.8,418.7c0,1.4-0.1,1.3,1.3,1.5v0.4h-4
				v-0.5c1.3-0.2,1.3-0.1,1.3-1.5V412c0-1.4,0.1-1.3-1.3-1.5v-0.3h4v0.4c-1.3,0.2-1.3,0.1-1.3,1.5V418.7z"/>
			<path fill="#FFFFFF" stroke="#FFFFFF" stroke-width="0.3" stroke-miterlimit="10" d="M345.8,410.2v0.4c0.9,0,1.4,0.4,0.8,1.3
				l-2.1,3.7l-1.8-3.7c-0.4-0.8-0.5-1.3,0.7-1.3v-0.4H341h-1h-6.8l-0.4,2.3h0.4c0.5-1,0.8-1.8,2.1-1.8h1.2v8c0,1.4,0.1,1.3-1.3,1.5
				v0.4h4v-0.5c-1.3-0.2-1.3-0.1-1.3-1.5v-8h1.2c1.2,0,2,0.7,2.5,1.6l2.1,4.1v2.3c0,1.4,0.1,1.3-1.3,1.5v0.4h4v-0.4
				c-1.3-0.2-1.3-0.1-1.3-1.5V417c0-0.4,0-0.8,0.2-1.1l2.5-4.5c0.4-0.7,0.8-0.9,1.2-0.9v-0.3H345.8z"/>
			<path fill="#FFFFFF" stroke="#FFFFFF" stroke-width="0.3" stroke-miterlimit="10" d="M277.1,410.2h-4.7v0.4
				c0.9,0.1,1.6,0.5,1.7,1.2c0,0.3,0.1,0.7,0.1,1.1v5.5c0,3.2-1.4,4.9-4.1,4.9c-3,0-3.9-2.1-3.9-4.8v-5.8c0-1.9,0.1-1.9,1.9-2.1
				v-0.4h-5.3v0.4c1.8,0.2,1.7,0.3,1.7,2.1v6c0,3.6,1.3,5.7,5.5,5.7c2.6,0,5.2-1.6,5.2-5.8V413v-0.1c0-1.7,0.7-2,1.8-2.2
				L277.1,410.2z"/>
		</g>
		<g>
			<path fill="#FFFFFF" stroke="#FFFFFF" stroke-width="0.3" stroke-miterlimit="10" d="M267.1,402.9c0,1.4-0.1,1.3,1.3,1.5v0.4h-4
				v-0.5c1.3-0.2,1.3-0.1,1.3-1.5v-6.6c0-1.4-0.6-1.3-2-1.5v-0.3h4.7v0.4c-1.3,0.2-1.3,0.1-1.3,1.5v2.6h5.1v-2.6
				c0-1.4,0.1-1.3-1.3-1.5v-0.4h4v0.4c-1.3,0.2-1.3,0.1-1.3,1.5v6.6c0,1.4-0.1,1.3,1.3,1.5v0.4h-4v-0.5c1.3-0.2,1.3-0.1,1.3-1.5
				v-3.5h-5.1V402.9z"/>
			<path fill="#FFFFFF" stroke="#FFFFFF" stroke-width="0.3" stroke-miterlimit="10" d="M279.3,402.9c0,1.4-0.1,1.3,1.3,1.5v0.4h-4
				v-0.5c1.3-0.2,1.3-0.1,1.3-1.5v-6.6c0-1.4,0.1-1.3-1.3-1.5v-0.3h4v0.4c-1.3,0.2-1.3,0.1-1.3,1.5V402.9z"/>
			<path fill="#FFFFFF" stroke="#FFFFFF" stroke-width="0.3" stroke-miterlimit="10" d="M291.4,404.7c-2.4-2.8-4.8-5.6-7.1-8.4v6.4
				c0,0.3,0.1,0.6,0.1,0.8c0.1,0.5,0.6,0.7,1.6,0.8v0.4h-3.6v-0.4c0.7-0.1,1.2-0.3,1.3-0.8c0-0.2,0.1-0.5,0.1-0.8v-6.9
				c-0.4-0.5-0.9-1-1.7-1v-0.4h2.7c2.2,2.7,4.5,5.3,6.6,8l0,0v-6c0-0.3-0.1-0.6-0.1-0.8c-0.1-0.5-0.6-0.7-1.6-0.8v-0.4h3.6v0.4
				c-0.7,0.1-1.2,0.3-1.3,0.8c0,0.2-0.1,0.5-0.1,0.8v8.3L291.4,404.7L291.4,404.7z"/>
			<path fill="#FFFFFF" stroke="#FFFFFF" stroke-width="0.3" stroke-miterlimit="10" d="M293.6,399.6c0-2.3,1.9-5.2,5.8-5.2
				c1.4,0,2.1,0.3,2.8,0.5c0.4,0.1,0.6,0.3,0.6,0.6v1.9h-0.4c0-1.2-0.8-2.5-3.2-2.5c-3.1,0-4,2.1-4,4.7c0,2.3,1.2,4.9,4.1,4.9
				c1.9,0,2-0.7,2-1.8v-0.9c0-1.4,0.1-1.3-1.6-1.5v-0.4h4.2v0.4c-1.3,0.1-1.2,0.1-1.2,1.4v2.6c-0.9,0.4-2.2,0.7-3.5,0.7
				C296.3,404.9,293.6,403.4,293.6,399.6z"/>
			<path fill="#FFFFFF" stroke="#FFFFFF" stroke-width="0.3" stroke-miterlimit="10" d="M309.1,402.9c0,1.4-0.1,1.3,1.3,1.5v0.4h-4
				v-0.5c1.3-0.2,1.3-0.1,1.3-1.5v-7.9h-1.2c-1.3,0-1.6,0.8-2.1,1.8H304l0.4-2.3h7.8l0.4,2.3h-0.4c-0.5-1-0.8-1.8-2.1-1.8h-1.2
				C309.1,394.9,309.1,402.9,309.1,402.9z"/>
			<path fill="#FFFFFF" stroke="#FFFFFF" stroke-width="0.3" stroke-miterlimit="10" d="M312.7,399.8c0-3.2,2.5-5.5,5.5-5.5
				c3.2,0,5,2.8,5,5c0,3.1-2.3,5.6-5.5,5.6C314.9,404.9,312.7,402.6,312.7,399.8z M321.5,399.8c0-3.5-1.9-4.9-3.7-4.9
				c-2.5,0-3.6,2.2-3.6,4.2c0,3.6,1.8,5.3,3.7,5.3C320.8,404.4,321.5,401.6,321.5,399.8z"/>
			<path fill="#FFFFFF" stroke="#FFFFFF" stroke-width="0.3" stroke-miterlimit="10" d="M332.7,404.7c-2.4-2.8-4.8-5.6-7.1-8.4v6.4
				c0,0.3,0.1,0.6,0.1,0.8c0.1,0.5,0.6,0.7,1.6,0.8v0.4h-3.6v-0.4c0.7-0.1,1.2-0.3,1.3-0.8c0-0.2,0.1-0.5,0.1-0.8v-6.9
				c-0.4-0.5-0.9-1-1.7-1v-0.4h2.7c2.2,2.7,4.5,5.3,6.6,8l0,0v-6c0-0.3-0.1-0.6-0.1-0.8c-0.1-0.5-0.6-0.7-1.6-0.8v-0.4h3.6v0.4
				c-0.7,0.1-1.2,0.3-1.3,0.8c0,0.2-0.1,0.5-0.1,0.8v8.3L332.7,404.7L332.7,404.7z"/>
			<path fill="#FFFFFF" stroke="#FFFFFF" stroke-width="0.3" stroke-miterlimit="10" d="M250.7,392.5L250.7,392.5h-4v0.5
				c1.5,0,1.8,0.6,1.4,1.7l-3,8.2H245l-3.6-10.3h-0.9l-3.8,10.2h-0.2l-2.7-8.1c-0.4-1.3,0.2-1.8,1.4-1.8v-0.5h-4.8v0.5
				c1,0,1.2,0.8,1.8,2.7l3.5,10.1h0.9l3.7-10.3l3.6,10.3h1c1.6-4,3.7-10.2,4.6-11.8c0.3-0.6,0.8-0.9,1.3-0.9L250.7,392.5
				C250.8,392.5,250.7,392.5,250.7,392.5z"/>
			<path fill="#FFFFFF" stroke="#FFFFFF" stroke-width="0.3" stroke-miterlimit="10" d="M261.2,399.2c-1.6-1.2-2.6-1.8-2.6-2.9
				c0-1.2,0.8-1.6,1.7-1.6c1.2,0,1.8,0.9,2,2h0.4v-2c0-0.1,0-0.1-0.1-0.2c-0.6-0.2-1.5-0.3-2.2-0.3c-1.8,0-3.3,1.1-3.3,2.5
				c0,0.8,0.2,1.3,0.5,1.7l0,0l0,0c0.4,0.5,0.9,0.8,1.4,1.1c2.3,1.5,2.9,2.4,2.9,3.4c0,0.9-0.7,1.9-2,2s-3-0.5-3.8-2.4
				c-0.6-1.8-1.9-5.5-2.8-8.1h-0.9c-1.2,3.3-2.9,8-3.5,9.3c-0.2,0.5-0.7,0.7-1.1,0.7v0.4h0.6h2.1v-0.4c-0.7,0-0.9-0.5-0.7-1.1l0.7-2
				h3.8l0.6,1.9l0.5,1.5c0,0,2.6,0.7,4.4,0.7c1.9,0,3.8-1,3.8-2.9C263.4,401.2,262.9,400.4,261.2,399.2z M250.7,400.8l1.8-4.8l0,0
				l1.6,4.8H250.7z"/>
		</g>
		<g>
			<path fill="#FFFFFF" stroke="#FFFFFF" stroke-width="0.3" stroke-miterlimit="10" d="M344.6,395.1c-0.2-1.4-0.9-2.5-2.5-2.5
				c-1.2,0-2.3,0.6-2.3,2.1c0,1.4,1.4,2.2,3.4,3.7c2.1,1.6,2.8,2.6,2.8,4.1c0,2.4-2.3,3.7-4.7,3.7c-1.3,0-2.4-0.2-3.4-0.6
				c-0.1,0-0.1-0.1-0.1-0.3v-2.9h0.5c0.2,2.2,1.7,3.1,3.2,3.1c1.4,0,2.7-1.1,2.7-2.5c0-1.3-0.7-2.4-3.7-4.2
				c-1.1-0.7-2.4-1.5-2.4-3.7c0-1.8,1.9-3.2,4-3.2c0.9,0,2,0.1,2.8,0.4c0.1,0,0.1,0.1,0.1,0.2v2.6H344.6L344.6,395.1z"/>
			<path fill="#FFFFFF" stroke="#FFFFFF" stroke-width="0.3" stroke-miterlimit="10" d="M351,402.9c0,1.4-0.1,1.3,1.3,1.5v0.4h-4
				v-0.5c1.3-0.2,1.3-0.1,1.3-1.5v-7.9h-1.2c-1.3,0-1.6,0.8-2.1,1.8h-0.4l0.4-2.3h7.8l0.4,2.3h-0.4c-0.5-1-0.8-1.8-2.1-1.8h-1.2
				C351,394.9,351,402.9,351,402.9z"/>
			<path fill="#FFFFFF" stroke="#FFFFFF" stroke-width="0.3" stroke-miterlimit="10" d="M356,401.3l-0.7,2c-0.2,0.6,0.1,1.1,0.7,1.1
				v0.4h-2.7v-0.5c0.4,0,0.8-0.3,1.1-0.7c0.6-1.3,2.4-6,3.6-9.3h0.8c1,3,2.5,7.4,3,8.8c0.3,0.8,0.6,1.3,1.2,1.3v0.4h-3.5v-0.5
				c0.9,0,1-0.5,0.8-1.1l-0.6-1.9L356,401.3L356,401.3z M359.6,400.8L358,396l0,0l-1.8,4.8H359.6z"/>
			<path fill="#FFFFFF" stroke="#FFFFFF" stroke-width="0.3" stroke-miterlimit="10" d="M367.1,402.9c0,1.4-0.1,1.3,1.3,1.5v0.4h-4
				v-0.5c1.3-0.2,1.3-0.1,1.3-1.5v-7.9h-1.2c-1.3,0-1.6,0.8-2.1,1.8H362l0.4-2.3h7.8l0.4,2.3h-0.4c-0.5-1-0.8-1.8-2.1-1.8H367
				L367.1,402.9L367.1,402.9z"/>
			<path fill="#FFFFFF" stroke="#FFFFFF" stroke-width="0.3" stroke-miterlimit="10" d="M371.4,404.3c1.3-0.2,1.1-0.1,1.1-1.5v-6.6
				c0-1.4,0.2-1.3-1.1-1.5v-0.4h6.4v2.4h-0.4c-0.1-1.1-0.4-1.9-1.5-1.9h-2v4.1h1.2c0.9,0,1.3-0.4,1.4-1.3h0.4v3.2h-0.4
				c0-0.9-0.4-1.4-1.4-1.4h-1.2v3.3c0,1.3,0.6,1.4,1.9,1.4c2.1,0,2-0.6,2.7-2.2h0.4l-0.4,2.7h-7.1V404.3L371.4,404.3z"/>
		</g>
	</g>
	<g>
		<path fill="#FFFFFF" stroke="#FFFFFF" stroke-width="0.3" stroke-miterlimit="10" d="M268.7,441.5h-1v-3.7h-3.6v3.7h-1v-7.4h1v3
			h3.6v-3h1V441.5z"/>
		<path fill="#FFFFFF" stroke="#FFFFFF" stroke-width="0.3" stroke-miterlimit="10" d="M274.7,434.8h-2.6v2.4h2.6v0.8h-2.6v2.8h3.1
			v0.8H271v-7.4h3.6V434.8z"/>
		<path fill="#FFFFFF" stroke="#FFFFFF" stroke-width="0.3" stroke-miterlimit="10" d="M280.1,434.1l2.8,7.4h-1.2l-0.8-2.2h-2.8
			l-0.8,2.2h-1l3-7.4H280.1z M280.7,438.6c-0.4-1-0.7-2.1-1.1-3.4h0c-0.4,1.3-0.8,2.4-1.2,3.4H280.7z"/>
		<path fill="#FFFFFF" stroke="#FFFFFF" stroke-width="0.3" stroke-miterlimit="10" d="M284.3,434.1h1v6.7h3.1v0.8h-4.1V434.1z"/>
		<path fill="#FFFFFF" stroke="#FFFFFF" stroke-width="0.3" stroke-miterlimit="10" d="M291.2,441.5v-6.7h-2.4v-0.8h5.8v0.8h-2.4
			v6.7H291.2z"/>
		<path fill="#FFFFFF" stroke="#FFFFFF" stroke-width="0.3" stroke-miterlimit="10" d="M301.8,441.5h-1v-3.7h-3.6v3.7h-1v-7.4h1v3
			h3.6v-3h1V441.5z"/>
		<path fill="#FFFFFF" stroke="#FFFFFF" stroke-width="0.3" stroke-miterlimit="10" d="M311.3,435.2c-0.4-0.3-0.8-0.5-1.3-0.5
			c-0.8,0-1.2,0.4-1.2,1c0,0.5,0.5,0.9,1.4,1.6c1,0.8,1.6,1.4,1.6,2.4c0,1.2-1.1,1.9-2.3,1.9c-0.7,0-1.6-0.2-2.1-0.8l0.5-0.6
			c0.4,0.3,0.9,0.7,1.6,0.7c0.7,0,1.3-0.4,1.3-1.2c0-0.9-1.1-1.5-1.7-2c-0.6-0.5-1.3-0.9-1.3-2c0-1,1-1.7,2.1-1.7
			c0.8,0,1.4,0.3,1.8,0.8L311.3,435.2z"/>
		<path fill="#FFFFFF" stroke="#FFFFFF" stroke-width="0.3" stroke-miterlimit="10" d="M319.3,435.4c-0.3-0.3-1.1-0.7-1.9-0.7
			c-1.8,0-2.9,1.3-2.9,3.1c0,1.9,1.3,3.1,2.9,3.1c0.8,0,1.4-0.2,1.9-0.6l0.4,0.6c-0.5,0.3-1.4,0.7-2.3,0.7c-2.6,0-4-1.8-4-3.9
			c0-1.9,1.5-3.8,4.1-3.8c1.1,0,1.8,0.4,2.3,0.8L319.3,435.4z"/>
		<path fill="#FFFFFF" stroke="#FFFFFF" stroke-width="0.3" stroke-miterlimit="10" d="M321.6,441.5v-7.4h1v7.4H321.6z"/>
		<path fill="#FFFFFF" stroke="#FFFFFF" stroke-width="0.3" stroke-miterlimit="10" d="M328.6,434.8H326v2.4h2.6v0.8H326v2.8h3.1
			v0.8H325v-7.4h3.6V434.8L328.6,434.8z"/>
		<path fill="#FFFFFF" stroke="#FFFFFF" stroke-width="0.3" stroke-miterlimit="10" d="M337.3,441.5h-0.8c-1.6-1.9-4.4-5.2-4.8-5.9
			h0v5.9h-0.8v-7.4h0.8c1.6,1.9,4.4,5.2,4.8,5.9h0v-5.9h0.8V441.5L337.3,441.5z"/>
		<path fill="#FFFFFF" stroke="#FFFFFF" stroke-width="0.3" stroke-miterlimit="10" d="M344.8,435.4c-0.3-0.3-1.1-0.7-1.9-0.7
			c-1.8,0-2.9,1.3-2.9,3.1c0,1.9,1.3,3.1,2.9,3.1c0.8,0,1.4-0.2,1.9-0.6l0.4,0.6c-0.5,0.3-1.4,0.7-2.3,0.7c-2.6,0-4-1.8-4-3.9
			c0-1.9,1.5-3.8,4.1-3.8c1.1,0,1.8,0.4,2.3,0.8L344.8,435.4z"/>
		<path fill="#FFFFFF" stroke="#FFFFFF" stroke-width="0.3" stroke-miterlimit="10" d="M350.4,434.8h-2.6v2.4h2.6v0.8h-2.6v2.8h3.1
			v0.8h-4.1v-7.4h3.6V434.8L350.4,434.8z"/>
		<path fill="#FFFFFF" stroke="#FFFFFF" stroke-width="0.3" stroke-miterlimit="10" d="M356.1,435.2c-0.4-0.3-0.8-0.5-1.3-0.5
			c-0.8,0-1.2,0.4-1.2,1c0,0.5,0.5,0.9,1.4,1.6c1,0.8,1.6,1.4,1.6,2.4c0,1.2-1.1,1.9-2.3,1.9c-0.7,0-1.6-0.2-2.1-0.8l0.5-0.6
			c0.4,0.3,0.9,0.7,1.6,0.7c0.7,0,1.3-0.4,1.3-1.2c0-0.9-1.1-1.5-1.7-2c-0.6-0.5-1.3-0.9-1.3-2c0-1,1-1.7,2.1-1.7
			c0.8,0,1.4,0.3,1.8,0.8L356.1,435.2z"/>
	</g>
	<g>
		<path fill="#FFFFFF" stroke="#FFFFFF" stroke-width="0.3" stroke-miterlimit="10" d="M290.2,446.9c-0.4-0.3-0.8-0.5-1.3-0.5
			c-0.8,0-1.2,0.4-1.2,1c0,0.5,0.5,0.9,1.4,1.6c1,0.8,1.6,1.4,1.6,2.4c0,1.2-1.1,1.9-2.3,1.9c-0.7,0-1.6-0.2-2.1-0.8l0.5-0.6
			c0.4,0.3,0.9,0.7,1.6,0.7c0.7,0,1.3-0.4,1.3-1.2c0-0.9-1.1-1.5-1.7-2c-0.6-0.5-1.3-0.9-1.3-2c0-1,1-1.7,2.1-1.7
			c0.8,0,1.4,0.3,1.8,0.8L290.2,446.9z"/>
		<path fill="#FFFFFF" stroke="#FFFFFF" stroke-width="0.3" stroke-miterlimit="10" d="M293.7,453.1h-1v-7.4h1.9
			c1.6,0,2.5,0.7,2.5,2.1c0,1.2-1.1,2.4-2.7,2.4H294v-0.7h0.3c1,0,1.6-0.6,1.6-1.7c0-0.8-0.5-1.4-1.6-1.4h-0.7V453.1L293.7,453.1z"
			/>
		<path fill="#FFFFFF" stroke="#FFFFFF" stroke-width="0.3" stroke-miterlimit="10" d="M298,449.3c0-2.1,1.6-3.7,3.7-3.7
			c2.1,0,3.7,1.6,3.7,3.7c0,2.2-1.4,4-3.7,4S298,451.5,298,449.3z M304.2,449.3c0-1.4-0.8-3-2.6-3s-2.6,1.6-2.6,3
			c0,1.5,0.7,3.2,2.6,3.2C303.6,452.5,304.2,450.7,304.2,449.3z"/>
		<path fill="#FFFFFF" stroke="#FFFFFF" stroke-width="0.3" stroke-miterlimit="10" d="M307.8,449l3.2-3.4l0.7,0.5l-2.9,3l3.2,3.8
			l-1,0.4l-3.2-4h0v3.8h-1v-7.4h1L307.8,449L307.8,449z"/>
		<path fill="#FFFFFF" stroke="#FFFFFF" stroke-width="0.3" stroke-miterlimit="10" d="M316.9,445.7l2.8,7.4h-1.2l-0.8-2.2h-2.8
			l-0.8,2.2h-1l3-7.4H316.9z M317.4,450.2c-0.4-1-0.7-2.1-1.1-3.4h0c-0.4,1.3-0.8,2.4-1.2,3.4H317.4z"/>
		<path fill="#FFFFFF" stroke="#FFFFFF" stroke-width="0.3" stroke-miterlimit="10" d="M327.5,453.1h-0.8c-1.6-1.9-4.4-5.2-4.8-5.9
			h0v5.9H321v-7.4h0.8c1.6,1.9,4.4,5.2,4.8,5.9h0v-5.9h0.8V453.1L327.5,453.1z"/>
		<path fill="#FFFFFF" stroke="#FFFFFF" stroke-width="0.3" stroke-miterlimit="10" d="M333,446.5h-2.6v2.4h2.6v0.8h-2.6v2.8h3.1
			v0.8h-4.1v-7.4h3.6V446.5L333,446.5z"/>
	</g>
</g>
</svg>
