<svg xmlns="http://www.w3.org/2000/svg" xml:space="preserve" viewBox="0 0 332.35999 247.33333"><g fill="#fff"><path d="M194.326662 170.663999s8.713333-3.720267 13.489333-18.128c4.208 8.780133 3.108 17.807733 3.108 17.807733-3.857334.8656-16.597333.320267-16.597333.320267M241.13466 88.262667s5.314667 28.960266-13.511999 29.949866c-18.162666.946267-26.717333-26.3672-26.717333-26.3672s4.390667 53.376 29.854666 49.859866c28.668-3.953066 10.374667-53.442532 10.374667-53.442532M102.84373 163.774532c.014667-.007867.028667-.007867.028667-.007867 21.228667-4.833333 37.4996-29.606799 42.2676-39.551599l3.036-6.2968 1.826666 6.740534c.088.364133 2.068 7.804266 2.068 17.618266 0 1.092267-.029333 2.205733-.088 3.333333 7.324.2776 12.550666-1.207733 15.805333-4.5864 4.666666-4.8188 6.064-13.9552 4.332-27.918666-.86-6.682666-3.326667-17.312-5.518667-26.694666-1.121333-4.797333-2.177333-9.333333-2.817333-12.544-4.090667-20.514665.990667-33.254665 5.969333-40.323998.793333-1.113334 1.645333-2.169334 2.549333-3.158667-14.698666 4.934667-27.017332 12.622666-39.727599 25.318666l8.9396 10.366667L145.16933 62.648c3.465333 12.878667.974666 24.737333.974666 24.737333-4.701333-7.162666-10.249333-12.972-10.249333-12.972l2.424-4.077333-8.0588-9.361333-.931733-1.048c-9.9084 13.605333-13.111466 24.736-13.111466 24.736l7.025466 6.436 4.0912 3.705332 1.375467-3.945333c7.564533 14.145333.655733 27.3648.655733 27.3648-1.237467-4.818134-6.2172-11.946133-6.2172-11.946133l1.9652-6.486667-10.460933-9.464c-10.876133 33.976-25.4068 44.982666-25.4068 44.982666s15.716667-2.8312 24.474533-5.772933c0 0-.240133 17.908932-10.8756 34.238132"/><path d="M188.785329 52.488002c5.066666-3.552 13.686666-6.282667 21.773332-5.664 2.045334.153333 3.778667-.385334 1.573334-1.549334-6.049333-3.189333-20.152-2.104-25.138666 1.294667-7.985333 5.445333-6.632 15.150666-6.449334 15.382666 1.594667-2.78 4.294667-6.704 8.241334-9.464m72.769331-11.290666-25.116 1.062667c.016 2.956-.377333 5.954666-1.338666 8.786666 2.344 10.250667.713333 15.812.713333 15.812-4.2-9.776-7.396-12.492-7.396-12.492-23.070665-10.242666-36.029332 12.921333-34.638665 27.868 1.129333 12.281332 5.590666 28.579999 9.064 54.155998 2.926666 21.518666-7.972 30.822933-20.508 32.954666-.269333.037467-.545333.088-.822667.1468-.073333 0-.130666 0-.197333.014667-2.037333.262533-4.192.370266-6.470666.319733-.073334-.021333-.168-.021333-.241334-.021333-.253333 0-.494666-.035867-.748-.035867-.977333-.058933-1.937333-.16-2.890666-.2772-9.756-1.3468-31.596-5.315067-54.156132-5.861467 13.271866-7.744266 23.652132-21.161332 29.446799-30.662399.334667 2.635867.605333 5.846267.605333 9.383867 0 1.7624-.058666 3.618666-.241333 5.511866l-.217333 2.590667 2.598666.2188c10.381333.902533 17.741333-1.0776 22.553333-6.034933 5.881333-6.1292 7.694667-16.344267 5.7-32.1852-.858667-6.944-3.385333-17.72-5.590667-27.219999-1.1-4.753333-2.14-9.266666-2.774666-12.382666-3.733333-18.717333.729333-30.081333 5.133333-36.312 3.429333-4.878666 8.181333-8.46 13.396-10.177332.086666-.016.173333-.037334.268-.052l8.576-26.309333h2.693333l-5.758667 25.282666c1.332-.232 2.686667-.442667 4.054667-.654667l7.404-23.310666h2.664l-4.846667 22.576c7.665333-.984 15.978666-1.748 25.194666-2.425334 1.492.597334 3.109333 2.322667 4.528 4.725334l24.169333-7.433334.896 2.606667-23.106667 8.961333c.182667.473333.364.968.509334 1.470667l25.261333-3.137334.422666 2.708-24.512 4.892c.086667.458667.16.917334.241334 1.376l25.494666.822667-.016 2.737333M9.195306 208.765064l-2.07812-7.866666-2.063546 7.866666H3.054693L0 198.099998h2.095307l2.079173 8.2188 2.206773-8.2188h1.487493l2.206774 8.2188 2.062506-8.2188H14.2328l-3.038534 10.665066h-1.99896M22.205733 199.986398l-1.919334 5.0844h3.8376zm3.230266 8.778666-.783333-2.046266H19.7588l-.783734 2.046266h-2.126133l4.188533-10.665066H23.3724l4.190134 10.665066h-2.126534M31.088533 207.262531l1.039066-1.438533c.736.7828 1.8864 1.4692 3.374 1.4692 1.5348 0 2.1432-.750534 2.1432-1.453067 0-2.240133-6.220266-.848-6.220266-4.781333 0-1.7604 1.550533-3.118667 3.885333-3.118667 1.663066 0 3.006266.526534 3.997466 1.4864L38.236 200.817198c-.831333-.8308-1.966667-1.214533-3.086533-1.214533-1.102534 0-1.807334.526533-1.807334 1.326533 0 1.9828 6.2048.752 6.2048 4.7348 0 1.774533-1.247466 3.293333-4.125066 3.293333-1.967734 0-3.390667-.686533-4.333333-1.6948M51.899465 208.765064v-4.653066H46.3516v4.653066h-1.870933v-10.665066h1.870933v4.364h5.547866v-4.364H53.7708v10.665066h-1.871334M59.247332 208.765064v-10.665066h1.871466v10.665066h-1.871466M74.027065 208.765064l-5.564533-7.612v7.612h-1.871334v-10.665066h1.9192l5.4532 7.404133v-7.404133h1.871333v10.665066h-1.807866M80.831731 203.441198c0-3.3428 2.5104-5.5172 5.596934-5.5172 2.0792 0 3.438533.990533 4.302 2.222933l-1.535334.863467c-.559867-.8-1.567733-1.424-2.766666-1.424-2.110934 0-3.677067 1.6152-3.677067 3.8548 0 2.237466 1.566133 3.8692 3.677067 3.8692 1.086933 0 2.0464-.512 2.527066-.959867v-1.662533h-3.182266v-1.6468h5.053066v3.997333c-1.055733 1.166667-2.542667 1.934933-4.397866 1.934933-3.086534 0-5.596934-2.190666-5.596934-5.532266M98.44533 208.765064v-9.018133h-3.229199v-1.646933h8.3308v1.646933h-3.2308v9.018133h-1.8708M116.442664 203.441198c0-2.207867-1.3916-3.8548-3.533867-3.8548-2.1588 0-3.533733 1.646933-3.533733 3.8548 0 2.189466 1.374933 3.852 3.533733 3.852 2.142267 0 3.533867-1.662534 3.533867-3.852zm-8.986933 0c0-3.1824 2.2536-5.5172 5.453066-5.5172 3.198 0 5.4532 2.3348 5.4532 5.5172 0 3.1812-2.2552 5.516133-5.4532 5.516133-3.199466 0-5.453066-2.334933-5.453066-5.516133M130.811463 208.765064l-5.565066-7.612v7.612h-1.871333v-10.665066h1.9192l5.453066 7.404133v-7.404133h1.871467v10.665066h-1.807334M144.719996 207.262531l1.038667-1.438533c.736.7828 1.886667 1.4692 3.374667 1.4692 1.534666 0 2.142666-.750534 2.142666-1.453067 0-2.240133-6.22-.848-6.22-4.781333 0-1.7604 1.550667-3.118667 3.885334-3.118667 1.662666 0 3.006666.526534 3.997333 1.4864l-1.072 1.390667c-.830667-.8308-1.965333-1.214533-3.085333-1.214533-1.102667 0-1.808.526533-1.808 1.326533 0 1.9828 6.205333.752 6.205333 4.7348 0 1.774533-1.248 3.293333-4.125333 3.293333-1.968 0-3.390667-.686533-4.333334-1.6948M160.49333 208.765064v-9.018133h-3.230667v-1.646933h8.332v1.646933h-3.230667v9.018133h-1.870667M173.581329 199.986398l-1.92 5.0844h3.838667zm3.229333 8.778666-.782666-2.046266h-4.893334l-.784 2.046266h-2.126666l4.190666-10.665066h2.334667l4.188 10.665066h-2.126667M184.813329 208.765064v-9.018133h-3.229334v-1.646933h8.332v1.646933h-3.230666v9.018133h-1.872M194.702662 208.765064v-10.665066h7.309333v1.646933h-5.437333v2.765067h5.325333v1.647866h-5.325333v2.958934h5.437333v1.646266h-7.309333M214.446661 204.559864v-6.459866h1.886667v6.395866c0 1.6948.944 2.797334 2.734667 2.797334 1.776 0 2.718666-1.102534 2.718666-2.797334v-6.395866h1.886667v6.443733c0 2.654667-1.518667 4.4136-4.605333 4.4136-3.101334 0-4.621334-1.776133-4.621334-4.397467M236.585327 208.765064l-5.562666-7.612v7.612h-1.872v-10.665066h1.918667l5.453333 7.404133v-7.404133h1.870666v10.665066h-1.808M243.87066 208.765064v-10.665066h1.872v10.665066h-1.872M254.285327 208.765064l-4.190667-10.665066h2.126667l3.230667 8.634933 3.230666-8.634933h2.125333l-4.188 10.665066h-2.334666M265.18266 208.765064v-10.665066h7.306667v1.646933h-5.436v2.765067h5.324v1.647866h-5.324v2.958934h5.436v1.646266h-7.306667M283.86666 201.441198c0-1.024-.768-1.694267-1.822667-1.694267h-2.558667v3.389067h2.558667c1.054667 0 1.822667-.672 1.822667-1.6948zm-.16 7.323866-2.366667-3.9812h-1.854667v3.9812h-1.870666v-10.665066h4.685333c2.110667 0 3.485333 1.374533 3.485333 3.3412 0 1.902533-1.248 2.927066-2.526666 3.1348l2.606666 4.189066h-2.158666M290.17466 207.262531l1.038666-1.438533c.736.7828 1.888 1.4692 3.374667 1.4692 1.536 0 2.142666-.750534 2.142666-1.453067 0-2.240133-6.22-.848-6.22-4.781333 0-1.7604 1.550667-3.118667 3.885334-3.118667 1.664 0 3.006666.526534 3.998666 1.4864l-1.072 1.390667c-.832-.8308-1.966666-1.214533-3.085333-1.214533-1.104 0-1.808.526533-1.808 1.326533 0 1.9828 6.205333.752 6.205333 4.7348 0 1.774533-1.248 3.293333-4.126666 3.293333-1.966667 0-3.389334-.686533-4.333334-1.6948M303.56666 208.765064v-10.665066h1.870666v10.665066h-1.870667M313.451992 208.765064v-9.018133h-3.229333v-1.646933h8.330666v1.646933h-3.230666v9.018133h-1.870667M326.362659 208.765064v-4.429066l-4.14-6.236h2.141333l2.942666 4.573466 2.910667-4.573466h2.144l-4.126667 6.236v4.429066h-1.872M70.148932 243.093223l3.080266-4.318746c1.8796 1.958853 4.799467 3.59896 8.4796 3.59896 3.119867 0 4.6396-1.438547 4.6396-2.959893 0-4.72032-15.359333-1.478654-15.359333-11.518747 0-4.440133 3.8396-8.120266 10.119733-8.120266 4.2396 0 7.76 1.280133 10.3996 3.720266l-3.16 4.159867c-2.159333-2-5.04-2.921333-7.759867-2.921333-2.4396 0-3.799466 1.0812-3.799466 2.680266 0 4.241067 15.319333 1.400933 15.319333 11.36088 0 4.880213-3.480267 8.560416-10.6792 8.560416-5.119867 0-8.8-1.72031-11.280266-4.24167M113.587997 228.77453c0-2.2396-1.6796-3.6-3.919733-3.6h-6.040133v7.2h6.040133c2.240133 0 3.919733-1.4 3.919733-3.6zm-15.6396 18.078592v-26.678591h12.4792c5.800533 0 8.959867 3.920266 8.959867 8.6 0 4.64-3.2 8.599946-8.959867 8.599946h-6.799466v9.478645h-5.679733M145.667996 233.53493c0-5-3.2-8.7604-8.12-8.7604-4.919866 0-8.0792 3.7604-8.0792 8.7604 0 4.959854 3.159334 8.758293 8.0792 8.758293 4.92 0 8.12-3.79844 8.12-8.758293zm-22.0388 0c0-8.040133 5.8792-13.8016 13.9188-13.8016 8.08 0 13.96 5.761467 13.96 13.8016 0 8.038507-5.88 13.799963-13.96 13.799963-8.0396 0-13.9188-5.761456-13.9188-13.799963M173.347996 246.853122l-8.08-10.678645-2.08 2.480213v8.198432h-5.68v-26.678591h5.68v11.920266l9.44-11.920266h7l-10.6 12.520266 11.32 14.158325h-7M195.987995 225.853064l-4.16 11.481826h8.318667zm7.36 21.000058-1.641333-4.518232h-11.438667l-1.68 4.518232h-6.48l10.32-26.678591h7.12l10.278666 26.678591h-6.478666M232.70666 246.853122l-12.719999-17.398458v17.398458h-5.68v-26.678591h5.84l12.36 16.76036v-16.76036h5.68v26.678591h-5.48M245.467994 246.853122v-26.678591h18.878666v5h-13.2v5.64h12.92v5.000053h-12.92v6.038533h13.2v5.000005h-18.878666"/></g></svg>