<?xml version="1.0" encoding="utf-8"?>
<!-- Generator: Adobe Illustrator 16.0.0, SVG Export Plug-In . SVG Version: 6.00 Build 0)  -->
<!DOCTYPE svg PUBLIC "-//W3C//DTD SVG 1.1//EN" "http://www.w3.org/Graphics/SVG/1.1/DTD/svg11.dtd">
<svg version="1.1" id="Layer_1" xmlns="http://www.w3.org/2000/svg" xmlns:xlink="http://www.w3.org/1999/xlink" x="0px" y="0px"
	 width="310.299px" height="30px" viewBox="0 0 310.299 30" enable-background="new 0 0 310.299 30" xml:space="preserve">
<g>
	<g>
		<path fill="#FFFFFF" d="M196.994,25.418l-4.382,3.121l-4.385-3.121c-3.112-2.13-5.779-3.954-7.179-6.73
			c1.154,5.197,6.235,7.146,11.563,11.312c5.32-4.166,10.406-6.115,11.561-11.312C202.774,21.464,200.104,23.288,196.994,25.418z"/>
		<g>
			<path fill="#FFFFFF" d="M180.444,0v0.545c0.34,0.119,0.449,0.227,0.486,0.719v12.564c0,6.984,5.685,8.834,11.682,13.527
				c6.002-4.693,11.688-6.543,11.688-13.527V1.121c0.043-0.376,0.165-0.473,0.47-0.576V0H180.444z M184.781,19.684
				c1.186-1.822,1.215-3.819,1.215-3.817c-0.979,0.329-2.733,0.645-2.733,0.645s1.623-1.226,2.836-5.018l1.164,1.057l-0.219,0.721
				c0,0,0.557,0.797,0.693,1.336c0,0,0.769-1.475-0.07-3.052l-0.154,0.438l-0.457-0.415l-0.785-0.714c0,0,0.357-1.245,1.463-2.76
				l0.104,0.114l0.899,1.044l-0.273,0.456c0,0,0.62,0.646,1.145,1.447c0,0,0.279-1.323-0.108-2.76l-0.405,0.382l-1-1.154
				c1.418-1.417,2.79-2.277,4.43-2.828c-0.1,0.114-0.194,0.229-0.282,0.355c-0.556,0.784-1.124,2.209-0.666,4.499
				c0.071,0.357,0.188,0.859,0.313,1.397c0.243,1.044,0.519,2.23,0.613,2.977c0.195,1.555,0.037,2.576-0.484,3.113
				c-0.359,0.381-0.944,0.545-1.761,0.515c0.007-0.129,0.013-0.252,0.013-0.371c0-1.099-0.221-1.928-0.231-1.966l-0.205-0.753
				l-0.339,0.702c-0.532,1.11-2.342,3.872-4.709,4.411H184.781z M196.831,20.418c-0.432,0.1-1.852,0.035-1.852,0.035
				s0.975-0.414,1.504-2.021C196.953,19.411,196.831,20.418,196.831,20.418z M199.038,17.223c-2.836,0.393-3.324-5.562-3.324-5.562
				s0.954,3.051,2.977,2.94c2.1-0.109,1.508-3.34,1.508-3.34S202.237,16.782,199.038,17.223z M202.476,6.012l-2.802,0.118
				c0.002,0.333-0.04,0.667-0.146,0.978c0.259,1.145,0.078,1.766,0.078,1.766c-0.469-1.087-0.826-1.393-0.826-1.393
				c-2.572-1.143-4.014,1.444-3.86,3.107c0.125,1.373,0.622,3.192,1.009,6.042c0.328,2.401-0.885,3.438-2.285,3.679
				c-0.029,0.004-0.062,0.01-0.09,0.016c-0.012,0-0.015,0.001-0.023,0.001c-0.227,0.03-0.469,0.043-0.723,0.032
				c-0.009,0-0.017,0-0.027,0c-0.023,0-0.053-0.002-0.082-0.002c-0.109-0.01-0.217-0.02-0.324-0.031
				c-1.084-0.151-3.521-0.594-6.037-0.655c1.48-0.862,2.639-2.358,3.285-3.418c0.033,0.291,0.066,0.649,0.066,1.047
				c0,0.197-0.006,0.401-0.024,0.614L189.64,18.2l0.289,0.022c1.157,0.103,1.977-0.119,2.512-0.672
				c0.656-0.685,0.86-1.822,0.64-3.59c-0.097-0.775-0.377-1.977-0.625-3.038c-0.123-0.529-0.239-1.03-0.312-1.38
				c-0.412-2.088,0.082-3.356,0.571-4.052c0.386-0.546,0.916-0.943,1.495-1.134c0.014-0.004,0.021-0.004,0.029-0.006l0.953-2.937
				h0.304l-0.644,2.823c0.148-0.024,0.301-0.052,0.453-0.074l0.827-2.604h0.298l-0.541,2.522c0.852-0.113,1.779-0.197,2.807-0.274
				c0.169,0.069,0.35,0.263,0.505,0.531l2.696-0.832l0.098,0.291l-2.576,1c0.023,0.052,0.041,0.109,0.062,0.164l2.816-0.35
				l0.043,0.3l-2.73,0.547c0.007,0.049,0.017,0.103,0.024,0.154l2.845,0.091L202.476,6.012z"/>
			<path fill="#FFFFFF" d="M194.161,6.61c-0.889,0.609-0.738,1.69-0.717,1.715c0.176-0.308,0.477-0.745,0.918-1.053
				c0.566-0.398,1.527-0.705,2.428-0.633c0.229,0.018,0.419-0.044,0.173-0.174C196.289,6.108,194.717,6.231,194.161,6.61z"/>
		</g>
	</g>
	<g>
		<g>
			<g>
				<path fill="#FFFFFF" d="M282.114,12.057c-1.842-1.382-3.129-2.153-3.129-3.441c0-1.361,0.957-1.915,2.024-1.915
					c1.472,0,2.171,1.031,2.316,2.32h0.479V6.608c0-0.092-0.019-0.166-0.129-0.201c-0.736-0.258-1.785-0.35-2.576-0.35
					c-2.117,0-3.955,1.306-3.955,2.963c0,0.895,0.248,1.536,0.608,2.027h-0.007c0.008,0.008,0.018,0.014,0.021,0.021
					c0.447,0.595,1.06,0.975,1.602,1.336c2.761,1.823,3.383,2.798,3.404,3.993c0.052,2.655-4.922,4.053-8.197-1.05l-1.699-2.586
					c1.337-0.521,2.43-1.753,2.43-3.542c0-2.035-1.754-2.949-3.506-2.949h-5.053v0.449c1.562,0.188,1.491,0.104,1.491,1.717v7.812
					c0,1.62,0.069,1.53-1.491,1.72v0.452h4.67v-0.452c-1.562-0.189-1.495-0.1-1.495-1.72v-3.21h1.636
					c2.099,3.488,2.617,5.005,3.676,5.382c0.236,0.084,2.962,0.96,4.886,0.96c2.209,0,4.567-1.215,4.567-3.404
					C284.688,14.448,284.063,13.508,282.114,12.057z M271.369,12.668h-1.443v-5.66h1.337c1.268,0,2.313,0.658,2.313,2.554
					C273.576,11.523,272.88,12.668,271.369,12.668z"/>
				<path fill="#FFFFFF" d="M236.438,18.4c0,0,0,0-8.496-10.065v7.711c0,0.366,0.072,0.662,0.104,0.94
					c0.089,0.63,0.686,0.873,1.834,0.962V18.4h-4.273v-0.452c0.842-0.089,1.414-0.332,1.5-0.962c0.035-0.278,0.104-0.574,0.104-0.94
					V7.83c-0.485-0.628-1.03-1.188-2.022-1.188V6.186h3.172c2.602,3.16,5.309,6.37,7.904,9.529h0.036V8.542
					c0-0.367-0.071-0.662-0.106-0.941c-0.088-0.628-0.676-0.869-1.83-0.958V6.186h4.273v0.457c-0.818,0.089-1.412,0.33-1.503,0.958
					c-0.034,0.279-0.103,0.574-0.103,0.941V18.4H236.438z"/>
				<path fill="#FFFFFF" d="M243.296,16.219c0,1.626-0.068,1.537,1.499,1.729V18.4h-4.692v-0.452c1.57-0.192,1.5-0.104,1.5-1.729
					v-7.85c0-1.62,0.07-1.536-1.5-1.727V6.19h4.692v0.452c-1.567,0.19-1.499,0.106-1.499,1.727V16.219z"/>
				<path fill="#FFFFFF" d="M265.492,15.26c-0.804,1.868-0.681,2.585-3.208,2.585c-1.57,0-2.253-0.125-2.253-1.608v-3.941h1.468
					c1.167,0,1.568,0.614,1.604,1.643h0.451v-3.719h-0.451c-0.035,1.082-0.506,1.521-1.604,1.521h-1.468v-4.99h2.77
					c1.253,0,1.605,0.957,1.777,2.249h0.452V6.19h-8.034h-3.457v0.452c1.185,0,1.64,0.54,1.203,1.641
					c-1.082,2.67-2.146,5.354-3.265,8.023c-0.906-2.648-1.916-5.65-2.594-7.709c-0.58-1.677,0.12-1.955,1.081-1.955V6.19h-4.438
					v0.452c0.843,0,1.064,0.54,1.716,2.407c1.062,2.967,2.251,6.332,3.313,9.352h0.889c1.468-3.575,2.949-7.135,4.414-10.709
					c0.367-0.875,0.627-1.049,1.138-1.049c1.567,0.19,1.343,0.106,1.343,1.727v7.85c0,1.626,0.227,1.537-1.343,1.729V18.4h8.426
					l0.524-3.142L265.492,15.26L265.492,15.26z"/>
				<path fill="#FFFFFF" d="M288.867,16.219c0,1.626-0.074,1.537,1.495,1.729V18.4h-4.691v-0.452
					c1.571-0.192,1.502-0.104,1.502-1.729v-7.85c0-1.62,0.069-1.536-1.502-1.727V6.19h4.691v0.452
					c-1.569,0.19-1.495,0.106-1.495,1.727V16.219z"/>
				<path fill="#FFFFFF" d="M306.706,6.19v0.452c1.029,0,1.588,0.504,0.993,1.569l-2.406,4.383l-2.11-4.383
					c-0.438-0.907-0.557-1.569,0.767-1.569V6.19h-2.925h-1.211h-8.125l-0.472,2.665h0.438c0.572-1.149,0.923-2.106,2.439-2.106
					h1.416v9.47c0,1.626,0.068,1.537-1.502,1.729V18.4h4.693v-0.452c-1.57-0.192-1.502-0.104-1.502-1.729v-9.47h1.414
					c1.432,0,2.394,0.854,2.98,1.915l2.458,4.873v2.682c0,1.626,0.07,1.537-1.5,1.729V18.4h4.691v-0.452
					c-1.567-0.192-1.5-0.104-1.5-1.729v-1.953c0-0.436,0.036-0.926,0.21-1.272l2.912-5.287c0.474-0.837,0.941-1.063,1.432-1.063
					V6.19H306.706z"/>
			</g>
			<path fill="#FFFFFF" d="M225.259,3.729l-5.496,0.015V4.2c1.102,0.118,1.899,0.602,2.016,1.448
				c0.047,0.374,0.144,0.771,0.144,1.265v6.521c0,3.757-1.692,5.914-4.903,5.914c-3.498,0-4.547-2.51-4.547-5.797V6.677
				c0-2.182,0.063-2.221,2.176-2.478V3.743h-6.313v0.456c2.115,0.257,2.021,0.296,2.021,2.478v6.992
				c0,4.247,1.549,6.784,6.545,6.784c3.026,0,6.244-1.877,6.244-6.924V6.912c0-0.04,0-0.079,0-0.116
				c-0.021-2.037,0.771-2.334,2.104-2.549L225.259,3.729z"/>
		</g>
		<g>
			<path fill="#FFFFFF" d="M135.31,7.116c-0.185-1.64-1.074-2.948-2.943-2.948c-1.356,0-2.726,0.701-2.726,2.43
				c0,1.637,1.635,2.617,3.973,4.371c2.475,1.847,3.272,3.038,3.272,4.979c0,2.778-2.697,4.323-5.498,4.323
				c-1.5,0-2.784-0.283-4-0.75c-0.09-0.045-0.162-0.141-0.162-0.323v-3.369h0.606c0.26,2.593,1.96,3.623,3.764,3.623
				c1.659,0,3.167-1.263,3.167-2.968c0-1.521-0.817-2.759-4.321-5.068c-1.261-0.841-2.827-1.756-2.827-4.299
				c0-2.111,2.178-3.767,4.868-3.767c1.004,0,2.337,0.116,3.271,0.446c0.141,0.042,0.163,0.141,0.163,0.257v3.063H135.31z"/>
			<path fill="#FFFFFF" d="M142.785,16.307c0,1.617-0.067,1.524,1.495,1.724v0.446h-4.674V18.03
				c1.564-0.198,1.496-0.105,1.496-1.724V6.869h-1.41c-1.511,0-1.86,0.956-2.432,2.101h-0.432l0.467-2.654h9.295l0.47,2.654h-0.434
				c-0.573-1.145-0.92-2.101-2.431-2.101h-1.41V16.307L142.785,16.307z"/>
			<path fill="#FFFFFF" d="M148.848,14.444l-0.795,2.33c-0.227,0.682,0.103,1.256,0.868,1.256v0.447h-3.162v-0.447
				c0.467,0,0.973-0.303,1.251-0.872c0.747-1.531,2.779-7.209,4.222-11.052h0.973c1.181,3.492,2.951,8.849,3.543,10.393
				c0.385,0.969,0.662,1.531,1.407,1.531v0.447h-4.047v-0.447c1.094,0,1.201-0.574,0.923-1.344l-0.75-2.242H148.848z
				 M153.057,13.787l-1.843-5.649h-0.034l-2.068,5.649H153.057z"/>
			<path fill="#FFFFFF" d="M161.899,16.307c0,1.617-0.067,1.524,1.494,1.724v0.446h-4.675V18.03
				c1.564-0.198,1.497-0.105,1.497-1.724V6.869h-1.408c-1.514,0-1.856,0.956-2.435,2.101h-0.435l0.473-2.654h9.294l0.467,2.654
				h-0.437c-0.567-1.145-0.916-2.101-2.426-2.101h-1.41V16.307L161.899,16.307z"/>
			<path fill="#FFFFFF" d="M166.994,18.029c1.565-0.198,1.342-0.105,1.342-1.725V8.484c0-1.615,0.224-1.529-1.342-1.72V6.315h7.61
				v2.791h-0.453c-0.172-1.281-0.518-2.237-1.77-2.237h-2.365v4.975h1.459c1.094,0,1.564-0.437,1.598-1.514h0.453v3.696h-0.453
				c-0.032-1.027-0.432-1.634-1.598-1.634h-1.459v3.926c0,1.481,0.68,1.604,2.244,1.604c2.52,0,2.396-0.715,3.196-2.574h0.451
				l-0.522,3.127h-8.393L166.994,18.029L166.994,18.029z"/>
		</g>
		<g>
			<path fill="#FFFFFF" d="M43.448,16.32c0,1.615-0.07,1.527,1.492,1.72v0.451h-4.672V18.04c1.563-0.19,1.494-0.104,1.494-1.72
				V8.502c0-1.613-0.751-1.526-2.314-1.718v-0.45h5.493v0.45c-1.562,0.191-1.492,0.104-1.492,1.718v3.008h6.096V8.502
				c0-1.613,0.069-1.526-1.494-1.718v-0.45h4.671v0.45c-1.561,0.191-1.493,0.104-1.493,1.718v7.818c0,1.615-0.068,1.527,1.493,1.72
				v0.451h-4.671V18.04c1.563-0.19,1.494-0.104,1.494-1.72v-4.103h-6.096L43.448,16.32L43.448,16.32z"/>
			<path fill="#FFFFFF" d="M57.814,16.32c0,1.615-0.071,1.527,1.492,1.72v0.451h-4.671V18.04c1.563-0.19,1.494-0.104,1.494-1.72
				V8.502c0-1.613,0.069-1.526-1.494-1.718v-0.45h4.671v0.45c-1.563,0.191-1.492,0.104-1.492,1.718V16.32z"/>
			<path fill="#FFFFFF" d="M72.255,18.491c-2.761-3.265-5.628-6.688-8.458-10.024v7.682c0,0.361,0.069,0.658,0.105,0.937
				c0.087,0.628,0.676,0.867,1.822,0.956v0.451H61.47V18.04c0.833-0.089,1.407-0.328,1.494-0.956
				c0.034-0.277,0.104-0.574,0.104-0.938V7.965c-0.488-0.624-1.026-1.181-2.017-1.181v-0.45h3.163
				c2.588,3.142,5.28,6.339,7.867,9.48h0.034V8.679c0-0.366-0.068-0.663-0.104-0.94c-0.085-0.625-0.678-0.866-1.824-0.954v-0.45
				h4.257v0.45c-0.817,0.088-1.407,0.329-1.497,0.954c-0.033,0.277-0.102,0.574-0.102,0.94v9.812H72.255z"/>
			<path fill="#FFFFFF" d="M74.816,12.343c0-2.675,2.259-6.222,6.947-6.222c1.684,0,2.484,0.314,3.335,0.596
				c0.486,0.155,0.677,0.396,0.677,0.675v2.241h-0.452c-0.051-1.391-0.938-2.9-3.699-2.9c-3.631,0-4.812,2.5-4.829,5.47
				c-0.018,2.744,1.372,5.892,4.897,5.892c2.172,0,2.363-0.803,2.363-2.155v-1.061c0-1.617,0.067-1.527-1.842-1.72V12.71h5.02v0.449
				c-1.562,0.192-1.492,0.103-1.492,1.72v3.023c-1.113,0.435-2.571,0.8-4.153,0.8C78.029,18.701,74.816,16.998,74.816,12.343z"/>
			<path fill="#FFFFFF" d="M93.194,16.32c0,1.615-0.07,1.527,1.493,1.72v0.451h-4.672V18.04c1.562-0.19,1.493-0.104,1.493-1.72
				V6.889H90.1c-1.511,0-1.858,0.952-2.432,2.101h-0.433l0.47-2.655h9.292l0.469,2.655h-0.435c-0.572-1.148-0.919-2.101-2.431-2.101
				h-1.407L93.194,16.32L93.194,16.32z"/>
			<path fill="#FFFFFF" d="M97.466,12.637c0-3.754,2.918-6.516,6.53-6.516c3.769,0,5.958,3.25,5.958,5.927
				c0,3.666-2.745,6.653-6.584,6.653C100.053,18.701,97.466,16.01,97.466,12.637z M107.972,12.568c0-4.152-2.239-5.836-4.36-5.836
				c-2.951,0-4.166,2.639-4.166,5.001c0,4.205,2.152,6.36,4.393,6.36C107.07,18.094,107.972,14.897,107.972,12.568z"/>
			<path fill="#FFFFFF" d="M121.158,18.491c-2.764-3.265-5.628-6.688-8.46-10.024v7.682c0,0.361,0.069,0.658,0.104,0.937
				c0.087,0.628,0.677,0.867,1.823,0.956v0.451h-4.255V18.04c0.834-0.089,1.407-0.328,1.494-0.956
				c0.035-0.277,0.104-0.574,0.104-0.938V7.965c-0.485-0.624-1.023-1.181-2.015-1.181v-0.45h3.162
				c2.588,3.142,5.278,6.339,7.868,9.48h0.033V8.679c0-0.366-0.07-0.663-0.104-0.94c-0.086-0.625-0.676-0.866-1.823-0.954v-0.45
				h4.255v0.45c-0.815,0.088-1.405,0.329-1.493,0.954c-0.035,0.277-0.105,0.574-0.105,0.94v9.812H121.158z"/>
			<path fill="#FFFFFF" d="M23.905,4.008V3.989h-4.699v0.582c1.813,0.02,2.108,0.667,1.632,2.038l-3.555,9.683h-0.197L12.899,4.188
				h-1.06L7.44,16.292H7.141L3.988,6.674C3.541,5.15,4.166,4.571,5.576,4.571V3.989H0v0.582c1.185,0,1.397,0.923,2.159,3.109
				l4.048,11.966h1.066l4.33-12.205l4.269,12.216h1.192c1.826-4.859,4.396-12.046,5.342-13.98c0.352-0.727,0.988-1.1,1.582-1.1
				v-0.57H23.905z"/>
			<path fill="#FFFFFF" d="M36.397,11.967c-1.827-1.371-3.106-2.139-3.106-3.419c0-1.352,0.95-1.901,2.01-1.901
				c1.462,0,2.156,1.024,2.303,2.305h0.474V6.556c0-0.092-0.018-0.164-0.128-0.201c-0.731-0.256-1.772-0.348-2.559-0.348
				c-2.101,0-3.929,1.299-3.929,2.944c0,0.892,0.246,1.525,0.606,2.015h-0.006c0.007,0.007,0.015,0.013,0.022,0.02
				c0.442,0.592,1.051,0.968,1.59,1.328c2.741,1.809,3.381,2.777,3.381,3.966c0,1.104-0.83,2.212-2.357,2.321
				c-1.564,0.111-3.576-0.645-4.422-2.841c-0.751-2.104-2.281-6.531-3.313-9.587h-1.007c-1.441,3.84-3.396,9.469-4.144,10.996
				c-0.275,0.574-0.779,0.869-1.25,0.869v0.452h0.751h2.41v-0.452c-0.764,0-1.093-0.573-0.868-1.251l0.799-2.328h4.429l0.747,2.241
				l0.575,1.727c0,0,3.107,0.812,5.128,0.812c2.193,0,4.423-1.206,4.423-3.381C38.957,14.342,38.335,13.41,36.397,11.967z
				 M23.916,13.801l2.066-5.646h0.034l1.842,5.646H23.916z"/>
		</g>
	</g>
</g>
</svg>
