<?xml version="1.0" encoding="utf-8"?>
<!-- Generator: Adobe Illustrator 17.0.0, SVG Export Plug-In . SVG Version: 6.00 Build 0)  -->
<!DOCTYPE svg PUBLIC "-//W3C//DTD SVG 1.1//EN" "http://www.w3.org/Graphics/SVG/1.1/DTD/svg11.dtd">
<svg version="1.1" id="Layer_1" xmlns="http://www.w3.org/2000/svg" xmlns:xlink="http://www.w3.org/1999/xlink" x="0px" y="0px"
	 width="150px" height="109.933px" viewBox="0 0 150 109.933" enable-background="new 0 0 150 109.933" xml:space="preserve">
<g>
	<g>
		<path fill="#FFFFFF" d="M29.417,109.799v-7.027h-2.499v-0.781h6.09v0.781H30.5v7.027H29.417z"/>
		<path fill="#FFFFFF" d="M38.466,101.991h2.23c1.271,0,2.264,0.658,2.264,2.008c0,1.149-0.558,1.795-1.305,2.275l1.94,3.324
			l-1.093,0.334l-1.807-3.369h-1.149v3.235h-1.082v-7.807H38.466z M39.548,105.783h0.613c1.383,0,1.64-1.026,1.64-1.684
			c0-0.959-0.602-1.327-1.327-1.327h-0.926V105.783z"/>
		<path fill="#FFFFFF" d="M50.024,109.799v-7.808h1.082v7.808H50.024z"/>
		<path fill="#FFFFFF" d="M57.868,107.601v-0.914h2.777v0.914H57.868z"/>
		<path fill="#FFFFFF" d="M73.307,103.318c-0.368-0.301-1.205-0.681-2.042-0.681c-1.929,0-3.067,1.383-3.067,3.212
			c0,1.974,1.36,3.302,3.067,3.302c0.848,0,1.517-0.268,1.974-0.581l0.424,0.647c-0.524,0.357-1.45,0.714-2.454,0.714
			c-2.788,0-4.205-1.908-4.205-4.06c0-1.964,1.539-4.016,4.338-4.016c1.116,0,1.896,0.391,2.41,0.792L73.307,103.318z"/>
		<path fill="#FFFFFF" d="M80.393,109.799v-7.808h1.081v7.808H80.393z"/>
		<path fill="#FFFFFF" d="M90.321,109.799v-7.027h-2.499v-0.781h6.091v0.781h-2.511v7.027H90.321z"/>
		<path fill="#FFFFFF" d="M100.262,109.799v-7.808h1.082v7.808H100.262z"/>
		<path fill="#FFFFFF" d="M112.422,102.772h-2.767v2.521h2.711v0.781h-2.711v2.944h3.246v0.781h-4.328v-7.808h3.849V102.772z"/>
		<path fill="#FFFFFF" d="M123.133,103.195c-0.381-0.279-0.883-0.558-1.351-0.558c-0.781,0-1.216,0.458-1.216,1.06
			c0,0.558,0.479,0.97,1.483,1.695c1.07,0.781,1.695,1.495,1.695,2.499c0,1.238-1.171,2.041-2.421,2.041
			c-0.746,0-1.639-0.268-2.197-0.815l0.48-0.646c0.457,0.323,0.959,0.681,1.694,0.681c0.771,0,1.361-0.413,1.361-1.283
			c0-0.981-1.171-1.617-1.807-2.085c-0.647-0.502-1.373-0.981-1.373-2.086c0-1.048,1.016-1.84,2.231-1.84
			c0.814,0,1.495,0.29,1.93,0.78L123.133,103.195z"/>
	</g>
	<g>
		<g>
			<path fill="#FFFFFF" d="M95.618,83.021c-1.569-1.177-2.668-1.836-2.668-2.934c0-1.159,0.816-1.632,1.728-1.632
				c1.254,0,1.85,0.879,1.976,1.979h0.408v-2.056c0-0.079-0.017-0.142-0.11-0.172c-0.628-0.219-1.521-0.297-2.196-0.297
				c-1.805,0-3.371,1.112-3.371,2.525c0,0.763,0.211,1.31,0.518,1.729h-0.006c0.008,0.007,0.015,0.012,0.02,0.017
				c0.382,0.507,0.903,0.831,1.365,1.139c2.354,1.554,2.883,2.386,2.902,3.404c0.043,2.264-4.196,3.455-6.988-0.895l-1.449-2.205
				c1.141-0.444,2.071-1.495,2.071-3.021c0-1.734-1.496-2.514-2.988-2.514h-4.31v0.384c1.332,0.159,1.272,0.089,1.272,1.463v6.66
				c0,1.382,0.06,1.304-1.272,1.466v0.385h3.983v-0.385c-1.334-0.162-1.276-0.084-1.276-1.466v-2.736h1.395
				c1.788,2.975,2.233,4.267,3.134,4.587c0.203,0.071,2.524,0.818,4.165,0.818c1.883,0,3.893-1.036,3.893-2.901
				C97.812,85.061,97.279,84.259,95.618,83.021z M86.459,83.542h-1.232v-4.824h1.14c1.079,0,1.972,0.561,1.972,2.176
				C88.338,82.567,87.745,83.542,86.459,83.542z"/>
			<path fill="#FFFFFF" d="M56.68,88.431c0,0,0,0-7.243-8.582v6.575c0,0.311,0.061,0.564,0.087,0.802
				c0.077,0.536,0.584,0.744,1.564,0.819v0.386h-3.644v-0.386c0.716-0.076,1.205-0.283,1.278-0.819
				c0.031-0.238,0.091-0.491,0.091-0.802v-7.005c-0.415-0.535-0.88-1.011-1.724-1.011v-0.391h2.704
				c2.216,2.695,4.523,5.431,6.739,8.124h0.03v-6.115c0-0.313-0.061-0.564-0.091-0.803c-0.077-0.535-0.577-0.741-1.56-0.816v-0.391
				h3.643v0.391c-0.699,0.075-1.205,0.281-1.281,0.816c-0.03,0.239-0.087,0.49-0.087,0.803v8.405H56.68z"/>
			<path fill="#FFFFFF" d="M62.525,86.57c0,1.386-0.06,1.309,1.278,1.474v0.386h-4.001v-0.386c1.341-0.165,1.28-0.088,1.28-1.474
				v-6.692c0-1.381,0.061-1.31-1.28-1.471v-0.385h4.001v0.385c-1.337,0.161-1.278,0.09-1.278,1.471V86.57z"/>
			<path fill="#FFFFFF" d="M81.447,85.752c-0.684,1.593-0.58,2.205-2.735,2.205c-1.339,0-1.921-0.106-1.921-1.372v-3.36h1.252
				c0.995,0,1.339,0.523,1.366,1.4h0.386v-3.171h-0.386c-0.027,0.922-0.431,1.295-1.366,1.295h-1.252v-4.252h2.362
				c1.068,0,1.368,0.816,1.515,1.917h0.386v-2.393h-6.849h-2.946v0.385c1.009,0,1.396,0.459,1.025,1.398
				c-0.922,2.276-1.831,4.563-2.784,6.84c-0.772-2.259-1.634-4.816-2.21-6.572c-0.495-1.431,0.103-1.667,0.922-1.667V78.02h-3.783
				v0.385c0.717,0,0.907,0.459,1.461,2.052c0.905,2.528,1.919,5.397,2.826,7.972h0.756c1.252-3.049,2.516-6.084,3.764-9.13
				c0.312-0.745,0.535-0.893,0.969-0.893c1.337,0.161,1.146,0.09,1.146,1.471v6.692c0,1.386,0.191,1.309-1.146,1.474v0.386h7.183
				l0.446-2.679h-0.387V85.752z"/>
			<path fill="#FFFFFF" d="M101.374,86.57c0,1.386-0.063,1.309,1.277,1.474v0.386h-4.002v-0.386c1.34-0.165,1.281-0.088,1.281-1.474
				v-6.692c0-1.381,0.059-1.31-1.281-1.471v-0.385h4.002v0.385c-1.341,0.161-1.277,0.09-1.277,1.471V86.57z"/>
			<path fill="#FFFFFF" d="M116.583,78.022v0.385c0.877,0,1.353,0.429,0.846,1.337l-2.05,3.736l-1.801-3.736
				c-0.373-0.774-0.475-1.337,0.653-1.337v-0.385h-2.492h-1.032h-6.926l-0.403,2.271h0.373c0.488-0.98,0.787-1.796,2.08-1.796h1.208
				v8.073c0,1.386,0.058,1.309-1.281,1.474v0.386h4.001v-0.386c-1.337-0.165-1.279-0.088-1.279-1.474v-8.073h1.206
				c1.218,0,2.039,0.727,2.541,1.632l2.094,4.154v2.287c0,1.386,0.062,1.309-1.277,1.474v0.386h3.999v-0.386
				c-1.336-0.165-1.278-0.088-1.278-1.474v-1.666c0-0.37,0.03-0.789,0.18-1.085l2.482-4.506c0.402-0.715,0.804-0.906,1.22-0.906
				v-0.385H116.583z"/>
			<path fill="#FFFFFF" d="M47.106,78.013l-4.687,0.012v0.389c0.939,0.101,1.621,0.514,1.719,1.236
				c0.04,0.317,0.122,0.657,0.122,1.077v5.56c0,3.203-1.443,5.041-4.182,5.041c-2.981,0-3.875-2.139-3.875-4.941v-5.86
				c0-1.86,0.054-1.893,1.854-2.113v-0.389h-5.383v0.389c1.804,0.22,1.724,0.253,1.724,2.113v5.961c0,3.62,1.319,5.783,5.578,5.783
				c2.58,0,5.324-1.6,5.324-5.902v-5.641c0-0.035,0-0.067,0-0.099c-0.018-1.736,0.657-1.989,1.793-2.173L47.106,78.013z"/>
		</g>
		<g>
			<path fill="#FFFFFF" d="M37.04,70.56c0,1.378-0.059,1.304,1.272,1.466v0.385h-3.983v-0.385c1.333-0.162,1.274-0.088,1.274-1.466
				v-6.666c0-1.375-0.642-1.3-1.974-1.463v-0.383h4.682v0.383c-1.332,0.163-1.272,0.089-1.272,1.463v2.565h5.198v-2.565
				c0-1.375,0.058-1.3-1.274-1.463v-0.383h3.983v0.383c-1.332,0.163-1.274,0.089-1.274,1.463v6.666c0,1.378-0.057,1.304,1.274,1.466
				v0.385h-3.983v-0.385c1.332-0.162,1.274-0.088,1.274-1.466v-3.497H37.04V70.56z"/>
			<path fill="#FFFFFF" d="M49.289,70.56c0,1.378-0.061,1.304,1.271,1.466v0.385h-3.981v-0.385c1.332-0.162,1.272-0.088,1.272-1.466
				v-6.666c0-1.375,0.059-1.3-1.272-1.463v-0.383h3.981v0.383c-1.332,0.163-1.271,0.089-1.271,1.463V70.56z"/>
			<path fill="#FFFFFF" d="M61.6,72.411c-2.355-2.784-4.799-5.702-7.211-8.546v6.548c0,0.308,0.059,0.562,0.09,0.798
				c0.073,0.534,0.575,0.738,1.552,0.814v0.385h-3.626v-0.385c0.709-0.076,1.199-0.28,1.274-0.814
				c0.028-0.237,0.089-0.491,0.089-0.798v-6.976c-0.417-0.532-0.875-1.007-1.719-1.007v-0.383h2.695
				c2.207,2.678,4.501,5.403,6.708,8.082h0.028v-6.083c0-0.312-0.058-0.565-0.089-0.802c-0.072-0.533-0.577-0.738-1.555-0.813
				v-0.383h3.629v0.383c-0.695,0.075-1.199,0.28-1.274,0.813c-0.029,0.237-0.089,0.49-0.089,0.802v8.365H61.6z"/>
			<path fill="#FFFFFF" d="M63.782,67.169c0-2.28,1.926-5.304,5.923-5.304c1.435,0,2.116,0.268,2.843,0.507
				c0.413,0.134,0.577,0.338,0.577,0.576v1.911H72.74c-0.043-1.186-0.8-2.473-3.153-2.473c-3.096,0-4.104,2.132-4.116,4.663
				c-0.016,2.339,1.168,5.022,4.175,5.022c1.852,0,2.014-0.683,2.014-1.837v-0.903c0-1.379,0.058-1.302-1.571-1.466v-0.384h4.28
				v0.384c-1.332,0.164-1.272,0.087-1.272,1.466v2.578c-0.948,0.369-2.191,0.681-3.539,0.681
				C66.522,72.589,63.782,71.138,63.782,67.169z"/>
			<path fill="#FFFFFF" d="M79.449,70.56c0,1.378-0.059,1.304,1.272,1.466v0.385h-3.982v-0.385c1.331-0.162,1.272-0.088,1.272-1.466
				v-8.04H76.81c-1.288,0-1.583,0.812-2.072,1.791h-0.37l0.401-2.263h7.922l0.399,2.263h-0.369
				c-0.488-0.979-0.784-1.791-2.073-1.791h-1.199C79.449,62.52,79.449,70.56,79.449,70.56z"/>
			<path fill="#FFFFFF" d="M83.091,67.42c0-3.2,2.488-5.555,5.568-5.555c3.212,0,5.077,2.771,5.077,5.053
				c0,3.125-2.339,5.671-5.612,5.671C85.296,72.589,83.091,70.295,83.091,67.42z M92.048,67.361c0-3.539-1.909-4.975-3.717-4.975
				c-2.516,0-3.551,2.25-3.551,4.264c0,3.584,1.834,5.421,3.744,5.421C91.279,72.071,92.048,69.347,92.048,67.361z"/>
			<path fill="#FFFFFF" d="M103.289,72.411c-2.356-2.784-4.797-5.702-7.213-8.546v6.548c0,0.308,0.06,0.562,0.091,0.798
				c0.073,0.534,0.577,0.738,1.553,0.814v0.385h-3.627v-0.385c0.711-0.076,1.199-0.28,1.273-0.814c0.03-0.237,0.09-0.491,0.09-0.798
				v-6.976c-0.415-0.532-0.874-1.007-1.72-1.007v-0.383h2.697c2.207,2.678,4.499,5.403,6.708,8.082h0.027v-6.083
				c0-0.312-0.059-0.565-0.089-0.802c-0.073-0.533-0.575-0.738-1.555-0.813v-0.383h3.628v0.383c-0.696,0.075-1.198,0.28-1.272,0.813
				c-0.03,0.237-0.089,0.49-0.089,0.802v8.365H103.289z"/>
			<path fill="#FFFFFF" d="M20.38,60.064v-0.017h-4.006v0.496c1.546,0.018,1.799,0.569,1.393,1.738l-3.032,8.254h-0.167
				l-3.57-10.318h-0.905l-3.75,10.318H6.089l-2.688-8.199c-0.382-1.298,0.151-1.793,1.353-1.793v-0.496H0v0.496
				c1.011,0,1.192,0.787,1.841,2.652l3.452,10.201h0.908l3.692-10.405l3.638,10.414h1.017c1.557-4.142,3.75-10.268,4.555-11.918
				c0.3-0.619,0.842-0.937,1.35-0.937v-0.485L20.38,60.064L20.38,60.064z"/>
			<path fill="#FFFFFF" d="M31.031,66.849c-1.558-1.169-2.649-1.823-2.649-2.915c0-1.152,0.811-1.621,1.715-1.621
				c1.246,0,1.837,0.874,1.963,1.965h0.404v-2.042c0-0.079-0.016-0.14-0.11-0.172c-0.623-0.218-1.511-0.297-2.181-0.297
				c-1.792,0-3.349,1.107-3.349,2.51c0,0.76,0.209,1.3,0.516,1.717h-0.005c0.005,0.006,0.012,0.011,0.019,0.018
				c0.376,0.504,0.894,0.824,1.354,1.132c2.337,1.542,2.883,2.368,2.883,3.381c0,0.941-0.708,1.886-2.01,1.979
				c-1.334,0.096-3.049-0.549-3.771-2.42c-0.64-1.795-1.944-5.569-2.824-8.173h-0.859c-1.229,3.274-2.894,8.072-3.532,9.374
				c-0.235,0.489-0.664,0.742-1.065,0.742v0.385h0.64h2.053v-0.385c-0.65,0-0.931-0.49-0.739-1.066l0.682-1.986h3.775l0.636,1.911
				l0.492,1.472c0,0,2.648,0.693,4.37,0.693c1.871,0,3.771-1.028,3.771-2.881C33.211,68.873,32.682,68.08,31.031,66.849z
				 M20.389,68.413l1.762-4.813h0.03l1.571,4.813H20.389z"/>
		</g>
		<g>
			<path fill="#FFFFFF" d="M115.391,62.737c-0.158-1.398-0.917-2.514-2.508-2.514c-1.158,0-2.326,0.598-2.326,2.072
				c0,1.395,1.395,2.23,3.389,3.726c2.109,1.574,2.789,2.59,2.789,4.245c0,2.369-2.299,3.685-4.688,3.685
				c-1.277,0-2.374-0.242-3.409-0.638c-0.078-0.04-0.14-0.12-0.14-0.276v-2.872h0.518c0.222,2.21,1.672,3.088,3.21,3.088
				c1.413,0,2.7-1.076,2.7-2.53c0-1.296-0.697-2.352-3.686-4.32c-1.075-0.717-2.409-1.497-2.409-3.665
				c0-1.799,1.856-3.211,4.148-3.211c0.858,0,1.993,0.099,2.79,0.38c0.12,0.037,0.139,0.12,0.139,0.22v2.611L115.391,62.737
				L115.391,62.737z"/>
			<path fill="#FFFFFF" d="M121.762,70.57c0,1.381-0.057,1.301,1.276,1.47v0.382h-3.986V72.04c1.333-0.169,1.275-0.089,1.275-1.47
				v-8.044h-1.202c-1.288,0-1.585,0.815-2.073,1.792h-0.367l0.397-2.265h7.924l0.401,2.265h-0.371
				c-0.488-0.977-0.785-1.792-2.071-1.792h-1.203C121.762,62.526,121.762,70.57,121.762,70.57z"/>
			<path fill="#FFFFFF" d="M126.933,68.984l-0.678,1.986c-0.194,0.58,0.087,1.069,0.738,1.069v0.382h-2.696V72.04
				c0.399,0,0.83-0.257,1.066-0.743c0.637-1.306,2.369-6.146,3.6-9.422h0.828c1.008,2.978,2.518,7.543,3.021,8.859
				c0.329,0.826,0.564,1.306,1.201,1.306v0.382h-3.452V72.04c0.933,0,1.025-0.49,0.788-1.145l-0.64-1.911H126.933z M130.52,68.423
				l-1.57-4.814h-0.029l-1.765,4.814H130.52z"/>
			<path fill="#FFFFFF" d="M138.06,70.57c0,1.381-0.06,1.301,1.272,1.47v0.382h-3.985V72.04c1.334-0.169,1.276-0.089,1.276-1.47
				v-8.044h-1.201c-1.29,0-1.583,0.815-2.074,1.792h-0.371l0.402-2.265h7.925l0.397,2.265h-0.372
				c-0.484-0.977-0.78-1.792-2.068-1.792h-1.201V70.57z"/>
			<path fill="#FFFFFF" d="M142.401,72.04c1.336-0.169,1.144-0.089,1.144-1.47v-6.667c0-1.377,0.192-1.304-1.144-1.466v-0.384h6.488
				v2.381h-0.387c-0.148-1.093-0.441-1.909-1.508-1.909h-2.019v4.241h1.244c0.933,0,1.336-0.373,1.361-1.29h0.388v3.151h-0.388
				c-0.025-0.876-0.367-1.394-1.361-1.394h-1.244v3.347c0,1.263,0.58,1.369,1.914,1.369c2.147,0,2.043-0.61,2.727-2.195H150
				l-0.446,2.666h-7.152v-0.38C142.402,72.04,142.401,72.04,142.401,72.04z"/>
		</g>
	</g>
</g>
<path fill="#EFF0F1" d="M83.051,44.099l-7.586,5.415l-7.579-5.415c-5.39-3.694-10.01-6.861-12.429-11.672
	c2,9.019,10.794,12.39,20.008,19.622c9.216-7.231,18.016-10.603,20.016-19.622C93.059,37.238,88.439,40.405,83.051,44.099z"/>
<g>
	<path fill="#FFFFFF" d="M54.409,0v0.945c0.585,0.203,0.779,0.389,0.842,1.247V23.99c0,12.125,9.84,15.328,20.221,23.474
		c10.382-8.146,20.227-11.349,20.227-23.474V1.949c0.077-0.662,0.288-0.822,0.814-1.004V0H54.409z M61.915,34.152
		c2.052-3.158,2.099-6.624,2.101-6.624c-1.687,0.569-4.726,1.118-4.726,1.118s2.808-2.132,4.907-8.709l2.017,1.833l-0.378,1.255
		c0,0,0.958,1.377,1.201,2.312c0,0,1.33-2.56-0.129-5.296l-0.263,0.762l-0.79-0.72l-1.358-1.237c0,0,0.62-2.158,2.531-4.791
		l0.181,0.201l1.555,1.812l-0.472,0.791c0,0,1.072,1.123,1.98,2.51c0,0,0.477-2.296-0.187-4.786l-0.706,0.66l-1.724-2.008
		c2.453-2.454,4.83-3.943,7.661-4.901c-0.173,0.196-0.337,0.4-0.488,0.617c-0.963,1.367-1.941,3.831-1.151,7.803
		c0.122,0.62,0.324,1.497,0.542,2.425c0.42,1.815,0.898,3.874,1.062,5.168c0.338,2.703,0.066,4.469-0.832,5.407
		c-0.63,0.652-1.637,0.937-3.051,0.885c0.011-0.219,0.018-0.437,0.018-0.646c0-1.901-0.383-3.338-0.401-3.411l-0.354-1.306
		l-0.584,1.221c-0.922,1.925-4.056,6.72-8.155,7.655C61.92,34.152,61.917,34.152,61.915,34.152z M82.767,35.427
		c-0.743,0.167-3.201,0.058-3.201,0.058s1.684-0.718,2.603-3.507C82.981,33.678,82.767,35.427,82.767,35.427z M86.596,29.883
		c-4.912,0.68-5.76-9.652-5.76-9.652s1.656,5.286,5.16,5.103c3.629-0.193,2.606-5.794,2.606-5.794S92.131,29.116,86.596,29.883z
		 M92.539,10.429l-4.846,0.206c0.005,0.574-0.073,1.151-0.26,1.698c0.453,1.985,0.143,3.063,0.143,3.063
		c-0.813-1.893-1.435-2.416-1.435-2.416c-4.448-1.987-6.948,2.5-6.682,5.393c0.22,2.376,1.077,5.532,1.75,10.48
		c0.566,4.165-1.537,5.963-3.959,6.377c-0.052,0.009-0.103,0.02-0.156,0.027c-0.013,0-0.024,0.005-0.037,0.005
		c-0.391,0.051-0.811,0.069-1.251,0.057c-0.016,0-0.031,0-0.043,0c-0.049,0-0.098-0.006-0.145-0.006
		c-0.188-0.013-0.377-0.031-0.562-0.056c-1.88-0.257-6.095-1.026-10.446-1.131c2.559-1.501,4.562-4.093,5.677-5.935
		c0.068,0.511,0.122,1.132,0.122,1.817c0,0.342-0.014,0.698-0.047,1.066l-0.042,0.499l0.5,0.045
		c2.003,0.174,3.427-0.208,4.347-1.169c1.141-1.188,1.49-3.167,1.107-6.229c-0.169-1.348-0.652-3.431-1.077-5.271
		c-0.216-0.921-0.42-1.791-0.537-2.396c-0.72-3.62,0.136-5.819,0.983-7.025c0.667-0.947,1.584-1.638,2.59-1.971
		c0.018-0.001,0.033-0.007,0.053-0.007l1.65-5.097h0.52l-1.108,4.896c0.258-0.049,0.52-0.089,0.786-0.128l1.424-4.514h0.517
		L81.14,7.079c1.479-0.192,3.08-0.339,4.858-0.472c0.289,0.121,0.596,0.452,0.873,0.916l4.667-1.44l0.169,0.502l-4.456,1.74
		c0.035,0.091,0.068,0.188,0.103,0.283l4.873-0.607l0.082,0.525l-4.733,0.946c0.018,0.089,0.031,0.177,0.044,0.266l4.926,0.157
		L92.539,10.429z"/>
	<path fill="#FFFFFF" d="M83,11.215c-1.168-0.615-3.885-0.407-4.848,0.254c-1.542,1.055-1.281,2.931-1.244,2.976
		c0.307-0.537,0.829-1.293,1.591-1.831c0.977-0.686,2.64-1.216,4.198-1.097C83.094,11.55,83.427,11.446,83,11.215z"/>
</g>
</svg>
