<?xml version="1.0" encoding="utf-8"?>
<!-- Generator: Adobe Illustrator 16.0.0, SVG Export Plug-In . SVG Version: 6.00 Build 0)  -->
<!DOCTYPE svg PUBLIC "-//W3C//DTD SVG 1.1//EN" "http://www.w3.org/Graphics/SVG/1.1/DTD/svg11.dtd">
<svg version="1.1" id="Layer_1" xmlns="http://www.w3.org/2000/svg" xmlns:xlink="http://www.w3.org/1999/xlink" x="0px" y="0px"
	 width="392.051px" height="30px" viewBox="0 0 392.051 30" enable-background="new 0 0 392.051 30" xml:space="preserve">
<g>
	<g>
		<path fill="#5E6A71" d="M302.103,25.418l-4.38,3.119l-4.385-3.119c-3.112-2.131-5.778-3.953-7.178-6.73
			c1.152,5.197,6.234,7.146,11.562,11.312c5.322-4.166,10.407-6.115,11.561-11.312C307.884,21.465,305.215,23.287,302.103,25.418z"
			/>
		<g>
			<path fill="#981E32" d="M285.554,0v0.545c0.341,0.119,0.448,0.226,0.487,0.718v12.564c0,6.984,5.684,8.834,11.682,13.529
				c6.001-4.695,11.688-6.545,11.688-13.529V1.12c0.043-0.374,0.165-0.472,0.47-0.575V0H285.554z"/>
		</g>
	</g>
	<g>
		<g>
			<g>
				<path fill="#FFFFFF" d="M300.089,20.453c0,0,0.973-0.414,1.503-2.023c0.47,0.98,0.348,1.988,0.348,1.988
					C301.507,20.518,300.089,20.453,300.089,20.453z"/>
				<path fill="#FFFFFF" d="M305.307,11.258c0,0,0.592,3.233-1.506,3.342c-2.022,0.111-2.976-2.942-2.976-2.942
					s0.487,5.956,3.324,5.565C307.349,16.781,305.307,11.258,305.307,11.258z"/>
			</g>
		</g>
		<path fill="#FFFFFF" d="M289.89,19.684h0.006c2.367-0.539,4.178-3.301,4.71-4.411l0.339-0.703l0.204,0.754
			c0.01,0.037,0.23,0.868,0.23,1.966c0,0.119-0.004,0.242-0.011,0.369c0.816,0.031,1.4-0.131,1.761-0.512
			c0.521-0.539,0.678-1.559,0.483-3.113c-0.095-0.748-0.369-1.934-0.614-2.978c-0.125-0.539-0.241-1.041-0.313-1.398
			c-0.458-2.29,0.11-3.715,0.666-4.499c0.087-0.126,0.184-0.241,0.281-0.356c-1.637,0.552-3.01,1.412-4.43,2.829l1.001,1.156
			l0.405-0.383c0.387,1.437,0.109,2.761,0.109,2.761c-0.525-0.802-1.145-1.449-1.145-1.449l0.274-0.455l-0.9-1.044l-0.105-0.115
			c-1.104,1.516-1.463,2.761-1.463,2.761l0.786,0.712l0.457,0.417l0.154-0.44c0.84,1.579,0.07,3.053,0.07,3.053
			c-0.138-0.54-0.694-1.336-0.694-1.336l0.221-0.72l-1.165-1.058c-1.214,3.793-2.835,5.017-2.835,5.017s1.754-0.314,2.732-0.644
			C291.106,15.864,291.079,17.861,289.89,19.684z"/>
		<path fill="#FFFFFF" d="M307.585,6.011l-2.802,0.119c0.002,0.333-0.04,0.667-0.146,0.979c0.26,1.144,0.078,1.764,0.078,1.764
			c-0.467-1.086-0.825-1.392-0.825-1.392c-2.572-1.142-4.015,1.445-3.861,3.107c0.126,1.373,0.622,3.194,1.01,6.042
			c0.327,2.402-0.886,3.439-2.287,3.678c-0.029,0.006-0.06,0.012-0.09,0.018c-0.011,0-0.014,0-0.021,0
			c-0.227,0.029-0.471,0.043-0.723,0.031c-0.01,0-0.017,0-0.03,0c-0.022,0-0.052-0.002-0.081-0.002
			c-0.109-0.008-0.217-0.02-0.323-0.029c-1.085-0.152-3.521-0.596-6.037-0.656c1.48-0.863,2.638-2.361,3.284-3.418
			c0.033,0.291,0.068,0.648,0.068,1.045c0,0.199-0.008,0.402-0.025,0.615l-0.025,0.289l0.29,0.021
			c1.156,0.104,1.978-0.117,2.512-0.67c0.656-0.684,0.861-1.823,0.64-3.59c-0.098-0.775-0.377-1.976-0.625-3.038
			c-0.124-0.529-0.239-1.03-0.312-1.38c-0.413-2.087,0.082-3.356,0.571-4.052c0.386-0.545,0.916-0.943,1.496-1.133
			c0.012-0.003,0.021-0.003,0.028-0.006l0.955-2.938h0.303l-0.645,2.824c0.15-0.025,0.302-0.051,0.452-0.073l0.829-2.605h0.298
			L301,4.083c0.85-0.112,1.779-0.196,2.808-0.275c0.167,0.07,0.347,0.263,0.503,0.531l2.697-0.832l0.097,0.29l-2.576,1
			c0.024,0.052,0.042,0.109,0.061,0.165l2.819-0.35l0.041,0.3l-2.73,0.546c0.007,0.049,0.018,0.102,0.025,0.154l2.844,0.091
			L307.585,6.011z M299.472,7.272c0.566-0.398,1.527-0.704,2.43-0.632c0.226,0.018,0.418-0.045,0.171-0.174
			c-0.674-0.357-2.246-0.235-2.802,0.146c-0.887,0.608-0.738,1.689-0.715,1.713C298.729,8.017,299.032,7.58,299.472,7.272z"/>
	</g>
	<g>
		<g>
			<path fill="#5E6A71" d="M252.646,12.2c-1.84-1.382-3.128-2.154-3.128-3.441c0-1.363,0.956-1.915,2.025-1.915
				c1.471,0,2.169,1.031,2.315,2.321h0.479V6.752c0-0.093-0.018-0.166-0.128-0.201c-0.737-0.258-1.785-0.349-2.576-0.349
				c-2.116,0-3.955,1.304-3.955,2.963c0,0.894,0.247,1.536,0.609,2.026h-0.008c0.008,0.008,0.018,0.014,0.023,0.021
				c0.445,0.594,1.058,0.974,1.601,1.336c2.76,1.824,3.382,2.797,3.404,3.993c0.051,2.656-4.923,4.051-8.197-1.051l-1.699-2.587
				c1.336-0.521,2.428-1.752,2.428-3.542c0-2.034-1.752-2.949-3.504-2.949h-5.053v0.45c1.562,0.187,1.49,0.104,1.49,1.717v7.813
				c0,1.619,0.071,1.529-1.49,1.719v0.451h4.67v-0.451c-1.563-0.189-1.495-0.1-1.495-1.719v-3.211h1.636
				c2.097,3.49,2.618,5.004,3.676,5.381c0.235,0.084,2.96,0.961,4.885,0.961c2.208,0,4.566-1.217,4.566-3.404
				C255.221,14.592,254.596,13.652,252.646,12.2z M241.902,12.812h-1.443v-5.66h1.337c1.267,0,2.312,0.659,2.312,2.553
				C244.108,11.667,243.413,12.812,241.902,12.812z"/>
			<path fill="#5E6A71" d="M206.972,18.545c0,0,0,0-8.496-10.066v7.71c0,0.365,0.072,0.662,0.103,0.941
				c0.089,0.629,0.685,0.871,1.835,0.961v0.453h-4.275v-0.453c0.841-0.09,1.414-0.332,1.5-0.961
				c0.035-0.279,0.104-0.576,0.104-0.941V7.973c-0.486-0.628-1.031-1.188-2.021-1.188V6.329h3.172c2.6,3.161,5.306,6.37,7.903,9.529
				h0.036V8.686c0-0.366-0.072-0.661-0.106-0.94c-0.088-0.629-0.677-0.87-1.83-0.96V6.329h4.274v0.457
				c-0.82,0.09-1.413,0.331-1.504,0.96c-0.034,0.279-0.102,0.574-0.102,0.94v9.859H206.972z"/>
			<path fill="#5E6A71" d="M213.829,16.361c0,1.627-0.069,1.539,1.5,1.73v0.453h-4.693v-0.453c1.571-0.191,1.5-0.104,1.5-1.73V8.513
				c0-1.62,0.071-1.537-1.5-1.727v-0.45h4.693v0.45c-1.569,0.19-1.5,0.107-1.5,1.727V16.361z"/>
			<path fill="#5E6A71" d="M236.025,15.403c-0.803,1.868-0.682,2.585-3.209,2.585c-1.57,0-2.253-0.125-2.253-1.607v-3.944h1.469
				c1.167,0,1.569,0.615,1.603,1.643h0.45v-3.719h-0.45c-0.033,1.083-0.506,1.52-1.603,1.52h-1.469V6.893h2.77
				c1.255,0,1.606,0.958,1.777,2.249h0.453V6.335h-8.034h-3.456v0.45c1.183,0,1.638,0.54,1.201,1.642
				c-1.082,2.67-2.146,5.354-3.264,8.022c-0.907-2.648-1.917-5.649-2.593-7.707c-0.58-1.678,0.12-1.957,1.08-1.957v-0.45h-4.438
				v0.45c0.842,0,1.065,0.54,1.716,2.407c1.062,2.968,2.25,6.332,3.314,9.353h0.887c1.469-3.576,2.948-7.136,4.414-10.71
				c0.367-0.874,0.628-1.049,1.138-1.049c1.568,0.19,1.342,0.107,1.342,1.727v7.849c0,1.627,0.227,1.539-1.342,1.73v0.453h8.426
				l0.524-3.142H236.025z"/>
			<path fill="#5E6A71" d="M259.398,16.361c0,1.627-0.073,1.539,1.498,1.73v0.453h-4.693v-0.453c1.572-0.191,1.502-0.104,1.502-1.73
				V8.513c0-1.62,0.07-1.537-1.502-1.727v-0.45h4.693v0.45c-1.571,0.19-1.498,0.107-1.498,1.727V16.361z"/>
			<path fill="#5E6A71" d="M277.238,6.335v0.45c1.029,0,1.587,0.504,0.993,1.571l-2.406,4.382l-2.111-4.382
				c-0.437-0.908-0.556-1.571,0.768-1.571v-0.45h-2.925h-1.211h-8.124l-0.473,2.664h0.437c0.575-1.148,0.924-2.106,2.44-2.106h1.418
				v9.469c0,1.627,0.066,1.539-1.504,1.73v0.453h4.693v-0.453c-1.57-0.191-1.501-0.104-1.501-1.73V6.893h1.415
				c1.431,0,2.392,0.853,2.98,1.916l2.458,4.872v2.681c0,1.627,0.07,1.539-1.5,1.73v0.453h4.691v-0.453
				c-1.567-0.191-1.5-0.104-1.5-1.73v-1.953c0-0.435,0.037-0.926,0.209-1.272l2.913-5.286c0.474-0.838,0.942-1.065,1.433-1.065
				v-0.45H277.238z"/>
		</g>
		<path fill="#5E6A71" d="M195.792,3.873l-5.497,0.015v0.456c1.102,0.119,1.899,0.602,2.015,1.449
			c0.047,0.374,0.143,0.771,0.143,1.265v6.521c0,3.758-1.692,5.912-4.904,5.912c-3.497,0-4.545-2.508-4.545-5.795V6.822
			c0-2.182,0.063-2.222,2.176-2.479V3.887h-6.315v0.456c2.115,0.257,2.021,0.296,2.021,2.479v6.991c0,4.248,1.549,6.785,6.544,6.785
			c3.027,0,6.245-1.877,6.245-6.923V7.057c0-0.042,0-0.079,0-0.117c-0.021-2.036,0.771-2.333,2.104-2.547L195.792,3.873z"/>
	</g>
	<g>
		<path fill="#5E6A71" d="M135.308,7.116c-0.186-1.641-1.074-2.948-2.943-2.948c-1.356,0-2.726,0.701-2.726,2.43
			c0,1.636,1.635,2.616,3.973,4.371c2.475,1.847,3.272,3.039,3.272,4.977c0,2.781-2.696,4.324-5.498,4.324
			c-1.499,0-2.785-0.281-4-0.748c-0.091-0.047-0.163-0.143-0.163-0.324V15.83h0.607c0.26,2.592,1.961,3.622,3.763,3.622
			c1.66,0,3.167-1.264,3.167-2.969c0-1.52-0.818-2.758-4.322-5.069c-1.261-0.839-2.826-1.754-2.826-4.297
			c0-2.11,2.178-3.767,4.867-3.767c1.005,0,2.338,0.117,3.272,0.447c0.141,0.041,0.163,0.14,0.163,0.255v3.064H135.308z"/>
		<path fill="#5E6A71" d="M142.782,16.307c0,1.617-0.067,1.525,1.495,1.721v0.447h-4.674v-0.447
			c1.563-0.195,1.495-0.104,1.495-1.721V6.869h-1.41c-1.511,0-1.859,0.957-2.432,2.101h-0.433l0.467-2.656h9.295l0.47,2.656h-0.435
			c-0.573-1.144-0.92-2.101-2.431-2.101h-1.41V16.307z"/>
		<path fill="#5E6A71" d="M148.845,14.445l-0.795,2.331c-0.227,0.68,0.103,1.252,0.868,1.252v0.447h-3.163v-0.447
			c0.467,0,0.974-0.299,1.251-0.869c0.747-1.532,2.778-7.211,4.222-11.052h0.972c1.181,3.491,2.952,8.847,3.543,10.392
			c0.385,0.967,0.662,1.529,1.407,1.529v0.447h-4.047v-0.447c1.094,0,1.202-0.572,0.924-1.34l-0.751-2.243H148.845z M153.055,13.787
			l-1.843-5.648h-0.035l-2.067,5.648H153.055z"/>
		<path fill="#5E6A71" d="M161.898,16.307c0,1.617-0.068,1.525,1.493,1.721v0.447h-4.674v-0.447
			c1.563-0.195,1.497-0.104,1.497-1.721V6.869h-1.41c-1.512,0-1.856,0.957-2.433,2.101h-0.435l0.472-2.656h9.295l0.468,2.656h-0.437
			c-0.568-1.144-0.915-2.101-2.426-2.101h-1.41V16.307z"/>
		<path fill="#5E6A71" d="M166.991,18.027c1.567-0.195,1.342-0.104,1.342-1.721V8.483c0-1.614,0.225-1.528-1.342-1.72V6.314h7.611
			v2.792h-0.454c-0.172-1.281-0.517-2.238-1.769-2.238h-2.366v4.976h1.459c1.094,0,1.564-0.438,1.597-1.516h0.453v3.697h-0.453
			c-0.032-1.027-0.432-1.633-1.597-1.633h-1.459v3.926c0,1.48,0.68,1.605,2.244,1.605c2.52,0,2.397-0.715,3.197-2.574h0.451
			l-0.523,3.125h-8.392V18.027z"/>
	</g>
	<g>
		<path fill="#5E6A71" d="M43.447,16.318c0,1.619-0.07,1.529,1.492,1.721v0.451h-4.671v-0.451c1.562-0.191,1.493-0.102,1.493-1.721
			V8.5c0-1.612-0.751-1.527-2.314-1.717V6.335h5.493v0.448c-1.562,0.19-1.492,0.105-1.492,1.717v3.009h6.095V8.5
			c0-1.612,0.069-1.527-1.494-1.717V6.335h4.671v0.448c-1.561,0.19-1.493,0.105-1.493,1.717v7.818c0,1.619-0.067,1.529,1.493,1.721
			v0.451h-4.671v-0.451c1.563-0.191,1.494-0.102,1.494-1.721v-4.099h-6.095V16.318z"/>
		<path fill="#5E6A71" d="M57.813,16.318c0,1.619-0.071,1.529,1.493,1.721v0.451h-4.671v-0.451c1.562-0.191,1.493-0.102,1.493-1.721
			V8.5c0-1.612,0.069-1.527-1.493-1.717V6.335h4.671v0.448c-1.564,0.19-1.493,0.105-1.493,1.717V16.318z"/>
		<path fill="#5E6A71" d="M72.254,18.49c-2.761-3.265-5.628-6.688-8.458-10.023v7.682c0,0.359,0.069,0.658,0.105,0.936
			c0.086,0.627,0.675,0.867,1.821,0.955v0.451H61.47v-0.451c0.832-0.088,1.406-0.328,1.493-0.955
			c0.034-0.277,0.104-0.576,0.104-0.936V7.964c-0.488-0.624-1.026-1.181-2.018-1.181V6.335h3.163c2.588,3.14,5.28,6.338,7.867,9.479
			h0.034V8.678c0-0.366-0.069-0.663-0.104-0.941c-0.084-0.624-0.678-0.867-1.824-0.954V6.335h4.257v0.448
			c-0.816,0.087-1.406,0.33-1.497,0.954c-0.033,0.278-0.102,0.575-0.102,0.941v9.812H72.254z"/>
		<path fill="#5E6A71" d="M74.814,12.342c0-2.674,2.259-6.221,6.947-6.221c1.684,0,2.484,0.315,3.335,0.595
			c0.487,0.155,0.678,0.397,0.678,0.676v2.24h-0.452c-0.052-1.39-0.938-2.9-3.698-2.9c-3.631,0-4.812,2.501-4.829,5.471
			c-0.018,2.744,1.371,5.89,4.897,5.89c2.172,0,2.363-0.803,2.363-2.153v-1.061c0-1.619,0.067-1.527-1.842-1.721v-0.448h5.02v0.448
			c-1.562,0.193-1.492,0.102-1.492,1.721V17.9c-1.114,0.434-2.572,0.799-4.153,0.799C78.028,18.699,74.814,16.998,74.814,12.342z"/>
		<path fill="#5E6A71" d="M93.192,16.318c0,1.619-0.07,1.529,1.494,1.721v0.451h-4.673v-0.451c1.562-0.191,1.493-0.102,1.493-1.721
			v-9.43h-1.408c-1.511,0-1.858,0.951-2.432,2.101h-0.433l0.471-2.654h9.292l0.469,2.654H97.03c-0.572-1.15-0.919-2.101-2.43-2.101
			h-1.408V16.318z"/>
		<path fill="#5E6A71" d="M97.464,12.637c0-3.754,2.918-6.517,6.53-6.517c3.769,0,5.958,3.251,5.958,5.928
			c0,3.665-2.745,6.651-6.584,6.651C100.051,18.699,97.464,16.01,97.464,12.637z M107.971,12.568c0-4.153-2.239-5.837-4.36-5.837
			c-2.951,0-4.167,2.641-4.167,5.002c0,4.206,2.153,6.359,4.393,6.359C107.069,18.092,107.971,14.896,107.971,12.568z"/>
		<path fill="#5E6A71" d="M121.156,18.49c-2.764-3.265-5.628-6.688-8.459-10.023v7.682c0,0.359,0.069,0.658,0.104,0.936
			c0.087,0.627,0.677,0.867,1.823,0.955v0.451h-4.256v-0.451c0.835-0.088,1.408-0.328,1.495-0.955
			c0.035-0.277,0.104-0.576,0.104-0.936V7.964c-0.485-0.624-1.024-1.181-2.015-1.181V6.335h3.162
			c2.588,3.14,5.278,6.338,7.868,9.479h0.033V8.678c0-0.366-0.07-0.663-0.104-0.941c-0.086-0.624-0.676-0.867-1.823-0.954V6.335
			h4.254v0.448c-0.815,0.087-1.405,0.33-1.492,0.954c-0.035,0.278-0.105,0.575-0.105,0.941v9.812H121.156z"/>
		<path fill="#5E6A71" d="M23.905,4.008v-0.02h-4.699v0.583c1.813,0.02,2.108,0.667,1.632,2.04l-3.555,9.681h-0.197L12.899,4.188
			h-1.06L7.44,16.291H7.141L3.988,6.674C3.541,5.15,4.166,4.571,5.576,4.571V3.988H0v0.583c1.186,0,1.398,0.923,2.159,3.11
			l4.047,11.966h1.066l4.33-12.206l4.268,12.215h1.193c1.826-4.857,4.397-12.045,5.342-13.979c0.352-0.726,0.989-1.1,1.583-1.1
			V4.008H23.905z"/>
		<path fill="#5E6A71" d="M36.397,11.965c-1.828-1.371-3.107-2.138-3.107-3.417c0-1.353,0.95-1.903,2.01-1.903
			c1.462,0,2.156,1.025,2.303,2.305h0.475V6.555c0-0.091-0.018-0.164-0.128-0.199c-0.73-0.256-1.772-0.35-2.558-0.35
			c-2.102,0-3.929,1.299-3.929,2.944c0,0.892,0.247,1.526,0.606,2.015h-0.006c0.008,0.007,0.015,0.013,0.022,0.02
			c0.442,0.591,1.051,0.968,1.59,1.328c2.741,1.809,3.381,2.779,3.381,3.967c0,1.104-0.83,2.211-2.357,2.322
			c-1.564,0.109-3.576-0.645-4.422-2.841c-0.752-2.104-2.28-6.531-3.313-9.587h-1.007c-1.442,3.839-3.396,9.469-4.144,10.995
			c-0.275,0.574-0.779,0.871-1.249,0.871v0.451h0.75h2.411v-0.451c-0.764,0-1.094-0.574-0.869-1.252l0.8-2.328h4.429l0.747,2.242
			l0.575,1.727c0,0,3.106,0.811,5.127,0.811c2.193,0,4.422-1.205,4.422-3.38C38.956,14.342,38.334,13.408,36.397,11.965z
			 M23.916,13.8l2.066-5.646h0.035l1.841,5.646H23.916z"/>
	</g>
	<path fill="#5E6A71" d="M319.404,8.858h-2.996v2.729h2.936v0.846h-2.936v3.188h3.516v0.845h-4.687V8.013h4.167V8.858z"/>
	<path fill="#5E6A71" d="M328.102,16.588l-2.501-3.938l-2.271,3.938l-1.073-0.219l2.754-4.503l-2.513-3.708l1.244-0.266l1.969,3.067
		l1.799-3.067l1.087,0.145l-2.319,3.708l3.093,4.601L328.102,16.588z"/>
	<path fill="#5E6A71" d="M334.167,16.467V8.858h-2.705V8.013h6.594v0.846h-2.717v7.608H334.167z"/>
	<path fill="#5E6A71" d="M345.111,8.858h-2.996v2.729h2.936v0.846h-2.936v3.188h3.515v0.845h-4.685V8.013h4.166V8.858z"/>
	<path fill="#5E6A71" d="M356.165,16.467h-0.919c-1.836-2.198-4.987-5.99-5.495-6.727h-0.024v6.727h-0.966V8.013h0.869
		c1.86,2.198,4.976,5.894,5.544,6.74h0.024v-6.74h0.967V16.467z"/>
	<path fill="#5E6A71" d="M363.968,9.317c-0.41-0.301-0.954-0.604-1.462-0.604c-0.846,0-1.315,0.495-1.315,1.147
		c0,0.604,0.519,1.051,1.606,1.835c1.158,0.846,1.834,1.619,1.834,2.706c0,1.341-1.268,2.209-2.619,2.209
		c-0.811,0-1.776-0.289-2.381-0.881l0.521-0.7c0.495,0.351,1.039,0.737,1.835,0.737c0.834,0,1.475-0.447,1.475-1.39
		c0-1.062-1.269-1.751-1.957-2.258c-0.7-0.543-1.486-1.062-1.486-2.258c0-1.136,1.099-1.993,2.417-1.993
		c0.881,0,1.617,0.314,2.089,0.846L363.968,9.317z"/>
	<path fill="#5E6A71" d="M368.101,16.467V8.013h1.17v8.454H368.101z"/>
	<path fill="#5E6A71" d="M372.678,12.095c0-2.367,1.788-4.228,4.229-4.228c2.438,0,4.226,1.86,4.226,4.228
		c0,2.524-1.617,4.516-4.226,4.516S372.678,14.619,372.678,12.095z M379.841,12.095c0-1.583-0.846-3.382-2.935-3.382
		c-2.09,0-2.936,1.799-2.936,3.382c0,1.654,0.75,3.672,2.936,3.672S379.841,13.75,379.841,12.095z"/>
	<path fill="#5E6A71" d="M391.945,16.467h-0.917c-1.837-2.198-4.989-5.99-5.495-6.727h-0.024v6.727h-0.967V8.013h0.87
		c1.859,2.198,4.976,5.894,5.543,6.74h0.023v-6.74h0.967V16.467z"/>
</g>
</svg>
