<?xml version="1.0" encoding="utf-8"?>
<!-- Generator: Adobe Illustrator 17.0.2, SVG Export Plug-In . SVG Version: 6.00 Build 0)  -->
<!DOCTYPE svg PUBLIC "-//W3C//DTD SVG 1.1//EN" "http://www.w3.org/Graphics/SVG/1.1/DTD/svg11.dtd">
<svg version="1.1" id="Layer_1" xmlns="http://www.w3.org/2000/svg" xmlns:xlink="http://www.w3.org/1999/xlink" x="0px" y="0px"
	 width="150px" height="109.883px" viewBox="0 0 150 109.883" enable-background="new 0 0 150 109.883" xml:space="preserve">
<g>
	<g>
		<path fill="#FFFFFF" d="M95.363,83.021c-1.569-1.176-2.668-1.835-2.668-2.934c0-1.159,0.816-1.632,1.728-1.632
			c1.254,0,1.85,0.879,1.976,1.979h0.408v-2.056c0-0.079-0.017-0.142-0.11-0.172c-0.628-0.22-1.521-0.297-2.196-0.297
			c-1.805,0-3.371,1.112-3.371,2.525c0,0.763,0.211,1.31,0.518,1.728h-0.006c0.008,0.007,0.015,0.012,0.02,0.018
			c0.382,0.507,0.903,0.831,1.365,1.139c2.354,1.554,2.883,2.386,2.902,3.404c0.043,2.264-4.196,3.455-6.988-0.896l-1.449-2.205
			c1.141-0.443,2.071-1.495,2.071-3.02c0-1.734-1.496-2.514-2.988-2.514h-4.309v0.384c1.332,0.158,1.272,0.089,1.272,1.463v6.66
			c0,1.381,0.06,1.304-1.272,1.466v0.385h3.983v-0.385c-1.334-0.162-1.276-0.085-1.276-1.466v-2.736h1.395
			c1.788,2.975,2.233,4.267,3.134,4.587c0.203,0.071,2.524,0.818,4.165,0.818c1.883,0,3.893-1.036,3.893-2.902
			C97.558,85.061,97.024,84.259,95.363,83.021z M86.204,83.543h-1.232v-4.824h1.14c1.079,0,1.972,0.561,1.972,2.176
			C88.083,82.567,87.49,83.543,86.204,83.543z"/>
		<path fill="#FFFFFF" d="M56.425,88.431c0,0,0,0-7.243-8.582v6.574c0,0.312,0.061,0.564,0.087,0.802
			c0.077,0.536,0.584,0.743,1.564,0.819v0.386h-3.644v-0.386c0.717-0.076,1.205-0.284,1.279-0.819c0.03-0.238,0.09-0.491,0.09-0.802
			v-7.005c-0.415-0.535-0.88-1.011-1.724-1.011v-0.39h2.704c2.217,2.695,4.524,5.431,6.739,8.124h0.03v-6.115
			c0-0.313-0.061-0.564-0.091-0.803c-0.076-0.535-0.577-0.741-1.56-0.816v-0.39h3.643v0.39c-0.698,0.075-1.205,0.281-1.281,0.816
			c-0.029,0.239-0.087,0.49-0.087,0.803v8.405H56.425z"/>
		<path fill="#FFFFFF" d="M62.27,86.571c0,1.386-0.059,1.309,1.278,1.474v0.386h-4v-0.386c1.34-0.165,1.279-0.088,1.279-1.474
			v-6.692c0-1.381,0.061-1.31-1.279-1.472v-0.385h4v0.385c-1.337,0.162-1.278,0.091-1.278,1.472V86.571z"/>
		<path fill="#FFFFFF" d="M81.192,85.752c-0.684,1.593-0.58,2.204-2.735,2.204c-1.339,0-1.921-0.106-1.921-1.372v-3.36h1.252
			c0.995,0,1.339,0.524,1.366,1.401h0.386v-3.171h-0.386c-0.027,0.922-0.431,1.295-1.366,1.295h-1.252v-4.252h2.362
			c1.068,0,1.368,0.816,1.515,1.917h0.386v-2.392h-6.85h-2.946v0.385c1.009,0,1.397,0.459,1.025,1.398
			c-0.922,2.275-1.83,4.563-2.783,6.84c-0.772-2.259-1.634-4.816-2.211-6.572c-0.494-1.43,0.103-1.667,0.922-1.667v-0.385h-3.783
			v0.385c0.717,0,0.908,0.459,1.461,2.052c0.906,2.529,1.919,5.398,2.826,7.972h0.757c1.251-3.049,2.515-6.083,3.763-9.13
			c0.313-0.745,0.535-0.894,0.969-0.894c1.337,0.162,1.146,0.091,1.146,1.472v6.692c0,1.386,0.192,1.309-1.146,1.474v0.386h7.184
			l0.446-2.678L81.192,85.752L81.192,85.752z"/>
		<path fill="#FFFFFF" d="M101.119,86.571c0,1.386-0.063,1.309,1.277,1.474v0.386h-4.002v-0.386c1.34-0.165,1.281-0.088,1.281-1.474
			v-6.692c0-1.381,0.059-1.31-1.281-1.472v-0.385h4.002v0.385c-1.341,0.162-1.277,0.091-1.277,1.472V86.571z"/>
		<path fill="#FFFFFF" d="M116.328,78.022v0.385c0.877,0,1.353,0.429,0.846,1.337l-2.05,3.735l-1.801-3.735
			c-0.373-0.774-0.475-1.337,0.653-1.337v-0.385h-2.492h-1.032h-6.926l-0.403,2.271h0.373c0.488-0.979,0.787-1.795,2.08-1.795h1.208
			v8.073c0,1.386,0.058,1.309-1.281,1.474v0.386h4.001v-0.386c-1.337-0.165-1.279-0.088-1.279-1.474v-8.073h1.206
			c1.218,0,2.039,0.727,2.541,1.632l2.094,4.154v2.287c0,1.386,0.062,1.309-1.277,1.474v0.386h3.999v-0.386
			c-1.336-0.165-1.278-0.088-1.278-1.474v-1.666c0-0.371,0.03-0.789,0.18-1.085l2.482-4.506c0.402-0.715,0.804-0.907,1.22-0.907
			v-0.385C119.392,78.022,116.328,78.022,116.328,78.022z"/>
		<path fill="#FFFFFF" d="M46.851,78.014l-4.687,0.012v0.389c0.938,0.101,1.62,0.514,1.718,1.236
			c0.04,0.317,0.123,0.657,0.123,1.077v5.56c0,3.203-1.444,5.041-4.182,5.041c-2.981,0-3.876-2.139-3.876-4.941v-5.859
			c0-1.86,0.055-1.893,1.855-2.113v-0.389H32.42v0.389c1.803,0.22,1.723,0.252,1.723,2.113v5.961c0,3.62,1.319,5.783,5.578,5.783
			c2.581,0,5.325-1.6,5.325-5.902V80.73c0-0.035,0-0.067,0-0.099c-0.019-1.736,0.656-1.989,1.793-2.173L46.851,78.014z"/>
	</g>
	<g>
		<path fill="#FFFFFF" d="M36.785,70.561c0,1.378-0.059,1.304,1.272,1.466v0.385h-3.983v-0.385c1.333-0.162,1.273-0.088,1.273-1.466
			v-6.666c0-1.375-0.641-1.3-1.974-1.463v-0.384h4.683v0.384c-1.332,0.163-1.272,0.089-1.272,1.463v2.565h5.198v-2.565
			c0-1.375,0.058-1.3-1.274-1.463v-0.384h3.983v0.384c-1.332,0.163-1.274,0.089-1.274,1.463v6.666c0,1.378-0.058,1.304,1.274,1.466
			v0.385h-3.983v-0.385c1.333-0.162,1.274-0.088,1.274-1.466v-3.497h-5.198v3.497H36.785z"/>
		<path fill="#FFFFFF" d="M49.033,70.561c0,1.378-0.061,1.304,1.272,1.466v0.385h-3.982v-0.385c1.332-0.162,1.272-0.088,1.272-1.466
			v-6.666c0-1.375,0.059-1.3-1.272-1.463v-0.384h3.982v0.384c-1.333,0.163-1.272,0.089-1.272,1.463V70.561z"/>
		<path fill="#FFFFFF" d="M61.344,72.412c-2.355-2.784-4.799-5.702-7.21-8.546v6.548c0,0.308,0.058,0.562,0.09,0.798
			c0.073,0.534,0.575,0.738,1.552,0.814v0.385h-3.627v-0.385c0.71-0.076,1.199-0.28,1.274-0.814
			c0.029-0.237,0.089-0.491,0.089-0.798v-6.976c-0.417-0.532-0.874-1.007-1.719-1.007v-0.384h2.695
			c2.207,2.679,4.501,5.403,6.708,8.083h0.029v-6.084c0-0.312-0.059-0.564-0.089-0.802c-0.073-0.533-0.578-0.738-1.555-0.813v-0.384
			h3.629v0.384c-0.696,0.075-1.199,0.28-1.275,0.813c-0.028,0.237-0.088,0.49-0.088,0.802v8.366H61.344z"/>
		<path fill="#FFFFFF" d="M63.526,67.17c0-2.28,1.926-5.305,5.923-5.305c1.435,0,2.116,0.269,2.843,0.507
			c0.414,0.133,0.577,0.338,0.577,0.576v1.911h-0.385c-0.044-1.186-0.8-2.473-3.154-2.473c-3.095,0-4.103,2.132-4.116,4.663
			c-0.016,2.339,1.168,5.022,4.175,5.022c1.851,0,2.013-0.683,2.013-1.837v-0.903c0-1.379,0.058-1.302-1.57-1.466v-0.383h4.28v0.383
			c-1.332,0.164-1.272,0.087-1.272,1.466v2.577c-0.948,0.37-2.192,0.681-3.54,0.681C66.267,72.589,63.526,71.138,63.526,67.17z"/>
		<path fill="#FFFFFF" d="M79.194,70.561c0,1.378-0.059,1.304,1.272,1.466v0.385h-3.982v-0.385c1.331-0.162,1.272-0.088,1.272-1.466
			V62.52h-1.201c-1.288,0-1.583,0.812-2.072,1.791h-0.37l0.401-2.264h7.922l0.399,2.264h-0.369
			c-0.488-0.979-0.784-1.791-2.073-1.791h-1.199C79.194,62.52,79.194,70.561,79.194,70.561z"/>
		<path fill="#FFFFFF" d="M82.836,67.421c0-3.201,2.488-5.556,5.568-5.556c3.212,0,5.077,2.772,5.077,5.054
			c0,3.125-2.339,5.67-5.612,5.67C85.041,72.589,82.836,70.295,82.836,67.421z M91.793,67.362c0-3.539-1.909-4.975-3.717-4.975
			c-2.516,0-3.551,2.25-3.551,4.264c0,3.584,1.834,5.421,3.744,5.421C91.024,72.072,91.793,69.347,91.793,67.362z"/>
		<path fill="#FFFFFF" d="M103.034,72.412c-2.356-2.784-4.797-5.702-7.213-8.546v6.548c0,0.308,0.06,0.562,0.091,0.798
			c0.073,0.534,0.577,0.738,1.553,0.814v0.385h-3.627v-0.385c0.711-0.076,1.199-0.28,1.273-0.814c0.03-0.237,0.09-0.491,0.09-0.798
			v-6.976c-0.415-0.532-0.874-1.007-1.72-1.007v-0.384h2.697c2.207,2.679,4.499,5.403,6.708,8.083h0.027v-6.084
			c0-0.312-0.059-0.564-0.089-0.802c-0.073-0.533-0.575-0.738-1.555-0.813v-0.384h3.628v0.384c-0.696,0.075-1.198,0.28-1.272,0.813
			c-0.03,0.237-0.089,0.49-0.089,0.802v8.366H103.034z"/>
		<path fill="#FFFFFF" d="M20.124,60.064v-0.016h-4.005v0.496c1.546,0.018,1.798,0.569,1.392,1.738l-3.031,8.254h-0.167
			l-3.57-10.318H9.838l-3.75,10.318H5.833l-2.688-8.199c-0.382-1.298,0.152-1.793,1.354-1.793v-0.496h-4.754v0.496
			c1.01,0,1.192,0.786,1.84,2.651l3.451,10.201h0.908l3.692-10.405l3.639,10.414h1.017c1.556-4.142,3.749-10.268,4.554-11.918
			c0.3-0.619,0.843-0.937,1.349-0.937v-0.486H20.124z"/>
		<path fill="#FFFFFF" d="M30.775,66.849c-1.559-1.169-2.649-1.823-2.649-2.915c0-1.152,0.81-1.621,1.714-1.621
			c1.247,0,1.837,0.873,1.963,1.964h0.404v-2.041c0-0.079-0.016-0.141-0.109-0.172c-0.623-0.218-1.511-0.297-2.182-0.297
			c-1.791,0-3.349,1.107-3.349,2.51c0,0.76,0.209,1.301,0.516,1.717H27.08c0.006,0.006,0.012,0.011,0.019,0.018
			c0.376,0.503,0.895,0.824,1.354,1.132c2.338,1.542,2.883,2.368,2.883,3.381c0,0.941-0.708,1.886-2.01,1.979
			c-1.333,0.096-3.049-0.549-3.77-2.42c-0.641-1.794-1.945-5.568-2.825-8.173h-0.858c-1.23,3.274-2.895,8.072-3.533,9.374
			c-0.235,0.489-0.664,0.742-1.065,0.742v0.385h0.64h2.054v-0.385c-0.651,0-0.932-0.49-0.74-1.067l0.682-1.985h3.776l0.636,1.911
			l0.491,1.472c0,0,2.648,0.693,4.371,0.693c1.87,0,3.771-1.028,3.771-2.881C32.956,68.873,32.426,68.08,30.775,66.849z
			 M20.134,68.413l1.762-4.813h0.029l1.571,4.813H20.134z"/>
	</g>
	<g>
		<path fill="#FFFFFF" d="M115.136,62.737c-0.158-1.398-0.917-2.514-2.509-2.514c-1.157,0-2.325,0.598-2.325,2.072
			c0,1.396,1.395,2.23,3.389,3.726c2.109,1.574,2.789,2.59,2.789,4.245c0,2.369-2.299,3.686-4.688,3.686
			c-1.277,0-2.374-0.242-3.409-0.638c-0.078-0.04-0.14-0.12-0.14-0.276v-2.872h0.518c0.222,2.21,1.672,3.088,3.21,3.088
			c1.413,0,2.7-1.077,2.7-2.53c0-1.296-0.697-2.352-3.686-4.321c-1.075-0.717-2.409-1.496-2.409-3.665
			c0-1.799,1.856-3.211,4.148-3.211c0.858,0,1.993,0.1,2.79,0.38c0.12,0.037,0.139,0.12,0.139,0.219v2.611
			C115.653,62.737,115.136,62.737,115.136,62.737z"/>
		<path fill="#FFFFFF" d="M121.507,70.571c0,1.381-0.057,1.301,1.276,1.47v0.382h-3.986v-0.382c1.333-0.169,1.275-0.089,1.275-1.47
			v-8.045h-1.202c-1.288,0-1.585,0.816-2.073,1.792h-0.367l0.397-2.264h7.924l0.401,2.264h-0.371
			c-0.488-0.976-0.785-1.792-2.071-1.792h-1.203V70.571z"/>
		<path fill="#FFFFFF" d="M126.678,68.984L126,70.971c-0.194,0.58,0.087,1.069,0.738,1.069v0.382h-2.696V72.04
			c0.399,0,0.83-0.257,1.066-0.743c0.637-1.306,2.369-6.146,3.6-9.422h0.828c1.008,2.977,2.518,7.542,3.021,8.859
			c0.329,0.826,0.564,1.306,1.201,1.306v0.382h-3.452V72.04c0.933,0,1.025-0.49,0.788-1.145l-0.64-1.912L126.678,68.984
			L126.678,68.984z M130.266,68.423l-1.571-4.815h-0.029l-1.765,4.815H130.266z"/>
		<path fill="#FFFFFF" d="M137.805,70.571c0,1.381-0.06,1.301,1.272,1.47v0.382h-3.985v-0.382c1.334-0.169,1.276-0.089,1.276-1.47
			v-8.045h-1.201c-1.29,0-1.583,0.816-2.074,1.792h-0.371l0.402-2.264h7.925l0.397,2.264h-0.372
			c-0.484-0.976-0.78-1.792-2.068-1.792h-1.201V70.571z"/>
		<path fill="#FFFFFF" d="M142.146,72.041c1.336-0.169,1.144-0.089,1.144-1.47v-6.667c0-1.377,0.192-1.304-1.144-1.466v-0.383h6.488
			v2.381h-0.387c-0.148-1.093-0.441-1.909-1.508-1.909h-2.019v4.241h1.244c0.933,0,1.336-0.372,1.361-1.29h0.388v3.151h-0.388
			c-0.025-0.877-0.367-1.394-1.361-1.394h-1.244v3.347c0,1.263,0.58,1.37,1.914,1.37c2.147,0,2.043-0.61,2.727-2.195h0.383
			l-0.446,2.666h-7.152L142.146,72.041L142.146,72.041z"/>
	</g>
</g>
<g>
	<path fill="#D7DAD8" d="M82.796,44.1l-7.586,5.415L67.63,44.1c-5.39-3.694-10.009-6.861-12.429-11.672
		c2,9.018,10.794,12.39,20.009,19.622c9.216-7.231,18.016-10.604,20.015-19.622C92.804,37.238,88.185,40.406,82.796,44.1z"/>
	<g>
		<path fill="#FFFFFF" d="M82.745,11.216c-1.168-0.615-3.885-0.407-4.848,0.253c-1.542,1.055-1.281,2.931-1.244,2.977
			c0.307-0.538,0.829-1.294,1.591-1.831c0.977-0.687,2.64-1.216,4.198-1.097C82.839,11.551,83.172,11.447,82.745,11.216z"/>
		<path fill="#FFFFFF" d="M54.154,0v0.946c0.585,0.203,0.778,0.389,0.841,1.247V23.99c0,12.125,9.84,15.328,20.221,23.474
			C85.6,39.318,95.444,36.115,95.444,23.99V1.95c0.077-0.662,0.288-0.822,0.814-1.004V0H54.154z M61.659,34.152
			c2.053-3.157,2.1-6.623,2.101-6.622c-1.688,0.568-4.727,1.117-4.727,1.117s2.808-2.132,4.908-8.709l2.017,1.833l-0.378,1.255
			c0,0,0.957,1.377,1.2,2.312c0,0,1.33-2.56-0.129-5.296l-0.263,0.762l-0.791-0.72l-1.358-1.238c0,0,0.62-2.158,2.531-4.791
			l0.181,0.201l1.555,1.812l-0.472,0.792c0,0,1.072,1.123,1.98,2.51c0,0,0.476-2.296-0.188-4.786l-0.706,0.66l-1.724-2.009
			c2.454-2.454,4.831-3.943,7.662-4.901c-0.173,0.196-0.336,0.4-0.488,0.617c-0.961,1.367-1.94,3.831-1.15,7.803
			c0.122,0.62,0.325,1.498,0.542,2.425c0.421,1.816,0.898,3.875,1.062,5.169c0.338,2.703,0.066,4.469-0.832,5.407
			c-0.63,0.652-1.637,0.937-3.05,0.885c0.011-0.219,0.017-0.438,0.017-0.646c0-1.901-0.383-3.338-0.401-3.411l-0.354-1.307
			l-0.583,1.221c-0.922,1.925-4.057,6.72-8.155,7.655C61.664,34.152,61.661,34.152,61.659,34.152z M82.513,35.427
			c-0.743,0.167-3.201,0.058-3.201,0.058s1.684-0.718,2.603-3.507C82.727,33.678,82.513,35.427,82.513,35.427z M86.341,29.882
			c-4.912,0.68-5.76-9.652-5.76-9.652s1.656,5.287,5.16,5.103c3.629-0.192,2.606-5.793,2.606-5.793S91.876,29.116,86.341,29.882z
			 M92.284,10.43l-4.846,0.206c0.005,0.575-0.073,1.151-0.26,1.698c0.453,1.986,0.143,3.063,0.143,3.063
			c-0.813-1.893-1.435-2.416-1.435-2.416c-4.448-1.987-6.948,2.499-6.682,5.393c0.22,2.376,1.077,5.532,1.75,10.48
			c0.566,4.165-1.537,5.962-3.959,6.377c-0.052,0.009-0.103,0.019-0.156,0.027c-0.013,0-0.024,0.005-0.037,0.005
			c-0.391,0.051-0.811,0.069-1.252,0.056c-0.016,0-0.03,0-0.043,0c-0.048,0-0.098-0.005-0.145-0.005
			c-0.188-0.013-0.376-0.031-0.562-0.056c-1.88-0.258-6.095-1.026-10.447-1.132c2.56-1.501,4.562-4.093,5.678-5.935
			c0.067,0.511,0.122,1.132,0.122,1.817c0,0.342-0.015,0.698-0.048,1.067l-0.042,0.499l0.5,0.045
			c2.003,0.174,3.427-0.209,4.348-1.169c1.142-1.187,1.49-3.167,1.107-6.229c-0.17-1.348-0.653-3.431-1.078-5.271
			c-0.216-0.921-0.42-1.791-0.537-2.396c-0.72-3.621,0.137-5.819,0.983-7.025c0.668-0.947,1.585-1.638,2.591-1.972
			c0.018-0.001,0.033-0.006,0.053-0.006l1.65-5.097h0.52L79.092,7.35c0.258-0.049,0.52-0.089,0.786-0.128l1.424-4.514h0.517
			L80.884,7.08c1.479-0.192,3.08-0.339,4.858-0.473c0.289,0.121,0.596,0.453,0.873,0.917l4.667-1.44l0.169,0.502l-4.456,1.74
			c0.035,0.09,0.068,0.188,0.103,0.283l4.873-0.607l0.082,0.525L87.32,9.473c0.018,0.089,0.031,0.177,0.044,0.266l4.926,0.157
			L92.284,10.43z"/>
	</g>
</g>
<g>
	<path fill="#D7DAD8" d="M32.095,103.146c-0.379-0.279-0.881-0.558-1.35-0.558c-0.781,0-1.216,0.457-1.216,1.06
		c0,0.558,0.48,0.971,1.483,1.695c1.071,0.781,1.695,1.495,1.695,2.499c0,1.238-1.171,2.041-2.42,2.041
		c-0.747,0-1.64-0.268-2.197-0.814l0.48-0.647c0.457,0.324,0.959,0.681,1.695,0.681c0.77,0,1.361-0.413,1.361-1.283
		c0-0.981-1.171-1.617-1.807-2.086c-0.647-0.501-1.372-0.981-1.372-2.085c0-1.049,1.016-1.84,2.231-1.84
		c0.814,0,1.495,0.29,1.93,0.781L32.095,103.146z"/>
	<path fill="#D7DAD8" d="M43.129,109.748h-1.082v-7.808h1.963c1.651,0,2.666,0.736,2.666,2.253c0,1.316-1.126,2.51-2.877,2.51
		h-0.346v-0.714l0.357-0.011c1.048-0.056,1.707-0.613,1.707-1.773c0-0.859-0.479-1.483-1.64-1.483h-0.748V109.748z"/>
	<path fill="#D7DAD8" d="M55.446,105.711c0-2.186,1.651-3.904,3.904-3.904s3.904,1.718,3.904,3.904c0,2.331-1.495,4.171-3.904,4.171
		S55.446,108.042,55.446,105.711z M62.061,105.711c0-1.461-0.781-3.123-2.711-3.123c-1.929,0-2.71,1.662-2.71,3.123
		c0,1.528,0.691,3.391,2.71,3.391S62.061,107.238,62.061,105.711z"/>
	<path fill="#D7DAD8" d="M73.619,105.432l3.38-3.603l0.736,0.48l-3.023,3.179l3.424,3.959l-1.06,0.413l-3.435-4.161h-0.023v4.049
		h-1.082v-7.808h1.082L73.619,105.432L73.619,105.432z"/>
	<path fill="#D7DAD8" d="M89.985,101.941l2.911,7.808h-1.249l-0.803-2.297h-2.978l-0.837,2.297H85.98l3.18-7.808H89.985z
		 M90.588,106.67c-0.391-1.082-0.771-2.164-1.161-3.569h-0.021c-0.402,1.405-0.814,2.487-1.238,3.569H90.588z"/>
	<path fill="#D7DAD8" d="M108.437,109.748h-0.848c-1.695-2.03-4.605-5.532-5.074-6.213h-0.022v6.213H101.6v-7.808h0.804
		c1.717,2.03,4.595,5.443,5.119,6.224h0.021v-6.224h0.893C108.437,101.94,108.437,109.748,108.437,109.748z"/>
	<path fill="#D7DAD8" d="M121.971,102.721h-2.767v2.521h2.711v0.781h-2.711v2.944h3.246v0.781h-4.328v-7.808h3.849V102.721z"/>
</g>
</svg>
