<?xml version="1.0" encoding="utf-8"?>
<!-- Generator: Adobe Illustrator 18.0.0, SVG Export Plug-In . SVG Version: 6.00 Build 0)  -->
<!DOCTYPE svg PUBLIC "-//W3C//DTD SVG 1.1//EN" "http://www.w3.org/Graphics/SVG/1.1/DTD/svg11.dtd">
<svg version="1.1" id="Layer_1" xmlns="http://www.w3.org/2000/svg" xmlns:xlink="http://www.w3.org/1999/xlink" x="0px" y="0px"
	 viewBox="0 0 433.3 30" enable-background="new 0 0 433.3 30" xml:space="preserve">
<g>
	<g>
		<path fill="#5E6A71" d="M302.1,25.4l-4.4,3.1l-4.4-3.1c-3.1-2.1-5.8-4-7.2-6.7c1.2,5.2,6.2,7.1,11.6,11.3
			c5.3-4.2,10.4-6.1,11.6-11.3C307.9,21.5,305.2,23.3,302.1,25.4z"/>
		<path fill="#981E32" d="M285.6,0v0.5c0.3,0.1,0.4,0.2,0.5,0.7v12.6c0,7,5.7,8.8,11.7,13.5c6-4.7,11.7-6.5,11.7-13.5V1.1
			c0-0.4,0.2-0.5,0.5-0.6V0H285.6z"/>
		<g>
			<g>
				<g>
					<path fill="#FFFFFF" d="M300.1,20.5c0,0,1-0.4,1.5-2c0.5,1,0.3,2,0.3,2C301.5,20.5,300.1,20.5,300.1,20.5z"/>
					<path fill="#FFFFFF" d="M305.3,11.3c0,0,0.6,3.2-1.5,3.3c-2,0.1-3-2.9-3-2.9s0.5,6,3.3,5.6C307.3,16.8,305.3,11.3,305.3,11.3z"
						/>
				</g>
			</g>
			<path fill="#FFFFFF" d="M289.9,19.7L289.9,19.7c2.4-0.5,4.2-3.3,4.7-4.4l0.3-0.7l0.2,0.8c0,0,0.2,0.9,0.2,2c0,0.1,0,0.2,0,0.4
				c0.8,0,1.4-0.1,1.8-0.5c0.5-0.5,0.7-1.6,0.5-3.1c-0.1-0.7-0.4-1.9-0.6-3c-0.1-0.5-0.2-1-0.3-1.4c-0.5-2.3,0.1-3.7,0.7-4.5
				c0.1-0.1,0.2-0.2,0.3-0.4c-1.6,0.6-3,1.4-4.4,2.8l1,1.2l0.4-0.4c0.4,1.4,0.1,2.8,0.1,2.8c-0.5-0.8-1.1-1.4-1.1-1.4l0.3-0.5
				l-0.9-1l-0.1-0.1c-1.1,1.5-1.5,2.8-1.5,2.8l0.8,0.7l0.5,0.4l0.2-0.4c0.8,1.6,0.1,3.1,0.1,3.1c-0.1-0.5-0.7-1.3-0.7-1.3l0.2-0.7
				l-1.2-1.1c-1.2,3.8-2.8,5-2.8,5s1.8-0.3,2.7-0.6C291.1,15.9,291.1,17.9,289.9,19.7z"/>
			<path fill="#FFFFFF" d="M307.6,6l-2.8,0.1c0,0.3,0,0.7-0.1,1c0.3,1.1,0.1,1.8,0.1,1.8c-0.5-1.1-0.8-1.4-0.8-1.4
				c-2.6-1.1-4,1.4-3.9,3.1c0.1,1.4,0.6,3.2,1,6c0.3,2.4-0.9,3.4-2.3,3.7c0,0-0.1,0-0.1,0c0,0,0,0,0,0c-0.2,0-0.5,0-0.7,0
				c0,0,0,0,0,0c0,0-0.1,0-0.1,0c-0.1,0-0.2,0-0.3,0c-1.1-0.2-3.5-0.6-6-0.7c1.5-0.9,2.6-2.4,3.3-3.4c0,0.3,0.1,0.6,0.1,1
				c0,0.2,0,0.4,0,0.6l0,0.3l0.3,0c1.2,0.1,2-0.1,2.5-0.7c0.7-0.7,0.9-1.8,0.6-3.6c-0.1-0.8-0.4-2-0.6-3c-0.1-0.5-0.2-1-0.3-1.4
				c-0.4-2.1,0.1-3.4,0.6-4.1c0.4-0.5,0.9-0.9,1.5-1.1c0,0,0,0,0,0l1-2.9h0.3L300,4.2c0.1,0,0.3-0.1,0.5-0.1l0.8-2.6h0.3L301,4.1
				c0.9-0.1,1.8-0.2,2.8-0.3c0.2,0.1,0.3,0.3,0.5,0.5l2.7-0.8l0.1,0.3l-2.6,1c0,0.1,0,0.1,0.1,0.2l2.8-0.3l0,0.3l-2.7,0.5
				c0,0,0,0.1,0,0.2l2.8,0.1L307.6,6z M299.5,7.3c0.6-0.4,1.5-0.7,2.4-0.6c0.2,0,0.4,0,0.2-0.2c-0.7-0.4-2.2-0.2-2.8,0.1
				c-0.9,0.6-0.7,1.7-0.7,1.7C298.7,8,299,7.6,299.5,7.3z"/>
		</g>
	</g>
	<g>
		<g>
			<g>
				<path fill="#5E6A71" d="M252.6,12.2c-1.8-1.4-3.1-2.2-3.1-3.4c0-1.4,1-1.9,2-1.9c1.5,0,2.2,1,2.3,2.3h0.5V6.8
					c0-0.1,0-0.2-0.1-0.2c-0.7-0.3-1.8-0.3-2.6-0.3c-2.1,0-4,1.3-4,3c0,0.9,0.2,1.5,0.6,2h0c0,0,0,0,0,0c0.4,0.6,1.1,1,1.6,1.3
					c2.8,1.8,3.4,2.8,3.4,4c0.1,2.7-4.9,4.1-8.2-1.1l-1.7-2.6c1.3-0.5,2.4-1.8,2.4-3.5c0-2-1.8-2.9-3.5-2.9h-5.1v0.4
					c1.6,0.2,1.5,0.1,1.5,1.7v7.8c0,1.6,0.1,1.5-1.5,1.7v0.5h4.7v-0.5c-1.6-0.2-1.5-0.1-1.5-1.7v-3.2h1.6c2.1,3.5,2.6,5,3.7,5.4
					c0.2,0.1,3,1,4.9,1c2.2,0,4.6-1.2,4.6-3.4C255.2,14.6,254.6,13.7,252.6,12.2z M241.9,12.8h-1.4V7.2h1.3c1.3,0,2.3,0.7,2.3,2.6
					C244.1,11.7,243.4,12.8,241.9,12.8z"/>
				<path fill="#5E6A71" d="M207,18.5c0,0,0,0-8.5-10.1v7.7c0,0.4,0.1,0.7,0.1,0.9c0.1,0.6,0.7,0.9,1.8,1v0.5h-4.3v-0.5
					c0.8-0.1,1.4-0.3,1.5-1c0-0.3,0.1-0.6,0.1-0.9V8c-0.5-0.6-1-1.2-2-1.2V6.3h3.2c2.6,3.2,5.3,6.4,7.9,9.5h0V8.7
					c0-0.4-0.1-0.7-0.1-0.9c-0.1-0.6-0.7-0.9-1.8-1V6.3h4.3v0.5c-0.8,0.1-1.4,0.3-1.5,1c0,0.3-0.1,0.6-0.1,0.9v9.9L207,18.5
					L207,18.5z"/>
				<path fill="#5E6A71" d="M213.8,16.4c0,1.6-0.1,1.5,1.5,1.7v0.5h-4.7v-0.5c1.6-0.2,1.5-0.1,1.5-1.7V8.5c0-1.6,0.1-1.5-1.5-1.7
					V6.3h4.7v0.4c-1.6,0.2-1.5,0.1-1.5,1.7V16.4z"/>
				<path fill="#5E6A71" d="M236,15.4c-0.8,1.9-0.7,2.6-3.2,2.6c-1.6,0-2.3-0.1-2.3-1.6v-3.9h1.5c1.2,0,1.6,0.6,1.6,1.6h0.4v-3.7
					h-0.4c0,1.1-0.5,1.5-1.6,1.5h-1.5v-5h2.8c1.3,0,1.6,1,1.8,2.2h0.5V6.3h-8h-3.5v0.4c1.2,0,1.6,0.5,1.2,1.6
					c-1.1,2.7-2.1,5.4-3.3,8c-0.9-2.6-1.9-5.6-2.6-7.7c-0.6-1.7,0.1-2,1.1-2V6.3h-4.4v0.4c0.8,0,1.1,0.5,1.7,2.4
					c1.1,3,2.3,6.3,3.3,9.4h0.9c1.5-3.6,2.9-7.1,4.4-10.7c0.4-0.9,0.6-1,1.1-1c1.6,0.2,1.3,0.1,1.3,1.7v7.8c0,1.6,0.2,1.5-1.3,1.7
					v0.5h8.4l0.5-3.1L236,15.4L236,15.4z"/>
				<path fill="#5E6A71" d="M259.4,16.4c0,1.6-0.1,1.5,1.5,1.7v0.5h-4.7v-0.5c1.6-0.2,1.5-0.1,1.5-1.7V8.5c0-1.6,0.1-1.5-1.5-1.7
					V6.3h4.7v0.4c-1.6,0.2-1.5,0.1-1.5,1.7V16.4z"/>
				<path fill="#5E6A71" d="M277.2,6.3v0.4c1,0,1.6,0.5,1,1.6l-2.4,4.4l-2.1-4.4c-0.4-0.9-0.6-1.6,0.8-1.6V6.3h-2.9h-1.2h-8.1
					L261.7,9h0.4c0.6-1.1,0.9-2.1,2.4-2.1h1.4v9.5c0,1.6,0.1,1.5-1.5,1.7v0.5h4.7v-0.5c-1.6-0.2-1.5-0.1-1.5-1.7V6.9h1.4
					c1.4,0,2.4,0.9,3,1.9l2.5,4.9v2.7c0,1.6,0.1,1.5-1.5,1.7v0.5h4.7v-0.5c-1.6-0.2-1.5-0.1-1.5-1.7v-2c0-0.4,0-0.9,0.2-1.3l2.9-5.3
					c0.5-0.8,0.9-1.1,1.4-1.1V6.3L277.2,6.3L277.2,6.3z"/>
			</g>
			<path fill="#5E6A71" d="M195.8,3.9l-5.5,0v0.5c1.1,0.1,1.9,0.6,2,1.4c0,0.4,0.1,0.8,0.1,1.3v6.5c0,3.8-1.7,5.9-4.9,5.9
				c-3.5,0-4.5-2.5-4.5-5.8V6.8c0-2.2,0.1-2.2,2.2-2.5V3.9h-6.3v0.5c2.1,0.3,2,0.3,2,2.5v7c0,4.2,1.5,6.8,6.5,6.8
				c3,0,6.2-1.9,6.2-6.9V7.1c0,0,0-0.1,0-0.1c0-2,0.8-2.3,2.1-2.5L195.8,3.9z"/>
		</g>
		<g>
			<path fill="#5E6A71" d="M135.3,7.1c-0.2-1.6-1.1-2.9-2.9-2.9c-1.4,0-2.7,0.7-2.7,2.4c0,1.6,1.6,2.6,4,4.4c2.5,1.8,3.3,3,3.3,5
				c0,2.8-2.7,4.3-5.5,4.3c-1.5,0-2.8-0.3-4-0.7c-0.1,0-0.2-0.1-0.2-0.3v-3.4h0.6c0.3,2.6,2,3.6,3.8,3.6c1.7,0,3.2-1.3,3.2-3
				c0-1.5-0.8-2.8-4.3-5.1c-1.3-0.8-2.8-1.8-2.8-4.3c0-2.1,2.2-3.8,4.9-3.8c1,0,2.3,0.1,3.3,0.4c0.1,0,0.2,0.1,0.2,0.3v3.1
				L135.3,7.1L135.3,7.1z"/>
			<path fill="#5E6A71" d="M142.8,16.3c0,1.6-0.1,1.5,1.5,1.7v0.4h-4.7V18c1.6-0.2,1.5-0.1,1.5-1.7V6.9h-1.4c-1.5,0-1.9,1-2.4,2.1
				h-0.4l0.5-2.7h9.3l0.5,2.7h-0.4c-0.6-1.1-0.9-2.1-2.4-2.1h-1.4L142.8,16.3L142.8,16.3z"/>
			<path fill="#5E6A71" d="M148.8,14.4l-0.8,2.3c-0.2,0.7,0.1,1.3,0.9,1.3v0.4h-3.2V18c0.5,0,1-0.3,1.3-0.9
				c0.7-1.5,2.8-7.2,4.2-11.1h1c1.2,3.5,3,8.8,3.5,10.4c0.4,1,0.7,1.5,1.4,1.5v0.4h-4V18c1.1,0,1.2-0.6,0.9-1.3l-0.8-2.2H148.8z
				 M153.1,13.8l-1.8-5.6h0l-2.1,5.6H153.1z"/>
			<path fill="#5E6A71" d="M161.9,16.3c0,1.6-0.1,1.5,1.5,1.7v0.4h-4.7V18c1.6-0.2,1.5-0.1,1.5-1.7V6.9h-1.4c-1.5,0-1.9,1-2.4,2.1
				h-0.4l0.5-2.7h9.3l0.5,2.7h-0.4c-0.6-1.1-0.9-2.1-2.4-2.1h-1.4L161.9,16.3L161.9,16.3z"/>
			<path fill="#5E6A71" d="M167,18c1.6-0.2,1.3-0.1,1.3-1.7V8.5c0-1.6,0.2-1.5-1.3-1.7V6.3h7.6v2.8h-0.5c-0.2-1.3-0.5-2.2-1.8-2.2
				H170v5h1.5c1.1,0,1.6-0.4,1.6-1.5h0.5V14h-0.5c0-1-0.4-1.6-1.6-1.6H170v3.9c0,1.5,0.7,1.6,2.2,1.6c2.5,0,2.4-0.7,3.2-2.6h0.5
				l-0.5,3.1H167L167,18L167,18z"/>
		</g>
		<g>
			<path fill="#5E6A71" d="M43.4,16.3c0,1.6-0.1,1.5,1.5,1.7v0.5h-4.7V18c1.6-0.2,1.5-0.1,1.5-1.7V8.5c0-1.6-0.8-1.5-2.3-1.7V6.3
				h5.5v0.4c-1.6,0.2-1.5,0.1-1.5,1.7v3h6.1v-3c0-1.6,0.1-1.5-1.5-1.7V6.3h4.7v0.4c-1.6,0.2-1.5,0.1-1.5,1.7v7.8
				c0,1.6-0.1,1.5,1.5,1.7v0.5H48V18c1.6-0.2,1.5-0.1,1.5-1.7v-4.1h-6.1L43.4,16.3L43.4,16.3z"/>
			<path fill="#5E6A71" d="M57.8,16.3c0,1.6-0.1,1.5,1.5,1.7v0.5h-4.7V18c1.6-0.2,1.5-0.1,1.5-1.7V8.5c0-1.6,0.1-1.5-1.5-1.7V6.3
				h4.7v0.4c-1.6,0.2-1.5,0.1-1.5,1.7V16.3z"/>
			<path fill="#5E6A71" d="M72.3,18.5c-2.8-3.3-5.6-6.7-8.5-10v7.7c0,0.4,0.1,0.7,0.1,0.9c0.1,0.6,0.7,0.9,1.8,1v0.5h-4.3V18
				c0.8-0.1,1.4-0.3,1.5-1c0-0.3,0.1-0.6,0.1-0.9V8c-0.5-0.6-1-1.2-2-1.2V6.3h3.2c2.6,3.1,5.3,6.3,7.9,9.5h0V8.7
				C72.1,8.3,72,8,72,7.7c-0.1-0.6-0.7-0.9-1.8-1V6.3h4.3v0.4c-0.8,0.1-1.4,0.3-1.5,1c0,0.3-0.1,0.6-0.1,0.9v9.8L72.3,18.5
				L72.3,18.5z"/>
			<path fill="#5E6A71" d="M74.8,12.3c0-2.7,2.3-6.2,6.9-6.2c1.7,0,2.5,0.3,3.3,0.6c0.5,0.2,0.7,0.4,0.7,0.7v2.2h-0.5
				c-0.1-1.4-0.9-2.9-3.7-2.9c-3.6,0-4.8,2.5-4.8,5.5c0,2.7,1.4,5.9,4.9,5.9c2.2,0,2.4-0.8,2.4-2.2v-1.1c0-1.6,0.1-1.5-1.8-1.7v-0.4
				h5v0.4c-1.6,0.2-1.5,0.1-1.5,1.7v3c-1.1,0.4-2.6,0.8-4.2,0.8C78,18.7,74.8,17,74.8,12.3z"/>
			<path fill="#5E6A71" d="M93.2,16.3c0,1.6-0.1,1.5,1.5,1.7v0.5H90V18c1.6-0.2,1.5-0.1,1.5-1.7V6.9h-1.4c-1.5,0-1.9,1-2.4,2.1h-0.4
				l0.5-2.7H97L97.5,9H97c-0.6-1.2-0.9-2.1-2.4-2.1h-1.4V16.3z"/>
			<path fill="#5E6A71" d="M97.5,12.6c0-3.8,2.9-6.5,6.5-6.5c3.8,0,6,3.3,6,5.9c0,3.7-2.7,6.7-6.6,6.7C100.1,18.7,97.5,16,97.5,12.6
				z M108,12.6c0-4.2-2.2-5.8-4.4-5.8c-3,0-4.2,2.6-4.2,5c0,4.2,2.2,6.4,4.4,6.4C107.1,18.1,108,14.9,108,12.6z"/>
			<path fill="#5E6A71" d="M121.2,18.5c-2.8-3.3-5.6-6.7-8.5-10v7.7c0,0.4,0.1,0.7,0.1,0.9c0.1,0.6,0.7,0.9,1.8,1v0.5h-4.3V18
				c0.8-0.1,1.4-0.3,1.5-1c0-0.3,0.1-0.6,0.1-0.9V8c-0.5-0.6-1-1.2-2-1.2V6.3h3.2c2.6,3.1,5.3,6.3,7.9,9.5h0V8.7
				c0-0.4-0.1-0.7-0.1-0.9c-0.1-0.6-0.7-0.9-1.8-1V6.3h4.3v0.4c-0.8,0.1-1.4,0.3-1.5,1c0,0.3-0.1,0.6-0.1,0.9v9.8L121.2,18.5
				L121.2,18.5z"/>
			<path fill="#5E6A71" d="M23.9,4L23.9,4l-4.7,0v0.6c1.8,0,2.1,0.7,1.6,2l-3.6,9.7h-0.2L12.9,4.2h-1.1L7.4,16.3H7.1L4,6.7
				C3.5,5.2,4.2,4.6,5.6,4.6V4H0v0.6c1.2,0,1.4,0.9,2.2,3.1l4,12h1.1l4.3-12.2l4.3,12.2h1.2c1.8-4.9,4.4-12,5.3-14
				c0.4-0.7,1-1.1,1.6-1.1L23.9,4L23.9,4z"/>
			<path fill="#5E6A71" d="M36.4,12c-1.8-1.4-3.1-2.1-3.1-3.4c0-1.4,1-1.9,2-1.9c1.5,0,2.2,1,2.3,2.3h0.5V6.6c0-0.1,0-0.2-0.1-0.2
				C37.2,6.1,36.2,6,35.4,6c-2.1,0-3.9,1.3-3.9,2.9c0,0.9,0.2,1.5,0.6,2h0c0,0,0,0,0,0c0.4,0.6,1.1,1,1.6,1.3c2.7,1.8,3.4,2.8,3.4,4
				c0,1.1-0.8,2.2-2.4,2.3c-1.6,0.1-3.6-0.6-4.4-2.8C29.5,13.7,28,9.2,27,6.2h-1c-1.4,3.8-3.4,9.5-4.1,11C21.5,17.7,21,18,20.6,18
				v0.5h0.8h2.4V18c-0.8,0-1.1-0.6-0.9-1.3l0.8-2.3h4.4l0.7,2.2l0.6,1.7c0,0,3.1,0.8,5.1,0.8c2.2,0,4.4-1.2,4.4-3.4
				C39,14.3,38.3,13.4,36.4,12z M23.9,13.8L26,8.2h0l1.8,5.6H23.9z"/>
		</g>
	</g>
</g>
<path fill="#5E6A71" d="M319,12.2h1.7c1.1,0,1.6-0.4,1.6-1.5h0.5v3.7h-0.5c-0.1-1-0.4-1.7-1.6-1.7H319v3.6c0,1.6-0.1,1.5,1.5,1.7
	v0.5h-4.7v-0.5c1.6-0.2,1.5-0.1,1.5-1.7V8.5c0-1.6,0.1-1.5-1.5-1.7V6.3h7.8v2.8h-0.5c-0.2-1.3-0.5-2.2-1.8-2.2H319V12.2z"/>
<path fill="#5E6A71" d="M325.5,12.7c0-3.8,2.9-6.5,6.5-6.5c3.8,0,6,3.3,6,5.9c0,3.7-2.7,6.7-6.6,6.7C328.1,18.7,325.5,16,325.5,12.7
	z M336,12.6c0-4.2-2.2-5.8-4.4-5.8c-3,0-4.2,2.6-4.2,5c0,4.2,2.2,6.4,4.4,6.4C335.1,18.1,336,14.9,336,12.6z"/>
<path fill="#5E6A71" d="M342,13.6c0,2.4,0.7,4.3,3.3,4.3c2.4,0,3.6-1.6,3.6-4.4V8.7c0-0.4-0.1-0.7-0.1-0.9c-0.1-0.6-0.7-0.9-1.5-1
	V6.3h4.1v0.5c-0.8,0.1-1.4,0.3-1.5,1c0,0.3-0.1,0.6-0.1,0.9v4.9c0,3.7-2.4,5.1-4.6,5.1c-3.7,0-4.9-1.9-4.9-5V8.5
	c0-1.6,0.1-1.5-1.5-1.7V6.3h4.7v0.5C341.9,7,342,6.9,342,8.5V13.6z"/>
<path fill="#5E6A71" d="M363.7,18.5c-2.8-3.3-5.6-6.7-8.5-10v7.7c0,0.4,0.1,0.7,0.1,0.9c0.1,0.6,0.7,0.9,1.8,1v0.5h-4.3v-0.5
	c0.8-0.1,1.4-0.3,1.5-1c0-0.3,0.1-0.6,0.1-0.9V8c-0.5-0.6-1-1.2-2-1.2V6.3h3.2c2.6,3.1,5.3,6.3,7.9,9.5h0V8.7c0-0.4-0.1-0.7-0.1-0.9
	c-0.1-0.6-0.7-0.9-1.8-1V6.3h4.3v0.5c-0.8,0.1-1.4,0.3-1.5,1c0,0.3-0.1,0.6-0.1,0.9v9.8H363.7z"/>
<path fill="#5E6A71" d="M367.3,6.3h5.8c4.2,0,6.4,2.2,6.4,5.7c0,3.5-2.6,6.4-6.9,6.4h-5.3v-0.5c1.6-0.2,1.5-0.1,1.5-1.7V8.5
	c0-1.6,0.1-1.5-1.5-1.7V6.3z M370.5,16.1c0,1.9,0.4,1.9,2.1,1.9c2.7,0,4.9-1.5,4.9-5.8c0-3.3-1.8-5.2-5.1-5.2h-1.9V16.1z"/>
<path fill="#5E6A71" d="M382.1,14.5l-0.8,2.3c-0.2,0.7,0.1,1.3,0.9,1.3v0.5H379v-0.5c0.5,0,1-0.3,1.3-0.9c0.7-1.5,2.8-7.2,4.2-11.1
	h1c1.2,3.5,3,8.9,3.5,10.4c0.4,1,0.7,1.5,1.4,1.5v0.5h-4.1v-0.5c1.1,0,1.2-0.6,0.9-1.3l-0.7-2.2H382.1z M386.3,13.8l-1.8-5.7h0
	l-2.1,5.7H386.3z"/>
<path fill="#5E6A71" d="M395.6,16.4c0,1.6-0.1,1.5,1.5,1.7v0.5h-4.7v-0.5c1.6-0.2,1.5-0.1,1.5-1.7V6.9h-1.6c-1.5,0-1.9,1-2.4,2.1
	h-0.4l0.5-2.7h9.6L400,9h-0.4c-0.6-1.1-0.9-2.1-2.4-2.1h-1.6V16.4z"/>
<path fill="#5E6A71" d="M404.4,16.4c0,1.6-0.1,1.5,1.5,1.7v0.5h-4.7v-0.5c1.6-0.2,1.5-0.1,1.5-1.7V8.5c0-1.6,0.1-1.5-1.5-1.7V6.3
	h4.7v0.5c-1.6,0.2-1.5,0.1-1.5,1.7V16.4z"/>
<path fill="#5E6A71" d="M406.9,12.7c0-3.8,2.9-6.5,6.5-6.5c3.8,0,6,3.3,6,5.9c0,3.7-2.7,6.7-6.6,6.7C409.5,18.7,406.9,16,406.9,12.7
	z M417.4,12.6c0-4.2-2.2-5.8-4.4-5.8c-3,0-4.2,2.6-4.2,5c0,4.2,2.2,6.4,4.4,6.4C416.5,18.1,417.4,14.9,417.4,12.6z"/>
<path fill="#5E6A71" d="M431.1,18.5c-2.8-3.3-5.6-6.7-8.5-10v7.7c0,0.4,0.1,0.7,0.1,0.9c0.1,0.6,0.7,0.9,1.8,1v0.5h-4.3v-0.5
	c0.8-0.1,1.4-0.3,1.5-1c0-0.3,0.1-0.6,0.1-0.9V8c-0.5-0.6-1-1.2-2-1.2V6.3h3.2c2.6,3.1,5.3,6.3,7.9,9.5h0V8.7c0-0.4-0.1-0.7-0.1-0.9
	c-0.1-0.6-0.7-0.9-1.8-1V6.3h4.3v0.5c-0.8,0.1-1.4,0.3-1.5,1c0,0.3-0.1,0.6-0.1,0.9v9.8H431.1z"/>
</svg>
