<?xml version="1.0" encoding="utf-8"?>
<!-- Generator: Adobe Illustrator 17.0.0, SVG Export Plug-In . SVG Version: 6.00 Build 0)  -->
<!DOCTYPE svg PUBLIC "-//W3C//DTD SVG 1.1//EN" "http://www.w3.org/Graphics/SVG/1.1/DTD/svg11.dtd">
<svg version="1.1" id="Layer_1" xmlns="http://www.w3.org/2000/svg" xmlns:xlink="http://www.w3.org/1999/xlink" x="0px" y="0px"
	 width="149.617px" height="109.935px" viewBox="0 0 149.617 109.935" enable-background="new 0 0 149.617 109.935"
	 xml:space="preserve">
<g>
	<g>
		<path fill="#B5BABE" d="M29.238,102.774h-2.766v2.521h2.71v0.781h-2.71v2.944h3.246v0.781H25.39v-7.808h3.848
			C29.238,101.993,29.238,102.774,29.238,102.774z"/>
		<path fill="#B5BABE" d="M41.064,109.913l-2.309-3.636l-2.097,3.636l-0.992-0.201l2.543-4.161l-2.32-3.423l1.149-0.246l1.818,2.834
			l1.662-2.834l1.003,0.134l-2.142,3.424l2.855,4.25L41.064,109.913z"/>
		<path fill="#B5BABE" d="M50.458,109.801v-7.027H47.96v-0.781h6.09v0.781h-2.509v7.027H50.458z"/>
		<path fill="#B5BABE" d="M64.248,102.774h-2.767v2.521h2.711v0.781h-2.711v2.944h3.246v0.781h-4.328v-7.808h3.848L64.248,102.774
			L64.248,102.774z"/>
		<path fill="#B5BABE" d="M78.137,109.801h-0.848c-1.695-2.03-4.606-5.532-5.075-6.213h-0.022v6.213H71.3v-7.808h0.803
			c1.717,2.03,4.595,5.443,5.119,6.224h0.022v-6.224h0.893C78.137,101.993,78.137,109.801,78.137,109.801z"/>
		<path fill="#B5BABE" d="M89.025,103.198c-0.379-0.279-0.881-0.558-1.35-0.558c-0.781,0-1.215,0.458-1.215,1.06
			c0,0.558,0.479,0.97,1.483,1.695c1.07,0.781,1.694,1.495,1.694,2.499c0,1.237-1.171,2.041-2.42,2.041
			c-0.748,0-1.64-0.269-2.198-0.815l0.48-0.646c0.458,0.323,0.96,0.681,1.695,0.681c0.77,0,1.361-0.413,1.361-1.283
			c0-0.981-1.171-1.617-1.808-2.085c-0.646-0.502-1.372-0.981-1.372-2.086c0-1.048,1.016-1.84,2.231-1.84
			c0.814,0,1.494,0.289,1.93,0.78L89.025,103.198z"/>
		<path fill="#B5BABE" d="M96.524,109.801v-7.808h1.08v7.808H96.524z"/>
		<path fill="#B5BABE" d="M104.434,105.764c0-2.187,1.65-3.904,3.904-3.904c2.252,0,3.903,1.717,3.903,3.904
			c0,2.331-1.494,4.171-3.903,4.171S104.434,108.095,104.434,105.764z M111.049,105.764c0-1.462-0.781-3.124-2.711-3.124
			s-2.711,1.662-2.711,3.124c0,1.528,0.692,3.391,2.711,3.391S111.049,107.292,111.049,105.764z"/>
		<path fill="#B5BABE" d="M125.907,109.801h-0.847c-1.696-2.03-4.606-5.532-5.074-6.213h-0.023v6.213h-0.893v-7.808h0.804
			c1.718,2.03,4.596,5.443,5.119,6.224h0.021v-6.224h0.893C125.907,101.993,125.907,109.801,125.907,109.801z"/>
	</g>
	<g>
		<g>
			<path fill="#B5BABE" d="M95.618,83.021c-1.569-1.177-2.668-1.835-2.668-2.934c0-1.16,0.816-1.634,1.728-1.634
				c1.254,0,1.85,0.88,1.976,1.979h0.408v-2.055c0-0.078-0.017-0.143-0.11-0.172c-0.628-0.22-1.521-0.296-2.196-0.296
				c-1.805,0-3.371,1.112-3.371,2.524c0,0.764,0.211,1.311,0.518,1.729h-0.006c0.008,0.007,0.015,0.012,0.02,0.018
				c0.382,0.507,0.903,0.83,1.365,1.138c2.354,1.555,2.883,2.386,2.902,3.404c0.043,2.265-4.196,3.455-6.988-0.896l-1.449-2.205
				c1.141-0.443,2.071-1.494,2.071-3.019c0-1.734-1.496-2.514-2.988-2.514h-4.31v0.383c1.332,0.159,1.272,0.089,1.272,1.462v6.661
				c0,1.38,0.06,1.304-1.272,1.466v0.385h3.983V88.06c-1.334-0.162-1.276-0.085-1.276-1.466v-2.737h1.395
				c1.788,2.976,2.233,4.267,3.134,4.588c0.203,0.071,2.524,0.817,4.165,0.817c1.883,0,3.893-1.035,3.893-2.9
				C97.812,85.061,97.279,84.259,95.618,83.021z M86.459,83.542h-1.232v-4.825h1.14c1.079,0,1.972,0.561,1.972,2.177
				C88.338,82.566,87.745,83.542,86.459,83.542z"/>
			<path fill="#B5BABE" d="M56.68,88.431c0,0,0,0-7.243-8.582v6.574c0,0.312,0.061,0.565,0.087,0.802
				c0.077,0.537,0.584,0.745,1.564,0.819v0.387h-3.644v-0.387c0.717-0.075,1.205-0.282,1.279-0.819c0.03-0.237,0.09-0.49,0.09-0.802
				v-7.004c-0.415-0.535-0.88-1.011-1.724-1.011v-0.391h2.704c2.217,2.695,4.524,5.43,6.739,8.124h0.03v-6.115
				c0-0.312-0.061-0.563-0.091-0.802c-0.076-0.535-0.577-0.741-1.56-0.816v-0.391h3.643v0.391c-0.698,0.075-1.205,0.281-1.281,0.816
				c-0.029,0.239-0.087,0.49-0.087,0.802v8.406L56.68,88.431L56.68,88.431z"/>
			<path fill="#B5BABE" d="M62.524,86.571c0,1.386-0.059,1.309,1.278,1.473v0.387h-4v-0.387c1.34-0.164,1.279-0.087,1.279-1.473
				v-6.692c0-1.38,0.061-1.311-1.279-1.471v-0.385h4v0.385c-1.337,0.16-1.278,0.091-1.278,1.471V86.571z"/>
			<path fill="#B5BABE" d="M81.447,85.751c-0.684,1.593-0.58,2.205-2.735,2.205c-1.339,0-1.921-0.106-1.921-1.372v-3.361h1.252
				c0.995,0,1.339,0.525,1.366,1.401h0.386v-3.17h-0.386c-0.027,0.922-0.431,1.295-1.366,1.295h-1.252v-4.251h2.362
				c1.068,0,1.368,0.815,1.515,1.916h0.386v-2.392h-6.85h-2.946v0.385c1.009,0,1.397,0.458,1.025,1.398
				c-0.922,2.275-1.83,4.564-2.783,6.84c-0.772-2.259-1.634-4.816-2.211-6.572c-0.494-1.431,0.103-1.667,0.922-1.667v-0.385h-3.783
				v0.385c0.717,0,0.908,0.458,1.461,2.052c0.906,2.528,1.919,5.397,2.826,7.972h0.757c1.251-3.049,2.515-6.084,3.763-9.131
				c0.313-0.744,0.535-0.893,0.969-0.893c1.337,0.16,1.146,0.091,1.146,1.471v6.692c0,1.386,0.191,1.309-1.146,1.473v0.387h7.184
				l0.446-2.679L81.447,85.751L81.447,85.751z"/>
			<path fill="#B5BABE" d="M101.374,86.571c0,1.386-0.063,1.309,1.277,1.473v0.387h-4.002v-0.387
				c1.34-0.164,1.281-0.087,1.281-1.473v-6.692c0-1.38,0.059-1.311-1.281-1.471v-0.385h4.002v0.385
				c-1.341,0.16-1.277,0.091-1.277,1.471V86.571z"/>
			<path fill="#B5BABE" d="M116.583,78.022v0.385c0.877,0,1.353,0.429,0.846,1.337l-2.05,3.736l-1.801-3.736
				c-0.373-0.774-0.475-1.337,0.653-1.337v-0.385h-2.492h-1.032h-6.926l-0.403,2.271h0.373c0.488-0.98,0.787-1.795,2.08-1.795h1.208
				v8.073c0,1.386,0.058,1.309-1.281,1.473v0.387h4.001v-0.387c-1.337-0.164-1.279-0.087-1.279-1.473v-8.073h1.206
				c1.218,0,2.039,0.727,2.541,1.631l2.094,4.154v2.287c0,1.386,0.062,1.309-1.277,1.473v0.387h3.999v-0.387
				c-1.336-0.164-1.278-0.087-1.278-1.473v-1.667c0-0.37,0.03-0.788,0.18-1.084l2.482-4.506c0.402-0.714,0.804-0.906,1.22-0.906
				v-0.385H116.583z"/>
			<path fill="#B5BABE" d="M47.106,78.013l-4.687,0.012v0.389c0.938,0.101,1.62,0.514,1.718,1.236
				c0.04,0.317,0.123,0.657,0.123,1.077v5.559c0,3.204-1.444,5.041-4.182,5.041c-2.981,0-3.876-2.139-3.876-4.942v-5.859
				c0-1.86,0.055-1.893,1.855-2.113v-0.389h-5.383v0.389c1.803,0.22,1.723,0.253,1.723,2.113v5.96c0,3.621,1.319,5.784,5.578,5.784
				c2.581,0,5.325-1.601,5.325-5.902v-5.641c0-0.035,0-0.068,0-0.1c-0.019-1.736,0.656-1.989,1.793-2.174L47.106,78.013z"/>
		</g>
		<g>
			<path fill="#B5BABE" d="M37.04,70.56c0,1.379-0.059,1.304,1.272,1.466v0.385h-3.983v-0.385c1.333-0.162,1.273-0.087,1.273-1.466
				v-6.666c0-1.374-0.641-1.301-1.974-1.463v-0.383h4.683v0.383c-1.332,0.162-1.272,0.089-1.272,1.463v2.566h5.197v-2.566
				c0-1.374,0.059-1.301-1.274-1.463v-0.383h3.983v0.383c-1.332,0.162-1.274,0.089-1.274,1.463v6.666
				c0,1.379-0.058,1.304,1.274,1.466v0.385h-3.983v-0.385c1.333-0.162,1.274-0.087,1.274-1.466v-3.497H37.04V70.56z"/>
			<path fill="#B5BABE" d="M49.288,70.56c0,1.379-0.061,1.304,1.272,1.466v0.385h-3.982v-0.385c1.332-0.162,1.272-0.087,1.272-1.466
				v-6.666c0-1.374,0.059-1.301-1.272-1.463v-0.383h3.982v0.383c-1.333,0.162-1.272,0.089-1.272,1.463V70.56z"/>
			<path fill="#B5BABE" d="M61.599,72.411c-2.355-2.784-4.799-5.702-7.21-8.545v6.547c0,0.309,0.058,0.561,0.09,0.798
				c0.073,0.535,0.575,0.739,1.552,0.814v0.385h-3.627v-0.385c0.71-0.075,1.199-0.279,1.274-0.814
				c0.029-0.237,0.089-0.49,0.089-0.798v-6.977c-0.417-0.532-0.874-1.006-1.719-1.006v-0.383h2.695
				c2.207,2.678,4.501,5.402,6.708,8.082h0.029v-6.084c0-0.312-0.059-0.564-0.089-0.802c-0.073-0.533-0.578-0.737-1.555-0.812
				v-0.383h3.629v0.383c-0.696,0.075-1.199,0.279-1.275,0.812c-0.028,0.237-0.088,0.49-0.088,0.802v8.366
				C62.102,72.411,61.599,72.411,61.599,72.411z"/>
			<path fill="#B5BABE" d="M63.781,67.169c0-2.28,1.926-5.305,5.923-5.305c1.435,0,2.116,0.269,2.843,0.507
				c0.414,0.134,0.577,0.338,0.577,0.577v1.91H72.74c-0.044-1.185-0.8-2.473-3.154-2.473c-3.095,0-4.103,2.132-4.116,4.663
				c-0.016,2.339,1.168,5.022,4.175,5.022c1.851,0,2.013-0.684,2.013-1.837V69.33c0-1.379,0.058-1.302-1.57-1.466v-0.383h4.28v0.383
				c-1.332,0.164-1.272,0.087-1.272,1.466v2.578c-0.948,0.37-2.192,0.68-3.54,0.68C66.521,72.588,63.781,71.138,63.781,67.169z"/>
			<path fill="#B5BABE" d="M79.449,70.56c0,1.379-0.059,1.304,1.272,1.466v0.385h-3.982v-0.385c1.331-0.162,1.272-0.087,1.272-1.466
				v-8.04H76.81c-1.288,0-1.583,0.811-2.072,1.791h-0.37l0.401-2.263h7.922l0.399,2.263h-0.369
				c-0.488-0.979-0.784-1.791-2.073-1.791h-1.199C79.449,62.52,79.449,70.56,79.449,70.56z"/>
			<path fill="#B5BABE" d="M83.091,67.42c0-3.201,2.488-5.556,5.568-5.556c3.212,0,5.077,2.771,5.077,5.054
				c0,3.125-2.339,5.67-5.612,5.67C85.296,72.588,83.091,70.294,83.091,67.42z M92.048,67.361c0-3.539-1.909-4.975-3.717-4.975
				c-2.516,0-3.551,2.25-3.551,4.264c0,3.584,1.834,5.421,3.744,5.421C91.279,72.071,92.048,69.346,92.048,67.361z"/>
			<path fill="#B5BABE" d="M103.289,72.411c-2.356-2.784-4.797-5.702-7.213-8.545v6.547c0,0.309,0.06,0.561,0.091,0.798
				c0.073,0.535,0.577,0.739,1.553,0.814v0.385h-3.627v-0.385c0.711-0.075,1.199-0.279,1.273-0.814c0.03-0.237,0.09-0.49,0.09-0.798
				v-6.977c-0.415-0.532-0.874-1.006-1.72-1.006v-0.383h2.697c2.207,2.678,4.499,5.402,6.708,8.082h0.027v-6.084
				c0-0.312-0.059-0.564-0.089-0.802c-0.073-0.533-0.575-0.737-1.555-0.812v-0.383h3.628v0.383
				c-0.696,0.075-1.198,0.279-1.272,0.812c-0.03,0.237-0.089,0.49-0.089,0.802v8.366C103.791,72.411,103.289,72.411,103.289,72.411z
				"/>
			<path fill="#B5BABE" d="M20.379,60.063v-0.016h-4.005v0.495c1.546,0.018,1.798,0.57,1.392,1.738l-3.031,8.254h-0.167
				l-3.57-10.318h-0.904l-3.75,10.318H6.088L3.4,62.337c-0.382-1.299,0.152-1.794,1.354-1.794v-0.495H0v0.495
				c1.01,0,1.192,0.786,1.84,2.651l3.451,10.201H6.2L9.892,62.99l3.639,10.414h1.017c1.556-4.142,3.749-10.268,4.554-11.918
				c0.3-0.619,0.843-0.936,1.349-0.936v-0.486L20.379,60.063L20.379,60.063z"/>
			<path fill="#B5BABE" d="M31.03,66.848c-1.559-1.17-2.649-1.823-2.649-2.915c0-1.152,0.81-1.621,1.714-1.621
				c1.247,0,1.837,0.873,1.963,1.964h0.404v-2.042c0-0.078-0.016-0.139-0.109-0.17c-0.623-0.218-1.511-0.298-2.182-0.298
				c-1.791,0-3.349,1.107-3.349,2.51c0,0.76,0.209,1.3,0.516,1.717h-0.005c0.006,0.007,0.012,0.012,0.019,0.017
				c0.376,0.504,0.895,0.825,1.354,1.133c2.338,1.541,2.883,2.367,2.883,3.38c0,0.941-0.708,1.886-2.01,1.979
				c-1.333,0.096-3.049-0.549-3.77-2.419c-0.641-1.795-1.945-5.569-2.825-8.174h-0.858c-1.23,3.274-2.895,8.073-3.533,9.375
				c-0.235,0.488-0.664,0.741-1.065,0.741v0.385h0.64h2.054v-0.385c-0.651,0-0.932-0.49-0.74-1.067l0.682-1.985h3.776l0.636,1.911
				l0.491,1.473c0,0,2.648,0.692,4.371,0.692c1.87,0,3.771-1.029,3.771-2.882C33.211,68.872,32.681,68.079,31.03,66.848z
				 M20.389,68.412l1.762-4.813h0.029l1.571,4.813H20.389z"/>
		</g>
		<g>
			<path fill="#B5BABE" d="M115.391,62.736c-0.158-1.398-0.917-2.514-2.509-2.514c-1.157,0-2.325,0.598-2.325,2.073
				c0,1.395,1.395,2.229,3.389,3.725c2.109,1.574,2.789,2.59,2.789,4.245c0,2.369-2.299,3.685-4.688,3.685
				c-1.277,0-2.374-0.24-3.409-0.638c-0.078-0.04-0.14-0.121-0.14-0.275v-2.873h0.518c0.222,2.21,1.672,3.089,3.21,3.089
				c1.413,0,2.7-1.077,2.7-2.531c0-1.295-0.697-2.352-3.686-4.32c-1.075-0.718-2.409-1.498-2.409-3.666
				c0-1.799,1.856-3.211,4.148-3.211c0.858,0,1.993,0.1,2.79,0.38c0.12,0.037,0.139,0.121,0.139,0.22v2.611
				C115.908,62.736,115.391,62.736,115.391,62.736z"/>
			<path fill="#B5BABE" d="M121.762,70.57c0,1.38-0.057,1.3,1.276,1.47v0.381h-3.986V72.04c1.333-0.169,1.275-0.089,1.275-1.47
				v-8.045h-1.202c-1.288,0-1.585,0.816-2.073,1.792h-0.367l0.397-2.264h7.924l0.401,2.264h-0.371
				c-0.488-0.976-0.785-1.792-2.071-1.792h-1.203C121.762,62.525,121.762,70.57,121.762,70.57z"/>
			<path fill="#B5BABE" d="M126.933,68.983l-0.678,1.987c-0.194,0.579,0.087,1.069,0.738,1.069v0.381h-2.696v-0.38
				c0.399,0,0.83-0.256,1.066-0.743c0.637-1.306,2.369-6.146,3.6-9.422h0.828c1.008,2.977,2.518,7.542,3.021,8.859
				c0.329,0.826,0.564,1.306,1.201,1.306v0.381h-3.452V72.04c0.933,0,1.025-0.49,0.788-1.144l-0.64-1.913H126.933z M130.521,68.422
				l-1.571-4.815h-0.029l-1.765,4.815H130.521z"/>
			<path fill="#B5BABE" d="M138.06,70.57c0,1.38-0.06,1.3,1.272,1.47v0.381h-3.985V72.04c1.334-0.169,1.276-0.089,1.276-1.47v-8.045
				h-1.201c-1.29,0-1.583,0.816-2.074,1.792h-0.371l0.402-2.264h7.925l0.397,2.264h-0.372c-0.484-0.976-0.78-1.792-2.068-1.792
				h-1.201V70.57z"/>
			<path fill="#B5BABE" d="M142.401,72.04c1.336-0.169,1.144-0.089,1.144-1.47v-6.667c0-1.377,0.192-1.304-1.144-1.466v-0.383h6.488
				v2.381h-0.387c-0.148-1.093-0.441-1.909-1.508-1.909h-2.019v4.241h1.244c0.933,0,1.336-0.371,1.361-1.29h0.388v3.152h-0.388
				c-0.025-0.877-0.367-1.393-1.361-1.393h-1.244v3.347c0,1.262,0.58,1.368,1.914,1.368c2.147,0,2.043-0.61,2.727-2.194H150
				l-0.446,2.665h-7.152V72.04H142.401z"/>
		</g>
	</g>
</g>
<path fill="#464E54" d="M83.051,44.1l-7.586,5.414l-7.58-5.414c-5.39-3.694-10.009-6.861-12.429-11.673
	c2,9.019,10.794,12.391,20.009,19.622c9.216-7.231,18.016-10.603,20.015-19.622C93.059,37.238,88.439,40.406,83.051,44.1z"/>
<g>
	<path fill="#981E32" d="M54.409,0v0.945c0.585,0.203,0.778,0.389,0.841,1.247V23.99c0,12.125,9.84,15.328,20.222,23.474
		C85.855,39.318,95.7,36.115,95.7,23.99V1.949c0.077-0.662,0.288-0.822,0.814-1.004V0H54.409z"/>
</g>
<g>
	<g>
		<g>
			<path fill="#FFFFFF" d="M79.566,35.484c0,0,1.684-0.718,2.603-3.507c0.812,1.7,0.598,3.449,0.598,3.449
				C82.024,35.593,79.566,35.484,79.566,35.484z"/>
			<path fill="#FFFFFF" d="M88.602,19.54c0,0,1.023,5.601-2.606,5.793c-3.504,0.184-5.16-5.103-5.16-5.103s0.848,10.332,5.76,9.652
				C92.131,29.116,88.602,19.54,88.602,19.54z"/>
		</g>
	</g>
	<path fill="#FFFFFF" d="M61.914,34.152c0.002,0,0.005,0,0.007,0c4.098-0.935,7.233-5.731,8.155-7.655l0.583-1.22l0.354,1.306
		c0.018,0.073,0.401,1.51,0.401,3.412c0,0.208-0.006,0.426-0.017,0.645c1.413,0.053,2.42-0.233,3.05-0.885
		c0.898-0.938,1.17-2.704,0.833-5.407c-0.165-1.294-0.642-3.353-1.062-5.168c-0.217-0.927-0.42-1.805-0.542-2.426
		c-0.79-3.971,0.189-6.436,1.15-7.802c0.152-0.217,0.315-0.422,0.488-0.617c-2.831,0.958-5.208,2.447-7.662,4.902l1.724,2.008
		l0.706-0.66c0.664,2.49,0.188,4.786,0.188,4.786c-0.908-1.387-1.98-2.51-1.98-2.51l0.472-0.792l-1.555-1.811l-0.181-0.201
		c-1.911,2.633-2.531,4.791-2.531,4.791l1.358,1.238l0.791,0.719l0.263-0.763c1.459,2.737,0.129,5.297,0.129,5.297
		c-0.243-0.935-1.2-2.312-1.2-2.312l0.378-1.255l-2.017-1.833c-2.1,6.576-4.908,8.71-4.908,8.71s3.039-0.549,4.727-1.118
		C64.014,27.528,63.967,30.994,61.914,34.152z"/>
	<path fill="#FFFFFF" d="M92.539,10.43l-4.846,0.206c0.005,0.573-0.073,1.15-0.26,1.698c0.453,1.985,0.143,3.063,0.143,3.063
		c-0.813-1.893-1.435-2.416-1.435-2.416c-4.448-1.986-6.948,2.5-6.682,5.393c0.22,2.376,1.077,5.531,1.75,10.48
		c0.566,4.165-1.537,5.962-3.959,6.377c-0.052,0.009-0.103,0.019-0.156,0.027c-0.013,0-0.024,0.005-0.037,0.005
		c-0.391,0.05-0.811,0.07-1.251,0.056c-0.016,0-0.032,0-0.044,0c-0.049,0-0.098-0.005-0.145-0.005
		c-0.188-0.012-0.377-0.03-0.562-0.056c-1.88-0.258-6.095-1.027-10.447-1.132c2.56-1.5,4.562-4.093,5.678-5.935
		c0.067,0.511,0.122,1.131,0.122,1.816c0,0.343-0.015,0.699-0.048,1.067l-0.042,0.5l0.5,0.045c2.003,0.173,3.427-0.208,4.348-1.169
		c1.142-1.187,1.49-3.167,1.107-6.23c-0.169-1.347-0.652-3.43-1.078-5.27c-0.216-0.921-0.42-1.79-0.537-2.397
		c-0.72-3.621,0.137-5.819,0.984-7.025c0.667-0.947,1.584-1.637,2.59-1.972c0.018-0.001,0.033-0.006,0.053-0.006l1.65-5.096h0.52
		L79.349,7.35c0.258-0.049,0.52-0.089,0.786-0.128l1.424-4.513h0.517l-0.935,4.372c1.479-0.192,3.08-0.34,4.858-0.473
		c0.289,0.12,0.596,0.452,0.873,0.915l4.667-1.44l0.169,0.503l-4.456,1.74c0.035,0.091,0.068,0.188,0.103,0.283l4.873-0.606
		l0.082,0.525l-4.733,0.946c0.018,0.089,0.031,0.177,0.044,0.266l4.926,0.158L92.539,10.43z M78.499,12.614
		c0.977-0.686,2.64-1.216,4.198-1.097c0.397,0.033,0.73-0.071,0.303-0.301c-1.168-0.616-3.885-0.407-4.848,0.253
		c-1.542,1.055-1.281,2.931-1.244,2.977C77.215,13.907,77.737,13.151,78.499,12.614z"/>
</g>
</svg>
