<?xml version="1.0" encoding="utf-8"?>
<!-- Generator: Adobe Illustrator 17.0.0, SVG Export Plug-In . SVG Version: 6.00 Build 0)  -->
<!DOCTYPE svg PUBLIC "-//W3C//DTD SVG 1.1//EN" "http://www.w3.org/Graphics/SVG/1.1/DTD/svg11.dtd">
<svg version="1.1" id="Layer_1" xmlns="http://www.w3.org/2000/svg" xmlns:xlink="http://www.w3.org/1999/xlink" x="0px" y="0px"
	 width="397.755px" height="30px" viewBox="0 0 397.755 30" enable-background="new 0 0 397.755 30" xml:space="preserve">
<path fill="#5E6A71" d="M302.104,25.417l-4.381,3.12l-4.385-3.12c-3.112-2.13-5.778-3.953-7.177-6.73
	c1.152,5.198,6.233,7.147,11.562,11.312c5.322-4.165,10.407-6.114,11.561-11.312C307.884,21.464,305.215,23.288,302.104,25.417z"/>
<path fill="#981E32" d="M285.554,0v0.545c0.341,0.119,0.448,0.226,0.487,0.718v12.564c0,6.985,5.685,8.833,11.682,13.529
	c6.001-4.695,11.688-6.544,11.688-13.529V1.12c0.042-0.374,0.165-0.472,0.469-0.575V0H285.554z"/>
<g>
	<path fill="#FFFFFF" d="M300.089,20.454c0,0,0.974-0.415,1.504-2.023c0.469,0.979,0.347,1.987,0.347,1.987
		C301.508,20.517,300.089,20.454,300.089,20.454z"/>
	<path fill="#FFFFFF" d="M305.308,11.258c0,0,0.592,3.233-1.507,3.342c-2.022,0.111-2.976-2.942-2.976-2.942
		s0.488,5.956,3.324,5.564C307.349,16.782,305.308,11.258,305.308,11.258z"/>
</g>
<path fill="#FFFFFF" d="M289.89,19.684h0.007c2.367-0.539,4.177-3.302,4.709-4.412l0.339-0.703l0.204,0.754
	c0.011,0.037,0.231,0.869,0.231,1.966c0,0.119-0.005,0.241-0.012,0.369c0.816,0.03,1.4-0.132,1.761-0.513
	c0.521-0.538,0.678-1.559,0.483-3.113c-0.094-0.748-0.369-1.934-0.614-2.978c-0.124-0.539-0.24-1.041-0.313-1.398
	c-0.457-2.29,0.11-3.715,0.667-4.499c0.087-0.126,0.183-0.241,0.281-0.356c-1.638,0.552-3.01,1.412-4.431,2.829l1.002,1.156
	l0.404-0.383c0.387,1.437,0.109,2.761,0.109,2.761c-0.525-0.802-1.145-1.449-1.145-1.449l0.274-0.455l-0.9-1.044l-0.105-0.115
	c-1.104,1.516-1.463,2.761-1.463,2.761l0.786,0.712l0.458,0.417l0.153-0.44c0.84,1.579,0.07,3.053,0.07,3.053
	c-0.137-0.54-0.694-1.336-0.694-1.336l0.222-0.72l-1.166-1.058c-1.214,3.793-2.835,5.018-2.835,5.018s1.755-0.315,2.733-0.645
	C291.106,15.864,291.079,17.861,289.89,19.684z"/>
<path fill="#FFFFFF" d="M307.586,6.011l-2.803,0.119c0.002,0.333-0.039,0.667-0.146,0.979c0.26,1.144,0.079,1.764,0.079,1.764
	c-0.468-1.086-0.826-1.392-0.826-1.392c-2.571-1.142-4.015,1.445-3.861,3.107c0.126,1.373,0.622,3.194,1.01,6.042
	c0.327,2.402-0.886,3.438-2.287,3.678c-0.028,0.005-0.06,0.011-0.09,0.017c-0.011,0-0.013,0.001-0.021,0.001
	c-0.227,0.029-0.47,0.042-0.723,0.031c-0.009,0-0.017,0-0.029,0c-0.023,0-0.053-0.002-0.082-0.002
	c-0.109-0.009-0.217-0.02-0.323-0.03c-1.084-0.152-3.521-0.596-6.036-0.655c1.479-0.863,2.638-2.361,3.284-3.418
	c0.033,0.29,0.067,0.648,0.067,1.045c0,0.198-0.007,0.402-0.025,0.615l-0.025,0.288l0.29,0.021c1.157,0.104,1.979-0.117,2.513-0.67
	c0.655-0.683,0.86-1.822,0.639-3.59c-0.098-0.775-0.377-1.976-0.625-3.038c-0.124-0.529-0.238-1.03-0.312-1.38
	c-0.412-2.087,0.082-3.356,0.571-4.052c0.386-0.545,0.916-0.943,1.497-1.133c0.011-0.003,0.021-0.003,0.028-0.006l0.955-2.938h0.302
	l-0.644,2.824c0.149-0.025,0.301-0.051,0.452-0.073l0.828-2.605h0.299L301,4.083c0.851-0.112,1.78-0.196,2.808-0.275
	c0.167,0.07,0.348,0.263,0.503,0.531l2.697-0.832l0.098,0.29l-2.577,1c0.025,0.052,0.042,0.109,0.061,0.165l2.819-0.35l0.041,0.3
	l-2.729,0.546c0.006,0.049,0.017,0.102,0.025,0.154l2.844,0.091L307.586,6.011z M299.472,7.272c0.566-0.398,1.527-0.704,2.43-0.632
	c0.227,0.018,0.418-0.045,0.172-0.174c-0.674-0.357-2.246-0.235-2.803,0.146c-0.887,0.608-0.737,1.689-0.715,1.713
	C298.729,8.017,299.031,7.58,299.472,7.272z"/>
<g>
	<g>
		<g>
			<g>
				<path fill="#2A3033" d="M252.646,12.2c-1.841-1.382-3.129-2.154-3.129-3.441c0-1.363,0.956-1.915,2.025-1.915
					c1.472,0,2.17,1.031,2.316,2.321h0.479V6.752c0-0.093-0.018-0.166-0.128-0.201c-0.737-0.258-1.785-0.349-2.575-0.349
					c-2.117,0-3.956,1.304-3.956,2.963c0,0.894,0.247,1.536,0.61,2.026h-0.009c0.009,0.008,0.018,0.014,0.023,0.021
					c0.445,0.594,1.058,0.974,1.601,1.336c2.76,1.824,3.383,2.797,3.404,3.992c0.051,2.656-4.923,4.052-8.196-1.05l-1.7-2.587
					c1.336-0.521,2.429-1.752,2.429-3.542c0-2.034-1.753-2.949-3.505-2.949h-5.053v0.45c1.562,0.187,1.49,0.104,1.49,1.717v7.813
					c0,1.619,0.071,1.529-1.49,1.72v0.451h4.67v-0.451c-1.562-0.19-1.495-0.101-1.495-1.72v-3.21h1.636
					c2.097,3.49,2.618,5.004,3.676,5.381c0.235,0.083,2.96,0.96,4.885,0.96c2.208,0,4.566-1.216,4.566-3.404
					C255.221,14.592,254.596,13.652,252.646,12.2z M241.902,12.812h-1.444v-5.66h1.338c1.267,0,2.312,0.659,2.312,2.553
					C244.107,11.667,243.412,12.812,241.902,12.812z"/>
				<path fill="#2A3033" d="M206.972,18.545c0,0,0,0-8.496-10.066v7.711c0,0.364,0.073,0.661,0.104,0.94
					c0.088,0.629,0.684,0.872,1.834,0.961v0.454h-4.274v-0.454c0.841-0.089,1.413-0.332,1.5-0.961
					c0.036-0.279,0.104-0.576,0.104-0.94V7.973c-0.485-0.628-1.031-1.188-2.021-1.188V6.329h3.172c2.6,3.161,5.307,6.37,7.903,9.529
					h0.036V8.686c0-0.366-0.071-0.661-0.105-0.94c-0.089-0.629-0.678-0.87-1.831-0.96V6.329h4.274v0.457
					c-0.82,0.09-1.413,0.331-1.504,0.96c-0.033,0.279-0.102,0.574-0.102,0.94v9.86L206.972,18.545L206.972,18.545z"/>
				<path fill="#2A3033" d="M213.828,16.362c0,1.626-0.068,1.538,1.5,1.729v0.454h-4.692v-0.454c1.57-0.191,1.499-0.104,1.499-1.729
					V8.513c0-1.62,0.071-1.537-1.499-1.727v-0.45h4.692v0.45c-1.568,0.19-1.5,0.107-1.5,1.727V16.362z"/>
				<path fill="#2A3033" d="M236.024,15.403c-0.803,1.869-0.682,2.584-3.209,2.584c-1.569,0-2.253-0.125-2.253-1.607v-3.943h1.469
					c1.167,0,1.569,0.615,1.604,1.643h0.45v-3.719h-0.45c-0.034,1.083-0.506,1.52-1.604,1.52h-1.469V6.893h2.771
					c1.254,0,1.605,0.958,1.776,2.249h0.453V6.335h-8.034h-3.456v0.45c1.184,0,1.639,0.54,1.201,1.642
					c-1.081,2.67-2.146,5.354-3.264,8.021c-0.906-2.648-1.917-5.649-2.593-7.707c-0.58-1.678,0.12-1.957,1.08-1.957v-0.45h-4.438
					v0.45c0.842,0,1.065,0.54,1.716,2.407c1.062,2.968,2.251,6.332,3.314,9.353h0.887c1.469-3.576,2.949-7.136,4.414-10.711
					c0.367-0.874,0.628-1.049,1.138-1.049c1.568,0.19,1.342,0.107,1.342,1.727v7.849c0,1.626,0.227,1.538-1.342,1.729v0.454h8.426
					l0.525-3.142h-0.454V15.403z"/>
				<path fill="#2A3033" d="M259.397,16.362c0,1.626-0.073,1.538,1.498,1.729v0.454h-4.693v-0.454
					c1.572-0.191,1.503-0.104,1.503-1.729V8.513c0-1.62,0.069-1.537-1.503-1.727v-0.45h4.693v0.45
					c-1.571,0.19-1.498,0.107-1.498,1.727V16.362z"/>
				<path fill="#2A3033" d="M277.237,6.335v0.45c1.029,0,1.588,0.504,0.994,1.571l-2.407,4.382l-2.111-4.382
					c-0.436-0.908-0.556-1.571,0.768-1.571v-0.45h-2.925h-1.211h-8.124l-0.473,2.664h0.437c0.575-1.148,0.925-2.106,2.441-2.106
					h1.417v9.469c0,1.626,0.067,1.538-1.503,1.729v0.454h4.693v-0.454c-1.57-0.191-1.502-0.104-1.502-1.729V6.893h1.416
					c1.43,0,2.392,0.853,2.98,1.916l2.457,4.872v2.682c0,1.626,0.07,1.538-1.499,1.729v0.454h4.69v-0.454
					c-1.566-0.191-1.5-0.104-1.5-1.729V14.41c0-0.435,0.037-0.926,0.21-1.272l2.912-5.286c0.474-0.838,0.943-1.065,1.433-1.065
					v-0.45h-3.593V6.335z"/>
			</g>
			<path fill="#2A3033" d="M195.792,3.873l-5.497,0.015v0.456c1.102,0.119,1.899,0.602,2.015,1.449
				c0.047,0.374,0.143,0.771,0.143,1.265v6.521c0,3.757-1.692,5.913-4.904,5.913c-3.497,0-4.546-2.509-4.546-5.795V6.822
				c0-2.182,0.063-2.222,2.176-2.479V3.887h-6.314v0.456c2.114,0.257,2.021,0.296,2.021,2.479v6.991
				c0,4.247,1.549,6.784,6.544,6.784c3.028,0,6.245-1.877,6.245-6.923V7.057c0-0.042,0-0.079,0-0.117
				c-0.021-2.036,0.771-2.333,2.104-2.547L195.792,3.873z"/>
		</g>
		<g>
			<path fill="#2A3033" d="M135.308,7.116c-0.186-1.641-1.074-2.948-2.943-2.948c-1.356,0-2.726,0.701-2.726,2.43
				c0,1.636,1.635,2.616,3.974,4.371c2.475,1.847,3.272,3.039,3.272,4.977c0,2.781-2.696,4.324-5.498,4.324
				c-1.5,0-2.785-0.282-4-0.748c-0.091-0.047-0.162-0.143-0.162-0.324V15.83h0.607c0.259,2.592,1.96,3.622,3.763,3.622
				c1.66,0,3.167-1.264,3.167-2.969c0-1.52-0.818-2.758-4.322-5.07c-1.26-0.839-2.826-1.754-2.826-4.297
				c0-2.11,2.178-3.767,4.867-3.767c1.005,0,2.338,0.117,3.271,0.447c0.141,0.041,0.164,0.14,0.164,0.255v3.064h-0.608V7.116z"/>
			<path fill="#2A3033" d="M142.782,16.306c0,1.617-0.066,1.525,1.496,1.722v0.447h-4.674v-0.447
				c1.563-0.196,1.496-0.104,1.496-1.722V6.869h-1.41c-1.511,0-1.859,0.957-2.432,2.101h-0.432l0.467-2.656h9.295l0.47,2.656h-0.434
				c-0.573-1.144-0.92-2.101-2.431-2.101h-1.41L142.782,16.306L142.782,16.306z"/>
			<path fill="#2A3033" d="M148.845,14.445l-0.795,2.33c-0.227,0.681,0.103,1.253,0.868,1.253v0.447h-3.163v-0.447
				c0.467,0,0.973-0.3,1.251-0.87c0.747-1.531,2.778-7.21,4.222-11.051h0.972c1.181,3.491,2.952,8.847,3.543,10.392
				c0.385,0.967,0.663,1.529,1.408,1.529v0.447h-4.047v-0.447c1.094,0,1.202-0.572,0.924-1.341l-0.751-2.242H148.845z
				 M153.055,13.787l-1.843-5.648h-0.035l-2.068,5.648H153.055z"/>
			<path fill="#2A3033" d="M161.897,16.306c0,1.617-0.068,1.525,1.493,1.722v0.447h-4.673v-0.447
				c1.563-0.196,1.496-0.104,1.496-1.722V6.869h-1.41c-1.512,0-1.856,0.957-2.433,2.101h-0.435l0.472-2.656h9.295l0.468,2.656
				h-0.437c-0.568-1.144-0.915-2.101-2.426-2.101h-1.41V16.306z"/>
			<path fill="#2A3033" d="M166.99,18.028c1.567-0.196,1.343-0.104,1.343-1.722V8.483c0-1.614,0.225-1.528-1.343-1.72V6.314h7.611
				v2.792h-0.454c-0.173-1.281-0.517-2.238-1.769-2.238h-2.366v4.976h1.459c1.094,0,1.565-0.438,1.597-1.516h0.453v3.697h-0.453
				c-0.032-1.027-0.432-1.633-1.597-1.633h-1.459v3.926c0,1.48,0.68,1.604,2.244,1.604c2.519,0,2.396-0.715,3.197-2.574h0.452
				l-0.523,3.125h-8.392L166.99,18.028L166.99,18.028z"/>
		</g>
		<g>
			<path fill="#2A3033" d="M43.447,16.319c0,1.618-0.07,1.529,1.492,1.721v0.451h-4.672V18.04c1.562-0.191,1.493-0.103,1.493-1.721
				V8.5c0-1.612-0.751-1.527-2.314-1.717V6.335h5.493v0.448c-1.562,0.19-1.492,0.105-1.492,1.717v3.009h6.096V8.5
				c0-1.612,0.069-1.527-1.494-1.717V6.335h4.671v0.448c-1.561,0.19-1.493,0.105-1.493,1.717v7.818c0,1.618-0.067,1.529,1.493,1.721
				v0.451h-4.671v-0.45c1.563-0.191,1.494-0.103,1.494-1.721v-4.1h-6.096V16.319z"/>
			<path fill="#2A3033" d="M57.813,16.319c0,1.618-0.071,1.529,1.493,1.721v0.451h-4.671V18.04c1.562-0.191,1.493-0.103,1.493-1.721
				V8.5c0-1.612,0.069-1.527-1.493-1.717V6.335h4.671v0.448c-1.564,0.19-1.493,0.105-1.493,1.717V16.319z"/>
			<path fill="#2A3033" d="M72.253,18.491c-2.761-3.266-5.627-6.688-8.458-10.024v7.681c0,0.36,0.069,0.658,0.105,0.936
				c0.086,0.628,0.675,0.867,1.822,0.956v0.451h-4.253V18.04c0.832-0.089,1.406-0.328,1.494-0.956
				c0.034-0.277,0.104-0.575,0.104-0.936V7.964c-0.489-0.624-1.026-1.181-2.018-1.181V6.335h3.163
				c2.588,3.14,5.28,6.338,7.867,9.479h0.034V8.678c0-0.366-0.069-0.663-0.104-0.941c-0.084-0.624-0.678-0.867-1.824-0.954V6.335
				h4.257v0.448c-0.816,0.087-1.406,0.33-1.496,0.954c-0.033,0.278-0.102,0.575-0.102,0.941v9.812L72.253,18.491L72.253,18.491z"/>
			<path fill="#2A3033" d="M74.814,12.342c0-2.674,2.258-6.221,6.947-6.221c1.684,0,2.484,0.315,3.335,0.595
				c0.487,0.155,0.677,0.397,0.677,0.676v2.24h-0.452c-0.052-1.39-0.938-2.9-3.698-2.9c-3.631,0-4.812,2.501-4.829,5.471
				c-0.018,2.744,1.372,5.89,4.898,5.89c2.171,0,2.363-0.803,2.363-2.153v-1.061c0-1.619,0.067-1.527-1.842-1.721V12.71h5.02v0.448
				c-1.562,0.193-1.492,0.102-1.492,1.721v3.023c-1.114,0.434-2.572,0.799-4.153,0.799C78.028,18.7,74.814,16.998,74.814,12.342z"/>
			<path fill="#2A3033" d="M93.192,16.319c0,1.618-0.07,1.529,1.494,1.721v0.451h-4.672V18.04c1.562-0.191,1.493-0.103,1.493-1.721
				v-9.43h-1.408c-1.512,0-1.858,0.951-2.432,2.101h-0.433l0.47-2.654h9.292l0.469,2.654H97.03c-0.572-1.15-0.919-2.101-2.43-2.101
				h-1.408V16.319z"/>
			<path fill="#2A3033" d="M97.464,12.637c0-3.754,2.917-6.517,6.529-6.517c3.769,0,5.958,3.251,5.958,5.928
				c0,3.665-2.745,6.651-6.584,6.651C100.051,18.7,97.464,16.009,97.464,12.637z M107.971,12.568c0-4.153-2.239-5.837-4.36-5.837
				c-2.951,0-4.167,2.641-4.167,5.002c0,4.206,2.153,6.359,4.393,6.359C107.069,18.092,107.971,14.896,107.971,12.568z"/>
			<path fill="#2A3033" d="M121.156,18.491c-2.765-3.266-5.628-6.688-8.46-10.024v7.681c0,0.36,0.069,0.658,0.104,0.936
				c0.087,0.628,0.677,0.867,1.823,0.956v0.451h-4.255V18.04c0.835-0.089,1.408-0.328,1.495-0.956
				c0.034-0.277,0.104-0.575,0.104-0.936V7.964c-0.485-0.624-1.023-1.181-2.015-1.181V6.335h3.162
				c2.588,3.14,5.277,6.338,7.868,9.479h0.033V8.678c0-0.366-0.07-0.663-0.104-0.941c-0.086-0.624-0.676-0.867-1.823-0.954V6.335
				h4.254v0.448c-0.815,0.087-1.405,0.33-1.492,0.954c-0.035,0.278-0.105,0.575-0.105,0.941v9.812L121.156,18.491L121.156,18.491z"
				/>
			<path fill="#2A3033" d="M23.905,4.008v-0.02h-4.698v0.583c1.813,0.02,2.108,0.667,1.632,2.04l-3.555,9.681h-0.197L12.898,4.188
				h-1.059L7.44,16.292H7.141L3.988,6.674C3.541,5.15,4.166,4.571,5.576,4.571V3.988H0v0.583c1.185,0,1.397,0.923,2.159,3.11
				l4.047,11.966h1.066l4.33-12.206l4.268,12.216h1.193c1.825-4.857,4.396-12.046,5.342-13.98c0.352-0.726,0.989-1.1,1.582-1.1
				V4.008H23.905z"/>
			<path fill="#2A3033" d="M36.397,11.965c-1.828-1.371-3.107-2.138-3.107-3.417c0-1.353,0.95-1.903,2.01-1.903
				c1.462,0,2.156,1.025,2.303,2.305h0.474V6.555c0-0.091-0.018-0.164-0.128-0.199c-0.73-0.256-1.772-0.35-2.558-0.35
				c-2.101,0-3.929,1.299-3.929,2.944c0,0.892,0.246,1.526,0.606,2.015h-0.006c0.008,0.007,0.015,0.013,0.022,0.02
				c0.442,0.591,1.051,0.968,1.59,1.328c2.741,1.809,3.381,2.779,3.381,3.966c0,1.104-0.83,2.212-2.357,2.322
				c-1.564,0.11-3.576-0.645-4.422-2.841c-0.752-2.104-2.281-6.531-3.313-9.587h-1.007c-1.441,3.839-3.396,9.469-4.144,10.995
				c-0.275,0.574-0.779,0.87-1.249,0.87v0.452h0.75h2.41v-0.452c-0.764,0-1.094-0.573-0.869-1.252l0.799-2.327h4.429l0.747,2.241
				l0.575,1.727c0,0,3.106,0.812,5.127,0.812c2.193,0,4.423-1.206,4.423-3.381C38.956,14.342,38.334,13.408,36.397,11.965z
				 M23.916,13.8l2.066-5.646h0.035l1.841,5.646H23.916z"/>
		</g>
	</g>
	<g>
		<path fill="#2A3033" d="M317.289,16.467l-3.127-8.358l1.195-0.217c0.821,2.307,1.63,4.626,2.439,7.223h0.025
			c0.845-2.597,1.714-4.916,2.571-7.223l1.051,0.145l-3.369,8.43H317.289z"/>
		<path fill="#2A3033" d="M326.579,8.013l3.152,8.455h-1.353l-0.87-2.488h-3.224l-0.906,2.488h-1.136l3.442-8.455
			C325.684,8.013,326.579,8.013,326.579,8.013z M327.231,13.134c-0.423-1.171-0.833-2.343-1.256-3.865h-0.024
			c-0.435,1.521-0.881,2.693-1.341,3.865H327.231z"/>
		<path fill="#2A3033" d="M339.915,16.467h-0.919c-1.835-2.198-4.986-5.99-5.494-6.728h-0.024v6.728h-0.967V8.013h0.87
			c1.859,2.198,4.976,5.894,5.544,6.74h0.023v-6.74h0.967L339.915,16.467L339.915,16.467z"/>
		<path fill="#2A3033" d="M350.146,9.45c-0.398-0.326-1.305-0.737-2.211-0.737c-2.088,0-3.319,1.498-3.319,3.479
			c0,2.138,1.472,3.575,3.319,3.575c0.919,0,1.644-0.291,2.139-0.628l0.459,0.701c-0.568,0.386-1.57,0.772-2.657,0.772
			c-3.019,0-4.553-2.065-4.553-4.396c0-2.126,1.666-4.348,4.697-4.348c1.208,0,2.054,0.423,2.609,0.857L350.146,9.45z"/>
		<path fill="#2A3033" d="M353.398,12.095c0-2.367,1.787-4.228,4.227-4.228s4.228,1.86,4.228,4.228c0,2.524-1.619,4.517-4.228,4.517
			S353.398,14.619,353.398,12.095z M360.56,12.095c0-1.583-0.845-3.382-2.935-3.382s-2.936,1.799-2.936,3.382
			c0,1.654,0.75,3.672,2.936,3.672S360.56,13.75,360.56,12.095z"/>
		<path fill="#2A3033" d="M366.312,8.013v5.121c0,1.751,0.652,2.668,2.161,2.668c1.583,0,2.114-1.255,2.114-2.463V8.013h1.099v5.35
			c0,1.897-1.172,3.249-3.213,3.249c-2.378,0-3.333-1.256-3.333-3.43V8.013H366.312z"/>
		<path fill="#2A3033" d="M377.461,16.467l-3.127-8.358l1.194-0.217c0.821,2.307,1.631,4.626,2.44,7.223h0.023
			c0.845-2.597,1.715-4.916,2.572-7.223l1.052,0.145l-3.37,8.43H377.461z"/>
		<path fill="#2A3033" d="M388.551,8.858h-2.996v2.729h2.936v0.846h-2.936v3.188h3.515v0.846h-4.687V8.013h4.168V8.858z"/>
		<path fill="#2A3033" d="M392.199,8.013h2.416c1.376,0,2.451,0.712,2.451,2.174c0,1.244-0.604,1.945-1.413,2.464l2.102,3.599
			l-1.184,0.362l-1.956-3.647h-1.244v3.502h-1.172V8.013z M393.371,12.119h0.664c1.498,0,1.775-1.111,1.775-1.823
			c0-1.039-0.652-1.438-1.437-1.438h-1.003v3.261H393.371z"/>
	</g>
</g>
</svg>
