<?xml version="1.0" encoding="utf-8"?>
<!-- Generator: Adobe Illustrator 18.0.0, SVG Export Plug-In . SVG Version: 6.00 Build 0)  -->
<!DOCTYPE svg PUBLIC "-//W3C//DTD SVG 1.1//EN" "http://www.w3.org/Graphics/SVG/1.1/DTD/svg11.dtd">
<svg version="1.1" id="Layer_1" xmlns="http://www.w3.org/2000/svg" xmlns:xlink="http://www.w3.org/1999/xlink" x="0px" y="0px"
	 viewBox="0 0 612 792" enable-background="new 0 0 612 792" xml:space="preserve">
<path fill="#FFFFFF" d="M420.2,410.5l-6.1,4.3l-6.1-4.3c-4.3-2.9-8.1-5.6-10-9.3c1.7,7.2,8.6,9.9,16.1,15.7
	c7.4-5.8,14.5-8.5,16.1-15.7C428.3,405,424.5,407.5,420.2,410.5z"/>
<g>
	<path fill="#FFFFFF" d="M416.3,384.3c-1.3,0.8-1,2.4-1,2.4c0.1-0.4,0.6-1,1.3-1.4c0.8-0.6,2.1-1,3.3-0.8c0.3,0,0.6,0,0.3-0.3
		C419.2,383.6,417.1,383.9,416.3,384.3z"/>
	<path fill="#FFFFFF" d="M397.2,375.1v0.7c0.4,0.1,0.6,0.3,0.7,1v17.5c0,9.7,7.9,12.2,16.3,18.8c8.3-6.5,16.3-9,16.3-18.8v-17.7
		c0-0.6,0.3-0.7,0.7-0.8v-0.7H397.2z M401.4,398.5c0,0,2.2-1.7,3.9-7l1.7,1.5l-0.3,1c0,0,0.8,1.1,1,1.8c0,0,1-2.1-0.1-4.3l-0.3,0.6
		l-0.7-0.6l-1.1-1c0,0,0.6-1.8,2.1-3.9l0.1,0.1l1.3,1.4l-0.4,0.7c0,0,0.8,0.8,1.5,1.9c0,0,0.4-1.9-0.1-3.9l-0.6,0.6l-1.4-1.7
		c1.9-1.9,3.9-3.1,6.1-3.9c-0.1,0.3-0.3,0.4-0.4,0.6c-0.8,1.1-1.7,3.1-1,6.3c0.1,0.6,0.3,1.3,0.4,1.9c0.3,1.5,0.7,3.2,0.8,4.2
		c0.3,2.1,0,3.6-0.7,4.3c-0.6,0.6-1.4,0.7-2.5,0.7c0-0.3,0-0.4,0-0.6c0-1.5-0.3-2.8-0.3-2.8l-0.3-1.1l-0.4,1
		c-0.7,1.5-3.2,5.4-6.5,6.1c1.4-2.1,1.6-4.4,1.8-4.8C403.8,398.1,401.4,398.5,401.4,398.5z M419.9,403.6c-0.6,0-2.5,0-2.5,0
		s1.4-0.6,2.1-2.8C420.2,402.3,419.9,403.6,419.9,403.6z M423,399.2c-3.9,0.6-4.6-7.8-4.6-7.8s1.4,4.2,4.2,4
		c2.9-0.1,2.1-4.6,2.1-4.6S427.4,398.5,423,399.2z M423.9,383.6c0,0.4,0,1-0.1,1.4c0.4,1.5,0.1,2.5,0.1,2.5
		c-0.7-1.5-1.1-1.9-1.1-1.9c-3.6-1.5-5.6,1.9-5.4,4.3c0.1,1.9,0.8,4.5,1.4,8.3c0.4,3.3-1.3,4.7-3.2,5.1h-0.1c-0.3,0-0.7,0-1,0h-0.1
		c-0.1,0-0.3,0-0.4,0c-1.5-0.3-4.9-0.8-8.3-1c2.1-1.3,3.6-3.3,4.6-4.7c0,0.4,0.1,0.8,0.1,1.4c0,0.3,0,0.6,0,0.8v0.4h0.4
		c1.7,0.1,2.8-0.1,3.5-1c1-1,1.3-2.5,0.8-5c-0.1-1.1-0.6-2.8-0.8-4.2c-0.1-0.7-0.3-1.4-0.4-1.9c-0.6-2.9,0.1-4.7,0.8-5.7
		c0.6-0.7,1.3-1.3,2.1-1.5l1.4-4h0.4l-1.3,4c0.1,0,0.4-0.1,0.7-0.1l1.1-3.6h0.4l-0.8,3.6c1.3-0.1,2.5-0.3,3.9-0.4
		c0.3,0.1,0.4,0.4,0.7,0.7l3.8-1.1l0.1,0.4l-3.6,1.4c0,0.1,0,0.1,0.1,0.3l3.9-0.4v0.4l-3.8,0.7c0,0,0,0.1,0,0.3l3.9,0.1l0.1,0.3
		L423.9,383.6z"/>
</g>
<g>
	<g>
		<g>
			<path fill="#FFFFFF" d="M351.3,392.1c-2.5-1.9-4.3-3.1-4.3-4.7c0-1.9,1.4-2.6,2.8-2.6c2.1,0,3.1,1.4,3.2,3.2h0.7v-3.3
				c0-0.1,0-0.3-0.1-0.3c-1-0.4-2.5-0.4-3.6-0.4c-2.9,0-5.6,1.8-5.6,4.2c0,1.3,0.3,2.1,0.8,2.8l0,0l0,0c0.6,0.8,1.5,1.4,2.2,1.8
				c3.9,2.5,4.7,3.9,4.7,5.6c0.1,3.8-6.8,5.7-11.4-1.5l-2.4-3.6c1.8-0.7,3.3-2.5,3.3-4.9c0-2.8-2.5-4-4.9-4h-7.1v0.6
				c2.2,0.3,2.1,0.1,2.1,2.4v10.8c0,2.2,0.1,2.1-2.1,2.4v0.7h6.5v-0.7c-2.2-0.3-2.1-0.1-2.1-2.4v-4.5h2.2c2.9,4.9,3.6,7,5.1,7.5
				c0.3,0.1,4.2,1.4,6.8,1.4c3.1,0,6.4-1.7,6.4-4.7C355,395.4,354.1,394.2,351.3,392.1z M336.5,392.9h-1.9v-7.8h1.8
				c1.8,0,3.2,1,3.2,3.6S338.5,392.9,336.5,392.9z"/>
			<path fill="#FFFFFF" d="M287.9,400.9c0,0,0,0-11.8-14v10.7c0,0.6,0.1,1,0.1,1.3c0.1,0.8,1,1.3,2.5,1.4v0.7h-6v-0.7
				c1.1-0.1,1.9-0.4,2.1-1.4c0-0.4,0.1-0.8,0.1-1.3v-11.3c-0.7-0.8-1.4-1.7-2.8-1.7v-0.7h4.5c3.6,4.5,7.4,8.9,11,13.2l0,0v-9.9
				c0-0.6-0.1-1-0.1-1.3c-0.1-0.8-1-1.3-2.5-1.4v-0.7h6v0.7c-1.1,0.1-1.9,0.4-2.1,1.4c0,0.4-0.1,0.8-0.1,1.3V401L287.9,400.9
				L287.9,400.9z"/>
			<path fill="#FFFFFF" d="M297.4,397.9c0,2.2-0.1,2.1,2.1,2.4v0.7h-6.5v-0.7c2.2-0.3,2.1-0.1,2.1-2.4v-11c0-2.2,0.1-2.1-2.1-2.4
				v-0.7h6.5v0.6c-2.2,0.3-2.1,0.1-2.1,2.4V397.9z"/>
			<path fill="#FFFFFF" d="M328.3,396.6c-1.1,2.6-1,3.6-4.5,3.6c-2.2,0-3.2-0.1-3.2-2.2v-5.4h2.1c1.7,0,2.2,0.8,2.2,2.2h0.6v-5.1
				h-0.6c0,1.5-0.7,2.1-2.2,2.1h-2.1v-7h3.9c1.8,0,2.2,1.4,2.5,3.1h0.7v-3.9h-11.1h-4.9v0.6c1.7,0,2.2,0.7,1.7,2.2
				c-1.5,3.8-2.9,7.5-4.6,11.1c-1.3-3.6-2.6-7.8-3.6-10.7c-0.8-2.4,0.1-2.8,1.5-2.8v-0.4h-6.1v0.6c1.1,0,1.5,0.7,2.4,3.3
				c1.5,4.2,3.2,8.8,4.6,13.1h1.3c2.1-5,4-9.9,6.1-14.9c0.6-1.3,0.8-1.4,1.5-1.4c2.2,0.3,1.8,0.1,1.8,2.4v10.8
				c0,2.2,0.3,2.1-1.8,2.4v0.7h11.7l0.7-4.3H328.3L328.3,396.6z"/>
			<path fill="#FFFFFF" d="M360.8,397.9c0,2.2-0.1,2.1,2.1,2.4v0.7h-6.5v-0.7c2.2-0.3,2.1-0.1,2.1-2.4v-11c0-2.2,0.1-2.1-2.1-2.4
				v-0.7h6.5v0.6c-2.2,0.3-2.1,0.1-2.1,2.4V397.9z"/>
			<path fill="#FFFFFF" d="M385.6,383.9v0.6c1.4,0,2.2,0.7,1.4,2.2l-3.3,6.1l-2.9-6.1c-0.6-1.3-0.8-2.2,1.1-2.2v-0.6h-4h-1.7h-11.3
				l-0.8,3.8h0.6c0.8-1.5,1.3-2.9,3.3-2.9h1.9v13.2c0,2.2,0.1,2.1-2.1,2.4v0.7h6.5v-0.7c-2.2-0.3-2.1-0.1-2.1-2.4v-13.2h1.9
				c1.9,0,3.3,1.3,4.2,2.6l3.5,6.8v3.8c0,2.2,0.1,2.1-2.1,2.4v0.7h6.5v-0.7c-2.2-0.3-2.1-0.1-2.1-2.4v-2.8c0-0.6,0-1.3,0.3-1.8
				l4-7.4c0.7-1.1,1.3-1.5,1.9-1.5v-0.6H385.6L385.6,383.9z"/>
		</g>
		<path fill="#FFFFFF" d="M272.3,380.6h-7.6v0.7c1.5,0.1,2.6,0.8,2.8,1.9c0,0.6,0.1,1.1,0.1,1.8v9c0,5.3-2.4,8.2-6.8,8.2
			c-4.9,0-6.3-3.5-6.3-8.1v-9.6c0-3.1,0.1-3.1,3.1-3.5v-0.6h-8.8v0.7c2.9,0.4,2.8,0.4,2.8,3.5v9.7c0,5.8,2.1,9.5,9,9.5
			c4.2,0,8.6-2.6,8.6-9.6V385v-0.1c0-2.8,1.1-3.2,2.9-3.5L272.3,380.6z"/>
	</g>
	<g>
		<path fill="#FFFFFF" d="M188.2,385c-0.3-2.2-1.5-4-4-4c-1.9,0-3.8,1-3.8,3.3c0,2.2,2.2,3.6,5.6,6.1c3.5,2.5,4.6,4.2,4.6,7
			c0,3.9-3.8,6-7.6,6c-2.1,0-3.9-0.4-5.6-1c-0.1,0-0.3-0.1-0.3-0.4v-4.7h0.8c0.4,3.6,2.8,5,5.3,5c2.4,0,4.5-1.8,4.5-4.2
			c0-2.1-1.1-3.9-6-7.1c-1.8-1.1-3.9-2.5-3.9-6c0-2.9,3.1-5.3,6.8-5.3c1.4,0,3.2,0.1,4.6,0.6c0.1,0,0.3,0.1,0.3,0.4v4.3H188.2
			L188.2,385z"/>
		<path fill="#FFFFFF" d="M198.6,397.8c0,2.2-0.1,2.1,2.1,2.4v0.6h-6.5v-0.6c2.2-0.3,2.1-0.1,2.1-2.4v-13.1h-1.9
			c-2.1,0-2.6,1.4-3.3,2.9h-0.6l0.7-3.8H204l0.7,3.8h-0.6c-0.8-1.5-1.3-2.9-3.3-2.9h-1.9L198.6,397.8L198.6,397.8z"/>
		<path fill="#FFFFFF" d="M207,395.2l-1.1,3.2c-0.3,1,0.1,1.8,1.3,1.8v0.6h-4.5v-0.6c0.7,0,1.4-0.4,1.8-1.3c1-2.1,3.9-10,5.8-15.4
			h1.4c1.7,4.9,4.2,12.2,4.9,14.5c0.6,1.4,1,2.1,1.9,2.1v0.6h-5.6v-0.4c1.5,0,1.7-0.8,1.3-1.8l-1.1-3.1H207V395.2z M212.9,394.3
			l-2.5-7.8l0,0l-2.9,7.8C207.5,394.3,212.9,394.3,212.9,394.3z"/>
		<path fill="#FFFFFF" d="M225.2,397.8c0,2.2-0.1,2.1,2.1,2.4v0.6h-6.5v-0.6c2.2-0.3,2.1-0.1,2.1-2.4v-13.1h-1.9
			c-2.1,0-2.6,1.4-3.3,2.9H217l0.7-3.8h12.9l0.7,3.8h-0.6c-0.8-1.5-1.3-2.9-3.3-2.9h-1.9v13.1H225.2z"/>
		<path fill="#FFFFFF" d="M232.3,400.2c2.2-0.3,1.8-0.1,1.8-2.4V387c0-2.2,0.3-2.1-1.8-2.4v-0.7h10.6v3.9h-0.7
			c-0.3-1.8-0.7-3.1-2.5-3.1h-3.2v7h2.1c1.5,0,2.2-0.6,2.2-2.1h0.7v5h-0.7c0-1.4-0.6-2.2-2.2-2.2h-2.1v5.4c0,2.1,1,2.2,3.1,2.2
			c3.5,0,3.3-1,4.5-3.6h0.7l-0.7,4.3h-11.7V400.2L232.3,400.2z"/>
	</g>
	<g>
		<path fill="#FFFFFF" d="M60.4,397.8c0,2.2-0.1,2.1,2.1,2.4v0.7h-6.5v-0.7c2.2-0.3,2.1-0.1,2.1-2.4V387c0-2.2-1.1-2.1-3.2-2.4v-0.7
			h7.7v0.6c-2.2,0.3-2.1,0.1-2.1,2.4v4.2h8.5v-4.2c0-2.2,0.1-2.1-2.1-2.4v-0.6h6.5v0.6c-2.2,0.3-2.1,0.1-2.1,2.4v10.8
			c0,2.2-0.1,2.1,2.1,2.4v0.7h-6.5v-0.6c2.2-0.3,2.1-0.1,2.1-2.4v-5.7h-8.5V397.8L60.4,397.8z"/>
		<path fill="#FFFFFF" d="M80.4,397.8c0,2.2-0.1,2.1,2.1,2.4v0.7h-6.5v-0.7c2.2-0.3,2.1-0.1,2.1-2.4V387c0-2.2,0.1-2.1-2.1-2.4v-0.7
			h6.5v0.6c-2.2,0.3-2.1,0.1-2.1,2.4V397.8z"/>
		<path fill="#FFFFFF" d="M100.6,400.9c-3.9-4.6-7.8-9.3-11.8-13.9v10.7c0,0.6,0.1,1,0.1,1.3c0.1,0.8,1,1.3,2.5,1.4v0.7h-6v-0.8
			c1.1-0.1,1.9-0.4,2.1-1.4c0-0.4,0.1-0.8,0.1-1.3v-11.3c-0.7-0.8-1.4-1.7-2.8-1.7v-0.7h4.5c3.6,4.3,7.4,8.8,11,13.2l0,0v-9.9
			c0-0.6-0.1-1-0.1-1.4c-0.1-0.8-1-1.3-2.5-1.4v-0.6h6v0.6c-1.1,0.1-1.9,0.4-2.1,1.4c0,0.4-0.1,0.8-0.1,1.3v13.6L100.6,400.9
			L100.6,400.9z"/>
		<path fill="#FFFFFF" d="M104,392.2c0-3.8,3.2-8.6,9.6-8.6c2.4,0,3.5,0.4,4.6,0.8c0.7,0.3,1,0.6,1,1v3.1h-0.7c-0.1-1.9-1.3-4-5.1-4
			c-5,0-6.7,3.5-6.7,7.6c0,3.8,1.9,8.2,6.8,8.2c3.1,0,3.3-1.1,3.3-3.1v-1.5c0-2.2,0.1-2.1-2.5-2.4v-0.6h7v0.6
			c-2.2,0.3-2.1,0.1-2.1,2.4v4.2c-1.5,0.6-3.6,1.1-5.8,1.1C108.5,401.1,104,398.8,104,392.2z"/>
		<path fill="#FFFFFF" d="M129.6,397.8c0,2.2-0.1,2.1,2.1,2.4v0.7h-6.5v-0.7c2.2-0.3,2.1-0.1,2.1-2.4v-13.1h-1.9
			c-2.1,0-2.6,1.4-3.3,2.9h-0.6l0.7-3.8h12.8l0.7,3.8h-0.7c-0.8-1.7-1.3-2.9-3.3-2.9h-1.9V397.8z"/>
		<path fill="#FFFFFF" d="M135.6,392.7c0-5.3,4-9,9-9c5.3,0,8.3,4.6,8.3,8.2c0,5.1-3.8,9.3-9.2,9.3
			C139.2,401.1,135.6,397.4,135.6,392.7z M150.2,392.7c0-5.8-3.1-8.1-6.1-8.1c-4.2,0-5.8,3.6-5.8,7c0,5.8,3.1,8.9,6.1,8.9
			C149,400.3,150.2,395.9,150.2,392.7z"/>
		<path fill="#FFFFFF" d="M168.6,400.9c-3.9-4.6-7.8-9.3-11.8-13.9v10.7c0,0.6,0.1,1,0.1,1.3c0.1,0.8,1,1.3,2.5,1.4v0.7h-6v-0.8
			c1.1-0.1,1.9-0.4,2.1-1.4c0-0.4,0.1-0.8,0.1-1.3v-11.3c-0.7-0.8-1.4-1.7-2.8-1.7v-0.7h4.5c3.6,4.3,7.4,8.8,11,13.2l0,0v-9.9
			c0-0.6-0.1-1-0.1-1.3c-0.1-0.8-1-1.3-2.5-1.4v-0.7h6v0.6c-1.1,0.1-1.9,0.4-2.1,1.4c0,0.4-0.1,0.8-0.1,1.3v13.6L168.6,400.9
			L168.6,400.9z"/>
		<path fill="#FFFFFF" d="M33.2,380.7L33.2,380.7h-6.5v0.8c2.5,0,2.9,1,2.2,2.8l-5,13.5h-0.3L17.9,381h-1.5l-6.1,16.8H9.9l-4.3-13.4
			c-0.7-2.1,0.3-2.9,2.2-2.9v-0.8H0v0.8c1.7,0,1.9,1.3,3.1,4.3l5.6,16.7h1.5l6-17l6,17h1.7c2.5-6.8,6.1-16.7,7.4-19.5
			c0.6-1,1.4-1.5,2.2-1.5L33.2,380.7L33.2,380.7z"/>
		<path fill="#FFFFFF" d="M50.6,391.8c-2.5-1.9-4.3-2.9-4.3-4.7c0-1.9,1.4-2.6,2.8-2.6c2.1,0,3.1,1.4,3.2,3.2H53v-3.3
			c0-0.1,0-0.3-0.1-0.3c-1.1-0.4-2.5-0.6-3.6-0.6c-2.9,0-5.4,1.8-5.4,4c0,1.3,0.3,2.1,0.8,2.8l0,0l0,0c0.6,0.8,1.5,1.4,2.2,1.8
			c3.8,2.5,4.7,3.9,4.7,5.6c0,1.5-1.1,3.1-3.3,3.2c-2.2,0.1-5-0.8-6.1-3.9c-1.1-2.8-3.2-9-4.6-13.2h-1.4c-1.9,5.3-4.7,13.2-5.7,15.3
			c-0.6,0.7-1.3,1.1-1.8,1.1v0.7h1.1h3.3v-0.7c-1.1,0-1.5-0.8-1.3-1.8l1.1-3.2h6.1l1,3.1l0.8,2.4c0,0,4.3,1.1,7.1,1.1
			c3.1,0,6.1-1.7,6.1-4.7C54.2,395,53.3,393.8,50.6,391.8z M33.2,394.3l2.9-7.8l0,0l2.5,7.8C38.7,394.3,33.2,394.3,33.2,394.3z"/>
	</g>
</g>
<g>
	<path fill="#FFFFFF" d="M444,381.1c-0.6-0.4-1.4-0.8-2.1-0.8c-1.1,0-1.8,0.7-1.8,1.5s0.7,1.5,2.2,2.5c1.7,1.1,2.5,2.2,2.5,3.8
		c0,1.8-1.8,3.1-3.6,3.1c-1.1,0-2.5-0.4-3.3-1.3l0.7-1c0.7,0.6,1.4,1,2.5,1s2.1-0.6,2.1-1.9c0-1.5-1.8-2.5-2.8-3.2
		c-1-0.7-2.1-1.5-2.1-3.2c0-1.5,1.5-2.8,3.3-2.8c1.3,0,2.2,0.4,2.9,1.1L444,381.1z"/>
	<path fill="#FFFFFF" d="M451.4,391.1h-1.7v-11.8h2.9c2.5,0,4,1.1,4,3.3c0,1.9-1.7,3.8-4.3,3.8h-0.6v-1h0.6c1.5-0.1,2.5-1,2.5-2.6
		c0-1.3-0.7-2.2-2.5-2.2h-1.1L451.4,391.1L451.4,391.1z"/>
	<path fill="#FFFFFF" d="M460.3,385c0-3.3,2.5-5.8,5.8-5.8c3.3,0,5.8,2.6,5.8,5.8c0,3.5-2.2,6.3-5.8,6.3
		C462.5,391.3,460.3,388.5,460.3,385z M470.3,385c0-2.2-1.1-4.7-4-4.7c-2.9,0-4,2.5-4,4.7c0,2.4,1,5.1,4,5.1
		C469.2,390.2,470.3,387.2,470.3,385z"/>
	<path fill="#FFFFFF" d="M478.3,384.6l5.1-5.4l1.1,0.7l-4.6,4.7l5.1,6l-1.5,0.6l-5.1-6.3l0,0v6.1h-1.7v-11.7h1.7L478.3,384.6
		L478.3,384.6z"/>
	<path fill="#FFFFFF" d="M493.4,379.3l4.5,11.8h-1.9l-1.3-3.5h-4.5l-1.3,3.5h-1.5l4.7-11.8H493.4z M494.3,386.4
		c-0.6-1.7-1.1-3.2-1.8-5.4l0,0c-0.6,2.1-1.3,3.8-1.8,5.4H494.3z"/>
	<path fill="#FFFFFF" d="M511.9,391.1h-1.3c-2.5-3.1-7-8.3-7.6-9.3l0,0v9.3h-1.4v-11.8h1.3c2.6,3.1,7,8.2,7.6,9.3l0,0v-9.3h1.4
		V391.1z"/>
	<path fill="#FFFFFF" d="M523,380.6h-4.2v3.8h4v1.1h-4v4.5h4.9v1.1h-6.5v-11.7h5.8V380.6z"/>
</g>
<g>
	<path fill="#FFFFFF" d="M447.6,408.7h-1.7v-5.8h-5.7v5.8h-1.7V397h1.7v4.7h5.7V397h1.7V408.7z"/>
	<path fill="#FFFFFF" d="M458.7,398.2h-4.2v3.8h4v1.1h-4v4.5h4.9v1.1h-6.5V397h5.7v1.3H458.7z"/>
	<path fill="#FFFFFF" d="M468.2,397l4.3,11.7h-1.8l-1.3-3.5H465l-1.3,3.5h-1.5l4.7-11.7C466.9,397,468.2,397,468.2,397z
		 M469.2,404.1c-0.6-1.7-1.1-3.2-1.7-5.3l0,0c-0.6,2.1-1.3,3.8-1.8,5.3H469.2z"/>
	<path fill="#FFFFFF" d="M476.4,397h1.7v10.6h4.9v1.1h-6.5V397z"/>
	<path fill="#FFFFFF" d="M488.8,408.7v-10.6H485V397h9v1.1h-3.8v10.6H488.8z"/>
	<path fill="#FFFFFF" d="M507,408.7h-1.7v-5.8h-5.7v5.8h-1.7V397h1.7v4.7h5.7V397h1.7V408.7z"/>
	<path fill="#FFFFFF" d="M525.1,398.8c-0.6-0.4-1.3-0.8-2.1-0.8c-1.1,0-1.8,0.7-1.8,1.5c0,0.8,0.7,1.4,2.2,2.5
		c1.7,1.1,2.5,2.2,2.5,3.8c0,1.8-1.8,3.1-3.6,3.1c-1.1,0-2.5-0.4-3.3-1.3l0.7-1c0.7,0.4,1.4,1,2.5,1c1.1,0,2.1-0.6,2.1-1.9
		c0-1.5-1.8-2.4-2.6-3.1c-1-0.7-2.1-1.5-2.1-3.1s1.5-2.8,3.3-2.8c1.3,0,2.2,0.4,2.9,1.1L525.1,398.8z"/>
	<path fill="#FFFFFF" d="M539.7,399.1c-0.6-0.4-1.8-1-3.1-1c-2.9,0-4.6,2.1-4.6,4.9c0,2.9,2.1,4.9,4.6,4.9c1.3,0,2.2-0.4,2.9-0.8
		l0.7,1c-0.8,0.6-2.2,1.1-3.6,1.1c-4.2,0-6.3-2.8-6.3-6.1c0-2.9,2.4-6,6.5-6c1.7,0,2.8,0.6,3.6,1.3L539.7,399.1z"/>
	<path fill="#FFFFFF" d="M544.7,408.7V397h1.7v11.7H544.7z"/>
	<path fill="#FFFFFF" d="M557.3,398.2h-4.2v3.8h4v1.1h-4v4.5h4.9v1.1h-6.5V397h5.7v1.3H557.3z"/>
	<path fill="#FFFFFF" d="M572.6,408.7h-1.3c-2.5-3.1-7-8.2-7.7-9.3l0,0v9.3h-1.4V397h1.3c2.5,3.1,6.8,8.2,7.7,9.3l0,0V397h1.4V408.7
		z"/>
	<path fill="#FFFFFF" d="M586.8,399.1c-0.6-0.4-1.8-1-3.1-1c-2.9,0-4.6,2.1-4.6,4.9c0,2.9,2.1,4.9,4.6,4.9c1.3,0,2.2-0.4,2.9-0.8
		l0.7,1c-0.8,0.6-2.2,1.1-3.6,1.1c-4.2,0-6.3-2.8-6.3-6.1c0-2.9,2.4-6,6.5-6c1.7,0,2.8,0.6,3.6,1.3L586.8,399.1z"/>
	<path fill="#FFFFFF" d="M597.7,398.2h-4.2v3.8h4v1.1h-4v4.5h4.9v1.1h-6.5V397h5.7v1.3H597.7z"/>
	<path fill="#FFFFFF" d="M608.1,398.8c-0.6-0.4-1.3-0.8-2.1-0.8c-1.1,0-1.8,0.7-1.8,1.5c0,0.8,0.7,1.4,2.2,2.5
		c1.7,1.1,2.5,2.2,2.5,3.8c0,1.8-1.8,3.1-3.6,3.1c-1.1,0-2.5-0.4-3.3-1.3l0.7-1c0.7,0.4,1.4,1,2.5,1c1.1,0,2.1-0.6,2.1-1.9
		c0-1.5-1.8-2.4-2.6-3.1c-1-0.7-2.1-1.5-2.1-3.1s1.5-2.8,3.3-2.8c1.3,0,2.2,0.4,2.9,1.1L608.1,398.8z"/>
</g>
</svg>
