<?xml version="1.0" encoding="utf-8"?>
<!-- Generator: Adobe Illustrator 16.0.0, SVG Export Plug-In . SVG Version: 6.00 Build 0)  -->
<!DOCTYPE svg PUBLIC "-//W3C//DTD SVG 1.1//EN" "http://www.w3.org/Graphics/SVG/1.1/DTD/svg11.dtd">
<svg version="1.1" id="Layer_1" xmlns="http://www.w3.org/2000/svg" xmlns:xlink="http://www.w3.org/1999/xlink" x="0px" y="0px"
	 width="150px" height="109.895px" viewBox="0 0 150 109.895" enable-background="new 0 0 150 109.895" xml:space="preserve">
<g>
	<path fill="#5E6A71" d="M32.628,103.159c-0.379-0.279-0.881-0.558-1.35-0.558c-0.781,0-1.216,0.457-1.216,1.06
		c0,0.558,0.48,0.971,1.483,1.695c1.071,0.781,1.695,1.495,1.695,2.499c0,1.238-1.171,2.041-2.42,2.041
		c-0.747,0-1.64-0.268-2.197-0.814l0.48-0.647c0.457,0.324,0.959,0.681,1.695,0.681c0.77,0,1.361-0.413,1.361-1.283
		c0-0.981-1.171-1.617-1.807-2.086c-0.647-0.501-1.372-0.981-1.372-2.085c0-1.049,1.016-1.84,2.231-1.84
		c0.814,0,1.495,0.29,1.93,0.781L32.628,103.159z"/>
	<path fill="#5E6A71" d="M43.662,109.761h-1.082v-7.808h1.963c1.651,0,2.666,0.736,2.666,2.253c0,1.316-1.126,2.51-2.877,2.51
		h-0.346v-0.714l0.357-0.011c1.048-0.056,1.707-0.613,1.707-1.773c0-0.859-0.479-1.483-1.64-1.483h-0.748V109.761z"/>
	<path fill="#5E6A71" d="M55.979,105.724c0-2.186,1.651-3.904,3.904-3.904c2.253,0,3.904,1.718,3.904,3.904
		c0,2.331-1.495,4.171-3.904,4.171C57.474,109.895,55.979,108.055,55.979,105.724z M62.594,105.724c0-1.461-0.781-3.123-2.711-3.123
		c-1.929,0-2.71,1.662-2.71,3.123c0,1.528,0.691,3.391,2.71,3.391C61.902,109.115,62.594,107.251,62.594,105.724z"/>
	<path fill="#5E6A71" d="M74.152,105.445l3.38-3.603l0.736,0.48l-3.023,3.179l3.424,3.959l-1.06,0.413l-3.435-4.161h-0.023v4.049
		h-1.082v-7.808h1.082V105.445z"/>
	<path fill="#5E6A71" d="M90.518,101.954l2.911,7.808H92.18l-0.803-2.297h-2.978l-0.837,2.297h-1.049l3.18-7.808H90.518z
		 M91.121,106.683c-0.391-1.082-0.771-2.164-1.161-3.569h-0.021c-0.402,1.405-0.814,2.487-1.238,3.569H91.121z"/>
	<path fill="#5E6A71" d="M108.97,109.761h-0.848c-1.695-2.03-4.605-5.532-5.074-6.213h-0.022v6.213h-0.893v-7.808h0.804
		c1.717,2.03,4.595,5.443,5.119,6.224h0.021v-6.224h0.893V109.761z"/>
	<path fill="#5E6A71" d="M122.504,102.734h-2.767v2.521h2.711v0.781h-2.711v2.944h3.246v0.781h-4.328v-7.808h3.849V102.734z"/>
</g>
<g>
	<g>
		<g>
			<path fill="#5E6A71" d="M95.618,83.021c-1.569-1.177-2.668-1.835-2.668-2.934c0-1.159,0.816-1.633,1.728-1.633
				c1.254,0,1.85,0.879,1.976,1.979h0.408v-2.056c0-0.078-0.017-0.142-0.11-0.171c-0.628-0.22-1.521-0.297-2.196-0.297
				c-1.805,0-3.371,1.112-3.371,2.525c0,0.763,0.211,1.31,0.518,1.729h-0.006c0.008,0.007,0.015,0.012,0.02,0.018
				c0.382,0.507,0.903,0.831,1.365,1.139c2.354,1.554,2.883,2.385,2.902,3.403c0.044,2.265-4.196,3.455-6.988-0.895l-1.449-2.205
				c1.141-0.444,2.071-1.495,2.071-3.02c0-1.734-1.496-2.514-2.988-2.514H82.52v0.383c1.332,0.159,1.272,0.089,1.272,1.463v6.66
				c0,1.381,0.06,1.304-1.272,1.466v0.385h3.983v-0.385c-1.334-0.162-1.276-0.084-1.276-1.466v-2.736h1.395
				c1.788,2.975,2.233,4.267,3.134,4.587c0.203,0.071,2.524,0.818,4.165,0.818c1.883,0,3.893-1.035,3.893-2.901
				C97.812,85.061,97.279,84.259,95.618,83.021z M86.459,83.542h-1.232v-4.824h1.14c1.079,0,1.972,0.561,1.972,2.177
				C88.338,82.567,87.745,83.542,86.459,83.542z"/>
			<path fill="#5E6A71" d="M56.68,88.431c0,0,0,0-7.243-8.582v6.575c0,0.311,0.061,0.564,0.087,0.802
				c0.077,0.536,0.584,0.744,1.564,0.819v0.386h-3.644v-0.386c0.717-0.076,1.205-0.283,1.279-0.819
				c0.03-0.238,0.09-0.491,0.09-0.802v-7.005c-0.415-0.535-0.88-1.011-1.724-1.011v-0.391h2.704
				c2.217,2.695,4.524,5.431,6.739,8.125h0.03v-6.115c0-0.313-0.061-0.564-0.091-0.803c-0.076-0.535-0.577-0.741-1.56-0.816v-0.391
				h3.643v0.391c-0.698,0.075-1.205,0.281-1.281,0.816c-0.029,0.239-0.087,0.49-0.087,0.803v8.405H56.68z"/>
			<path fill="#5E6A71" d="M62.524,86.571c0,1.386-0.059,1.309,1.278,1.474v0.386h-4v-0.386c1.34-0.165,1.279-0.088,1.279-1.474
				v-6.692c0-1.38,0.061-1.31-1.279-1.471v-0.385h4v0.385c-1.337,0.161-1.278,0.091-1.278,1.471V86.571z"/>
			<path fill="#5E6A71" d="M81.447,85.752c-0.684,1.593-0.58,2.204-2.735,2.204c-1.339,0-1.921-0.106-1.921-1.372v-3.36h1.252
				c0.995,0,1.339,0.524,1.366,1.4h0.386v-3.17h-0.386c-0.027,0.922-0.431,1.295-1.366,1.295h-1.252v-4.251h2.362
				c1.068,0,1.368,0.815,1.515,1.917h0.386v-2.393h-6.85h-2.946v0.385c1.009,0,1.397,0.459,1.025,1.398
				c-0.922,2.276-1.83,4.564-2.783,6.84c-0.772-2.259-1.634-4.816-2.211-6.572c-0.494-1.43,0.103-1.667,0.922-1.667v-0.385h-3.783
				v0.385c0.717,0,0.908,0.459,1.461,2.052c0.906,2.528,1.919,5.398,2.826,7.972h0.757c1.251-3.049,2.515-6.084,3.763-9.13
				c0.313-0.745,0.535-0.894,0.969-0.894c1.338,0.161,1.146,0.091,1.146,1.471v6.692c0,1.386,0.192,1.309-1.146,1.474v0.386h7.184
				l0.446-2.678H81.447z"/>
			<path fill="#5E6A71" d="M101.374,86.571c0,1.386-0.063,1.309,1.277,1.474v0.386h-4.002v-0.386
				c1.34-0.165,1.281-0.088,1.281-1.474v-6.692c0-1.38,0.059-1.31-1.281-1.471v-0.385h4.002v0.385
				c-1.341,0.161-1.277,0.091-1.277,1.471V86.571z"/>
			<path fill="#5E6A71" d="M116.583,78.022v0.385c0.877,0,1.353,0.429,0.846,1.337l-2.05,3.736l-1.801-3.736
				c-0.373-0.774-0.475-1.337,0.653-1.337v-0.385h-2.492h-1.032h-6.926l-0.402,2.271h0.373c0.487-0.98,0.786-1.795,2.079-1.795
				h1.208v8.073c0,1.386,0.058,1.309-1.281,1.474v0.386h4.001v-0.386c-1.337-0.165-1.28-0.088-1.28-1.474v-8.073h1.207
				c1.219,0,2.039,0.727,2.541,1.631l2.094,4.154v2.287c0,1.386,0.062,1.309-1.277,1.474v0.386h3.999v-0.386
				c-1.336-0.165-1.278-0.088-1.278-1.474v-1.666c0-0.37,0.029-0.789,0.18-1.085l2.482-4.506c0.402-0.714,0.804-0.906,1.22-0.906
				v-0.385H116.583z"/>
			<path fill="#5E6A71" d="M47.106,78.013l-4.687,0.012v0.389c0.938,0.101,1.62,0.515,1.718,1.236
				c0.04,0.317,0.123,0.657,0.123,1.077v5.56c0,3.203-1.444,5.04-4.182,5.04c-2.981,0-3.876-2.139-3.876-4.941v-5.86
				c0-1.86,0.055-1.893,1.855-2.113v-0.389h-5.383v0.389c1.803,0.22,1.723,0.253,1.723,2.113v5.961c0,3.62,1.319,5.783,5.578,5.783
				c2.581,0,5.325-1.601,5.325-5.902v-5.641c0-0.035,0-0.067,0-0.1c-0.019-1.736,0.656-1.989,1.793-2.173L47.106,78.013z"/>
		</g>
		<g>
			<path fill="#5E6A71" d="M37.04,70.561c0,1.377-0.059,1.302,1.272,1.466v0.383h-3.983v-0.383c1.333-0.164,1.273-0.089,1.273-1.466
				v-6.667c0-1.375-0.641-1.301-1.974-1.464v-0.383h4.683v0.383c-1.332,0.163-1.272,0.089-1.272,1.464v2.565h5.198v-2.565
				c0-1.375,0.058-1.301-1.274-1.464v-0.383h3.983v0.383c-1.332,0.163-1.274,0.089-1.274,1.464v6.667
				c0,1.377-0.058,1.302,1.274,1.466v0.383h-3.983v-0.383c1.333-0.164,1.274-0.089,1.274-1.466v-3.497H37.04V70.561z"/>
			<path fill="#5E6A71" d="M49.288,70.561c0,1.377-0.061,1.302,1.272,1.466v0.383h-3.982v-0.383
				c1.332-0.164,1.272-0.089,1.272-1.466v-6.667c0-1.375,0.059-1.301-1.272-1.464v-0.383h3.982v0.383
				c-1.333,0.163-1.272,0.089-1.272,1.464V70.561z"/>
			<path fill="#5E6A71" d="M61.599,72.411c-2.355-2.782-4.799-5.702-7.21-8.545v6.547c0,0.309,0.058,0.562,0.09,0.798
				c0.073,0.535,0.575,0.739,1.552,0.816v0.383h-3.627v-0.383c0.71-0.077,1.199-0.281,1.274-0.816
				c0.029-0.236,0.089-0.49,0.089-0.798v-6.976c-0.417-0.532-0.874-1.006-1.719-1.006v-0.383h2.695
				c2.207,2.678,4.501,5.404,6.708,8.083h0.029v-6.085c0-0.312-0.059-0.565-0.089-0.801c-0.073-0.534-0.578-0.739-1.555-0.814
				v-0.383h3.629v0.383c-0.696,0.075-1.199,0.28-1.275,0.814c-0.028,0.236-0.088,0.489-0.088,0.801v8.365H61.599z"/>
			<path fill="#5E6A71" d="M63.781,67.169c0-2.28,1.926-5.303,5.923-5.303c1.435,0,2.116,0.268,2.843,0.507
				c0.414,0.133,0.577,0.338,0.577,0.576v1.91H72.74c-0.044-1.185-0.8-2.472-3.154-2.472c-3.095,0-4.103,2.131-4.116,4.664
				c-0.016,2.338,1.168,5.022,4.175,5.022c1.851,0,2.013-0.685,2.013-1.837v-0.905c0-1.378,0.058-1.302-1.57-1.466v-0.383h4.28
				v0.383c-1.332,0.164-1.272,0.088-1.272,1.466v2.578c-0.948,0.37-2.192,0.682-3.54,0.682
				C66.521,72.59,63.781,71.138,63.781,67.169z"/>
			<path fill="#5E6A71" d="M79.449,70.561c0,1.377-0.059,1.302,1.272,1.466v0.383h-3.982v-0.383
				c1.331-0.164,1.272-0.089,1.272-1.466V62.52h-1.201c-1.289,0-1.583,0.812-2.072,1.791h-0.37l0.401-2.263h7.922l0.399,2.263
				h-0.369c-0.488-0.979-0.784-1.791-2.073-1.791h-1.199V70.561z"/>
			<path fill="#5E6A71" d="M83.091,67.42c0-3.2,2.488-5.554,5.568-5.554c3.212,0,5.077,2.77,5.077,5.052
				c0,3.125-2.339,5.672-5.612,5.672C85.296,72.59,83.091,70.295,83.091,67.42z M92.048,67.362c0-3.54-1.909-4.976-3.717-4.976
				c-2.516,0-3.551,2.249-3.551,4.264c0,3.585,1.834,5.422,3.744,5.422C91.279,72.072,92.048,69.347,92.048,67.362z"/>
			<path fill="#5E6A71" d="M103.289,72.411c-2.356-2.782-4.797-5.702-7.213-8.545v6.547c0,0.309,0.06,0.562,0.091,0.798
				c0.073,0.535,0.577,0.739,1.553,0.816v0.383h-3.627v-0.383c0.711-0.077,1.199-0.281,1.273-0.816c0.03-0.236,0.09-0.49,0.09-0.798
				v-6.976c-0.415-0.532-0.874-1.006-1.72-1.006v-0.383h2.697c2.207,2.678,4.499,5.404,6.708,8.083h0.027v-6.085
				c0-0.312-0.059-0.565-0.089-0.801c-0.073-0.534-0.575-0.739-1.555-0.814v-0.383h3.628v0.383c-0.696,0.075-1.198,0.28-1.272,0.814
				c-0.03,0.236-0.089,0.489-0.089,0.801v8.365H103.289z"/>
			<path fill="#5E6A71" d="M20.379,60.064v-0.016h-4.005v0.497c1.546,0.017,1.798,0.568,1.392,1.737l-3.031,8.255h-0.167
				l-3.57-10.319h-0.904l-3.75,10.319H6.088l-2.688-8.2c-0.382-1.298,0.152-1.792,1.354-1.792v-0.497H0v0.497
				c1.01,0,1.192,0.786,1.84,2.651l3.451,10.2H6.2l3.692-10.404l3.639,10.415h1.017c1.556-4.143,3.749-10.27,4.554-11.919
				c0.3-0.619,0.843-0.938,1.349-0.938v-0.486H20.379z"/>
			<path fill="#5E6A71" d="M31.03,66.848c-1.559-1.168-2.649-1.823-2.649-2.914c0-1.152,0.81-1.622,1.714-1.622
				c1.247,0,1.837,0.874,1.963,1.965h0.404v-2.042c0-0.078-0.016-0.14-0.109-0.171c-0.623-0.218-1.511-0.297-2.182-0.297
				c-1.791,0-3.349,1.107-3.349,2.51c0,0.761,0.209,1.301,0.516,1.718h-0.005c0.006,0.005,0.012,0.011,0.019,0.016
				c0.376,0.506,0.895,0.827,1.354,1.133c2.338,1.542,2.883,2.368,2.883,3.381c0,0.942-0.708,1.885-2.01,1.979
				c-1.333,0.096-3.049-0.549-3.77-2.421c-0.641-1.794-1.945-5.568-2.825-8.172h-0.858c-1.23,3.273-2.895,8.071-3.533,9.374
				c-0.235,0.49-0.664,0.741-1.065,0.741v0.385h0.64h2.054v-0.385c-0.651,0-0.932-0.488-0.74-1.067l0.682-1.984h3.776l0.636,1.91
				l0.491,1.472c0,0,2.648,0.694,4.371,0.694c1.87,0,3.771-1.029,3.771-2.883C33.211,68.874,32.681,68.079,31.03,66.848z
				 M20.389,68.412L22.15,63.6h0.029l1.571,4.812H20.389z"/>
		</g>
		<g>
			<path fill="#5E6A71" d="M115.391,62.737c-0.158-1.397-0.917-2.513-2.508-2.513c-1.158,0-2.326,0.598-2.326,2.071
				c0,1.396,1.395,2.231,3.389,3.727c2.109,1.574,2.789,2.59,2.789,4.244c0,2.37-2.299,3.685-4.688,3.685
				c-1.277,0-2.374-0.241-3.409-0.638c-0.078-0.04-0.14-0.12-0.14-0.276v-2.873h0.518c0.222,2.21,1.672,3.089,3.21,3.089
				c1.413,0,2.7-1.076,2.7-2.529c0-1.297-0.697-2.353-3.686-4.321c-1.075-0.716-2.409-1.498-2.409-3.665
				c0-1.799,1.856-3.211,4.148-3.211c0.858,0,1.993,0.099,2.79,0.38c0.12,0.036,0.139,0.12,0.139,0.219v2.612H115.391z"/>
			<path fill="#5E6A71" d="M121.762,70.571c0,1.38-0.057,1.301,1.276,1.469v0.381h-3.986V72.04c1.333-0.168,1.275-0.089,1.275-1.469
				v-8.045h-1.202c-1.288,0-1.585,0.816-2.073,1.791h-0.367l0.397-2.263h7.924l0.401,2.263h-0.371
				c-0.488-0.975-0.784-1.791-2.071-1.791h-1.203V70.571z"/>
			<path fill="#5E6A71" d="M126.933,68.984l-0.679,1.986c-0.193,0.581,0.088,1.069,0.739,1.069v0.381h-2.696V72.04
				c0.399,0,0.83-0.257,1.066-0.743c0.637-1.305,2.369-6.146,3.6-9.421h0.828c1.008,2.977,2.518,7.543,3.021,8.86
				c0.329,0.826,0.564,1.305,1.201,1.305v0.381h-3.452V72.04c0.933,0,1.025-0.489,0.788-1.144l-0.64-1.912H126.933z M130.52,68.424
				l-1.57-4.816h-0.029l-1.765,4.816H130.52z"/>
			<path fill="#5E6A71" d="M138.06,70.571c0,1.38-0.06,1.301,1.272,1.469v0.381h-3.985V72.04c1.334-0.168,1.276-0.089,1.276-1.469
				v-8.045h-1.201c-1.29,0-1.583,0.816-2.074,1.791h-0.371l0.402-2.263h7.925l0.397,2.263h-0.371
				c-0.485-0.975-0.781-1.791-2.069-1.791h-1.201V70.571z"/>
			<path fill="#5E6A71" d="M142.401,72.04c1.336-0.168,1.144-0.089,1.144-1.469v-6.667c0-1.377,0.192-1.304-1.144-1.466v-0.383
				h6.488v2.38h-0.387c-0.148-1.092-0.441-1.908-1.508-1.908h-2.019v4.241h1.244c0.933,0,1.336-0.372,1.361-1.291h0.388v3.152
				h-0.388c-0.025-0.875-0.367-1.393-1.361-1.393h-1.244v3.347c0,1.264,0.58,1.369,1.914,1.369c2.147,0,2.043-0.609,2.727-2.195H150
				l-0.446,2.665h-7.152V72.04z"/>
		</g>
	</g>
	<g>
		<g>
			<g>
				<g>
					<path fill="#5E6A71" d="M83.051,44.1l-7.586,5.414l-7.58-5.414c-5.39-3.694-10.009-6.861-12.429-11.672
						c2,9.019,10.794,12.39,20.009,19.622c9.216-7.232,18.016-10.604,20.016-19.622C93.059,37.238,88.439,40.406,83.051,44.1z"/>
					<g>
						<path fill="#981E32" d="M54.409,0v0.946c0.585,0.203,0.778,0.389,0.841,1.247V23.99c0,12.125,9.84,15.328,20.222,23.475
							c10.383-8.146,20.228-11.349,20.228-23.475V1.949c0.077-0.662,0.288-0.822,0.814-1.003V0H54.409z"/>
					</g>
				</g>
			</g>
		</g>
		<g>
			<g>
				<g>
					<path fill="#FFFFFF" d="M79.566,35.485c0,0,1.684-0.718,2.603-3.507c0.812,1.7,0.598,3.449,0.598,3.449
						C82.024,35.594,79.566,35.485,79.566,35.485z"/>
					<path fill="#FFFFFF" d="M88.602,19.54c0,0,1.023,5.6-2.606,5.793c-3.504,0.184-5.16-5.103-5.16-5.103s0.848,10.332,5.76,9.652
						C92.131,29.116,88.602,19.54,88.602,19.54z"/>
				</g>
			</g>
			<path fill="#FFFFFF" d="M61.914,34.152c0.002,0,0.005,0,0.007,0c4.098-0.935,7.233-5.73,8.155-7.655l0.583-1.221l0.354,1.307
				c0.018,0.073,0.401,1.509,0.401,3.411c0,0.208-0.006,0.426-0.017,0.645c1.413,0.052,2.42-0.233,3.05-0.885
				c0.898-0.938,1.17-2.704,0.832-5.407c-0.164-1.294-0.641-3.353-1.062-5.168c-0.217-0.927-0.42-1.805-0.542-2.425
				c-0.79-3.972,0.189-6.436,1.15-7.803c0.152-0.217,0.315-0.422,0.488-0.617c-2.831,0.958-5.208,2.446-7.662,4.901l1.724,2.008
				l0.706-0.66c0.664,2.49,0.188,4.786,0.188,4.786c-0.908-1.387-1.98-2.51-1.98-2.51l0.472-0.792l-1.555-1.812l-0.181-0.201
				c-1.911,2.633-2.531,4.791-2.531,4.791l1.358,1.238l0.791,0.719l0.263-0.762c1.459,2.736,0.129,5.296,0.129,5.296
				c-0.243-0.935-1.2-2.312-1.2-2.312l0.378-1.255l-2.017-1.833c-2.1,6.577-4.908,8.709-4.908,8.709s3.039-0.549,4.727-1.118
				C64.014,27.528,63.967,30.995,61.914,34.152z"/>
			<path fill="#FFFFFF" d="M92.539,10.43l-4.846,0.206c0.005,0.574-0.073,1.151-0.26,1.698c0.453,1.985,0.143,3.063,0.143,3.063
				c-0.813-1.893-1.435-2.417-1.435-2.417c-4.448-1.987-6.948,2.5-6.682,5.393c0.22,2.376,1.077,5.532,1.75,10.481
				c0.566,4.165-1.537,5.962-3.959,6.377c-0.052,0.009-0.103,0.019-0.156,0.027c-0.013,0-0.024,0.005-0.037,0.005
				c-0.391,0.05-0.811,0.069-1.251,0.056c-0.016,0-0.031,0-0.043,0c-0.049,0-0.098-0.006-0.145-0.006
				c-0.188-0.013-0.377-0.03-0.562-0.056c-1.88-0.258-6.095-1.027-10.447-1.132c2.56-1.501,4.562-4.093,5.678-5.935
				c0.067,0.511,0.122,1.132,0.122,1.817c0,0.342-0.015,0.698-0.048,1.067l-0.042,0.499l0.5,0.045
				c2.003,0.174,3.427-0.208,4.348-1.169c1.142-1.187,1.49-3.167,1.107-6.229c-0.169-1.347-0.652-3.431-1.078-5.271
				c-0.216-0.921-0.42-1.79-0.537-2.396c-0.72-3.62,0.137-5.819,0.983-7.024c0.667-0.948,1.584-1.638,2.59-1.972
				c0.018-0.001,0.033-0.006,0.053-0.006l1.65-5.097h0.52l-1.108,4.896c0.258-0.049,0.52-0.089,0.786-0.128l1.424-4.514h0.517
				l-0.935,4.372c1.479-0.192,3.08-0.339,4.858-0.473c0.289,0.121,0.596,0.452,0.873,0.916l4.667-1.44l0.169,0.502l-4.456,1.74
				c0.035,0.091,0.068,0.188,0.103,0.283l4.873-0.607l0.082,0.525l-4.733,0.946c0.018,0.089,0.031,0.177,0.044,0.267l4.926,0.157
				L92.539,10.43z M78.499,12.615c0.977-0.687,2.64-1.216,4.198-1.097c0.397,0.033,0.73-0.071,0.303-0.301
				c-1.168-0.616-3.885-0.407-4.848,0.253c-1.542,1.055-1.281,2.931-1.244,2.976C77.215,13.908,77.737,13.152,78.499,12.615z"/>
		</g>
	</g>
</g>
</svg>
