<?xml version="1.0" encoding="utf-8"?>
<!-- Generator: Adobe Illustrator 16.0.0, SVG Export Plug-In . SVG Version: 6.00 Build 0)  -->
<!DOCTYPE svg PUBLIC "-//W3C//DTD SVG 1.1//EN" "http://www.w3.org/Graphics/SVG/1.1/DTD/svg11.dtd">
<svg version="1.1" id="Layer_1" xmlns="http://www.w3.org/2000/svg" xmlns:xlink="http://www.w3.org/1999/xlink" x="0px" y="0px"
	 width="216px" height="72px" viewBox="0 0 216 72" enable-background="new 0 0 216 72" xml:space="preserve">
<g>
	<g>
		<g>
			<g>
				<g>
					<path fill="#5E6A71" d="M57.701,56.272l-4.826,3.438l-4.822-3.438c-3.43-2.344-6.369-4.354-7.909-7.406
						c1.272,5.723,6.868,7.863,12.731,12.453c5.865-4.59,11.464-6.73,12.734-12.453C64.07,51.919,61.131,53.929,57.701,56.272z"/>
					<g>
						<path fill="#981E32" d="M39.479,28.286v0.6c0.372,0.129,0.495,0.248,0.533,0.791v13.834c0,7.695,6.264,9.729,12.869,14.898
							c6.605-5.17,12.87-7.203,12.87-14.898V29.524c0.048-0.422,0.184-0.523,0.519-0.639v-0.6H39.479z"/>
					</g>
				</g>
			</g>
		</g>
		<g>
			<g>
				<g>
					<path fill="#FFFFFF" d="M55.484,50.806c0,0,1.072-0.455,1.658-2.225c0.516,1.076,0.381,2.188,0.381,2.188
						C57.05,50.874,55.484,50.806,55.484,50.806z"/>
					<path fill="#FFFFFF" d="M61.234,40.687c0,0,0.65,3.557-1.658,3.676c-2.23,0.117-3.283-3.238-3.283-3.238
						s0.54,6.559,3.664,6.127C63.48,46.765,61.234,40.687,61.234,40.687z"/>
				</g>
			</g>
			<path fill="#FFFFFF" d="M44.254,49.96h0.005c2.607-0.592,4.602-3.637,5.188-4.857l0.371-0.775l0.226,0.828
				c0.011,0.049,0.253,0.959,0.253,2.164c0,0.133-0.002,0.273-0.01,0.41c0.901,0.033,1.542-0.146,1.941-0.561
				c0.572-0.596,0.744-1.717,0.528-3.43c-0.103-0.824-0.407-2.129-0.675-3.281c-0.137-0.59-0.266-1.146-0.346-1.541
				c-0.502-2.52,0.121-4.084,0.734-4.951c0.096-0.137,0.199-0.268,0.31-0.393c-1.802,0.609-3.313,1.553-4.876,3.111l1.098,1.275
				l0.449-0.418c0.423,1.58,0.119,3.035,0.119,3.035c-0.576-0.879-1.259-1.592-1.259-1.592l0.3-0.502l-0.989-1.15l-0.116-0.127
				c-1.217,1.672-1.611,3.039-1.611,3.039l0.864,0.787l0.504,0.455l0.167-0.484c0.929,1.738,0.081,3.363,0.081,3.363
				c-0.153-0.594-0.764-1.469-0.764-1.469l0.24-0.795l-1.282-1.162c-1.336,4.172-3.122,5.525-3.122,5.525s1.932-0.35,3.009-0.709
				C45.592,45.757,45.561,47.954,44.254,49.96z"/>
			<path fill="#FFFFFF" d="M63.739,34.903l-3.083,0.133c0.003,0.363-0.047,0.73-0.166,1.078c0.289,1.26,0.092,1.943,0.092,1.943
				c-0.518-1.201-0.912-1.535-0.912-1.535c-2.831-1.26-4.422,1.586-4.252,3.424c0.141,1.508,0.686,3.51,1.113,6.652
				c0.361,2.643-0.979,3.783-2.518,4.045c-0.034,0.006-0.067,0.014-0.102,0.02c-0.008,0-0.016,0.002-0.023,0.002
				c-0.25,0.031-0.514,0.045-0.797,0.037c-0.01,0-0.018,0-0.027,0c-0.03,0-0.062-0.006-0.092-0.006
				c-0.119-0.006-0.238-0.02-0.355-0.033c-1.197-0.166-3.88-0.652-6.649-0.719c1.63-0.953,2.903-2.6,3.614-3.766
				c0.043,0.322,0.077,0.717,0.077,1.15c0,0.219-0.011,0.443-0.03,0.678l-0.027,0.316l0.318,0.029
				c1.274,0.111,2.182-0.133,2.768-0.742c0.726-0.752,0.947-2.01,0.704-3.953c-0.108-0.854-0.415-2.178-0.688-3.344
				c-0.135-0.586-0.265-1.137-0.341-1.521c-0.457-2.297,0.088-3.693,0.627-4.457c0.425-0.604,1.008-1.041,1.646-1.252
				c0.012,0,0.021-0.004,0.034-0.006l1.052-3.232h0.33l-0.707,3.105c0.165-0.029,0.332-0.057,0.502-0.08l0.905-2.865h0.329
				l-0.595,2.775c0.94-0.123,1.961-0.215,3.093-0.301c0.182,0.076,0.379,0.287,0.554,0.582l2.969-0.914l0.108,0.32l-2.836,1.104
				c0.023,0.057,0.045,0.119,0.064,0.18l3.103-0.387l0.052,0.334L60.582,34.3c0.012,0.057,0.021,0.111,0.027,0.168l3.134,0.1
				L63.739,34.903z M54.807,36.292c0.622-0.436,1.68-0.773,2.67-0.695c0.254,0.02,0.466-0.045,0.194-0.191
				c-0.743-0.393-2.474-0.26-3.085,0.16c-0.98,0.67-0.815,1.859-0.793,1.889C53.988,37.114,54.323,36.634,54.807,36.292z"/>
		</g>
	</g>
	<g>
		<g>
			<path fill="#5E6A71" d="M147.907,37.322c-2.039-1.528-3.466-2.385-3.466-3.81c0-1.506,1.06-2.12,2.243-2.12
				c1.629,0,2.403,1.142,2.564,2.568h0.531V31.29c0-0.1-0.02-0.182-0.143-0.221c-0.813-0.286-1.975-0.388-2.852-0.388
				c-2.345,0-4.379,1.445-4.379,3.279c0,0.99,0.273,1.702,0.675,2.244h-0.008c0.01,0.01,0.018,0.018,0.024,0.024
				c0.494,0.657,1.172,1.078,1.772,1.479c3.057,2.019,3.745,3.098,3.771,4.421c0.056,2.94-5.452,4.485-9.077-1.163l-1.881-2.863
				c1.48-0.577,2.688-1.94,2.688-3.922c0-2.253-1.941-3.266-3.879-3.266h-5.596v0.498c1.729,0.208,1.651,0.116,1.651,1.902v8.648
				c0,1.794,0.077,1.692-1.651,1.902v0.501h5.171v-0.501c-1.733-0.21-1.655-0.108-1.655-1.902v-3.555h1.811
				c2.322,3.863,2.898,5.54,4.07,5.958c0.263,0.094,3.278,1.063,5.409,1.063c2.442,0,5.054-1.347,5.054-3.769
				C150.757,39.97,150.064,38.93,147.907,37.322z M136.011,38h-1.598v-6.266h1.481c1.4,0,2.56,0.727,2.56,2.826
				C138.454,36.732,137.684,38,136.011,38z"/>
			<path fill="#5E6A71" d="M95.039,31.33c1.28,0.098,1.93,0.364,2.027,1.06c0.039,0.31,0.118,0.636,0.118,1.042v7.941h-0.039
				c-2.876-3.498-5.872-7.02-8.751-10.519h-8.176v0.388c0.94,0.102,1.622,0.515,1.722,1.236c0.039,0.319,0.122,0.658,0.122,1.08
				v5.567c0,3.208-1.445,5.048-4.188,5.048c-2.984,0-3.881-2.143-3.881-4.948v-5.868c0-1.861,0.055-1.896,1.858-2.115v-0.388h-5.391
				v0.388c1.806,0.22,1.724,0.254,1.724,2.115v5.969c0,3.626,1.323,5.791,5.587,5.791c2.585,0,5.331-1.601,5.331-5.908v-5.65
				c0-0.034,0-0.066,0-0.1c-0.018-1.729,0.652-1.989,1.779-2.173l0,0c1.098,0,1.701,0.663,2.239,1.356v9.098
				c0,0.403-0.076,0.732-0.116,1.041c-0.096,0.697-0.73,0.967-1.661,1.063v0.501h4.731v-0.501c-1.272-0.097-1.932-0.366-2.029-1.063
				c-0.035-0.309-0.115-0.638-0.115-1.041v-8.538c9.406,11.144,9.406,11.144,9.406,11.144h0.658V33.432
				c0-0.406,0.076-0.732,0.113-1.042c0.101-0.695,0.758-0.962,1.665-1.06v-0.507h-4.735V31.33z"/>
			<path fill="#5E6A71" d="M101.396,31.33c1.739,0.209,1.658,0.116,1.658,1.91v8.69c0,1.801,0.081,1.702-1.658,1.914v0.501h5.193
				v-0.501c-1.734-0.212-1.658-0.113-1.658-1.914v-8.69c0-1.794-0.076-1.701,1.658-1.91v-0.501h-5.193V31.33z"/>
			<path fill="#5E6A71" d="M125.954,43.731c-1.74,0-2.495-0.139-2.495-1.781v-4.365h1.624c1.293,0,1.738,0.681,1.776,1.82h0.499
				v-4.118h-0.499c-0.038,1.198-0.561,1.684-1.776,1.684h-1.624v-5.524h3.066c1.387,0,1.777,1.06,1.967,2.491h0.5v-3.108h-8.894
				h-3.827v0.501c1.312,0,1.814,0.596,1.331,1.816c-1.198,2.954-2.376,5.925-3.613,8.882c-1.003-2.934-2.122-6.254-2.871-8.534
				c-0.642-1.857,0.133-2.164,1.196-2.164v-0.501h-4.912v0.501c0.931,0,1.179,0.596,1.897,2.665
				c1.177,3.282,2.493,7.008,3.67,10.351h0.983c1.623-3.959,3.264-7.898,4.886-11.855c0.406-0.969,0.695-1.16,1.26-1.16
				c1.735,0.209,1.485,0.116,1.485,1.91v8.69c0,1.801,0.25,1.702-1.485,1.914v0.501h9.328l0.581-3.477h-0.505
				C128.615,42.938,128.751,43.731,125.954,43.731z"/>
			<path fill="#5E6A71" d="M151.845,31.33c1.739,0.209,1.662,0.116,1.662,1.91v8.69c0,1.801,0.077,1.702-1.662,1.914v0.501h5.195
				v-0.501c-1.737-0.212-1.657-0.113-1.657-1.914v-8.69c0-1.794-0.08-1.701,1.657-1.91v-0.501h-5.195V31.33z"/>
			<path fill="#5E6A71" d="M175.132,30.829v0.501c1.14,0,1.758,0.556,1.1,1.736l-2.663,4.853l-2.338-4.853
				c-0.483-1.004-0.616-1.736,0.849-1.736v-0.501h-3.236h-1.341h-8.995l-0.522,2.949h0.484c0.636-1.272,1.022-2.332,2.7-2.332h1.569
				v10.484c0,1.801,0.077,1.702-1.663,1.914v0.501h5.196v-0.501c-1.739-0.212-1.663-0.113-1.663-1.914V31.446h1.568
				c1.581,0,2.648,0.945,3.298,2.121l2.722,5.394v2.97c0,1.801,0.077,1.702-1.66,1.914v0.501h5.192v-0.501
				c-1.735-0.212-1.659-0.113-1.659-1.914v-2.162c0-0.482,0.04-1.024,0.23-1.41l3.226-5.853c0.522-0.927,1.043-1.176,1.585-1.176
				v-0.501H175.132z"/>
		</g>
		<g>
			<path fill="#5E6A71" d="M57.801,20.981c0,1.825-0.079,1.727,1.685,1.941v0.509h-5.274v-0.509
				c1.764-0.215,1.686-0.116,1.686-1.941v-8.829c0-1.821-0.848-1.723-2.612-1.938V9.707h6.201v0.508
				c-1.764,0.215-1.685,0.116-1.685,1.938v3.397h6.883v-3.397c0-1.821,0.078-1.723-1.688-1.938V9.707h5.275v0.508
				c-1.763,0.215-1.688,0.116-1.688,1.938v8.829c0,1.825-0.075,1.727,1.688,1.941v0.509h-5.275v-0.509
				c1.766-0.215,1.688-0.116,1.688-1.941v-4.631h-6.883V20.981z"/>
			<path fill="#5E6A71" d="M74.021,20.981c0,1.825-0.08,1.727,1.686,1.941v0.509h-5.274v-0.509c1.765-0.215,1.687-0.116,1.687-1.941
				v-8.829c0-1.821,0.078-1.723-1.687-1.938V9.707h5.274v0.508c-1.766,0.215-1.686,0.116-1.686,1.938V20.981z"/>
			<path fill="#5E6A71" d="M90.326,23.432c-3.117-3.685-6.354-7.552-9.549-11.318v8.673c0,0.408,0.077,0.744,0.118,1.058
				c0.098,0.708,0.763,0.978,2.057,1.079v0.509h-4.803v-0.509c0.939-0.102,1.588-0.371,1.687-1.079
				c0.039-0.313,0.118-0.649,0.118-1.058v-9.24c-0.552-0.703-1.159-1.331-2.277-1.331V9.707h3.57
				c2.923,3.545,5.962,7.156,8.883,10.704h0.038v-8.06c0-0.413-0.076-0.747-0.117-1.061c-0.096-0.705-0.766-0.979-2.059-1.076V9.707
				h4.807v0.508c-0.923,0.098-1.588,0.371-1.689,1.076c-0.038,0.313-0.116,0.647-0.116,1.061v11.08H90.326z"/>
			<path fill="#5E6A71" d="M93.218,16.49c0-3.02,2.551-7.025,7.844-7.025c1.903,0,2.807,0.355,3.768,0.673
				c0.55,0.175,0.765,0.448,0.765,0.762v2.531h-0.51c-0.059-1.57-1.059-3.274-4.179-3.274c-4.099,0-5.433,2.821-5.451,6.176
				c-0.021,3.098,1.549,6.651,5.529,6.651c2.454,0,2.67-0.907,2.67-2.434v-1.197c0-1.825,0.076-1.725-2.081-1.941v-0.507h5.67v0.507
				c-1.764,0.217-1.686,0.116-1.686,1.941v3.415c-1.256,0.488-2.903,0.9-4.689,0.9C96.846,23.668,93.218,21.746,93.218,16.49z"/>
			<path fill="#5E6A71" d="M113.97,20.981c0,1.825-0.077,1.727,1.687,1.941v0.509h-5.274v-0.509
				c1.763-0.215,1.685-0.116,1.685-1.941v-10.65h-1.591c-1.706,0-2.097,1.076-2.745,2.373h-0.488l0.53-2.997h10.491l0.53,2.997
				h-0.491c-0.645-1.297-1.037-2.373-2.743-2.373h-1.59V20.981z"/>
			<path fill="#5E6A71" d="M118.794,16.822c0-4.238,3.293-7.357,7.372-7.357c4.256,0,6.728,3.671,6.728,6.692
				c0,4.139-3.098,7.511-7.434,7.511C121.716,23.668,118.794,20.63,118.794,16.822z M130.657,16.745
				c0-4.689-2.528-6.589-4.923-6.589c-3.333,0-4.704,2.979-4.704,5.646c0,4.747,2.43,7.181,4.96,7.181
				C129.638,22.983,130.657,19.374,130.657,16.745z"/>
			<path fill="#5E6A71" d="M145.545,23.432c-3.121-3.685-6.354-7.552-9.552-11.318v8.673c0,0.408,0.077,0.744,0.117,1.058
				c0.099,0.708,0.765,0.978,2.059,1.079v0.509h-4.805v-0.509c0.942-0.102,1.589-0.371,1.688-1.079
				c0.039-0.313,0.117-0.649,0.117-1.058v-9.24c-0.549-0.703-1.155-1.331-2.275-1.331V9.707h3.571
				c2.922,3.545,5.959,7.156,8.883,10.704h0.037v-8.06c0-0.413-0.078-0.747-0.116-1.061c-0.099-0.705-0.764-0.979-2.059-1.076V9.707
				h4.803v0.508c-0.921,0.098-1.586,0.371-1.685,1.076c-0.04,0.313-0.119,0.647-0.119,1.061v11.08H145.545z"/>
			<path fill="#5E6A71" d="M35.735,7.079V7.059h-5.305v0.656c2.048,0.022,2.38,0.754,1.843,2.301l-4.015,10.934h-0.223L23.309,7.283
				h-1.196l-4.968,13.666h-0.337l-3.56-10.86c-0.506-1.72,0.199-2.374,1.793-2.374V7.059H8.744v0.656
				c1.338,0,1.578,1.042,2.438,3.512l4.57,13.51h1.203l4.89-13.779l4.819,13.793h1.347c2.062-5.486,4.964-13.601,6.032-15.786
				c0.396-0.819,1.115-1.241,1.786-1.241V7.079H35.735z"/>
			<path fill="#5E6A71" d="M49.84,16.065c-2.062-1.548-3.507-2.415-3.507-3.86c0-1.525,1.073-2.147,2.27-2.147
				c1.651,0,2.435,1.157,2.601,2.603h0.535V9.956c0-0.104-0.02-0.187-0.145-0.228c-0.824-0.288-2.001-0.393-2.889-0.393
				c-2.372,0-4.436,1.467-4.436,3.324c0,1.007,0.277,1.723,0.684,2.276h-0.006c0.008,0.007,0.016,0.013,0.023,0.021
				c0.5,0.669,1.188,1.094,1.795,1.499c3.096,2.043,3.818,3.138,3.818,4.479c0,1.248-0.937,2.497-2.662,2.621
				c-1.766,0.128-4.037-0.728-4.992-3.206c-0.849-2.378-2.575-7.376-3.74-10.825h-1.138c-1.628,4.336-3.835,10.69-4.679,12.416
				c-0.311,0.648-0.881,0.981-1.412,0.981v0.51h0.85h2.721v-0.51c-0.863,0-1.235-0.647-0.98-1.413l0.902-2.628h5l0.844,2.529
				l0.649,1.95c0,0,3.509,0.918,5.79,0.918c2.477,0,4.994-1.363,4.994-3.816C52.73,18.746,52.027,17.694,49.84,16.065z
				 M35.748,18.137l2.332-6.375h0.039l2.08,6.375H35.748z"/>
		</g>
		<g>
			<path fill="#5E6A71" d="M161.572,10.619c-0.21-1.851-1.213-3.328-3.323-3.328c-1.531,0-3.077,0.791-3.077,2.742
				c0,1.85,1.846,2.955,4.486,4.937c2.794,2.084,3.693,3.432,3.693,5.621c0,3.138-3.044,4.88-6.207,4.88
				c-1.693,0-3.143-0.319-4.518-0.845c-0.102-0.053-0.182-0.158-0.182-0.366v-3.803h0.685c0.292,2.928,2.214,4.09,4.249,4.09
				c1.874,0,3.576-1.426,3.576-3.352c0-1.716-0.923-3.114-4.879-5.722c-1.425-0.95-3.192-1.983-3.192-4.854
				c0-2.383,2.46-4.253,5.497-4.253c1.133,0,2.639,0.133,3.693,0.504c0.158,0.048,0.185,0.16,0.185,0.29v3.459H161.572z"/>
			<path fill="#5E6A71" d="M170.012,20.995c0,1.827-0.075,1.723,1.688,1.946v0.504h-5.277v-0.504
				c1.766-0.224,1.688-0.119,1.688-1.946V10.34h-1.591c-1.707,0-2.1,1.081-2.746,2.372h-0.487l0.526-2.997h10.496l0.529,2.997
				h-0.489c-0.646-1.291-1.04-2.372-2.744-2.372h-1.592V20.995z"/>
			<path fill="#5E6A71" d="M176.856,18.894l-0.897,2.632c-0.256,0.768,0.116,1.416,0.979,1.416v0.504h-3.569v-0.504
				c0.526,0,1.099-0.342,1.412-0.984c0.843-1.729,3.138-8.141,4.767-12.479h1.099c1.332,3.943,3.331,9.99,4.001,11.733
				c0.433,1.095,0.748,1.729,1.589,1.729v0.504h-4.57v-0.504c1.235,0,1.355-0.648,1.042-1.517l-0.847-2.531H176.856z M181.61,18.15
				l-2.082-6.378h-0.038l-2.335,6.378H181.61z"/>
			<path fill="#5E6A71" d="M191.596,20.995c0,1.827-0.078,1.723,1.686,1.946v0.504h-5.279v-0.504c1.768-0.224,1.69-0.119,1.69-1.946
				V10.34h-1.591c-1.708,0-2.096,1.081-2.747,2.372h-0.491l0.534-2.997h10.493l0.527,2.997h-0.492
				c-0.642-1.291-1.033-2.372-2.739-2.372h-1.591V20.995z"/>
			<path fill="#5E6A71" d="M197.347,22.941c1.768-0.224,1.514-0.119,1.514-1.946v-8.831c0-1.824,0.254-1.727-1.514-1.941V9.715
				h8.592v3.152h-0.512c-0.194-1.446-0.584-2.527-1.997-2.527h-2.672v5.617h1.648c1.235,0,1.766-0.493,1.802-1.709h0.512v4.174
				h-0.512c-0.036-1.16-0.487-1.845-1.802-1.845h-1.648v4.433c0,1.674,0.767,1.812,2.533,1.812c2.845,0,2.707-0.807,3.61-2.906
				h0.509l-0.591,3.529h-9.473V22.941z"/>
		</g>
	</g>
</g>
<g>
	<path fill="#5E6A71" d="M76.325,54.457h-2.729v2.926h2.673v0.771h-2.673v3.234h-1.067v-7.701h3.795V54.457z"/>
	<path fill="#5E6A71" d="M81.549,57.405c0-2.156,1.628-3.851,3.851-3.851c2.223,0,3.851,1.694,3.851,3.851
		c0,2.299-1.474,4.114-3.851,4.114C83.023,61.52,81.549,59.704,81.549,57.405z M88.073,57.405c0-1.441-0.771-3.081-2.674-3.081
		c-1.903,0-2.673,1.64-2.673,3.081c0,1.507,0.682,3.345,2.673,3.345C87.391,60.75,88.073,58.912,88.073,57.405z"/>
	<path fill="#5E6A71" d="M95.783,53.687v4.665c0,1.595,0.594,2.431,1.969,2.431c1.441,0,1.925-1.144,1.925-2.244v-4.852h1.001v4.874
		c0,1.727-1.067,2.959-2.926,2.959c-2.167,0-3.037-1.144-3.037-3.124v-4.709H95.783z"/>
	<path fill="#5E6A71" d="M113.285,61.388h-0.836c-1.673-2.002-4.544-5.457-5.006-6.128h-0.022v6.128h-0.88v-7.701h0.792
		c1.694,2.002,4.532,5.369,5.05,6.139h0.021v-6.139h0.881V61.388z"/>
	<path fill="#5E6A71" d="M121.721,53.687c3.103,0,4.181,1.771,4.181,3.619c0,2.553-1.628,4.082-4.356,4.082h-2.288v-7.701H121.721z
		 M120.324,60.617h1.188c2.168,0,3.213-1.078,3.213-3.333c0-1.717-0.957-2.827-2.981-2.827h-1.419V60.617z"/>
	<path fill="#5E6A71" d="M133.084,53.687l2.871,7.701h-1.232l-0.792-2.267h-2.937l-0.826,2.267h-1.033l3.135-7.701H133.084z
		 M133.678,58.352c-0.385-1.067-0.759-2.135-1.145-3.521h-0.021c-0.396,1.386-0.803,2.453-1.221,3.521H133.678z"/>
	<path fill="#5E6A71" d="M141.125,61.388v-6.931h-2.465v-0.771h6.007v0.771h-2.476v6.931H141.125z"/>
	<path fill="#5E6A71" d="M149.771,61.388v-7.701h1.067v7.701H149.771z"/>
	<path fill="#5E6A71" d="M156.414,57.405c0-2.156,1.629-3.851,3.851-3.851c2.223,0,3.851,1.694,3.851,3.851
		c0,2.299-1.475,4.114-3.851,4.114S156.414,59.704,156.414,57.405z M162.938,57.405c0-1.441-0.771-3.081-2.674-3.081
		s-2.673,1.64-2.673,3.081c0,1.507,0.682,3.345,2.673,3.345S162.938,58.912,162.938,57.405z"/>
	<path fill="#5E6A71" d="M176.436,61.388H175.6c-1.673-2.002-4.544-5.457-5.006-6.128h-0.022v6.128h-0.88v-7.701h0.792
		c1.694,2.002,4.532,5.369,5.05,6.139h0.021v-6.139h0.881V61.388z"/>
</g>
</svg>
