<svg xmlns="http://www.w3.org/2000/svg" viewBox="0 0 612 496">
	<path fill="#981e32" d="M220.1.1v3.7c2.4.8 3.3 1.6 3.3 4.9V98c0 49.4 40 62.4 82.4 95.9 42.8-33.5 82.8-46.5 82.8-95.9V8.2c.4-2.9 1.2-3.3 3.3-4.1V0H220.1v.1z"/>
	<g fill="#fff">
		<path d="M322.9 144.9s6.9-2.9 10.6-14.3c3.3 6.9 2.4 13.9 2.4 13.9-3.2.8-13 .4-13 .4zm36.7-65.2s4.1 22.8-10.6 23.7c-14.3.8-21.2-20.8-21.2-20.8s3.3 42 23.7 39.6c22.4-3.4 8.1-42.5 8.1-42.5zm-108.9 59.9c16.7-3.7 29.4-23.3 33.5-31.4l2.4-4.9 1.6 5.3c0 .4 1.6 6.1 1.6 13.9v2.4c5.7.4 9.8-.8 12.6-3.7 3.7-3.7 4.9-11 3.3-22-.8-5.3-2.4-13.9-4.5-21.2-.8-3.7-1.6-7.3-2-9.8-3.3-16.3.8-26.1 4.9-31.8.8-.8 1.2-1.6 2-2.4a80.7 80.7 0 0 0-31.4 20l6.9 8.2 2.9-2.9c2.9 10.2.8 19.6.8 19.6-3.7-5.7-8.2-10.2-8.2-10.2l2-3.3-6.5-7.3-1.2-.4a65.2 65.2 0 0 0-10.2 19.6l5.7 4.9 3.3 2.9 1.2-3.3c6.1 11 .4 21.6.4 21.6-.8-3.7-4.9-9.4-4.9-9.4l1.6-5.3-8.2-7.3c-8.6 26.9-20 35.5-20 35.5s12.2-2 19.2-4.5c-.3-.1-.3 14.2-8.8 27.2z"/>
		<path d="M375.5 42.5l-19.6.8c0 2.4-.4 4.9-1.2 6.9 2 8.2.4 12.6.4 12.6a28 28 0 0 0-5.7-9.8c-18-8.2-28.2 10.2-27.3 22 .8 9.8 4.5 22.4 7.3 42.8 2.4 17.1-6.1 24.5-16.3 26.1h-.8c-1.6 0-3.3.4-5.3.4h-.4c-.8 0-1.6 0-2.4-.4-7.8-1.2-24.9-4.1-42.4-4.5a71.4 71.4 0 0 0 23.3-24.1c.4 2 .4 4.5.4 7.3v6.5h2c8.2.8 13.9-.8 17.5-4.9 4.5-4.9 6.1-13.1 4.5-25.3-.8-5.3-2.9-13.9-4.5-21.6-.8-3.7-1.6-7.3-2-9.8-2.9-14.7.4-23.7 4.1-28.6 2.9-3.7 6.5-6.5 10.6-8.2h.4L325 9.9h2l-4.5 20c1.2 0 2-.4 3.3-.4l5.7-18.4h2l-3.7 18c6.1-.8 12.6-1.2 20-2 1.2.4 2.4 2 3.7 3.7l19.2-5.7.8 2-18.4 6.9c0 .4.4.8.4 1.2l18.8-2.9.4 2-19.2 3.7v1.2l20 .8v2.5zm-57.1 9a28 28 0 0 1 17.1-4.5c1.6 0 2.9-.4 1.2-1.2-4.9-2.4-15.9-1.6-19.6 1.2-6.1 4.5-5.3 11.8-4.9 12.2.9-2.4 2.9-5.2 6.2-7.7z"/>
	</g>
	<path fill="#5e6a71" d="M337.1 180l-31 22-31-22c-22-15.1-40.8-28.2-50.6-47.7 8.2 36.7 44.1 50.6 81.6 80 37.5-29.4 73.4-43.2 81.6-80-9.8 19.6-28.9 32.6-50.6 47.7z"/>
	<g fill="#5e6a71">
		<path d="M390 338.7c-6.5-4.9-11-7.3-11-11.8 0-4.9 3.3-6.5 6.9-6.5 5.3 0 7.3 3.7 8.2 8.2h1.6V320c0-.4 0-.4-.4-.8-2.4-.8-6.1-1.2-9-1.2-7.3 0-13.9 4.5-13.9 10.2 0 3.3.8 5.3 2 6.9 1.6 2 3.7 3.3 5.7 4.5 9.8 6.5 11.8 9.8 11.8 13.9 0 9.4-17.1 14.3-28.6-3.7l-5.7-9a13 13 0 0 0 8.6-12.2c0-6.9-6.1-10.2-12.2-10.2h-17.5v1.6c5.3.8 5.3.4 5.3 6.1v27.3c0 5.7.4 5.3-5.3 6.1v1.6h16.3v-1.6c-5.3-.8-5.3-.4-5.3-6.1v-11h5.7c7.3 12.2 9 17.5 12.6 18.8.8.4 10.2 3.3 17.1 3.3 7.8 0 15.9-4.1 15.9-11.8.2-5.4-1.8-8.7-8.8-14zm-37.1 2.1H348v-19.6h4.5c4.5 0 8.2 2.4 8.2 9-.4 6.9-2.9 10.6-7.8 10.6zm-121.6 20l-29.4-35.1v26.9c0 1.2.4 2.4.4 3.3.4 2 2.4 2.9 6.5 3.3v1.6h-14.7v-1.6c2.9-.4 4.9-1.2 5.3-3.3 0-.8.4-2 .4-3.3V324c-1.6-2-3.7-4.1-6.9-4.1v-1.6h11c9 11 18.4 22 27.3 33v-24.9c0-1.2-.4-2.4-.4-3.3-.4-2-2.4-2.9-6.5-3.3v-1.6H239v1.6c-2.9.4-4.9 1.2-5.3 3.3 0 .8-.4 2-.4 3.3v34.3l-2 .1zm23.7-7.4c0 5.7-.4 5.3 5.3 6.1v1.6H244v-2c5.3-.8 5.3-.4 5.3-6.1v-27.3c0-5.7.4-5.3-5.3-6.1v-1.2h16.3v1.6c-5.3.8-5.3.4-5.3 6.1v27.3zm77.1-3.2c-2.9 6.5-2.4 9-11 9-5.3 0-7.8-.4-7.8-5.7v-13.9h4.9c4.1 0 5.3 2 5.7 5.7h1.6v-13.1H324c0 3.7-1.6 5.3-5.7 5.3H313V320h9.8c4.5 0 5.7 3.3 6.1 7.8h1.6v-9.4H291v1.6c4.1 0 5.7 2 4.1 5.7-3.7 9.4-7.3 18.8-11.4 27.7-3.3-9.4-6.5-19.6-9-26.9-2-5.7.4-6.9 3.7-6.9v-1.2h-15.5v1.6c2.9 0 3.7 2 6.1 8.6 3.7 10.2 7.8 22 11.4 32.6h3.3c5.3-12.2 10.2-24.9 15.5-37.1 1.2-2.9 2-3.7 4.1-3.7 5.3.8 4.5.4 4.5 6.1v27.3c0 5.7.8 5.3-4.5 6.1v1.6h29.4l1.6-11-2.2-.3zm81.6 3.2c0 5.7-.4 5.3 5.3 6.1v1.6h-16.3v-2c5.3-.8 5.3-.4 5.3-6.1v-27.3c0-5.7.4-5.3-5.3-6.1v-1.2H419v1.6c-5.3.8-5.3.4-5.3 6.1v27.3zm62-35.1v1.6c3.7 0 5.7 1.6 3.3 5.3l-8.6 15.1-7.3-15.1c-1.6-3.3-2-5.3 2.9-5.3v-1.6h-42.5l-1.6 9.4h1.6c2-4.1 3.3-7.3 8.6-7.3h4.9v33c0 5.7.4 5.3-5.3 6.1v1.6H448v-2c-5.3-.8-5.3-.4-5.3-6.1v-33h4.9c4.9 0 8.2 2.9 10.2 6.5l8.6 17.1v9.4c0 5.7.4 5.3-5.3 6.1v1.6h16.3v-1.6c-5.3-.8-5.3-.4-5.3-6.1v-6.9c0-1.6 0-3.3.8-4.5l10.2-18.4c1.6-2.9 3.3-3.7 4.9-3.7v-1.2h-12.3zm-283.5 0H173v1.6c3.7.4 6.5 2 6.9 4.9 0 1.2.4 2.9.4 4.5v22.8c0 13.1-5.7 20.4-17.1 20.4-12.2 0-15.9-8.6-15.9-20v-24.1c0-7.8.4-7.8 7.8-8.6v-1.6h-22v1.6c7.3.8 6.9 1.2 6.9 8.6V353c0 14.7 5.3 23.7 22.8 23.7 10.6 0 21.6-6.5 21.6-24.1v-23.2c0-6.9 2.9-8.2 7.3-9l.5-2.1zM151 288.1c0 5.7-.4 5.3 5.3 6.1v1.6H140v-2c5.3-.8 5.3-.4 5.3-6.1v-27.3c0-5.7-2.4-5.3-8.2-6.1v-1.2h19.2v1.6c-5.3.8-5.3.4-5.3 6.1v10.6h21.2v-10.6c0-5.7.4-5.3-5.3-6.1v-1.6h16.3v1.6c-5.3.8-5.3.4-5.3 6.1v27.3c0 5.7-.4 5.3 5.3 6.1v1.6h-16.3v-2c5.3-.8 5.3-.4 5.3-6.1v-14.3H151v14.7zm50.1 0c0 5.7-.4 5.3 5.3 6.1v1.6h-16.3v-2c5.3-.8 5.3-.4 5.3-6.1v-27.3c0-5.7.4-5.3-5.3-6.1v-1.2h16.3v1.6c-5.3.8-5.3.4-5.3 6.1v27.3zm50.2 7.4c-9.8-11.4-19.6-23.3-29.4-34.7v26.5c0 1.2.4 2.4.4 3.3.4 2 2.4 2.9 6.5 3.3v1.6h-14.7v-1.6c2.9-.4 4.9-1.2 5.3-3.3 0-.8.4-2 .4-3.3v-28.6c-1.6-2-3.7-4.1-6.9-4.1V253h11c9 11 18.4 22 27.3 33v-24.9c0-1.2-.4-2.4-.4-3.3-.4-2-2.4-2.9-6.5-3.3v-1.6H259v1.6c-2.9.4-4.9 1.2-5.3 3.3 0 .8-.4 2-.4 3.3v34.3h-2v.1zm9-21.2c0-9.4 7.8-21.6 24.1-21.6 5.7 0 8.6 1.2 11.4 2 1.6.4 2.4 1.2 2.4 2.4v7.8h-1.6c0-4.9-3.3-10.2-13.1-10.2-12.6 0-16.7 8.6-16.7 19.2 0 9.4 4.9 20.4 17.1 20.4 7.8 0 8.2-2.9 8.2-7.3v-3.7c0-5.7.4-5.3-6.5-6.1v-1.6h17.5v1.6c-5.3.4-4.9.4-4.9 5.7v10.6c-3.7 1.6-9 2.9-14.3 2.9-12.6-.1-23.6-6.2-23.6-22.1zm63.7 13.8c0 5.7-.4 5.3 5.3 6.1v1.6H313v-2c5.3-.8 5.3-.4 5.3-6.1v-32.6h-4.9c-5.3 0-6.5 3.3-8.6 7.3h-1.6l1.6-9.4H337l1.6 9.4H337c-2-4.1-3.3-7.3-8.6-7.3h-4.9c.5 0 .5 33 .5 33zm15-13a22.5 22.5 0 0 1 22.8-22.8 21 21 0 0 1 20.8 20.8c0 12.6-9.4 23.3-22.8 23.3a20.9 20.9 0 0 1-20.8-21.3zm36.4 0c0-14.3-7.8-20.4-15.1-20.4-10.2 0-14.7 9-14.7 17.5 0 14.7 7.3 22 15.1 22 11.8.1 14.7-11.4 14.7-19.1zm46.1 20.4c-9.8-11.4-19.6-23.3-29.4-34.7v26.5c0 1.2.4 2.4.4 3.3.4 2 2.4 2.9 6.5 3.3v1.6h-14.7v-1.6c2.9-.4 4.9-1.2 5.3-3.3 0-.8.4-2 .4-3.3v-28.6c-1.6-2-3.7-4.1-6.9-4.1V253h11c9 11 18.4 22 27.3 33v-24.9c0-1.2-.4-2.4-.4-3.3-.4-2-2.4-2.9-6.5-3.3v-1.6h14.7v1.6c-2.9.4-4.9 1.2-5.3 3.3 0 .8-.4 2-.4 3.3v34.3h-2v.1zM83.2 245.3H66.9v2c6.1 0 7.3 2.4 5.7 6.9l-12.2 33.9h-.8l-14.7-42.4h-3.7l-15.5 42h-.8l-11-33.5c-1.6-5.3.8-7.3 5.7-7.3v-2H0v2c4.1 0 4.9 3.3 7.3 11l14.3 41.6h3.7l15.1-42.4 14.7 42.4h4.1c6.5-16.7 15.1-42 18.8-48.6 1.2-2.4 3.3-3.7 5.3-3.7v-1.9h-.1zm43.3 27.3c-6.5-4.9-10.6-7.3-10.6-11.8 0-4.9 3.3-6.5 6.9-6.5 4.9 0 7.3 3.7 8.2 8.2h1.6v-8.2c0-.4 0-.4-.4-.8-2.4-.8-6.1-1.2-9-1.2-7.3 0-13.5 4.5-13.5 10.2 0 3.3.8 5.3 2 6.9 1.6 2 3.7 3.3 5.7 4.5 9.4 6.1 11.8 9.8 11.8 13.9 0 3.7-2.9 7.8-8.2 8.2-5.3.4-12.2-2-15.5-9.8l-11.4-33.5h-3.7c-4.9 13.5-11.8 33-14.3 38.4-.8 2-2.9 2.9-4.5 2.9v1.6h11V294c-2.9 0-3.7-2-2.9-4.5l2.9-8.2h15.5l2.4 7.8 2 6.1s10.6 2.9 18 2.9c7.8 0 15.5-4.1 15.5-11.8-.5-5.1-2.6-8.4-9.5-13.7zm-43.3 6.6l7.3-19.6 6.5 19.6H83.2zm387.6-23.3c-.8-5.7-3.7-10.2-10.2-10.2-4.9 0-9.4 2.4-9.4 8.6 0 5.7 5.7 9 13.9 15.1 8.6 6.5 11.4 10.6 11.4 17.1 0 9.8-9.4 15.1-19.2 15.1-5.3 0-9.8-.8-13.9-2.4-.4 0-.4-.4-.4-1.2v-11.8h2c.8 9 6.9 12.6 13.1 12.6 5.7 0 11-4.5 11-10.2 0-5.3-2.9-9.8-15.1-17.5-4.5-2.9-9.8-6.1-9.8-15.1 0-7.3 7.8-13.1 16.7-13.1 3.7 0 8.2.4 11.4 1.6.4 0 .4.4.4.8v10.6h-1.9zm26.1 32.2c0 5.7-.4 5.3 5.3 6.1v1.6h-16.3v-2c5.3-.8 5.3-.4 5.3-6.1v-32.6h-4.9c-5.3 0-6.5 3.3-8.6 7.3h-1.6l1.6-9.4H510l1.6 9.4H510c-2-4.1-3.3-7.3-8.6-7.3h-4.9c.4 0 .4 33 .4 33zm20.9-6.5l-2.9 8.2c-.8 2.4.4 4.5 2.9 4.5v1.6h-11v-2c1.6 0 3.3-1.2 4.5-2.9 2.4-5.3 9.8-24.9 14.7-38.4h3.3l12.2 36.3c1.2 3.3 2.4 5.3 4.9 5.3v1.6H532v-2c3.7 0 4.1-2 3.3-4.5l-2.4-7.8h-15.1v.1zm14.6-2.4l-6.5-19.6-7.3 19.6h13.8zm31 8.9c0 5.7-.4 5.3 5.3 6.1v1.6h-16.3v-2c5.3-.8 5.3-.4 5.3-6.1v-32.6h-4.9c-5.3 0-6.5 3.3-8.6 7.3h-1.6l1.6-9.4h32.2l1.6 9.4h-1.6c-2-4.1-3.3-7.3-8.6-7.3H563l.4 33zm17.6 5.8c5.3-.8 4.5-.4 4.5-6.1v-27.3c0-5.7.8-5.3-4.5-6.1v-1.6h26.5v9.8h-1.6c-.4-4.5-1.6-7.8-6.1-7.8h-8.2v17.1h4.9c3.7 0 5.3-1.6 5.7-5.3h1.6v13.1h-1.6c0-3.7-1.6-5.7-5.7-5.7h-4.9v13.5c0 5.3 2.4 5.7 7.8 5.7 8.6 0 8.2-2.4 11-9h1.6l-1.6 11H581v-1.3z"/>
		<path d="M136.2 447.2H132V432h-14.9v15.2h-4.2v-30.5h4.2V429H132v-12.3h4.2v30.5zm24.5-27.5h-10.8v9.9h10.6v3.1h-10.6v11.5h12.7v3.1h-16.9v-30.5h15v2.9zm22.5-3l11.4 30.5h-4.9l-3.1-9H175l-3.3 9h-4.1l12.4-30.5h3.2zm2.3 18.5c-1.5-4.2-3-8.5-4.5-14h-.1c-1.6 5.5-3.2 9.7-4.8 14h9.4zm15.1-18.5h4.2v27.5h12.8v3.1h-17v-30.6zm28.2 30.5v-27.5H219v-3.1h23.8v3.1H233v27.5h-4.2zm43.8 0h-4.2V432h-14.9v15.2h-4.2v-30.5h4.2V429h14.9v-12.3h4.2v30.5zm39.3-25.8a9.6 9.6 0 0 0-5.3-2.2c-3.1 0-4.8 1.8-4.8 4.1 0 2.2 1.9 3.8 5.8 6.6 4.2 3.1 6.6 5.8 6.6 9.8 0 4.8-4.6 8-9.5 8-2.9 0-6.4-1-8.6-3.2l1.9-2.5c1.8 1.3 3.7 2.7 6.6 2.7 3 0 5.3-1.6 5.3-5 0-3.8-4.6-6.3-7.1-8.2-2.5-2-5.4-3.8-5.4-8.2 0-4.1 4-7.2 8.7-7.2 3.2 0 5.8 1.1 7.5 3.1l-1.7 2.2zm32.9.5a13.7 13.7 0 0 0-8-2.7c-7.5 0-12 5.4-12 12.6 0 7.7 5.3 12.9 12 12.9 3.3 0 5.9-1 7.7-2.3l1.7 2.5a18 18 0 0 1-9.6 2.8c-10.9 0-16.4-7.5-16.4-15.9 0-7.7 6-15.7 17-15.7 4.4 0 7.4 1.5 9.4 3.1l-1.8 2.7zm9.4 25.3v-30.5h4.2v30.5h-4.2zm29.1-27.5h-10.8v9.9h10.6v3.1h-10.6v11.5h12.7v3.1h-16.9v-30.5h15v2.9zm36 27.5H416a729 729 0 0 1-19.8-24.3h-.1v24.3h-3.5v-30.5h3.1c6.7 7.9 18 21.3 20 24.3h.1v-24.3h3.5v30.5zm30.8-25.3a13.7 13.7 0 0 0-8-2.7c-7.5 0-12 5.4-12 12.6 0 7.7 5.3 12.9 12 12.9 3.3 0 5.9-1 7.7-2.3l1.7 2.5a18 18 0 0 1-9.6 2.8c-10.9 0-16.4-7.5-16.4-15.9 0-7.7 6-15.7 17-15.7 4.4 0 7.4 1.5 9.4 3.1l-1.8 2.7zm23.2-2.2h-10.8v9.9h10.6v3.1h-10.6v11.5h12.7v3.1h-16.9v-30.5h15v2.9zm23.5 1.7a9.6 9.6 0 0 0-5.3-2.2c-3.1 0-4.8 1.8-4.8 4.1 0 2.2 1.9 3.8 5.8 6.6 4.2 3.1 6.6 5.8 6.6 9.8 0 4.8-4.6 8-9.5 8-2.9 0-6.4-1-8.6-3.2l1.9-2.5c1.8 1.3 3.7 2.7 6.6 2.7 3 0 5.3-1.6 5.3-5 0-3.8-4.6-6.3-7.1-8.2-2.5-2-5.4-3.8-5.4-8.2 0-4.1 4-7.2 8.7-7.2 3.2 0 5.8 1.1 7.5 3.1l-1.7 2.2zm-272.1 48a9.6 9.6 0 0 0-5.3-2.2c-3.2 0-4.9 1.8-4.9 4.1 0 2.2 2 3.8 5.8 6.6 4.2 3.1 6.6 5.8 6.6 9.8 0 4.8-4.6 8-9.5 8-2.9 0-6.4-1-8.6-3.2l2-2.5c1.7 1.3 3.6 2.7 6.5 2.7 3 0 5.3-1.6 5.3-5 0-3.8-4.5-6.3-7-8.2-2.5-2-5.4-3.8-5.4-8.2 0-4.1 4-7.2 8.7-7.2 3.1 0 5.7 1.1 7.4 3.1l-1.7 2.2zm14.5 25.8H235v-30.5h7.7c6.5 0 10.4 2.9 10.4 8.8 0 5.1-4.4 9.8-11.3 9.8h-1.5v-2.8h1.4c4.2-.2 6.8-2.4 6.8-6.9 0-3.4-2-5.8-6.5-5.8h-2.9v27.4zm17.8-15.8a15 15 0 0 1 15.2-15.3 15 15 0 0 1 15.4 15.3c0 9.1-5.9 16.3-15.4 16.3-9.4 0-15.2-7.2-15.2-16.3zm25.7 0c0-5.7-3-12.2-10.5-12.2-7.6 0-10.7 6.5-10.7 12.2 0 6 2.7 13.3 10.6 13.3 8 0 10.6-7.3 10.6-13.3zm14.6-1.1l13.1-14.1 3 1.9-11.9 12.4L315 494l-4 1.6-13.5-16.3v15.8H293v-30.5h4.2v13.7zm37.6-13.6l11.4 30.5h-5l-3-9h-11.7l-3.3 9h-4l12.3-30.5h3.2zm2.3 18.5c-1.5-4.2-3-8.5-4.5-14h-.1c-1.7 5.5-3.3 9.7-4.9 14h9.5zm41.4 12h-3.4a729 729 0 0 1-19.7-24.3h-.2v24.3h-3.5v-30.5h3.1c6.8 7.9 18 21.3 20 24.3h.2v-24.3h3.4v30.5zm22.7-27.5h-10.9v9.9h10.7v3.1h-10.7v11.5h12.8v3.1h-17v-30.5h15v2.9z"/>
	</g>
</svg>