<svg xmlns="http://www.w3.org/2000/svg" xml:space="preserve" viewBox="0 0 332.35999 240.14667"><path fill="#ae0c33" d="M194.326662 170.662805s8.713333-3.720267 13.489333-18.128133c4.208 8.780267 3.108 17.807866 3.108 17.807866-3.857334.8656-16.597333.320267-16.597333.320267M241.13466 88.26134s5.314667 28.960266-13.511999 29.949866c-18.162666.9464-26.717333-26.367199-26.717333-26.367199s4.390667 53.376132 29.854666 49.859999c28.668-3.9532 10.374667-53.442666 10.374667-53.442666M102.84373 163.773205c.014667-.007733.028667-.007733.028667-.007733 21.228667-4.833333 37.4996-29.6068 42.2676-39.5516l3.036-6.296932 1.826666 6.740666c.088.364 2.068 7.804133 2.068 17.618266 0 1.092134-.029333 2.205734-.088 3.333334 7.324.2776 12.550666-1.207867 15.805333-4.586534 4.666666-4.818666 6.064-13.9552 4.332-27.918132-.86-6.6832-3.326667-17.312533-5.518667-26.6952-1.121333-4.797333-2.177333-9.333333-2.817333-12.544-4.090667-20.514665.990667-33.254665 5.969333-40.323998.793333-1.113333 1.645333-2.168 2.549333-3.158667-14.698666 4.936-27.017332 12.624-39.727599 25.318666l8.9396 10.366667 3.654667-3.421334c3.465333 12.878667.974666 24.737333.974666 24.737333-4.701333-7.162666-10.249333-12.972-10.249333-12.972l2.424-4.077333-8.0588-9.361333-.931733-1.048c-9.9084 13.605333-13.111466 24.736-13.111466 24.736l7.025466 6.436 4.0912 3.705333 1.375467-3.945334c7.564533 14.145333.655733 27.3648.655733 27.3648-1.237467-4.818667-6.2172-11.946133-6.2172-11.946133l1.9652-6.486667-10.460933-9.464c-10.876133 33.975466-25.4068 44.9828-25.4068 44.9828s15.716667-2.8312 24.474533-5.772934c0 0-.240133 17.9088-10.8756 34.238"/><path fill="#ae0c33" d="M188.785329 52.486675c5.066666-3.552 13.686666-6.282667 21.773332-5.664 2.045334.153333 3.778667-.385333 1.573334-1.549333-6.049333-3.189334-20.152-2.104-25.138666 1.294666-7.985333 5.445333-6.632 15.150666-6.449334 15.384 1.594667-2.781333 4.294667-6.705333 8.241334-9.465333m72.769331-11.290667-25.116 1.062667c.016 2.956-.377333 5.954666-1.338666 8.786666 2.344 10.250667.713333 15.812.713333 15.812-4.2-9.776-7.396-12.492-7.396-12.492-23.070665-10.242666-36.029332 12.921333-34.638665 27.868 1.129333 12.281333 5.590666 28.580532 9.064 54.155998 2.926666 21.5188-7.972 30.8224-20.508 32.954666-.269333.0376-.545333.088133-.822667.146933-.073333 0-.130666 0-.197333.014534-2.037333.262533-4.192.3704-6.470666.319866-.073334-.021333-.168-.021333-.241334-.021333-.253333 0-.494666-.036-.748-.036-.977333-.0588-1.937333-.159867-2.890666-.277067-9.756-1.346933-31.596-5.315066-54.156132-5.861466 13.271866-7.744267 23.652132-21.161466 29.446799-30.662533.334667 2.636.605333 5.8464.605333 9.383867 0 1.762533-.058666 3.6188-.241333 5.512l-.217333 2.590666 2.598666.218667c10.381333.902667 17.741333-1.0776 22.553333-6.0348 5.881333-6.1292 7.694667-16.344266 5.7-32.185466-.858667-6.943866-3.385333-17.719866-5.590667-27.219866-1.1-4.753333-2.14-9.266666-2.774666-12.382666-3.733333-18.717333.729333-30.081333 5.133333-36.312 3.429333-4.878666 8.181333-8.459999 13.396-10.177332.086666-.016.173333-.037334.268-.052l8.576-26.309333h2.693333l-5.758667 25.284c1.332-.233334 2.686667-.444 4.054667-.656l7.404-23.310667h2.664l-4.846667 22.576c7.665333-.984 15.978666-1.748 25.194666-2.425334 1.492.597334 3.109333 2.322667 4.528 4.725334l24.169333-7.433333.896 2.606666-23.106667 8.961333c.182667.473334.364.968.509334 1.470667l25.261333-3.137333.422666 2.708-24.512 4.892c.086667.458666.16.917333.241334 1.376l25.494666.822666-.016 2.737333"/><path fill="#565353" d="M74.158798 239.794586v-19.567649h13.848v3.6676h-9.681333v4.135987h9.4756v3.666666h-9.4756v8.097396h-4.166667M106.135464 230.02531c0-3.66664-2.348-6.423973-5.955733-6.423973-3.609467 0-5.927067 2.757333-5.927067 6.423973 0 3.638547 2.3176 6.42552 5.927067 6.42552 3.607733 0 5.955733-2.786973 5.955733-6.42552zm-16.165733 0c0-5.89744 4.312533-10.121306 10.21-10.121306 5.926 0 10.238533 4.223866 10.238533 10.121306 0 5.8974-4.312533 10.12136-10.238533 10.12136-5.897467 0-10.21-4.22396-10.21-10.12136M113.34893 231.991977v-11.76504h4.224v11.617133c0 2.72812 1.584934 4.60676 4.6068 4.60676 3.0208 0 4.577067-1.87864 4.577067-4.60676v-11.617133h4.2536v11.73432c0 4.870826-2.874934 8.185413-8.830667 8.185413s-8.8308-3.343747-8.8308-8.154693M148.34533 239.794586l-9.329333-12.761462v12.761462h-4.166667v-19.567649h4.284l9.064 12.291613v-12.291613h4.165333v19.567649h-4.017333M170.08133 230.02531c0-3.46144-2.113334-6.130773-6.132-6.130773h-3.550667v12.233386h3.550666c3.872 0 6.132-2.786466 6.132-6.102613zm-13.848 9.769276v-19.567649h7.716c6.132 0 10.385332 3.900933 10.385332 9.798373 0 5.8974-4.253333 9.769276-10.385333 9.769276h-7.716M184.393329 224.393604l-3.050667 8.419733h6.102667zm5.398666 15.400982-1.204-3.314583h-8.390666l-1.230667 3.314583h-4.753333l7.569333-19.567649h5.222667l7.538666 19.567649h-4.752M199.001328 239.794586v-15.900049h-5.72v-3.6676h15.606667v3.6676h-5.692v15.900049h-4.194667M211.554661 239.794586v-19.567649h4.166667v19.567649h-4.166667M234.81866 230.02531c0-3.66664-2.346666-6.423973-5.956-6.423973-3.609332 0-5.926666 2.757333-5.926666 6.423973 0 3.638547 2.317334 6.42552 5.926667 6.42552 3.609333 0 5.956-2.786973 5.956-6.42552zm-16.165332 0c0-5.89744 4.313333-10.121306 10.209333-10.121306 5.926666 0 10.238666 4.223866 10.238666 10.121306 0 5.8974-4.312 10.12136-10.238666 10.12136-5.896 0-10.209333-4.22396-10.209333-10.12136M255.527994 239.794586l-9.330667-12.761462v12.761462h-4.166666v-19.567649h4.284l9.065333 12.291613v-12.291613h4.165333v19.567649h-4.017333M9.195306 208.76387l-2.07812-7.866666-2.063546 7.866667H3.054693L0 198.098804h2.095307l2.079173 8.218667 2.206773-8.218667h1.487493l2.206774 8.218667 2.062506-8.218667H14.2328l-3.038534 10.665067h-1.99896M22.205733 199.985204l-1.919334 5.0844h3.8376zm3.230266 8.778667-.783333-2.0464H19.7588l-.783734 2.0464h-2.126133l4.188533-10.665067H23.3724l4.190134 10.665067h-2.126534M31.088533 207.261204l1.039066-1.438533c.736.7828 1.8864 1.469333 3.374 1.469333 1.5348 0 2.1432-.750533 2.1432-1.4532 0-2.24-6.220266-.847866-6.220266-4.7812 0-1.7604 1.550533-3.1188 3.885333-3.1188 1.663066 0 3.006266.526667 3.997466 1.486534L38.236 200.816004c-.831333-.8308-1.966667-1.214666-3.086533-1.214666-1.102534 0-1.807334.526533-1.807334 1.326533 0 1.9828 6.2048.752133 6.2048 4.734933 0 1.774533-1.247466 3.2932-4.125066 3.2932-1.967734 0-3.390667-.6864-4.333333-1.6948M51.899465 208.76387v-4.6532H46.3516v4.6532h-1.870933v-10.665066h1.870933v4.364h5.547866v-4.364H53.7708v10.665067h-1.871334M59.247332 208.76387v-10.665066h1.871466v10.665067h-1.871466M74.027065 208.76387l-5.564533-7.611999v7.612h-1.871334v-10.665067h1.9192l5.4532 7.404134v-7.404134h1.871333v10.665067h-1.807866M80.831731 203.43987c0-3.342666 2.5104-5.517199 5.596934-5.517199 2.0792 0 3.438533.990667 4.302 2.2224l-1.535334.864133c-.559867-.8-1.567733-1.424-2.766666-1.424-2.110934 0-3.677067 1.614534-3.677067 3.854667 0 2.237467 1.566133 3.869333 3.677067 3.869333 1.086933 0 2.0464-.512 2.527066-.959866v-1.662534h-3.182266v-1.646933h5.053066v3.997466c-1.055733 1.166667-2.542667 1.9348-4.397866 1.9348-3.086534 0-5.596934-2.190533-5.596934-5.532266M98.44533 208.76387v-9.018799h-3.229199v-1.646267h8.3308v1.646267h-3.2308v9.0188h-1.8708M116.442664 203.43987c0-2.207732-1.3916-3.854666-3.533867-3.854666-2.1588 0-3.533733 1.646934-3.533733 3.854667 0 2.1896 1.374933 3.852133 3.533733 3.852133 2.142267 0 3.533867-1.662533 3.533867-3.852133zm-8.986933 0c0-3.182799 2.2536-5.517199 5.453066-5.517199 3.198 0 5.4532 2.3344 5.4532 5.5172 0 3.181333-2.2552 5.516133-5.4532 5.516133-3.199466 0-5.453066-2.3348-5.453066-5.516133M130.811463 208.76387l-5.565066-7.611999v7.612h-1.871333v-10.665067h1.9192l5.453066 7.404134v-7.404134h1.871467v10.665067h-1.807334M144.719996 207.261204l1.038667-1.438533c.736.7828 1.886667 1.469333 3.374667 1.469333 1.534666 0 2.142666-.750533 2.142666-1.4532 0-2.24-6.22-.847866-6.22-4.7812 0-1.7604 1.550667-3.1188 3.885334-3.1188 1.662666 0 3.006666.526667 3.997333 1.486534l-1.072 1.390666c-.830667-.8308-1.965333-1.214666-3.085333-1.214666-1.102667 0-1.808.526533-1.808 1.326533 0 1.9828 6.205333.752133 6.205333 4.734933 0 1.774533-1.248 3.2932-4.125333 3.2932-1.968 0-3.390667-.6864-4.333334-1.6948M160.49333 208.76387v-9.018799h-3.230667v-1.646267h8.332v1.646267h-3.230667v9.0188h-1.870667M173.581329 199.985204l-1.92 5.0844h3.838667zm3.229333 8.778667-.782666-2.0464h-4.893334l-.784 2.0464h-2.126666l4.190666-10.665067h2.334667l4.188 10.665067h-2.126667M184.813329 208.76387v-9.018799h-3.229334v-1.646267h8.332v1.646267h-3.230666v9.0188h-1.872M194.702662 208.76387v-10.665066h7.309333v1.646267h-5.437333v2.7656h5.325333v1.648h-5.325333v2.9588h5.437333v1.6464h-7.309333M214.446661 204.55867v-6.459866h1.886667v6.395734c0 1.6948.944 2.797466 2.734667 2.797466 1.776 0 2.718666-1.102666 2.718666-2.797466v-6.395734h1.886667v6.443734c0 2.654666-1.518667 4.413466-4.605333 4.413466-3.101334 0-4.621334-1.776-4.621334-4.397333M236.585327 208.76387l-5.562666-7.611999v7.612h-1.872v-10.665067h1.918667l5.453333 7.404134v-7.404134h1.870666v10.665067h-1.808M243.87066 208.76387v-10.665066h1.872v10.665067h-1.872M254.285327 208.76387l-4.190667-10.665066h2.126667l3.230667 8.634267 3.230666-8.634267h2.125333l-4.188 10.665067h-2.334666M265.18266 208.76387v-10.665066h7.306667v1.646267h-5.436v2.7656h5.324v1.648h-5.324v2.9588h5.436v1.6464h-7.306667M283.86666 201.439871c0-1.023867-.768-1.6948-1.822667-1.6948h-2.558667v3.3896h2.558667c1.054667 0 1.822667-.671867 1.822667-1.6948zm-.16 7.324-2.366667-3.9812h-1.854667v3.9812h-1.870666v-10.665067h4.685333c2.110667 0 3.485333 1.3744 3.485333 3.341067 0 1.902667-1.248 2.926533-2.526666 3.134933l2.606666 4.189067h-2.158666M290.17466 207.261204l1.038666-1.438533c.736.7828 1.888 1.469333 3.374667 1.469333 1.536 0 2.142666-.750533 2.142666-1.4532 0-2.24-6.22-.847866-6.22-4.7812 0-1.7604 1.550667-3.1188 3.885334-3.1188 1.664 0 3.006666.526667 3.998666 1.486534l-1.072 1.390666c-.832-.8308-1.966666-1.214666-3.085333-1.214666-1.104 0-1.808.526533-1.808 1.326533 0 1.9828 6.205333.752133 6.205333 4.734933 0 1.774533-1.248 3.2932-4.126666 3.2932-1.966667 0-3.389334-.6864-4.333334-1.6948M303.56666 208.76387v-10.665066h1.870666v10.665067h-1.870667M313.451992 208.76387v-9.018799h-3.229333v-1.646267h8.330666v1.646267h-3.230666v9.0188h-1.870667M326.362659 208.76387v-4.4292l-4.14-6.235866h2.141333l2.942666 4.573334 2.910667-4.573334h2.144l-4.126667 6.235867v4.4292h-1.872"/></svg>