<?xml version="1.0" encoding="utf-8"?>
<!-- Generator: Adobe Illustrator 18.0.0, SVG Export Plug-In . SVG Version: 6.00 Build 0)  -->
<!DOCTYPE svg PUBLIC "-//W3C//DTD SVG 1.1//EN" "http://www.w3.org/Graphics/SVG/1.1/DTD/svg11.dtd">
<svg version="1.1" id="Layer_1" xmlns="http://www.w3.org/2000/svg" xmlns:xlink="http://www.w3.org/1999/xlink" x="0px" y="0px"
	 viewBox="0 0 612 792" enable-background="new 0 0 612 792" xml:space="preserve">
<g>
	<path fill="#FFFFFF" d="M133,567.2c-1.6-1.2-3.7-2.4-5.7-2.4c-3.3,0-4.9,2-4.9,4.5s2,4.1,6.1,6.9c4.5,3.3,6.9,6.1,6.9,10.2
		c0,4.9-4.9,8.2-9.8,8.2c-2.9,0-6.5-1.2-9-3.3l2-2.4c2,1.2,4.1,2.9,6.9,2.9c3.3,0,5.7-1.6,5.7-5.3c0-4.1-4.9-6.5-7.3-8.6
		c-2.4-2-5.7-4.1-5.7-8.6c0-4.1,4.1-7.3,9-7.3c3.3,0,6.1,1.2,7.8,3.3L133,567.2z"/>
	<path fill="#FFFFFF" d="M178.3,594.1h-4.5v-31.8h8.2c6.9,0,11,2.9,11,9.4c0,5.3-4.5,10.2-11.8,10.2h-1.6v-3.3h1.6
		c4.1-0.4,6.9-2.4,6.9-7.3c0-3.7-2-6.1-6.5-6.1h-2.9C178.3,565.1,178.3,594.1,178.3,594.1z"/>
	<path fill="#FFFFFF" d="M228.5,577.4c0-9,6.9-15.9,15.9-15.9c9,0,15.9,6.9,15.9,15.9c0,9.4-6.1,17.1-15.9,17.1
		S228.5,587.1,228.5,577.4z M255.4,577.4c0-6.1-3.3-12.6-11-12.6c-7.8,0-11,6.9-11,12.6c0,6.1,2.9,13.9,11,13.9
		S255.4,583.9,255.4,577.4z"/>
	<path fill="#FFFFFF" d="M302.7,576.1l13.9-14.7l2.9,2l-12.2,13.1l13.9,16.3l-4.5,1.6l-13.9-17.1l0,0v16.3h-4.5v-31.4h4.5V576.1
		L302.7,576.1z"/>
	<path fill="#FFFFFF" d="M369.2,562.3l11.8,31.8h-4.9l-3.3-9.4h-12.2l-3.3,9.4h-4.1l13.1-31.8H369.2z M371.7,581.4
		c-1.6-4.5-3.3-9-4.9-14.7l0,0c-1.6,5.7-3.3,10.2-4.9,14.7H371.7z"/>
	<path fill="#FFFFFF" d="M444.7,594.1h-3.3c-6.9-8.2-18.8-22.4-20.8-25.3l0,0v25.3H417v-31.8h3.3c6.9,8.2,18.8,22,20.8,25.3l0,0
		v-25.3h3.7V594.1z"/>
	<path fill="#FFFFFF" d="M499.8,565.1h-11.4v10.2h11v3.3h-11v11.8h13.1v3.3h-17.5v-31.4h15.5v2.9H499.8z"/>
</g>
<g>
	<g>
		<path fill="#FFFFFF" d="M390,484.7c-6.5-4.9-11-7.3-11-11.8c0-4.9,3.3-6.5,6.9-6.5c5.3,0,7.3,3.7,8.2,8.2h1.6V466
			c0-0.4,0-0.4-0.4-0.8c-2.4-0.8-6.1-1.2-9-1.2c-7.3,0-13.9,4.5-13.9,10.2c0,3.3,0.8,5.3,2,6.9l0,0l0,0c1.6,2,3.7,3.3,5.7,4.5
			c9.8,6.5,11.8,9.8,11.8,13.9c0,9.4-17.1,14.3-28.6-3.7l-5.7-9c4.5-1.6,8.6-6.1,8.6-12.2c0-6.9-6.1-10.2-12.2-10.2h-17.5v1.6
			c5.3,0.8,5.3,0.4,5.3,6.1v27.3c0,5.7,0.4,5.3-5.3,6.1v1.6h16.3v-1.6c-5.3-0.8-5.3-0.4-5.3-6.1v-11h5.7c7.3,12.2,9,17.5,12.6,18.8
			c0.8,0.4,10.2,3.3,17.1,3.3c7.8,0,15.9-4.1,15.9-11.8C399,493.3,397,490,390,484.7z M352.9,486.8H348v-19.6h4.5
			c4.5,0,8.2,2.4,8.2,9C360.3,483.1,357.8,486.8,352.9,486.8z"/>
		<path fill="#FFFFFF" d="M231.3,506.8c0,0,0,0-29.4-35.1v26.9c0,1.2,0.4,2.4,0.4,3.3c0.4,2,2.4,2.9,6.5,3.3v1.6h-14.7v-1.6
			c2.9-0.4,4.9-1.2,5.3-3.3c0-0.8,0.4-2,0.4-3.3v-28.6c-1.6-2-3.7-4.1-6.9-4.1v-1.6h11c9,11,18.4,22,27.3,33l0,0v-24.9
			c0-1.2-0.4-2.4-0.4-3.3c-0.4-2-2.4-2.9-6.5-3.3v-1.6h14.7v1.6c-2.9,0.4-4.9,1.2-5.3,3.3c0,0.8-0.4,2-0.4,3.3v34.3L231.3,506.8
			L231.3,506.8z"/>
		<path fill="#FFFFFF" d="M255,499.4c0,5.7-0.4,5.3,5.3,6.1v1.6H244v-2c5.3-0.8,5.3-0.4,5.3-6.1v-27.3c0-5.7,0.4-5.3-5.3-6.1v-1.2
			h16.3v1.6c-5.3,0.8-5.3,0.4-5.3,6.1V499.4z"/>
		<path fill="#FFFFFF" d="M332.1,496.2c-2.9,6.5-2.4,9-11,9c-5.3,0-7.8-0.4-7.8-5.7v-13.9h4.9c4.1,0,5.3,2,5.7,5.7h1.6v-13.1H324
			c0,3.7-1.6,5.3-5.7,5.3h-5.3V466h9.8c4.5,0,5.7,3.3,6.1,7.8h1.6v-9.4h-27.7h-11.8v1.6c4.1,0,5.7,2,4.1,5.7
			c-3.7,9.4-7.3,18.8-11.4,27.7c-3.3-9.4-6.5-19.6-9-26.9c-2-5.7,0.4-6.9,3.7-6.9v-1.2h-15.5v1.6c2.9,0,3.7,2,6.1,8.6
			c3.7,10.2,7.8,22,11.4,32.6h3.3c5.3-12.2,10.2-24.9,15.5-37.1c1.2-2.9,2-3.7,4.1-3.7c5.3,0.8,4.5,0.4,4.5,6.1v27.3
			c0,5.7,0.8,5.3-4.5,6.1v1.6h29.4l1.6-11L332.1,496.2L332.1,496.2z"/>
		<path fill="#FFFFFF" d="M413.7,499.4c0,5.7-0.4,5.3,5.3,6.1v1.6h-16.3v-2c5.3-0.8,5.3-0.4,5.3-6.1v-27.3c0-5.7,0.4-5.3-5.3-6.1
			v-1.2H419v1.6c-5.3,0.8-5.3,0.4-5.3,6.1V499.4z"/>
		<path fill="#FFFFFF" d="M475.7,464.3v1.6c3.7,0,5.7,1.6,3.3,5.3l-8.6,15.1l-7.3-15.1c-1.6-3.3-2-5.3,2.9-5.3v-1.6h-10.2h-4.1
			h-28.2l-1.6,9.4h1.6c2-4.1,3.3-7.3,8.6-7.3h4.9v33c0,5.7,0.4,5.3-5.3,6.1v1.6H448v-2c-5.3-0.8-5.3-0.4-5.3-6.1v-33h4.9
			c4.9,0,8.2,2.9,10.2,6.5l8.6,17.1v9.4c0,5.7,0.4,5.3-5.3,6.1v1.6h16.3v-1.6c-5.3-0.8-5.3-0.4-5.3-6.1v-6.9c0-1.6,0-3.3,0.8-4.5
			l10.2-18.4c1.6-2.9,3.3-3.7,4.9-3.7v-1.2H475.7z"/>
		<path fill="#FFFFFF" d="M192.2,464.3H173v1.6c3.7,0.4,6.5,2,6.9,4.9c0,1.2,0.4,2.9,0.4,4.5v22.8c0,13.1-5.7,20.4-17.1,20.4
			c-12.2,0-15.9-8.6-15.9-20v-24.1c0-7.8,0.4-7.8,7.8-8.6v-1.6h-22v1.6c7.3,0.8,6.9,1.2,6.9,8.6V499c0,14.7,5.3,23.7,22.8,23.7
			c10.6,0,21.6-6.5,21.6-24.1v-22.8v-0.4c0-6.9,2.9-8.2,7.3-9L192.2,464.3z"/>
	</g>
	<g>
		<path fill="#FFFFFF" d="M151,434.1c0,5.7-0.4,5.3,5.3,6.1v1.6h-16.3v-2c5.3-0.8,5.3-0.4,5.3-6.1v-27.3c0-5.7-2.4-5.3-8.2-6.1v-1.2
			h19.2v1.6c-5.3,0.8-5.3,0.4-5.3,6.1v10.6h21.2v-10.6c0-5.7,0.4-5.3-5.3-6.1v-1.6h16.3v1.6c-5.3,0.8-5.3,0.4-5.3,6.1v27.3
			c0,5.7-0.4,5.3,5.3,6.1v1.6h-16.3v-2c5.3-0.8,5.3-0.4,5.3-6.1v-14.3H151V434.1z"/>
		<path fill="#FFFFFF" d="M201.1,434.1c0,5.7-0.4,5.3,5.3,6.1v1.6h-16.3v-2c5.3-0.8,5.3-0.4,5.3-6.1v-27.3c0-5.7,0.4-5.3-5.3-6.1
			v-1.2h16.3v1.6c-5.3,0.8-5.3,0.4-5.3,6.1V434.1z"/>
		<path fill="#FFFFFF" d="M251.3,441.5c-9.8-11.4-19.6-23.3-29.4-34.7v26.5c0,1.2,0.4,2.4,0.4,3.3c0.4,2,2.4,2.9,6.5,3.3v1.6h-14.7
			v-1.6c2.9-0.4,4.9-1.2,5.3-3.3c0-0.8,0.4-2,0.4-3.3v-28.6c-1.6-2-3.7-4.1-6.9-4.1v-1.6h11c9,11,18.4,22,27.3,33l0,0v-24.9
			c0-1.2-0.4-2.4-0.4-3.3c-0.4-2-2.4-2.9-6.5-3.3v-1.6h14.7v1.6c-2.9,0.4-4.9,1.2-5.3,3.3c0,0.8-0.4,2-0.4,3.3v34.3H251.3z"/>
		<path fill="#FFFFFF" d="M260.3,420.3c0-9.4,7.8-21.6,24.1-21.6c5.7,0,8.6,1.2,11.4,2c1.6,0.4,2.4,1.2,2.4,2.4v7.8h-1.6
			c0-4.9-3.3-10.2-13.1-10.2c-12.6,0-16.7,8.6-16.7,19.2c0,9.4,4.9,20.4,17.1,20.4c7.8,0,8.2-2.9,8.2-7.3v-3.7
			c0-5.7,0.4-5.3-6.5-6.1v-1.6h17.5v1.6c-5.3,0.4-4.9,0.4-4.9,5.7v10.6c-3.7,1.6-9,2.9-14.3,2.9
			C271.3,442.3,260.3,436.2,260.3,420.3z"/>
		<path fill="#FFFFFF" d="M324,434.1c0,5.7-0.4,5.3,5.3,6.1v1.6h-16.3v-2c5.3-0.8,5.3-0.4,5.3-6.1v-32.6h-4.9
			c-5.3,0-6.5,3.3-8.6,7.3h-1.6l1.6-9.4H337l1.6,9.4H337c-2-4.1-3.3-7.3-8.6-7.3h-4.9C324,401.1,324,434.1,324,434.1z"/>
		<path fill="#FFFFFF" d="M339,421.1c0-13.1,10.2-22.8,22.8-22.8c13.1,0,20.8,11.4,20.8,20.8c0,12.6-9.4,23.3-22.8,23.3
			C348,442.3,339,432.9,339,421.1z M375.4,421.1c0-14.3-7.8-20.4-15.1-20.4c-10.2,0-14.7,9-14.7,17.5c0,14.7,7.3,22,15.1,22
			C372.5,440.3,375.4,428.8,375.4,421.1z"/>
		<path fill="#FFFFFF" d="M421.5,441.5c-9.8-11.4-19.6-23.3-29.4-34.7v26.5c0,1.2,0.4,2.4,0.4,3.3c0.4,2,2.4,2.9,6.5,3.3v1.6h-14.7
			v-1.6c2.9-0.4,4.9-1.2,5.3-3.3c0-0.8,0.4-2,0.4-3.3v-28.6c-1.6-2-3.7-4.1-6.9-4.1v-1.6h11c9,11,18.4,22,27.3,33l0,0v-24.9
			c0-1.2-0.4-2.4-0.4-3.3c-0.4-2-2.4-2.9-6.5-3.3v-1.6h14.7v1.6c-2.9,0.4-4.9,1.2-5.3,3.3c0,0.8-0.4,2-0.4,3.3v34.3H421.5z"/>
		<path fill="#FFFFFF" d="M83.2,391.3L83.2,391.3H66.9v2c6.1,0,7.3,2.4,5.7,6.9l-12.2,33.9h-0.8l-14.7-42.4h-3.7l-15.5,42h-0.8
			l-11-33.5c-1.6-5.3,0.8-7.3,5.7-7.3v-2H0v2c4.1,0,4.9,3.3,7.3,11l14.3,41.6h3.7l15.1-42.4l14.7,42.4h4.1
			c6.5-16.7,15.1-42,18.8-48.6c1.2-2.4,3.3-3.7,5.3-3.7V391.3C83.6,391.3,83.2,391.3,83.2,391.3z"/>
		<path fill="#FFFFFF" d="M126.5,418.6c-6.5-4.9-10.6-7.3-10.6-11.8c0-4.9,3.3-6.5,6.9-6.5c4.9,0,7.3,3.7,8.2,8.2h1.6v-8.2
			c0-0.4,0-0.4-0.4-0.8c-2.4-0.8-6.1-1.2-9-1.2c-7.3,0-13.5,4.5-13.5,10.2c0,3.3,0.8,5.3,2,6.9l0,0l0,0c1.6,2,3.7,3.3,5.7,4.5
			c9.4,6.1,11.8,9.8,11.8,13.9c0,3.7-2.9,7.8-8.2,8.2c-5.3,0.4-12.2-2-15.5-9.8c-2.4-7.3-7.8-22.8-11.4-33.5h-3.7
			c-4.9,13.5-11.8,33-14.3,38.4c-0.8,2-2.9,2.9-4.5,2.9v1.6h2.4h8.6v-1.6c-2.9,0-3.7-2-2.9-4.5l2.9-8.2h15.5l2.4,7.8l2,6.1
			c0,0,10.6,2.9,18,2.9c7.8,0,15.5-4.1,15.5-11.8C135.5,427.2,133.4,423.9,126.5,418.6z M83.2,425.2l7.3-19.6l0,0l6.5,19.6H83.2z"/>
	</g>
	<g>
		<path fill="#FFFFFF" d="M470.8,401.9c-0.8-5.7-3.7-10.2-10.2-10.2c-4.9,0-9.4,2.4-9.4,8.6c0,5.7,5.7,9,13.9,15.1
			c8.6,6.5,11.4,10.6,11.4,17.1c0,9.8-9.4,15.1-19.2,15.1c-5.3,0-9.8-0.8-13.9-2.4c-0.4,0-0.4-0.4-0.4-1.2v-11.8h2
			c0.8,9,6.9,12.6,13.1,12.6c5.7,0,11-4.5,11-10.2c0-5.3-2.9-9.8-15.1-17.5c-4.5-2.9-9.8-6.1-9.8-15.1c0-7.3,7.8-13.1,16.7-13.1
			c3.7,0,8.2,0.4,11.4,1.6c0.4,0,0.4,0.4,0.4,0.8v10.6L470.8,401.9L470.8,401.9z"/>
		<path fill="#FFFFFF" d="M496.9,434.1c0,5.7-0.4,5.3,5.3,6.1v1.6h-16.3v-2c5.3-0.8,5.3-0.4,5.3-6.1v-32.6h-4.9
			c-5.3,0-6.5,3.3-8.6,7.3h-1.6l1.6-9.4H510l1.6,9.4H510c-2-4.1-3.3-7.3-8.6-7.3h-4.9C496.9,401.1,496.9,434.1,496.9,434.1z"/>
		<path fill="#FFFFFF" d="M517.8,427.6l-2.9,8.2c-0.8,2.4,0.4,4.5,2.9,4.5v1.6h-11v-2c1.6,0,3.3-1.2,4.5-2.9
			c2.4-5.3,9.8-24.9,14.7-38.4h3.3c4.1,12.2,10.2,30.6,12.2,36.3c1.2,3.3,2.4,5.3,4.9,5.3v1.6H532v-2c3.7,0,4.1-2,3.3-4.5l-2.4-7.8
			H517.8z M532.4,425.2l-6.5-19.6l0,0l-7.3,19.6H532.4z"/>
		<path fill="#FFFFFF" d="M563.4,434.1c0,5.7-0.4,5.3,5.3,6.1v1.6h-16.3v-2c5.3-0.8,5.3-0.4,5.3-6.1v-32.6h-4.9
			c-5.3,0-6.5,3.3-8.6,7.3h-1.6l1.6-9.4h32.2l1.6,9.4h-1.6c-2-4.1-3.3-7.3-8.6-7.3H563L563.4,434.1L563.4,434.1z"/>
		<path fill="#FFFFFF" d="M581,439.9c5.3-0.8,4.5-0.4,4.5-6.1v-27.3c0-5.7,0.8-5.3-4.5-6.1v-1.6h26.5v9.8h-1.6
			c-0.4-4.5-1.6-7.8-6.1-7.8h-8.2v17.1h4.9c3.7,0,5.3-1.6,5.7-5.3h1.6v13.1h-1.6c0-3.7-1.6-5.7-5.7-5.7h-4.9v13.5
			c0,5.3,2.4,5.7,7.8,5.7c8.6,0,8.2-2.4,11-9h1.6l-1.6,11H581V439.9L581,439.9z"/>
	</g>
</g>
<path fill="#FFFFFF" d="M339,326l-31,22l-31-22c-22-15.1-40.8-28.2-50.6-47.7c8.2,36.7,44.1,50.6,81.6,80
	c37.5-29.4,73.4-43.2,81.6-80C379.8,297.9,360.7,310.9,339,326z"/>
<g>
	<path fill="#FFFFFF" d="M338.6,191.8c-4.9-2.4-15.9-1.6-19.6,1.2c-6.1,4.5-5.3,11.8-4.9,12.2c0.8-2.4,2.9-5.3,6.1-7.8
		c4.1-2.9,10.6-4.9,17.1-4.5C339,193,340.3,192.6,338.6,191.8z"/>
	<path fill="#FFFFFF" d="M222,146.1v3.7c2.4,0.8,3.3,1.6,3.3,4.9V244c0,49.4,40,62.4,82.4,95.9c42.8-33.5,82.8-46.5,82.8-95.9v-89.8
		c0.4-2.9,1.2-3.3,3.3-4.1v-4.1H222z M242.4,262.8c0,0,11.4-8.6,20-35.5l8.2,7.3l-1.6,5.3c0,0,4.1,5.7,4.9,9.4
		c0,0,5.7-10.6-0.4-21.6l-1.2,3.3l-3.3-2.9l-5.7-4.9c0,0,2.4-9,10.2-19.6l1.2,0.4l6.5,7.3l-2,3.3c0,0,4.5,4.5,8.2,10.2
		c0,0,2-9.4-0.8-19.6l-2.9,2.9l-6.9-8.2c10.2-10.2,20-15.9,31.4-20c-0.8,0.8-1.2,1.6-2,2.4c-4.1,5.7-8.2,15.5-4.9,31.8
		c0.4,2.4,1.2,6.1,2,9.8c2,7.3,3.7,15.9,4.5,21.2c1.6,11,0.4,18.4-3.3,22c-2.9,2.9-6.9,4.1-12.6,3.7c0-0.8,0-1.6,0-2.4
		c0-7.8-1.6-13.5-1.6-13.9l-1.6-5.3l-2.4,4.9c-4.1,8.2-16.7,27.7-33.5,31.4c8.6-13.1,8.6-27.3,9-27.3
		C254.6,260.7,242.4,262.8,242.4,262.8z M337.8,290.5c-3.3,0.8-13.1,0.4-13.1,0.4s6.9-2.9,10.6-14.3
		C338.6,283.6,337.8,290.5,337.8,290.5z M353.3,268.1c-20.4,2.4-23.7-39.6-23.7-39.6s6.9,21.6,21.2,20.8
		c14.7-0.8,10.6-23.7,10.6-23.7S375.8,264.8,353.3,268.1z M377.4,188.5l-19.6,0.8c0,2.4-0.4,4.9-1.2,6.9c2,8.2,0.4,12.6,0.4,12.6
		c-3.3-7.8-5.7-9.8-5.7-9.8c-18-8.2-28.2,10.2-27.3,22c0.8,9.8,4.5,22.4,7.3,42.8c2.4,17.1-6.1,24.5-16.3,26.1c-0.4,0-0.4,0-0.8,0
		c-1.6,0-3.3,0.4-5.3,0.4h-0.4c-0.8,0-1.6,0-2.4-0.4c-7.8-1.2-24.9-4.1-42.4-4.5c10.6-6.1,18.8-16.7,23.3-24.1
		c0.4,2,0.4,4.5,0.4,7.3c0,1.2,0,2.9,0,4.5v2h2c8.2,0.8,13.9-0.8,17.5-4.9c4.5-4.9,6.1-13.1,4.5-25.3c-0.8-5.3-2.9-13.9-4.5-21.6
		c-0.8-3.7-1.6-7.3-2-9.8c-2.9-14.7,0.4-23.7,4.1-28.6c2.9-3.7,6.5-6.5,10.6-8.2c0,0,0,0,0.4,0l6.9-20.8h2l-4.5,20
		c1.2,0,2-0.4,3.3-0.4l5.7-18.4h2l-3.7,18c6.1-0.8,12.6-1.2,20-2c1.2,0.4,2.4,2,3.7,3.7l19.2-5.7l0.8,2l-18.4,6.9
		c0,0.4,0.4,0.8,0.4,1.2l18.8-2.9l0.4,2l-19.2,3.7c0,0.4,0,0.8,0,1.2l20,0.8V188.5z"/>
</g>
<g>
	<path fill="#FFFFFF" d="M70.2,644.3v-17.1h-18v17.1h-4.9V610h4.9v13.5h18V610h4.9v34.3H70.2z"/>
	<path fill="#FFFFFF" d="M90.6,644.3V610h17.5v3.7H95.1v11h12.6v3.7H95.1V641h15.1v3.7H90.6V644.3z"/>
	<path fill="#FFFFFF" d="M144.8,644.3l-3.7-10.2h-13.9l-3.7,10.2h-4.5L133,610h4.1l12.6,34.3H144.8z M134.6,614.5l-6.1,16.3h11.4
		L134.6,614.5z"/>
	<path fill="#FFFFFF" d="M161.2,644.3V610h4.9v30.6h14.7v3.7H161.2z"/>
	<path fill="#FFFFFF" d="M202,613.3v30.6h-4.9v-30.6h-11v-3.7H213v3.7H202z"/>
	<path fill="#FFFFFF" d="M247.2,644.3v-17.1h-18v17.1h-4.9V610h4.9v13.5h18V610h4.9v34.3H247.2z"/>
	<path fill="#FFFFFF" d="M295,644.7c-3.7,0-6.9-1.2-9.4-2.9l2-3.3c2.4,2,4.9,2.9,6.9,2.9c3.7,0,6.5-2.9,6.5-5.7c0-2-0.8-3.3-1.6-4.1
		c-2.4-2.4-6.5-4.9-9.4-7.8c-1.6-1.6-2.9-3.7-2.9-6.1c0-4.9,4.1-8.6,10.2-8.6c2.9,0,5.7,0.8,7.8,2.9l-2,2.4c-2-1.6-3.7-2-5.7-2
		c-3.7,0-5.7,2.4-5.7,4.9c0,1.6,0.8,2.9,2,3.7c2,2,6.9,5.3,9,7.3c2,2,2.9,4.1,2.9,6.9C305.6,640.6,301.1,644.7,295,644.7z"/>
	<path fill="#FFFFFF" d="M346.8,641.8c-3.3,2-6.5,2.9-11,2.9c-10.6,0-18-7.3-18-17.5s7.8-18,18.4-18c4.5,0,8.2,1.2,11,3.3l-1.6,2.9
		c-2.9-2-5.7-2.9-9.4-2.9c-7.8,0-13.5,5.7-13.5,14.3s6.1,14.3,13.5,14.3c3.3,0,6.1-0.8,8.6-2.4L346.8,641.8z"/>
	<path fill="#FFFFFF" d="M360.3,644.3V610h4.9v34.3H360.3z"/>
	<path fill="#FFFFFF" d="M380.3,644.3V610h17.5v3.7h-13.1v11h12.6v3.7h-12.6V641h15.1v3.7h-19.6V644.3z"/>
	<path fill="#FFFFFF" d="M437,644.3l-16.3-22.4c-0.8-1.2-2.9-3.7-3.7-4.9v27.7h-4.1v-34.3h4.1l16.7,22.8c0.8,1.2,2.4,3.7,3.3,4.9
		v-27.7h4.1v34.3H437V644.3z"/>
	<path fill="#FFFFFF" d="M483.5,641.8c-3.3,2-6.5,2.9-11,2.9c-10.6,0-18-7.3-18-17.5s7.8-18,18.4-18c4.5,0,8.2,1.2,11,3.3l-1.6,2.9
		c-2.9-2-5.7-2.9-9.4-2.9c-7.8,0-13.5,5.7-13.5,14.3s6.1,14.3,13.5,14.3c3.3,0,6.1-0.8,8.6-2.4L483.5,641.8z"/>
	<path fill="#FFFFFF" d="M496.9,644.3V610h17.5v3.7h-12.6v11h12.6v3.7h-12.6V641h15.1v3.7h-20V644.3z"/>
	<path fill="#FFFFFF" d="M537.3,644.7c-3.7,0-6.9-1.2-9.4-2.9l2-3.3c2.4,2,4.9,2.9,6.9,2.9c3.7,0,6.5-2.9,6.5-5.7
		c0-2-0.8-3.3-1.6-4.1c-2.4-2.4-6.5-4.9-9.4-7.8c-1.6-1.6-2.9-3.7-2.9-6.1c0-4.9,4.1-8.6,10.2-8.6c2.9,0,5.7,0.8,7.8,2.9l-2,2.4
		c-2-1.6-3.7-2-5.7-2c-3.7,0-5.7,2.4-5.7,4.9c0,1.6,0.8,2.9,2,3.7c2,2,6.9,5.3,9,7.3s2.9,4.1,2.9,6.9
		C548.4,640.6,543.5,644.7,537.3,644.7z"/>
</g>
</svg>
