<?xml version="1.0" encoding="utf-8"?>
<!-- Generator: Adobe Illustrator 18.0.0, SVG Export Plug-In . SVG Version: 6.00 Build 0)  -->
<!DOCTYPE svg PUBLIC "-//W3C//DTD SVG 1.1//EN" "http://www.w3.org/Graphics/SVG/1.1/DTD/svg11.dtd">
<svg version="1.1" id="Layer_1" xmlns="http://www.w3.org/2000/svg" xmlns:xlink="http://www.w3.org/1999/xlink" x="0px" y="0px"
	 viewBox="0 375.1 581.5 41.7" enable-background="new 0 375.1 581.5 41.7" xml:space="preserve">
<g>
	<g>
		<g>
			<path fill="#5E6A71" d="M420.2,410.5l-6.1,4.3l-6.1-4.3c-4.3-2.9-8.1-5.6-10-9.3c1.7,7.2,8.6,9.9,16.1,15.7
				c7.4-5.8,14.5-8.5,16.1-15.7C428.3,405,424.5,407.5,420.2,410.5z"/>
			<g>
				<path fill="#981E32" d="M397.2,375.1v0.7c0.4,0.1,0.6,0.3,0.7,1v17.5c0,9.7,7.9,12.2,16.3,18.8c8.3-6.5,16.3-9,16.3-18.8v-17.7
					c0-0.6,0.3-0.7,0.7-0.8v-0.7H397.2z"/>
			</g>
		</g>
		<g>
			<g>
				<g>
					<path fill="#FFFFFF" d="M417.4,403.6c0,0,1.4-0.6,2.1-2.8c0.7,1.4,0.4,2.8,0.4,2.8C419.4,403.6,417.4,403.6,417.4,403.6z"/>
					<path fill="#FFFFFF" d="M424.6,390.9c0,0,0.8,4.5-2.1,4.6c-2.8,0.1-4.2-4-4.2-4s0.7,8.3,4.6,7.8
						C427.4,398.5,424.6,390.9,424.6,390.9z"/>
				</g>
			</g>
			<path fill="#FFFFFF" d="M403.2,402.5L403.2,402.5c3.3-0.7,5.8-4.6,6.5-6.1l0.4-1l0.3,1.1c0,0,0.3,1.3,0.3,2.8c0,0.1,0,0.3,0,0.6
				c1.1,0,1.9-0.1,2.5-0.7c0.7-0.7,1-2.2,0.7-4.3c-0.1-1-0.6-2.6-0.8-4.2c-0.1-0.7-0.3-1.4-0.4-1.9c-0.7-3.2,0.1-5.1,1-6.3
				c0.1-0.1,0.3-0.3,0.4-0.6c-2.2,0.8-4.2,1.9-6.1,3.9l1.4,1.7l0.6-0.6c0.6,1.9,0.1,3.9,0.1,3.9c-0.7-1.1-1.5-1.9-1.5-1.9l0.4-0.7
				l-1.3-1.4l-0.1-0.1c-1.5,2.1-2.1,3.9-2.1,3.9l1.1,1l0.7,0.6l0.3-0.6c1.1,2.2,0.1,4.3,0.1,4.3c-0.1-0.7-1-1.8-1-1.8l0.3-1
				l-1.7-1.5c-1.7,5.3-3.9,7-3.9,7s2.5-0.4,3.8-0.8C404.9,397.3,404.9,400,403.2,402.5z"/>
			<path fill="#FFFFFF" d="M427.8,383.5l-3.9,0.1c0,0.4,0,1-0.1,1.4c0.4,1.5,0.1,2.5,0.1,2.5c-0.7-1.5-1.1-1.9-1.1-1.9
				c-3.6-1.5-5.6,1.9-5.4,4.3c0.1,1.9,0.8,4.5,1.4,8.3c0.4,3.3-1.3,4.7-3.2,5.1h-0.1l0,0c-0.3,0-0.7,0-1,0l0,0h-0.1
				c-0.1,0-0.3,0-0.4,0c-1.5-0.3-4.9-0.8-8.3-1c2.1-1.3,3.6-3.3,4.6-4.7c0,0.4,0.1,0.8,0.1,1.4c0,0.3,0,0.6,0,0.8v0.4h0.4
				c1.7,0.1,2.8-0.1,3.5-1c1-1,1.3-2.5,0.8-5c-0.1-1.1-0.6-2.8-0.8-4.2c-0.1-0.7-0.3-1.4-0.4-1.9c-0.6-2.9,0.1-4.7,0.8-5.7
				c0.6-0.7,1.3-1.3,2.1-1.5l0,0l1.4-4h0.4l-1.3,4c0.1,0,0.4-0.1,0.7-0.1l1.1-3.6h0.4l-0.8,3.6c1.3-0.1,2.5-0.3,3.9-0.4
				c0.3,0.1,0.4,0.4,0.7,0.7l3.8-1.1l0.1,0.4l-3.6,1.4c0,0.1,0,0.1,0.1,0.3l3.9-0.4v0.4l-3.8,0.7c0,0,0,0.1,0,0.3l3.9,0.1
				L427.8,383.5z M416.6,385.3c0.8-0.6,2.1-1,3.3-0.8c0.3,0,0.6,0,0.3-0.3c-1-0.6-3.1-0.3-3.9,0.1c-1.3,0.8-1,2.4-1,2.4
				C415.5,386.3,415.9,385.7,416.6,385.3z"/>
		</g>
	</g>
	<g>
		<g>
			<g>
				<path fill="#5E6A71" d="M351.3,392.1c-2.5-1.9-4.3-3.1-4.3-4.7c0-1.9,1.4-2.6,2.8-2.6c2.1,0,3.1,1.4,3.2,3.2h0.7v-3.3
					c0-0.1,0-0.3-0.1-0.3c-1-0.4-2.5-0.4-3.6-0.4c-2.9,0-5.6,1.8-5.6,4.2c0,1.3,0.3,2.1,0.8,2.8l0,0l0,0c0.6,0.8,1.5,1.4,2.2,1.8
					c3.9,2.5,4.7,3.9,4.7,5.6c0.1,3.8-6.8,5.7-11.4-1.5l-2.4-3.6c1.8-0.7,3.3-2.5,3.3-4.9c0-2.8-2.5-4-4.9-4h-7.1v0.6
					c2.2,0.3,2.1,0.1,2.1,2.4v10.8c0,2.2,0.1,2.1-2.1,2.4v0.7h6.5v-0.7c-2.2-0.3-2.1-0.1-2.1-2.4v-4.5h2.2c2.9,4.9,3.6,7,5.1,7.5
					c0.3,0.1,4.2,1.4,6.8,1.4c3.1,0,6.4-1.7,6.4-4.7C355,395.4,354.1,394.2,351.3,392.1z M336.5,392.9h-1.9v-7.8h1.8
					c1.8,0,3.2,1,3.2,3.6S338.5,392.9,336.5,392.9z"/>
				<path fill="#5E6A71" d="M287.9,400.9c0,0,0,0-11.8-14v10.7c0,0.6,0.1,1,0.1,1.3c0.1,0.8,1,1.3,2.5,1.4v0.7h-6v-0.7
					c1.1-0.1,1.9-0.4,2.1-1.4c0-0.4,0.1-0.8,0.1-1.3v-11.3c-0.7-0.8-1.4-1.7-2.8-1.7v-0.7h4.5c3.6,4.5,7.4,8.9,11,13.2l0,0v-9.9
					c0-0.6-0.1-1-0.1-1.3c-0.1-0.8-1-1.3-2.5-1.4v-0.7h6v0.7c-1.1,0.1-1.9,0.4-2.1,1.4c0,0.4-0.1,0.8-0.1,1.3V401L287.9,400.9
					L287.9,400.9z"/>
				<path fill="#5E6A71" d="M297.4,397.9c0,2.2-0.1,2.1,2.1,2.4v0.7h-6.5v-0.7c2.2-0.3,2.1-0.1,2.1-2.4v-11c0-2.2,0.1-2.1-2.1-2.4
					v-0.7h6.5v0.6c-2.2,0.3-2.1,0.1-2.1,2.4V397.9z"/>
				<path fill="#5E6A71" d="M328.3,396.6c-1.1,2.6-1,3.6-4.5,3.6c-2.2,0-3.2-0.1-3.2-2.2v-5.4h2.1c1.7,0,2.2,0.8,2.2,2.2h0.6v-5.1
					h-0.6c0,1.5-0.7,2.1-2.2,2.1h-2.1v-7h3.9c1.8,0,2.2,1.4,2.5,3.1h0.7v-3.9h-11.1h-4.9v0.6c1.7,0,2.2,0.7,1.7,2.2
					c-1.5,3.8-2.9,7.5-4.6,11.1c-1.3-3.6-2.6-7.8-3.6-10.7c-0.8-2.4,0.1-2.8,1.5-2.8v-0.4h-6.1v0.6c1.1,0,1.5,0.7,2.4,3.3
					c1.5,4.2,3.2,8.8,4.6,13.1h1.3c2.1-5,4-9.9,6.1-14.9c0.6-1.3,0.8-1.4,1.5-1.4c2.2,0.3,1.8,0.1,1.8,2.4v10.8
					c0,2.2,0.3,2.1-1.8,2.4v0.7h11.7l0.7-4.3H328.3L328.3,396.6z"/>
				<path fill="#5E6A71" d="M360.8,397.9c0,2.2-0.1,2.1,2.1,2.4v0.7h-6.5v-0.7c2.2-0.3,2.1-0.1,2.1-2.4v-11c0-2.2,0.1-2.1-2.1-2.4
					v-0.7h6.5v0.6c-2.2,0.3-2.1,0.1-2.1,2.4V397.9z"/>
				<path fill="#5E6A71" d="M385.6,383.9v0.6c1.4,0,2.2,0.7,1.4,2.2l-3.3,6.1l-2.9-6.1c-0.6-1.3-0.8-2.2,1.1-2.2v-0.6h-4h-1.7h-11.3
					l-0.8,3.8h0.6c0.8-1.5,1.3-2.9,3.3-2.9h1.9v13.2c0,2.2,0.1,2.1-2.1,2.4v0.7h6.5v-0.7c-2.2-0.3-2.1-0.1-2.1-2.4v-13.2h1.9
					c1.9,0,3.3,1.3,4.2,2.6l3.5,6.8v3.8c0,2.2,0.1,2.1-2.1,2.4v0.7h6.5v-0.7c-2.2-0.3-2.1-0.1-2.1-2.4v-2.8c0-0.6,0-1.3,0.3-1.8
					l4-7.4c0.7-1.1,1.3-1.5,1.9-1.5v-0.6H385.6L385.6,383.9z"/>
			</g>
			<path fill="#5E6A71" d="M272.3,380.6h-7.6v0.7c1.5,0.1,2.6,0.8,2.8,1.9c0,0.6,0.1,1.1,0.1,1.8v9c0,5.3-2.4,8.2-6.8,8.2
				c-4.9,0-6.3-3.5-6.3-8.1v-9.6c0-3.1,0.1-3.1,3.1-3.5v-0.6h-8.8v0.7c2.9,0.4,2.8,0.4,2.8,3.5v9.7c0,5.8,2.1,9.5,9,9.5
				c4.2,0,8.6-2.6,8.6-9.6V385v-0.1c0-2.8,1.1-3.2,2.9-3.5L272.3,380.6z"/>
		</g>
		<g>
			<path fill="#5E6A71" d="M188.2,385c-0.3-2.2-1.5-4-4-4c-1.9,0-3.8,1-3.8,3.3c0,2.2,2.2,3.6,5.6,6.1c3.5,2.5,4.6,4.2,4.6,7
				c0,3.9-3.8,6-7.6,6c-2.1,0-3.9-0.4-5.6-1c-0.1,0-0.3-0.1-0.3-0.4v-4.7h0.8c0.4,3.6,2.8,5,5.3,5c2.4,0,4.5-1.8,4.5-4.2
				c0-2.1-1.1-3.9-6-7.1c-1.8-1.1-3.9-2.5-3.9-6c0-2.9,3.1-5.3,6.8-5.3c1.4,0,3.2,0.1,4.6,0.6c0.1,0,0.3,0.1,0.3,0.4v4.3H188.2
				L188.2,385z"/>
			<path fill="#5E6A71" d="M198.6,397.8c0,2.2-0.1,2.1,2.1,2.4v0.6h-6.5v-0.6c2.2-0.3,2.1-0.1,2.1-2.4v-13.1h-1.9
				c-2.1,0-2.6,1.4-3.3,2.9h-0.6l0.7-3.8H204l0.7,3.8h-0.6c-0.8-1.5-1.3-2.9-3.3-2.9h-1.9L198.6,397.8L198.6,397.8z"/>
			<path fill="#5E6A71" d="M207,395.2l-1.1,3.2c-0.3,1,0.1,1.8,1.3,1.8v0.6h-4.5v-0.6c0.7,0,1.4-0.4,1.8-1.3c1-2.1,3.9-10,5.8-15.4
				h1.4c1.7,4.9,4.2,12.2,4.9,14.5c0.6,1.4,1,2.1,1.9,2.1v0.6h-5.6v-0.4c1.5,0,1.7-0.8,1.3-1.8l-1.1-3.1H207V395.2z M212.9,394.3
				l-2.5-7.8l0,0l-2.9,7.8C207.5,394.3,212.9,394.3,212.9,394.3z"/>
			<path fill="#5E6A71" d="M225.2,397.8c0,2.2-0.1,2.1,2.1,2.4v0.6h-6.5v-0.6c2.2-0.3,2.1-0.1,2.1-2.4v-13.1h-1.9
				c-2.1,0-2.6,1.4-3.3,2.9H217l0.7-3.8h12.9l0.7,3.8h-0.6c-0.8-1.5-1.3-2.9-3.3-2.9h-1.9v13.1H225.2z"/>
			<path fill="#5E6A71" d="M232.3,400.2c2.2-0.3,1.8-0.1,1.8-2.4V387c0-2.2,0.3-2.1-1.8-2.4v-0.7h10.6v3.9h-0.7
				c-0.3-1.8-0.7-3.1-2.5-3.1h-3.2v7h2.1c1.5,0,2.2-0.6,2.2-2.1h0.7v5h-0.7c0-1.4-0.6-2.2-2.2-2.2h-2.1v5.4c0,2.1,1,2.2,3.1,2.2
				c3.5,0,3.3-1,4.5-3.6h0.7l-0.7,4.3h-11.7V400.2L232.3,400.2z"/>
		</g>
		<g>
			<path fill="#5E6A71" d="M60.4,397.8c0,2.2-0.1,2.1,2.1,2.4v0.7h-6.5v-0.7c2.2-0.3,2.1-0.1,2.1-2.4V387c0-2.2-1.1-2.1-3.2-2.4
				v-0.7h7.7v0.6c-2.2,0.3-2.1,0.1-2.1,2.4v4.2h8.5v-4.2c0-2.2,0.1-2.1-2.1-2.4v-0.6h6.5v0.6c-2.2,0.3-2.1,0.1-2.1,2.4v10.8
				c0,2.2-0.1,2.1,2.1,2.4v0.7h-6.5v-0.6c2.2-0.3,2.1-0.1,2.1-2.4v-5.7h-8.5V397.8L60.4,397.8z"/>
			<path fill="#5E6A71" d="M80.4,397.8c0,2.2-0.1,2.1,2.1,2.4v0.7h-6.5v-0.7c2.2-0.3,2.1-0.1,2.1-2.4V387c0-2.2,0.1-2.1-2.1-2.4
				v-0.7h6.5v0.6c-2.2,0.3-2.1,0.1-2.1,2.4V397.8z"/>
			<path fill="#5E6A71" d="M100.6,400.9c-3.9-4.6-7.8-9.3-11.8-13.9v10.7c0,0.6,0.1,1,0.1,1.3c0.1,0.8,1,1.3,2.5,1.4v0.7h-6v-0.8
				c1.1-0.1,1.9-0.4,2.1-1.4c0-0.4,0.1-0.8,0.1-1.3v-11.3c-0.7-0.8-1.4-1.7-2.8-1.7v-0.7h4.5c3.6,4.3,7.4,8.8,11,13.2l0,0v-9.9
				c0-0.6-0.1-1-0.1-1.4c-0.1-0.8-1-1.3-2.5-1.4v-0.6h6v0.6c-1.1,0.1-1.9,0.4-2.1,1.4c0,0.4-0.1,0.8-0.1,1.3v13.6L100.6,400.9
				L100.6,400.9z"/>
			<path fill="#5E6A71" d="M104,392.2c0-3.8,3.2-8.6,9.6-8.6c2.4,0,3.5,0.4,4.6,0.8c0.7,0.3,1,0.6,1,1v3.1h-0.7
				c-0.1-1.9-1.3-4-5.1-4c-5,0-6.7,3.5-6.7,7.6c0,3.8,1.9,8.2,6.8,8.2c3.1,0,3.3-1.1,3.3-3.1v-1.5c0-2.2,0.1-2.1-2.5-2.4v-0.6h7v0.6
				c-2.2,0.3-2.1,0.1-2.1,2.4v4.2c-1.5,0.6-3.6,1.1-5.8,1.1C108.5,401.1,104,398.8,104,392.2z"/>
			<path fill="#5E6A71" d="M129.6,397.8c0,2.2-0.1,2.1,2.1,2.4v0.7h-6.5v-0.7c2.2-0.3,2.1-0.1,2.1-2.4v-13.1h-1.9
				c-2.1,0-2.6,1.4-3.3,2.9h-0.6l0.7-3.8h12.8l0.7,3.8h-0.7c-0.8-1.7-1.3-2.9-3.3-2.9h-1.9V397.8z"/>
			<path fill="#5E6A71" d="M135.6,392.7c0-5.3,4-9,9-9c5.3,0,8.3,4.6,8.3,8.2c0,5.1-3.8,9.3-9.2,9.3
				C139.2,401.1,135.6,397.4,135.6,392.7z M150.2,392.7c0-5.8-3.1-8.1-6.1-8.1c-4.2,0-5.8,3.6-5.8,7c0,5.8,3.1,8.9,6.1,8.9
				C149,400.3,150.2,395.9,150.2,392.7z"/>
			<path fill="#5E6A71" d="M168.6,400.9c-3.9-4.6-7.8-9.3-11.8-13.9v10.7c0,0.6,0.1,1,0.1,1.3c0.1,0.8,1,1.3,2.5,1.4v0.7h-6v-0.8
				c1.1-0.1,1.9-0.4,2.1-1.4c0-0.4,0.1-0.8,0.1-1.3v-11.3c-0.7-0.8-1.4-1.7-2.8-1.7v-0.7h4.5c3.6,4.3,7.4,8.8,11,13.2l0,0v-9.9
				c0-0.6-0.1-1-0.1-1.3c-0.1-0.8-1-1.3-2.5-1.4v-0.7h6v0.6c-1.1,0.1-1.9,0.4-2.1,1.4c0,0.4-0.1,0.8-0.1,1.3v13.6L168.6,400.9
				L168.6,400.9z"/>
			<path fill="#5E6A71" d="M33.2,380.7L33.2,380.7h-6.5v0.8c2.5,0,2.9,1,2.2,2.8l-5,13.5h-0.3L17.9,381h-1.5l-6.1,16.8H9.9
				l-4.3-13.4c-0.7-2.1,0.3-2.9,2.2-2.9v-0.8H0v0.8c1.7,0,1.9,1.3,3.1,4.3l5.6,16.7h1.5l6-17l6,17h1.7c2.5-6.8,6.1-16.7,7.4-19.5
				c0.6-1,1.4-1.5,2.2-1.5L33.2,380.7L33.2,380.7z"/>
			<path fill="#5E6A71" d="M50.6,391.8c-2.5-1.9-4.3-2.9-4.3-4.7c0-1.9,1.4-2.6,2.8-2.6c2.1,0,3.1,1.4,3.2,3.2H53v-3.3
				c0-0.1,0-0.3-0.1-0.3c-1.1-0.4-2.5-0.6-3.6-0.6c-2.9,0-5.4,1.8-5.4,4c0,1.3,0.3,2.1,0.8,2.8l0,0l0,0c0.6,0.8,1.5,1.4,2.2,1.8
				c3.8,2.5,4.7,3.9,4.7,5.6c0,1.5-1.1,3.1-3.3,3.2c-2.2,0.1-5-0.8-6.1-3.9c-1.1-2.8-3.2-9-4.6-13.2h-1.4
				c-1.9,5.3-4.7,13.2-5.7,15.3c-0.6,0.7-1.3,1.1-1.8,1.1v0.7h1.1h3.3v-0.7c-1.1,0-1.5-0.8-1.3-1.8l1.1-3.2h6.1l1,3.1l0.8,2.4
				c0,0,4.3,1.1,7.1,1.1c3.1,0,6.1-1.7,6.1-4.7C54.2,395,53.3,393.8,50.6,391.8z M33.2,394.3l2.9-7.8l0,0l2.5,7.8
				C38.7,394.3,33.2,394.3,33.2,394.3z"/>
		</g>
	</g>
</g>
<g>
	<g>
		<path fill="#68747B" d="M446.1,393.1v-5.8h-6v5.8h-1.6v-11.6h1.6v4.6h6v-4.6h1.6v11.6H446.1z"/>
		<path fill="#68747B" d="M450.8,393.1v-11.6h6v1.2h-4.4v3.7h4.3v1.2h-4.3v4.3h5.1v1.2H450.8z"/>
		<path fill="#68747B" d="M467.5,393.1l-1.2-3.5h-4.7l-1.3,3.5h-1.5l4.7-11.6h1.4l4.3,11.6H467.5z M464.1,383.2l-2,5.5h3.9
			L464.1,383.2z"/>
		<path fill="#68747B" d="M471.4,393.1v-11.6h1.6v10.4h5v1.2H471.4z"/>
		<path fill="#68747B" d="M483.3,382.7v10.4h-1.6v-10.4h-3.8v-1.2h9.2v1.2H483.3z"/>
		<path fill="#68747B" d="M496.9,393.1v-5.8h-6v5.8h-1.6v-11.6h1.6v4.6h6v-4.6h1.6v11.6H496.9z"/>
		<path fill="#68747B" d="M510.2,393.3c-1.3,0-2.3-0.4-3.1-1l0.6-1c0.8,0.7,1.7,0.9,2.4,0.9c1.3,0,2.2-1,2.2-1.9
			c0-0.7-0.3-1.1-0.6-1.4c-0.8-0.8-2.2-1.7-3.1-2.6c-0.6-0.6-0.9-1.2-0.9-2.1c0-1.7,1.4-2.8,3.4-2.8c1,0,1.9,0.3,2.7,1l-0.6,0.9
			c-0.7-0.6-1.3-0.7-1.9-0.7c-1.3,0-1.9,0.8-1.9,1.6c0,0.5,0.3,0.9,0.7,1.3c0.7,0.7,2.3,1.8,3,2.4c0.7,0.7,1,1.4,1,2.3
			C513.9,392,512.3,393.3,510.2,393.3z"/>
		<path fill="#68747B" d="M525.5,392.3c-1.1,0.7-2.2,1-3.7,1c-3.5,0-6.1-2.5-6.1-6c0-3.5,2.6-6,6.2-6c1.5,0,2.8,0.3,3.7,1.1l-0.5,1
			c-0.9-0.6-2-1-3.1-1c-2.6,0-4.6,1.9-4.6,4.8c0,2.8,2,4.9,4.6,4.9c1.2,0,2.1-0.2,3-0.8L525.5,392.3z"/>
		<path fill="#68747B" d="M528.1,393.1v-11.6h1.6v11.6H528.1z"/>
		<path fill="#68747B" d="M532.9,393.1v-11.6h6v1.2h-4.4v3.7h4.3v1.2h-4.3v4.3h5.1v1.2H532.9z"/>
		<path fill="#68747B" d="M550.2,393.1l-5.5-7.6c-0.3-0.4-0.9-1.3-1.2-1.7v9.3h-1.4v-11.6h1.4l5.6,7.8c0.3,0.4,0.8,1.2,1.1,1.6v-9.4
			h1.4v11.6H550.2z"/>
		<path fill="#68747B" d="M563.6,392.3c-1.1,0.7-2.2,1-3.7,1c-3.5,0-6.1-2.5-6.1-6c0-3.5,2.6-6,6.2-6c1.5,0,2.8,0.3,3.7,1.1l-0.5,1
			c-0.9-0.6-2-1-3.1-1c-2.6,0-4.6,1.9-4.6,4.8c0,2.8,2,4.9,4.6,4.9c1.2,0,2.1-0.2,3-0.8L563.6,392.3z"/>
		<path fill="#68747B" d="M566.2,393.1v-11.6h6v1.2h-4.4v3.7h4.3v1.2h-4.3v4.3h5.1v1.2H566.2z"/>
		<path fill="#68747B" d="M577.8,393.3c-1.3,0-2.3-0.4-3.1-1l0.6-1c0.8,0.7,1.7,0.9,2.4,0.9c1.3,0,2.2-1,2.2-1.9
			c0-0.7-0.3-1.1-0.6-1.4c-0.8-0.8-2.2-1.7-3.1-2.6c-0.6-0.6-0.9-1.2-0.9-2.1c0-1.7,1.4-2.8,3.4-2.8c1,0,1.9,0.3,2.7,1l-0.6,0.9
			c-0.7-0.6-1.3-0.7-1.9-0.7c-1.3,0-1.9,0.8-1.9,1.6c0,0.5,0.3,0.9,0.7,1.3c0.7,0.7,2.3,1.8,3,2.4c0.7,0.7,1,1.4,1,2.3
			C581.5,392,579.9,393.3,577.8,393.3z"/>
	</g>
	<g>
		<path fill="#68747B" d="M440.6,410.3c-1.2,0-2.2-0.4-3-1l0.6-1c0.8,0.6,1.6,0.9,2.2,0.9c1.2,0,2.1-0.9,2.1-1.8
			c0-0.7-0.3-1-0.6-1.4c-0.8-0.8-2.1-1.6-3-2.5c-0.6-0.6-0.9-1.2-0.9-2c0-1.6,1.4-2.7,3.2-2.7c1,0,1.8,0.3,2.5,0.9l-0.6,0.8
			c-0.7-0.5-1.2-0.7-1.8-0.7c-1.2,0-1.8,0.8-1.8,1.5c0,0.5,0.3,0.9,0.6,1.2c0.6,0.7,2.2,1.7,2.8,2.3c0.7,0.7,1,1.3,1,2.2
			C444.1,409.1,442.5,410.3,440.6,410.3z"/>
		<path fill="#68747B" d="M452.2,404.8c-0.7,0.6-1.9,1-3.3,1v-1c2-0.1,2.9-1.1,2.9-2.4c0-1.4-1-2.1-2.8-2.1h-0.8v9.9h-1.5v-11h2.5
			c1.3,0,2.2,0.2,2.9,0.6c0.8,0.5,1.3,1.4,1.3,2.5C453.4,403.3,452.9,404.3,452.2,404.8z"/>
		<path fill="#68747B" d="M460.6,410.3c-3.3,0-5.5-2.6-5.5-5.8c0-3.3,2.3-5.6,5.5-5.6c3.1,0,5.5,2.4,5.5,5.6
			C466.1,407.8,463.9,410.3,460.6,410.3z M460.6,400c-2.7,0-3.9,2.4-3.9,4.6c0,2.2,1.2,4.6,3.9,4.6c2.3,0,3.9-1.8,3.9-4.6
			C464.5,402.2,463.1,400,460.6,400z"/>
		<path fill="#68747B" d="M474.6,410.3l-4.9-5.9v5.7h-1.5v-11h1.5v4.9l4.8-5.1l1.1,0.7l-4.3,4.5l4.8,5.6L474.6,410.3z"/>
		<path fill="#68747B" d="M485.4,410.1l-1.1-3.3h-4.4l-1.2,3.3h-1.4l4.5-11h1.3l4.1,11H485.4z M482.2,400.7l-1.9,5.2h3.7
			L482.2,400.7z"/>
		<path fill="#68747B" d="M496.7,410.1l-5.3-7.3c-0.3-0.4-0.9-1.2-1.1-1.6v8.9H489v-11h1.3l5.4,7.4c0.3,0.4,0.8,1.1,1.1,1.5v-8.9
			h1.3v11H496.7z"/>
		<path fill="#68747B" d="M500.9,410.1v-11h5.7v1.1h-4.1v3.6h4.1v1.1h-4.1v4.1h4.8v1.1H500.9z"/>
	</g>
</g>
</svg>
