<svg xmlns="http://www.w3.org/2000/svg" xml:space="preserve" viewBox="0 0 392.09332 254.06667"><g fill="#fff"><path d="M53.739599 247.146884c0 2.62916-1.463067 4.339573-4.216134 4.339573-2.777066 0-4.240133-1.710414-4.240133-4.339573v-9.921414h-2.928666v10.01984c0 4.06824 2.3568 6.82136 7.1688 6.82136 4.788 0 7.143733-2.72812 7.143733-6.845306v-9.995894h-2.9276v9.921414M87.873998 248.709377l-8.458933-11.483907h-2.976v16.543804h2.9016v-11.807817l8.632266 11.807817h2.802533V237.22547h-2.901466v11.483907M113.997864 253.769274h2.9016V237.22547h-2.9016v16.543804M147.290663 250.61979l-5.010667-13.39432h-3.298666l6.498666 16.543804h3.621334l6.498666-16.543804h-3.298666l-5.010667 13.39432M175.719996 253.769274h11.334666v-2.554684h-8.433333v-4.589066h7.132v-2.554694h-7.132v-4.29056h8.433333v-2.5548h-11.334666v16.543804M246.517327 241.61615c0-1.241613 1.090667-2.058813 2.801333-2.058813 1.737334 0 3.497334.5948 4.786667 1.883813l1.662667-2.15728c-1.537334-1.489066-3.622667-2.3068-6.201334-2.3068-3.62 0-6.026666 2.1084-6.026666 4.83648 0 6.10104 9.649333 3.943747 9.649333 7.417187 0 1.090626-.944 2.25572-3.324 2.25572-2.308 0-4.093333-1.065094-5.234666-2.28124l-1.610667 2.23228c1.461333 1.562506 3.670666 2.629173 6.721333 2.629173 4.462667 0 6.398667-2.356253 6.398667-5.110933 0-6.17448-9.622667-4.265107-9.622667-7.339587M279.97066 253.769274h2.901333V237.22547h-2.901333v16.543804M306.802659 239.78027h5.008v13.989004h2.902666V239.78027h5.012v-2.5548H306.80266v2.5548M346.255991 244.31875l-4.562666-7.09328h-3.324l6.424 9.672974v6.87083h2.901333v-6.87083l6.4-9.672974h-3.324l-4.514667 7.09328M212.818661 245.03855v-5.25828h3.969334c1.637333 0 2.826666 1.041094 2.826666 2.627547 0 1.588013-1.189333 2.630733-2.826666 2.630733zm10.485333 8.730724-4.121333-6.623964c1.792-.494786 3.409333-2.038533 3.409333-4.737493 0-3.05048-2.132-5.182347-5.406666-5.182347h-7.268v16.543804h2.901333v-6.176044h3.466667l3.669333 6.176044h3.349333M70.635998 205.949471c0-1.624 1.3796-2.7188 3.854133-2.7188 2.759867 0 5.681734.933334 7.8724 2.961467l3.205734-4.220267c-2.678134-2.474533-6.248534-3.774533-10.549467-3.774533-6.370933 0-10.266666 3.7344-10.266666 8.238667 0 10.185333 15.581733 6.898933 15.581733 11.685333 0 1.542666-1.542134 3.002666-4.707867 3.002666-3.7328 0-6.693733-1.664133-8.602-3.652133l-3.123466 4.3828c2.514533 2.555733 6.247866 4.3016 11.4416 4.3016 7.304266 0 10.834933-3.733334 10.834933-8.6844 0-10.102533-15.541067-7.2224-15.541067-11.5224M108.427064 209.234938H95.646398v-10.6308h-5.762v27.0652h5.762V214.30787h12.780666v11.361466h5.802666v-27.065199h-5.802666v10.6308M119.44733 225.669337h5.762v-27.065199h-5.762v27.0652M149.283996 215.606804l-12.538666-17.002666h-5.924v27.0652h5.762667v-17.652134l12.902666 17.652133h5.56v-27.065199h-5.762667v17.002666M186.903995 203.676005h7.913333v21.993332h5.802667v-21.993332h7.872v-5.071867h-21.588v5.071867M222.379994 221.043737c-4.989333 0-8.194666-3.855733-8.194666-8.8864 0-5.073466 3.205333-8.886532 8.194666-8.886532 4.990667 0 8.238667 3.813066 8.238667 8.886533 0 5.030666-3.248 8.8864-8.238667 8.8864zm0-22.884932c-8.154666 0-14.121333 5.8428-14.121333 13.998533 0 8.156266 5.966667 13.998933 14.121333 13.998933 8.197334 0 14.161333-5.842667 14.161333-13.998933 0-8.155733-5.964-13.998533-14.161333-13.998533M263.909327 225.669337v-27.065199h-5.762667v17.002666l-12.538666-17.002666h-5.924v27.0652h5.762667v-17.652134l12.902666 17.652133h5.56M290.869326 205.949471c0-1.624 1.381333-2.7188 3.854667-2.7188 2.76 0 5.682666.933334 7.872 2.961467l3.206666-4.220267c-2.678667-2.474533-6.249333-3.774533-10.550666-3.774533-6.370667 0-10.266667 3.7344-10.266667 8.238667 0 10.185333 15.582666 6.898933 15.582666 11.685333 0 1.542666-1.541333 3.002666-4.706666 3.002666-3.733333 0-6.694667-1.664133-8.604-3.652133l-3.122666 4.3828c2.514666 2.555733 6.248 4.3016 11.442666 4.3016 7.302666 0 10.834666-3.733334 10.834666-8.6844 0-10.102533-15.542666-7.2224-15.542666-11.5224M329.195992 198.604138h-21.588v5.071867h7.913333v21.993332h5.802667v-21.993332h7.872v-5.071867M362.549324 225.669337v-21.993332h7.872v-5.071867h-21.586666v5.071867h7.913333v21.993332h5.801333M392.08799 203.676005v-5.071867h-19.152v27.0652h19.152v-5.072h-13.389333v-6.128h11.978667v-5.070934h-11.978667v-5.7224h13.389333M47.336399 214.593204l3.0568-9.1572 3.0568 9.1572zm6.510533-15.950533h-6.906267l-9.643733 27.069333H43.8172l1.9156-5.597466h9.328666l1.8692 5.597466h6.521467l-9.6052-27.069333M335.950658 214.593204l3.056-9.155733 3.057333 9.155733zm6.510667-15.949466h-6.906667l-9.642666 27.0656h6.518666l1.916-5.5948h9.328l1.870667 5.5948h6.521333l-9.605333-27.0656M186.909329 209.568271h-13.545333v5.047867h7.56c-.884 3.773466-3.816 6.4276-7.954667 6.4276-4.990667 0-8.196-3.855734-8.196-8.8864 0-5.073467 3.205333-8.886533 8.196-8.886533 2.953333 0 5.288 1.3428 6.709333 3.482266l5.041333-2.734266c-2.48-3.626667-6.686666-5.86-11.750666-5.86-8.154666 0-14.12 5.8428-14.12 13.998533 0 8.156266 5.965334 13.998933 14.12 13.998933 7.345333 0 12.882666-4.698934 13.958666-11.540133.124-.7948.202667-1.610934.202667-2.4588 0-.8948-.082667-1.754667-.221333-2.589067M35.002132 198.643738l-6.3016 17.676-5.681733-17.676h-4.891733L12.4224 216.342671l-6.2448-17.518666-.05624-.180267H0l9.634373 27.0656h5.913493L20.562 210.07347l5.027067 15.635866h5.884933l9.660933-27.065599h-6.1328M225.286661 170.664005s8.713333-3.720266 13.489333-18.128c4.206667 8.780134 3.108 17.807734 3.108 17.807734-3.857333.8656-16.597333.320266-16.597333.320266M272.093327 88.262674s5.316 28.96-13.510667 29.949333c-18.164.946666-26.718666-26.366666-26.718666-26.366666s4.390667 53.375998 29.856 49.859865c28.667999-3.953066 10.373333-53.442532 10.373333-53.442532M133.803997 163.774539c.013333-.007867.028-.007867.028-.007867 21.228-4.833333 37.499999-29.606799 42.267999-39.551599l3.036-6.2964 1.826666 6.740134c.088.364133 2.066667 7.804266 2.066667 17.618266 0 1.092266-.028 2.205733-.086667 3.333333 7.324.2776 12.550666-1.207733 15.805333-4.5864 4.666667-4.8188 6.062667-13.9552 4.332-27.918666-.86-6.682666-3.328-17.312-5.518667-26.694666-1.121333-4.797333-2.177333-9.333333-2.817333-12.544-4.092-20.514666.989333-33.254665 5.969333-40.323998.793334-1.113334 1.645334-2.169334 2.548-3.158667-14.698666 4.934666-27.016 12.622666-39.726665 25.318666l8.938666 10.366666 3.656-3.421333c3.464 12.878666.974667 24.737333.974667 24.737333-4.702667-7.162667-10.249334-12.972-10.249334-12.972l2.424-4.077333-8.058666-9.361333-.932-1.048c-9.908 13.605333-13.112 24.736-13.112 24.736l7.025333 6.436 4.092 3.705332 1.374667-3.945333c7.564 14.145333.656 27.365333.656 27.365333-1.237333-4.818667-6.217333-11.946667-6.217333-11.946667l1.965333-6.486666-10.46-9.464c-10.877333 33.976-25.407866 44.982666-25.407866 44.982666s15.7172-2.8312 24.474533-5.772934c0 0-.24 17.908933-10.874666 34.238133"/><path d="M219.745328 52.488008c5.065333-3.552 13.685333-6.282666 21.773333-5.664 2.045333.153334 3.778666-.385333 1.572-1.549333-6.049334-3.189333-20.150667-2.104-25.137333 1.294667-7.985333 5.445333-6.632 15.150666-6.449333 15.382666 1.593333-2.78 4.294666-6.704 8.241333-9.464m72.769331-11.290666-25.115999 1.062667c.016 2.956-.377333 5.954666-1.338667 8.786666 2.344 10.250666.713334 15.812.713334 15.812-4.2-9.776-7.397333-12.492-7.397333-12.492-23.070667-10.242666-36.028 12.921333-34.637333 27.868 1.128 12.281332 5.590667 28.579999 9.064 54.155998 2.926666 21.518666-7.972 30.822933-20.508 32.954666-.269333.037466-.545333.088-.822666.1468-.073334 0-.130667 0-.197334.014666-2.037333.262534-4.192.370267-6.470666.319734-.073333-.021334-.168-.021334-.241333-.021334-.254667 0-.494667-.035866-.749334-.035866-.976-.058934-1.937333-.16-2.890666-.2772-9.754667-1.3468-31.594666-5.315067-54.154666-5.861467 13.270667-7.744266 23.652-21.161333 29.446666-30.662399.334667 2.635867.604 5.846267.604 9.383866 0 1.7624-.057333 3.618667-.24 5.511867l-.217333 2.590667 2.598667.2188c10.38.902533 17.74-1.0776 22.553332-6.034934 5.881333-6.1292 7.693333-16.344266 5.7-32.185199-.858667-6.944-3.385333-17.72-5.590666-27.22-1.1-4.753332-2.141334-9.266666-2.774667-12.382665-3.734667-18.717333.729333-30.081333 5.132-36.312 3.430666-4.878666 8.182666-8.46 13.396-10.177333.088-.016.174666-.037333.268-.052L227.221328.00001h2.693333l-5.758667 25.282666c1.332-.232 2.686667-.442667 4.054667-.654667l7.404-23.310666h2.664l-4.848 22.576c7.665333-.984 15.98-1.748 25.196-2.425334 1.492.597333 3.109332 2.322667 4.528 4.725333l24.169332-7.433333.896 2.606667-23.106666 8.961333c.182666.473333.362666.968.509333 1.470667l25.261333-3.137334.421333 2.708-24.510666 4.892c.086667.458667.16.917333.24 1.376l25.494666.822667-.014667 2.737333"/></g></svg>