<?xml version="1.0" encoding="utf-8"?>
<!-- Generator: Adobe Illustrator 16.0.0, SVG Export Plug-In . SVG Version: 6.00 Build 0)  -->
<!DOCTYPE svg PUBLIC "-//W3C//DTD SVG 1.1//EN" "http://www.w3.org/Graphics/SVG/1.1/DTD/svg11.dtd">
<svg version="1.1" id="Layer_1" xmlns="http://www.w3.org/2000/svg" xmlns:xlink="http://www.w3.org/1999/xlink" x="0px" y="0px"
	 width="150px" height="92.27px" viewBox="0 0 150 92.27" enable-background="new 0 0 150 92.27" xml:space="preserve">
<g>
	<path fill="#EFF0F1" d="M82.73,11.215c-1.166-0.614-3.885-0.406-4.848,0.254c-1.543,1.055-1.281,2.932-1.244,2.977
		c0.307-0.536,0.832-1.293,1.592-1.829c0.978-0.688,2.641-1.218,4.195-1.099C82.826,11.55,83.158,11.448,82.73,11.215z"/>
	<path fill="#EFF0F1" d="M54.141-0.001v0.944c0.586,0.203,0.777,0.391,0.84,1.247v21.8c0,12.125,9.842,15.326,20.221,23.474
		C85.583,39.318,95.43,36.115,95.43,23.99V1.948c0.078-0.662,0.289-0.822,0.814-1.005v-0.944H54.141z M61.646,34.153
		c2.052-3.157,2.099-6.624,2.098-6.619c-1.689,0.566-4.729,1.115-4.729,1.115s2.81-2.132,4.908-8.709l2.018,1.833l-0.379,1.255
		c0,0,0.959,1.379,1.201,2.312c0,0,1.33-2.56-0.129-5.296l-0.263,0.762l-0.791-0.719l-1.356-1.238c0,0,0.621-2.157,2.531-4.791
		l0.182,0.201l1.555,1.812l-0.471,0.791c0,0,1.072,1.124,1.979,2.512c0,0,0.478-2.296-0.188-4.786l-0.704,0.66l-1.724-2.01
		c2.453-2.453,4.83-3.941,7.66-4.899c-0.172,0.195-0.335,0.397-0.488,0.616c-0.959,1.365-1.94,3.831-1.149,7.803
		c0.122,0.62,0.325,1.497,0.542,2.425c0.421,1.815,0.898,3.874,1.061,5.168c0.338,2.703,0.066,4.47-0.832,5.407
		c-0.629,0.652-1.637,0.938-3.049,0.885c0.01-0.219,0.016-0.437,0.016-0.645c0-1.902-0.383-3.339-0.399-3.411l-0.354-1.309
		l-0.582,1.222c-0.924,1.925-4.059,6.72-8.156,7.653C61.65,34.153,61.646,34.153,61.646,34.153z M82.498,35.427
		c-0.742,0.166-3.201,0.059-3.201,0.059s1.684-0.718,2.604-3.507C82.713,33.678,82.498,35.427,82.498,35.427z M86.326,29.882
		c-4.911,0.681-5.76-9.651-5.76-9.651s1.656,5.287,5.16,5.104c3.629-0.191,2.604-5.793,2.604-5.793S91.861,29.115,86.326,29.882z
		 M92.271,10.429l-4.85,0.206c0.008,0.574-0.07,1.151-0.261,1.698c0.455,1.984,0.146,3.062,0.146,3.062
		c-0.813-1.894-1.438-2.417-1.438-2.417c-4.448-1.985-6.948,2.5-6.684,5.395c0.222,2.376,1.078,5.53,1.75,10.479
		c0.565,4.165-1.535,5.963-3.957,6.377c-0.054,0.009-0.104,0.021-0.156,0.026c-0.014,0-0.024,0.005-0.037,0.005
		c-0.393,0.051-0.811,0.069-1.251,0.057c-0.017,0-0.029,0-0.044,0c-0.048,0-0.099-0.006-0.144-0.006
		c-0.188-0.013-0.377-0.028-0.562-0.057c-1.879-0.258-6.095-1.026-10.447-1.132c2.561-1.501,4.562-4.095,5.68-5.938
		c0.065,0.512,0.121,1.132,0.121,1.816c0,0.342-0.015,0.698-0.047,1.064l-0.043,0.499l0.5,0.045
		c2.004,0.176,3.428-0.208,4.348-1.169c1.141-1.188,1.491-3.167,1.107-6.229c-0.17-1.349-0.652-3.431-1.078-5.271
		c-0.215-0.921-0.42-1.791-0.537-2.396c-0.719-3.62,0.138-5.818,0.983-7.023c0.669-0.945,1.584-1.639,2.591-1.973
		c0.019-0.001,0.034-0.006,0.054-0.006l1.65-5.098h0.52L79.08,7.346c0.258-0.049,0.52-0.088,0.786-0.128l1.425-4.514h0.518
		l-0.937,4.372c1.479-0.192,3.082-0.341,4.858-0.474c0.291,0.121,0.597,0.451,0.873,0.916l4.666-1.438l0.17,0.502l-4.455,1.74
		c0.035,0.09,0.064,0.188,0.103,0.281l4.872-0.605l0.082,0.524L87.309,9.47c0.021,0.09,0.033,0.178,0.045,0.267l4.926,0.157
		L92.271,10.429z"/>
</g>
<path fill="#D7DAD8" d="M82.782,44.1l-7.586,5.414l-7.58-5.414c-5.39-3.692-10.009-6.862-12.431-11.673
	c2,9.02,10.795,12.391,20.011,19.622c9.216-7.23,18.015-10.604,20.015-19.622C92.789,37.238,88.17,40.405,82.782,44.1z"/>
<g>
	<g>
		<path fill="#EFF0F1" d="M95.348,83.022c-1.568-1.178-2.666-1.835-2.666-2.935c0-1.16,0.815-1.633,1.729-1.633
			c1.254,0,1.853,0.88,1.978,1.979h0.405v-2.058c0-0.078-0.017-0.144-0.106-0.171c-0.629-0.222-1.522-0.298-2.197-0.298
			c-1.805,0-3.372,1.11-3.372,2.523c0,0.763,0.211,1.312,0.521,1.729h-0.006c0.008,0.007,0.014,0.012,0.02,0.018
			c0.383,0.508,0.902,0.831,1.363,1.14c2.354,1.557,2.885,2.388,2.903,3.403c0.043,2.265-4.196,3.454-6.987-0.896L87.48,83.62
			c1.141-0.444,2.069-1.494,2.069-3.021c0-1.732-1.493-2.516-2.987-2.516h-4.31v0.384c1.332,0.159,1.271,0.09,1.271,1.465v6.658
			c0,1.383,0.062,1.306-1.271,1.467v0.385h3.979V88.06c-1.332-0.161-1.272-0.084-1.272-1.467v-2.735h1.396
			c1.789,2.976,2.231,4.269,3.136,4.587c0.2,0.072,2.522,0.817,4.163,0.817c1.884,0,3.894-1.034,3.894-2.9
			C97.544,85.062,97.012,84.258,95.348,83.022z M86.189,83.542h-1.23v-4.824H86.1c1.078,0,1.971,0.562,1.971,2.177
			C88.068,82.568,87.477,83.542,86.189,83.542z"/>
		<path fill="#EFF0F1" d="M56.41,88.43c0,0,0,0-7.242-8.582v6.574c0,0.312,0.061,0.562,0.088,0.804
			c0.075,0.535,0.582,0.742,1.562,0.818v0.386h-3.645v-0.386c0.717-0.076,1.205-0.283,1.278-0.818
			c0.032-0.238,0.09-0.491,0.09-0.804v-7.004c-0.415-0.535-0.879-1.015-1.724-1.015v-0.391h2.705
			c2.215,2.694,4.523,5.433,6.738,8.124h0.03v-6.114c0-0.312-0.062-0.562-0.091-0.803c-0.076-0.535-0.577-0.74-1.561-0.816v-0.391
			h3.644v0.391C57.583,78.48,57.077,78.685,57,79.22c-0.029,0.238-0.087,0.489-0.087,0.803v8.404L56.41,88.43L56.41,88.43z"/>
		<path fill="#EFF0F1" d="M62.256,86.57c0,1.388-0.06,1.312,1.277,1.477v0.386h-4v-0.386c1.339-0.164,1.279-0.089,1.279-1.477V79.88
			c0-1.382,0.06-1.312-1.279-1.473v-0.387h4v0.387c-1.337,0.16-1.277,0.091-1.277,1.473V86.57z"/>
		<path fill="#EFF0F1" d="M81.18,85.752c-0.686,1.593-0.58,2.203-2.734,2.203c-1.34,0-1.922-0.105-1.922-1.371v-3.359h1.252
			c0.994,0,1.338,0.522,1.365,1.399h0.385v-3.17h-0.385c-0.027,0.922-0.433,1.295-1.365,1.295h-1.252v-4.253h2.359
			c1.069,0,1.369,0.814,1.518,1.917h0.386V78.02h-6.849H70.99v0.385c1.009,0,1.396,0.463,1.024,1.397
			c-0.922,2.276-1.83,4.564-2.783,6.842c-0.771-2.26-1.633-4.815-2.211-6.57c-0.494-1.432,0.104-1.667,0.923-1.667V78.02h-3.784
			v0.387c0.717,0,0.908,0.461,1.462,2.053c0.905,2.526,1.919,5.396,2.825,7.972h0.758c1.25-3.049,2.514-6.083,3.762-9.13
			c0.312-0.746,0.535-0.895,0.971-0.895c1.336,0.16,1.145,0.091,1.145,1.473v6.689c0,1.388,0.191,1.312-1.145,1.477v0.386h7.183
			l0.446-2.678L81.18,85.752L81.18,85.752z"/>
		<path fill="#EFF0F1" d="M101.105,86.57c0,1.388-0.062,1.312,1.273,1.477v0.386h-4v-0.386c1.342-0.164,1.28-0.089,1.28-1.477V79.88
			c0-1.382,0.062-1.312-1.28-1.473v-0.387h4v0.387c-1.339,0.16-1.273,0.091-1.273,1.473V86.57z"/>
		<path fill="#EFF0F1" d="M116.314,78.022v0.387c0.877,0,1.353,0.43,0.847,1.339l-2.052,3.733l-1.801-3.733
			c-0.373-0.774-0.476-1.339,0.652-1.339v-0.387h-2.494h-1.029h-6.926l-0.402,2.271h0.373c0.488-0.979,0.787-1.796,2.08-1.796h1.207
			v8.071c0,1.388,0.06,1.312-1.279,1.477v0.386h4v-0.386c-1.338-0.164-1.279-0.089-1.279-1.477v-8.071h1.206
			c1.22,0,2.04,0.729,2.542,1.633l2.094,4.154v2.284c0,1.388,0.062,1.312-1.277,1.476v0.387h4v-0.387
			c-1.338-0.164-1.276-0.088-1.276-1.476v-1.666c0-0.369,0.028-0.786,0.183-1.084l2.479-4.508c0.401-0.715,0.803-0.904,1.222-0.904
			V78.02L116.314,78.022L116.314,78.022z"/>
		<path fill="#EFF0F1" d="M46.836,78.013l-4.686,0.014v0.391c0.938,0.102,1.619,0.513,1.718,1.232
			c0.04,0.317,0.123,0.656,0.123,1.077v5.562c0,3.202-1.442,5.04-4.183,5.04c-2.98,0-3.875-2.142-3.875-4.941v-5.859
			c0-1.857,0.055-1.895,1.854-2.11v-0.391h-5.383v0.391c1.803,0.219,1.724,0.253,1.724,2.11v5.963c0,3.618,1.319,5.781,5.578,5.781
			c2.58,0,5.325-1.601,5.325-5.899v-5.645c0-0.034,0-0.064,0-0.1c-0.019-1.737,0.655-1.99,1.793-2.173L46.836,78.013z"/>
	</g>
	<g>
		<path fill="#EFF0F1" d="M36.771,70.562c0,1.378-0.061,1.305,1.271,1.466v0.386H34.06v-0.386c1.332-0.161,1.272-0.088,1.272-1.466
			v-6.666c0-1.376-0.641-1.302-1.973-1.465v-0.385h4.683v0.385c-1.332,0.163-1.271,0.089-1.271,1.465v2.563h5.197v-2.563
			c0-1.376,0.06-1.302-1.274-1.465v-0.385h3.981v0.385c-1.33,0.163-1.272,0.089-1.272,1.465v6.666c0,1.378-0.058,1.305,1.272,1.466
			v0.386h-3.981v-0.386c1.333-0.161,1.274-0.088,1.274-1.466v-3.497h-5.197V70.562z"/>
		<path fill="#EFF0F1" d="M49.02,70.562c0,1.378-0.062,1.305,1.271,1.466v0.386H46.31v-0.386c1.334-0.161,1.272-0.088,1.272-1.466
			v-6.666c0-1.376,0.06-1.302-1.272-1.465v-0.385h3.981v0.385c-1.333,0.163-1.271,0.089-1.271,1.465V70.562z"/>
		<path fill="#EFF0F1" d="M61.329,72.41c-2.354-2.782-4.798-5.701-7.21-8.545v6.548c0,0.308,0.059,0.562,0.089,0.798
			c0.075,0.534,0.576,0.738,1.554,0.813v0.386h-3.625v-0.386c0.709-0.075,1.198-0.279,1.272-0.813
			c0.028-0.235,0.089-0.49,0.089-0.798v-6.978c-0.416-0.532-0.875-1.007-1.719-1.007v-0.384h2.695
			c2.207,2.679,4.502,5.401,6.707,8.083h0.029v-6.085c0-0.312-0.059-0.564-0.089-0.801c-0.071-0.534-0.577-0.739-1.555-0.813v-0.384
			h3.629v0.384c-0.696,0.074-1.199,0.279-1.276,0.813c-0.027,0.233-0.086,0.486-0.086,0.801v8.366L61.329,72.41L61.329,72.41
			L61.329,72.41z"/>
		<path fill="#EFF0F1" d="M63.512,67.169c0-2.281,1.926-5.304,5.922-5.304c1.437,0,2.117,0.268,2.844,0.508
			c0.415,0.132,0.578,0.337,0.578,0.575v1.908h-0.385c-0.045-1.186-0.799-2.473-3.153-2.473c-3.097,0-4.103,2.132-4.117,4.662
			c-0.015,2.339,1.169,5.021,4.175,5.021c1.852,0,2.016-0.686,2.016-1.838v-0.903c0-1.377,0.058-1.303-1.57-1.466v-0.38H74.1v0.386
			c-1.332,0.161-1.271,0.087-1.271,1.464v2.578c-0.949,0.369-2.191,0.683-3.541,0.683C66.253,72.59,63.512,71.137,63.512,67.169z"/>
		<path fill="#EFF0F1" d="M79.18,70.562c0,1.378-0.06,1.305,1.273,1.466v0.386h-3.982v-0.386c1.33-0.161,1.271-0.088,1.271-1.466
			V62.52h-1.201c-1.288,0-1.583,0.812-2.072,1.792H74.1l0.4-2.266h7.922l0.398,2.266h-0.37c-0.487-0.979-0.784-1.792-2.071-1.792
			H79.18V70.562L79.18,70.562z"/>
		<path fill="#EFF0F1" d="M82.822,67.419c0-3.199,2.486-5.554,5.566-5.554c3.213,0,5.078,2.771,5.078,5.052
			c0,3.125-2.341,5.673-5.611,5.673C85.027,72.59,82.822,70.295,82.822,67.419z M91.779,67.362c0-3.537-1.909-4.976-3.719-4.976
			c-2.518,0-3.553,2.249-3.553,4.265c0,3.584,1.838,5.424,3.744,5.424C91.01,72.073,91.779,69.347,91.779,67.362z"/>
		<path fill="#EFF0F1" d="M103.02,72.41c-2.354-2.782-4.797-5.701-7.213-8.545v6.548c0,0.308,0.062,0.562,0.09,0.798
			c0.074,0.534,0.578,0.738,1.557,0.813v0.386h-3.628v-0.386c0.712-0.075,1.198-0.279,1.272-0.813
			c0.028-0.235,0.088-0.49,0.088-0.798v-6.978c-0.414-0.532-0.873-1.007-1.717-1.007v-0.384h2.694
			c2.206,2.679,4.499,5.401,6.708,8.083h0.027v-6.085c0-0.312-0.062-0.564-0.088-0.801c-0.074-0.534-0.576-0.739-1.557-0.813v-0.384
			h3.627v0.384c-0.693,0.074-1.195,0.279-1.271,0.813c-0.029,0.233-0.09,0.486-0.09,0.801v8.366L103.02,72.41L103.02,72.41
			L103.02,72.41z"/>
		<path fill="#EFF0F1" d="M20.11,60.065v-0.017h-4.005v0.496c1.546,0.018,1.798,0.566,1.392,1.737l-3.032,8.254h-0.167l-3.57-10.317
			H9.824l-3.75,10.317H5.82l-2.688-8.199c-0.381-1.298,0.152-1.793,1.354-1.793v-0.495h-4.755v0.495
			c1.011,0,1.192,0.786,1.841,2.648l3.451,10.201h0.908L9.622,62.99l3.639,10.412h1.017c1.556-4.144,3.749-10.271,4.555-11.919
			c0.299-0.616,0.842-0.938,1.349-0.938v-0.485L20.11,60.065L20.11,60.065z"/>
		<path fill="#EFF0F1" d="M30.76,66.85c-1.558-1.171-2.646-1.823-2.646-2.915c0-1.149,0.811-1.621,1.714-1.621
			c1.246,0,1.838,0.874,1.963,1.965h0.405v-2.042c0-0.076-0.016-0.142-0.109-0.171c-0.624-0.22-1.511-0.297-2.181-0.297
			c-1.792,0-3.351,1.106-3.351,2.51c0,0.763,0.209,1.303,0.518,1.72h-0.005c0.006,0.006,0.012,0.01,0.018,0.016
			c0.377,0.507,0.896,0.826,1.354,1.134c2.338,1.542,2.884,2.367,2.884,3.381c0,0.94-0.708,1.888-2.009,1.979
			c-1.334,0.098-3.049-0.548-3.771-2.42c-0.641-1.796-1.944-5.57-2.825-8.174h-0.857c-1.229,3.272-2.895,8.069-3.533,9.374
			c-0.235,0.488-0.664,0.739-1.065,0.739v0.387h0.64h2.055v-0.387c-0.65,0-0.932-0.487-0.74-1.065l0.682-1.983h3.775l0.637,1.909
			l0.49,1.474c0,0,2.648,0.692,4.373,0.692c1.869,0,3.771-1.028,3.771-2.883C32.942,68.873,32.413,68.079,30.76,66.85z
			 M20.12,68.412l1.763-4.812h0.029l1.57,4.812H20.12z"/>
	</g>
	<g>
		<path fill="#EFF0F1" d="M115.12,62.737c-0.155-1.396-0.915-2.514-2.509-2.514c-1.155,0-2.323,0.598-2.323,2.071
			c0,1.396,1.394,2.229,3.388,3.728c2.109,1.572,2.791,2.59,2.791,4.242c0,2.37-2.301,3.688-4.688,3.688
			c-1.278,0-2.375-0.241-3.41-0.64c-0.077-0.04-0.141-0.12-0.141-0.275v-2.872h0.52c0.223,2.211,1.672,3.089,3.208,3.089
			c1.415,0,2.7-1.076,2.7-2.529c0-1.297-0.697-2.354-3.686-4.321c-1.076-0.716-2.41-1.494-2.41-3.663c0-1.8,1.855-3.212,4.149-3.212
			c0.854,0,1.992,0.102,2.789,0.383c0.12,0.033,0.14,0.118,0.14,0.219v2.61L115.12,62.737L115.12,62.737z"/>
		<path fill="#EFF0F1" d="M121.493,70.571c0,1.382-0.058,1.303,1.274,1.472v0.381h-3.984V72.04c1.333-0.169,1.273-0.09,1.273-1.472
			v-8.045h-1.201c-1.287,0-1.584,0.815-2.073,1.792h-0.368l0.398-2.266h7.924l0.4,2.266h-0.371c-0.488-0.977-0.783-1.792-2.07-1.792
			h-1.202V70.571L121.493,70.571z"/>
		<path fill="#EFF0F1" d="M126.662,68.986l-0.678,1.985c-0.193,0.58,0.086,1.07,0.738,1.07v0.38h-2.695v-0.38
			c0.396,0,0.83-0.258,1.064-0.744c0.639-1.305,2.369-6.146,3.602-9.421h0.83c1.006,2.978,2.516,7.543,3.021,8.857
			c0.328,0.826,0.563,1.308,1.2,1.308v0.38h-3.451v-0.38c0.934,0,1.023-0.49,0.787-1.146l-0.641-1.911L126.662,68.986
			L126.662,68.986z M130.25,68.423l-1.57-4.814h-0.029l-1.764,4.814H130.25z"/>
		<path fill="#EFF0F1" d="M137.79,70.571c0,1.382-0.06,1.303,1.272,1.472v0.381h-3.984V72.04c1.333-0.169,1.275-0.09,1.275-1.472
			v-8.045h-1.201c-1.291,0-1.584,0.815-2.075,1.792h-0.37l0.402-2.266h7.924l0.398,2.266h-0.373
			c-0.483-0.977-0.779-1.792-2.067-1.792h-1.201V70.571L137.79,70.571z"/>
		<path fill="#EFF0F1" d="M142.133,72.04c1.336-0.169,1.145-0.09,1.145-1.472v-6.668c0-1.377,0.191-1.303-1.145-1.466V62.05h6.487
			v2.383h-0.388c-0.146-1.094-0.439-1.908-1.508-1.908h-2.021v4.241h1.246c0.933,0,1.333-0.372,1.358-1.29h0.389v3.149h-0.389
			c-0.025-0.875-0.367-1.395-1.358-1.395h-1.246v3.35c0,1.264,0.58,1.369,1.914,1.369c2.146,0,2.043-0.61,2.728-2.195h0.385
			l-0.445,2.665h-7.152V72.04L142.133,72.04z"/>
	</g>
</g>
</svg>
