<?xml version="1.0" encoding="utf-8"?>
<!-- Generator: Adobe Illustrator 17.0.2, SVG Export Plug-In . SVG Version: 6.00 Build 0)  -->
<!DOCTYPE svg PUBLIC "-//W3C//DTD SVG 1.1//EN" "http://www.w3.org/Graphics/SVG/1.1/DTD/svg11.dtd">
<svg version="1.1" id="Layer_1" xmlns="http://www.w3.org/2000/svg" xmlns:xlink="http://www.w3.org/1999/xlink" x="0px" y="0px"
	 width="376.564px" height="30px" viewBox="0 0 376.564 30" enable-background="new 0 0 376.564 30" xml:space="preserve">
<g>
	<path fill="#D7DAD8" d="M319.197,9.317c-0.411-0.301-0.954-0.604-1.462-0.604c-0.846,0-1.315,0.495-1.315,1.147
		c0,0.604,0.519,1.051,1.605,1.835c1.159,0.846,1.835,1.619,1.835,2.706c0,1.341-1.268,2.21-2.62,2.21
		c-0.81,0-1.775-0.289-2.38-0.882l0.521-0.7c0.495,0.351,1.039,0.737,1.835,0.737c0.834,0,1.475-0.447,1.475-1.39
		c0-1.062-1.269-1.751-1.958-2.258c-0.7-0.543-1.485-1.062-1.485-2.258c0-1.136,1.1-1.993,2.416-1.993
		c0.882,0,1.618,0.314,2.09,0.846L319.197,9.317z"/>
	<path fill="#D7DAD8" d="M324.5,16.467h-1.17V8.013h2.125c1.788,0,2.887,0.797,2.887,2.439c0,1.425-1.22,2.718-3.117,2.718h-0.373
		v-0.773l0.387-0.012c1.135-0.061,1.848-0.664,1.848-1.92c0-0.93-0.52-1.606-1.776-1.606h-0.81L324.5,16.467L324.5,16.467z"/>
	<path fill="#D7DAD8" d="M330.892,12.095c0-2.367,1.787-4.228,4.227-4.228s4.228,1.86,4.228,4.228c0,2.524-1.617,4.517-4.228,4.517
		C332.51,16.612,330.892,14.619,330.892,12.095z M338.054,12.095c0-1.583-0.846-3.382-2.936-3.382c-2.088,0-2.934,1.799-2.934,3.382
		c0,1.654,0.748,3.672,2.934,3.672C337.306,15.767,338.054,13.75,338.054,12.095z"/>
	<path fill="#D7DAD8" d="M343.925,11.793l3.66-3.901l0.798,0.52l-3.273,3.442l3.708,4.288l-1.147,0.447l-3.721-4.505h-0.024v4.384
		h-1.17V8.013h1.17v3.78H343.925z"/>
	<path fill="#D7DAD8" d="M354.701,8.013l3.152,8.455H356.5l-0.869-2.488h-3.225l-0.906,2.488h-1.135l3.441-8.455
		C353.806,8.013,354.701,8.013,354.701,8.013z M355.353,13.134c-0.423-1.171-0.832-2.343-1.256-3.865h-0.024
		c-0.434,1.521-0.881,2.693-1.34,3.865H355.353z"/>
	<path fill="#D7DAD8" d="M368.037,16.467h-0.919c-1.835-2.198-4.987-5.99-5.495-6.728h-0.024v6.728h-0.966V8.013h0.869
		c1.86,2.198,4.976,5.894,5.544,6.74h0.024v-6.74h0.967V16.467z"/>
	<path fill="#D7DAD8" d="M376.046,8.858h-2.996v2.729h2.936v0.846h-2.936v3.188h3.515v0.846h-4.685V8.013h4.166V8.858z"/>
</g>
<g>
	<path fill="#D7DAD8" d="M302.104,25.417l-4.38,3.12l-4.385-3.12c-3.113-2.13-5.779-3.953-7.178-6.73
		c1.152,5.198,6.233,7.147,11.562,11.312c5.321-4.165,10.406-6.114,11.56-11.312C307.884,21.464,305.215,23.288,302.104,25.417z"/>
	<g>
		<path fill="#FFFFFF" d="M299.271,6.612c-0.887,0.608-0.737,1.689-0.715,1.713c0.173-0.308,0.475-0.745,0.916-1.053
			c0.566-0.398,1.527-0.704,2.43-0.632c0.227,0.018,0.418-0.045,0.172-0.174C301.4,6.109,299.828,6.231,299.271,6.612z"/>
		<path fill="#FFFFFF" d="M285.554,0v0.545c0.341,0.119,0.448,0.226,0.487,0.718v12.564c0,6.985,5.685,8.833,11.683,13.529
			c6-4.695,11.688-6.544,11.688-13.529V1.12c0.042-0.374,0.165-0.472,0.469-0.575V0H285.554z M289.89,19.684
			c1.189-1.823,1.216-3.82,1.215-3.821c-0.978,0.33-2.733,0.645-2.733,0.645s1.621-1.225,2.835-5.018l1.166,1.058l-0.221,0.72
			c0,0,0.556,0.796,0.693,1.336c0,0,0.771-1.474-0.07-3.053l-0.153,0.44l-0.458-0.417l-0.786-0.712c0,0,0.359-1.245,1.463-2.761
			l0.105,0.115l0.9,1.044l-0.274,0.455c0,0,0.62,0.647,1.145,1.449c0,0,0.279-1.324-0.109-2.761l-0.404,0.383l-1.002-1.156
			c1.421-1.417,2.793-2.277,4.431-2.829c-0.098,0.115-0.194,0.23-0.281,0.356c-0.556,0.784-1.124,2.209-0.667,4.499
			c0.073,0.357,0.189,0.859,0.313,1.398c0.246,1.044,0.52,2.23,0.614,2.978c0.196,1.554,0.038,2.575-0.482,3.113
			c-0.362,0.381-0.946,0.543-1.762,0.513c0.007-0.128,0.012-0.25,0.012-0.369c0-1.097-0.22-1.929-0.231-1.966l-0.204-0.754
			l-0.339,0.703c-0.532,1.11-2.342,3.873-4.709,4.412H289.89z M301.941,20.418c-0.433,0.099-1.852,0.036-1.852,0.036
			s0.974-0.415,1.504-2.023C302.062,19.41,301.941,20.418,301.941,20.418z M304.149,17.222c-2.836,0.392-3.324-5.564-3.324-5.564
			s0.954,3.053,2.976,2.942c2.099-0.109,1.507-3.342,1.507-3.342S307.349,16.782,304.149,17.222z M307.586,6.011l-2.803,0.119
			c0.002,0.333-0.039,0.667-0.146,0.979c0.259,1.144,0.078,1.764,0.078,1.764c-0.467-1.086-0.826-1.392-0.826-1.392
			c-2.571-1.142-4.015,1.445-3.86,3.107c0.125,1.373,0.621,3.194,1.01,6.042c0.326,2.402-0.887,3.438-2.288,3.678
			c-0.028,0.005-0.06,0.011-0.09,0.017c-0.01,0-0.013,0.001-0.021,0.001c-0.227,0.029-0.47,0.042-0.722,0.031
			c-0.01,0-0.018,0-0.03,0c-0.023,0-0.052-0.002-0.081-0.002c-0.11-0.009-0.218-0.02-0.324-0.03
			c-1.084-0.152-3.521-0.596-6.036-0.655c1.479-0.863,2.638-2.361,3.284-3.418c0.033,0.29,0.068,0.648,0.068,1.045
			c0,0.198-0.008,0.402-0.026,0.615l-0.025,0.288l0.29,0.021c1.157,0.104,1.979-0.117,2.513-0.67c0.655-0.683,0.86-1.822,0.639-3.59
			c-0.098-0.775-0.377-1.976-0.625-3.038c-0.123-0.529-0.238-1.03-0.312-1.38c-0.412-2.087,0.082-3.356,0.571-4.052
			c0.386-0.545,0.916-0.943,1.497-1.133c0.011-0.003,0.021-0.003,0.028-0.006l0.955-2.938h0.302l-0.644,2.824
			c0.15-0.025,0.301-0.051,0.452-0.073l0.828-2.605h0.299l-0.542,2.523c0.851-0.112,1.78-0.196,2.808-0.275
			c0.167,0.07,0.348,0.263,0.503,0.531l2.697-0.832l0.098,0.29l-2.576,1c0.024,0.052,0.041,0.109,0.06,0.165l2.819-0.35l0.042,0.3
			l-2.73,0.546c0.007,0.049,0.017,0.102,0.025,0.154l2.844,0.091L307.586,6.011z"/>
	</g>
</g>
<g>
	<g>
		<g>
			<path fill="#FFFFFF" d="M252.646,12.2c-1.841-1.382-3.129-2.154-3.129-3.441c0-1.363,0.956-1.915,2.025-1.915
				c1.472,0,2.17,1.031,2.316,2.321h0.479V6.752c0-0.093-0.019-0.166-0.129-0.201c-0.737-0.258-1.784-0.349-2.575-0.349
				c-2.117,0-3.956,1.304-3.956,2.963c0,0.894,0.248,1.536,0.61,2.026h-0.009c0.009,0.008,0.018,0.014,0.023,0.021
				c0.445,0.594,1.059,0.974,1.601,1.336c2.76,1.824,3.383,2.797,3.404,3.992c0.051,2.656-4.923,4.052-8.196-1.05l-1.7-2.587
				c1.337-0.521,2.429-1.752,2.429-3.542c0-2.034-1.753-2.949-3.504-2.949h-5.054v0.45c1.562,0.187,1.49,0.104,1.49,1.717v7.813
				c0,1.619,0.072,1.529-1.49,1.72v0.451h4.67v-0.451c-1.562-0.19-1.495-0.101-1.495-1.72v-3.21h1.636
				c2.097,3.49,2.618,5.004,3.676,5.381c0.235,0.083,2.96,0.96,4.886,0.96c2.207,0,4.565-1.216,4.565-3.404
				C255.221,14.592,254.596,13.652,252.646,12.2z M241.902,12.812h-1.444v-5.66h1.338c1.267,0,2.312,0.659,2.312,2.553
				C244.108,11.667,243.412,12.812,241.902,12.812z"/>
			<path fill="#FFFFFF" d="M206.972,18.545c0,0,0,0-8.496-10.066v7.711c0,0.364,0.073,0.661,0.104,0.94
				c0.089,0.629,0.684,0.872,1.835,0.961v0.454h-4.275v-0.454c0.842-0.089,1.413-0.332,1.5-0.961
				c0.036-0.279,0.104-0.576,0.104-0.94V7.973c-0.485-0.628-1.031-1.188-2.021-1.188V6.329h3.172
				c2.599,3.161,5.306,6.37,7.902,9.529h0.036V8.686c0-0.366-0.071-0.661-0.105-0.94c-0.089-0.629-0.678-0.87-1.831-0.96V6.329
				h4.274v0.457c-0.82,0.09-1.413,0.331-1.503,0.96c-0.034,0.279-0.103,0.574-0.103,0.94v9.86L206.972,18.545L206.972,18.545z"/>
			<path fill="#FFFFFF" d="M213.828,16.362c0,1.626-0.068,1.538,1.5,1.729v0.454h-4.692v-0.454c1.57-0.191,1.5-0.104,1.5-1.729
				V8.513c0-1.62,0.07-1.537-1.5-1.727v-0.45h4.692v0.45c-1.568,0.19-1.5,0.107-1.5,1.727V16.362z"/>
			<path fill="#FFFFFF" d="M236.024,15.403c-0.802,1.869-0.682,2.584-3.209,2.584c-1.569,0-2.253-0.125-2.253-1.607v-3.943h1.469
				c1.167,0,1.569,0.615,1.604,1.643h0.45v-3.719h-0.45c-0.034,1.083-0.506,1.52-1.604,1.52h-1.469V6.893h2.771
				c1.254,0,1.606,0.958,1.777,2.249h0.452V6.335h-8.034h-3.456v0.45c1.184,0,1.639,0.54,1.201,1.642
				c-1.081,2.67-2.145,5.354-3.264,8.021c-0.906-2.648-1.916-5.649-2.592-7.707c-0.581-1.678,0.119-1.957,1.079-1.957v-0.45h-4.438
				v0.45c0.842,0,1.065,0.54,1.716,2.407c1.062,2.968,2.251,6.332,3.314,9.353h0.888c1.468-3.576,2.948-7.136,4.414-10.711
				c0.367-0.874,0.627-1.049,1.137-1.049c1.568,0.19,1.342,0.107,1.342,1.727v7.849c0,1.626,0.227,1.538-1.342,1.729v0.454h8.426
				l0.525-3.142h-0.454V15.403z"/>
			<path fill="#FFFFFF" d="M259.398,16.362c0,1.626-0.074,1.538,1.497,1.729v0.454h-4.693v-0.454
				c1.572-0.191,1.503-0.104,1.503-1.729V8.513c0-1.62,0.069-1.537-1.503-1.727v-0.45h4.693v0.45
				c-1.571,0.19-1.497,0.107-1.497,1.727V16.362z"/>
			<path fill="#FFFFFF" d="M277.237,6.335v0.45c1.03,0,1.588,0.504,0.994,1.571l-2.407,4.382l-2.11-4.382
				c-0.437-0.908-0.557-1.571,0.767-1.571v-0.45h-2.925h-1.211h-8.124l-0.473,2.664h0.437c0.575-1.148,0.925-2.106,2.441-2.106
				h1.417v9.469c0,1.626,0.067,1.538-1.503,1.729v0.454h4.693v-0.454c-1.57-0.191-1.502-0.104-1.502-1.729V6.893h1.416
				c1.43,0,2.392,0.853,2.98,1.916l2.457,4.872v2.682c0,1.626,0.07,1.538-1.499,1.729v0.454h4.69v-0.454
				c-1.566-0.191-1.5-0.104-1.5-1.729V14.41c0-0.435,0.037-0.926,0.21-1.272l2.912-5.286c0.474-0.838,0.943-1.065,1.433-1.065v-0.45
				h-3.593V6.335z"/>
		</g>
		<path fill="#FFFFFF" d="M195.792,3.873l-5.497,0.015v0.456c1.102,0.119,1.899,0.602,2.016,1.449
			c0.047,0.374,0.143,0.771,0.143,1.265v6.521c0,3.757-1.692,5.913-4.904,5.913c-3.497,0-4.545-2.509-4.545-5.795V6.822
			c0-2.182,0.063-2.222,2.176-2.479V3.887h-6.315v0.456c2.115,0.257,2.021,0.296,2.021,2.479v6.991c0,4.247,1.549,6.784,6.544,6.784
			c3.027,0,6.245-1.877,6.245-6.923V7.057c0-0.042,0-0.079,0-0.117c-0.021-2.036,0.771-2.333,2.104-2.547L195.792,3.873z"/>
	</g>
	<g>
		<path fill="#FFFFFF" d="M135.308,7.116c-0.186-1.641-1.074-2.948-2.943-2.948c-1.356,0-2.727,0.701-2.727,2.43
			c0,1.636,1.635,2.616,3.974,4.371c2.475,1.847,3.272,3.039,3.272,4.977c0,2.781-2.696,4.324-5.498,4.324
			c-1.499,0-2.785-0.282-4-0.748c-0.091-0.047-0.163-0.143-0.163-0.324V15.83h0.607c0.26,2.592,1.961,3.622,3.763,3.622
			c1.66,0,3.167-1.264,3.167-2.969c0-1.52-0.818-2.758-4.322-5.07c-1.261-0.839-2.826-1.754-2.826-4.297
			c0-2.11,2.178-3.767,4.867-3.767c1.005,0,2.338,0.117,3.272,0.447c0.141,0.041,0.163,0.14,0.163,0.255v3.064h-0.606V7.116z"/>
		<path fill="#FFFFFF" d="M142.782,16.306c0,1.617-0.067,1.525,1.495,1.722v0.447h-4.674v-0.447
			c1.563-0.196,1.495-0.104,1.495-1.722V6.869h-1.41c-1.511,0-1.859,0.957-2.432,2.101h-0.433l0.467-2.656h9.295l0.47,2.656h-0.434
			c-0.573-1.144-0.92-2.101-2.431-2.101h-1.41v9.437H142.782z"/>
		<path fill="#FFFFFF" d="M148.845,14.445l-0.795,2.33c-0.227,0.681,0.103,1.253,0.868,1.253v0.447h-3.163v-0.447
			c0.467,0,0.974-0.3,1.251-0.87c0.747-1.531,2.778-7.21,4.222-11.051h0.972c1.181,3.491,2.952,8.847,3.543,10.392
			c0.385,0.967,0.662,1.529,1.407,1.529v0.447h-4.047v-0.447c1.094,0,1.202-0.572,0.924-1.341l-0.751-2.242H148.845z
			 M153.055,13.787l-1.843-5.648h-0.035l-2.067,5.648H153.055z"/>
		<path fill="#FFFFFF" d="M161.898,16.306c0,1.617-0.068,1.525,1.493,1.722v0.447h-4.674v-0.447
			c1.563-0.196,1.497-0.104,1.497-1.722V6.869h-1.41c-1.512,0-1.856,0.957-2.433,2.101h-0.435l0.472-2.656h9.295l0.468,2.656h-0.437
			c-0.568-1.144-0.915-2.101-2.426-2.101h-1.41V16.306z"/>
		<path fill="#FFFFFF" d="M166.991,18.028c1.567-0.196,1.342-0.104,1.342-1.722V8.483c0-1.614,0.225-1.528-1.342-1.72V6.314h7.611
			v2.792h-0.454c-0.172-1.281-0.517-2.238-1.769-2.238h-2.366v4.976h1.459c1.094,0,1.564-0.438,1.597-1.516h0.453v3.697h-0.453
			c-0.032-1.027-0.432-1.633-1.597-1.633h-1.459v3.926c0,1.48,0.68,1.604,2.244,1.604c2.52,0,2.396-0.715,3.197-2.574h0.451
			l-0.523,3.125h-8.392L166.991,18.028L166.991,18.028z"/>
	</g>
	<g>
		<path fill="#FFFFFF" d="M43.447,16.319c0,1.618-0.07,1.529,1.492,1.721v0.451h-4.671V18.04c1.562-0.191,1.493-0.103,1.493-1.721
			V8.5c0-1.612-0.751-1.527-2.314-1.717V6.335h5.493v0.448c-1.562,0.19-1.492,0.105-1.492,1.717v3.009h6.095V8.5
			c0-1.612,0.069-1.527-1.494-1.717V6.335h4.671v0.448c-1.561,0.19-1.493,0.105-1.493,1.717v7.818c0,1.618-0.067,1.529,1.493,1.721
			v0.451h-4.671v-0.45c1.563-0.191,1.494-0.103,1.494-1.721v-4.1h-6.095L43.447,16.319L43.447,16.319z"/>
		<path fill="#FFFFFF" d="M57.813,16.319c0,1.618-0.071,1.529,1.493,1.721v0.451h-4.671V18.04c1.562-0.191,1.493-0.103,1.493-1.721
			V8.5c0-1.612,0.069-1.527-1.493-1.717V6.335h4.671v0.448c-1.564,0.19-1.493,0.105-1.493,1.717V16.319z"/>
		<path fill="#FFFFFF" d="M72.254,18.491c-2.761-3.266-5.628-6.688-8.458-10.024v7.681c0,0.36,0.069,0.658,0.105,0.936
			c0.086,0.628,0.675,0.867,1.821,0.956v0.451H61.47V18.04c0.832-0.089,1.406-0.328,1.493-0.956
			c0.034-0.277,0.104-0.575,0.104-0.936V7.964c-0.488-0.624-1.026-1.181-2.018-1.181V6.335h3.163c2.588,3.14,5.28,6.338,7.867,9.479
			h0.034V8.678c0-0.366-0.069-0.663-0.104-0.941c-0.084-0.624-0.678-0.867-1.824-0.954V6.335h4.257v0.448
			c-0.816,0.087-1.406,0.33-1.497,0.954c-0.033,0.278-0.102,0.575-0.102,0.941v9.812L72.254,18.491L72.254,18.491z"/>
		<path fill="#FFFFFF" d="M74.814,12.342c0-2.674,2.259-6.221,6.947-6.221c1.684,0,2.484,0.315,3.335,0.595
			c0.487,0.155,0.678,0.397,0.678,0.676v2.24h-0.452c-0.052-1.39-0.938-2.9-3.698-2.9c-3.631,0-4.812,2.501-4.829,5.471
			c-0.018,2.744,1.371,5.89,4.897,5.89c2.172,0,2.363-0.803,2.363-2.153v-1.061c0-1.619,0.067-1.527-1.842-1.721V12.71h5.02v0.448
			c-1.562,0.193-1.492,0.102-1.492,1.721v3.023c-1.114,0.434-2.572,0.799-4.153,0.799C78.028,18.7,74.814,16.998,74.814,12.342z"/>
		<path fill="#FFFFFF" d="M93.192,16.319c0,1.618-0.07,1.529,1.494,1.721v0.451h-4.673V18.04c1.562-0.191,1.493-0.103,1.493-1.721
			v-9.43h-1.408c-1.511,0-1.858,0.951-2.432,2.101h-0.433l0.471-2.654h9.292l0.469,2.654H97.03c-0.572-1.15-0.919-2.101-2.43-2.101
			h-1.408V16.319z"/>
		<path fill="#FFFFFF" d="M97.464,12.637c0-3.754,2.918-6.517,6.53-6.517c3.769,0,5.958,3.251,5.958,5.928
			c0,3.665-2.745,6.651-6.584,6.651C100.051,18.7,97.464,16.009,97.464,12.637z M107.971,12.568c0-4.153-2.239-5.837-4.36-5.837
			c-2.951,0-4.167,2.641-4.167,5.002c0,4.206,2.153,6.359,4.393,6.359C107.069,18.092,107.971,14.896,107.971,12.568z"/>
		<path fill="#FFFFFF" d="M121.156,18.491c-2.764-3.266-5.628-6.688-8.459-10.024v7.681c0,0.36,0.069,0.658,0.104,0.936
			c0.087,0.628,0.677,0.867,1.823,0.956v0.451h-4.256V18.04c0.835-0.089,1.408-0.328,1.495-0.956
			c0.034-0.277,0.104-0.575,0.104-0.936V7.964c-0.485-0.624-1.024-1.181-2.015-1.181V6.335h3.162
			c2.588,3.14,5.278,6.338,7.868,9.479h0.033V8.678c0-0.366-0.07-0.663-0.104-0.941c-0.086-0.624-0.676-0.867-1.823-0.954V6.335
			h4.254v0.448c-0.815,0.087-1.405,0.33-1.492,0.954c-0.035,0.278-0.105,0.575-0.105,0.941v9.812L121.156,18.491L121.156,18.491z"/>
		<path fill="#FFFFFF" d="M23.905,4.008v-0.02h-4.699v0.583c1.813,0.02,2.108,0.667,1.632,2.04l-3.555,9.681h-0.197L12.899,4.188
			h-1.06L7.44,16.292H7.141L3.988,6.674C3.541,5.15,4.166,4.571,5.576,4.571V3.988H0v0.583c1.186,0,1.398,0.923,2.159,3.11
			l4.047,11.966h1.066l4.33-12.206l4.268,12.216h1.193c1.826-4.857,4.397-12.046,5.342-13.98c0.352-0.726,0.989-1.1,1.583-1.1V4.008
			H23.905z"/>
		<path fill="#FFFFFF" d="M36.397,11.965c-1.828-1.371-3.107-2.138-3.107-3.417c0-1.353,0.95-1.903,2.01-1.903
			c1.462,0,2.156,1.025,2.303,2.305h0.475V6.555c0-0.091-0.018-0.164-0.128-0.199c-0.73-0.256-1.772-0.35-2.558-0.35
			c-2.102,0-3.929,1.299-3.929,2.944c0,0.892,0.247,1.526,0.606,2.015h-0.006c0.008,0.007,0.015,0.013,0.022,0.02
			c0.442,0.591,1.051,0.968,1.59,1.328c2.741,1.809,3.381,2.779,3.381,3.966c0,1.104-0.83,2.212-2.357,2.322
			c-1.564,0.11-3.576-0.645-4.422-2.841c-0.752-2.104-2.28-6.531-3.313-9.587h-1.007c-1.442,3.839-3.396,9.469-4.144,10.995
			c-0.275,0.574-0.779,0.87-1.249,0.87v0.452h0.75h2.411v-0.452c-0.764,0-1.094-0.573-0.869-1.252l0.8-2.327h4.429l0.747,2.241
			l0.575,1.727c0,0,3.106,0.812,5.127,0.812c2.193,0,4.422-1.206,4.422-3.381C38.956,14.342,38.334,13.408,36.397,11.965z
			 M23.916,13.8l2.066-5.646h0.035l1.842,5.646H23.916z"/>
	</g>
</g>
</svg>
