<?xml version="1.0" encoding="utf-8"?>
<!-- Generator: Adobe Illustrator 18.0.0, SVG Export Plug-In . SVG Version: 6.00 Build 0)  -->
<!DOCTYPE svg PUBLIC "-//W3C//DTD SVG 1.1//EN" "http://www.w3.org/Graphics/SVG/1.1/DTD/svg11.dtd">
<svg version="1.1" id="Layer_1" xmlns="http://www.w3.org/2000/svg" xmlns:xlink="http://www.w3.org/1999/xlink" x="0px" y="0px"
	 viewBox="0 747 614.5 45" enable-background="new 0 747 614.5 45" xml:space="preserve">
<path fill="#FFFFFF" d="M442.2,784.3l-6.4,4.5l-6.4-4.5c-4.5-3.1-8.5-5.9-10.5-9.8c1.8,7.6,9.1,10.4,16.9,16.5
	c7.8-6.1,15.3-8.9,16.9-16.5C450.8,778.5,446.8,781.1,442.2,784.3z"/>
<g>
	<path fill="#FFFFFF" d="M438.1,756.7c-1.4,0.8-1.1,2.5-1.1,2.5c0.1-0.4,0.6-1.1,1.4-1.5c0.8-0.6,2.2-1.1,3.5-0.8
		c0.3,0,0.6,0,0.3-0.3C441.2,755.9,439,756.3,438.1,756.7z"/>
	<path fill="#FFFFFF" d="M418,747v0.7c0.4,0.1,0.6,0.3,0.7,1.1v18.4c0,10.2,8.3,12.8,17.2,19.8c8.7-6.8,17.2-9.5,17.2-19.8v-18.6
		c0-0.6,0.3-0.7,0.7-0.8V747H418z M422.5,771.6c0,0,2.3-1.8,4.1-7.4l1.8,1.6l-0.3,1.1c0,0,0.8,1.2,1.1,1.9c0,0,1.1-2.2-0.1-4.5
		l-0.3,0.6l-0.7-0.6l-1.2-1.1c0,0,0.6-1.9,2.2-4.1l0.1,0.1l1.4,1.5l-0.4,0.7c0,0,0.8,0.8,1.6,2c0,0,0.4-2-0.1-4.1l-0.6,0.6l-1.5-1.8
		c2-2,4.1-3.3,6.4-4.1c-0.1,0.3-0.3,0.4-0.4,0.6c-0.8,1.2-1.8,3.3-1.1,6.6c0.1,0.6,0.3,1.4,0.4,2c0.3,1.6,0.7,3.4,0.8,4.4
		c0.3,2.2,0,3.8-0.7,4.5c-0.6,0.6-1.5,0.7-2.6,0.7c0-0.3,0-0.4,0-0.6c0-1.6-0.3-2.9-0.3-2.9l-0.3-1.2l-0.4,1.1
		c-0.7,1.6-3.4,5.7-6.8,6.4c1.5-2.2,1.7-4.6,1.9-5.1C425,771.2,422.5,771.6,422.5,771.6z M441.9,777c-0.6,0-2.6,0-2.6,0
		s1.5-0.6,2.2-2.9C442.2,775.6,441.9,777,441.9,777z M445.2,772.4c-4.1,0.6-4.8-8.2-4.8-8.2s1.5,4.4,4.4,4.2
		c3.1-0.1,2.2-4.8,2.2-4.8S449.8,771.6,445.2,772.4z M446.1,755.9c0,0.4,0,1.1-0.1,1.5c0.4,1.6,0.1,2.6,0.1,2.6
		c-0.7-1.6-1.2-2-1.2-2c-3.8-1.6-5.9,2-5.7,4.5c0.1,2,0.8,4.7,1.5,8.7c0.4,3.5-1.4,4.9-3.4,5.4h-0.1c-0.3,0-0.7,0-1.1,0h-0.1
		c-0.1,0-0.3,0-0.4,0c-1.6-0.3-5.2-0.8-8.7-1.1c2.2-1.4,3.8-3.5,4.8-4.9c0,0.4,0.1,0.8,0.1,1.5c0,0.3,0,0.6,0,0.8v0.4h0.4
		c1.8,0.1,2.9-0.1,3.7-1.1c1.1-1.1,1.4-2.6,0.8-5.3c-0.1-1.2-0.6-2.9-0.8-4.4c-0.1-0.7-0.3-1.5-0.4-2c-0.6-3.1,0.1-4.9,0.8-6
		c0.6-0.7,1.4-1.4,2.2-1.6l1.5-4.2h0.4l-1.4,4.2c0.1,0,0.4-0.1,0.7-0.1l1.2-3.8h0.4l-0.8,3.8c1.4-0.1,2.6-0.3,4.1-0.4
		c0.3,0.1,0.4,0.4,0.7,0.7l4-1.2l0.1,0.4l-3.8,1.5c0,0.1,0,0.1,0.1,0.3l4.1-0.4v0.4l-4,0.7c0,0,0,0.1,0,0.3l4.1,0.1l0.1,0.3
		L446.1,755.9z"/>
</g>
<g>
	<g>
		<g>
			<path fill="#FFFFFF" stroke="#FFFFFF" stroke-width="0.3" stroke-miterlimit="10" d="M369.7,764.9c-2.6-2-4.5-3.3-4.5-4.9
				c0-2,1.5-2.7,2.9-2.7c2.2,0,3.3,1.5,3.4,3.4h0.7v-3.5c0-0.1,0-0.3-0.1-0.3c-1.1-0.4-2.6-0.4-3.8-0.4c-3.1,0-5.9,1.9-5.9,4.4
				c0,1.4,0.3,2.2,0.8,2.9l0,0l0,0c0.6,0.8,1.6,1.5,2.3,1.9c4.1,2.6,4.9,4.1,4.9,5.9c0.1,4-7.2,6-12-1.6l-2.5-3.8
				c1.9-0.7,3.5-2.6,3.5-5.2c0-2.9-2.6-4.2-5.2-4.2h-7.5v0.6c2.3,0.3,2.2,0.1,2.2,2.5v11.4c0,2.3,0.1,2.2-2.2,2.5v0.7h6.8v-0.7
				c-2.3-0.3-2.2-0.1-2.2-2.5v-4.7h2.3c3.1,5.2,3.8,7.4,5.4,7.9c0.3,0.1,4.4,1.5,7.2,1.5c3.3,0,6.7-1.8,6.7-4.9
				C373.6,768.4,372.7,767.1,369.7,764.9z M354.1,765.7h-2v-8.2h1.9c1.9,0,3.4,1.1,3.4,3.8C357.4,764,356.3,765.7,354.1,765.7z"/>
			<path fill="#FFFFFF" stroke="#FFFFFF" stroke-width="0.3" stroke-miterlimit="10" d="M303,774.2c0,0,0,0-12.4-14.7v11.3
				c0,0.6,0.1,1.1,0.1,1.4c0.1,0.8,1.1,1.4,2.6,1.5v0.7H287v-0.7c1.2-0.1,2-0.4,2.2-1.5c0-0.4,0.1-0.8,0.1-1.4v-11.9
				c-0.7-0.8-1.5-1.8-2.9-1.8v-0.7h4.7c3.8,4.7,7.8,9.4,11.6,13.9l0,0v-10.4c0-0.6-0.1-1.1-0.1-1.4c-0.1-0.8-1.1-1.4-2.6-1.5v-0.7
				h6.3v0.7c-1.2,0.1-2,0.4-2.2,1.5c0,0.4-0.1,0.8-0.1,1.4v14.5L303,774.2L303,774.2z"/>
			<path fill="#FFFFFF" stroke="#FFFFFF" stroke-width="0.3" stroke-miterlimit="10" d="M313,771c0,2.3-0.1,2.2,2.2,2.5v0.7h-6.8
				v-0.7c2.3-0.3,2.2-0.1,2.2-2.5v-11.6c0-2.3,0.1-2.2-2.2-2.5v-0.7h6.8v0.6c-2.3,0.3-2.2,0.1-2.2,2.5V771z"/>
			<path fill="#FFFFFF" stroke="#FFFFFF" stroke-width="0.3" stroke-miterlimit="10" d="M345.5,769.6c-1.2,2.7-1.1,3.8-4.7,3.8
				c-2.3,0-3.4-0.1-3.4-2.3v-5.7h2.2c1.8,0,2.3,0.8,2.3,2.3h0.6v-5.4h-0.6c0,1.6-0.7,2.2-2.3,2.2h-2.2v-7.4h4.1
				c1.9,0,2.3,1.5,2.6,3.3h0.7v-4.1h-11.7H328v0.6c1.8,0,2.3,0.7,1.8,2.3c-1.6,4-3.1,7.9-4.8,11.7c-1.4-3.8-2.7-8.2-3.8-11.3
				c-0.8-2.5,0.1-2.9,1.6-2.9v-0.4h-6.4v0.6c1.2,0,1.6,0.7,2.5,3.5c1.6,4.4,3.4,9.3,4.8,13.8h1.4c2.2-5.3,4.2-10.4,6.4-15.7
				c0.6-1.4,0.8-1.5,1.6-1.5c2.3,0.3,1.9,0.1,1.9,2.5V771c0,2.3,0.3,2.2-1.9,2.5v0.7h12.3l0.7-4.5h-0.6V769.6z"/>
			<path fill="#FFFFFF" stroke="#FFFFFF" stroke-width="0.3" stroke-miterlimit="10" d="M379.7,771c0,2.3-0.1,2.2,2.2,2.5v0.7h-6.8
				v-0.7c2.3-0.3,2.2-0.1,2.2-2.5v-11.6c0-2.3,0.1-2.2-2.2-2.5v-0.7h6.8v0.6c-2.3,0.3-2.2,0.1-2.2,2.5V771z"/>
			<path fill="#FFFFFF" stroke="#FFFFFF" stroke-width="0.3" stroke-miterlimit="10" d="M405.8,756.3v0.6c1.5,0,2.3,0.7,1.5,2.3
				l-3.5,6.4l-3.1-6.4c-0.6-1.4-0.8-2.3,1.2-2.3v-0.6h-4.2h-1.8H384l-0.8,4h0.6c0.8-1.6,1.4-3.1,3.5-3.1h2v13.9
				c0,2.3,0.1,2.2-2.2,2.5v0.7h6.8v-0.7c-2.3-0.3-2.2-0.1-2.2-2.5v-13.9h2c2,0,3.5,1.4,4.4,2.7l3.7,7.2v4c0,2.3,0.1,2.2-2.2,2.5v0.7
				h6.8v-0.7c-2.3-0.3-2.2-0.1-2.2-2.5v-2.9c0-0.6,0-1.4,0.3-1.9l4.2-7.8c0.7-1.2,1.4-1.6,2-1.6v-0.6H405.8L405.8,756.3z"/>
		</g>
		<path fill="#FFFFFF" stroke="#FFFFFF" stroke-width="0.3" stroke-miterlimit="10" d="M286.6,752.8h-8v0.7c1.6,0.1,2.7,0.8,2.9,2
			c0,0.6,0.1,1.2,0.1,1.9v9.5c0,5.6-2.5,8.6-7.2,8.6c-5.2,0-6.6-3.7-6.6-8.5v-10.1c0-3.3,0.1-3.3,3.3-3.7v-0.6h-9.3v0.7
			c3.1,0.4,2.9,0.4,2.9,3.7v10.2c0,6.1,2.2,10,9.5,10c4.4,0,9.1-2.7,9.1-10.1v-9.7v-0.1c0-2.9,1.2-3.4,3.1-3.7L286.6,752.8z"/>
	</g>
	<g>
		<path fill="#FFFFFF" stroke="#FFFFFF" stroke-width="0.3" stroke-miterlimit="10" d="M198.1,757.4c-0.3-2.3-1.6-4.2-4.2-4.2
			c-2,0-4,1.1-4,3.5c0,2.3,2.3,3.8,5.9,6.4c3.7,2.6,4.8,4.4,4.8,7.4c0,4.1-4,6.3-8,6.3c-2.2,0-4.1-0.4-5.9-1.1
			c-0.1,0-0.3-0.1-0.3-0.4v-4.9h0.8c0.4,3.8,2.9,5.3,5.6,5.3c2.5,0,4.7-1.9,4.7-4.4c0-2.2-1.2-4.1-6.3-7.5c-1.9-1.2-4.1-2.6-4.1-6.3
			c0-3.1,3.3-5.6,7.2-5.6c1.5,0,3.4,0.1,4.8,0.6c0.1,0,0.3,0.1,0.3,0.4v4.5H198.1L198.1,757.4z"/>
		<path fill="#FFFFFF" stroke="#FFFFFF" stroke-width="0.3" stroke-miterlimit="10" d="M209,770.9c0,2.3-0.1,2.2,2.2,2.5v0.6h-6.8
			v-0.6c2.3-0.3,2.2-0.1,2.2-2.5v-13.8h-2c-2.2,0-2.7,1.5-3.5,3.1h-0.6l0.7-4h13.5l0.7,4h-0.6c-0.8-1.6-1.4-3.1-3.5-3.1h-2
			L209,770.9L209,770.9z"/>
		<path fill="#FFFFFF" stroke="#FFFFFF" stroke-width="0.3" stroke-miterlimit="10" d="M217.9,768.2l-1.2,3.4
			c-0.3,1.1,0.1,1.9,1.4,1.9v0.6h-4.7v-0.6c0.7,0,1.5-0.4,1.9-1.4c1.1-2.2,4.1-10.5,6.1-16.2h1.5c1.8,5.2,4.4,12.8,5.2,15.3
			c0.6,1.5,1.1,2.2,2,2.2v0.6h-5.9v-0.4c1.6,0,1.8-0.8,1.4-1.9l-1.2-3.3h-6.4V768.2z M224.1,767.2l-2.6-8.2l0,0l-3.1,8.2H224.1z"/>
		<path fill="#FFFFFF" stroke="#FFFFFF" stroke-width="0.3" stroke-miterlimit="10" d="M237,770.9c0,2.3-0.1,2.2,2.2,2.5v0.6h-6.8
			v-0.6c2.3-0.3,2.2-0.1,2.2-2.5v-13.8h-2c-2.2,0-2.7,1.5-3.5,3.1h-0.7l0.7-4h13.6l0.7,4h-0.6c-0.8-1.6-1.4-3.1-3.5-3.1h-2v13.8H237
			z"/>
		<path fill="#FFFFFF" stroke="#FFFFFF" stroke-width="0.3" stroke-miterlimit="10" d="M244.5,773.4c2.3-0.3,1.9-0.1,1.9-2.5v-11.4
			c0-2.3,0.3-2.2-1.9-2.5v-0.7h11.2v4.1h-0.7c-0.3-1.9-0.7-3.3-2.6-3.3h-3.4v7.4h2.2c1.6,0,2.3-0.6,2.3-2.2h0.7v5.3h-0.7
			c0-1.5-0.6-2.3-2.3-2.3h-2.2v5.7c0,2.2,1.1,2.3,3.3,2.3c3.7,0,3.5-1.1,4.7-3.8h0.7l-0.7,4.5h-12.3v-0.5H244.5z"/>
	</g>
	<g>
		<path fill="#FFFFFF" stroke="#FFFFFF" stroke-width="0.3" stroke-miterlimit="10" d="M63.6,770.9c0,2.3-0.1,2.2,2.2,2.5v0.7h-6.8
			v-0.7c2.3-0.3,2.2-0.1,2.2-2.5v-11.4c0-2.3-1.2-2.2-3.4-2.5v-0.7h8.1v0.6c-2.3,0.3-2.2,0.1-2.2,2.5v4.4h8.9v-4.4
			c0-2.3,0.1-2.2-2.2-2.5v-0.6h6.8v0.6c-2.3,0.3-2.2,0.1-2.2,2.5v11.4c0,2.3-0.1,2.2,2.2,2.5v0.7h-6.8v-0.6c2.3-0.3,2.2-0.1,2.2-2.5
			v-6h-8.9v6H63.6z"/>
		<path fill="#FFFFFF" stroke="#FFFFFF" stroke-width="0.3" stroke-miterlimit="10" d="M84.6,770.9c0,2.3-0.1,2.2,2.2,2.5v0.7H80
			v-0.7c2.3-0.3,2.2-0.1,2.2-2.5v-11.4c0-2.3,0.1-2.2-2.2-2.5v-0.7h6.8v0.6c-2.3,0.3-2.2,0.1-2.2,2.5V770.9z"/>
		<path fill="#FFFFFF" stroke="#FFFFFF" stroke-width="0.3" stroke-miterlimit="10" d="M105.9,774.2c-4.1-4.8-8.2-9.8-12.4-14.6
			v11.3c0,0.6,0.1,1.1,0.1,1.4c0.1,0.8,1.1,1.4,2.6,1.5v0.7h-6.3v-0.8c1.2-0.1,2-0.4,2.2-1.5c0-0.4,0.1-0.8,0.1-1.4v-11.9
			c-0.7-0.8-1.5-1.8-2.9-1.8v-0.7H94c3.8,4.5,7.8,9.3,11.6,13.9l0,0v-10.4c0-0.6-0.1-1.1-0.1-1.5c-0.1-0.8-1.1-1.4-2.6-1.5v-0.6h6.3
			v0.6c-1.2,0.1-2,0.4-2.2,1.5c0,0.4-0.1,0.8-0.1,1.4v14.3L105.9,774.2L105.9,774.2z"/>
		<path fill="#FFFFFF" stroke="#FFFFFF" stroke-width="0.3" stroke-miterlimit="10" d="M109.5,765c0-4,3.4-9.1,10.1-9.1
			c2.5,0,3.7,0.4,4.8,0.8c0.7,0.3,1.1,0.6,1.1,1.1v3.3h-0.7c-0.1-2-1.4-4.2-5.4-4.2c-5.3,0-7.1,3.7-7.1,8c0,4,2,8.6,7.2,8.6
			c3.3,0,3.5-1.2,3.5-3.3v-1.6c0-2.3,0.1-2.2-2.6-2.5v-0.6h7.4v0.6c-2.3,0.3-2.2,0.1-2.2,2.5v4.4c-1.6,0.6-3.8,1.2-6.1,1.2
			C114.2,774.4,109.5,771.9,109.5,765z"/>
		<path fill="#FFFFFF" stroke="#FFFFFF" stroke-width="0.3" stroke-miterlimit="10" d="M136.4,770.9c0,2.3-0.1,2.2,2.2,2.5v0.7h-6.8
			v-0.7c2.3-0.3,2.2-0.1,2.2-2.5v-13.8h-2c-2.2,0-2.7,1.5-3.5,3.1h-0.6l0.7-4h13.5l0.7,4h-0.7c-0.8-1.8-1.4-3.1-3.5-3.1h-2v13.8
			H136.4z"/>
		<path fill="#FFFFFF" stroke="#FFFFFF" stroke-width="0.3" stroke-miterlimit="10" d="M142.7,765.5c0-5.6,4.2-9.5,9.5-9.5
			c5.6,0,8.7,4.8,8.7,8.6c0,5.4-4,9.8-9.7,9.8C146.5,774.4,142.7,770.5,142.7,765.5z M158.1,765.5c0-6.1-3.3-8.5-6.4-8.5
			c-4.4,0-6.1,3.8-6.1,7.4c0,6.1,3.3,9.4,6.4,9.4C156.8,773.5,158.1,768.9,158.1,765.5z"/>
		<path fill="#FFFFFF" stroke="#FFFFFF" stroke-width="0.3" stroke-miterlimit="10" d="M177.4,774.2c-4.1-4.8-8.2-9.8-12.4-14.6
			v11.3c0,0.6,0.1,1.1,0.1,1.4c0.1,0.8,1.1,1.4,2.6,1.5v0.7h-6.3v-0.8c1.2-0.1,2-0.4,2.2-1.5c0-0.4,0.1-0.8,0.1-1.4v-11.9
			c-0.7-0.8-1.5-1.8-2.9-1.8v-0.7h4.7c3.8,4.5,7.8,9.3,11.6,13.9l0,0v-10.4c0-0.6-0.1-1.1-0.1-1.4c-0.1-0.8-1.1-1.4-2.6-1.5v-0.7
			h6.3v0.6c-1.2,0.1-2,0.4-2.2,1.5c0,0.4-0.1,0.8-0.1,1.4v14.3L177.4,774.2L177.4,774.2z"/>
		<path fill="#FFFFFF" stroke="#FFFFFF" stroke-width="0.3" stroke-miterlimit="10" d="M34.9,752.9L34.9,752.9h-6.8v0.8
			c2.6,0,3.1,1.1,2.3,2.9l-5.3,14.2h-0.3l-6-17.7h-1.6l-6.4,17.7h-0.4l-4.5-14.1c-0.7-2.2,0.3-3.1,2.3-3.1v-0.8H0v0.8
			c1.8,0,2,1.4,3.3,4.5l5.9,17.6h1.6l6.3-17.9l6.3,17.9h1.8c2.6-7.2,6.4-17.6,7.8-20.5c0.6-1.1,1.5-1.6,2.3-1.6L34.9,752.9
			L34.9,752.9z"/>
		<path fill="#FFFFFF" stroke="#FFFFFF" stroke-width="0.3" stroke-miterlimit="10" d="M53.3,764.6c-2.6-2-4.5-3.1-4.5-4.9
			c0-2,1.5-2.7,2.9-2.7c2.2,0,3.3,1.5,3.4,3.4h0.7v-3.5c0-0.1,0-0.3-0.1-0.3c-1.2-0.4-2.6-0.6-3.8-0.6c-3.1,0-5.7,1.9-5.7,4.2
			c0,1.4,0.3,2.2,0.8,2.9l0,0l0,0c0.6,0.8,1.6,1.5,2.3,1.9c4,2.6,4.9,4.1,4.9,5.9c0,1.6-1.2,3.3-3.5,3.4c-2.3,0.1-5.3-0.8-6.4-4.1
			c-1.2-2.9-3.4-9.5-4.8-13.9h-1.5c-2,5.6-4.9,13.9-6,16.1c-0.6,0.7-1.4,1.2-1.9,1.2v0.7h1.2h3.5v-0.7c-1.2,0-1.6-0.8-1.4-1.9
			l1.2-3.4H41l1.1,3.3l0.8,2.5c0,0,4.5,1.2,7.5,1.2c3.3,0,6.4-1.8,6.4-4.9C57,767.9,56.1,766.7,53.3,764.6z M34.9,767.2L38,759l0,0
			l2.6,8.2C40.7,767.2,34.9,767.2,34.9,767.2z"/>
	</g>
</g>
<g>
	<g>
		<path fill="#FFFFFF" stroke="#FFFFFF" stroke-width="0.3" stroke-miterlimit="10" d="M469.5,765.9v-6.1h-6.3v6.1h-1.7v-12.2h1.7
			v4.8h6.3v-4.8h1.7v12.2H469.5z"/>
		<path fill="#FFFFFF" stroke="#FFFFFF" stroke-width="0.3" stroke-miterlimit="10" d="M474.4,765.9v-12.2h6.3v1.3h-4.6v3.9h4.5v1.3
			h-4.5v4.5h5.4v1.3L474.4,765.9L474.4,765.9z"/>
		<path fill="#FFFFFF" stroke="#FFFFFF" stroke-width="0.3" stroke-miterlimit="10" d="M492,765.9l-1.3-3.7h-4.9l-1.4,3.7h-1.6
			l4.9-12.2h1.5l4.5,12.2H492z M488.4,755.5l-2.1,5.8h4.1L488.4,755.5z"/>
		<path fill="#FFFFFF" stroke="#FFFFFF" stroke-width="0.3" stroke-miterlimit="10" d="M496.1,765.9v-12.2h1.7v10.9h5.3v1.3H496.1z"
			/>
		<path fill="#FFFFFF" stroke="#FFFFFF" stroke-width="0.3" stroke-miterlimit="10" d="M508.6,755v10.9H507V755h-4v-1.3h9.7v1.3
			H508.6z"/>
		<path fill="#FFFFFF" stroke="#FFFFFF" stroke-width="0.3" stroke-miterlimit="10" d="M523,765.9v-6.1h-6.3v6.1H515v-12.2h1.7v4.8
			h6.3v-4.8h1.7v12.2H523z"/>
		<path fill="#FFFFFF" stroke="#FFFFFF" stroke-width="0.3" stroke-miterlimit="10" d="M537,766.2c-1.4,0-2.4-0.4-3.3-1.1l0.6-1.1
			c0.8,0.7,1.8,0.9,2.5,0.9c1.4,0,2.3-1.1,2.3-2c0-0.7-0.3-1.2-0.6-1.5c-0.8-0.8-2.3-1.8-3.3-2.7c-0.6-0.6-0.9-1.3-0.9-2.2
			c0-1.8,1.5-2.9,3.6-2.9c1.1,0,2,0.3,2.8,1.1l-0.6,0.9c-0.7-0.6-1.4-0.7-2-0.7c-1.4,0-2,0.8-2,1.7c0,0.5,0.3,0.9,0.7,1.4
			c0.7,0.7,2.4,1.9,3.2,2.5c0.7,0.7,1.1,1.5,1.1,2.4C540.9,764.8,539.2,766.2,537,766.2z"/>
		<path fill="#FFFFFF" stroke="#FFFFFF" stroke-width="0.3" stroke-miterlimit="10" d="M553.1,765.1c-1.2,0.7-2.3,1.1-3.9,1.1
			c-3.7,0-6.4-2.6-6.4-6.3c0-3.7,2.7-6.3,6.5-6.3c1.6,0,2.9,0.3,3.9,1.2l-0.5,1.1c-0.9-0.6-2.1-1.1-3.3-1.1c-2.7,0-4.8,2-4.8,5.1
			c0,2.9,2.1,5.2,4.8,5.2c1.3,0,2.2-0.2,3.2-0.8L553.1,765.1z"/>
		<path fill="#FFFFFF" stroke="#FFFFFF" stroke-width="0.3" stroke-miterlimit="10" d="M555.8,765.9v-12.2h1.7v12.2H555.8z"/>
		<path fill="#FFFFFF" stroke="#FFFFFF" stroke-width="0.3" stroke-miterlimit="10" d="M560.9,765.9v-12.2h6.3v1.3h-4.6v3.9h4.5v1.3
			h-4.5v4.5h5.4v1.3L560.9,765.9L560.9,765.9z"/>
		<path fill="#FFFFFF" stroke="#FFFFFF" stroke-width="0.3" stroke-miterlimit="10" d="M579.1,765.9l-5.8-8
			c-0.3-0.4-0.9-1.4-1.3-1.8v9.8h-1.5v-12.2h1.5l5.9,8.2c0.3,0.4,0.8,1.3,1.2,1.7v-9.9h1.5v12.2H579.1L579.1,765.9z"/>
		<path fill="#FFFFFF" stroke="#FFFFFF" stroke-width="0.3" stroke-miterlimit="10" d="M593.2,765.1c-1.2,0.7-2.3,1.1-3.9,1.1
			c-3.7,0-6.4-2.6-6.4-6.3c0-3.7,2.7-6.3,6.5-6.3c1.6,0,2.9,0.3,3.9,1.2l-0.5,1.1c-0.9-0.6-2.1-1.1-3.3-1.1c-2.7,0-4.8,2-4.8,5.1
			c0,2.9,2.1,5.2,4.8,5.2c1.3,0,2.2-0.2,3.2-0.8L593.2,765.1z"/>
		<path fill="#FFFFFF" stroke="#FFFFFF" stroke-width="0.3" stroke-miterlimit="10" d="M595.9,765.9v-12.2h6.3v1.3h-4.6v3.9h4.5v1.3
			h-4.5v4.5h5.4v1.3L595.9,765.9L595.9,765.9z"/>
		<path fill="#FFFFFF" stroke="#FFFFFF" stroke-width="0.3" stroke-miterlimit="10" d="M608.1,766.2c-1.4,0-2.4-0.4-3.3-1.1l0.6-1.1
			c0.8,0.7,1.8,0.9,2.5,0.9c1.4,0,2.3-1.1,2.3-2c0-0.7-0.3-1.2-0.6-1.5c-0.8-0.8-2.3-1.8-3.3-2.7c-0.6-0.6-0.9-1.3-0.9-2.2
			c0-1.8,1.5-2.9,3.6-2.9c1.1,0,2,0.3,2.8,1.1l-0.6,0.9c-0.7-0.6-1.4-0.7-2-0.7c-1.4,0-2,0.8-2,1.7c0,0.5,0.3,0.9,0.7,1.4
			c0.7,0.7,2.4,1.9,3.2,2.5c0.7,0.7,1.1,1.5,1.1,2.4C612,764.8,610.3,766.2,608.1,766.2z"/>
	</g>
	<g>
		<path fill="#FFFFFF" stroke="#FFFFFF" stroke-width="0.3" stroke-miterlimit="10" d="M463.7,784c-1.3,0-2.3-0.4-3.2-1.1l0.6-1.1
			c0.8,0.6,1.7,0.9,2.3,0.9c1.3,0,2.2-0.9,2.2-1.9c0-0.7-0.3-1.1-0.6-1.5c-0.8-0.8-2.2-1.7-3.2-2.6c-0.6-0.6-0.9-1.3-0.9-2.1
			c0-1.7,1.5-2.8,3.4-2.8c1.1,0,1.9,0.3,2.6,0.9l-0.6,0.8c-0.7-0.5-1.3-0.7-1.9-0.7c-1.3,0-1.9,0.8-1.9,1.6c0,0.5,0.3,0.9,0.6,1.3
			c0.6,0.7,2.3,1.8,2.9,2.4c0.7,0.7,1.1,1.4,1.1,2.3C467.4,782.8,465.7,784,463.7,784z"/>
		<path fill="#FFFFFF" stroke="#FFFFFF" stroke-width="0.3" stroke-miterlimit="10" d="M475.9,778.3c-0.7,0.6-2,1.1-3.5,1.1v-1.1
			c2.1-0.1,3.1-1.2,3.1-2.5c0-1.5-1.1-2.2-2.9-2.2h-0.8v10.4h-1.6v-11.6h2.6c1.4,0,2.3,0.2,3.1,0.6c0.8,0.5,1.4,1.5,1.4,2.6
			C477.2,776.7,476.7,777.7,475.9,778.3z"/>
		<path fill="#FFFFFF" stroke="#FFFFFF" stroke-width="0.3" stroke-miterlimit="10" d="M484.8,784c-3.5,0-5.8-2.7-5.8-6.1
			c0-3.5,2.4-5.9,5.8-5.9c3.3,0,5.8,2.5,5.8,5.9C490.5,781.4,488.2,784,484.8,784z M484.8,773.2c-2.8,0-4.1,2.5-4.1,4.8
			c0,2.3,1.3,4.8,4.1,4.8c2.4,0,4.1-1.9,4.1-4.8C488.9,775.5,487.4,773.2,484.8,773.2z"/>
		<path fill="#FFFFFF" stroke="#FFFFFF" stroke-width="0.3" stroke-miterlimit="10" d="M499.5,784l-5.2-6.2v6h-1.6v-11.6h1.6v5.2
			l5.1-5.4l1.2,0.7l-4.5,4.7l5.1,5.9L499.5,784z"/>
		<path fill="#FFFFFF" stroke="#FFFFFF" stroke-width="0.3" stroke-miterlimit="10" d="M510.9,783.8l-1.2-3.5h-4.6l-1.3,3.5h-1.5
			l4.7-11.6h1.4l4.3,11.6H510.9z M507.5,773.9l-2,5.5h3.9L507.5,773.9z"/>
		<path fill="#FFFFFF" stroke="#FFFFFF" stroke-width="0.3" stroke-miterlimit="10" d="M522.8,783.8l-5.6-7.7
			c-0.3-0.4-0.9-1.3-1.2-1.7v9.4h-1.4v-11.6h1.4l5.7,7.8c0.3,0.4,0.8,1.2,1.2,1.6v-9.4h1.4v11.6H522.8z"/>
		<path fill="#FFFFFF" stroke="#FFFFFF" stroke-width="0.3" stroke-miterlimit="10" d="M527.2,783.8v-11.6h6v1.2h-4.3v3.8h4.3v1.2
			h-4.3v4.3h5.1v1.2L527.2,783.8L527.2,783.8z"/>
	</g>
</g>
</svg>
