<?xml version="1.0" encoding="utf-8"?>
<!-- Generator: Adobe Illustrator 17.0.0, SVG Export Plug-In . SVG Version: 6.00 Build 0)  -->
<!DOCTYPE svg PUBLIC "-//W3C//DTD SVG 1.1//EN" "http://www.w3.org/Graphics/SVG/1.1/DTD/svg11.dtd">
<svg version="1.1" id="Layer_1" xmlns="http://www.w3.org/2000/svg" xmlns:xlink="http://www.w3.org/1999/xlink" x="0px" y="0px"
	 width="150px" height="109.761px" viewBox="0 0 150 109.761" enable-background="new 0 0 150 109.761" xml:space="preserve">
<g>
	<g>
		<path fill="#B5BABE" d="M27.214,109.638l-2.455-7.52h1.049l1.172,3.704c0.323,1.016,0.602,1.93,0.803,2.812h0.022
			c0.212-0.87,0.524-1.819,0.859-2.8l1.272-3.715h1.038l-2.689,7.52L27.214,109.638L27.214,109.638z"/>
		<path fill="#B5BABE" d="M37.392,107.273l-0.781,2.365h-1.004l2.555-7.52h1.171l2.566,7.52h-1.038l-0.803-2.365H37.392z
			 M39.857,106.514l-0.736-2.165c-0.167-0.491-0.279-0.937-0.391-1.372h-0.022c-0.112,0.446-0.235,0.904-0.379,1.361l-0.736,2.176
			H39.857z"/>
		<path fill="#B5BABE" d="M48.362,109.638v-7.52h1.06l2.41,3.805c0.558,0.881,0.993,1.673,1.35,2.443l0.022-0.011
			c-0.089-1.004-0.112-1.919-0.112-3.09v-3.147h0.915v7.52h-0.982l-2.388-3.816c-0.524-0.836-1.026-1.696-1.406-2.51l-0.033,0.011
			c0.056,0.949,0.078,1.852,0.078,3.102v3.213C49.276,109.638,48.362,109.638,48.362,109.638z"/>
		<path fill="#B5BABE" d="M66.317,109.392c-0.357,0.179-1.071,0.357-1.986,0.357c-2.12,0-3.715-1.339-3.715-3.805
			c0-2.354,1.596-3.95,3.927-3.95c0.937,0,1.529,0.201,1.785,0.335l-0.234,0.793c-0.368-0.179-0.893-0.313-1.517-0.313
			c-1.763,0-2.934,1.127-2.934,3.102c0,1.841,1.06,3.024,2.89,3.024c0.591,0,1.194-0.123,1.584-0.313L66.317,109.392z"/>
		<path fill="#B5BABE" d="M79.084,105.8c0,2.589-1.573,3.961-3.492,3.961c-1.986,0-3.381-1.54-3.381-3.816
			c0-2.387,1.484-3.95,3.492-3.95C77.756,101.995,79.084,103.569,79.084,105.8z M73.249,105.923c0,1.606,0.87,3.045,2.399,3.045
			c1.54,0,2.41-1.417,2.41-3.124c0-1.495-0.781-3.057-2.399-3.057C74.052,102.788,73.249,104.272,73.249,105.923z"/>
		<path fill="#B5BABE" d="M86.675,102.118v4.452c0,1.684,0.747,2.399,1.751,2.399c1.116,0,1.83-0.736,1.83-2.399v-4.452h0.983v4.385
			c0,2.31-1.217,3.258-2.846,3.258c-1.54,0-2.699-0.881-2.699-3.214v-4.429C85.694,102.118,86.675,102.118,86.675,102.118z"/>
		<path fill="#B5BABE" d="M99.932,109.638l-2.455-7.52h1.049l1.172,3.704c0.323,1.016,0.602,1.93,0.803,2.812h0.023
			c0.212-0.87,0.524-1.819,0.859-2.8l1.272-3.715h1.038l-2.689,7.52L99.932,109.638L99.932,109.638z"/>
		<path fill="#B5BABE" d="M113.758,106.112h-2.923v2.712h3.257v0.814h-4.229v-7.52h4.061v0.814h-3.09v2.377h2.923L113.758,106.112
			L113.758,106.112z"/>
		<path fill="#B5BABE" d="M120.712,102.218c0.49-0.1,1.194-0.156,1.862-0.156c1.038,0,1.707,0.189,2.176,0.614
			c0.379,0.335,0.591,0.847,0.591,1.428c0,0.993-0.624,1.651-1.417,1.919v0.033c0.58,0.201,0.926,0.737,1.105,1.518
			c0.246,1.048,0.424,1.773,0.581,2.064h-1.004c-0.123-0.212-0.29-0.859-0.502-1.796c-0.223-1.038-0.625-1.428-1.507-1.462h-0.915
			v3.258h-0.97L120.712,102.218L120.712,102.218z M121.683,105.644h0.993c1.038,0,1.696-0.569,1.696-1.428
			c0-0.971-0.704-1.395-1.729-1.406c-0.469,0-0.804,0.044-0.96,0.09V105.644z"/>
	</g>
	<g>
		<g>
			<path fill="#B5BABE" d="M95.618,83.021c-1.569-1.177-2.668-1.835-2.668-2.934c0-1.159,0.816-1.633,1.728-1.633
				c1.254,0,1.85,0.879,1.976,1.979h0.408v-2.056c0-0.078-0.017-0.142-0.11-0.171c-0.628-0.22-1.521-0.297-2.196-0.297
				c-1.805,0-3.371,1.112-3.371,2.525c0,0.763,0.211,1.31,0.518,1.729h-0.006c0.008,0.007,0.015,0.012,0.02,0.018
				c0.382,0.507,0.903,0.831,1.365,1.139c2.354,1.554,2.883,2.385,2.902,3.403c0.044,2.265-4.196,3.455-6.988-0.895l-1.449-2.205
				c1.141-0.444,2.071-1.495,2.071-3.02c0-1.734-1.496-2.514-2.988-2.514h-4.31v0.383c1.332,0.159,1.272,0.089,1.272,1.463v6.66
				c0,1.381,0.06,1.304-1.272,1.466v0.385h3.983v-0.385c-1.334-0.162-1.276-0.084-1.276-1.466v-2.736h1.395
				c1.788,2.975,2.233,4.267,3.134,4.587c0.203,0.071,2.524,0.818,4.165,0.818c1.883,0,3.893-1.035,3.893-2.901
				C97.812,85.061,97.279,84.259,95.618,83.021z M86.459,83.542h-1.232v-4.824h1.14c1.079,0,1.972,0.561,1.972,2.177
				C88.338,82.567,87.745,83.542,86.459,83.542z"/>
			<path fill="#B5BABE" d="M56.68,88.431c0,0,0,0-7.243-8.582v6.575c0,0.311,0.061,0.564,0.087,0.802
				c0.077,0.536,0.584,0.744,1.564,0.819v0.386h-3.644v-0.386c0.717-0.076,1.205-0.283,1.279-0.819
				c0.03-0.238,0.09-0.491,0.09-0.802v-7.005c-0.415-0.535-0.88-1.011-1.724-1.011v-0.391h2.704
				c2.217,2.695,4.524,5.431,6.739,8.125h0.03v-6.115c0-0.313-0.061-0.564-0.091-0.803c-0.076-0.535-0.577-0.741-1.56-0.816v-0.391
				h3.643v0.391c-0.698,0.075-1.205,0.281-1.281,0.816c-0.029,0.239-0.087,0.49-0.087,0.803v8.405L56.68,88.431L56.68,88.431z"/>
			<path fill="#B5BABE" d="M62.524,86.571c0,1.386-0.059,1.309,1.278,1.474v0.386h-4v-0.386c1.34-0.165,1.279-0.088,1.279-1.474
				v-6.692c0-1.38,0.061-1.31-1.279-1.471v-0.385h4v0.385c-1.337,0.161-1.278,0.091-1.278,1.471V86.571z"/>
			<path fill="#B5BABE" d="M81.447,85.752c-0.684,1.593-0.58,2.204-2.735,2.204c-1.339,0-1.921-0.106-1.921-1.372v-3.36h1.252
				c0.995,0,1.339,0.524,1.366,1.4h0.386v-3.17h-0.386c-0.027,0.922-0.431,1.295-1.366,1.295h-1.252v-4.251h2.362
				c1.068,0,1.368,0.815,1.515,1.917h0.386v-2.393h-6.85h-2.946v0.385c1.009,0,1.397,0.459,1.025,1.398
				c-0.922,2.276-1.83,4.564-2.783,6.84c-0.772-2.259-1.634-4.816-2.211-6.572c-0.494-1.43,0.103-1.667,0.922-1.667v-0.385h-3.783
				v0.385c0.717,0,0.908,0.459,1.461,2.052c0.906,2.528,1.919,5.398,2.826,7.972h0.757c1.251-3.049,2.515-6.084,3.763-9.13
				c0.313-0.745,0.535-0.894,0.969-0.894c1.338,0.161,1.146,0.091,1.146,1.471v6.692c0,1.386,0.192,1.309-1.146,1.474v0.386h7.184
				l0.446-2.678L81.447,85.752L81.447,85.752z"/>
			<path fill="#B5BABE" d="M101.374,86.571c0,1.386-0.063,1.309,1.277,1.474v0.386h-4.002v-0.386
				c1.34-0.165,1.281-0.088,1.281-1.474v-6.692c0-1.38,0.059-1.31-1.281-1.471v-0.385h4.002v0.385
				c-1.341,0.161-1.277,0.091-1.277,1.471V86.571z"/>
			<path fill="#B5BABE" d="M116.583,78.022v0.385c0.877,0,1.353,0.429,0.846,1.337l-2.05,3.736l-1.801-3.736
				c-0.373-0.774-0.475-1.337,0.653-1.337v-0.385h-2.492h-1.032h-6.926l-0.402,2.271h0.373c0.487-0.98,0.786-1.795,2.079-1.795
				h1.208v8.073c0,1.386,0.058,1.309-1.281,1.474v0.386h4.001v-0.386c-1.337-0.165-1.28-0.088-1.28-1.474v-8.073h1.207
				c1.219,0,2.039,0.727,2.541,1.631l2.094,4.154v2.287c0,1.386,0.062,1.309-1.277,1.474v0.386h3.999v-0.386
				c-1.336-0.165-1.278-0.088-1.278-1.474v-1.666c0-0.37,0.029-0.789,0.18-1.085l2.482-4.506c0.402-0.714,0.804-0.906,1.22-0.906
				v-0.385H116.583z"/>
			<path fill="#B5BABE" d="M47.106,78.013l-4.687,0.012v0.389c0.938,0.101,1.62,0.515,1.718,1.236
				c0.04,0.317,0.123,0.657,0.123,1.077v5.56c0,3.203-1.444,5.04-4.182,5.04c-2.981,0-3.876-2.139-3.876-4.941v-5.86
				c0-1.86,0.055-1.893,1.855-2.113v-0.389h-5.383v0.389c1.803,0.22,1.723,0.253,1.723,2.113v5.961c0,3.62,1.319,5.783,5.578,5.783
				c2.581,0,5.325-1.601,5.325-5.902v-5.641c0-0.035,0-0.067,0-0.1c-0.019-1.736,0.656-1.989,1.793-2.173L47.106,78.013z"/>
		</g>
		<g>
			<path fill="#B5BABE" d="M37.04,70.561c0,1.377-0.059,1.302,1.272,1.466v0.383h-3.983v-0.383c1.333-0.164,1.273-0.089,1.273-1.466
				v-6.667c0-1.375-0.641-1.301-1.974-1.464v-0.383h4.683v0.383c-1.332,0.163-1.272,0.089-1.272,1.464v2.565h5.198v-2.565
				c0-1.375,0.058-1.301-1.274-1.464v-0.383h3.983v0.383c-1.332,0.163-1.274,0.089-1.274,1.464v6.667
				c0,1.377-0.058,1.302,1.274,1.466v0.383h-3.983v-0.383c1.333-0.164,1.274-0.089,1.274-1.466v-3.497H37.04V70.561z"/>
			<path fill="#B5BABE" d="M49.288,70.561c0,1.377-0.061,1.302,1.272,1.466v0.383h-3.982v-0.383
				c1.332-0.164,1.272-0.089,1.272-1.466v-6.667c0-1.375,0.059-1.301-1.272-1.464v-0.383h3.982v0.383
				c-1.333,0.163-1.272,0.089-1.272,1.464V70.561z"/>
			<path fill="#B5BABE" d="M61.599,72.411c-2.355-2.782-4.799-5.702-7.21-8.545v6.547c0,0.309,0.058,0.562,0.09,0.798
				c0.073,0.535,0.575,0.739,1.552,0.816v0.383h-3.627v-0.383c0.71-0.077,1.199-0.281,1.274-0.816
				c0.029-0.236,0.089-0.49,0.089-0.798v-6.976c-0.417-0.532-0.874-1.006-1.719-1.006v-0.383h2.695
				c2.207,2.678,4.501,5.404,6.708,8.083h0.029v-6.085c0-0.312-0.059-0.565-0.089-0.801c-0.073-0.534-0.578-0.739-1.555-0.814
				v-0.383h3.629v0.383c-0.696,0.075-1.199,0.28-1.275,0.814c-0.028,0.236-0.088,0.489-0.088,0.801v8.365H61.599z"/>
			<path fill="#B5BABE" d="M63.781,67.169c0-2.28,1.926-5.303,5.923-5.303c1.435,0,2.116,0.268,2.843,0.507
				c0.414,0.133,0.577,0.338,0.577,0.576v1.91H72.74c-0.044-1.185-0.8-2.472-3.154-2.472c-3.095,0-4.103,2.131-4.116,4.664
				c-0.016,2.338,1.168,5.022,4.175,5.022c1.851,0,2.013-0.685,2.013-1.837v-0.905c0-1.378,0.058-1.302-1.57-1.466v-0.383h4.28
				v0.383c-1.332,0.164-1.272,0.088-1.272,1.466v2.578c-0.948,0.37-2.192,0.682-3.54,0.682
				C66.521,72.59,63.781,71.138,63.781,67.169z"/>
			<path fill="#B5BABE" d="M79.449,70.561c0,1.377-0.059,1.302,1.272,1.466v0.383h-3.982v-0.383
				c1.331-0.164,1.272-0.089,1.272-1.466V62.52H76.81c-1.289,0-1.583,0.812-2.072,1.791h-0.37l0.401-2.263h7.922l0.399,2.263h-0.369
				c-0.488-0.979-0.784-1.791-2.073-1.791h-1.199C79.449,62.52,79.449,70.561,79.449,70.561z"/>
			<path fill="#B5BABE" d="M83.091,67.42c0-3.2,2.488-5.554,5.568-5.554c3.212,0,5.077,2.77,5.077,5.052
				c0,3.125-2.339,5.672-5.612,5.672C85.296,72.59,83.091,70.295,83.091,67.42z M92.048,67.362c0-3.54-1.909-4.976-3.717-4.976
				c-2.516,0-3.551,2.249-3.551,4.264c0,3.585,1.834,5.422,3.744,5.422C91.279,72.072,92.048,69.347,92.048,67.362z"/>
			<path fill="#B5BABE" d="M103.289,72.411c-2.356-2.782-4.797-5.702-7.213-8.545v6.547c0,0.309,0.06,0.562,0.091,0.798
				c0.073,0.535,0.577,0.739,1.553,0.816v0.383h-3.627v-0.383c0.711-0.077,1.199-0.281,1.273-0.816c0.03-0.236,0.09-0.49,0.09-0.798
				v-6.976c-0.415-0.532-0.874-1.006-1.72-1.006v-0.383h2.697c2.207,2.678,4.499,5.404,6.708,8.083h0.027v-6.085
				c0-0.312-0.059-0.565-0.089-0.801c-0.073-0.534-0.575-0.739-1.555-0.814v-0.383h3.628v0.383c-0.696,0.075-1.198,0.28-1.272,0.814
				c-0.03,0.236-0.089,0.489-0.089,0.801v8.365H103.289z"/>
			<path fill="#B5BABE" d="M20.379,60.064v-0.016h-4.005v0.497c1.546,0.017,1.798,0.568,1.392,1.737l-3.031,8.255h-0.167
				l-3.57-10.319h-0.904l-3.75,10.319H6.088l-2.688-8.2c-0.382-1.298,0.152-1.792,1.354-1.792v-0.497H0v0.497
				c1.01,0,1.192,0.786,1.84,2.651l3.451,10.2H6.2l3.692-10.404l3.639,10.415h1.017c1.556-4.143,3.749-10.27,4.554-11.919
				c0.3-0.619,0.843-0.938,1.349-0.938v-0.486C20.451,60.064,20.379,60.064,20.379,60.064z"/>
			<path fill="#B5BABE" d="M31.03,66.848c-1.559-1.168-2.649-1.823-2.649-2.914c0-1.152,0.81-1.622,1.714-1.622
				c1.247,0,1.837,0.874,1.963,1.965h0.404v-2.042c0-0.078-0.016-0.14-0.109-0.171c-0.623-0.218-1.511-0.297-2.182-0.297
				c-1.791,0-3.349,1.107-3.349,2.51c0,0.761,0.209,1.301,0.516,1.718h-0.005c0.006,0.005,0.012,0.011,0.019,0.016
				c0.376,0.506,0.895,0.827,1.354,1.133c2.338,1.542,2.883,2.368,2.883,3.381c0,0.942-0.708,1.885-2.01,1.979
				c-1.333,0.096-3.049-0.549-3.77-2.421c-0.641-1.794-1.945-5.568-2.825-8.172h-0.858c-1.23,3.273-2.895,8.071-3.533,9.374
				c-0.235,0.49-0.664,0.741-1.065,0.741v0.385h0.64h2.054v-0.385c-0.651,0-0.932-0.488-0.74-1.067l0.682-1.984h3.776l0.636,1.91
				l0.491,1.472c0,0,2.648,0.694,4.371,0.694c1.87,0,3.771-1.029,3.771-2.883C33.211,68.874,32.681,68.079,31.03,66.848z
				 M20.389,68.412L22.15,63.6h0.029l1.571,4.812C23.75,68.412,20.389,68.412,20.389,68.412z"/>
		</g>
		<g>
			<path fill="#B5BABE" d="M115.391,62.737c-0.158-1.397-0.917-2.513-2.508-2.513c-1.158,0-2.326,0.598-2.326,2.071
				c0,1.396,1.395,2.231,3.389,3.727c2.109,1.574,2.789,2.59,2.789,4.244c0,2.37-2.299,3.685-4.688,3.685
				c-1.277,0-2.374-0.241-3.409-0.638c-0.078-0.04-0.14-0.12-0.14-0.276v-2.873h0.518c0.222,2.21,1.672,3.089,3.21,3.089
				c1.413,0,2.7-1.076,2.7-2.529c0-1.297-0.697-2.353-3.686-4.321c-1.075-0.716-2.409-1.498-2.409-3.665
				c0-1.799,1.856-3.211,4.148-3.211c0.858,0,1.993,0.099,2.79,0.38c0.12,0.036,0.139,0.12,0.139,0.219v2.612L115.391,62.737
				L115.391,62.737z"/>
			<path fill="#B5BABE" d="M121.762,70.571c0,1.38-0.057,1.301,1.276,1.469v0.381h-3.986V72.04c1.333-0.168,1.275-0.089,1.275-1.469
				v-8.045h-1.202c-1.288,0-1.585,0.816-2.073,1.791h-0.367l0.397-2.263h7.924l0.401,2.263h-0.371
				c-0.488-0.975-0.784-1.791-2.071-1.791h-1.203C121.762,62.526,121.762,70.571,121.762,70.571z"/>
			<path fill="#B5BABE" d="M126.933,68.984l-0.679,1.986c-0.193,0.581,0.088,1.069,0.739,1.069v0.381h-2.696v-0.38
				c0.399,0,0.83-0.257,1.066-0.743c0.637-1.305,2.369-6.146,3.6-9.421h0.828c1.008,2.977,2.518,7.543,3.021,8.86
				c0.329,0.826,0.564,1.305,1.201,1.305v0.381h-3.452V72.04c0.933,0,1.025-0.489,0.788-1.144l-0.64-1.912H126.933z M130.52,68.424
				l-1.57-4.816h-0.029l-1.765,4.816H130.52z"/>
			<path fill="#B5BABE" d="M138.06,70.571c0,1.38-0.06,1.301,1.272,1.469v0.381h-3.985V72.04c1.334-0.168,1.276-0.089,1.276-1.469
				v-8.045h-1.201c-1.29,0-1.583,0.816-2.074,1.791h-0.371l0.402-2.263h7.925l0.397,2.263h-0.371
				c-0.485-0.975-0.781-1.791-2.069-1.791h-1.201L138.06,70.571L138.06,70.571z"/>
			<path fill="#B5BABE" d="M142.401,72.04c1.336-0.168,1.144-0.089,1.144-1.469v-6.667c0-1.377,0.192-1.304-1.144-1.466v-0.383
				h6.488v2.38h-0.387c-0.148-1.092-0.441-1.908-1.508-1.908h-2.019v4.241h1.244c0.933,0,1.336-0.372,1.361-1.291h0.388v3.152
				h-0.388c-0.025-0.875-0.367-1.393-1.361-1.393h-1.244v3.347c0,1.264,0.58,1.369,1.914,1.369c2.147,0,2.043-0.609,2.727-2.195H150
				l-0.446,2.665h-7.152V72.04H142.401z"/>
		</g>
	</g>
</g>
<path fill="#5E6A71" d="M83.051,44.1l-7.586,5.414l-7.58-5.414c-5.39-3.694-10.009-6.861-12.429-11.672
	c2,9.019,10.794,12.39,20.009,19.622c9.216-7.232,18.016-10.604,20.016-19.622C93.059,37.238,88.439,40.406,83.051,44.1z"/>
<g>
	<path fill="#981E32" d="M54.409,0v0.946c0.585,0.203,0.778,0.389,0.841,1.247V23.99c0,12.125,9.84,15.328,20.222,23.475
		C85.855,39.319,95.7,36.116,95.7,23.99V1.949c0.077-0.662,0.288-0.822,0.814-1.003V0H54.409z"/>
</g>
<g>
	<g>
		<path fill="#FFFFFF" d="M79.566,35.485c0,0,1.684-0.718,2.603-3.507c0.812,1.7,0.598,3.449,0.598,3.449
			C82.024,35.594,79.566,35.485,79.566,35.485z"/>
		<path fill="#FFFFFF" d="M88.602,19.54c0,0,1.023,5.6-2.606,5.793c-3.504,0.184-5.16-5.103-5.16-5.103s0.848,10.332,5.76,9.652
			C92.131,29.116,88.602,19.54,88.602,19.54z"/>
	</g>
</g>
<path fill="#FFFFFF" d="M61.914,34.152c0.002,0,0.005,0,0.007,0c4.098-0.935,7.233-5.73,8.155-7.655l0.583-1.221l0.354,1.307
	c0.018,0.073,0.401,1.509,0.401,3.411c0,0.208-0.006,0.426-0.017,0.645c1.413,0.052,2.42-0.233,3.05-0.885
	c0.898-0.938,1.17-2.704,0.832-5.407c-0.164-1.294-0.641-3.353-1.062-5.168c-0.217-0.927-0.42-1.805-0.542-2.425
	c-0.79-3.972,0.189-6.436,1.15-7.803c0.152-0.217,0.315-0.422,0.488-0.617c-2.831,0.958-5.208,2.446-7.662,4.901l1.724,2.008
	l0.706-0.66c0.664,2.49,0.188,4.786,0.188,4.786c-0.908-1.387-1.98-2.51-1.98-2.51l0.472-0.792l-1.555-1.812l-0.181-0.201
	c-1.911,2.633-2.531,4.791-2.531,4.791l1.358,1.238l0.791,0.719l0.263-0.762c1.459,2.736,0.129,5.296,0.129,5.296
	c-0.243-0.935-1.2-2.312-1.2-2.312l0.378-1.255l-2.017-1.833c-2.1,6.577-4.908,8.709-4.908,8.709s3.039-0.549,4.727-1.118
	C64.014,27.528,63.967,30.995,61.914,34.152z"/>
<path fill="#FFFFFF" d="M92.539,10.43l-4.846,0.206c0.005,0.574-0.073,1.151-0.26,1.698c0.453,1.985,0.143,3.063,0.143,3.063
	c-0.813-1.893-1.435-2.417-1.435-2.417c-4.448-1.987-6.948,2.5-6.682,5.393c0.22,2.376,1.077,5.532,1.75,10.481
	c0.566,4.165-1.537,5.962-3.959,6.377c-0.052,0.009-0.103,0.019-0.156,0.027c-0.013,0-0.024,0.005-0.037,0.005
	c-0.391,0.05-0.811,0.069-1.251,0.056c-0.016,0-0.031,0-0.043,0c-0.049,0-0.098-0.006-0.145-0.006
	c-0.188-0.013-0.377-0.03-0.562-0.056c-1.88-0.258-6.095-1.027-10.447-1.132c2.56-1.501,4.562-4.093,5.678-5.935
	c0.067,0.511,0.122,1.132,0.122,1.817c0,0.342-0.015,0.698-0.048,1.067l-0.042,0.499l0.5,0.045c2.003,0.174,3.427-0.208,4.348-1.169
	c1.142-1.187,1.49-3.167,1.107-6.229c-0.169-1.347-0.652-3.431-1.078-5.271c-0.216-0.921-0.42-1.79-0.537-2.396
	c-0.72-3.62,0.137-5.819,0.983-7.024c0.667-0.948,1.584-1.638,2.59-1.972c0.018-0.001,0.033-0.006,0.053-0.006l1.65-5.097h0.52
	L79.347,7.35c0.258-0.049,0.52-0.089,0.786-0.128l1.424-4.514h0.517L81.139,7.08c1.479-0.192,3.08-0.339,4.858-0.473
	c0.289,0.121,0.596,0.452,0.873,0.916l4.667-1.44l0.169,0.502l-4.456,1.74c0.035,0.091,0.068,0.188,0.103,0.283l4.873-0.607
	l0.082,0.525l-4.733,0.946c0.018,0.089,0.031,0.177,0.044,0.267l4.926,0.157L92.539,10.43z M78.499,12.615
	c0.977-0.687,2.64-1.216,4.198-1.097c0.397,0.033,0.73-0.071,0.303-0.301c-1.168-0.616-3.885-0.407-4.848,0.253
	c-1.542,1.055-1.281,2.931-1.244,2.976C77.215,13.908,77.737,13.152,78.499,12.615z"/>
</svg>
