<?xml version="1.0" encoding="utf-8"?>
<!-- Generator: Adobe Illustrator 16.0.0, SVG Export Plug-In . SVG Version: 6.00 Build 0)  -->
<!DOCTYPE svg PUBLIC "-//W3C//DTD SVG 1.1//EN" "http://www.w3.org/Graphics/SVG/1.1/DTD/svg11.dtd">
<svg version="1.1" id="Layer_1" xmlns="http://www.w3.org/2000/svg" xmlns:xlink="http://www.w3.org/1999/xlink" x="0px" y="0px"
	 width="150px" height="92.27px" viewBox="0 0 150 92.27" enable-background="new 0 0 150 92.27" xml:space="preserve">
<g>
	<g>
		<g>
			<path fill="#FFFFFF" d="M82.73,11.215c-1.166-0.614-3.885-0.406-4.846,0.254c-1.543,1.055-1.283,2.932-1.246,2.977
				c0.307-0.538,0.832-1.293,1.592-1.831c0.978-0.688,2.641-1.216,4.197-1.097C82.826,11.55,83.158,11.447,82.73,11.215z"/>
			<path fill="#FFFFFF" d="M54.141-0.001v0.946c0.586,0.203,0.777,0.389,0.84,1.247V23.99c0,12.125,9.842,15.328,20.221,23.474
				C85.583,39.318,95.43,36.115,95.43,23.99V1.948c0.078-0.662,0.289-0.822,0.814-1.003v-0.946H54.141z M61.646,34.153
				c2.052-3.159,2.099-6.624,2.098-6.621c-1.689,0.568-4.729,1.117-4.729,1.117s2.81-2.132,4.908-8.709l2.018,1.833l-0.379,1.255
				c0,0,0.959,1.377,1.201,2.312c0,0,1.33-2.56-0.129-5.296l-0.263,0.762l-0.791-0.719l-1.356-1.238c0,0,0.621-2.157,2.531-4.791
				l0.182,0.201l1.555,1.812l-0.471,0.791c0,0,1.072,1.124,1.979,2.51c0,0,0.478-2.296-0.188-4.786l-0.704,0.66l-1.724-2.008
				c2.453-2.455,4.83-3.943,7.66-4.901c-0.172,0.195-0.335,0.399-0.488,0.616c-0.959,1.367-1.94,3.831-1.149,7.803
				c0.122,0.62,0.325,1.497,0.542,2.425c0.421,1.815,0.898,3.874,1.061,5.168c0.338,2.703,0.066,4.47-0.832,5.407
				c-0.629,0.652-1.637,0.938-3.049,0.885c0.01-0.219,0.016-0.437,0.016-0.645c0-1.902-0.383-3.339-0.399-3.411l-0.354-1.307
				l-0.582,1.22c-0.924,1.925-4.059,6.72-8.156,7.655C61.65,34.153,61.646,34.153,61.646,34.153z M82.498,35.427
				c-0.742,0.166-3.201,0.059-3.201,0.059s1.684-0.718,2.604-3.507C82.713,33.678,82.498,35.427,82.498,35.427z M86.326,29.882
				c-4.911,0.681-5.759-9.651-5.759-9.651s1.655,5.287,5.159,5.103c3.629-0.191,2.605-5.793,2.605-5.793
				S91.862,29.115,86.326,29.882z M92.271,10.429l-4.848,0.206c0.006,0.574-0.072,1.151-0.261,1.698
				c0.455,1.986,0.146,3.063,0.146,3.063c-0.814-1.894-1.437-2.417-1.437-2.417c-4.448-1.987-6.948,2.5-6.683,5.393
				c0.221,2.376,1.078,5.532,1.75,10.48c0.566,4.165-1.536,5.963-3.957,6.377c-0.053,0.009-0.104,0.019-0.157,0.026
				c-0.013,0-0.024,0.005-0.037,0.005c-0.392,0.051-0.81,0.069-1.251,0.057c-0.016,0-0.029,0-0.044,0
				c-0.048,0-0.099-0.006-0.144-0.006c-0.188-0.013-0.377-0.03-0.562-0.057c-1.879-0.258-6.095-1.026-10.447-1.132
				c2.561-1.501,4.562-4.093,5.68-5.936c0.065,0.511,0.121,1.132,0.121,1.816c0,0.342-0.015,0.698-0.047,1.066l-0.043,0.499
				l0.5,0.045c2.004,0.174,3.428-0.208,4.348-1.169c1.141-1.188,1.49-3.167,1.107-6.229c-0.17-1.348-0.652-3.431-1.078-5.271
				c-0.215-0.921-0.42-1.791-0.537-2.396c-0.719-3.62,0.138-5.818,0.983-7.023c0.669-0.947,1.584-1.639,2.591-1.973
				c0.019-0.001,0.034-0.006,0.053-0.006l1.651-5.097h0.519L79.08,7.346c0.258-0.049,0.52-0.088,0.786-0.128l1.425-4.514h0.518
				l-0.937,4.372c1.479-0.192,3.082-0.339,4.858-0.472c0.291,0.121,0.597,0.451,0.873,0.916l4.666-1.439l0.17,0.502l-4.455,1.74
				c0.035,0.09,0.066,0.188,0.103,0.283l4.872-0.607l0.082,0.526L87.309,9.47c0.019,0.09,0.033,0.178,0.045,0.267l4.925,0.157
				L92.271,10.429z"/>
		</g>
		<path fill="#FFFFFF" d="M82.782,44.1l-7.586,5.414l-7.58-5.414c-5.39-3.694-10.009-6.862-12.431-11.673
			c2,9.02,10.795,12.391,20.011,19.622c9.216-7.23,18.015-10.603,20.015-19.622C92.789,37.238,88.17,40.405,82.782,44.1z"/>
	</g>
	<g>
		<g>
			<path fill="#FFFFFF" d="M95.348,83.022c-1.568-1.178-2.666-1.835-2.666-2.935c0-1.16,0.815-1.633,1.728-1.633
				c1.254,0,1.851,0.88,1.976,1.979h0.407v-2.058c0-0.078-0.016-0.142-0.108-0.171c-0.629-0.22-1.522-0.298-2.197-0.298
				c-1.805,0-3.372,1.112-3.372,2.525c0,0.763,0.211,1.31,0.521,1.729h-0.006c0.008,0.007,0.014,0.012,0.02,0.018
				c0.381,0.508,0.902,0.831,1.363,1.14c2.354,1.555,2.885,2.386,2.903,3.403c0.043,2.265-4.196,3.454-6.987-0.896l-1.449-2.205
				c1.14-0.444,2.07-1.494,2.07-3.02c0-1.734-1.494-2.516-2.988-2.516h-4.309v0.384c1.332,0.159,1.271,0.09,1.271,1.465v6.658
				c0,1.383,0.061,1.306-1.271,1.467v0.385h3.981V88.06c-1.333-0.161-1.274-0.084-1.274-1.467v-2.735h1.395
				c1.789,2.974,2.232,4.267,3.135,4.587c0.201,0.072,2.523,0.817,4.164,0.817c1.883,0,3.893-1.034,3.893-2.9
				C97.544,85.062,97.012,84.258,95.348,83.022z M86.189,83.542h-1.23v-4.824H86.1c1.078,0,1.971,0.562,1.971,2.177
				C88.068,82.568,87.477,83.542,86.189,83.542z"/>
			<path fill="#FFFFFF" d="M56.41,88.43c0,0,0,0-7.242-8.582v6.574c0,0.312,0.061,0.564,0.088,0.804
				c0.075,0.535,0.582,0.742,1.562,0.818v0.386h-3.645v-0.386c0.717-0.076,1.205-0.283,1.278-0.818
				c0.032-0.238,0.09-0.491,0.09-0.804v-7.004c-0.415-0.535-0.879-1.013-1.724-1.013v-0.391h2.705
				c2.215,2.694,4.523,5.433,6.738,8.124h0.03v-6.114c0-0.312-0.062-0.563-0.091-0.803c-0.076-0.535-0.577-0.74-1.561-0.816v-0.391
				h3.644v0.391c-0.699,0.076-1.205,0.281-1.282,0.816c-0.029,0.238-0.087,0.489-0.087,0.803v8.404L56.41,88.43L56.41,88.43z"/>
			<path fill="#FFFFFF" d="M62.256,86.57c0,1.386-0.06,1.311,1.277,1.475v0.386h-4v-0.386c1.339-0.164,1.279-0.089,1.279-1.475
				v-6.691c0-1.382,0.06-1.311-1.279-1.473v-0.385h4v0.385c-1.337,0.162-1.277,0.091-1.277,1.473V86.57z"/>
			<path fill="#FFFFFF" d="M81.18,85.752c-0.686,1.593-0.58,2.203-2.735,2.203c-1.339,0-1.921-0.105-1.921-1.371v-3.359h1.251
				c0.995,0,1.338,0.522,1.366,1.399h0.385v-3.17h-0.385c-0.028,0.922-0.433,1.295-1.366,1.295h-1.251v-4.253h2.359
				c1.069,0,1.369,0.816,1.517,1.917h0.385v-2.393h-6.849h-2.946v0.385c1.009,0,1.396,0.461,1.024,1.397
				c-0.922,2.276-1.83,4.564-2.783,6.842c-0.771-2.26-1.633-4.817-2.211-6.572c-0.494-1.43,0.104-1.667,0.923-1.667v-0.385h-3.784
				v0.385c0.717,0,0.908,0.461,1.462,2.053c0.905,2.528,1.919,5.397,2.825,7.972h0.758c1.25-3.049,2.514-6.083,3.762-9.13
				c0.312-0.746,0.535-0.895,0.971-0.895c1.336,0.162,1.145,0.091,1.145,1.473v6.691c0,1.386,0.191,1.311-1.145,1.475v0.386h7.183
				l0.446-2.678H81.18L81.18,85.752z"/>
			<path fill="#FFFFFF" d="M101.105,86.57c0,1.386-0.062,1.311,1.275,1.475v0.386h-4v-0.386c1.34-0.164,1.28-0.089,1.28-1.475
				v-6.691c0-1.382,0.06-1.311-1.28-1.473v-0.385h4v0.385c-1.339,0.162-1.275,0.091-1.275,1.473V86.57z"/>
			<path fill="#FFFFFF" d="M116.314,78.022v0.385c0.877,0,1.353,0.43,0.847,1.339l-2.052,3.735l-1.801-3.735
				c-0.373-0.774-0.474-1.339,0.654-1.339v-0.385h-2.494h-1.031h-6.926l-0.402,2.271h0.374c0.487-0.979,0.786-1.796,2.079-1.796
				h1.207v8.073c0,1.386,0.06,1.311-1.279,1.475v0.386h4v-0.386c-1.338-0.164-1.279-0.089-1.279-1.475v-8.073h1.206
				c1.22,0,2.04,0.729,2.542,1.633l2.094,4.154v2.286c0,1.386,0.062,1.31-1.277,1.474v0.387h4v-0.387
				c-1.338-0.164-1.278-0.088-1.278-1.474v-1.666c0-0.371,0.03-0.788,0.181-1.084l2.481-4.508c0.403-0.715,0.803-0.906,1.222-0.906
				V78.02L116.314,78.022L116.314,78.022z"/>
			<path fill="#FFFFFF" d="M46.836,78.013l-4.686,0.014v0.389c0.938,0.102,1.619,0.513,1.718,1.234
				c0.04,0.317,0.123,0.656,0.123,1.077v5.561c0,3.202-1.442,5.04-4.183,5.04c-2.98,0-3.875-2.14-3.875-4.941v-5.859
				c0-1.859,0.055-1.895,1.854-2.112v-0.389h-5.383v0.389c1.803,0.219,1.724,0.253,1.724,2.112v5.961
				c0,3.62,1.319,5.783,5.578,5.783c2.58,0,5.325-1.601,5.325-5.901v-5.643c0-0.034,0-0.066,0-0.1
				c-0.019-1.737,0.655-1.99,1.793-2.173L46.836,78.013z"/>
		</g>
		<g>
			<path fill="#FFFFFF" d="M36.771,70.562c0,1.378-0.061,1.303,1.271,1.466v0.384h-3.982v-0.384
				c1.332-0.163,1.272-0.088,1.272-1.466v-6.666c0-1.376-0.641-1.302-1.973-1.465v-0.385h4.683v0.385
				c-1.332,0.163-1.271,0.089-1.271,1.465v2.563h5.197v-2.563c0-1.376,0.06-1.302-1.274-1.465v-0.385h3.981v0.385
				c-1.33,0.163-1.272,0.089-1.272,1.465v6.666c0,1.378-0.058,1.303,1.272,1.466v0.384h-3.981v-0.384
				c1.333-0.163,1.274-0.088,1.274-1.466v-3.497h-5.197V70.562z"/>
			<path fill="#FFFFFF" d="M49.02,70.562c0,1.378-0.062,1.303,1.271,1.466v0.384h-3.981v-0.384c1.334-0.163,1.272-0.088,1.272-1.466
				v-6.666c0-1.376,0.06-1.302-1.272-1.465v-0.385h3.981v0.385c-1.333,0.163-1.271,0.089-1.271,1.465V70.562z"/>
			<path fill="#FFFFFF" d="M61.329,72.41c-2.354-2.782-4.798-5.701-7.21-8.545v6.548c0,0.308,0.059,0.562,0.089,0.798
				c0.075,0.534,0.576,0.738,1.554,0.815v0.384h-3.625v-0.384c0.709-0.077,1.198-0.281,1.272-0.815
				c0.028-0.235,0.089-0.49,0.089-0.798v-6.976c-0.416-0.532-0.875-1.007-1.719-1.007v-0.384h2.695
				c2.207,2.679,4.502,5.402,6.707,8.083h0.029v-6.085c0-0.312-0.059-0.564-0.089-0.801c-0.071-0.534-0.577-0.739-1.555-0.813
				v-0.384h3.629v0.384c-0.696,0.074-1.199,0.279-1.276,0.813c-0.027,0.235-0.086,0.488-0.086,0.801v8.366L61.329,72.41
				L61.329,72.41L61.329,72.41z"/>
			<path fill="#FFFFFF" d="M63.512,67.169c0-2.281,1.926-5.304,5.922-5.304c1.437,0,2.117,0.268,2.844,0.508
				c0.415,0.132,0.578,0.337,0.578,0.575v1.91h-0.385c-0.045-1.186-0.799-2.473-3.153-2.473c-3.097,0-4.103,2.132-4.117,4.662
				c-0.015,2.339,1.169,5.022,4.175,5.022c1.852,0,2.016-0.686,2.016-1.838v-0.905c0-1.377,0.058-1.301-1.57-1.464V67.48H74.1v0.384
				c-1.332,0.163-1.271,0.087-1.271,1.464v2.578c-0.949,0.371-2.191,0.683-3.541,0.683C66.253,72.59,63.512,71.137,63.512,67.169z"
				/>
			<path fill="#FFFFFF" d="M79.18,70.562c0,1.378-0.06,1.303,1.273,1.466v0.384h-3.982v-0.384c1.33-0.163,1.271-0.088,1.271-1.466
				V62.52h-1.201c-1.288,0-1.583,0.812-2.072,1.792H74.1l0.4-2.266h7.922l0.399,2.266H82.45c-0.487-0.979-0.784-1.792-2.071-1.792
				H79.18V70.562L79.18,70.562z"/>
			<path fill="#FFFFFF" d="M82.822,67.419c0-3.199,2.486-5.554,5.566-5.554c3.213,0,5.08,2.771,5.08,5.052
				c0,3.125-2.341,5.673-5.613,5.673C85.027,72.59,82.822,70.295,82.822,67.419z M91.779,67.362c0-3.539-1.909-4.976-3.719-4.976
				c-2.516,0-3.551,2.249-3.551,4.265c0,3.584,1.836,5.422,3.744,5.422C91.01,72.073,91.779,69.347,91.779,67.362z"/>
			<path fill="#FFFFFF" d="M103.02,72.41c-2.355-2.782-4.797-5.701-7.213-8.545v6.548c0,0.308,0.061,0.562,0.09,0.798
				c0.074,0.534,0.578,0.738,1.555,0.815v0.384h-3.628v-0.384c0.712-0.077,1.2-0.281,1.274-0.815
				c0.028-0.235,0.088-0.49,0.088-0.798v-6.976c-0.414-0.532-0.873-1.007-1.717-1.007v-0.384h2.694
				c2.206,2.679,4.499,5.402,6.708,8.083h0.028v-6.085c0-0.312-0.062-0.564-0.089-0.801c-0.073-0.534-0.576-0.739-1.555-0.813
				v-0.384h3.627v0.384c-0.695,0.074-1.197,0.279-1.271,0.813c-0.03,0.235-0.09,0.488-0.09,0.801v8.366L103.02,72.41L103.02,72.41
				L103.02,72.41z"/>
			<path fill="#FFFFFF" d="M20.11,60.065v-0.017h-4.005v0.496c1.546,0.018,1.798,0.568,1.392,1.737l-3.032,8.254h-0.167
				l-3.57-10.317H9.824l-3.75,10.317H5.82l-2.688-8.199c-0.381-1.298,0.152-1.793,1.354-1.793v-0.495h-4.755v0.495
				c1.011,0,1.192,0.786,1.841,2.65l3.451,10.201h0.908L9.622,62.99l3.639,10.414h1.017c1.556-4.144,3.749-10.271,4.555-11.919
				c0.299-0.618,0.842-0.938,1.349-0.938v-0.485L20.11,60.065L20.11,60.065z"/>
			<path fill="#FFFFFF" d="M30.76,66.85c-1.558-1.171-2.646-1.823-2.646-2.915c0-1.151,0.811-1.621,1.714-1.621
				c1.246,0,1.838,0.874,1.963,1.965h0.405v-2.042c0-0.078-0.016-0.142-0.109-0.171c-0.624-0.22-1.511-0.297-2.181-0.297
				c-1.792,0-3.351,1.106-3.351,2.51c0,0.761,0.209,1.301,0.518,1.718h-0.005c0.006,0.006,0.012,0.01,0.018,0.016
				c0.377,0.507,0.896,0.826,1.354,1.134c2.338,1.542,2.884,2.367,2.884,3.381c0,0.94-0.708,1.886-2.009,1.979
				c-1.334,0.098-3.049-0.548-3.771-2.42c-0.641-1.796-1.944-5.57-2.825-8.174h-0.857c-1.229,3.274-2.895,8.071-3.533,9.374
				c-0.235,0.49-0.664,0.741-1.065,0.741v0.385h0.64h2.055v-0.385c-0.65,0-0.932-0.489-0.74-1.067l0.682-1.983h3.775l0.637,1.909
				l0.49,1.474c0,0,2.648,0.692,4.373,0.692c1.869,0,3.771-1.028,3.771-2.883C32.942,68.873,32.413,68.079,30.76,66.85z
				 M20.12,68.412l1.763-4.812h0.029l1.57,4.812H20.12z"/>
		</g>
		<g>
			<path fill="#FFFFFF" d="M115.12,62.737c-0.155-1.398-0.915-2.514-2.508-2.514c-1.156,0-2.324,0.598-2.324,2.071
				c0,1.396,1.394,2.23,3.388,3.728c2.109,1.572,2.791,2.59,2.791,4.242c0,2.37-2.301,3.687-4.688,3.687
				c-1.278,0-2.374-0.241-3.41-0.638c-0.077-0.04-0.14-0.12-0.14-0.277v-2.872h0.519c0.222,2.211,1.672,3.089,3.208,3.089
				c1.415,0,2.7-1.076,2.7-2.529c0-1.297-0.697-2.354-3.685-4.321c-1.076-0.716-2.41-1.496-2.41-3.664
				c0-1.799,1.856-3.211,4.15-3.211c0.855,0,1.992,0.1,2.789,0.381c0.12,0.035,0.139,0.12,0.139,0.219v2.611L115.12,62.737
				L115.12,62.737z"/>
			<path fill="#FFFFFF" d="M121.493,70.571c0,1.38-0.058,1.301,1.274,1.47v0.381h-3.984V72.04c1.333-0.169,1.273-0.09,1.273-1.47
				v-8.045h-1.201c-1.287,0-1.584,0.815-2.073,1.792h-0.368l0.398-2.266h7.924l0.4,2.266h-0.371
				c-0.487-0.977-0.783-1.792-2.07-1.792h-1.202V70.571L121.493,70.571z"/>
			<path fill="#FFFFFF" d="M126.662,68.986l-0.678,1.985c-0.193,0.58,0.087,1.07,0.738,1.07v0.38h-2.694v-0.38
				c0.397,0,0.83-0.258,1.065-0.744c0.637-1.305,2.369-6.146,3.6-9.421h0.83c1.006,2.978,2.516,7.543,3.021,8.859
				c0.328,0.826,0.564,1.306,1.2,1.306v0.38h-3.451v-0.38c0.934,0,1.024-0.49,0.787-1.146l-0.641-1.911L126.662,68.986
				L126.662,68.986z M130.25,68.423l-1.57-4.814h-0.029l-1.764,4.814H130.25z"/>
			<path fill="#FFFFFF" d="M137.79,70.571c0,1.38-0.06,1.301,1.272,1.47v0.381h-3.984V72.04c1.333-0.169,1.275-0.09,1.275-1.47
				v-8.045h-1.201c-1.29,0-1.583,0.815-2.075,1.792h-0.37l0.402-2.266h7.924l0.398,2.266h-0.373
				c-0.483-0.977-0.779-1.792-2.067-1.792h-1.201V70.571L137.79,70.571z"/>
			<path fill="#FFFFFF" d="M142.133,72.04c1.336-0.169,1.144-0.09,1.144-1.47v-6.668c0-1.377,0.192-1.303-1.144-1.466v-0.385h6.487
				v2.383h-0.387c-0.147-1.094-0.44-1.908-1.509-1.908h-2.019v4.241h1.246c0.933,0,1.333-0.372,1.36-1.29h0.387v3.149h-0.387
				c-0.027-0.875-0.367-1.393-1.36-1.393h-1.246v3.348c0,1.264,0.58,1.369,1.914,1.369c2.147,0,2.043-0.61,2.726-2.195h0.385
				l-0.445,2.665h-7.152V72.04L142.133,72.04z"/>
		</g>
	</g>
</g>
</svg>
