<?xml version="1.0" encoding="utf-8"?>
<!-- Generator: Adobe Illustrator 18.0.0, SVG Export Plug-In . SVG Version: 6.00 Build 0)  -->
<!DOCTYPE svg PUBLIC "-//W3C//DTD SVG 1.1//EN" "http://www.w3.org/Graphics/SVG/1.1/DTD/svg11.dtd">
<svg version="1.1" id="Layer_1" xmlns="http://www.w3.org/2000/svg" xmlns:xlink="http://www.w3.org/1999/xlink" x="0px" y="0px"
	 viewBox="24.4 311.6 562.9 158.4" enable-background="new 24.4 311.6 562.9 158.4" xml:space="preserve">
<g>
	<path fill="#FFFFFF" d="M163.5,453.5l-13.6,9.6l-13.6-9.6c-9.6-6.5-18.1-12.5-22.4-21c3.7,16.2,19.5,22.4,36,35.4
		c16.7-13,32.6-19,36-35.4C181.6,441.1,173.1,446.7,163.5,453.5z"/>
	<g>
		<path fill="#FFFFFF" d="M163.5,394.3c-2-1.1-7.1-0.8-8.8,0.6c-2.8,2-2.3,5.4-2.3,5.4c0.6-1.1,1.4-2.5,2.8-3.4
			c1.7-1.1,4.8-2.3,7.7-2C163.8,394.9,164.3,394.9,163.5,394.3z"/>
		<path fill="#FFFFFF" d="M111.9,374.2v1.7c1.1,0.3,1.4,0.6,1.4,2.3v39.1c0,21.8,17.9,27.5,36.6,42.2c18.7-14.7,36.5-20.4,36.5-42.2
			v-39.7c0-1.1,0.6-1.4,1.4-1.7v-1.7H111.9z M120.7,425.5c0,0,5.1-3.7,8.8-15.6l3.7,3.4l-0.6,2.3c0,0,1.7,2.5,2.3,4.2
			c0,0,2.3-4.8-0.3-9.6l-0.6,1.4l-1.4-1.4l-2.5-2.3c0,0,1.1-3.7,4.5-8.5l0.3,0.3l2.8,3.4l-0.9,1.4c0,0,2,2,3.4,4.5
			c0,0,0.8-4-0.3-8.5l-1.1,1.1l-3.1-4c4.5-4.2,8.8-7.1,13.9-8.8c-0.3,0.3-0.6,0.8-0.8,1.1c-1.7,2.5-3.4,7.1-2,14.2
			c0,1.1,0.6,2.5,0.9,4.2c0.8,3.4,1.7,7.1,2,9.3c0.6,4.8,0.3,7.9-1.4,9.6c-1.1,1.4-2.8,1.7-5.4,1.7c0-0.3,0-0.9,0-1.1
			c0-3.4-0.8-6.2-0.8-6.2l-0.6-2.3l-1.1,2.3c-1.7,3.7-7.4,12.2-14.7,13.9c3.7-5.7,3.7-11.9,3.7-12.2
			C126.1,424.6,120.7,425.5,120.7,425.5z M163.2,437.9c-1.7,0.3-6,0-6,0s3.1-1.4,4.8-6.2C163.5,434.8,163.2,437.9,163.2,437.9z
			 M169.7,428c-9.1,1.4-10.5-17.3-10.5-17.3s3.1,9.3,9.3,9.1c6.8-0.3,4.8-10.5,4.8-10.5S179.9,426.6,169.7,428z M180.5,392.9
			l-8.5,0.3c0,1.1,0,2-0.6,3.1c0.8,3.7,0.3,5.4,0.3,5.4c-1.4-3.4-2.6-4.2-2.6-4.2c-7.9-3.7-12.5,4.5-12.2,9.6c0.3,4.2,2,9.9,3.1,19
			c1.1,7.4-2.8,10.8-7.1,11.3h-0.3c-0.6,0-1.4,0-2.3,0h-0.3c-0.3,0-0.6,0-1.1,0c-3.4-0.6-11-2-18.7-2c4.5-2.8,8.2-7.4,10.2-10.8
			c0,0.8,0.3,2,0.3,3.4c0,0.6,0,1.1,0,2v0.8h0.8c3.7,0.3,6.2-0.3,7.9-2c2-2.3,2.5-5.7,2-11.3c-0.3-2.5-1.1-6.2-2-9.3
			c-0.3-1.7-0.8-3.1-0.8-4.2c-1.4-6.5,0.3-10.5,1.7-12.8c1.1-1.7,2.8-2.8,4.5-3.7l3.1-9.1h0.8l-2,8.8c0.6,0,0.9-0.3,1.4-0.3l2.5-8.2
			h0.9l-1.7,7.9c2.5-0.3,5.7-0.6,8.8-0.9c0.6,0.3,1.1,0.9,1.7,1.7l8.5-2.5l0.3,0.8l-7.9,3.1c0,0.3,0,0.3,0.3,0.6l8.8-1.1l0.3,0.9
			l-8.5,1.7c0,0.3,0,0.3,0,0.6l8.8,0.3L180.5,392.9z"/>
	</g>
</g>
<g>
	<g>
		<path fill="#FFFFFF" d="M419,399.7c-5.7-4.2-9.9-6.8-9.9-10.8c0-4.2,3.1-6,6.2-6c4.5,0,6.8,3.1,7.4,7.4h1.4v-7.6
			c0-0.3,0-0.6-0.3-0.6c-2.3-0.9-5.7-1.1-8.2-1.1c-6.5,0-12.5,4-12.5,9.4c0,2.8,0.9,4.8,2,6.2l0,0l0,0c1.4,2,3.4,3.1,5.1,4.2
			c8.8,5.7,10.5,8.8,10.8,12.5c0.3,8.2-15.6,12.8-25.8-3.4l-5.4-8.2c4.2-1.7,7.6-5.4,7.6-11.1c0-6.5-5.4-9.4-11-9.4h-15.9v1.4
			c4.8,0.6,4.8,0.3,4.8,5.4V413c0,5.1,0.3,4.8-4.8,5.4v1.4h14.7v-1.4c-4.8-0.6-4.8-0.3-4.8-5.4v-10.2h5.1c6.5,11,8.2,15.6,11.6,17
			c0.9,0.3,9.4,3.1,15.3,3.1c6.8,0,14.5-3.7,14.5-10.8C427.3,407.3,425.3,404.2,419,399.7z M385.3,401.7h-4.5v-17.9h4.2
			c4,0,7.4,2,7.4,7.9C392.4,398,390.1,401.7,385.3,401.7z"/>
		<path fill="#FFFFFF" d="M269.2,382.7c3.7,0.3,5.4,1.1,5.7,3.1c0,0.9,0.3,1.7,0.3,2.8V411l0,0c-8.2-9.9-16.7-19.8-24.9-29.8h-23.2
			v1.1c2.6,0.3,4.5,1.4,4.8,3.4c0,0.9,0.3,2,0.3,3.1v15.9c0,9.1-4,14.2-11.9,14.2c-8.5,0-11.1-5.9-11.1-13.9v-16.7
			c0-5.4,0.3-5.4,5.4-5.9v-1.1h-15.3v1.1c5.1,0.6,4.8,0.8,4.8,5.9v17c0,10.2,3.7,16.4,15.9,16.4c7.4,0,15-4.5,15-16.7v-16.1v-0.3
			c0-4.8,2-5.7,5.1-6.2l0,0c3.1,0,4.8,2,6.2,4v25.8c0,1.1-0.3,2-0.3,2.8c-0.3,2-2,2.8-4.8,3.1v1.4h13.3v-1.4
			c-3.7-0.3-5.4-1.1-5.7-3.1c0-0.9-0.3-1.7-0.3-2.8v-24.1c26.6,31.4,26.6,31.4,26.6,31.4h2.5v-30.9c0-1.1,0.3-2,0.3-2.8
			c0.3-2,2.3-2.8,4.8-3.1v-1.4h-13.6V382.7L269.2,382.7z"/>
		<path fill="#FFFFFF" d="M287.3,382.7c4.8,0.6,4.8,0.3,4.8,5.4v24.6c0,5.1,0.3,4.8-4.8,5.4v1.4H302v-1.4c-4.8-0.6-4.8-0.3-4.8-5.4
			v-24.6c0-5.1-0.3-4.8,4.8-5.4v-1.4h-14.7V382.7z"/>
		<path fill="#FFFFFF" d="M357,417.8c-4.8,0-7.1-0.3-7.1-5.1v-12.5h4.5c3.7,0,4.8,2,5.1,5.1h1.4v-11.6h-1.4c0,3.4-1.7,4.8-5.1,4.8
			h-4.5V383h8.8c4,0,5.1,3.1,5.7,7.1h1.4v-8.8h-25.2h-10.8v1.4c3.7,0,5.1,1.7,3.7,5.1c-3.4,8.5-6.8,16.7-10.2,25.2
			c-2.8-8.2-6-17.8-8.2-24.1c-1.7-5.4,0.3-6.2,3.4-6.2v-1.4h-13.9v1.4c2.6,0,3.4,1.7,5.4,7.6c3.4,9.4,7.1,19.8,10.5,29.5h2.8
			c4.5-11.3,9.4-22.4,13.9-33.7c1.1-2.8,2-3.4,3.7-3.4c4.8,0.6,4.2,0.3,4.2,5.4v24.6c0,5.1,0.6,4.8-4.2,5.4v1.4h26.4l1.7-9.9h-1.4
			C364.4,415.6,364.9,417.8,357,417.8z"/>
		<path fill="#FFFFFF" d="M430.1,382.7c4.8,0.6,4.8,0.3,4.8,5.4v24.6c0,5.1,0.3,4.8-4.8,5.4v1.4h14.7v-1.4c-4.8-0.6-4.8-0.3-4.8-5.4
			v-24.6c0-5.1-0.3-4.8,4.8-5.4v-1.4h-14.7V382.7z"/>
		<path fill="#FFFFFF" d="M496.1,381.3v1.4c3.1,0,5.1,1.7,3.1,4.8l-7.6,13.9l-6.5-13.9c-1.4-2.8-1.7-4.8,2.3-4.8v-1.4h-9.1h-3.7
			h-25.5l-1.4,8.2h1.4c1.7-3.7,2.8-6.5,7.6-6.5h4.5v29.8c0,5.1,0.3,4.8-4.8,5.4v1.4h14.7v-1.4c-4.8-0.6-4.8-0.3-4.8-5.4V383h4.5
			c4.5,0,7.4,2.5,9.4,6l7.6,15.3v8.5c0,5.1,0.3,4.8-4.8,5.4v1.4h14.7v-1.4c-4.8-0.6-4.8-0.3-4.8-5.4v-6.2c0-1.4,0-2.8,0.6-4
			l9.1-16.7c1.4-2.5,2.8-3.4,4.5-3.4V381h-11.1V381.3z"/>
	</g>
	<g>
		<path fill="#FFFFFF" d="M163.8,353.5c0,5.1-0.3,4.8,4.8,5.4v1.4h-15v-1.4c5.1-0.6,4.8-0.3,4.8-5.4v-24.9c0-5.1-2.3-4.8-7.4-5.4
			v-1.7h17.6v1.4c-5.1,0.6-4.8,0.3-4.8,5.4v9.6h19.6v-9.6c0-5.1,0.3-4.8-4.8-5.4v-1.4h15v1.4c-5.1,0.6-4.8,0.3-4.8,5.4v25.2
			c0,5.1-0.3,4.8,4.8,5.4v1.4h-15v-1.4c5.1-0.6,4.8-0.3,4.8-5.4v-13h-19.6L163.8,353.5L163.8,353.5z"/>
		<path fill="#FFFFFF" d="M209.7,353.5c0,5.1-0.3,4.8,4.8,5.4v1.4h-15v-1.4c5.1-0.6,4.8-0.3,4.8-5.4v-24.9c0-5.1,0.3-4.8-4.8-5.4
			v-1.7h15v1.4c-5.1,0.6-4.8,0.3-4.8,5.4V353.5z"/>
		<path fill="#FFFFFF" d="M255.9,360.3c-8.8-10.5-18.1-21.5-26.9-32v24.6c0,1.1,0.3,2,0.3,3.1c0.3,2,2.3,2.8,5.9,3.1v1.4h-13.6v-1.4
			c2.6-0.3,4.5-1.1,4.8-3.1c0-0.9,0.3-1.7,0.3-3.1v-26.1c-1.7-2-3.4-3.7-6.5-3.7v-1.7h10.2c8.2,9.9,17,20.4,25.2,30.3l0,0v-23
			c0-1.1-0.3-2-0.3-3.1c-0.3-2-2.3-2.8-5.9-3.1v-1.1h13.6v1.4c-2.6,0.3-4.5,1.1-4.8,3.1c0,0.9-0.3,1.7-0.3,3.1v31.5h-2V360.3z"/>
		<path fill="#FFFFFF" d="M264.1,340.8c0-8.5,7.4-19.8,22.1-19.8c5.4,0,7.9,1.1,10.8,2c1.7,0.6,2.3,1.1,2.3,2.3v7.1h-1.4
			c-0.3-4.5-3.1-9.4-11.9-9.4c-11.6,0-15.3,7.9-15.6,17.6c0,8.8,4.2,19,15.6,19c7.1,0,7.6-2.6,7.6-6.8v-3.4c0-5.1,0.3-4.8-6-5.4
			v-1.4h16.1v1.4c-5.1,0.6-4.8,0.3-4.8,5.4v9.6c-3.7,1.4-8.2,2.5-13.3,2.5C274.3,361.2,264.1,355.5,264.1,340.8z"/>
		<path fill="#FFFFFF" d="M323,353.5c0,5.1-0.3,4.8,4.8,5.4v1.4h-15v-1.4c5.1-0.6,4.8-0.3,4.8-5.4v-30.3h-4.5c-4.8,0-6,3.1-7.6,6.8
			H304l1.4-8.5h29.8l1.4,8.5h-1.4c-1.7-3.7-2.8-6.8-7.6-6.8H323V353.5L323,353.5z"/>
		<path fill="#FFFFFF" d="M336.6,341.6c0-11.9,9.4-21,21-21c12.2,0,19,10.5,19,19c0,11.6-8.8,21.2-21,21.2
			C344.8,361.2,336.6,352.4,336.6,341.6z M370.3,341.3c0-13.3-7.1-18.7-13.9-18.7c-9.4,0-13.3,8.5-13.3,15.9
			c0,13.3,6.8,20.4,14.2,20.4C367.2,359.2,370.3,349,370.3,341.3z"/>
		<path fill="#FFFFFF" d="M412.2,360.3c-8.8-10.5-18.1-21.5-27.2-32v24.6c0,1.1,0.3,2,0.3,3.1c0.3,2,2.3,2.8,6,3.1v1.4h-13.6v-1.4
			c2.5-0.3,4.5-1.1,4.8-3.1c0-0.9,0.3-1.7,0.3-3.1v-26.1c-1.4-2-3.4-3.7-6.5-3.7v-1.7h10.2c8.2,9.9,17,20.4,25.2,30.3l0,0v-23
			c0-1.1-0.3-2-0.3-3.1c-0.3-2-2.3-2.8-6-3.1v-1.1H419v1.4c-2.5,0.3-4.5,1.1-4.8,3.1c0,0.9-0.3,1.7-0.3,3.1v31.5h-1.7V360.3z"/>
		<path fill="#FFFFFF" d="M101.2,314.1L101.2,314.1h-15v2c5.7,0,6.8,2.3,5.1,6.5l-11.3,30.9h-0.6L66,314.7h-3.4l-14.2,38.8h-0.8
			l-10.2-30.9c-1.4-4.8,0.6-6.8,5.1-6.8v-1.7H24.6v2c3.7,0,4.5,2.8,6.8,9.9l13,38.2h3.7l13.6-39.1l13.6,39.1h4
			c6-15.6,14.2-38.5,17-44.8c1.1-2.3,3.1-3.4,5.1-3.4L101.2,314.1L101.2,314.1z"/>
		<path fill="#FFFFFF" d="M141.1,339.6c-5.9-4.2-9.9-6.8-9.9-11s3.1-6,6.5-6c4.8,0,6.8,3.4,7.4,7.4h1.4v-7.6c0-0.3,0-0.6-0.3-0.6
			c-2.3-0.8-5.7-1.1-8.2-1.1c-6.8,0-12.5,4.2-12.5,9.4c0,2.8,0.8,4.8,2,6.5l0,0l0,0c1.4,2,3.4,3.1,5.1,4.2
			c8.8,5.7,10.8,8.8,10.8,12.8c0,3.4-2.6,7.1-7.7,7.4c-5.1,0.3-11.3-2-14.2-9.1c-2.3-6.8-7.1-21-10.5-30.9H108
			c-4.5,12.2-10.8,30.3-13.3,35.1c-0.8,1.7-2.6,2.8-4,2.8v1.4h2.6h7.7v-1.4c-2.6,0-3.4-1.7-2.8-4l2.6-7.4h14.2l2.3,7.1l1.7,5.7
			c0,0,9.9,2.5,16.4,2.5c7.1,0,14.2-4,14.2-10.8C149.3,347,147.3,344.2,141.1,339.6z M101.2,345.3l6.5-18.1l0,0l5.9,18.1H101.2z"/>
	</g>
	<g>
		<path fill="#FFFFFF" d="M457.9,324c-0.6-5.4-3.4-9.4-9.4-9.4c-4.2,0-8.8,2.3-8.8,7.6s5.1,8.5,12.8,13.9c7.9,6,10.5,9.6,10.5,15.9
			c0,8.8-8.5,13.9-17.6,13.9c-4.8,0-8.8-0.9-12.8-2.3c-0.3-0.3-0.6-0.6-0.6-1.1v-10.8h2c0.9,8.2,6.2,11.6,11.9,11.6
			c5.4,0,10.2-4,10.2-9.6c0-4.8-2.5-8.8-13.9-16.1c-4-2.6-9.1-5.7-9.1-13.9c0-6.8,7.1-12.2,15.6-12.2c3.1,0,7.4,0.3,10.5,1.4
			c0.6,0,0.6,0.6,0.6,0.9v9.9C459.9,324,457.9,324,457.9,324z"/>
		<path fill="#FFFFFF" d="M481.7,353.5c0,5.1-0.3,4.8,4.8,5.4v1.4h-15v-1.4c5.1-0.6,4.8-0.3,4.8-5.4v-30.3h-4.5
			c-4.8,0-6,3.1-7.6,6.8h-1.4l1.4-8.5h29.8l1.4,8.5h-1.4c-1.7-3.7-2.8-6.8-7.6-6.8h-4.5V353.5L481.7,353.5z"/>
		<path fill="#FFFFFF" d="M501.2,347.6l-2.5,7.4c-0.9,2.3,0.3,4,2.8,4v1.4h-10.2v-1.4c1.4,0,3.1-0.8,4-2.8c2.3-4.8,8.8-23,13.6-35.4
			h3.1c3.7,11.1,9.4,28.3,11.3,33.1c1.1,3.1,2,4.8,4.5,4.8v1.4h-13v-1.4c3.4,0,4-1.7,2.8-4.2l-2.3-7.1L501.2,347.6L501.2,347.6z
			 M514.5,345.3l-6-18.1l0,0l-6.5,18.1H514.5z"/>
		<path fill="#FFFFFF" d="M542.9,353.5c0,5.1-0.3,4.8,4.8,5.4v1.4h-15v-1.4c5.1-0.6,4.8-0.3,4.8-5.4v-30.3h-4.5
			c-4.8,0-6,3.1-7.6,6.8h-1.4l1.4-8.5H555l1.4,8.5H555c-1.7-3.7-2.8-6.8-7.7-6.8h-4.5V353.5L542.9,353.5z"/>
		<path fill="#FFFFFF" d="M559,358.9c5.1-0.6,4.2-0.3,4.2-5.4v-24.9c0-5.1,0.8-4.8-4.2-5.4v-1.7h24.4v9.1H582
			c-0.6-4-1.7-7.1-5.7-7.1h-7.6v15.9h4.5c3.4,0,5.1-1.4,5.1-4.8h1.4v11.9h-1.4c0-3.4-1.4-5.1-5.1-5.1h-4.5v12.2
			c0,4.8,2.3,5.1,7.1,5.1c7.9,0,7.7-2.3,10.2-8.2h1.4l-1.7,9.9h-26.9L559,358.9L559,358.9z"/>
	</g>
</g>
<g>
	<path fill="#FFFFFF" d="M208.2,458.3h2.8c2,0,2.8-0.9,2.8-2.8h0.9v6.5h-0.9c0-1.7-0.9-2.8-2.8-2.8h-2.8v6.2c0,2.8,0,2.8,2.6,3.1
		v1.1h-8.2v-0.8c2.8-0.3,2.6-0.3,2.6-3.1v-13.9c0-2.8,0-2.8-2.6-3.1v-0.9h13.9v5.1h-0.9c-0.3-2.3-0.9-4-3.1-4h-4.2V458.3z"/>
	<path fill="#FFFFFF" d="M228.6,459.2c0-6.8,5.1-11.6,11.6-11.6c6.8,0,10.5,5.7,10.5,10.5c0,6.5-4.8,11.9-11.6,11.9
		C233.5,470,228.6,465.1,228.6,459.2z M247.4,459.2c0-7.4-4-10.5-7.6-10.5c-5.4,0-7.4,4.8-7.4,8.8c0,7.4,4,11.3,7.9,11.3
		C245.9,468.8,247.4,463.1,247.4,459.2z"/>
	<path fill="#FFFFFF" d="M268.6,460.9c0,4.2,1.1,7.7,5.7,7.7c4.2,0,6.5-2.8,6.5-7.9v-8.5c0-0.6,0-1.1-0.3-1.7
		c-0.3-1.1-1.1-1.4-2.5-1.7v-0.8h7.4v0.8c-1.4,0.3-2.6,0.6-2.6,1.7c0,0.6-0.3,1.1-0.3,1.7v8.8c0,6.5-4.2,9.1-8.2,9.1
		c-6.5,0-8.5-3.4-8.5-9.1v-9.3c0-2.8,0-2.8-2.5-3.1v-0.9h8.2v0.9c-2.8,0.3-2.5,0.3-2.5,3.1v9.3H268.6z"/>
	<path fill="#FFFFFF" d="M316.5,469.7c-4.8-5.9-9.9-11.9-15-17.8v13.6c0,0.6,0,1.1,0.3,1.7c0.3,1.1,1.1,1.4,3.1,1.7v0.9h-7.6v-0.8
		c1.4-0.3,2.5-0.6,2.5-1.7c0-0.6,0.3-1.1,0.3-1.7V451c-0.9-1.1-1.7-2-3.7-2v-0.8h5.7c4.5,5.7,9.4,11.3,13.9,17l0,0v-12.8
		c0-0.6,0-1.1-0.3-1.7c-0.3-1.1-1.1-1.4-3.1-1.7v-0.9h7.6v0.9c-1.4,0.3-2.5,0.6-2.5,1.7c0,0.6-0.3,1.1-0.3,1.7v17.3H316.5z"/>
	<path fill="#FFFFFF" d="M331.8,448.1H342c7.4,0,11.3,4,11.3,10.2s-4.5,11.3-12.2,11.3h-9.4v-0.8c2.8-0.3,2.6-0.3,2.6-3.1v-13.9
		c0-2.8,0-2.8-2.6-3.1L331.8,448.1L331.8,448.1z M337.4,465.1c0,3.4,0.9,3.4,3.7,3.4c4.8,0,8.8-2.6,8.8-10.5c0-6-3.1-9.4-9.1-9.4
		h-3.4L337.4,465.1L337.4,465.1z"/>
	<path fill="#FFFFFF" d="M370.3,462.6l-1.4,4.2c-0.3,1.1,0.3,2.3,1.4,2.3v0.6h-5.7v-0.8c0.9,0,1.7-0.6,2.3-1.4
		c1.4-2.8,4.8-12.8,7.6-19.5h1.7c2,6.2,5.4,15.9,6.2,18.4c0.6,1.7,1.1,2.8,2.5,2.8v0.6H378v-0.8c2,0,2.3-1.1,1.7-2.3l-1.4-4H370.3z
		 M378,461.2l-3.4-10.2l0,0l-3.7,10.2H378z"/>
	<path fill="#FFFFFF" d="M405.2,465.7c0,2.8,0,2.8,2.5,3.1v0.9h-8.2v-0.8c2.8-0.3,2.5-0.3,2.5-3.1V449h-2.8c-2.8,0-3.4,1.7-4.2,3.7
		h-0.9l0.9-4.8h17l0.9,4.8H412c-1.1-2-1.7-3.7-4.2-3.7h-2.8v16.7H405.2z"/>
	<path fill="#FFFFFF" d="M429.8,465.7c0,2.8,0,2.8,2.5,3.1v0.9h-8.2v-0.8c2.8-0.3,2.5-0.3,2.5-3.1v-13.9c0-2.8,0-2.8-2.5-3.1v-0.9
		h8.2v0.9c-2.8,0.3-2.5,0.3-2.5,3.1V465.7z"/>
	<path fill="#FFFFFF" d="M444.8,459.2c0-6.8,5.1-11.6,11.6-11.6c6.8,0,10.5,5.7,10.5,10.5c0,6.5-4.8,11.9-11.6,11.9
		C449.4,470,444.8,465.1,444.8,459.2z M463.5,459.2c0-7.4-4-10.5-7.6-10.5c-5.4,0-7.4,4.8-7.4,8.8c0,7.4,4,11.3,7.9,11.3
		C461.8,468.8,463.5,463.1,463.5,459.2z"/>
	<path fill="#FFFFFF" d="M498.7,469.7c-4.8-5.9-9.9-11.9-15-17.8v13.6c0,0.6,0,1.1,0.3,1.7c0.3,1.1,1.1,1.4,3.1,1.7v0.9h-7.6v-0.8
		c1.4-0.3,2.5-0.6,2.5-1.7c0-0.6,0.3-1.1,0.3-1.7V451c-0.9-1.1-1.7-2-3.7-2v-0.8h5.7c4.5,5.7,9.4,11.3,13.9,17l0,0v-12.8
		c0-0.6,0-1.1-0.3-1.7c-0.3-1.1-1.1-1.4-3.1-1.7v-0.9h7.6v0.9c-1.4,0.3-2.5,0.6-2.5,1.7c0,0.6-0.3,1.1-0.3,1.7v17.3H498.7z"/>
</g>
</svg>
