<?xml version="1.0" encoding="utf-8"?>
<!-- Generator: Adobe Illustrator 18.0.0, SVG Export Plug-In . SVG Version: 6.00 Build 0)  -->
<!DOCTYPE svg PUBLIC "-//W3C//DTD SVG 1.1//EN" "http://www.w3.org/Graphics/SVG/1.1/DTD/svg11.dtd">
<svg version="1.1" id="Layer_2" xmlns="http://www.w3.org/2000/svg" xmlns:xlink="http://www.w3.org/1999/xlink" x="0px" y="0px"
	 viewBox="0 0 150.3 92.3" enable-background="new 0 0 150.3 92.3" xml:space="preserve">
<g>
	<g>
		<g>
			<g>
				<g>
					<path fill="#FFFFFF" d="M39.5,55.4l-0.9,4.1c0,0.7-0.5,0.9-1.4,1.2c-1.2,0.4-3.3,1-5.9,1c-6.2,0-11.8-3.2-11.8-12.1
						c0-5.1,4-11.8,12.1-11.8c2.9,0,4.3,0.6,5.8,1.1c0.9,0.3,1.2,0.8,1.2,1.3v4.2h-0.8c-0.1-2.6-1.6-5.5-6.5-5.5
						c-5.7,0-8.4,4.4-8.4,10.4c0,6.6,2.7,11.2,8.9,11.2c4,0,5.9-2.5,6.9-5.1H39.5z"/>
					<path fill="#FFFFFF" d="M42.4,56l-1,3.1c-0.3,0.9,0.1,1.7,1.1,1.7v0.6h-3.9v-0.6c0.6,0,1.2-0.4,1.5-1.2c0.9-2,3.4-9.6,5.2-14.7
						h1.2c1.4,4.6,3.6,11.7,4.3,13.8c0.5,1.3,0.8,2,1.7,2v0.6h-4.9v-0.6c1.3,0,1.5-0.8,1.1-1.8l-0.9-3H42.4z M47.5,55.1l-2.2-7.5h0
						l-2.5,7.5H47.5z"/>
					<path fill="#FFFFFF" d="M56.2,48.9L56.2,48.9l0,9.3c0,0.5,0.1,0.9,0.1,1.2c0.1,0.8,0.8,1.2,1.8,1.3v0.6h-4.8v-0.6
						c1-0.1,1.7-0.4,1.8-1.3c0-0.4,0.1-0.8,0.1-1.2V47.8c-0.4-1.1-1.5-2-2.5-2v-0.6h4l5.9,12.9l6.1-12.9h3.4v0.6
						c-1.5,0-2.1,0.9-2.1,2.4v10.3c0,2.1-0.1,2,1.8,2.3v0.6h-5.7v-0.6c1.9-0.3,1.8-0.1,1.8-2.3v-9.7h0l-5.8,12.7h-0.3L56.2,48.9z"/>
					<path fill="#FFFFFF" d="M77,58.4c0,2.1-0.1,2,1.8,2.3v0.6h-5.7v-0.6c1.9-0.3,1.8-0.1,1.8-2.3V48.1c0-2.1,0.1-2-1.8-2.3v-0.6
						h5.6c3.5,0,5.3,1.5,5.3,4.3c0,3.3-2.8,5.1-6,4.9v-0.5c2.7,0,3.9-1.7,3.9-4.2c0-2.6-1.1-3.8-3.5-3.8H77V58.4z"/>
					<path fill="#FFFFFF" d="M84.9,56l-1,3.1c-0.3,0.9,0.1,1.7,1.1,1.7v0.6h-3.9v-0.6c0.6,0,1.2-0.4,1.5-1.2c0.9-2,3.4-9.6,5.2-14.7
						H89c1.4,4.6,3.6,11.7,4.3,13.8c0.5,1.3,0.8,2,1.7,2v0.6h-4.9v-0.6c1.3,0,1.5-0.8,1.1-1.8l-0.9-3H84.9z M90,55.1l-2.2-7.5h0
						l-2.5,7.5H90z"/>
					<path fill="#FFFFFF" d="M100,58.4c0,2.1-0.1,2,1.8,2.3v0.6h-5.7v-0.6c1.9-0.3,1.8-0.1,1.8-2.3V48.1c0-2.1,0.1-2-1.8-2.3v-0.6
						h5.7v0.6c-1.9,0.3-1.8,0.1-1.8,2.3V58.4z"/>
					<path fill="#FFFFFF" d="M101.9,53.1c0-3.5,2.8-8.3,8.5-8.3c2.1,0,3,0.4,4.1,0.8c0.6,0.2,0.8,0.5,0.8,0.9v3h-0.6
						c-0.1-1.8-1.1-3.8-4.5-3.8c-4.4,0-5.9,3.3-5.9,7.3c0,3.6,1.7,7.8,6,7.8c2.7,0,2.9-1.1,2.9-2.9v-1.4c0-2.1,0.1-2-2.2-2.3v-0.6
						h6.1v0.6c-1.9,0.3-1.8,0.1-1.8,2.3v4c-1.4,0.6-3.1,1.1-5.1,1.1C105.8,61.6,101.9,59.3,101.9,53.1z"/>
					<path fill="#FFFFFF" d="M129.8,61.3c-3.4-4.3-6.9-8.9-10.3-13.3v10.2c0,0.5,0.1,0.9,0.1,1.2c0.1,0.8,0.8,1.2,2.2,1.3v0.6h-5.2
						v-0.6c1-0.1,1.7-0.4,1.8-1.3c0-0.4,0.1-0.8,0.1-1.2V47.3c-0.6-0.8-1.3-1.6-2.5-1.6v-0.6h3.9c3.2,4.2,6.4,8.4,9.6,12.6h0v-9.5
						c0-0.5-0.1-0.9-0.1-1.2c-0.1-0.8-0.8-1.2-2.2-1.3v-0.6h5.2v0.6c-1,0.1-1.7,0.4-1.8,1.3c0,0.4-0.1,0.8-0.1,1.2v13H129.8z"/>
				</g>
				<g>
					<path fill="#FFFFFF" d="M137.2,59.3l0,0.1l-0.8,0.6c-0.4,0.3-1.3,0.6-2,0.6h0c-0.3,0.3-0.5,0.6-0.9,0.8c-2,1.7-4.1,2.8-6.5,2.8
						c-0.2,0-0.5,0-0.7,0l0-0.1c0.1,0,0.2,0,0.3,0c3,0,5-1.8,6.9-3.7c-0.2-0.2-0.2-0.4-0.2-0.6c0-0.3,0.2-0.6,0.6-0.6
						c0.1,0,0.3,0.1,0.3,0.3l-0.6,0.5c0,0.2,0.1,0.3,0.2,0.4l0.7-0.8c2.6-2.9,4-5.4,7.7-6.3l0,0.1c-4.4,1.3-5.1,4.6-7.5,7.2
						c0.7,0,1.4-0.3,1.8-0.6L137.2,59.3z"/>
					<path fill="#FFFFFF" d="M140.8,57.8c0,0.5-0.7,1.5-1.5,2.4h0.1c0.3,0,0.9-0.2,1.3-0.5l0.5-0.3l0,0.1l-0.4,0.3
						c-0.2,0.2-0.9,0.6-1.4,0.6c-0.1,0-0.2,0-0.2,0c-0.7,0.7-1.5,1.2-2,1.2c-0.5,0-0.7-0.3-0.7-0.6c0-1.1,1.9-3.4,3.9-3.4
						C140.7,57.5,140.8,57.6,140.8,57.8z M139,60.2c-0.1-0.1-0.1-0.2-0.1-0.3c0-0.5,0.6-0.7,1-0.7c0.4-0.5,0.7-1,0.7-1.3
						c0-0.1-0.1-0.2-0.2-0.2c-0.8,0-3.6,2.7-3.6,3.5c0,0.2,0.1,0.2,0.3,0.2C137.6,61.3,138.4,60.8,139,60.2z"/>
					<path fill="#FFFFFF" d="M145.1,59.4c-1.5,1.1-2.8,2.1-3.4,2.1c-0.2,0-0.4-0.2-0.4-0.6c0-1.2,2.9-3,2.9-3.6c0-0.1,0-0.3-0.1-0.5
						c-0.3,0.3-1,1.2-3,2.6l-0.1-0.1c2.1-1.5,2.9-2.3,3.1-2.7v-0.2c0-0.5,0.3-0.8,0.6-0.8c0.1,0,0.2,0.1,0.2,0.2
						c0,0.3-0.4,0.5-0.6,0.6c-0.1,0-0.1,0.1-0.1,0.2c0,0.4,0.1,0.8,0.1,1.1c0,1.2-2.7,2.5-2.7,3.3c0,0.1,0.1,0.2,0.2,0.2
						c0.4,0,1.6-0.9,3.2-2.1L145.1,59.4z"/>
				</g>
				<g>
					<path fill="#FFFFFF" d="M17.9,53c0,0.9-1.8,3.1-4.3,3.1c-0.2,0-0.3,0-0.5,0c-1.2,1.3-2.2,2.6-2.8,3.5c0,0.1-0.1,0.1-0.1,0.2
						c1.2-0.8,3.1-2.2,3.8-2.2c0.2,0,0.3,0.1,0.3,0.3c0,1.2-2.6,2.8-2.6,3.3c0,0.1,0.1,0.2,0.2,0.2c0.4,0,1.6-0.9,3.2-2.1l0,0.1
						c-1.5,1.1-2.8,2.1-3.4,2.1c-0.2,0-0.4-0.2-0.4-0.6c0-0.8,2.7-2.8,2.7-3.2c0,0,0,0-0.1,0c-0.6,0-2.9,1.6-4,2.5
						c-0.6,0.6-1.5,1.2-2.1,1.2c0,0-0.1,0-0.1,0c0,0,0,0,0-0.1C8.1,61,8.6,60.5,9.1,60c-0.5,0.4-0.9,0.7-1.3,0.9
						c-0.4,0.2-0.8,0.5-1.1,0.5c-0.2,0-0.4-0.1-0.4-0.4c0-0.5,0.6-1.4,0.9-1.8c1.3-1.4,2.7-2.6,3.8-3.7c-1.1-0.4-2.2-0.8-3.5-0.8
						c-0.8,0-1.7,0.2-2.6,0.6l-0.1-0.1c1-0.4,1.8-0.6,2.7-0.6c1.4,0,2.6,0.4,3.7,0.8c0.4-0.4,0.7-0.7,1-1.1c0.5,0,1.2-0.1,1.2-0.1
						l0,0.1c-0.4,0.3-0.9,0.8-1.5,1.3c0.2,0.1,0.4,0.1,0.7,0.2c0.2,0.1,0.3,0.1,0.5,0.1c1.8-1.8,3.5-3.3,4.4-3.3
						C17.7,52.6,17.9,52.8,17.9,53z M6.6,61c0,0.2,0.1,0.2,0.2,0.2c0.3,0,0.8-0.3,1-0.4c0.5-0.3,1.1-0.8,1.8-1.3
						c1-1,2.1-2.3,3.2-3.4c-0.1,0-0.2-0.1-0.4-0.1c-0.3-0.1-0.5-0.2-0.8-0.2c-1.4,1.2-3,2.8-4.2,4C7.2,60,6.6,60.7,6.6,61z M13.5,56
						c2.4,0,3.9-2.4,3.9-3c0-0.1,0-0.2-0.1-0.2c-0.9,0-2.5,1.5-4,3.2H13.5z"/>
					<path fill="#FFFFFF" d="M18.8,59.3l0,0.1c-0.9,0.7-1.8,1.3-2.4,1.7c-0.4,0.2-1,0.4-1.4,0.4c-0.5,0-0.8-0.2-0.8-0.7
						c0-1,1.7-3.3,4-3.3c0.2,0,0.3,0.1,0.3,0.2c0,0.4-1.1,1.3-2.6,1.5c-0.6,0.7-1.1,1.4-1.1,1.7c0,0.3,0.2,0.4,0.5,0.4
						c0.4,0,0.9-0.2,1.2-0.4C17,60.7,17.8,60,18.8,59.3z M18.2,57.7c-0.5,0-1.4,0.7-2.2,1.5c1.2-0.2,2.4-1.1,2.4-1.4
						C18.4,57.7,18.3,57.7,18.2,57.7z"/>
				</g>
			</g>
			<g>
				<g>
					<path fill="#FFFFFF" d="M4.2,67.9c-1,0-1.4,0.4-1.1,1.6l1.9,7.3h0l3.2-9.2H9l3.2,9.1h0c0.7-2.4,1.4-4.8,2.1-7.2
						c0.3-1.1,0-1.6-1.3-1.6v-0.4h3.5v0.4c-0.5,0-1.1,0.4-1.4,1.3l-3,10.1h-0.7l-3.2-9.2L5,79.3H4.3l-2.4-9.1
						c-0.5-1.7-1-2.4-1.8-2.4v-0.4h4.2V67.9z"/>
					<path fill="#FFFFFF" d="M16,75.4l-0.7,2.3c-0.2,0.7,0.1,1.2,0.8,1.2v0.4h-2.9v-0.4c0.4,0,0.9-0.3,1.2-0.8
						c0.7-1.5,2.6-7,3.9-10.8h0.9c1.1,3.4,2.7,8.6,3.3,10.1c0.4,1,0.6,1.5,1.3,1.5v0.4H20v-0.4c1,0,1.1-0.6,0.9-1.3l-0.7-2.2H16z
						 M19.9,74.8l-1.7-5.5h0l-1.9,5.5H19.9z"/>
					<path fill="#FFFFFF" d="M29.4,70c-0.1-1.2-0.7-2.1-2-2.1c-0.9,0-1.8,0.5-1.8,1.8c0,1.2,1.1,1.9,2.7,3.2
						c1.7,1.3,2.3,2.2,2.3,3.6c0,2-2,3.1-3.9,3.1c-1,0-1.9-0.2-2.8-0.5c-0.1,0-0.1-0.1-0.1-0.2v-2.4h0.4c0.2,1.9,1.4,2.6,2.6,2.6
						c1.1,0,2.1-0.9,2.1-2.2c0-1.1-0.6-2-3-3.7C25.1,72.5,24,71.8,24,70c0-1.5,1.6-2.7,3.5-2.7c0.7,0,1.6,0.1,2.3,0.3
						c0.1,0,0.1,0.1,0.1,0.2V70H29.4z"/>
					<path fill="#FFFFFF" d="M33.4,77.2c0,1.6-0.1,1.5,1.4,1.7v0.4h-4.3v-0.4c1.4-0.2,1.4-0.1,1.4-1.7v-7.6c0-1.6,0.1-1.5-1.4-1.7
						v-0.4h4.3v0.4c-1.5,0.2-1.4,0.1-1.4,1.7v2.9h5.7v-2.9c0-1.6,0.1-1.5-1.4-1.7v-0.4H42v0.4c-1.5,0.2-1.4,0.1-1.4,1.7v7.6
						c0,1.6-0.1,1.5,1.4,1.7v0.4h-4.3v-0.4c1.5-0.2,1.4-0.1,1.4-1.7v-4h-5.7V77.2z"/>
					<path fill="#FFFFFF" d="M45.7,77.2c0,1.6-0.1,1.5,1.4,1.7v0.4h-4.3v-0.4c1.5-0.2,1.4-0.1,1.4-1.7v-7.6c0-1.6,0.1-1.5-1.4-1.7
						v-0.4h4.3v0.4c-1.5,0.2-1.4,0.1-1.4,1.7V77.2z"/>
					<path fill="#FFFFFF" d="M58.1,79.3c-2.6-3.2-5.2-6.5-7.9-9.8v7.5c0,0.4,0.1,0.6,0.1,0.9c0.1,0.6,0.6,0.8,1.7,0.9v0.4h-4v-0.4
						c0.8-0.1,1.3-0.3,1.4-0.9c0-0.3,0.1-0.6,0.1-0.9v-8c-0.5-0.6-0.9-1.2-1.9-1.2v-0.4h2.9c2.4,3.1,4.9,6.2,7.3,9.3h0v-7
						c0-0.4-0.1-0.6-0.1-0.9c-0.1-0.6-0.6-0.8-1.7-0.9v-0.4h3.9v0.4c-0.8,0.1-1.3,0.3-1.4,0.9c0,0.3-0.1,0.6-0.1,0.9v9.6H58.1z"/>
					<path fill="#FFFFFF" d="M59.7,73.3c0-2.6,2.1-6.1,6.4-6.1c1.6,0,2.3,0.3,3.1,0.6c0.5,0.2,0.6,0.4,0.6,0.7v2.2h-0.4
						c0-1.4-0.9-2.8-3.4-2.8c-3.4,0-4.5,2.4-4.5,5.3c0,2.7,1.3,5.8,4.5,5.8c2,0,2.2-0.8,2.2-2.1v-1c0-1.6,0.1-1.5-1.7-1.7v-0.4h4.7
						v0.4c-1.4,0.2-1.4,0.1-1.4,1.7v3c-1,0.4-2.4,0.8-3.9,0.8C62.7,79.5,59.7,77.9,59.7,73.3z"/>
					<path fill="#FFFFFF" d="M76.4,77.2c0,1.6-0.1,1.5,1.4,1.7v0.4h-4.3v-0.4c1.5-0.2,1.4-0.1,1.4-1.7V68h-1.4
						c-1.4,0-1.7,0.9-2.3,2.1h-0.4l0.4-2.6h8.9l0.4,2.6h-0.4c-0.5-1.1-0.9-2.1-2.3-2.1h-1.5V77.2z"/>
					<path fill="#FFFFFF" d="M80.4,73.6c0-3.7,2.7-6.4,6.1-6.4c3.5,0,5.5,3.2,5.5,5.8c0,3.6-2.5,6.5-6.1,6.5
						C82.8,79.5,80.4,76.9,80.4,73.6z M90.1,73.6c0-4.1-2.1-5.7-4-5.7c-2.7,0-3.9,2.6-3.9,4.9c0,4.1,2,6.2,4.1,6.2
						C89.3,79,90.1,75.8,90.1,73.6z"/>
					<path fill="#FFFFFF" d="M101.9,79.3c-2.6-3.2-5.2-6.5-7.9-9.8v7.5c0,0.4,0.1,0.6,0.1,0.9c0.1,0.6,0.6,0.8,1.7,0.9v0.4h-3.9
						v-0.4c0.8-0.1,1.3-0.3,1.4-0.9c0-0.3,0.1-0.6,0.1-0.9v-8c-0.5-0.6-1-1.2-1.9-1.2v-0.4h2.9c2.4,3.1,4.9,6.2,7.3,9.3h0v-7
						c0-0.4-0.1-0.6-0.1-0.9c-0.1-0.6-0.6-0.8-1.7-0.9v-0.4h3.9v0.4c-0.8,0.1-1.3,0.3-1.4,0.9c0,0.3-0.1,0.6-0.1,0.9v9.6H101.9z"/>
					<path fill="#FFFFFF" d="M114.4,70c-0.1-1.2-0.7-2.1-2-2.1c-0.9,0-1.8,0.5-1.8,1.8c0,1.2,1.1,1.9,2.7,3.2
						c1.7,1.3,2.3,2.2,2.3,3.6c0,2-2,3.1-3.9,3.1c-1,0-1.9-0.2-2.8-0.5c-0.1,0-0.1-0.1-0.1-0.2v-2.4h0.4c0.2,1.9,1.4,2.6,2.6,2.6
						c1.1,0,2.1-0.9,2.1-2.2c0-1.1-0.6-2-3-3.7c-0.9-0.6-2-1.3-2-3.1c0-1.5,1.6-2.7,3.5-2.7c0.7,0,1.6,0.1,2.3,0.3
						c0.1,0,0.1,0.1,0.1,0.2V70H114.4z"/>
					<path fill="#FFFFFF" d="M120.9,77.2c0,1.6-0.1,1.5,1.4,1.7v0.4H118v-0.4c1.5-0.2,1.4-0.1,1.4-1.7V68h-1.5
						c-1.4,0-1.7,0.9-2.3,2.1h-0.4l0.4-2.6h8.9l0.4,2.6h-0.4c-0.5-1.1-0.9-2.1-2.3-2.1h-1.4V77.2z"/>
					<path fill="#FFFFFF" d="M125.9,75.4l-0.7,2.3c-0.2,0.7,0.1,1.2,0.8,1.2v0.4H123v-0.4c0.4,0,0.9-0.3,1.2-0.8
						c0.7-1.5,2.6-7,3.9-10.8h0.9c1.1,3.4,2.7,8.6,3.3,10.1c0.4,1,0.6,1.5,1.3,1.5v0.4h-3.8v-0.4c1,0,1.1-0.6,0.9-1.3l-0.7-2.2
						H125.9z M129.8,74.8l-1.7-5.5h0l-1.9,5.5H129.8z"/>
					<path fill="#FFFFFF" d="M137.2,77.2c0,1.6-0.1,1.5,1.4,1.7v0.4h-4.3v-0.4c1.5-0.2,1.4-0.1,1.4-1.7V68h-1.5
						c-1.4,0-1.7,0.9-2.3,2.1h-0.4l0.4-2.6h8.9l0.4,2.6h-0.4c-0.5-1.1-0.9-2.1-2.3-2.1h-1.4V77.2z"/>
					<path fill="#FFFFFF" d="M141.4,78.9c1.4-0.2,1.4-0.1,1.4-1.7v-7.6c0-1.6,0.1-1.5-1.4-1.7v-0.4h7.2v2.7h-0.4
						c-0.2-1.3-0.5-2.2-1.6-2.2h-2.2v4.9h1.4c1,0,1.5-0.4,1.5-1.5h0.4V75h-0.4c0-1-0.4-1.6-1.5-1.6h-1.4v3.8c0,1.4,0.6,1.6,2.1,1.6
						c2.3,0,2.2-0.7,3-2.5h0.4l-0.5,3.1h-7.9V78.9z"/>
				</g>
				<g>
					<path fill="#FFFFFF" d="M28.1,88.4c0,1.4,0.4,2.4,1.7,2.4c1.3,0,1.9-0.9,1.9-2.5v-2.7c0-0.2,0-0.4-0.1-0.5
						c0-0.4-0.4-0.5-0.8-0.5v-0.3h2.2v0.3c-0.4,0-0.8,0.2-0.8,0.5c0,0.2-0.1,0.3-0.1,0.5v2.8c0,2.1-1.3,2.9-2.5,2.9
						c-2,0-2.6-1.1-2.6-2.8v-2.9c0-0.9,0-0.9-0.8-1v-0.3h2.5v0.3c-0.8,0.1-0.8,0.1-0.8,1V88.4z"/>
					<path fill="#FFFFFF" d="M44.2,91.2c-1.5-1.8-3-3.8-4.5-5.6v4.3c0,0.2,0,0.4,0.1,0.5c0,0.4,0.4,0.5,1,0.5v0.3h-2.3v-0.3
						c0.4,0,0.8-0.2,0.8-0.5c0-0.2,0.1-0.3,0.1-0.5v-4.6c-0.3-0.4-0.5-0.7-1.1-0.7v-0.3h1.7c1.4,1.8,2.8,3.6,4.2,5.3h0v-4
						c0-0.2,0-0.4-0.1-0.5c0-0.4-0.4-0.5-1-0.5v-0.3h2.3v0.3c-0.4,0-0.8,0.2-0.8,0.5c0,0.2-0.1,0.3-0.1,0.5v5.5H44.2z"/>
					<path fill="#FFFFFF" d="M52.2,89.9c0,0.9,0,0.9,0.8,1v0.3h-2.5v-0.3c0.8-0.1,0.8-0.1,0.8-1v-4.4c0-0.9,0-0.9-0.8-1v-0.3H53v0.3
						c-0.8,0.1-0.8,0.1-0.8,1V89.9z"/>
					<path fill="#FFFFFF" d="M60.7,84.6c-0.5,0-0.9,0.2-0.6,1.1c0.4,1.2,0.9,2.8,1.4,4.3c0.6-1.5,1.2-3,1.7-4.5
						c0.2-0.6,0-0.9-0.6-0.9v-0.3h2v0.3c-0.3,0-0.6,0.1-0.8,0.6c-0.8,2-1.6,4-2.4,6H61c-0.6-1.7-1.2-3.6-1.8-5.2
						c-0.3-1-0.6-1.3-1.1-1.3v-0.3h2.5V84.6z"/>
					<path fill="#FFFFFF" d="M69.3,90.9c0.8-0.1,0.8-0.1,0.8-1v-4.4c0-0.9,0-0.9-0.8-1v-0.3h4.2v1.6h-0.2c-0.1-0.7-0.3-1.3-0.9-1.3
						H71v2.8h0.8c0.6,0,0.8-0.2,0.9-0.8h0.2v2.1h-0.2c0-0.6-0.2-0.9-0.9-0.9H71V90c0,0.8,0.4,0.9,1.2,0.9c1.3,0,1.3-0.4,1.7-1.4h0.2
						l-0.3,1.8h-4.6V90.9z"/>
					<path fill="#FFFFFF" d="M79.3,84.3H82c0.9,0,1.9,0.5,1.9,1.7c0,1-0.6,1.7-1.3,2l0.9,1.5c0.5,0.7,1,1.4,1.3,1.6v0.1h-1
						c-0.6,0-0.8-1.1-2-3H81v1.8c0,0.9,0,0.9,0.8,1v0.3h-2.5v-0.3c0.8-0.1,0.8-0.1,0.8-1v-4.4c0-0.9,0-0.9-0.8-1V84.3z M81,87.8h0.8
						c0.8,0,1.2-0.6,1.2-1.8c0-1.1-0.6-1.4-1.2-1.4H81V87.8z"/>
					<path fill="#FFFFFF" d="M93,85.8c-0.1-0.7-0.4-1.2-1.2-1.2c-0.5,0-1,0.3-1,1c0,0.7,0.7,1.1,1.6,1.8c1,0.8,1.3,1.3,1.3,2.1
						c0,1.2-1.1,1.8-2.2,1.8c-0.6,0-1.1-0.1-1.6-0.3c0,0-0.1-0.1-0.1-0.1v-1.4H90c0.1,1.1,0.8,1.5,1.5,1.5c0.7,0,1.2-0.5,1.2-1.2
						c0-0.6-0.3-1.2-1.7-2.1c-0.5-0.3-1.1-0.7-1.1-1.8c0-0.9,0.9-1.6,2-1.6c0.4,0,0.9,0.1,1.3,0.2c0.1,0,0.1,0.1,0.1,0.1v1.3H93z"/>
					<path fill="#FFFFFF" d="M100.8,89.9c0,0.9,0,0.9,0.8,1v0.3h-2.5v-0.3c0.8-0.1,0.8-0.1,0.8-1v-4.4c0-0.9,0-0.9-0.8-1v-0.3h2.5
						v0.3c-0.8,0.1-0.8,0.1-0.8,1V89.9z"/>
					<path fill="#FFFFFF" d="M109.7,89.9c0,0.9,0,0.9,0.8,1v0.3H108v-0.3c0.8-0.1,0.8-0.1,0.8-1v-5.3h-0.8c-0.8,0-1,0.5-1.3,1.2
						h-0.2l0.3-1.5h5.1l0.3,1.5h-0.2c-0.3-0.6-0.5-1.2-1.3-1.2h-0.8V89.9z"/>
					<path fill="#FFFFFF" d="M118.3,90.9c0.8-0.1,0.8-0.1,0.8-1v-1.5l-1.4-3c-0.3-0.6-0.6-0.9-1-0.9v-0.3h2.4v0.3
						c-0.7,0-0.6,0.4-0.4,0.9l1.1,2.5l1.3-2.5c0.3-0.6,0-0.9-0.5-0.9v-0.3h1.9v0.3c-0.3,0-0.5,0.1-0.8,0.6l-1.6,3
						c-0.1,0.2-0.1,0.5-0.1,0.7v1.1c0,0.9,0,0.9,0.8,1v0.3h-2.5V90.9z"/>
				</g>
			</g>
		</g>
	</g>
	<g>
		<rect x="62.5" y="0" fill="#981E33" width="24.6" height="24.7"/>
		<g>
			<g>
				<g>
					<path fill="#FFFFFF" d="M77.9,19.8c0,0,0.1-0.8-0.3-1.6c-0.4,1.3-1.3,1.7-1.3,1.7S77.5,19.9,77.9,19.8z"/>
				</g>
				<path fill="#FFFFFF" d="M80.7,12.2c0,0,0.5,2.7-1.2,2.8c-1.7,0.1-2.5-2.4-2.5-2.4s0.4,4.9,2.8,4.6
					C82.4,16.8,80.7,12.2,80.7,12.2z"/>
				<path fill="#FFFFFF" d="M67.9,19.2L67.9,19.2c2-0.5,3.5-2.7,3.9-3.7l0.3-0.6l0.2,0.6c0,0,0.2,0.7,0.2,1.6c0,0.1,0,0.2,0,0.3
					c0.7,0,1.2-0.1,1.5-0.4c0.4-0.4,0.6-1.3,0.4-2.6c-0.1-0.6-0.3-1.6-0.5-2.5c-0.1-0.4-0.2-0.9-0.3-1.2c-0.4-1.9,0.1-3.1,0.6-3.7
					c0.1-0.1,0.1-0.2,0.2-0.3C73,7.3,71.8,8,70.7,9.2l0.8,1l0.3-0.3c0.3,1.2,0.1,2.3,0.1,2.3c-0.4-0.7-0.9-1.2-0.9-1.2l0.2-0.4
					l-0.8-0.9l-0.1-0.1c-0.9,1.3-1.2,2.3-1.2,2.3l0.7,0.6l0.4,0.3l0.1-0.4c0.7,1.3,0.1,2.5,0.1,2.5c-0.1-0.4-0.6-1.1-0.6-1.1
					l0.2-0.6l-1-0.9c-1,3.1-2.3,4.2-2.3,4.2s1.5-0.3,2.3-0.5C68.9,16,68.9,17.7,67.9,19.2z"/>
			</g>
			<g>
				<path fill="#FFFFFF" d="M82.6,7.6l-2.4-0.1c0,0,0-0.1,0-0.1L82.5,7l0-0.3L80.1,7c0,0,0-0.1,0-0.1L82.2,6l-0.1-0.2l-2.2,0.7
					c-0.1-0.2-0.3-0.4-0.4-0.4c-0.8,0.1-1.6,0.1-2.3,0.2l0.4-2.1h-0.2l-0.7,2.2c-0.1,0-0.3,0-0.4,0.1l0.5-2.3h-0.2l-0.8,2.4l0,0
					c-0.5,0.2-0.9,0.5-1.2,0.9C74.1,8,73.7,9.1,74,10.8c0.1,0.3,0.2,0.7,0.3,1.1c0.2,0.9,0.4,1.9,0.5,2.5c0.2,1.5,0,2.4-0.5,3
					c-0.4,0.5-1.1,0.6-2.1,0.6l-0.2,0l0-0.2c0-0.2,0-0.3,0-0.5c0-0.3,0-0.6-0.1-0.9c-0.5,0.9-1.5,2.1-2.7,2.8c2.1,0.1,4.1,0.4,5,0.5
					c0.1,0,0.2,0,0.3,0c0,0,0.1,0,0.1,0c0,0,0,0,0,0c0.2,0,0.4,0,0.6,0c0,0,0,0,0,0c0,0,0.1,0,0.1,0c1.2-0.2,2.2-1.1,1.9-3
					c-0.3-2.4-0.7-3.9-0.8-5c-0.1-1.4,1.1-3.5,3.2-2.6c0,0,0.3,0.3,0.7,1.1c0,0,0.2-0.5-0.1-1.5c0.1-0.3,0.1-0.5,0.1-0.8l2.3-0.1
					V7.6z"/>
				<path fill="#981E33" d="M75.1,9.8c0,0-0.1-0.9,0.6-1.4C76.2,8,77.5,7.9,78,8.2c0.2,0.1,0,0.2-0.1,0.1c-0.7-0.1-1.5,0.2-2,0.5
					C75.5,9.2,75.3,9.5,75.1,9.8z"/>
			</g>
		</g>
	</g>
</g>
</svg>
