<?xml version="1.0" encoding="utf-8"?>
<!-- Generator: Adobe Illustrator 18.0.0, SVG Export Plug-In . SVG Version: 6.00 Build 0)  -->
<!DOCTYPE svg PUBLIC "-//W3C//DTD SVG 1.1//EN" "http://www.w3.org/Graphics/SVG/1.1/DTD/svg11.dtd">
<svg version="1.1" id="Layer_2" xmlns="http://www.w3.org/2000/svg" xmlns:xlink="http://www.w3.org/1999/xlink" x="0px" y="0px"
	 viewBox="-6 0 400 30" enable-background="new -6 0 400 30" xml:space="preserve">
<g>
	<g>
		<rect x="-6" y="0" fill="#A90533" width="29.7" height="29.7"/>
		<g>
			<g>
				<g>
					<path fill="#FFFFFF" d="M12.6,23.7c0,0,0.1-1-0.3-2c-0.5,1.6-1.5,2-1.5,2S12.2,23.8,12.6,23.7z"/>
				</g>
				<path fill="#FFFFFF" d="M16,14.6c0,0,0.6,3.2-1.5,3.3c-2,0.1-3-2.9-3-2.9s0.5,5.9,3.3,5.5C18,20.1,16,14.6,16,14.6z"/>
				<path fill="#FFFFFF" d="M0.7,23C0.7,23,0.7,23,0.7,23c2.4-0.5,4.2-3.3,4.7-4.4l0.3-0.7l0.2,0.7c0,0,0.2,0.9,0.2,1.9
					c0,0.1,0,0.2,0,0.4c0.8,0,1.4-0.1,1.8-0.5c0.5-0.5,0.7-1.5,0.5-3.1c-0.1-0.7-0.4-1.9-0.6-3c-0.1-0.5-0.2-1-0.3-1.4
					C7,10.8,7.5,9.4,8.1,8.6c0.1-0.1,0.2-0.2,0.3-0.4C6.7,8.8,5.4,9.6,4,11l1,1.1l0.4-0.4c0.4,1.4,0.1,2.7,0.1,2.7
					c-0.5-0.8-1.1-1.4-1.1-1.4l0.3-0.5l-0.9-1l-0.1-0.1c-1.1,1.5-1.4,2.7-1.4,2.7l0.8,0.7l0.5,0.4l0.1-0.4c0.8,1.6,0.1,3,0.1,3
					c-0.1-0.5-0.7-1.3-0.7-1.3l0.2-0.7l-1.2-1c-1.2,3.8-2.8,5-2.8,5s1.7-0.3,2.7-0.6C1.9,19.2,1.9,21.2,0.7,23z"/>
			</g>
			<g>
				<path fill="#FFFFFF" d="M18.2,9.1L15.4,9c0-0.1,0-0.1,0-0.2l2.7-0.5L18,8l-2.8,0.3c0-0.1,0-0.1-0.1-0.2l2.5-1l-0.1-0.3L15,7.8
					c-0.2-0.3-0.3-0.5-0.5-0.5c-1,0.1-1.9,0.1-2.8,0.3L12.2,5h-0.3l-0.8,2.6c-0.2,0-0.3,0-0.5,0.1l0.6-2.8H11l-0.9,2.9c0,0,0,0,0,0
					C9.5,8,8.9,8.4,8.5,8.9c-0.5,0.7-1,1.9-0.6,4c0.1,0.3,0.2,0.8,0.3,1.4c0.2,1,0.5,2.2,0.6,3c0.2,1.8,0,2.9-0.6,3.6
					c-0.5,0.5-1.3,0.8-2.5,0.7l-0.3,0l0-0.3c0-0.2,0-0.4,0-0.6c0-0.4,0-0.8-0.1-1c-0.6,1-1.8,2.5-3.3,3.4c2.5,0.1,4.9,0.5,6,0.7
					c0.1,0,0.2,0,0.3,0c0,0,0.1,0,0.1,0c0,0,0,0,0,0c0.2,0,0.5,0,0.7,0c0,0,0,0,0,0c0,0,0.1,0,0.1,0c1.4-0.2,2.6-1.3,2.3-3.6
					c-0.4-2.8-0.9-4.6-1-6c-0.2-1.6,1.3-4.2,3.8-3.1c0,0,0.4,0.3,0.8,1.4c0,0,0.2-0.6-0.1-1.7c0.1-0.3,0.1-0.6,0.1-1l2.8-0.1V9.1z"
					/>
				<path fill="#A90533" d="M9.3,11.7c0,0-0.2-1.1,0.7-1.7c0.5-0.4,2.1-0.5,2.8-0.1c0.2,0.1,0,0.2-0.2,0.2c-0.9-0.1-1.9,0.2-2.4,0.6
					C9.7,11,9.5,11.4,9.3,11.7z"/>
			</g>
		</g>
	</g>
</g>
<g>
	<g>
		<path fill="#68737A" d="M58,18.5l-0.4,1.8c0,0.3-0.3,0.4-0.7,0.5c-0.6,0.2-1.6,0.4-2.9,0.4c-3,0-5.8-1.4-5.8-5.4
			c0-2.3,1.9-5.3,5.9-5.3c1.4,0,2.1,0.3,2.8,0.5c0.4,0.1,0.6,0.3,0.6,0.6v1.9h-0.4c0-1.2-0.8-2.5-3.1-2.5c-2.8,0-4.1,2-4.1,4.7
			c0,2.9,1.3,5,4.3,5c2,0,2.9-1.1,3.4-2.3H58z"/>
		<path fill="#68737A" d="M61.3,17.8l-0.7,2c-0.2,0.6,0.1,1.1,0.7,1.1v0.4h-2.7v-0.4c0.4,0,0.8-0.3,1.1-0.7c0.6-1.3,2.4-6.1,3.6-9.4
			h0.8c1,3,2.5,7.5,3,8.8c0.3,0.8,0.6,1.3,1.2,1.3v0.4h-3.4v-0.4c0.9,0,1-0.5,0.8-1.1L65,17.8H61.3z M64.9,17.2l-1.6-4.8h0l-1.8,4.8
			H64.9z"/>
		<path fill="#68737A" d="M71.2,13.2L71.2,13.2l0,6c0,0.3,0,0.6,0.1,0.8c0.1,0.5,0.6,0.7,1.3,0.8v0.4h-3.3v-0.4
			c0.7-0.1,1.2-0.3,1.3-0.8c0-0.2,0.1-0.5,0.1-0.8v-6.7c-0.3-0.7-1-1.3-1.7-1.3v-0.4h2.8l4.1,8.3l4.3-8.3h2.4v0.4
			c-1.1,0-1.5,0.6-1.5,1.5v6.6c0,1.4-0.1,1.3,1.3,1.5v0.4h-4v-0.4c1.3-0.2,1.3-0.1,1.3-1.5v-6.2h0l-4,8.1h-0.2L71.2,13.2z"/>
		<path fill="#68737A" d="M86.1,19.3c0,1.4-0.1,1.3,1.3,1.5v0.4h-4v-0.4c1.3-0.2,1.3-0.1,1.3-1.5v-6.6c0-1.4,0.1-1.3-1.3-1.5v-0.4
			h3.9c2.5,0,3.7,1,3.7,2.7c0,2.1-1.9,3.3-4.2,3.1v-0.3c1.8,0,2.7-1.1,2.7-2.7c0-1.7-0.8-2.4-2.5-2.4h-0.9V19.3z"/>
		<path fill="#68737A" d="M93.3,17.8l-0.7,2c-0.2,0.6,0.1,1.1,0.7,1.1v0.4h-2.7v-0.4c0.4,0,0.8-0.3,1.1-0.7c0.6-1.3,2.4-6.1,3.6-9.4
			h0.8c1,3,2.5,7.5,3,8.8c0.3,0.8,0.6,1.3,1.2,1.3v0.4h-3.4v-0.4c0.9,0,1-0.5,0.8-1.1l-0.6-1.9H93.3z M96.9,17.2l-1.6-4.8h0
			l-1.8,4.8H96.9z"/>
		<path fill="#68737A" d="M103.8,19.3c0,1.4-0.1,1.3,1.3,1.5v0.4h-4v-0.4c1.3-0.2,1.3-0.1,1.3-1.5v-6.6c0-1.4,0.1-1.3-1.3-1.5v-0.4
			h4v0.4c-1.3,0.2-1.3,0.1-1.3,1.5V19.3z"/>
		<path fill="#68737A" d="M106.4,16c0-2.3,1.9-5.3,5.9-5.3c1.4,0,2.1,0.3,2.8,0.5c0.4,0.1,0.6,0.3,0.6,0.6v1.9h-0.4
			c0-1.2-0.8-2.5-3.1-2.5c-3.1,0-4.1,2.1-4.1,4.7c0,2.3,1.2,5,4.2,5c1.8,0,2-0.7,2-1.8v-0.9c0-1.4,0.1-1.3-1.6-1.5v-0.4h4.3v0.4
			c-1.3,0.2-1.3,0.1-1.3,1.5v2.6c-0.9,0.4-2.2,0.7-3.5,0.7C109.1,21.4,106.4,19.9,106.4,16z"/>
		<path fill="#68737A" d="M127.1,21.2c-2.3-2.8-4.8-5.7-7.2-8.5v6.5c0,0.3,0.1,0.6,0.1,0.8c0.1,0.5,0.6,0.7,1.6,0.8v0.4H118v-0.4
			c0.7-0.1,1.2-0.3,1.3-0.8c0-0.2,0.1-0.5,0.1-0.8v-7c-0.4-0.5-0.9-1-1.7-1v-0.4h2.7c2.2,2.7,4.5,5.4,6.7,8.1h0v-6.1
			c0-0.3-0.1-0.6-0.1-0.8c-0.1-0.5-0.6-0.7-1.6-0.8v-0.4h3.6v0.4c-0.7,0.1-1.2,0.3-1.3,0.8c0,0.2-0.1,0.5-0.1,0.8v8.3H127.1z"/>
		<path fill="#68737A" d="M153.3,11.2c-0.9,0-1.3,0.4-1,1.4l1.8,6.3h0l3-8h0.6l2.9,7.9h0c0.7-2.1,1.3-4.2,1.9-6.3
			c0.3-0.9,0-1.4-1.2-1.4v-0.4h3.2v0.4c-0.4,0-1,0.3-1.3,1.2l-2.7,8.8h-0.7l-3-8l-3,8h-0.6l-2.2-7.9c-0.4-1.4-0.9-2.1-1.7-2.1v-0.4
			h3.9V11.2z"/>
		<path fill="#68737A" d="M166.2,17.8l-0.7,2c-0.2,0.6,0.1,1.1,0.7,1.1v0.4h-2.7v-0.4c0.4,0,0.8-0.3,1.1-0.7
			c0.6-1.3,2.4-6.1,3.6-9.4h0.8c1,3,2.5,7.5,3,8.8c0.3,0.8,0.6,1.3,1.2,1.3v0.4h-3.4v-0.4c0.9,0,1-0.5,0.8-1.1l-0.6-1.9H166.2z
			 M169.8,17.2l-1.6-4.8h0l-1.8,4.8H169.8z"/>
		<path fill="#68737A" d="M179.2,13c-0.1-1-0.7-1.9-1.9-1.9c-0.9,0-1.6,0.4-1.6,1.5c0,1,1,1.7,2.5,2.8c1.6,1.2,2.1,1.9,2.1,3.1
			c0,1.8-1.8,2.7-3.6,2.7c-0.9,0-1.8-0.2-2.5-0.5c-0.1,0-0.1-0.1-0.1-0.2v-2.1h0.4c0.2,1.6,1.2,2.3,2.4,2.3c1,0,1.9-0.8,1.9-1.9
			c0-1-0.5-1.7-2.7-3.2c-0.8-0.5-1.8-1.1-1.8-2.7c0-1.3,1.5-2.4,3.2-2.4c0.6,0,1.5,0.1,2.1,0.3c0.1,0,0.1,0.1,0.1,0.2V13H179.2z"/>
		<path fill="#68737A" d="M184.2,19.3c0,1.4-0.1,1.3,1.3,1.5v0.4h-4v-0.4c1.3-0.2,1.3-0.1,1.3-1.5v-6.6c0-1.4,0.1-1.3-1.3-1.5v-0.4
			h4v0.4c-1.3,0.2-1.3,0.1-1.3,1.5v2.6h5.2v-2.6c0-1.4,0.1-1.3-1.3-1.5v-0.4h4v0.4c-1.3,0.2-1.3,0.1-1.3,1.5v6.6
			c0,1.4-0.1,1.3,1.3,1.5v0.4h-4v-0.4c1.3-0.2,1.3-0.1,1.3-1.5v-3.5h-5.2V19.3z"/>
		<path fill="#68737A" d="M195.9,19.3c0,1.4-0.1,1.3,1.3,1.5v0.4h-4v-0.4c1.3-0.2,1.3-0.1,1.3-1.5v-6.6c0-1.4,0.1-1.3-1.3-1.5v-0.4
			h4v0.4c-1.3,0.2-1.3,0.1-1.3,1.5V19.3z"/>
		<path fill="#68737A" d="M207.5,21.2c-2.3-2.8-4.8-5.7-7.2-8.5v6.5c0,0.3,0.1,0.6,0.1,0.8c0.1,0.5,0.6,0.7,1.6,0.8v0.4h-3.6v-0.4
			c0.7-0.1,1.2-0.3,1.3-0.8c0-0.2,0.1-0.5,0.1-0.8v-7c-0.4-0.5-0.9-1-1.7-1v-0.4h2.7c2.2,2.7,4.5,5.4,6.7,8.1h0v-6.1
			c0-0.3-0.1-0.6-0.1-0.8c-0.1-0.5-0.6-0.7-1.6-0.8v-0.4h3.6v0.4c-0.7,0.1-1.2,0.3-1.3,0.8c0,0.2-0.1,0.5-0.1,0.8v8.3H207.5z"/>
		<path fill="#68737A" d="M210.3,16c0-2.3,1.9-5.3,5.9-5.3c1.4,0,2.1,0.3,2.8,0.5c0.4,0.1,0.6,0.3,0.6,0.6v1.9h-0.4
			c0-1.2-0.8-2.5-3.1-2.5c-3.1,0-4.1,2.1-4.1,4.7c0,2.3,1.2,5,4.2,5c1.8,0,2-0.7,2-1.8v-0.9c0-1.4,0.1-1.3-1.6-1.5v-0.4h4.3v0.4
			c-1.3,0.2-1.3,0.1-1.3,1.5v2.6c-0.9,0.4-2.2,0.7-3.5,0.7C213,21.4,210.3,19.9,210.3,16z"/>
		<path fill="#68737A" d="M226.5,19.3c0,1.4-0.1,1.3,1.3,1.5v0.4h-4v-0.4c1.3-0.2,1.3-0.1,1.3-1.5v-8h-1.3c-1.3,0-1.6,0.8-2.1,1.8
			h-0.4l0.4-2.3h8.2l0.4,2.3h-0.4c-0.5-1-0.8-1.8-2.1-1.8h-1.3V19.3z"/>
		<path fill="#68737A" d="M231,16.2c0-3.2,2.5-5.5,5.6-5.5c3.2,0,5.1,2.8,5.1,5c0,3.1-2.3,5.7-5.6,5.7C233.2,21.4,231,19.1,231,16.2
			z M240,16.1c0-3.5-1.9-5-3.7-5c-2.5,0-3.5,2.2-3.5,4.3c0,3.6,1.8,5.4,3.7,5.4C239.2,20.8,240,18.1,240,16.1z"/>
		<path fill="#68737A" d="M252.1,21.2c-2.3-2.8-4.8-5.7-7.2-8.5v6.5c0,0.3,0.1,0.6,0.1,0.8c0.1,0.5,0.6,0.7,1.6,0.8v0.4h-3.6v-0.4
			c0.7-0.1,1.2-0.3,1.3-0.8c0-0.2,0.1-0.5,0.1-0.8v-7c-0.4-0.5-0.9-1-1.7-1v-0.4h2.7c2.2,2.7,4.5,5.4,6.7,8.1h0v-6.1
			c0-0.3-0.1-0.6-0.1-0.8c-0.1-0.5-0.6-0.7-1.6-0.8v-0.4h3.6v0.4c-0.7,0.1-1.2,0.3-1.3,0.8c0,0.2-0.1,0.5-0.1,0.8v8.3H252.1z"/>
		<path fill="#68737A" d="M264.1,13c-0.1-1-0.7-1.9-1.9-1.9c-0.9,0-1.6,0.4-1.6,1.5c0,1,1,1.7,2.5,2.8c1.6,1.2,2.1,1.9,2.1,3.1
			c0,1.8-1.8,2.7-3.6,2.7c-0.9,0-1.8-0.2-2.5-0.5c-0.1,0-0.1-0.1-0.1-0.2v-2.1h0.4c0.2,1.6,1.2,2.3,2.4,2.3c1,0,1.9-0.8,1.9-1.9
			c0-1-0.5-1.7-2.7-3.2c-0.8-0.5-1.8-1.1-1.8-2.7c0-1.3,1.5-2.4,3.2-2.4c0.6,0,1.5,0.1,2.1,0.3c0.1,0,0.1,0.1,0.1,0.2V13H264.1z"/>
		<path fill="#68737A" d="M271,19.3c0,1.4-0.1,1.3,1.3,1.5v0.4h-4v-0.4c1.3-0.2,1.3-0.1,1.3-1.5v-8h-1.3c-1.3,0-1.6,0.8-2.1,1.8
			h-0.4l0.4-2.3h8.2l0.4,2.3h-0.4c-0.5-1-0.8-1.8-2.1-1.8H271V19.3z"/>
		<path fill="#68737A" d="M276.8,17.8l-0.7,2c-0.2,0.6,0.1,1.1,0.7,1.1v0.4h-2.7v-0.4c0.4,0,0.8-0.3,1.1-0.7
			c0.6-1.3,2.4-6.1,3.6-9.4h0.8c1,3,2.5,7.5,3,8.8c0.3,0.8,0.6,1.3,1.2,1.3v0.4h-3.4v-0.4c0.9,0,1-0.5,0.8-1.1l-0.6-1.9H276.8z
			 M280.4,17.2l-1.6-4.8h0l-1.8,4.8H280.4z"/>
		<path fill="#68737A" d="M288.7,19.3c0,1.4-0.1,1.3,1.3,1.5v0.4h-4v-0.4c1.3-0.2,1.3-0.1,1.3-1.5v-8h-1.3c-1.3,0-1.6,0.8-2.1,1.8
			h-0.4l0.4-2.3h8.2l0.4,2.3h-0.4c-0.5-1-0.8-1.8-2.1-1.8h-1.3V19.3z"/>
		<path fill="#68737A" d="M293.1,20.8c1.3-0.2,1.3-0.1,1.3-1.5v-6.6c0-1.4,0.1-1.3-1.3-1.5v-0.4h6.6v2.4h-0.4
			c-0.1-1.1-0.4-1.9-1.5-1.9h-2v4.2h1.2c0.9,0,1.3-0.4,1.4-1.3h0.4v3.1h-0.4c0-0.9-0.4-1.4-1.4-1.4h-1.2v3.3c0,1.3,0.6,1.4,1.9,1.4
			c2.1,0,2-0.6,2.7-2.2h0.4l-0.4,2.7h-7.3V20.8z"/>
		<path fill="#68737A" d="M308.3,17c0,2.1,0.6,3.6,2.8,3.6c2,0,3.1-1.4,3.1-3.7v-4.1c0-0.3-0.1-0.6-0.1-0.8
			c-0.1-0.5-0.6-0.7-1.3-0.8v-0.4h3.5v0.4c-0.7,0.1-1.2,0.3-1.3,0.8c0,0.2-0.1,0.5-0.1,0.8V17c0,3.2-2,4.4-3.9,4.4
			c-3.1,0-4.1-1.6-4.1-4.3v-4.4c0-1.4,0.1-1.3-1.3-1.5v-0.4h4v0.4c-1.3,0.2-1.3,0.1-1.3,1.5V17z"/>
		<path fill="#68737A" d="M326.4,21.2c-2.3-2.8-4.8-5.7-7.2-8.5v6.5c0,0.3,0.1,0.6,0.1,0.8c0.1,0.5,0.6,0.7,1.6,0.8v0.4h-3.6v-0.4
			c0.7-0.1,1.2-0.3,1.3-0.8c0-0.2,0.1-0.5,0.1-0.8v-7c-0.4-0.5-0.9-1-1.7-1v-0.4h2.7c2.2,2.7,4.5,5.4,6.7,8.1h0v-6.1
			c0-0.3-0.1-0.6-0.1-0.8c-0.1-0.5-0.6-0.7-1.6-0.8v-0.4h3.6v0.4c-0.7,0.1-1.2,0.3-1.3,0.8c0,0.2-0.1,0.5-0.1,0.8v8.3H326.4z"/>
		<path fill="#68737A" d="M331.8,19.3c0,1.4-0.1,1.3,1.3,1.5v0.4h-4v-0.4c1.3-0.2,1.3-0.1,1.3-1.5v-6.6c0-1.4,0.1-1.3-1.3-1.5v-0.4
			h4v0.4c-1.3,0.2-1.3,0.1-1.3,1.5V19.3z"/>
		<path fill="#68737A" d="M337.9,11.2c-0.8,0-1.4,0.2-0.9,1.7c0.6,1.7,1.4,4.3,2.2,6.5c0.9-2.3,1.8-4.5,2.8-6.8c0.4-0.9,0-1.4-1-1.4
			v-0.4h3.2v0.4c-0.4,0-0.9,0.1-1.2,0.9c-1.2,3-2.5,6-3.7,9.1h-0.8c-0.9-2.6-1.9-5.4-2.8-7.9c-0.5-1.6-1-2-1.7-2v-0.4h4V11.2z"/>
		<path fill="#68737A" d="M344.9,20.8c1.3-0.2,1.3-0.1,1.3-1.5v-6.6c0-1.4,0.1-1.3-1.3-1.5v-0.4h6.6v2.4h-0.4
			c-0.1-1.1-0.4-1.9-1.5-1.9h-2v4.2h1.2c0.9,0,1.3-0.4,1.4-1.3h0.4v3.1h-0.4c0-0.9-0.4-1.4-1.4-1.4h-1.2v3.3c0,1.3,0.6,1.4,1.9,1.4
			c2.1,0,2-0.6,2.7-2.2h0.4l-0.4,2.7h-7.3V20.8z"/>
		<path fill="#68737A" d="M353.4,10.8h4.3c1.5,0,3,0.8,3,2.5c0,1.5-0.9,2.6-2.1,3l1.4,2.2c0.7,1.1,1.6,2.1,2.1,2.4v0.2h-1.5
			c-0.9,0-1.3-1.6-3.1-4.6h-1.4v2.7c0,1.4-0.1,1.3,1.3,1.5v0.4h-4v-0.4c1.3-0.2,1.3-0.1,1.3-1.5v-6.6c0-1.4,0.1-1.3-1.3-1.5V10.8z
			 M356.1,16.1h1.2c1.3,0,1.9-1,1.9-2.6c0-1.6-0.9-2.2-2-2.2h-1.1V16.1z"/>
		<path fill="#68737A" d="M367.8,13c-0.1-1-0.7-1.9-1.9-1.9c-0.9,0-1.6,0.4-1.6,1.5c0,1,1,1.7,2.5,2.8c1.6,1.2,2.1,1.9,2.1,3.1
			c0,1.8-1.8,2.7-3.6,2.7c-0.9,0-1.8-0.2-2.5-0.5c-0.1,0-0.1-0.1-0.1-0.2v-2.1h0.4c0.2,1.6,1.2,2.3,2.4,2.3c1,0,1.9-0.8,1.9-1.9
			c0-1-0.5-1.7-2.7-3.2c-0.8-0.5-1.8-1.1-1.8-2.7c0-1.3,1.5-2.4,3.2-2.4c0.6,0,1.5,0.1,2.1,0.3c0.1,0,0.1,0.1,0.1,0.2V13H367.8z"/>
		<path fill="#68737A" d="M372.8,19.3c0,1.4-0.1,1.3,1.3,1.5v0.4h-4v-0.4c1.3-0.2,1.3-0.1,1.3-1.5v-6.6c0-1.4,0.1-1.3-1.3-1.5v-0.4
			h4v0.4c-1.3,0.2-1.3,0.1-1.3,1.5V19.3z"/>
		<path fill="#68737A" d="M379.9,19.3c0,1.4-0.1,1.3,1.3,1.5v0.4h-4v-0.4c1.3-0.2,1.3-0.1,1.3-1.5v-8h-1.3c-1.3,0-1.6,0.8-2.1,1.8
			h-0.4l0.4-2.3h8.2l0.4,2.3h-0.4c-0.5-1-0.8-1.8-2.1-1.8h-1.3V19.3z"/>
		<path fill="#68737A" d="M386.5,20.8c1.3-0.2,1.3-0.1,1.3-1.5v-2.3l-2.3-4.5c-0.5-1-0.9-1.3-1.6-1.3v-0.4h3.8v0.4
			c-1.1,0-1,0.6-0.6,1.3l1.8,3.7l2-3.7c0.5-0.9,0-1.3-0.8-1.3v-0.4h3v0.4c-0.4,0-0.8,0.2-1.2,0.9l-2.5,4.5c-0.1,0.3-0.2,0.7-0.2,1.1
			v1.7c0,1.4-0.1,1.3,1.3,1.5v0.4h-4V20.8z"/>
	</g>
	<g>
		<g>
			<g>
				<g>
					<path fill="#68737A" d="M138.8,18l0.1,0.1l-0.9,0.7c-0.5,0.4-1.5,0.7-2.2,0.7h-0.1c-0.3,0.3-0.6,0.6-1,0.9
						c-2.2,1.9-4.7,3.1-7.3,3.1c-0.3,0-0.5,0-0.8,0l0-0.2c0.1,0,0.3,0,0.4,0c3.4,0,5.7-2,7.7-4.2c-0.2-0.2-0.3-0.5-0.3-0.7
						c0-0.4,0.2-0.7,0.6-0.7c0.2,0,0.3,0.1,0.3,0.3l-0.7,0.5c0,0.2,0.1,0.3,0.2,0.4l0.8-0.9c2.9-3.2,4.6-6.1,8.6-7.1l0,0.1
						c-5,1.5-5.8,5.1-8.5,8.1c0.7,0,1.6-0.3,2-0.6L138.8,18z"/>
					<path fill="#68737A" d="M142.9,16.3c0,0.6-0.8,1.7-1.7,2.6h0.1c0.3,0,1-0.2,1.5-0.6l0.5-0.4l0.1,0.1l-0.5,0.4
						c-0.3,0.2-1.1,0.6-1.6,0.6c-0.1,0-0.2,0-0.2,0c-0.8,0.8-1.7,1.4-2.2,1.4c-0.6,0-0.8-0.3-0.8-0.7c0-1.3,2.2-3.8,4.4-3.8
						C142.8,15.9,142.9,16.1,142.9,16.3z M140.9,19c-0.1-0.1-0.1-0.3-0.1-0.4c0-0.5,0.7-0.8,1.2-0.8c0.5-0.6,0.8-1.2,0.8-1.5
						c0-0.2-0.1-0.3-0.3-0.3c-0.9,0-4,3.1-4,4c0,0.2,0.1,0.3,0.3,0.3C139.3,20.3,140.1,19.7,140.9,19z"/>
					<path fill="#68737A" d="M147.8,18.1c-1.7,1.3-3.2,2.4-3.9,2.4c-0.3,0-0.4-0.2-0.4-0.6c0-1.4,3.3-3.4,3.3-4
						c0-0.1-0.1-0.3-0.1-0.6c-0.3,0.4-1.2,1.3-3.4,2.9l-0.1-0.1c2.4-1.7,3.2-2.6,3.5-3v-0.3c0-0.6,0.4-0.9,0.6-0.9
						c0.2,0,0.3,0.1,0.3,0.3c0,0.3-0.4,0.6-0.6,0.7c-0.1,0-0.1,0.1-0.1,0.2c0,0.4,0.1,0.9,0.1,1.3c0,1.4-3.1,2.8-3.1,3.7
						c0,0.2,0.1,0.2,0.2,0.2c0.5,0,1.8-1.1,3.6-2.3L147.8,18.1z"/>
				</g>
				<g>
					<path fill="#68737A" d="M44.4,11.4c0,1.1-2.1,3.5-4.8,3.5c-0.2,0-0.4,0-0.5,0c-1.3,1.5-2.5,3-3.1,3.9c-0.1,0.1-0.1,0.1-0.2,0.2
						c1.3-1,3.5-2.5,4.2-2.5c0.2,0,0.3,0.1,0.3,0.3c0,1.4-3,3.2-3,3.8c0,0.2,0.1,0.2,0.2,0.2c0.5,0,1.8-1.1,3.6-2.3l0.1,0.1
						c-1.7,1.3-3.2,2.4-3.9,2.4c-0.3,0-0.5-0.2-0.5-0.7c0-1,3.1-3.2,3.1-3.6c0,0,0,0-0.1,0c-0.7,0-3.2,1.8-4.5,2.8
						c-0.7,0.7-1.6,1.4-2.4,1.4c-0.1,0-0.1,0-0.1,0c0,0,0,0,0-0.1c0.5-0.4,1-0.9,1.6-1.5c-0.5,0.4-1,0.8-1.5,1.1
						c-0.4,0.3-0.9,0.5-1.3,0.5c-0.3,0-0.4-0.1-0.4-0.5c0-0.6,0.6-1.6,1-2c1.5-1.6,3-3,4.3-4.2c-1.2-0.5-2.5-0.9-4-0.9
						c-0.9,0-1.9,0.2-3,0.7l-0.1-0.1c1.1-0.5,2.1-0.7,3-0.7c1.5,0,2.9,0.5,4.2,0.9c0.4-0.4,0.8-0.8,1.2-1.2c0.6,0,1.3-0.1,1.3-0.1
						l0,0.1c-0.5,0.4-1.1,0.9-1.7,1.5c0.3,0.1,0.5,0.2,0.7,0.2c0.2,0.1,0.4,0.1,0.5,0.1c2-2.1,3.9-3.8,5-3.8
						C44.3,10.9,44.4,11.1,44.4,11.4z M31.7,20.4c0,0.2,0.1,0.2,0.2,0.2c0.3,0,0.9-0.3,1.1-0.5c0.5-0.4,1.3-0.9,2.1-1.5
						c1.1-1.2,2.4-2.6,3.6-3.8c-0.1,0-0.3-0.1-0.4-0.1c-0.3-0.1-0.6-0.2-0.9-0.3c-1.5,1.4-3.4,3.1-4.8,4.5
						C32.4,19.3,31.7,20.1,31.7,20.4z M39.5,14.7c2.7,0,4.4-2.7,4.4-3.4c0-0.1,0-0.2-0.1-0.2c-1,0-2.8,1.7-4.5,3.6H39.5z"/>
					<path fill="#68737A" d="M45.5,18.5l0.1,0.1c-1.1,0.8-2,1.5-2.7,1.9c-0.5,0.3-1.1,0.5-1.6,0.5c-0.5,0-0.9-0.2-0.9-0.8
						c0-1.2,1.9-3.7,4.5-3.7c0.2,0,0.4,0.1,0.4,0.2c0,0.5-1.2,1.5-2.9,1.7c-0.7,0.8-1.3,1.5-1.3,1.9c0,0.3,0.2,0.4,0.5,0.4
						c0.4,0,1-0.2,1.3-0.4C43.4,20,44.4,19.3,45.5,18.5z M44.8,16.7c-0.6,0-1.6,0.8-2.5,1.7c1.4-0.2,2.7-1.2,2.7-1.6
						C45,16.7,44.9,16.7,44.8,16.7z"/>
				</g>
			</g>
		</g>
	</g>
</g>
</svg>
