<svg xmlns="http://www.w3.org/2000/svg" xml:space="preserve" viewBox="0 0 332.35999 247.37334"><path fill="#ae0c33" d="M194.326662 170.659732s8.713333-3.719733 13.489333-18.1276c4.208 8.779733 3.108 17.807867 3.108 17.807867-3.857334.865066-16.597333.319733-16.597333.319733M241.13466 88.258667s5.314667 28.960533-13.511999 29.950133c-18.162666.946267-26.717333-26.3688-26.717333-26.3688s4.390667 53.377066 29.854666 49.861466c28.668-3.9536 10.374667-53.442799 10.374667-53.442799M102.84373 163.770665c.014667-.008266.028667-.008266.028667-.008266 21.228667-4.833333 37.4996-29.606266 42.2676-39.5516l3.036-6.296266 1.826666 6.740533c.088.364134 2.068 7.804267 2.068 17.618267 0 1.092133-.029333 2.2052-.088 3.333333 7.324.277067 12.550666-1.207867 15.805333-4.5864 4.666666-4.8188 6.064-13.955733 4.332-27.918933-.86-6.682666-3.326667-17.312-5.518667-26.694666-1.121333-4.797333-2.177333-9.333333-2.817333-12.544-4.090667-20.514665.990667-33.254665 5.969333-40.323998.793333-1.113334 1.645333-2.168 2.549333-3.158667-14.698666 4.934667-27.017332 12.624-39.727599 25.32l8.9396 10.366666 3.654667-3.421333c3.465333 12.877333.974666 24.735999.974666 24.735999-4.701333-7.162666-10.249333-12.972-10.249333-12.972l2.424-4.077333-8.0588-9.361333-.931733-1.049333c-9.9084 13.606666-13.111466 24.737332-13.111466 24.737332l7.025466 6.436L127.33333 94.8l1.375467-3.945333c7.564533 14.145333.655733 27.365066.655733 27.365066-1.237467-4.819733-6.2172-11.9464-6.2172-11.9464l1.9652-6.486666-10.460933-9.464c-10.876133 33.9756-25.4068 44.9824-25.4068 44.9824s15.716667-2.8312 24.474533-5.7724c0 0-.240133 17.908932-10.8756 34.237998"/><path fill="#ae0c33" d="M188.785329 52.484002c5.066666-3.552 13.686666-6.282667 21.773332-5.662667 2.045334.152 3.778667-.386667 1.573334-1.550667-6.049333-3.189333-20.152-2.104-25.138666 1.296-7.985333 5.445334-6.632 15.149333-6.449334 15.382667 1.594667-2.781334 4.294667-6.705334 8.241334-9.465333m72.769331-11.290667-25.116 1.062667c.016 2.956-.377333 5.954666-1.338666 8.786666 2.344 10.250667.713333 15.812.713333 15.812-4.2-9.776-7.396-12.492-7.396-12.492-23.070665-10.242666-36.029332 12.922667-34.638665 27.868 1.129333 12.281332 5.590666 28.581332 9.064 54.156265 2.926666 21.518133-7.972 30.822399-20.508 32.954666-.269333.036933-.545333.087466-.822667.146266-.073333 0-.130666 0-.197333.014667-2.037333.262933-4.192.3708-6.470666.320267-.073334-.021334-.168-.021334-.241334-.021334-.253333 0-.494666-.036-.748-.036-.977333-.0588-1.937333-.1604-2.890666-.2776-9.756-1.346266-31.596-5.314533-54.156132-5.861466 13.271866-7.743733 23.652132-21.160933 29.446799-30.661866.334667 2.635333.605333 5.846266.605333 9.383333 0 1.762933-.058666 3.618667-.241333 5.511866l-.217333 2.590667 2.598666.2188c10.381333.902533 17.741333-1.077067 22.553333-6.0344 5.881333-6.129733 7.694667-16.344266 5.7-32.185466-.858667-6.945333-3.385333-17.718666-5.590667-27.218666-1.1-4.754666-2.14-9.268-2.774666-12.384-3.733333-18.717332.729333-30.081332 5.133333-36.313332 3.429333-4.877333 8.181333-8.458666 13.396-10.177333.086666-.013333.173333-.034666.268-.050666l8.576-26.309333h2.693333l-5.758667 25.284c1.332-.233334 2.686667-.445334 4.054667-.656l7.404-23.310667h2.664l-4.846667 22.576c7.665333-.984 15.978666-1.748 25.194666-2.425334 1.492.597334 3.109333 2.324 4.528 4.725334l24.169333-7.433334.896 2.606667-23.106667 8.961333c.182667.473333.364.968.509334 1.470667l25.261333-3.137334.422666 2.708-24.512 4.892c.086667.458667.16.917334.241334 1.376l25.494666.822667-.016 2.737333"/><path fill="#565353" d="m9.195306 208.761331-2.07812-7.866667-2.063546 7.866667H3.054693L0 198.095731h2.095307l2.079173 8.2188 2.206773-8.2188h1.487493l2.206774 8.2188 2.062506-8.2188H14.2328l-3.038534 10.6656h-1.99896M22.205733 199.982665l-1.919334 5.083866h3.8376zm3.230266 8.778666-.783333-2.0468H19.7588l-.783734 2.0468h-2.126133l4.188533-10.6656H23.3724l4.190134 10.6656h-2.126534M31.088533 207.258798l1.039066-1.438534c.736.782267 1.8864 1.4692 3.374 1.4692 1.5348 0 2.1432-.751066 2.1432-1.4536 0-2.240133-6.220266-.848-6.220266-4.781333 0-1.759866 1.550533-3.118666 3.885333-3.118666 1.663066 0 3.006266.526533 3.997466 1.486933L38.236 200.813464c-.831333-.8308-1.966667-1.214666-3.086533-1.214666-1.102534 0-1.807334.526667-1.807334 1.326666 0 1.9828 6.2048.752 6.2048 4.734267 0 1.775067-1.247466 3.293867-4.125066 3.293867-1.967734 0-3.390667-.687067-4.333333-1.6948M51.899465 208.761331v-4.653067H46.3516v4.653067h-1.870933v-10.6656h1.870933v4.364h5.547866v-4.364H53.7708v10.6656h-1.871334M59.247332 208.761331v-10.6656h1.871466v10.6656h-1.871466M74.027065 208.761331l-5.564533-7.612v7.612h-1.871334v-10.6656h1.9192l5.4532 7.404133v-7.404133h1.871333v10.6656h-1.807866M80.831731 203.437331c0-3.342666 2.5104-5.517066 5.596934-5.517066 2.0792 0 3.438533.990533 4.302 2.2224l-1.535334.864c-.559867-.8-1.567733-1.424-2.766666-1.424-2.110934 0-3.677067 1.614666-3.677067 3.854666 0 2.2376 1.566133 3.869333 3.677067 3.869333 1.086933 0 2.0464-.512 2.527066-.959866v-1.663067h-3.182266v-1.6464h5.053066v3.997467c-1.055733 1.166666-2.542667 1.9344-4.397866 1.9344-3.086534 0-5.596934-2.190667-5.596934-5.531867M98.44533 208.761331v-9.018666h-3.229199v-1.646934h8.3308v1.646934h-3.2308v9.018666h-1.8708M116.442664 203.437331c0-2.208267-1.3916-3.854666-3.533867-3.854666-2.1588 0-3.533733 1.6464-3.533733 3.854666 0 2.189067 1.374933 3.852133 3.533733 3.852133 2.142267 0 3.533867-1.663066 3.533867-3.852133zm-8.986933 0c0-3.1828 2.2536-5.517066 5.453066-5.517066 3.198 0 5.4532 2.334266 5.4532 5.517066 0 3.181333-2.2552 5.516267-5.4532 5.516267-3.199466 0-5.453066-2.334934-5.453066-5.516267M130.811463 208.761331l-5.565066-7.612v7.612h-1.871333v-10.6656h1.9192l5.453066 7.404133v-7.404133h1.871467v10.6656h-1.807334M144.719996 207.258798l1.038667-1.438534c.736.782267 1.886667 1.4692 3.374667 1.4692 1.534666 0 2.142666-.751066 2.142666-1.4536 0-2.240133-6.22-.848-6.22-4.781333 0-1.759866 1.550667-3.118666 3.885334-3.118666 1.662666 0 3.006666.526533 3.997333 1.486933l-1.072 1.390666c-.830667-.8308-1.965333-1.214666-3.085333-1.214666-1.102667 0-1.808.526667-1.808 1.326666 0 1.9828 6.205333.752 6.205333 4.734267 0 1.775067-1.248 3.293867-4.125333 3.293867-1.968 0-3.390667-.687067-4.333334-1.6948M160.49333 208.761331v-9.018666h-3.230667v-1.646934h8.332v1.646934h-3.230667v9.018666h-1.870667M173.581329 199.982665l-1.92 5.083866h3.838667zm3.229333 8.778666-.782666-2.0468h-4.893334l-.784 2.0468h-2.126666l4.190666-10.6656h2.334667l4.188 10.6656h-2.126667M184.813329 208.761331v-9.018666h-3.229334v-1.646934h8.332v1.646934h-3.230666v9.018666h-1.872M194.702662 208.761331v-10.6656h7.309333v1.646934h-5.437333v2.7656h5.325333v1.647866h-5.325333v2.9584h5.437333v1.6468h-7.309333M214.446661 204.556131v-6.4604h1.886667v6.3964c0 1.6948.944 2.797333 2.734667 2.797333 1.776 0 2.718666-1.102533 2.718666-2.797333v-6.3964h1.886667v6.444267c0 2.654666-1.518667 4.4136-4.605333 4.4136-3.101334 0-4.621334-1.776134-4.621334-4.397467M236.585327 208.761331l-5.562666-7.612v7.612h-1.872v-10.6656h1.918667l5.453333 7.404133v-7.404133h1.870666v10.6656h-1.808M243.87066 208.761331v-10.6656h1.872v10.6656h-1.872M254.285327 208.761331l-4.190667-10.6656h2.126667l3.230667 8.634933 3.230666-8.634933h2.125333l-4.188 10.6656h-2.334666M265.18266 208.761331v-10.6656h7.306667v1.646934h-5.436v2.7656h5.324v1.647866h-5.324v2.9584h5.436v1.6468h-7.306667M283.86666 201.437331c0-1.023866-.768-1.694666-1.822667-1.694666h-2.558667v3.389466h2.558667c1.054667 0 1.822667-.6724 1.822667-1.6948zm-.16 7.324-2.366667-3.9812h-1.854667v3.9812h-1.870666v-10.6656h4.685333c2.110667 0 3.485333 1.374934 3.485333 3.3416 0 1.902667-1.248 2.926667-2.526666 3.1344l2.606666 4.1896h-2.158666M290.17466 207.258798l1.038666-1.438534c.736.782267 1.888 1.4692 3.374667 1.4692 1.536 0 2.142666-.751066 2.142666-1.4536 0-2.240133-6.22-.848-6.22-4.781333 0-1.759866 1.550667-3.118666 3.885334-3.118666 1.664 0 3.006666.526533 3.998666 1.486933l-1.072 1.390666c-.832-.8308-1.966666-1.214666-3.085333-1.214666-1.104 0-1.808.526667-1.808 1.326666 0 1.9828 6.205333.752 6.205333 4.734267 0 1.775067-1.248 3.293867-4.126666 3.293867-1.966667 0-3.389334-.687067-4.333334-1.6948M303.56666 208.761331v-10.6656h1.870666v10.6656h-1.870667M313.451992 208.761331v-9.018666h-3.229333v-1.646934h8.330666v1.646934h-3.230666v9.018666h-1.870667M326.362659 208.761331v-4.4292l-4.14-6.2364h2.141333l2.942666 4.573467 2.910667-4.573467h2.144l-4.126667 6.2364v4.4292h-1.872M70.835998 246.893122v-21.678591h-7.7996v-5h21.2792v5h-7.759333v21.678591h-5.720267M105.59533 228.813464c0-2.240133-1.720266-3.598933-4-3.598933h-5.959866v7.198933h5.959867c2.279733 0 4-1.359867 4-3.6zm-.559866 18.079658-5.2396-9.479685h-4.1604v9.479685h-5.679733v-26.678591h12.4792c5.559866 0 8.959866 3.639066 8.959866 8.598933 0 4.719733-2.959866 7.24008-5.840133 7.91872l6 10.160938h-6.5192M117.675064 246.893122v-26.678591h5.6796v26.678591h-5.6796M129.194797 235.413437v-4.320373h9.599866v4.320373h-9.599866M143.354663 233.57333c0-8.1984 6.2-13.7984 14.2-13.7984 5.878666 0 9.278666 3.1984 11.158666 6.518134l-4.88 2.4c-1.118666-2.159867-3.52-3.8796-6.278666-3.8796-4.84 0-8.36 3.719733-8.36 8.759866 0 5.040107 3.52 8.759893 8.36 8.759893 2.758666 0 5.16-1.67968 6.278666-3.881253l4.88 2.361467c-1.92 3.318746-5.28 6.559893-11.158666 6.559893-8 0-14.2-5.6-14.2-13.8M174.114662 246.893122v-26.678591h5.68v26.678591h-5.68M193.233329 246.893122v-21.678591h-7.8v-5h21.278666v5h-7.758667v21.678591h-5.72M212.353328 246.893122v-26.678591h5.678667v26.678591h-5.678667M225.311994 246.893122v-26.678591h18.88v5h-13.2v5.639066h12.92v4.999947h-12.92v6.039573h13.2v5.000005h-18.88M248.831994 243.132183l3.08-4.318746c1.88 1.959893 4.798666 3.59844 8.48 3.59844 3.12 0 4.638666-1.438547 4.638666-2.959907 0-4.719786-15.358666-1.47864-15.358666-11.517173 0-4.440133 3.84-8.120266 10.12-8.120266 4.238666 0 7.758666 1.280133 10.4 3.718666l-3.161334 4.159867c-2.16-2-5.04-2.918133-7.76-2.918133-2.438666 0-3.798666 1.078666-3.798666 2.678666 0 4.239467 15.318666 1.4 15.318666 11.35984 0 4.87968-3.48 8.559893-10.678667 8.559893-5.12 0-8.801333-1.719787-11.28-4.241147"/></svg>