<?xml version="1.0" encoding="utf-8"?>
<!-- Generator: Adobe Illustrator 18.0.0, SVG Export Plug-In . SVG Version: 6.00 Build 0)  -->
<!DOCTYPE svg PUBLIC "-//W3C//DTD SVG 1.1//EN" "http://www.w3.org/Graphics/SVG/1.1/DTD/svg11.dtd">
<svg version="1.1" id="Layer_1" xmlns="http://www.w3.org/2000/svg" xmlns:xlink="http://www.w3.org/1999/xlink" x="0px" y="0px"
	 viewBox="0 0 310.3 30" enable-background="new 0 0 310.3 30" xml:space="preserve">
<path fill="#FFFFFF" d="M197,25.4l-4.4,3.1l-4.4-3.1c-3.1-2.1-5.8-4-7.2-6.7c1.2,5.2,6.2,7.1,11.6,11.3c5.3-4.2,10.4-6.1,11.6-11.3
	C202.8,21.5,200.1,23.3,197,25.4z"/>
<g>
	<path fill="#FFFFFF" d="M194.2,6.6c-0.9,0.6-0.7,1.7-0.7,1.7c0.2-0.3,0.5-0.7,0.9-1.1c0.6-0.4,1.5-0.7,2.4-0.6c0.2,0,0.4,0,0.2-0.2
		C196.3,6.1,194.7,6.2,194.2,6.6z"/>
	<path fill="#FFFFFF" d="M180.4,0v0.5c0.3,0.1,0.4,0.2,0.5,0.7v12.6c0,7,5.7,8.8,11.7,13.5c6-4.7,11.7-6.5,11.7-13.5V1.1
		c0-0.4,0.2-0.5,0.5-0.6V0H180.4z M184.8,19.7c1.2-1.8,1.2-3.8,1.2-3.8c-1,0.3-2.7,0.6-2.7,0.6s1.6-1.2,2.8-5l1.2,1.1l-0.2,0.7
		c0,0,0.6,0.8,0.7,1.3c0,0,0.8-1.5-0.1-3.1l-0.2,0.4l-0.5-0.4l-0.8-0.7c0,0,0.4-1.2,1.5-2.8l0.1,0.1l0.9,1l-0.3,0.5
		c0,0,0.6,0.6,1.1,1.4c0,0,0.3-1.3-0.1-2.8l-0.4,0.4l-1-1.2c1.4-1.4,2.8-2.3,4.4-2.8c-0.1,0.1-0.2,0.2-0.3,0.4
		c-0.6,0.8-1.1,2.2-0.7,4.5c0.1,0.4,0.2,0.9,0.3,1.4c0.2,1,0.5,2.2,0.6,3c0.2,1.6,0,2.6-0.5,3.1c-0.4,0.4-0.9,0.5-1.8,0.5
		c0-0.1,0-0.3,0-0.4c0-1.1-0.2-1.9-0.2-2l-0.2-0.8l-0.3,0.7C189,16.4,187.2,19.1,184.8,19.7L184.8,19.7z M196.8,20.4
		c-0.4,0.1-1.9,0-1.9,0s1-0.4,1.5-2C197,19.4,196.8,20.4,196.8,20.4z M199,17.2c-2.8,0.4-3.3-5.6-3.3-5.6s1,3.1,3,2.9
		c2.1-0.1,1.5-3.3,1.5-3.3S202.2,16.8,199,17.2z M202.5,6l-2.8,0.1c0,0.3,0,0.7-0.1,1c0.3,1.1,0.1,1.8,0.1,1.8
		c-0.5-1.1-0.8-1.4-0.8-1.4c-2.6-1.1-4,1.4-3.9,3.1c0.1,1.4,0.6,3.2,1,6c0.3,2.4-0.9,3.4-2.3,3.7c0,0-0.1,0-0.1,0c0,0,0,0,0,0
		c-0.2,0-0.5,0-0.7,0c0,0,0,0,0,0c0,0-0.1,0-0.1,0c-0.1,0-0.2,0-0.3,0c-1.1-0.2-3.5-0.6-6-0.7c1.5-0.9,2.6-2.4,3.3-3.4
		c0,0.3,0.1,0.6,0.1,1c0,0.2,0,0.4,0,0.6l0,0.3l0.3,0c1.2,0.1,2-0.1,2.5-0.7c0.7-0.7,0.9-1.8,0.6-3.6c-0.1-0.8-0.4-2-0.6-3
		c-0.1-0.5-0.2-1-0.3-1.4c-0.4-2.1,0.1-3.4,0.6-4.1c0.4-0.5,0.9-0.9,1.5-1.1c0,0,0,0,0,0l1-2.9h0.3l-0.6,2.8c0.1,0,0.3-0.1,0.5-0.1
		l0.8-2.6h0.3l-0.5,2.5c0.9-0.1,1.8-0.2,2.8-0.3c0.2,0.1,0.3,0.3,0.5,0.5l2.7-0.8l0.1,0.3l-2.6,1c0,0.1,0,0.1,0.1,0.2l2.8-0.3l0,0.3
		l-2.7,0.5c0,0,0,0.1,0,0.2l2.8,0.1L202.5,6z"/>
</g>
<g>
	<g>
		<g>
			<path fill="#FFFFFF" d="M282.1,12.1c-1.8-1.4-3.1-2.2-3.1-3.4c0-1.4,1-1.9,2-1.9c1.5,0,2.2,1,2.3,2.3h0.5V6.6
				c0-0.1,0-0.2-0.1-0.2c-0.7-0.3-1.8-0.3-2.6-0.3c-2.1,0-4,1.3-4,3c0,0.9,0.2,1.5,0.6,2h0c0,0,0,0,0,0c0.4,0.6,1.1,1,1.6,1.3
				c2.8,1.8,3.4,2.8,3.4,4c0.1,2.7-4.9,4.1-8.2-1.1l-1.7-2.6c1.3-0.5,2.4-1.8,2.4-3.5c0-2-1.8-2.9-3.5-2.9h-5.1v0.4
				c1.6,0.2,1.5,0.1,1.5,1.7v7.8c0,1.6,0.1,1.5-1.5,1.7v0.5h4.7V18c-1.6-0.2-1.5-0.1-1.5-1.7V13h1.6c2.1,3.5,2.6,5,3.7,5.4
				c0.2,0.1,3,1,4.9,1c2.2,0,4.6-1.2,4.6-3.4C284.7,14.4,284.1,13.5,282.1,12.1z M271.4,12.7h-1.4V7h1.3c1.3,0,2.3,0.7,2.3,2.6
				C273.6,11.5,272.9,12.7,271.4,12.7z"/>
			<path fill="#FFFFFF" d="M236.4,18.4c0,0,0,0-8.5-10.1V16c0,0.4,0.1,0.7,0.1,0.9c0.1,0.6,0.7,0.9,1.8,1v0.5h-4.3v-0.5
				c0.8-0.1,1.4-0.3,1.5-1c0-0.3,0.1-0.6,0.1-0.9V7.8c-0.5-0.6-1-1.2-2-1.2V6.2h3.2c2.6,3.2,5.3,6.4,7.9,9.5h0V8.5
				c0-0.4-0.1-0.7-0.1-0.9c-0.1-0.6-0.7-0.9-1.8-1V6.2h4.3v0.5c-0.8,0.1-1.4,0.3-1.5,1c0,0.3-0.1,0.6-0.1,0.9v9.9
				C237,18.4,236.4,18.4,236.4,18.4z"/>
			<path fill="#FFFFFF" d="M243.3,16.2c0,1.6-0.1,1.5,1.5,1.7v0.5h-4.7v-0.5c1.6-0.2,1.5-0.1,1.5-1.7V8.4c0-1.6,0.1-1.5-1.5-1.7V6.2
				h4.7v0.5c-1.6,0.2-1.5,0.1-1.5,1.7V16.2z"/>
			<path fill="#FFFFFF" d="M265.5,15.3c-0.8,1.9-0.7,2.6-3.2,2.6c-1.6,0-2.3-0.1-2.3-1.6v-3.9h1.5c1.2,0,1.6,0.6,1.6,1.6h0.5v-3.7
				h-0.5c0,1.1-0.5,1.5-1.6,1.5H260v-5h2.8c1.3,0,1.6,1,1.8,2.2h0.5V6.2h-8h-3.5v0.5c1.2,0,1.6,0.5,1.2,1.6c-1.1,2.7-2.1,5.4-3.3,8
				c-0.9-2.6-1.9-5.6-2.6-7.7c-0.6-1.7,0.1-2,1.1-2V6.2h-4.4v0.5c0.8,0,1.1,0.5,1.7,2.4c1.1,3,2.3,6.3,3.3,9.4h0.9
				c1.5-3.6,2.9-7.1,4.4-10.7c0.4-0.9,0.6-1,1.1-1c1.6,0.2,1.3,0.1,1.3,1.7v7.9c0,1.6,0.2,1.5-1.3,1.7v0.5h8.4l0.5-3.1L265.5,15.3
				L265.5,15.3z"/>
			<path fill="#FFFFFF" d="M288.9,16.2c0,1.6-0.1,1.5,1.5,1.7v0.5h-4.7v-0.5c1.6-0.2,1.5-0.1,1.5-1.7V8.4c0-1.6,0.1-1.5-1.5-1.7V6.2
				h4.7v0.5c-1.6,0.2-1.5,0.1-1.5,1.7V16.2z"/>
			<path fill="#FFFFFF" d="M306.7,6.2v0.5c1,0,1.6,0.5,1,1.6l-2.4,4.4l-2.1-4.4c-0.4-0.9-0.6-1.6,0.8-1.6V6.2H301h-1.2h-8.1
				l-0.5,2.7h0.4c0.6-1.1,0.9-2.1,2.4-2.1h1.4v9.5c0,1.6,0.1,1.5-1.5,1.7v0.5h4.7v-0.5c-1.6-0.2-1.5-0.1-1.5-1.7V6.7h1.4
				c1.4,0,2.4,0.9,3,1.9l2.5,4.9v2.7c0,1.6,0.1,1.5-1.5,1.7v0.5h4.7v-0.5c-1.6-0.2-1.5-0.1-1.5-1.7v-2c0-0.4,0-0.9,0.2-1.3l2.9-5.3
				c0.5-0.8,0.9-1.1,1.4-1.1V6.2H306.7z"/>
		</g>
		<path fill="#FFFFFF" d="M225.3,3.7l-5.5,0v0.5c1.1,0.1,1.9,0.6,2,1.4c0,0.4,0.1,0.8,0.1,1.3v6.5c0,3.8-1.7,5.9-4.9,5.9
			c-3.5,0-4.5-2.5-4.5-5.8V6.7c0-2.2,0.1-2.2,2.2-2.5V3.7h-6.3v0.5c2.1,0.3,2,0.3,2,2.5v7c0,4.2,1.5,6.8,6.5,6.8
			c3,0,6.2-1.9,6.2-6.9V6.9c0,0,0-0.1,0-0.1c0-2,0.8-2.3,2.1-2.5L225.3,3.7z"/>
	</g>
	<g>
		<path fill="#FFFFFF" d="M135.3,7.1c-0.2-1.6-1.1-2.9-2.9-2.9c-1.4,0-2.7,0.7-2.7,2.4c0,1.6,1.6,2.6,4,4.4c2.5,1.8,3.3,3,3.3,5
			c0,2.8-2.7,4.3-5.5,4.3c-1.5,0-2.8-0.3-4-0.7c-0.1,0-0.2-0.1-0.2-0.3v-3.4h0.6c0.3,2.6,2,3.6,3.8,3.6c1.7,0,3.2-1.3,3.2-3
			c0-1.5-0.8-2.8-4.3-5.1c-1.3-0.8-2.8-1.8-2.8-4.3c0-2.1,2.2-3.8,4.9-3.8c1,0,2.3,0.1,3.3,0.4c0.1,0,0.2,0.1,0.2,0.3v3.1H135.3z"/>
		<path fill="#FFFFFF" d="M142.8,16.3c0,1.6-0.1,1.5,1.5,1.7v0.4h-4.7V18c1.6-0.2,1.5-0.1,1.5-1.7V6.9h-1.4c-1.5,0-1.9,1-2.4,2.1
			h-0.4l0.5-2.7h9.3l0.5,2.7h-0.4c-0.6-1.1-0.9-2.1-2.4-2.1h-1.4L142.8,16.3L142.8,16.3z"/>
		<path fill="#FFFFFF" d="M148.8,14.4l-0.8,2.3c-0.2,0.7,0.1,1.3,0.9,1.3v0.4h-3.2V18c0.5,0,1-0.3,1.3-0.9c0.7-1.5,2.8-7.2,4.2-11.1
			h1c1.2,3.5,3,8.8,3.5,10.4c0.4,1,0.7,1.5,1.4,1.5v0.4h-4V18c1.1,0,1.2-0.6,0.9-1.3l-0.8-2.2C153.3,14.4,148.8,14.4,148.8,14.4z
			 M153.1,13.8l-1.8-5.6h0l-2.1,5.6H153.1z"/>
		<path fill="#FFFFFF" d="M161.9,16.3c0,1.6-0.1,1.5,1.5,1.7v0.4h-4.7V18c1.6-0.2,1.5-0.1,1.5-1.7V6.9h-1.4c-1.5,0-1.9,1-2.4,2.1
			h-0.4l0.5-2.7h9.3l0.5,2.7h-0.4c-0.6-1.1-0.9-2.1-2.4-2.1h-1.4L161.9,16.3L161.9,16.3z"/>
		<path fill="#FFFFFF" d="M167,18c1.6-0.2,1.3-0.1,1.3-1.7V8.5c0-1.6,0.2-1.5-1.3-1.7V6.3h7.6v2.8h-0.5c-0.2-1.3-0.5-2.2-1.8-2.2
			H170v5h1.5c1.1,0,1.6-0.4,1.6-1.5h0.5V14h-0.5c0-1-0.4-1.6-1.6-1.6H170v3.9c0,1.5,0.7,1.6,2.2,1.6c2.5,0,2.4-0.7,3.2-2.6h0.5
			l-0.5,3.1H167L167,18L167,18z"/>
	</g>
	<g>
		<path fill="#FFFFFF" d="M43.4,16.3c0,1.6-0.1,1.5,1.5,1.7v0.5h-4.7V18c1.6-0.2,1.5-0.1,1.5-1.7V8.5c0-1.6-0.8-1.5-2.3-1.7V6.3h5.5
			v0.4c-1.6,0.2-1.5,0.1-1.5,1.7v3h6.1v-3c0-1.6,0.1-1.5-1.5-1.7V6.3h4.7v0.4c-1.6,0.2-1.5,0.1-1.5,1.7v7.8c0,1.6-0.1,1.5,1.5,1.7
			v0.5h-4.7V18c1.6-0.2,1.5-0.1,1.5-1.7v-4.1h-6.1L43.4,16.3L43.4,16.3z"/>
		<path fill="#FFFFFF" d="M57.8,16.3c0,1.6-0.1,1.5,1.5,1.7v0.5h-4.7V18c1.6-0.2,1.5-0.1,1.5-1.7V8.5c0-1.6,0.1-1.5-1.5-1.7V6.3h4.7
			v0.4c-1.6,0.2-1.5,0.1-1.5,1.7V16.3z"/>
		<path fill="#FFFFFF" d="M72.3,18.5c-2.8-3.3-5.6-6.7-8.5-10v7.7c0,0.4,0.1,0.7,0.1,0.9c0.1,0.6,0.7,0.9,1.8,1v0.5h-4.3V18
			c0.8-0.1,1.4-0.3,1.5-1c0-0.3,0.1-0.6,0.1-0.9V8c-0.5-0.6-1-1.2-2-1.2V6.3h3.2c2.6,3.1,5.3,6.3,7.9,9.5h0V8.7
			C72.1,8.3,72,8,72,7.7c-0.1-0.6-0.7-0.9-1.8-1V6.3h4.3v0.4c-0.8,0.1-1.4,0.3-1.5,1c0,0.3-0.1,0.6-0.1,0.9v9.8
			C72.8,18.5,72.3,18.5,72.3,18.5z"/>
		<path fill="#FFFFFF" d="M74.8,12.3c0-2.7,2.3-6.2,6.9-6.2c1.7,0,2.5,0.3,3.3,0.6c0.5,0.2,0.7,0.4,0.7,0.7v2.2h-0.5
			c-0.1-1.4-0.9-2.9-3.7-2.9c-3.6,0-4.8,2.5-4.8,5.5c0,2.7,1.4,5.9,4.9,5.9c2.2,0,2.4-0.8,2.4-2.2v-1.1c0-1.6,0.1-1.5-1.8-1.7v-0.4
			h5v0.4c-1.6,0.2-1.5,0.1-1.5,1.7v3c-1.1,0.4-2.6,0.8-4.2,0.8C78,18.7,74.8,17,74.8,12.3z"/>
		<path fill="#FFFFFF" d="M93.2,16.3c0,1.6-0.1,1.5,1.5,1.7v0.5H90V18c1.6-0.2,1.5-0.1,1.5-1.7V6.9h-1.4c-1.5,0-1.9,1-2.4,2.1h-0.4
			l0.5-2.7H97L97.5,9H97c-0.6-1.1-0.9-2.1-2.4-2.1h-1.4L93.2,16.3L93.2,16.3z"/>
		<path fill="#FFFFFF" d="M97.5,12.6c0-3.8,2.9-6.5,6.5-6.5c3.8,0,6,3.2,6,5.9c0,3.7-2.7,6.7-6.6,6.7C100.1,18.7,97.5,16,97.5,12.6z
			 M108,12.6c0-4.2-2.2-5.8-4.4-5.8c-3,0-4.2,2.6-4.2,5c0,4.2,2.2,6.4,4.4,6.4C107.1,18.1,108,14.9,108,12.6z"/>
		<path fill="#FFFFFF" d="M121.2,18.5c-2.8-3.3-5.6-6.7-8.5-10v7.7c0,0.4,0.1,0.7,0.1,0.9c0.1,0.6,0.7,0.9,1.8,1v0.5h-4.3V18
			c0.8-0.1,1.4-0.3,1.5-1c0-0.3,0.1-0.6,0.1-0.9V8c-0.5-0.6-1-1.2-2-1.2V6.3h3.2c2.6,3.1,5.3,6.3,7.9,9.5h0V8.7
			c0-0.4-0.1-0.7-0.1-0.9c-0.1-0.6-0.7-0.9-1.8-1V6.3h4.3v0.4c-0.8,0.1-1.4,0.3-1.5,1c0,0.3-0.1,0.6-0.1,0.9v9.8
			C121.7,18.5,121.2,18.5,121.2,18.5z"/>
		<path fill="#FFFFFF" d="M23.9,4L23.9,4l-4.7,0v0.6c1.8,0,2.1,0.7,1.6,2l-3.6,9.7h-0.2L12.9,4.2h-1.1L7.4,16.3H7.1L4,6.7
			C3.5,5.2,4.2,4.6,5.6,4.6V4H0v0.6c1.2,0,1.4,0.9,2.2,3.1l4,12h1.1l4.3-12.2l4.3,12.2h1.2c1.8-4.9,4.4-12,5.3-14
			c0.4-0.7,1-1.1,1.6-1.1L23.9,4C24,4,23.9,4,23.9,4z"/>
		<path fill="#FFFFFF" d="M36.4,12c-1.8-1.4-3.1-2.1-3.1-3.4c0-1.4,1-1.9,2-1.9c1.5,0,2.2,1,2.3,2.3h0.5V6.6c0-0.1,0-0.2-0.1-0.2
			C37.2,6.1,36.2,6,35.4,6c-2.1,0-3.9,1.3-3.9,2.9c0,0.9,0.2,1.5,0.6,2h0c0,0,0,0,0,0c0.4,0.6,1.1,1,1.6,1.3c2.7,1.8,3.4,2.8,3.4,4
			c0,1.1-0.8,2.2-2.4,2.3c-1.6,0.1-3.6-0.6-4.4-2.8C29.5,13.7,28,9.2,27,6.2h-1c-1.4,3.8-3.4,9.5-4.1,11C21.5,17.7,21,18,20.6,18
			v0.5h0.8h2.4V18c-0.8,0-1.1-0.6-0.9-1.3l0.8-2.3h4.4l0.7,2.2l0.6,1.7c0,0,3.1,0.8,5.1,0.8c2.2,0,4.4-1.2,4.4-3.4
			C39,14.3,38.3,13.4,36.4,12z M23.9,13.8L26,8.2h0l1.8,5.6H23.9z"/>
	</g>
</g>
</svg>
