<?xml version="1.0" encoding="utf-8"?>
<!-- Generator: Adobe Illustrator 18.0.0, SVG Export Plug-In . SVG Version: 6.00 Build 0)  -->
<!DOCTYPE svg PUBLIC "-//W3C//DTD SVG 1.1//EN" "http://www.w3.org/Graphics/SVG/1.1/DTD/svg11.dtd">
<svg version="1.1" id="Layer_1" xmlns="http://www.w3.org/2000/svg" xmlns:xlink="http://www.w3.org/1999/xlink" x="0px" y="0px"
	 viewBox="0 0 276.7 95" enable-background="new 0 0 276.7 95" xml:space="preserve">
<g>
	<g>
		<path fill="#58595B" d="M19.3,10.3c-4.2,0-5.7,1.7-4.4,6.2l7.9,28.4h0.1L36.2,9.2h2.5l13.1,35.3h0.1c3-9.3,5.7-18.6,8.7-28
			c1.3-4.1,0.1-6.1-5.2-6.1V8.6h14.5v1.7c-2,0-4.6,1.5-5.7,5.2L51.9,54.8h-3L35.5,18.9L22.3,54.8h-2.8l-10-35.4
			c-1.9-6.5-4-9.2-7.5-9.2V8.6h17.3V10.3z"/>
		<path fill="#58595B" d="M92,18.4c-0.5-4.6-3-8.3-8.3-8.3c-3.8,0-7.3,2-7.3,6.9c0,4.6,4.6,7.4,11.2,12.4c7,5.2,9.3,8.6,9.3,14.1
			c0,7.9-8.1,12.2-16,12.2c-4.2,0-7.9-0.8-11.3-2.1c-0.3-0.1-0.5-0.4-0.5-0.9v-9.5h1.7c0.7,7.3,5.6,10.2,10.6,10.2
			c4.7,0,8.5-3.6,8.5-8.4c0-4.3-2.3-7.8-12.2-14.3c-3.6-2.4-8-5-8-12.2c0-5.9,6.6-10.6,14.2-10.6c2.8,0,6.6,0.3,9.3,1.3
			c0.4,0.1,0.5,0.4,0.5,0.7v8.7H92z"/>
		<path fill="#58595B" d="M110.2,36.2c0,9.3,2.5,16.3,12.4,16.3c9.1,0,13.8-6.1,13.8-16.7V17.5c0-1.4-0.3-2.5-0.4-3.6
			c-0.3-2.4-2.6-3.3-5.7-3.6V8.6h15.6v1.7c-3.2,0.3-5.4,1.3-5.7,3.6c-0.1,1.1-0.4,2.2-0.4,3.6v18.6c0,14.2-9.1,19.5-17.6,19.5
			c-14.1,0-18.4-7.1-18.4-19.1V16.8c0-6.1,0.3-5.8-5.7-6.5V8.6h17.8v1.7c-5.9,0.7-5.7,0.4-5.7,6.5V36.2z"/>
		<path fill="#A90533" d="M166.2,16.7l-8.6,2L155,7.9l14.9-4.2h10.2v51.2h-13.9V16.7z"/>
		<path fill="#A90533" d="M187.4,44.2l19-14.5c4.7-3.7,6.6-6.1,6.6-9.1c0-3.3-2.2-5.2-5.7-5.2c-3.4,0-6.1,2-10.1,6.6l-9.5-7.9
			c5.4-7,10.9-10.9,20.7-10.9c11.1,0,18.7,6.6,18.7,16.2v0.1c0,8.1-4.2,12.3-11.8,17.8l-8.7,6.1h21v11.5h-40.2V44.2z"/>
		<path fill="#A90533" d="M231.7,47.8l8.1-9.4c4.1,3.5,8,5.5,12.3,5.5c4.6,0,7.4-2.3,7.4-5.9v-0.1c0-3.7-3-5.9-7.5-5.9
			c-3.1,0-5.7,1.1-8.1,2.5l-8.3-4.7L237,4h34v11.6h-22.9l-0.4,7.7c2.3-1.1,4.7-1.8,8.1-1.8c9.1,0,17.4,5.1,17.4,16.1v0.1
			c0,11.2-8.6,18.1-21,18.1C243.3,55.8,237,52.7,231.7,47.8z"/>
	</g>
	<g>
		<g>
			<path fill="#58595B" d="M89,75.2h7.7v1.1h-6.5V80H96V81h-5.8v3.7h6.6v1.1H89V75.2z"/>
			<path fill="#58595B" d="M101.5,84.3l0.7-0.9c1.1,1,2.2,1.5,3.6,1.5c1.4,0,2.4-0.8,2.4-1.8v0c0-1-0.5-1.5-2.8-2
				c-2.4-0.5-3.6-1.3-3.6-3.1v0c0-1.7,1.5-2.9,3.5-2.9c1.5,0,2.7,0.4,3.7,1.3l-0.7,0.9c-1-0.8-2-1.2-3.1-1.2c-1.4,0-2.3,0.8-2.3,1.7
				v0c0,1,0.5,1.6,2.9,2.1c2.4,0.5,3.5,1.4,3.5,3v0c0,1.8-1.5,3-3.6,3C104.2,86,102.8,85.4,101.5,84.3z"/>
			<path fill="#58595B" d="M117.6,76.3H114v-1.1h8.4v1.1h-3.6v9.5h-1.2V76.3z"/>
		</g>
		<g>
			<path fill="#58595B" d="M140.8,89c0,0.9,0,1.3,0.1,2c0.1,0.6,1.1,0.6,3,0.8v0.7h-8.6v-0.7c1.9-0.2,2.9-0.2,3-0.8
				c0.1-0.7,0.1-1,0.1-2V78.4c0-1.8-1.3-1.3-2.4-0.9l-1.1,0.5l-0.3-0.8l6.2-2.5V89z"/>
			<path fill="#58595B" d="M157.6,78.5c0,2.5-2.2,3.8-3.4,4.2c2.1,1,4.4,2.3,4.4,5c0,3.1-2.6,5.1-6,5.1c-3.5,0-5.9-2.1-5.9-4.9
				c0-2.9,2.2-4,3.8-4.6c-2.1-1-3.4-2.5-3.4-4.3c0-2.6,2.7-4.4,5.5-4.4S157.6,75.9,157.6,78.5z M156.1,88.3c0-2.5-2.8-3.5-4.9-4.6
				c-1.5,0.8-2.3,1.9-2.3,4c0,2.2,1.5,4.3,3.6,4.3C154.8,92,156.1,90.4,156.1,88.3z M153.5,82.2c1.1-0.5,2.1-1.8,2.1-3.6
				c0-1.9-1.1-3.3-3-3.3c-1.9,0-3,1.4-3,3C149.5,80.1,151.3,81.3,153.5,82.2z"/>
			<path fill="#58595B" d="M162,91.5c4.7,0,7.1-3.4,7.8-7.4l0,0c-0.9,0.9-2.1,1.7-3.9,1.7c-2.6,0-5-1.7-5-5.4c0-3.1,2.4-5.7,6.1-5.7
				c3.2,0,5.9,2.2,5.8,6.8c-0.1,5.5-4.4,10.9-10.6,11.3V91.5z M166.7,75.5c-2.4,0-3.4,2.3-3.4,4.3c0,2.6,1.1,4.8,3.5,4.8
				c1.8,0,3.4-1.4,3.4-3.5C170.3,77.6,168.6,75.5,166.7,75.5z"/>
			<path fill="#58595B" d="M174.9,83.1c0-3.8,2-8.5,6.4-8.5s6.4,4.8,6.4,8.5c0,5.9-2.7,9.6-6.4,9.6C177.6,92.7,174.9,89,174.9,83.1z
				 M185.1,83.4c0-8.2-3.2-8-3.8-8c-0.6,0-3.8-0.2-3.8,8c0,8.8,3.2,8.6,3.8,8.6C182,91.9,185.1,92.1,185.1,83.4z"/>
		</g>
		<g>
			<line fill="#58595B" x1="87.8" y1="91.5" x2="122.2" y2="91.5"/>
			<rect x="87.8" y="91" fill="#58595B" width="34.5" height="1"/>
		</g>
	</g>
</g>
</svg>
