<svg xmlns="http://www.w3.org/2000/svg" xml:space="preserve" viewBox="0 0 332.35999 240.14667"><path fill="#ae0c33" d="M194.326662 170.662805s8.713333-3.720267 13.489333-18.128133c4.208 8.780267 3.108 17.807866 3.108 17.807866-3.857334.8656-16.597333.320267-16.597333.320267M241.13466 88.26134s5.314667 28.960266-13.511999 29.949866c-18.162666.9464-26.717333-26.367199-26.717333-26.367199s4.390667 53.376132 29.854666 49.859999c28.668-3.9532 10.374667-53.442666 10.374667-53.442666M102.84373 163.773205c.014667-.007733.028667-.007733.028667-.007733 21.228667-4.833333 37.4996-29.6068 42.2676-39.5516l3.036-6.296932 1.826666 6.740666c.088.364 2.068 7.804133 2.068 17.618266 0 1.092134-.029333 2.205734-.088 3.333334 7.324.2776 12.550666-1.207867 15.805333-4.586534 4.666666-4.818666 6.064-13.9552 4.332-27.918132-.86-6.6832-3.326667-17.312533-5.518667-26.6952-1.121333-4.797333-2.177333-9.333333-2.817333-12.544-4.090667-20.514665.990667-33.254665 5.969333-40.323998.793333-1.113333 1.645333-2.168 2.549333-3.158667-14.698666 4.936-27.017332 12.624-39.727599 25.318666l8.9396 10.366667 3.654667-3.421334c3.465333 12.878667.974666 24.737333.974666 24.737333-4.701333-7.162666-10.249333-12.972-10.249333-12.972l2.424-4.077333-8.0588-9.361333-.931733-1.048c-9.9084 13.605333-13.111466 24.736-13.111466 24.736l7.025466 6.436 4.0912 3.705333 1.375467-3.945334c7.564533 14.145333.655733 27.3648.655733 27.3648-1.237467-4.818667-6.2172-11.946133-6.2172-11.946133l1.9652-6.486667-10.460933-9.464c-10.876133 33.975466-25.4068 44.9828-25.4068 44.9828s15.716667-2.8312 24.474533-5.772934c0 0-.240133 17.9088-10.8756 34.238"/><path fill="#ae0c33" d="M188.785329 52.486675c5.066666-3.552 13.686666-6.282667 21.773332-5.664 2.045334.153333 3.778667-.385333 1.573334-1.549333-6.049333-3.189334-20.152-2.104-25.138666 1.294666-7.985333 5.445333-6.632 15.150666-6.449334 15.384 1.594667-2.781333 4.294667-6.705333 8.241334-9.465333m72.769331-11.290667-25.116 1.062667c.016 2.956-.377333 5.954666-1.338666 8.786666 2.344 10.250667.713333 15.812.713333 15.812-4.2-9.776-7.396-12.492-7.396-12.492-23.070665-10.242666-36.029332 12.921333-34.638665 27.868 1.129333 12.281333 5.590666 28.580532 9.064 54.155998 2.926666 21.5188-7.972 30.8224-20.508 32.954666-.269333.0376-.545333.088133-.822667.146933-.073333 0-.130666 0-.197333.014534-2.037333.262533-4.192.3704-6.470666.319866-.073334-.021333-.168-.021333-.241334-.021333-.253333 0-.494666-.036-.748-.036-.977333-.0588-1.937333-.159867-2.890666-.277067-9.756-1.346933-31.596-5.315066-54.156132-5.861466 13.271866-7.744267 23.652132-21.161466 29.446799-30.662533.334667 2.636.605333 5.8464.605333 9.383867 0 1.762533-.058666 3.6188-.241333 5.512l-.217333 2.590666 2.598666.218667c10.381333.902667 17.741333-1.0776 22.553333-6.0348 5.881333-6.1292 7.694667-16.344266 5.7-32.185466-.858667-6.943866-3.385333-17.719866-5.590667-27.219866-1.1-4.753333-2.14-9.266666-2.774666-12.382666-3.733333-18.717333.729333-30.081333 5.133333-36.312 3.429333-4.878666 8.181333-8.459999 13.396-10.177332.086666-.016.173333-.037334.268-.052l8.576-26.309333h2.693333l-5.758667 25.284c1.332-.233334 2.686667-.444 4.054667-.656l7.404-23.310667h2.664l-4.846667 22.576c7.665333-.984 15.978666-1.748 25.194666-2.425334 1.492.597334 3.109333 2.322667 4.528 4.725334l24.169333-7.433333.896 2.606666-23.106667 8.961333c.182667.473334.364.968.509334 1.470667l25.261333-3.137333.422666 2.708-24.512 4.892c.086667.458666.16.917333.241334 1.376l25.494666.822666-.016 2.737333"/><path fill="#565353" d="M87.930664 239.794586v-19.567649h13.848v3.6676h-9.681333v4.135987h9.4756v3.666666h-9.4756v4.430733h9.681333v3.666663h-13.848M117.794264 239.794586l-4.899467-7.15833-4.928666 7.15833h-4.958267l7.100533-10.03333-6.660533-9.534319h4.9584l4.488533 6.689 4.429733-6.689h5.016667l-6.658933 9.505147 7.098933 10.062502h-4.986933M129.144797 239.794586v-15.900049h-5.720267v-3.6676h15.606133v3.6676h-5.690666v15.900049h-4.1952M141.69733 239.794586v-19.567649h13.848v3.6676h-9.681334v4.135987h9.476v3.666666h-9.476v4.430733h9.681333v3.666663h-13.848M172.294662 239.794586l-9.329333-12.761462v12.761462h-4.165333v-19.567649h4.282667l9.065333 12.291613v-12.291613h4.165333v19.567649h-4.018667M178.861329 237.037297l2.26-3.167707c1.378666 1.436973 3.52 2.639573 6.22 2.639573 2.288 0 3.404-1.05572 3.404-2.170306 0-3.461453-11.266667-1.085413-11.266667-8.44952 0-3.2572 2.817333-5.956266 7.422667-5.956266 3.109333 0 5.690666.939066 7.626666 2.729733l-2.317333 3.050533c-1.584-1.468267-3.696-2.142667-5.690667-2.142667-1.789333 0-2.786666.7932-2.786666 1.966667 0 3.109333 11.236 1.026533 11.236 8.332253 0 3.57864-2.552 6.27708-7.833334 6.27708-3.756 0-6.454666-1.259896-8.274666-3.109373M197.782662 239.794586v-19.567649h4.165333v19.567649h-4.165333M221.045328 230.02531c0-3.66664-2.346667-6.423973-5.956-6.423973-3.608 0-5.925333 2.757333-5.925333 6.423973 0 3.638547 2.317333 6.42552 5.925333 6.42552 3.609333 0 5.956-2.786973 5.956-6.42552zm-16.165333 0c0-5.89744 4.313333-10.121306 10.209333-10.121306 5.928 0 10.24 4.223866 10.24 10.121306 0 5.8974-4.312 10.12136-10.24 10.12136-5.896 0-10.209333-4.22396-10.209333-10.12136M241.75466 239.794586l-9.329332-12.761462v12.761462h-4.166667v-19.567649h4.284l9.065333 12.291613v-12.291613h4.165333v19.567649h-4.018666M9.195306 208.76387l-2.07812-7.866666-2.063546 7.866667H3.054693L0 198.098804h2.095307l2.079173 8.218667 2.206773-8.218667h1.487493l2.206774 8.218667 2.062506-8.218667H14.2328l-3.038534 10.665067h-1.99896M22.205733 199.985204l-1.919334 5.0844h3.8376zm3.230266 8.778667-.783333-2.0464H19.7588l-.783734 2.0464h-2.126133l4.188533-10.665067H23.3724l4.190134 10.665067h-2.126534M31.086933 207.261204l1.039066-1.438533c.736.7828 1.888 1.469333 3.3756 1.469333 1.5348 0 2.1416-.750533 2.1416-1.4532 0-2.24-6.219733-.847866-6.219733-4.7812 0-1.7604 1.550533-3.1188 3.884933-3.1188 1.664533 0 3.006667.526667 3.998933 1.486534L38.236 200.816004c-.8324-.8308-1.967733-1.214666-3.086533-1.214666-1.1036 0-1.807334.526533-1.807334 1.326533 0 1.9828 6.2048.752133 6.2048 4.734933 0 1.774533-1.247466 3.2932-4.126666 3.2932-1.966134 0-3.389067-.6864-4.333333-1.6948M51.899465 208.76387v-4.6532h-5.548933v4.6532H44.4792v-10.665066h1.871333v4.364h5.548933v-4.364H53.7708v10.665067h-1.871334M59.247332 208.76387v-10.665066h1.871466v10.665067h-1.871466M74.027065 208.76387l-5.564533-7.611999v7.612h-1.871334v-10.665067h1.9192l5.4532 7.404134v-7.404134h1.871333v10.665067h-1.807866M80.830665 203.43987c0-3.342666 2.510533-5.517199 5.598-5.517199 2.078133 0 3.436933.990667 4.300533 2.2224l-1.535467.864133c-.558267-.8-1.566133-1.424-2.765066-1.424-2.110934 0-3.678667 1.614534-3.678667 3.854667 0 2.237467 1.567733 3.869333 3.678667 3.869333 1.086933 0 2.0464-.512 2.525466-.959866v-1.662534h-3.181733v-1.646933h5.053066v3.997466c-1.056133 1.166667-2.5432 1.9348-4.3968 1.9348-3.087466 0-5.598-2.190533-5.598-5.532266M98.44533 208.76387v-9.018799h-3.230799v-1.646267h8.3324v1.646267h-3.2308v9.0188h-1.8708M116.442664 203.43987c0-2.207732-1.3916-3.854666-3.533867-3.854666-2.1588 0-3.533733 1.646934-3.533733 3.854667 0 2.1896 1.374933 3.852133 3.533733 3.852133 2.142267 0 3.533867-1.662533 3.533867-3.852133zm-8.986933 0c0-3.182799 2.2536-5.517199 5.453066-5.517199 3.198 0 5.4532 2.3344 5.4532 5.5172 0 3.181333-2.2552 5.516133-5.4532 5.516133-3.199466 0-5.453066-2.3348-5.453066-5.516133M130.811463 208.76387l-5.565066-7.611999v7.612h-1.871333v-10.665067h1.9192l5.453066 7.404134v-7.404134h1.871467v10.665067h-1.807334M144.718663 207.261204l1.038667-1.438533c.736.7828 1.888 1.469333 3.376 1.469333 1.534666 0 2.141333-.750533 2.141333-1.4532 0-2.24-6.22-.847866-6.22-4.7812 0-1.7604 1.550667-3.1188 3.885333-3.1188 1.664 0 3.006667.526667 3.998667 1.486534l-1.072 1.390666c-.832-.8308-1.966667-1.214666-3.085333-1.214666-1.104 0-1.808.526533-1.808 1.326533 0 1.9828 6.205333.752133 6.205333 4.734933 0 1.774533-1.248 3.2932-4.126667 3.2932-1.966666 0-3.389333-.6864-4.333333-1.6948M160.491996 208.76387v-9.018799h-3.229333v-1.646267h8.330666v1.646267h-3.230666v9.0188h-1.870667M173.581329 199.985204l-1.92 5.0844h3.837333zm3.229333 8.778667-.782666-2.0464h-4.893334l-.784 2.0464h-2.126666l4.189333-10.665067h2.334667l4.189333 10.665067h-2.126667M184.811995 208.76387v-9.018799h-3.228v-1.646267h8.330667v1.646267h-3.230667v9.0188h-1.872M194.701328 208.76387v-10.665066h7.309334v1.646267h-5.437334v2.7656h5.325334v1.648h-5.325334v2.9588h5.437334v1.6464h-7.309334M214.445328 204.55867v-6.459866h1.886667v6.395734c0 1.6948.944 2.797466 2.734666 2.797466 1.776 0 2.718667-1.102666 2.718667-2.797466v-6.395734h1.886666v6.443734c0 2.654666-1.518666 4.413466-4.605333 4.413466-3.101333 0-4.621333-1.776-4.621333-4.397333M236.585327 208.76387l-5.564-7.611999v7.612h-1.872v-10.665067h1.92l5.453334 7.404134v-7.404134h1.870666v10.665067h-1.808M243.869327 208.76387v-10.665066h1.872v10.665067h-1.872M254.283994 208.76387l-4.190667-10.665066h2.126667l3.230666 8.634267 3.230667-8.634267h2.125333l-4.188 10.665067h-2.334666M265.181327 208.76387v-10.665066h7.306666v1.646267h-5.436v2.7656h5.324v1.648h-5.324v2.9588h5.436v1.6464h-7.306666M283.863993 201.439871c0-1.023867-.766667-1.6948-1.822667-1.6948h-2.558666v3.3896h2.558666c1.056 0 1.822667-.671867 1.822667-1.6948zm-.16 7.324-2.365333-3.9812h-1.856v3.9812h-1.870667v-10.665067h4.686667c2.110666 0 3.485333 1.3744 3.485333 3.341067 0 1.902667-1.248 2.926533-2.528 3.134933l2.606667 4.189067h-2.158667M290.173326 207.261204l1.038667-1.438533c.736.7828 1.888 1.469333 3.374666 1.469333 1.536 0 2.142667-.750533 2.142667-1.4532 0-2.24-6.22-.847866-6.22-4.7812 0-1.7604 1.550667-3.1188 3.885333-3.1188 1.664 0 3.006667.526667 3.998667 1.486534l-1.072 1.390666c-.832-.8308-1.966667-1.214666-3.085333-1.214666-1.104 0-1.808.526533-1.808 1.326533 0 1.9828 6.205333.752133 6.205333 4.734933 0 1.774533-1.248 3.2932-4.126667 3.2932-1.966666 0-3.389333-.6864-4.333333-1.6948M303.565326 208.76387v-10.665066h1.870666v10.665067h-1.870666M313.450659 208.76387v-9.018799h-3.229333v-1.646267h8.330666v1.646267h-3.230667v9.0188h-1.870666M326.361325 208.76387v-4.4292l-4.14-6.235866h2.141334l2.942666 4.573334 2.910667-4.573334h2.144l-4.126667 6.235867v4.4292h-1.872"/></svg>