<svg xmlns="http://www.w3.org/2000/svg" xml:space="preserve" viewBox="0 0 332.35999 247.38667"><path fill="#ae0c33" d="M194.326662 170.662672s8.713333-3.720267 13.489333-18.128133c4.208 8.780266 3.108 17.8084 3.108 17.8084-3.857334.865066-16.597333.319733-16.597333.319733M241.13466 88.26134s5.314667 28.960267-13.511999 29.949867c-18.162666.946266-26.717333-26.3672-26.717333-26.3672s4.390667 53.375999 29.854666 49.859866c28.668-3.9532 10.374667-53.442532 10.374667-53.442532M102.84373 163.773072c.014667-.007733.028667-.007733.028667-.007733 21.228667-4.833333 37.4996-29.6068 42.2676-39.5516l3.036-6.2968 1.826666 6.740534c.088.364133 2.068 7.804133 2.068 17.618266 0 1.092134-.029333 2.205734-.088 3.333334 7.324.2776 12.550666-1.207867 15.805333-4.5864 4.666666-4.8188 6.064-13.955333 4.332-27.918666-.86-6.682667-3.326667-17.312-5.518667-26.694666-1.121333-4.797334-2.177333-9.333333-2.817333-12.544-4.090667-20.514666.990667-33.254666 5.969333-40.323999.793333-1.113333 1.645333-2.169333 2.549333-3.158667-14.698666 4.934667-27.017332 12.622667-39.727599 25.318666l8.9396 10.366667 3.654667-3.421333c3.465333 12.878666.974666 24.737332.974666 24.737332-4.701333-7.162666-10.249333-12.972-10.249333-12.972l2.424-4.077333-8.0588-9.361333-.931733-1.048c-9.9084 13.605333-13.111466 24.736-13.111466 24.736l7.025466 6.436 4.0912 3.705333 1.375467-3.945333c7.564533 14.145333.655733 27.364799.655733 27.364799-1.237467-4.819467-6.2172-11.946133-6.2172-11.946133l1.9652-6.486667-10.460933-9.464c-10.876133 33.975866-25.4068 44.982666-25.4068 44.982666s15.716667-2.8312 24.474533-5.772933c0 0-.240133 17.908933-10.8756 34.238"/><path fill="#ae0c33" d="M188.785329 52.486675c5.066666-3.552 13.686666-6.281333 21.773332-5.664 2.045334.153333 3.778667-.385333 1.573334-1.549333-6.049333-3.189334-20.152-2.104-25.138666 1.294666-7.985333 5.445334-6.632 15.150667-6.449334 15.382667 1.594667-2.781334 4.294667-6.704 8.241334-9.464m72.769331-11.290667-25.116 1.062667c.016 2.956-.377333 5.954667-1.338666 8.786667 2.344 10.250666.713333 15.812.713333 15.812-4.2-9.776-7.396-12.492-7.396-12.492-23.070665-10.242667-36.029332 12.921333-34.638665 27.867999 1.129333 12.281333 5.590666 28.58 9.064 54.155998 2.926666 21.518667-7.972 30.8228-20.508 32.954666-.269333.037467-.545333.088-.822667.1468-.073333 0-.130666 0-.197333.014667-2.037333.2624-4.192.370267-6.470666.319733-.073334-.021333-.168-.021333-.241334-.021333-.253333 0-.494666-.036-.748-.036-.977333-.0588-1.937333-.159867-2.890666-.277067-9.756-1.3468-31.596-5.314533-54.156132-5.861466 13.271866-7.744267 23.652132-21.161466 29.446799-30.6624.334667 2.635867.605333 5.846267.605333 9.383734 0 1.762533-.058666 3.6188-.241333 5.512l-.217333 2.590666 2.598666.2188c10.381333.902533 17.741333-1.0776 22.553333-6.034933 5.881333-6.1292 7.694667-16.343733 5.7-32.1852-.858667-6.944-3.385333-17.719999-5.590667-27.219999-1.1-4.753333-2.14-9.266666-2.774666-12.382666-3.733333-18.717333.729333-30.081333 5.133333-36.313332 3.429333-4.877334 8.181333-8.458667 13.396-10.176.086666-.016.173333-.037333.268-.052l8.576-26.309333h2.693333l-5.758667 25.282666c1.332-.232 2.686667-.442666 4.054667-.654666l7.404-23.310667h2.664l-4.846667 22.576c7.665333-.984 15.978666-1.748 25.194666-2.425333 1.492.597333 3.109333 2.322666 4.528 4.725333l24.169333-7.433333.896 2.606666-23.106667 8.961333c.182667.473334.364.968.509334 1.470667l25.261333-3.137333.422666 2.708-24.512 4.892c.086667.458666.16.917333.241334 1.376l25.494666.822666-.016 2.737333"/><path fill="#565353" d="m9.195306 208.763738-2.07812-7.866667-2.063546 7.866667H3.054693L0 198.09867h2.095307l2.079173 8.218667 2.206773-8.218667h1.487493l2.206774 8.218667 2.062506-8.218667H14.2328l-3.038534 10.665067h-1.99896M22.205733 199.985071l-1.919334 5.0844h3.8376zm3.230266 8.778667-.783333-2.0464H19.7588l-.783734 2.0464h-2.126133l4.188533-10.665067H23.3724l4.190134 10.665067h-2.126534M31.088533 207.261204l1.039066-1.438533c.736.7828 1.8864 1.4692 3.374 1.4692 1.5348 0 2.1432-.750533 2.1432-1.453067 0-2.240133-6.220266-.848-6.220266-4.781333 0-1.7604 1.550533-3.118666 3.885333-3.118666 1.663066 0 3.006266.526533 3.997466 1.4864L38.236 200.81587c-.831333-.8308-1.966667-1.214666-3.086533-1.214666-1.102534 0-1.807334.526666-1.807334 1.326666 0 1.9828 6.2048.752 6.2048 4.7348 0 1.774533-1.247466 3.293333-4.125066 3.293333-1.967734 0-3.390667-.686533-4.333333-1.6948M51.899465 208.763738v-4.653067H46.3516v4.653067h-1.870933V198.09867h1.870933v4.364h5.547866v-4.364H53.7708v10.665067h-1.871334M59.247332 208.763738V198.09867h1.871466v10.665067h-1.871466M74.027065 208.763738l-5.564533-7.612v7.612h-1.871334V198.09867h1.9192l5.4532 7.404133v-7.404133h1.871333v10.665067h-1.807866M80.831731 203.439738c0-3.342667 2.5104-5.517067 5.596934-5.517067 2.0792 0 3.438533.990534 4.302 2.2228l-1.535334.8636c-.559867-.799466-1.567733-1.424-2.766666-1.424-2.110934 0-3.677067 1.6152-3.677067 3.854667 0 2.2376 1.566133 3.869866 3.677067 3.869866 1.086933 0 2.0464-.512533 2.527066-.9604v-1.662533h-3.182266v-1.646933h5.053066v3.997466c-1.055733 1.166667-2.542667 1.934934-4.397866 1.934934-3.086534 0-5.596934-2.190667-5.596934-5.5324M98.44533 208.763738v-9.018267h-3.229199v-1.6468h8.3308v1.6468h-3.2308v9.018267h-1.8708M116.442664 203.439738c0-2.207734-1.3916-3.854667-3.533867-3.854667-2.1588 0-3.533733 1.646933-3.533733 3.854667 0 2.1896 1.374933 3.852133 3.533733 3.852133 2.142267 0 3.533867-1.662533 3.533867-3.852133zm-8.986933 0c0-3.182267 2.2536-5.517067 5.453066-5.517067 3.198 0 5.4532 2.3348 5.4532 5.517067 0 3.181866-2.2552 5.516266-5.4532 5.516266-3.199466 0-5.453066-2.3344-5.453066-5.516266M130.811463 208.763738l-5.565066-7.612v7.612h-1.871333V198.09867h1.9192l5.453066 7.404133v-7.404133h1.871467v10.665067h-1.807334M144.719996 207.261204l1.038667-1.438533c.736.7828 1.886667 1.4692 3.374667 1.4692 1.534666 0 2.142666-.750533 2.142666-1.453067 0-2.240133-6.22-.848-6.22-4.781333 0-1.7604 1.550667-3.118666 3.885334-3.118666 1.662666 0 3.006666.526533 3.997333 1.4864l-1.072 1.390666c-.830667-.8308-1.965333-1.214666-3.085333-1.214666-1.102667 0-1.808.526666-1.808 1.326666 0 1.9828 6.205333.752 6.205333 4.7348 0 1.774533-1.248 3.293333-4.125333 3.293333-1.968 0-3.390667-.686533-4.333334-1.6948M160.49333 208.763738v-9.018267h-3.230667v-1.6468h8.332v1.6468h-3.230667v9.018267h-1.870667M173.581329 199.985071l-1.92 5.0844h3.838667zm3.229333 8.778667-.782666-2.0464h-4.893334l-.784 2.0464h-2.126666l4.190666-10.665067h2.334667l4.188 10.665067h-2.126667M184.813329 208.763738v-9.018267h-3.229334v-1.6468h8.332v1.6468h-3.230666v9.018267h-1.872M194.702662 208.763738V198.09867h7.309333v1.6468h-5.437333v2.7652h5.325333v1.647867h-5.325333v2.9588h5.437333v1.6464h-7.309333M214.446661 204.558538v-6.459867h1.886667v6.395867c0 1.6948.944 2.797333 2.734667 2.797333 1.776 0 2.718666-1.102533 2.718666-2.797333v-6.395867h1.886667v6.444267c0 2.654133-1.518667 4.413066-4.605333 4.413066-3.101334 0-4.621334-1.776133-4.621334-4.397466M236.585327 208.763738l-5.562666-7.612v7.612h-1.872V198.09867h1.918667l5.453333 7.404133v-7.404133h1.870666v10.665067h-1.808M243.87066 208.763738V198.09867h1.872v10.665067h-1.872M254.285327 208.763738l-4.190667-10.665067h2.126667l3.230667 8.634933 3.230666-8.634933h2.125333l-4.188 10.665067h-2.334666M265.18266 208.763738V198.09867h7.306667v1.6468h-5.436v2.7652h5.324v1.647867h-5.324v2.9588h5.436v1.6464h-7.306667M283.86666 201.439738c0-1.023867-.768-1.694267-1.822667-1.694267h-2.558667v3.389067h2.558667c1.054667 0 1.822667-.671867 1.822667-1.6948zm-.16 7.324-2.366667-3.9812h-1.854667v3.9812h-1.870666V198.09867h4.685333c2.110667 0 3.485333 1.3744 3.485333 3.341067 0 1.902666-1.248 2.9272-2.526666 3.134933l2.606666 4.189067h-2.158666M290.17466 207.261204l1.038666-1.438533c.736.7828 1.888 1.4692 3.374667 1.4692 1.536 0 2.142666-.750533 2.142666-1.453067 0-2.240133-6.22-.848-6.22-4.781333 0-1.7604 1.550667-3.118666 3.885334-3.118666 1.664 0 3.006666.526533 3.998666 1.4864l-1.072 1.390666c-.832-.8308-1.966666-1.214666-3.085333-1.214666-1.104 0-1.808.526666-1.808 1.326666 0 1.9828 6.205333.752 6.205333 4.7348 0 1.774533-1.248 3.293333-4.126666 3.293333-1.966667 0-3.389334-.686533-4.333334-1.6948M303.56666 208.763738V198.09867h1.870666v10.665067h-1.870667M313.451992 208.763738v-9.018267h-3.229333v-1.6468h8.330666v1.6468h-3.230666v9.018267h-1.870667M326.362659 208.763738v-4.4292l-4.14-6.235867h2.141333l2.942666 4.573467 2.910667-4.573467h2.144l-4.126667 6.235867v4.4292h-1.872M86.037465 233.548137c0-8.440133 6.4-13.8 14.199466-13.8 5.56 0 9.0396 2.8 11.0396 5.959867l-4.719734 2.559866c-1.2-1.8796-3.480266-3.4812-6.319866-3.4812-4.8396 0-8.359333 3.721334-8.359333 8.761467 0 5.038533 3.519733 8.75832 8.359333 8.75832 2.36 0 4.599466-1.039574 5.679733-2.039573v-3.2h-7.0396v-4.95888h12.719333v10.23856c-2.719333 3.040106-6.519866 5.040106-11.359466 5.040106-7.799467 0-14.199466-5.438547-14.199466-13.838533M118.117197 246.866878v-26.678607h5.679733v21.678612h11.279067v4.999995h-16.9588M160.715996 233.548137c0-5-3.2-8.761466-8.12-8.761466-4.92 0-8.078666 3.761466-8.078666 8.761466 0 4.959893 3.158666 8.75832 8.078666 8.75832s8.12-3.798427 8.12-8.75832zm-22.038666 0c0-8.040133 5.878666-13.8 13.918666-13.8 8.08 0 13.96 5.759867 13.96 13.8 0 8.038533-5.88 13.798429-13.96 13.798429-8.04 0-13.918666-5.759896-13.918666-13.798429M188.997329 238.866884c0-1.680214-1.2-3.12032-3.44-3.12032h-7.32v6.20156h7.32c2.16 0 3.44-1.161454 3.44-3.08124zm-.521334-10.878614c0-1.680266-1.198666-2.9204-3.118666-2.9204h-7.12v5.8h7.12c1.92 0 3.118666-1.2 3.118666-2.8796zm-15.918666 18.878608v-26.678607h14.038666c5.081334 0 7.68 3.2396 7.68 6.8 0 3.358266-2.08 5.5984-4.598666 6.119733 2.84.440133 5.12 3.198453 5.12 6.55992 0 4-2.68 7.198954-7.761334 7.198954H172.55733M212.117328 225.86787l-4.16 11.478694h8.318667zm7.358667 20.999008-1.64-4.520315h-11.438667l-1.68 4.520315h-6.48l10.32-26.678607h7.12l10.278666 26.678607h-6.48M230.437328 246.866878v-26.678607h5.68v21.678612h11.278666v4.999995h-16.958666"/></svg>