<svg xmlns="http://www.w3.org/2000/svg" xml:space="preserve" viewBox="0 0 332.35999 247.33333"><g fill="#fff"><path d="M194.326662 170.662532s8.713333-3.719867 13.489333-18.1276c4.208 8.7796 3.108 17.807733 3.108 17.807733-3.857334.8652-16.597333.319867-16.597333.319867M241.13466 88.261334s5.314667 28.96-13.511999 29.9496c-18.162666.946933-26.717333-26.368267-26.717333-26.368267s4.390667 53.377066 29.854666 49.861466c28.668-3.9536 10.374667-53.442799 10.374667-53.442799M102.84373 163.773465c.014667-.0084.028667-.0084.028667-.0084 21.228667-4.833333 37.4996-29.606266 42.2676-39.551465l3.036-6.296933 1.826666 6.7412c.088.364 2.068 7.804133 2.068 17.618132 0 1.092267-.029333 2.2052-.088 3.333334 7.324.277066 12.550666-1.207734 15.805333-4.586934 4.666666-4.818266 6.064-13.9552 4.332-27.918399-.86-6.682666-3.326667-17.310666-5.518667-26.694666-1.121333-4.797333-2.177333-9.333333-2.817333-12.544-4.090667-20.514666.990667-33.254665 5.969333-40.323999.793333-1.113333 1.645333-2.168 2.549333-3.158666-14.698666 4.934666-27.017332 12.624-39.727599 25.32l8.9396 10.366666L145.16933 62.648c3.465333 12.877333.974666 24.736.974666 24.736-4.701333-7.162667-10.249333-12.972-10.249333-12.972l2.424-4.077333-8.0588-9.361333-.931733-1.049334c-9.9084 13.606667-13.111466 24.737333-13.111466 24.737333l7.025466 6.436 4.0912 3.705333 1.375467-3.945333c7.564533 14.145333.655733 27.365066.655733 27.365066-1.237467-4.819733-6.2172-11.9464-6.2172-11.9464l1.9652-6.486666-10.460933-9.464c-10.876133 33.975732-25.4068 44.982532-25.4068 44.982532s15.716667-2.831333 24.474533-5.7724c0 0-.240133 17.908266-10.8756 34.238"/><path d="M188.785329 52.486668c5.066666-3.552 13.686666-6.281333 21.773332-5.662666 2.045334.152 3.778667-.386667 1.573334-1.550667-6.049333-3.189333-20.152-2.104-25.138666 1.296-7.985333 5.445333-6.632 15.149333-6.449334 15.382666 1.594667-2.781333 4.294667-6.705333 8.241334-9.465333m72.769331-11.290666-25.116 1.062666c.016 2.956-.377333 5.954667-1.338666 8.786667 2.344 10.250666.713333 15.812.713333 15.812-4.2-9.776-7.396-12.492-7.396-12.492-23.070665-10.242667-36.029332 12.922666-34.638665 27.868 1.129333 12.281332 5.590666 28.581332 9.064 54.156264 2.926666 21.518267-7.972 30.8224-20.508 32.954133-.269333.037467-.545333.088-.822667.146933-.073333 0-.130666 0-.197333.014534-2.037333.263066-4.192.3708-6.470666.320266-.073334-.021333-.168-.021333-.241334-.021333-.253333 0-.494666-.035867-.748-.035867-.977333-.058933-1.937333-.1604-2.890666-.2776-9.756-1.346933-31.596-5.314666-54.156132-5.861466 13.271866-7.743733 23.652132-21.160933 29.446799-30.662.334667 2.635467.605333 5.8464.605333 9.383334 0 1.763066-.058666 3.6188-.241333 5.512l-.217333 2.590533 2.598666.2188c10.381333.902666 17.741333-1.077067 22.553333-6.0344 5.881333-6.1296 7.694667-16.344266 5.7-32.185466-.858667-6.945333-3.385333-17.718666-5.590667-27.218666-1.1-4.754666-2.14-9.268-2.774666-12.384-3.733333-18.717333.729333-30.081332 5.133333-36.313332 3.429333-4.877333 8.181333-8.458667 13.396-10.176.086666-.014666.173333-.036.268-.052l8.576-26.309332h2.693333l-5.758667 25.283999c1.332-.233333 2.686667-.444 4.054667-.656l7.404-23.310666h2.664l-4.846667 22.576c7.665333-.984 15.978666-1.748 25.194666-2.425334 1.492.597333 3.109333 2.324 4.528 4.725333l24.169333-7.432.896 2.605334-23.106667 8.961333c.182667.473333.364.968.509334 1.470666l25.261333-3.137333.422666 2.708-24.512 4.892c.086667.458667.16.917333.241334 1.376l25.494666.822667-.016 2.737333M46.072932 246.85208l-10.320266-26.678616h6.480133l7.4 20.51872 7.359333-20.51872h6.4792l-10.278667 26.678615h-7.119733M77.111998 225.85213l-4.159866 11.4812h8.320266zm7.359333 20.99995-1.6396-4.51875h-11.44l-1.6792 4.51875h-6.479733l10.319333-26.678616h7.119734l10.280266 26.678615h-6.4808M113.830664 246.85208l-12.718667-17.399016v17.399015h-5.679733v-26.678615h5.840133l12.3588 16.759866v-16.759866h5.680267v26.678615h-5.4808M125.311464 233.53333c0-8.2 6.200533-13.8016 14.1992-13.8016 5.879999 0 9.279999 3.2016 11.159999 6.521334l-4.88 2.4c-1.12-2.159867-3.52-3.8796-6.28-3.8796-4.84 0-8.3596 3.719733-8.3596 8.759866 0 5.038547 3.5196 8.758853 8.3596 8.758853 2.76 0 5.16-1.67864 6.28-3.880213l4.88 2.361467c-1.92 3.318746-5.28 6.559893-11.16 6.559893-7.998666 0-14.1992-5.60156-14.1992-13.8M176.830662 233.53333c0-5-3.2-8.759866-8.12-8.759866-4.92 0-8.078666 3.759866-8.078666 8.759866 0 4.959894 3.158667 8.758853 8.078666 8.758853 4.92 0 8.12-3.79896 8.12-8.758853zm-22.038666 0c0-8.040133 5.878667-13.8016 13.918666-13.8016 8.08 0 13.96 5.761467 13.96 13.8016 0 8.038547-5.88 13.8-13.96 13.8-8.04 0-13.918666-5.761453-13.918666-13.8M188.671995 236.213544v-16.04008h5.758667v15.838506c0 3.7198 2.16 6.280213 6.28 6.280213s6.24-2.560413 6.24-6.280213v-15.838506h5.8v15.999973c0 6.638533-3.92 11.159893-12.04 11.159893s-12.038667-4.559893-12.038667-11.119786M227.471994 246.85208l-10.321333-26.678616h6.481333l7.398667 20.51872 7.36-20.51872h6.478666l-10.278666 26.678615h-7.118667M249.35066 246.85208v-26.678616h18.878667v5h-13.2v5.640133h12.92v4.999947h-12.92v6.038533h13.2v5.000002H249.35066M290.309326 228.773464c0-2.240133-1.72-3.6-4-3.6h-5.958666v7.2h5.958666c2.28 0 4-1.361467 4-3.6zm-.558667 18.078615-5.24-9.478642h-4.16v9.478642h-5.68v-26.678615h12.478667c5.56 0 8.96 3.640133 8.96 8.6 0 4.719733-2.96 7.238506-5.84 7.91872l6 10.159895h-6.518667M9.195306 208.763998l-2.07812-7.866667-2.063546 7.866667H3.054693L0 198.098398h2.095307l2.079173 8.2188 2.206773-8.2188h1.487493l2.206774 8.2188 2.062506-8.2188H14.2328l-3.038534 10.6656h-1.99896M22.205733 199.985465l-1.919334 5.083866h3.8376zm3.230266 8.778533-.783333-2.0468H19.7588l-.783734 2.0468h-2.126133l4.188533-10.6656H23.3724l4.190134 10.6656h-2.126534M31.088533 207.261464l1.039066-1.439066c.736.7828 1.8864 1.469733 3.374 1.469733 1.5348 0 2.1432-.750933 2.1432-1.4536 0-2.240133-6.220266-.847867-6.220266-4.7812 0-1.76 1.550533-3.1188 3.885333-3.1188 1.663066 0 3.006266.526534 3.997466 1.486934L38.236 200.81613c-.831333-.830666-1.966667-1.214533-3.086533-1.214533-1.102534 0-1.807334.526533-1.807334 1.326533 0 1.982267 6.2048.752133 6.2048 4.7344 0 1.774933-1.247466 3.293733-4.125066 3.293733-1.967734 0-3.390667-.686933-4.333333-1.6948M51.899465 208.763998v-4.6536H46.3516v4.6536h-1.870933v-10.6656h1.870933v4.364133h5.547866v-4.364133H53.7708v10.6656h-1.871334M59.247332 208.763998v-10.6656h1.871466v10.6656h-1.871466M74.027065 208.763998l-5.564533-7.611867v7.611867h-1.871334v-10.6656h1.9192l5.4532 7.404266v-7.404266h1.871333v10.6656h-1.807866M80.831731 203.440131c0-3.3428 2.5104-5.517733 5.596934-5.517733 2.0792 0 3.438533.9912 4.302 2.222933l-1.535334.864c-.559867-.8-1.567733-1.423866-2.766666-1.423866-2.110934 0-3.677067 1.614533-3.677067 3.854666 0 2.236933 1.566133 3.8692 3.677067 3.8692 1.086933 0 2.0464-.512 2.527066-.959867v-1.663066h-3.182266v-1.646267h5.053066v3.997333c-1.055733 1.166667-2.542667 1.9344-4.397866 1.9344-3.086534 0-5.596934-2.190666-5.596934-5.531733M98.44533 208.763998v-9.018667h-3.229199v-1.646933h8.3308v1.646933h-3.2308v9.018667h-1.8708M116.442664 203.440131c0-2.2084-1.3916-3.854666-3.533867-3.854666-2.1588 0-3.533733 1.646266-3.533733 3.854666 0 2.189067 1.374933 3.852 3.533733 3.852 2.142267 0 3.533867-1.662933 3.533867-3.852zm-8.986933 0c0-3.1828 2.2536-5.517733 5.453066-5.517733 3.198 0 5.4532 2.334933 5.4532 5.517733 0 3.1812-2.2552 5.516133-5.4532 5.516133-3.199466 0-5.453066-2.334933-5.453066-5.516133M130.811463 208.763998l-5.565066-7.611867v7.611867h-1.871333v-10.6656h1.9192l5.453066 7.404266v-7.404266h1.871467v10.6656h-1.807334M144.719996 207.261464l1.038667-1.439066c.736.7828 1.886667 1.469733 3.374667 1.469733 1.534666 0 2.142666-.750933 2.142666-1.4536 0-2.240133-6.22-.847867-6.22-4.7812 0-1.76 1.550667-3.1188 3.885334-3.1188 1.662666 0 3.006666.526534 3.997333 1.486934l-1.072 1.390666c-.830667-.830666-1.965333-1.214533-3.085333-1.214533-1.102667 0-1.808.526533-1.808 1.326533 0 1.982267 6.205333.752133 6.205333 4.7344 0 1.774933-1.248 3.293733-4.125333 3.293733-1.968 0-3.390667-.686933-4.333334-1.6948M160.49333 208.763998v-9.018667h-3.230667v-1.646933h8.332v1.646933h-3.230667v9.018667h-1.870667M173.581329 199.985465l-1.92 5.083866h3.838667zm3.229333 8.778533-.782666-2.0468h-4.893334l-.784 2.0468h-2.126666l4.190666-10.6656h2.334667l4.188 10.6656h-2.126667M184.813329 208.763998v-9.018667h-3.229334v-1.646933h8.332v1.646933h-3.230666v9.018667h-1.872M194.702662 208.763998v-10.6656h7.309333v1.646933h-5.437333v2.765067h5.325333v1.6484h-5.325333v2.9584h5.437333v1.6468h-7.309333M214.446661 204.558798v-6.4604h1.886667v6.3964c0 1.6948.944 2.797333 2.734667 2.797333 1.776 0 2.718666-1.102533 2.718666-2.797333v-6.3964h1.886667v6.444266c0 2.654667-1.518667 4.4136-4.605333 4.4136-3.101334 0-4.621334-1.776-4.621334-4.397466M236.585327 208.763998l-5.562666-7.611867v7.611867h-1.872v-10.6656h1.918667l5.453333 7.404266v-7.404266h1.870666v10.6656h-1.808M243.87066 208.763998v-10.6656h1.872v10.6656h-1.872M254.285327 208.763998l-4.190667-10.6656h2.126667l3.230667 8.634933 3.230666-8.634933h2.125333l-4.188 10.6656h-2.334666M265.18266 208.763998v-10.6656h7.306667v1.646933h-5.436v2.765067h5.324v1.6484h-5.324v2.9584h5.436v1.6468h-7.306667M283.86666 201.440131c0-1.024-.768-1.6948-1.822667-1.6948h-2.558667v3.3896h2.558667c1.054667 0 1.822667-.6724 1.822667-1.6948zm-.16 7.323867-2.366667-3.9812h-1.854667v3.9812h-1.870666v-10.6656h4.685333c2.110667 0 3.485333 1.375067 3.485333 3.341733 0 1.902533-1.248 2.926533-2.526666 3.1344l2.606666 4.189467h-2.158666M290.17466 207.261464l1.038666-1.439066c.736.7828 1.888 1.469733 3.374667 1.469733 1.536 0 2.142666-.750933 2.142666-1.4536 0-2.240133-6.22-.847867-6.22-4.7812 0-1.76 1.550667-3.1188 3.885334-3.1188 1.664 0 3.006666.526534 3.998666 1.486934l-1.072 1.390666c-.832-.830666-1.966666-1.214533-3.085333-1.214533-1.104 0-1.808.526533-1.808 1.326533 0 1.982267 6.205333.752133 6.205333 4.7344 0 1.774933-1.248 3.293733-4.126666 3.293733-1.966667 0-3.389334-.686933-4.333334-1.6948M303.56666 208.763998v-10.6656h1.870666v10.6656h-1.870667M313.451992 208.763998v-9.018667h-3.229333v-1.646933h8.330666v1.646933h-3.230666v9.018667h-1.870667M326.362659 208.763998v-4.429067l-4.14-6.236533h2.141333l2.942666 4.573466 2.910667-4.573466h2.144l-4.126667 6.236533v4.429067h-1.872"/></g></svg>