<?xml version="1.0" encoding="utf-8"?>
<!-- Generator: Adobe Illustrator 18.0.0, SVG Export Plug-In . SVG Version: 6.00 Build 0)  -->
<!DOCTYPE svg PUBLIC "-//W3C//DTD SVG 1.1//EN" "http://www.w3.org/Graphics/SVG/1.1/DTD/svg11.dtd">
<svg version="1.1" id="Layer_1" xmlns="http://www.w3.org/2000/svg" xmlns:xlink="http://www.w3.org/1999/xlink" x="0px" y="0px"
	 viewBox="0 0 150 109.9" enable-background="new 0 0 150 109.9" xml:space="preserve">
<g>
	<path fill="#FFFFFF" d="M29.4,109.8v-7h-2.5V102H33v0.8h-2.5v7H29.4z"/>
	<path fill="#FFFFFF" d="M38.5,102h2.2c1.3,0,2.3,0.7,2.3,2c0,1.1-0.6,1.8-1.3,2.3l1.9,3.3l-1.1,0.3l-1.8-3.4h-1.1v3.2h-1.1
		L38.5,102L38.5,102z M39.5,105.8h0.6c1.4,0,1.6-1,1.6-1.7c0-1-0.6-1.3-1.3-1.3h-0.9V105.8z"/>
	<path fill="#FFFFFF" d="M50,109.8V102h1.1v7.8H50z"/>
	<path fill="#FFFFFF" d="M57.9,106.9V106h2.8v0.9H57.9z"/>
	<path fill="#FFFFFF" d="M73.3,103.3c-0.4-0.3-1.2-0.7-2-0.7c-1.9,0-3.1,1.4-3.1,3.2c0,2,1.4,3.3,3.1,3.3c0.8,0,1.5-0.3,2-0.6
		l0.4,0.6c-0.5,0.4-1.4,0.7-2.5,0.7c-2.8,0-4.2-1.9-4.2-4.1c0-2,1.5-4,4.3-4c1.1,0,1.9,0.4,2.4,0.8L73.3,103.3z"/>
	<path fill="#FFFFFF" d="M80.4,109.8V102h1.1v7.8H80.4z"/>
	<path fill="#FFFFFF" d="M90.3,109.8v-7h-2.5V102h6.1v0.8h-2.5v7H90.3z"/>
	<path fill="#FFFFFF" d="M100.3,109.8V102h1.1v7.8H100.3z"/>
	<path fill="#FFFFFF" d="M112.4,102.8h-2.8v2.5h2.7v0.8h-2.7v2.9h3.2v0.8h-4.3V102h3.8V102.8z"/>
	<path fill="#FFFFFF" d="M123.1,103.2c-0.4-0.3-0.9-0.6-1.4-0.6c-0.8,0-1.2,0.5-1.2,1.1c0,0.6,0.5,1,1.5,1.7
		c1.1,0.8,1.7,1.5,1.7,2.5c0,1.2-1.2,2-2.4,2c-0.7,0-1.6-0.3-2.2-0.8l0.5-0.6c0.5,0.3,1,0.7,1.7,0.7c0.8,0,1.4-0.4,1.4-1.3
		c0-1-1.2-1.6-1.8-2.1c-0.6-0.5-1.4-1-1.4-2.1c0-1,1-1.8,2.2-1.8c0.8,0,1.5,0.3,1.9,0.8L123.1,103.2z"/>
</g>
<g>
	<g>
		<path fill="#FFFFFF" d="M95.6,83c-1.6-1.2-2.7-1.8-2.7-2.9c0-1.2,0.8-1.6,1.7-1.6c1.3,0,1.8,0.9,2,2h0.4v-2.1c0-0.1,0-0.1-0.1-0.2
			c-0.6-0.2-1.5-0.3-2.2-0.3c-1.8,0-3.4,1.1-3.4,2.5c0,0.8,0.2,1.3,0.5,1.7h0c0,0,0,0,0,0c0.4,0.5,0.9,0.8,1.4,1.1
			c2.4,1.6,2.9,2.4,2.9,3.4c0,2.3-4.2,3.5-7-0.9l-1.4-2.2c1.1-0.4,2.1-1.5,2.1-3c0-1.7-1.5-2.5-3-2.5h-4.3v0.4
			c1.3,0.2,1.3,0.1,1.3,1.5v6.7c0,1.4,0.1,1.3-1.3,1.5v0.4h4v-0.4c-1.3-0.2-1.3-0.1-1.3-1.5v-2.7h1.4c1.8,3,2.2,4.3,3.1,4.6
			c0.2,0.1,2.5,0.8,4.2,0.8c1.9,0,3.9-1,3.9-2.9C97.8,85.1,97.3,84.3,95.6,83z M86.5,83.5h-1.2v-4.8h1.1c1.1,0,2,0.6,2,2.2
			C88.3,82.6,87.7,83.5,86.5,83.5z"/>
		<path fill="#FFFFFF" d="M56.7,88.4c0,0,0,0-7.2-8.6v6.6c0,0.3,0.1,0.6,0.1,0.8c0.1,0.5,0.6,0.7,1.6,0.8v0.4h-3.6V88
			c0.7-0.1,1.2-0.3,1.3-0.8c0-0.2,0.1-0.5,0.1-0.8v-7c-0.4-0.5-0.9-1-1.7-1V78h2.7c2.2,2.7,4.5,5.4,6.7,8.1h0V80
			c0-0.3-0.1-0.6-0.1-0.8c-0.1-0.5-0.6-0.7-1.6-0.8V78h3.6v0.4c-0.7,0.1-1.2,0.3-1.3,0.8c0,0.2-0.1,0.5-0.1,0.8v8.4H56.7z"/>
		<path fill="#FFFFFF" d="M62.5,86.6c0,1.4-0.1,1.3,1.3,1.5v0.4h-4V88c1.3-0.2,1.3-0.1,1.3-1.5v-6.7c0-1.4,0.1-1.3-1.3-1.5V78h4v0.4
			c-1.3,0.2-1.3,0.1-1.3,1.5V86.6z"/>
		<path fill="#FFFFFF" d="M81.4,85.8c-0.7,1.6-0.6,2.2-2.7,2.2c-1.3,0-1.9-0.1-1.9-1.4v-3.4H78c1,0,1.3,0.5,1.4,1.4h0.4v-3.2h-0.4
			c0,0.9-0.4,1.3-1.4,1.3h-1.3v-4.3h2.4c1.1,0,1.4,0.8,1.5,1.9h0.4V78h-6.8h-2.9v0.4c1,0,1.4,0.5,1,1.4c-0.9,2.3-1.8,4.6-2.8,6.8
			c-0.8-2.3-1.6-4.8-2.2-6.6c-0.5-1.4,0.1-1.7,0.9-1.7V78h-3.8v0.4c0.7,0,0.9,0.5,1.5,2.1c0.9,2.5,1.9,5.4,2.8,8h0.8
			c1.3-3,2.5-6.1,3.8-9.1c0.3-0.7,0.5-0.9,1-0.9c1.3,0.2,1.1,0.1,1.1,1.5v6.7c0,1.4,0.2,1.3-1.1,1.5v0.4h7.2l0.4-2.7L81.4,85.8
			L81.4,85.8z"/>
		<path fill="#FFFFFF" d="M101.4,86.6c0,1.4-0.1,1.3,1.3,1.5v0.4h-4V88c1.3-0.2,1.3-0.1,1.3-1.5v-6.7c0-1.4,0.1-1.3-1.3-1.5V78h4
			v0.4c-1.3,0.2-1.3,0.1-1.3,1.5V86.6z"/>
		<path fill="#FFFFFF" d="M116.6,78v0.4c0.9,0,1.4,0.4,0.8,1.3l-2.1,3.7l-1.8-3.7c-0.4-0.8-0.5-1.3,0.7-1.3V78h-2.5h-1h-6.9
			l-0.4,2.3h0.4c0.5-1,0.8-1.8,2.1-1.8h1.2v8.1c0,1.4,0.1,1.3-1.3,1.5v0.4h4V88c-1.3-0.2-1.3-0.1-1.3-1.5v-8.1h1.2
			c1.2,0,2,0.7,2.5,1.6l2.1,4.2v2.3c0,1.4,0.1,1.3-1.3,1.5v0.4h4V88c-1.3-0.2-1.3-0.1-1.3-1.5v-1.7c0-0.4,0-0.8,0.2-1.1l2.5-4.5
			c0.4-0.7,0.8-0.9,1.2-0.9V78H116.6z"/>
		<path fill="#FFFFFF" d="M47.1,78l-4.7,0v0.4c0.9,0.1,1.6,0.5,1.7,1.2c0,0.3,0.1,0.7,0.1,1.1v5.6c0,3.2-1.4,5-4.2,5
			c-3,0-3.9-2.1-3.9-4.9v-5.9c0-1.9,0.1-1.9,1.9-2.1V78h-5.4v0.4c1.8,0.2,1.7,0.3,1.7,2.1v6c0,3.6,1.3,5.8,5.6,5.8
			c2.6,0,5.3-1.6,5.3-5.9v-5.6c0,0,0-0.1,0-0.1c0-1.7,0.7-2,1.8-2.2L47.1,78z"/>
	</g>
	<g>
		<path fill="#FFFFFF" d="M37,70.6c0,1.4-0.1,1.3,1.3,1.5v0.4h-4V72c1.3-0.2,1.3-0.1,1.3-1.5v-6.7c0-1.4-0.6-1.3-2-1.5V62h4.7v0.4
			C37,62.6,37,62.5,37,63.9v2.6h5.2v-2.6c0-1.4,0.1-1.3-1.3-1.5V62h4v0.4c-1.3,0.2-1.3,0.1-1.3,1.5v6.7c0,1.4-0.1,1.3,1.3,1.5v0.4
			h-4V72c1.3-0.2,1.3-0.1,1.3-1.5v-3.5H37V70.6z"/>
		<path fill="#FFFFFF" d="M49.3,70.6c0,1.4-0.1,1.3,1.3,1.5v0.4h-4V72c1.3-0.2,1.3-0.1,1.3-1.5v-6.7c0-1.4,0.1-1.3-1.3-1.5V62h4v0.4
			c-1.3,0.2-1.3,0.1-1.3,1.5V70.6z"/>
		<path fill="#FFFFFF" d="M61.6,72.4c-2.4-2.8-4.8-5.7-7.2-8.5v6.5c0,0.3,0.1,0.6,0.1,0.8c0.1,0.5,0.6,0.7,1.6,0.8v0.4h-3.6V72
			c0.7-0.1,1.2-0.3,1.3-0.8c0-0.2,0.1-0.5,0.1-0.8v-7c-0.4-0.5-0.9-1-1.7-1V62h2.7c2.2,2.7,4.5,5.4,6.7,8.1h0V64
			c0-0.3-0.1-0.6-0.1-0.8c-0.1-0.5-0.6-0.7-1.6-0.8V62h3.6v0.4c-0.7,0.1-1.2,0.3-1.3,0.8c0,0.2-0.1,0.5-0.1,0.8v8.4H61.6z"/>
		<path fill="#FFFFFF" d="M63.8,67.2c0-2.3,1.9-5.3,5.9-5.3c1.4,0,2.1,0.3,2.8,0.5c0.4,0.1,0.6,0.3,0.6,0.6v1.9h-0.4
			c0-1.2-0.8-2.5-3.2-2.5c-3.1,0-4.1,2.1-4.1,4.7c0,2.3,1.2,5,4.2,5c1.9,0,2-0.7,2-1.8v-0.9c0-1.4,0.1-1.3-1.6-1.5v-0.4h4.3v0.4
			C73,68,73.1,68,73.1,69.3v2.6c-0.9,0.4-2.2,0.7-3.5,0.7C66.5,72.6,63.8,71.1,63.8,67.2z"/>
		<path fill="#FFFFFF" d="M79.4,70.6c0,1.4-0.1,1.3,1.3,1.5v0.4h-4V72c1.3-0.2,1.3-0.1,1.3-1.5v-8h-1.2c-1.3,0-1.6,0.8-2.1,1.8h-0.4
			l0.4-2.3h7.9l0.4,2.3h-0.4c-0.5-1-0.8-1.8-2.1-1.8h-1.2C79.4,62.5,79.4,70.6,79.4,70.6z"/>
		<path fill="#FFFFFF" d="M83.1,67.4c0-3.2,2.5-5.6,5.6-5.6c3.2,0,5.1,2.8,5.1,5.1c0,3.1-2.3,5.7-5.6,5.7
			C85.3,72.6,83.1,70.3,83.1,67.4z M92,67.4c0-3.5-1.9-5-3.7-5c-2.5,0-3.6,2.2-3.6,4.3c0,3.6,1.8,5.4,3.7,5.4
			C91.3,72.1,92,69.3,92,67.4z"/>
		<path fill="#FFFFFF" d="M103.3,72.4c-2.4-2.8-4.8-5.7-7.2-8.5v6.5c0,0.3,0.1,0.6,0.1,0.8c0.1,0.5,0.6,0.7,1.6,0.8v0.4h-3.6V72
			c0.7-0.1,1.2-0.3,1.3-0.8c0-0.2,0.1-0.5,0.1-0.8v-7c-0.4-0.5-0.9-1-1.7-1V62h2.7c2.2,2.7,4.5,5.4,6.7,8.1h0V64
			c0-0.3-0.1-0.6-0.1-0.8c-0.1-0.5-0.6-0.7-1.6-0.8V62h3.6v0.4c-0.7,0.1-1.2,0.3-1.3,0.8c0,0.2-0.1,0.5-0.1,0.8v8.4H103.3z"/>
		<path fill="#FFFFFF" d="M20.4,60.1L20.4,60.1l-4,0v0.5c1.5,0,1.8,0.6,1.4,1.7l-3,8.3h-0.2L11,60.2h-0.9L6.3,70.5H6.1l-2.7-8.2
			C3,61,3.6,60.5,4.8,60.5V60H0v0.5c1,0,1.2,0.8,1.8,2.7l3.5,10.2h0.9L9.9,63l3.6,10.4h1c1.6-4.1,3.8-10.3,4.6-11.9
			c0.3-0.6,0.8-0.9,1.4-0.9L20.4,60.1L20.4,60.1L20.4,60.1z"/>
		<path fill="#FFFFFF" d="M31,66.8c-1.6-1.2-2.6-1.8-2.6-2.9c0-1.2,0.8-1.6,1.7-1.6c1.2,0,1.8,0.9,2,2h0.4v-2c0-0.1,0-0.1-0.1-0.2
			c-0.6-0.2-1.5-0.3-2.2-0.3c-1.8,0-3.3,1.1-3.3,2.5c0,0.8,0.2,1.3,0.5,1.7h0c0,0,0,0,0,0c0.4,0.5,0.9,0.8,1.4,1.1
			c2.3,1.5,2.9,2.4,2.9,3.4c0,0.9-0.7,1.9-2,2c-1.3,0.1-3-0.5-3.8-2.4c-0.6-1.8-1.9-5.6-2.8-8.2h-0.9c-1.2,3.3-2.9,8.1-3.5,9.4
			c-0.2,0.5-0.7,0.7-1.1,0.7v0.4h0.6h2.1V72c-0.6,0-0.9-0.5-0.7-1.1l0.7-2h3.8l0.6,1.9l0.5,1.5c0,0,2.6,0.7,4.4,0.7
			c1.9,0,3.8-1,3.8-2.9C33.2,68.9,32.7,68.1,31,66.8z M20.4,68.4l1.8-4.8h0l1.6,4.8H20.4z"/>
	</g>
	<g>
		<path fill="#FFFFFF" d="M115.4,62.7c-0.2-1.4-0.9-2.5-2.5-2.5c-1.2,0-2.3,0.6-2.3,2.1c0,1.4,1.4,2.2,3.4,3.7
			c2.1,1.6,2.8,2.6,2.8,4.2c0,2.4-2.3,3.7-4.7,3.7c-1.3,0-2.4-0.2-3.4-0.6c-0.1,0-0.1-0.1-0.1-0.3v-2.9h0.5c0.2,2.2,1.7,3.1,3.2,3.1
			c1.4,0,2.7-1.1,2.7-2.5c0-1.3-0.7-2.4-3.7-4.3c-1.1-0.7-2.4-1.5-2.4-3.7c0-1.8,1.9-3.2,4.1-3.2c0.9,0,2,0.1,2.8,0.4
			c0.1,0,0.1,0.1,0.1,0.2v2.6L115.4,62.7L115.4,62.7z"/>
		<path fill="#FFFFFF" d="M121.8,70.6c0,1.4-0.1,1.3,1.3,1.5v0.4h-4V72c1.3-0.2,1.3-0.1,1.3-1.5v-8h-1.2c-1.3,0-1.6,0.8-2.1,1.8
			h-0.4l0.4-2.3h7.9l0.4,2.3H125c-0.5-1-0.8-1.8-2.1-1.8h-1.2C121.8,62.5,121.8,70.6,121.8,70.6z"/>
		<path fill="#FFFFFF" d="M126.9,69l-0.7,2c-0.2,0.6,0.1,1.1,0.7,1.1v0.4h-2.7V72c0.4,0,0.8-0.3,1.1-0.7c0.6-1.3,2.4-6.1,3.6-9.4
			h0.8c1,3,2.5,7.5,3,8.9c0.3,0.8,0.6,1.3,1.2,1.3v0.4h-3.5V72c0.9,0,1-0.5,0.8-1.1l-0.6-1.9H126.9z M130.5,68.4l-1.6-4.8h0
			l-1.8,4.8H130.5z"/>
		<path fill="#FFFFFF" d="M138.1,70.6c0,1.4-0.1,1.3,1.3,1.5v0.4h-4V72c1.3-0.2,1.3-0.1,1.3-1.5v-8h-1.2c-1.3,0-1.6,0.8-2.1,1.8H133
			l0.4-2.3h7.9l0.4,2.3h-0.4c-0.5-1-0.8-1.8-2.1-1.8h-1.2V70.6z"/>
		<path fill="#FFFFFF" d="M142.4,72c1.3-0.2,1.1-0.1,1.1-1.5v-6.7c0-1.4,0.2-1.3-1.1-1.5v-0.4h6.5v2.4h-0.4
			c-0.1-1.1-0.4-1.9-1.5-1.9h-2v4.2h1.2c0.9,0,1.3-0.4,1.4-1.3h0.4v3.2h-0.4c0-0.9-0.4-1.4-1.4-1.4H145v3.3c0,1.3,0.6,1.4,1.9,1.4
			c2.1,0,2-0.6,2.7-2.2h0.4l-0.4,2.7h-7.2L142.4,72L142.4,72z"/>
	</g>
</g>
<path fill="#FFFFFF" d="M83.1,44.1l-7.6,5.4l-7.6-5.4c-5.4-3.7-10-6.9-12.4-11.7c2,9,10.8,12.4,20,19.6c9.2-7.2,18-10.6,20-19.6
	C93.1,37.2,88.4,40.4,83.1,44.1z"/>
<g>
	<path fill="#FFFFFF" d="M83,11.2c-1.2-0.6-3.9-0.4-4.8,0.3c-1.5,1.1-1.3,2.9-1.2,3c0.3-0.5,0.8-1.3,1.6-1.8c1-0.7,2.6-1.2,4.2-1.1
		C83.1,11.5,83.4,11.4,83,11.2z"/>
	<path fill="#FFFFFF" d="M54.4,0v0.9c0.6,0.2,0.8,0.4,0.8,1.2V24c0,12.1,9.8,15.3,20.2,23.5C85.9,39.3,95.7,36.1,95.7,24v-22
		c0.1-0.7,0.3-0.8,0.8-1V0H54.4z M61.9,34.2C64,31,64,27.5,64,27.5c-1.7,0.6-4.7,1.1-4.7,1.1s2.8-2.1,4.9-8.7l2,1.8L65.8,23
		c0,0,1,1.4,1.2,2.3c0,0,1.3-2.6-0.1-5.3l-0.3,0.8l-0.8-0.7l-1.4-1.2c0,0,0.6-2.2,2.5-4.8l0.2,0.2l1.6,1.8l-0.5,0.8
		c0,0,1.1,1.1,2,2.5c0,0,0.5-2.3-0.2-4.8l-0.7,0.7l-1.7-2c2.5-2.5,4.8-3.9,7.7-4.9C75.1,8.5,75,8.7,74.8,9c-1,1.4-1.9,3.8-1.2,7.8
		c0.1,0.6,0.3,1.5,0.5,2.4c0.4,1.8,0.9,3.9,1.1,5.2c0.3,2.7,0.1,4.5-0.8,5.4c-0.6,0.7-1.6,0.9-3.1,0.9c0-0.2,0-0.4,0-0.6
		c0-1.9-0.4-3.3-0.4-3.4l-0.4-1.3l-0.6,1.2C69.2,28.4,66,33.2,61.9,34.2C61.9,34.2,61.9,34.2,61.9,34.2z M82.8,35.4
		c-0.7,0.2-3.2,0.1-3.2,0.1s1.7-0.7,2.6-3.5C83,33.7,82.8,35.4,82.8,35.4z M86.6,29.9c-4.9,0.7-5.8-9.7-5.8-9.7s1.7,5.3,5.2,5.1
		c3.6-0.2,2.6-5.8,2.6-5.8S92.1,29.1,86.6,29.9z M92.5,10.4l-4.8,0.2c0,0.6-0.1,1.2-0.3,1.7c0.5,2,0.1,3.1,0.1,3.1
		c-0.8-1.9-1.4-2.4-1.4-2.4c-4.4-2-6.9,2.5-6.7,5.4c0.2,2.4,1.1,5.5,1.8,10.5c0.6,4.2-1.5,6-4,6.4c-0.1,0-0.1,0-0.2,0c0,0,0,0,0,0
		c-0.4,0.1-0.8,0.1-1.3,0.1c0,0,0,0,0,0c0,0-0.1,0-0.1,0c-0.2,0-0.4,0-0.6-0.1c-1.9-0.3-6.1-1-10.4-1.1c2.6-1.5,4.6-4.1,5.7-5.9
		c0.1,0.5,0.1,1.1,0.1,1.8c0,0.3,0,0.7,0,1.1l0,0.5l0.5,0c2,0.2,3.4-0.2,4.3-1.2c1.1-1.2,1.5-3.2,1.1-6.2c-0.2-1.3-0.7-3.4-1.1-5.3
		c-0.2-0.9-0.4-1.8-0.5-2.4c-0.7-3.6,0.1-5.8,1-7c0.7-0.9,1.6-1.6,2.6-2c0,0,0,0,0.1,0l1.7-5.1h0.5l-1.1,4.9c0.3,0,0.5-0.1,0.8-0.1
		l1.4-4.5h0.5l-0.9,4.4c1.5-0.2,3.1-0.3,4.9-0.5c0.3,0.1,0.6,0.5,0.9,0.9l4.7-1.4l0.2,0.5l-4.5,1.7c0,0.1,0.1,0.2,0.1,0.3L92.2,8
		l0.1,0.5l-4.7,0.9c0,0.1,0,0.2,0,0.3l4.9,0.2L92.5,10.4z"/>
</g>
</svg>
