<?xml version="1.0" encoding="utf-8"?>
<!-- Generator: Adobe Illustrator 16.0.0, SVG Export Plug-In . SVG Version: 6.00 Build 0)  -->
<!DOCTYPE svg PUBLIC "-//W3C//DTD SVG 1.1//EN" "http://www.w3.org/Graphics/SVG/1.1/DTD/svg11.dtd">
<svg version="1.1" id="Layer_1" xmlns="http://www.w3.org/2000/svg" xmlns:xlink="http://www.w3.org/1999/xlink" x="0px" y="0px"
	 width="456.911px" height="44.084px" viewBox="0 0 456.911 44.084" enable-background="new 0 0 456.911 44.084"
	 xml:space="preserve">
<g>
	<g>
		<g>
			<g>
				<g>
					<path fill="#68737A" d="M290.815,37.351l-6.438,4.586l-6.444-4.586c-4.573-3.129-8.492-5.811-10.548-9.892
						c1.695,7.64,9.162,10.503,16.992,16.625c7.82-6.122,15.293-8.985,16.988-16.625C299.31,31.541,295.387,34.222,290.815,37.351z"
						/>
					<g>
						<path fill="#981E32" d="M266.495,0v0.799c0.5,0.177,0.662,0.333,0.715,1.057v18.462c0,10.267,8.354,12.983,17.168,19.881
							c8.819-6.897,17.178-9.614,17.178-19.881V1.646c0.062-0.552,0.24-0.694,0.688-0.847V0H266.495z"/>
					</g>
				</g>
			</g>
		</g>
		<g>
			<g>
				<g>
					<path fill="#FFFFFF" d="M287.854,30.056c0,0,1.432-0.608,2.211-2.972c0.689,1.438,0.51,2.919,0.51,2.919
						C289.941,30.149,287.854,30.056,287.854,30.056z"/>
					<path fill="#FFFFFF" d="M295.524,16.545c0,0,0.869,4.749-2.214,4.91c-2.974,0.163-4.374-4.322-4.374-4.322
						s0.717,8.752,4.886,8.177C298.523,24.66,295.524,16.545,295.524,16.545z"/>
				</g>
			</g>
			<path fill="#FFFFFF" d="M272.868,28.925h0.008c3.479-0.793,6.139-4.852,6.92-6.482l0.5-1.033l0.3,1.106
				c0.017,0.056,0.34,1.275,0.34,2.889c0,0.177-0.009,0.357-0.019,0.545c1.201,0.046,2.061-0.196,2.59-0.756
				c0.766-0.789,0.996-2.289,0.711-4.575c-0.139-1.097-0.543-2.84-0.903-4.374c-0.185-0.791-0.354-1.529-0.46-2.055
				c-0.674-3.364,0.161-5.458,0.979-6.61c0.129-0.186,0.269-0.356,0.414-0.523c-2.408,0.81-4.424,2.074-6.51,4.155l1.471,1.697
				l0.597-0.561c0.567,2.111,0.159,4.056,0.159,4.056c-0.771-1.178-1.684-2.126-1.684-2.126l0.403-0.671l-1.322-1.534l-0.153-0.168
				c-1.625,2.226-2.15,4.056-2.15,4.056l1.154,1.048l0.672,0.611l0.228-0.645c1.231,2.317,0.103,4.484,0.103,4.484
				c-0.2-0.791-1.019-1.963-1.019-1.963l0.322-1.059l-1.711-1.552c-1.784,5.571-4.166,7.373-4.166,7.373s2.577-0.466,4.015-0.946
				C274.653,23.312,274.612,26.247,272.868,28.925z"/>
			<path fill="#FFFFFF" d="M298.872,8.833l-4.117,0.173c0.002,0.489-0.061,0.98-0.217,1.437c0.381,1.682,0.116,2.595,0.116,2.595
				c-0.688-1.599-1.214-2.047-1.214-2.047c-3.781-1.679-5.898,2.122-5.674,4.566c0.184,2.018,0.915,4.691,1.482,8.877
				c0.48,3.53-1.302,5.053-3.36,5.404c-0.043,0.01-0.089,0.018-0.132,0.023c-0.016,0-0.021,0.002-0.032,0.002
				c-0.332,0.044-0.69,0.062-1.062,0.048c-0.015,0-0.025,0-0.043,0c-0.035,0-0.076-0.004-0.121-0.004
				c-0.16-0.013-0.315-0.027-0.476-0.046c-1.593-0.223-5.174-0.872-8.87-0.963c2.176-1.268,3.877-3.467,4.825-5.023
				c0.05,0.43,0.101,0.956,0.101,1.54c0,0.29-0.012,0.59-0.037,0.901l-0.037,0.425l0.426,0.032c1.701,0.15,2.906-0.174,3.691-0.985
				c0.965-1.006,1.266-2.681,0.938-5.275c-0.142-1.139-0.554-2.904-0.918-4.465c-0.183-0.778-0.353-1.514-0.456-2.028
				c-0.607-3.067,0.12-4.931,0.839-5.954c0.565-0.801,1.347-1.386,2.197-1.666c0.019-0.005,0.032-0.005,0.044-0.009l1.402-4.315
				h0.442l-0.944,4.149c0.219-0.036,0.44-0.076,0.666-0.108l1.215-3.826h0.438l-0.795,3.707c1.251-0.167,2.614-0.29,4.126-0.403
				c0.245,0.102,0.512,0.386,0.739,0.78l3.963-1.223l0.144,0.429l-3.785,1.469c0.035,0.076,0.062,0.162,0.09,0.241l4.141-0.514
				l0.062,0.441l-4.014,0.803c0.01,0.073,0.024,0.151,0.036,0.227l4.181,0.134L298.872,8.833z M286.95,10.687
				c0.832-0.586,2.242-1.037,3.566-0.93c0.334,0.025,0.615-0.066,0.255-0.257c-0.991-0.525-3.301-0.344-4.119,0.213
				c-1.303,0.895-1.084,2.483-1.051,2.52C285.857,11.78,286.301,11.138,286.95,10.687z"/>
		</g>
	</g>
	<g>
		<path fill="#68737A" d="M198.706,10.517c-0.271-2.386-1.567-4.292-4.289-4.292c-1.973,0-3.969,1.024-3.969,3.542
			c0,2.381,2.383,3.812,5.787,6.365C199.84,18.82,201,20.554,201,23.379c0,4.054-3.926,6.294-8.007,6.294
			c-2.183,0-4.053-0.408-5.823-1.085c-0.133-0.071-0.236-0.208-0.236-0.476v-4.904h0.884c0.376,3.777,2.855,5.273,5.479,5.273
			c2.417,0,4.615-1.832,4.615-4.316c0-2.219-1.192-4.022-6.294-7.389c-1.839-1.223-4.117-2.556-4.117-6.26
			c0-3.069,3.173-5.483,7.09-5.483c1.463,0,3.403,0.168,4.764,0.645c0.206,0.07,0.237,0.21,0.237,0.379v4.459L198.706,10.517
			L198.706,10.517z"/>
		<path fill="#68737A" d="M210.582,23.899c0,2.359-0.1,2.227,2.178,2.508v0.658h-6.808v-0.658c2.276-0.281,2.178-0.147,2.178-2.508
			V10.162h-2.052c-2.204,0-2.709,1.391-3.542,3.06h-0.631l0.683-3.874h13.535l0.684,3.874h-0.632
			c-0.833-1.669-1.339-3.06-3.539-3.06h-2.054V23.899L210.582,23.899z"/>
		<path fill="#68737A" d="M219.582,21.282l-1.143,3.339c-0.327,0.974,0.147,1.796,1.245,1.796v0.648h-4.537v-0.648
			c0.671,0,1.396-0.425,1.794-1.247c1.072-2.192,3.988-10.345,6.058-15.857h1.396c1.694,5.008,4.237,12.694,5.085,14.909
			c0.549,1.396,0.946,2.195,2.021,2.195v0.648h-5.809v-0.648c1.568,0,1.721-0.822,1.322-1.921l-1.074-3.214H219.582z
			 M225.618,20.331l-2.645-8.103h-0.049l-2.965,8.103H225.618z"/>
		<path fill="#68737A" d="M238.422,23.899c0,2.359-0.103,2.227,2.176,2.508v0.658h-6.809v-0.658
			c2.277-0.281,2.178-0.147,2.178-2.508V10.162h-2.053c-2.201,0-2.705,1.391-3.541,3.06h-0.631l0.684-3.874h13.539l0.679,3.874
			h-0.633c-0.83-1.669-1.337-3.06-3.538-3.06h-2.051V23.899z"/>
		<path fill="#68737A" d="M245.838,26.407c2.279-0.281,1.953-0.147,1.953-2.508V12.51c0-2.349,0.326-2.224-1.953-2.503V9.349h11.084
			v4.073h-0.657c-0.255-1.869-0.755-3.26-2.576-3.26h-3.446V17.4h2.127c1.592,0,2.277-0.636,2.327-2.204h0.659v5.388h-0.659
			c-0.05-1.493-0.632-2.377-2.327-2.377h-2.127v5.719c0,2.152,0.989,2.334,3.268,2.334c3.668,0,3.488-1.043,4.656-3.75h0.654
			l-0.762,4.556h-12.221V26.407L245.838,26.407z"/>
	</g>
	<g>
		<g>
			<path fill="#68737A" d="M348.44,27.065c0,0,0,0-12.32-14.602v11.186c0,0.531,0.104,0.959,0.148,1.365
				c0.129,0.911,0.99,1.266,2.658,1.393v0.658h-6.199v-0.658c1.219-0.127,2.051-0.481,2.176-1.393
				c0.055-0.406,0.152-0.834,0.152-1.365V11.732c-0.705-0.909-1.496-1.72-2.934-1.72V9.349h4.602
				c3.771,4.583,7.697,9.239,11.467,13.821h0.051V12.767c0-0.533-0.105-0.961-0.154-1.367c-0.129-0.91-0.98-1.259-2.654-1.388V9.349
				h6.197v0.663c-1.188,0.129-2.049,0.478-2.18,1.388c-0.049,0.406-0.148,0.834-0.148,1.367v14.298H348.44z"/>
		</g>
		<path fill="#68737A" d="M358.385,23.899c0,2.359-0.1,2.23,2.176,2.508v0.658h-6.807v-0.658c2.279-0.277,2.176-0.147,2.176-2.508
			V12.515c0-2.351,0.104-2.228-2.176-2.503V9.356h6.807v0.655c-2.275,0.275-2.176,0.152-2.176,2.503V23.899z"/>
		<path fill="#68737A" d="M390.581,22.509c-1.164,2.71-0.986,3.75-4.652,3.75c-2.277,0-3.27-0.182-3.27-2.334v-5.719h2.131
			c1.693,0,2.275,0.892,2.324,2.384h0.654v-5.395h-0.654c-0.049,1.568-0.734,2.204-2.324,2.204h-2.131v-7.236h4.018
			c1.818,0,2.33,1.389,2.578,3.263h0.656v-4.07h-11.652h-5.014v0.655c1.719,0,2.377,0.782,1.742,2.378
			c-1.568,3.873-3.111,7.765-4.732,11.639c-1.314-3.844-2.779-8.195-3.764-11.182c-0.84-2.432,0.176-2.834,1.568-2.834V9.356h-6.436
			v0.655c1.217,0,1.545,0.782,2.486,3.49c1.541,4.303,3.266,9.186,4.807,13.562h1.289c2.127-5.188,4.277-10.348,6.402-15.532
			c0.531-1.268,0.91-1.521,1.648-1.521c2.275,0.275,1.947,0.152,1.947,2.503v11.385c0,2.359,0.328,2.23-1.947,2.508v0.658h12.221
			l0.762-4.557H390.581z"/>
		<path fill="#68737A" d="M425.825,23.899c0,2.359-0.105,2.23,2.172,2.508v0.658h-6.809v-0.658c2.279-0.277,2.18-0.147,2.18-2.508
			V12.515c0-2.351,0.102-2.228-2.18-2.503V9.356h6.809v0.655c-2.277,0.275-2.172,0.152-2.172,2.503V23.899z"/>
		<path fill="#68737A" d="M451.7,9.356v0.655c1.49,0,2.301,0.73,1.439,2.278l-3.49,6.353l-3.062-6.353
			c-0.633-1.32-0.805-2.278,1.113-2.278V9.356h-4.24h-1.758h-11.783l-0.686,3.866h0.635c0.83-1.669,1.338-3.058,3.541-3.058h2.053
			v13.735c0,2.359,0.1,2.23-2.178,2.508v0.658h6.807v-0.658c-2.277-0.277-2.178-0.147-2.178-2.508V10.164h2.053
			c2.072,0,3.469,1.239,4.322,2.779l3.564,7.066v3.891c0,2.359,0.102,2.23-2.176,2.508v0.658h6.805v-0.658
			c-2.275-0.277-2.176-0.147-2.176-2.508v-2.833c0-0.629,0.051-1.341,0.305-1.844l4.225-7.669c0.688-1.214,1.367-1.542,2.076-1.542
			V9.356H451.7z"/>
		<path fill="#68737A" d="M332.153,5.521l-7.975,0.022v0.66c1.6,0.171,2.756,0.875,2.924,2.102c0.068,0.542,0.207,1.118,0.207,1.835
			v9.458c0,5.45-2.453,8.578-7.111,8.578c-5.072,0-6.596-3.641-6.596-8.407V9.797c0-3.163,0.094-3.22,3.156-3.593v-0.66H307.6v0.66
			c3.068,0.373,2.932,0.43,2.932,3.593V19.94c0,6.159,2.248,9.841,9.492,9.841c4.391,0,9.057-2.724,9.057-10.043v-9.597
			c0-0.059,0-0.115,0-0.17c-0.031-2.955,1.119-3.383,3.053-3.696L332.153,5.521z"/>
		<path fill="#68737A" d="M415.723,17.799c-2.684-2.014-4.562-3.14-4.562-5.019c0-1.983,1.396-2.79,2.955-2.79
			c2.145,0,3.162,1.503,3.377,3.381h0.699V9.856c0-0.135-0.027-0.243-0.188-0.293c-1.074-0.376-2.604-0.511-3.758-0.511
			c-3.086,0-5.768,1.904-5.768,4.32c0,1.307,0.359,2.24,0.889,2.957h-0.01c0.012,0.011,0.023,0.02,0.031,0.031
			c0.65,0.867,1.545,1.42,2.334,1.948c4.025,2.659,4.934,4.079,4.967,5.821c0.072,3.872-7.182,5.909-11.953-1.532l-2.48-3.771
			c1.949-0.76,3.543-2.556,3.543-5.164c0-2.966-2.557-4.301-5.111-4.301h-7.367v0.656c2.275,0.274,2.174,0.152,2.174,2.504v11.392
			c0,2.361,0.104,2.23-2.174,2.507v0.661h6.811V26.42c-2.281-0.276-2.182-0.146-2.182-2.507v-4.68h2.385
			c3.061,5.086,3.818,7.295,5.361,7.848c0.344,0.12,4.316,1.396,7.123,1.396c3.219,0,6.658-1.771,6.658-4.965
			C419.479,21.287,418.567,19.915,415.723,17.799z M400.057,18.691h-2.105v-8.252h1.951c1.846,0,3.371,0.959,3.371,3.722
			C403.274,17.022,402.258,18.691,400.057,18.691z"/>
	</g>
	<g>
		<path fill="#68737A" d="M63.296,23.903c0,2.355-0.103,2.227,2.175,2.506v0.656h-6.807V26.41c2.277-0.279,2.176-0.15,2.176-2.505
			v-11.39c0-2.351-1.095-2.224-3.371-2.503V9.356h8.002v0.655c-2.277,0.28-2.175,0.152-2.175,2.503v4.381h8.88v-4.381
			c0-2.351,0.101-2.224-2.177-2.503V9.356h6.806v0.655c-2.274,0.28-2.176,0.152-2.176,2.503v11.389c0,2.354-0.099,2.226,2.176,2.505
			v0.657h-6.806V26.41c2.277-0.279,2.177-0.15,2.177-2.505V17.93h-8.88V23.903z"/>
		<path fill="#68737A" d="M84.225,23.903c0,2.355-0.104,2.227,2.175,2.506v0.656h-6.806V26.41c2.276-0.279,2.176-0.15,2.176-2.505
			v-11.39c0-2.351,0.101-2.224-2.176-2.503V9.356H86.4v0.655c-2.278,0.28-2.175,0.152-2.175,2.503V23.903z"/>
		<path fill="#68737A" d="M105.261,27.067c-4.022-4.755-8.198-9.743-12.321-14.604v11.188c0,0.527,0.101,0.961,0.153,1.365
			c0.126,0.914,0.985,1.262,2.653,1.393v0.656H89.55V26.41c1.213-0.13,2.049-0.479,2.177-1.394c0.049-0.402,0.151-0.836,0.151-1.363
			v-11.92c-0.711-0.909-1.494-1.72-2.938-1.72V9.356h4.606c3.771,4.577,7.691,9.234,11.461,13.813h0.049V12.771
			c0-0.533-0.1-0.965-0.151-1.367c-0.124-0.912-0.987-1.263-2.656-1.392V9.356h6.202v0.655c-1.19,0.129-2.05,0.48-2.181,1.392
			c-0.049,0.402-0.149,0.834-0.149,1.367v14.295h-0.86V27.067z"/>
		<path fill="#68737A" d="M108.992,18.11c0-3.897,3.29-9.062,10.119-9.062c2.454,0,3.618,0.456,4.858,0.866
			c0.709,0.227,0.986,0.578,0.986,0.983v3.265h-0.658c-0.074-2.025-1.365-4.225-5.388-4.225c-5.289,0-7.011,3.642-7.033,7.968
			c-0.026,3.999,1.997,8.582,7.134,8.582c3.165,0,3.442-1.168,3.442-3.139v-1.546c0-2.354,0.099-2.224-2.684-2.503v-0.657h7.313
			V19.3c-2.276,0.279-2.175,0.148-2.175,2.503v4.405c-1.621,0.632-3.745,1.166-6.049,1.166
			C113.673,27.373,108.992,24.892,108.992,18.11z"/>
		<path fill="#68737A" d="M135.764,23.903c0,2.355-0.103,2.227,2.176,2.506v0.656h-6.807V26.41c2.274-0.279,2.175-0.15,2.175-2.505
			v-13.74h-2.051c-2.202,0-2.707,1.389-3.544,3.06h-0.63l0.685-3.868h13.536l0.684,3.868h-0.634c-0.833-1.671-1.339-3.06-3.54-3.06
			h-2.05V23.903z"/>
		<path fill="#68737A" d="M141.987,18.54c0-5.468,4.251-9.492,9.512-9.492c5.49,0,8.68,4.733,8.68,8.633
			c0,5.339-3.998,9.692-9.591,9.692C145.756,27.373,141.987,23.45,141.987,18.54z M157.293,18.438c0-6.049-3.263-8.501-6.352-8.501
			c-4.3,0-6.069,3.844-6.069,7.285c0,6.125,3.136,9.265,6.399,9.265C155.979,26.487,157.293,21.831,157.293,18.438z"/>
		<path fill="#68737A" d="M176.501,27.067c-4.026-4.755-8.198-9.743-12.323-14.604v11.188c0,0.527,0.1,0.961,0.151,1.365
			c0.128,0.914,0.986,1.262,2.655,1.393v0.656h-6.198V26.41c1.216-0.13,2.051-0.479,2.178-1.394c0.05-0.402,0.15-0.836,0.15-1.363
			v-11.92c-0.707-0.909-1.491-1.72-2.936-1.72V9.356h4.606c3.771,4.577,7.689,9.234,11.462,13.813h0.048V12.771
			c0-0.533-0.101-0.965-0.15-1.367c-0.126-0.912-0.985-1.263-2.656-1.392V9.356h6.197v0.655c-1.187,0.129-2.047,0.48-2.174,1.392
			c-0.051,0.402-0.153,0.834-0.153,1.367v14.295h-0.857V27.067z"/>
		<path fill="#68737A" d="M34.824,5.967V5.94H27.98v0.848c2.642,0.03,3.07,0.972,2.377,2.971l-5.18,14.104h-0.286L18.79,6.232
			h-1.543l-6.41,17.63h-0.435L5.811,9.85C5.158,7.634,6.068,6.788,8.124,6.788V5.94H0v0.848c1.728,0,2.036,1.344,3.146,4.53
			l5.896,17.431h1.553l6.308-17.778l6.218,17.795h1.738c2.659-7.08,6.404-17.549,7.781-20.367c0.513-1.058,1.44-1.602,2.306-1.602
			V5.967H34.824z"/>
		<path fill="#68737A" d="M52.97,17.613c-2.646-1.986-4.499-3.098-4.499-4.952c0-1.958,1.377-2.754,2.911-2.754
			c2.118,0,3.124,1.484,3.336,3.338h0.688V9.776c0-0.133-0.026-0.237-0.185-0.291c-1.06-0.37-2.568-0.504-3.707-0.504
			c-3.043,0-5.69,1.88-5.69,4.264c0,1.292,0.356,2.209,0.878,2.918h-0.008c0.01,0.01,0.021,0.019,0.031,0.029
			c0.639,0.857,1.521,1.402,2.302,1.923c3.972,2.621,4.897,4.023,4.897,5.745c0,1.6-1.201,3.203-3.415,3.361
			c-2.266,0.163-5.179-0.933-6.404-4.113c-1.089-3.048-3.303-9.46-4.799-13.884h-1.459c-2.088,5.562-4.918,13.712-6.001,15.925
			c-0.399,0.832-1.129,1.26-1.811,1.26v0.654h1.088h3.49v-0.654c-1.106,0-1.583-0.831-1.258-1.812l1.159-3.372h6.414l1.082,3.247
			l0.833,2.5c0,0,4.499,1.178,7.427,1.178c3.177,0,6.405-1.748,6.405-4.897C56.676,21.053,55.776,19.704,52.97,17.613z
			 M34.892,20.27l2.993-8.177h0.05l2.667,8.177H34.892z"/>
	</g>
</g>
</svg>
