<?xml version="1.0" encoding="utf-8"?>
<!-- Generator: Adobe Illustrator 16.0.0, SVG Export Plug-In . SVG Version: 6.00 Build 0)  -->
<!DOCTYPE svg PUBLIC "-//W3C//DTD SVG 1.1//EN" "http://www.w3.org/Graphics/SVG/1.1/DTD/svg11.dtd">
<svg version="1.1" id="Layer_1" xmlns="http://www.w3.org/2000/svg" xmlns:xlink="http://www.w3.org/1999/xlink" x="0px" y="0px"
	 width="170px" height="124.422px" viewBox="0 0 170 124.422" enable-background="new 0 0 170 124.422" xml:space="preserve">
<g>
	<g>
		<g>
			<g>
				<path fill="#68737A" d="M108.262,93.646c-1.773-1.332-3.011-2.062-3.011-3.299c0-1.306,0.92-1.843,1.946-1.843
					c1.4,0,2.082,0.998,2.234,2.234h0.45v-2.32c0-0.076-0.028-0.153-0.114-0.182c-0.709-0.25-1.718-0.336-2.484-0.336
					c-2.032,0-3.788,1.246-3.788,2.838c0,0.854,0.239,1.469,0.586,1.947l0,0l0.009,0.01c0.432,0.566,1.026,0.93,1.545,1.285
					c2.627,1.746,3.241,2.676,3.262,3.826c0.047,2.553-4.729,3.885-7.864-1.016L99.4,94.317c1.283-0.488,2.32-1.678,2.32-3.395
					c0-1.938-1.679-2.83-3.349-2.83H93.52v0.432c1.506,0.182,1.438,0.105,1.438,1.65v7.49c0,1.562,0.065,1.467-1.438,1.66v0.42
					h4.487v-0.42c-1.505-0.193-1.438-0.099-1.438-1.66v-3.07h1.574c2.004,3.328,2.504,4.787,3.52,5.15
					c0.23,0.075,2.84,0.922,4.671,0.922c2.13,0,4.394-1.16,4.394-3.263C110.729,95.938,110.133,95.036,108.262,93.646z
					 M97.962,94.231H96.57v-5.43h1.285c1.209,0,2.215,0.645,2.215,2.457C100.07,93.138,99.4,94.231,97.962,94.231z"/>
				<path fill="#68737A" d="M63.799,99.735c0,0,0,0-8.135-9.648v7.388c0,0.344,0.059,0.644,0.088,0.899
					c0.095,0.604,0.661,0.836,1.764,0.933v0.43h-4.104v-0.43c0.814-0.097,1.362-0.328,1.438-0.933
					c0.048-0.258,0.105-0.557,0.105-0.899v-7.875c-0.47-0.604-0.988-1.132-1.938-1.132v-0.45h3.04
					c2.494,3.03,5.074,6.101,7.587,9.129h0.029V90.28c0-0.346-0.058-0.643-0.105-0.902c-0.077-0.612-0.662-0.834-1.756-0.91v-0.45
					h4.096v0.45c-0.776,0.076-1.343,0.298-1.438,0.91c-0.029,0.261-0.096,0.558-0.096,0.902v9.455H63.799z"/>
				<path fill="#68737A" d="M70.368,97.635c0,1.564-0.058,1.468,1.438,1.671v0.43h-4.488v-0.43c1.495-0.203,1.429-0.104,1.429-1.671
					v-7.52c0-1.562,0.066-1.486-1.429-1.648v-0.45h4.488v0.45c-1.496,0.162-1.438,0.087-1.438,1.648V97.635z"/>
				<path fill="#68737A" d="M91.66,96.726c-0.768,1.782-0.643,2.476-3.079,2.476c-1.506,0-2.147-0.125-2.147-1.545v-3.779h1.399
					c1.123,0,1.507,0.586,1.534,1.572h0.441v-3.558h-0.441c-0.027,1.034-0.479,1.446-1.534,1.446h-1.399v-4.784h2.656
					c1.189,0,1.523,0.92,1.697,2.155h0.441v-2.692h-7.703h-3.317v0.45c1.131,0,1.572,0.498,1.141,1.554
					c-1.035,2.569-2.043,5.142-3.117,7.711c-0.883-2.541-1.832-5.428-2.494-7.403c-0.565-1.603,0.106-1.859,1.026-1.859v-0.451
					h-4.248v0.451c0.805,0,1.026,0.498,1.649,2.301c1.007,2.848,2.158,6.07,3.184,8.967h0.854c1.41-3.434,2.81-6.855,4.221-10.281
					c0.364-0.844,0.612-0.985,1.102-0.985c1.496,0.161,1.286,0.086,1.286,1.647v7.521c0,1.563,0.21,1.467-1.286,1.67v0.43h8.077
					l0.498-3.01H91.66V96.726z"/>
				<path fill="#68737A" d="M114.736,97.635c0,1.564-0.076,1.468,1.438,1.671v0.43h-4.518v-0.43
					c1.516-0.203,1.438-0.104,1.438-1.671v-7.52c0-1.562,0.077-1.486-1.438-1.648v-0.45h4.518v0.45
					c-1.515,0.162-1.438,0.087-1.438,1.648V97.635z"/>
				<path fill="#68737A" d="M131.865,88.017v0.45c0.979,0,1.507,0.47,0.939,1.496l-2.303,4.199l-2.052-4.199
					c-0.394-0.873-0.519-1.496,0.748-1.496v-0.45h-2.812h-1.15h-7.797l-0.461,2.562h0.433c0.546-1.104,0.883-2.023,2.321-2.023
					h1.381v9.082c0,1.564,0.058,1.467-1.439,1.67v0.43h4.498v-0.43c-1.515-0.203-1.438-0.105-1.438-1.67v-9.082h1.343
					c1.371,0,2.292,0.824,2.858,1.832l2.367,4.68v2.57c0,1.564,0.077,1.467-1.438,1.67v0.43h4.518v-0.43
					c-1.516-0.203-1.438-0.105-1.438-1.67v-1.859c0-0.434,0.027-0.893,0.182-1.229l2.801-5.074c0.461-0.795,0.902-1.006,1.372-1.006
					v-0.451L131.865,88.017L131.865,88.017z"/>
				<path fill="#68737A" d="M53.027,88.017l-5.256,0.019v0.434c1.036,0.115,1.804,0.574,1.928,1.389
					c0.048,0.348,0.134,0.73,0.134,1.209v6.254c0,3.605-1.63,5.668-4.689,5.668c-3.366,0-4.373-2.398-4.373-5.553v-6.6
					c0-2.08,0.057-2.129,2.081-2.367v-0.434H36.79v0.434c2.053,0.238,1.957,0.287,1.957,2.367v6.715
					c0,4.066,1.466,6.492,6.271,6.492c2.906,0,5.995-1.783,5.995-6.637v-6.341c0-0.037,0-0.075,0-0.114
					c-0.029-1.957,0.738-2.226,2.014-2.445V88.017z"/>
			</g>
			<g>
				<g>
					<path fill="#68737A" d="M42.285,79.644c0,1.554-0.076,1.467,1.42,1.649v0.422h-4.469v-0.422
						c1.505-0.184,1.429-0.097,1.429-1.649v-7.495c0-1.554-0.72-1.468-2.226-1.654v-0.428h5.266v0.428
						c-1.496,0.188-1.42,0.102-1.42,1.654v2.883h5.841v-2.883c0-1.555,0.077-1.468-1.429-1.654v-0.428h4.469v0.428
						c-1.495,0.188-1.438,0.102-1.438,1.654v7.495c0,1.554-0.057,1.467,1.438,1.649v0.422h-4.469v-0.422
						c1.506-0.184,1.429-0.097,1.429-1.649v-3.933h-5.841V79.644z"/>
					<path fill="#68737A" d="M56.058,79.644c0,1.554-0.057,1.467,1.438,1.649v0.422h-4.498v-0.422
						c1.506-0.184,1.439-0.097,1.439-1.649v-7.495c0-1.554,0.066-1.468-1.439-1.654v-0.428h4.498v0.428
						c-1.495,0.188-1.438,0.102-1.438,1.654V79.644z"/>
					<path fill="#68737A" d="M69.917,81.715c-2.666-3.116-5.419-6.401-8.124-9.605v7.361c0,0.355,0.059,0.643,0.105,0.9
						c0.078,0.596,0.644,0.825,1.746,0.922v0.422h-4.086v-0.422c0.797-0.097,1.353-0.326,1.43-0.922
						c0.037-0.259,0.105-0.545,0.105-0.9v-7.846c-0.479-0.596-0.979-1.131-1.947-1.131v-0.429h3.04
						c2.493,3.013,5.064,6.081,7.549,9.099h0.029v-6.849c0-0.354-0.068-0.638-0.098-0.901c-0.086-0.6-0.642-0.834-1.744-0.92v-0.429
						h4.065v0.429c-0.757,0.086-1.343,0.32-1.419,0.92c-0.048,0.265-0.105,0.547-0.105,0.901v9.397h-0.546V81.715z"/>
					<path fill="#68737A" d="M72.362,75.827c0-2.564,2.168-5.965,6.666-5.965c1.602,0,2.389,0.307,3.185,0.575
						c0.47,0.144,0.652,0.379,0.652,0.638v2.157h-0.433c-0.037-1.338-0.9-2.78-3.538-2.78c-3.491,0-4.623,2.394-4.642,5.241
						c-0.01,2.632,1.323,5.647,4.699,5.647c2.091,0,2.282-0.766,2.282-2.07v-1.007c0-1.56,0.058-1.468-1.774-1.65v-0.426h4.795
						v0.426c-1.495,0.183-1.419,0.093-1.419,1.65v2.887c-1.055,0.431-2.465,0.787-3.989,0.787
						C75.451,81.937,72.362,80.295,72.362,75.827z"/>
					<path fill="#68737A" d="M89.973,79.644c0,1.554-0.058,1.467,1.438,1.649v0.422h-4.479v-0.422
						c1.496-0.184,1.42-0.097,1.42-1.649v-9.049h-1.343c-1.438,0-1.775,0.915-2.321,2.019h-0.433l0.462-2.547h8.92l0.44,2.547
						h-0.413c-0.557-1.104-0.872-2.019-2.34-2.019h-1.354v9.049H89.973z"/>
					<path fill="#68737A" d="M94.077,76.109c0-3.596,2.812-6.247,6.263-6.247c3.616,0,5.727,3.116,5.727,5.688
						c0,3.511-2.627,6.389-6.33,6.389C96.551,81.937,94.077,79.347,94.077,76.109z M104.146,76.047c0-3.984-2.138-5.598-4.172-5.598
						c-2.838,0-4.01,2.527-4.01,4.793c0,4.026,2.082,6.098,4.229,6.098C103.284,81.34,104.146,78.278,104.146,76.047z"/>
					<path fill="#68737A" d="M116.798,81.715c-2.646-3.116-5.399-6.401-8.104-9.605v7.361c0,0.355,0.058,0.643,0.097,0.9
						c0.086,0.596,0.644,0.825,1.735,0.922v0.422h-4.066v-0.422c0.796-0.097,1.354-0.326,1.438-0.922
						c0.029-0.259,0.097-0.545,0.097-0.9v-7.846c-0.46-0.596-0.979-1.131-1.929-1.131v-0.429h3.021
						c2.484,3.013,5.064,6.081,7.548,9.099h0.029v-6.849c0-0.354-0.065-0.638-0.104-0.901c-0.067-0.6-0.645-0.834-1.746-0.92v-0.429
						h4.076v0.429c-0.777,0.086-1.343,0.32-1.421,0.92c-0.026,0.265-0.104,0.547-0.104,0.901v9.397h-0.565V81.715z"/>
					<path fill="#68737A" d="M23.545,67.833v-0.014h-4.518v0.561c1.735,0.016,2.033,0.634,1.573,1.947l-3.415,9.279h-0.183
						L12.984,68.01h-1.025L7.738,79.606H7.461L4.43,70.388c-0.422-1.464,0.191-2.009,1.534-2.009v-0.562H0.612v0.562
						c1.132,0,1.343,0.877,2.081,2.978l3.885,11.479h1.007l4.162-11.705l4.096,11.716h1.133c1.744-4.661,4.22-11.558,5.12-13.408
						c0.354-0.7,0.95-1.056,1.516-1.056v-0.551H23.545L23.545,67.833z"/>
					<path fill="#68737A" d="M35.504,75.467c-1.736-1.318-2.963-2.053-2.963-3.28c0-1.295,0.921-1.821,1.928-1.821
						c1.409,0,2.062,0.979,2.196,2.209h0.461v-2.291c0-0.092-0.01-0.162-0.115-0.201c-0.71-0.244-1.698-0.326-2.456-0.326
						c-2.014,0-3.769,1.246-3.769,2.818c0,0.858,0.229,1.469,0.575,1.934l0,0c0.019,0.01,0.019,0.01,0.019,0.02
						c0.423,0.571,1.008,0.932,1.526,1.276c2.627,1.728,3.241,2.661,3.241,3.803c0,1.056-0.797,2.108-2.264,2.226
						c-1.496,0.105-3.424-0.615-4.23-2.725c-0.719-2.02-2.187-6.263-3.184-9.193h-0.96c-1.38,3.68-3.261,9.088-3.979,10.537
						c-0.278,0.564-0.748,0.844-1.189,0.844v0.422h0.72h2.302v-0.422c-0.729,0-1.035-0.558-0.824-1.198l0.767-2.229h4.249
						l0.71,2.144l0.546,1.649c0,0,2.983,0.776,4.921,0.776c2.109,0,4.239-1.142,4.239-3.242
						C37.97,77.745,37.375,76.858,35.504,75.467z M23.545,77.222l1.994-5.409h0.029l1.755,5.409H23.545z"/>
				</g>
				<g>
					<path fill="#68737A" d="M130.427,70.838c-0.183-1.566-1.026-2.818-2.829-2.818c-1.313,0-2.638,0.671-2.638,2.32
						c0,1.578,1.593,2.518,3.826,4.201c2.39,1.765,3.155,2.91,3.155,4.775c0,2.666-2.59,4.145-5.293,4.145
						c-1.438,0-2.668-0.278-3.828-0.721c-0.086-0.048-0.152-0.134-0.152-0.316v-3.231h0.585c0.24,2.494,1.86,3.474,3.604,3.474
						c1.594,0,3.041-1.209,3.041-2.84c0-1.453-0.785-2.646-4.172-4.857c-1.188-0.811-2.686-1.688-2.686-4.129
						c0-2.021,2.072-3.611,4.671-3.611c0.949,0,2.254,0.115,3.136,0.434c0.146,0.037,0.153,0.133,0.153,0.244v2.934h-0.574V70.838z"
						/>
					<path fill="#68737A" d="M138.254,79.654c0,1.544-0.059,1.468,1.438,1.649v0.432h-4.498v-0.432
						c1.496-0.184,1.438-0.105,1.438-1.649v-9.049h-1.343c-1.458,0-1.794,0.915-2.341,2.019h-0.412l0.461-2.547h8.892l0.459,2.547
						h-0.422c-0.557-1.104-0.892-2.019-2.33-2.019h-1.343L138.254,79.654L138.254,79.654z"/>
					<path fill="#68737A" d="M144.064,77.866l-0.768,2.229c-0.211,0.661,0.096,1.208,0.825,1.208v0.432h-3.021v-0.432
						c0.45,0,0.938-0.288,1.188-0.834c0.729-1.469,2.657-6.906,4.065-10.594h0.922c1.132,3.348,2.839,8.479,3.396,9.961
						c0.365,0.938,0.644,1.467,1.343,1.467v0.432h-3.855v-0.432c1.047,0,1.133-0.547,0.854-1.285l-0.699-2.152H144.064z
						 M148.104,77.243l-1.773-5.414h-0.03l-1.993,5.414H148.104z"/>
					<path fill="#68737A" d="M156.572,79.654c0,1.544-0.057,1.468,1.438,1.649v0.432h-4.498v-0.432
						c1.535-0.184,1.438-0.105,1.438-1.649v-9.049h-1.343c-1.438,0-1.774,0.915-2.33,2.019h-0.424l0.461-2.547h8.931l0.421,2.547
						h-0.393c-0.547-1.104-0.893-2.019-2.359-2.019h-1.344v9.049H156.572z"/>
					<path fill="#68737A" d="M161.464,81.303c1.505-0.184,1.284-0.105,1.284-1.649v-7.5c0-1.549,0.221-1.468-1.284-1.649v-0.428
						h7.31v2.676h-0.453c-0.151-1.231-0.486-2.146-1.688-2.146h-2.263v4.771h1.381c1.063,0,1.524-0.418,1.554-1.453h0.432v3.543
						h-0.432c-0.029-0.977-0.422-1.561-1.554-1.561h-1.381v3.768c0,1.421,0.644,1.525,2.138,1.525c2.418,0,2.303-0.672,3.061-2.455
						H170l-0.488,2.992h-8.048V81.303z"/>
				</g>
			</g>
		</g>
		<g>
			<g>
				<g>
					<g>
						<path fill="#68737A" d="M94.288,49.758l-8.593,6.11l-8.565-6.11c-6.101-4.167-11.317-7.735-14.07-13.164
							c2.264,10.176,12.219,13.975,22.635,22.141c10.426-8.167,20.4-11.965,22.662-22.141
							C105.605,42.023,100.378,45.591,94.288,49.758z"/>
						<g>
							<path fill="#981E32" d="M61.89,0v1.069c0.652,0.221,0.862,0.437,0.94,1.41v24.597c0,13.677,11.135,17.292,22.884,26.485
								c11.739-9.193,22.884-12.809,22.884-26.485V2.201c0.098-0.748,0.326-0.93,0.922-1.132V0H61.89z"/>
						</g>
					</g>
				</g>
			</g>
			<g>
				<g>
					<g>
						<path fill="#FFFFFF" d="M90.346,40.043c0,0,1.891-0.811,2.936-3.961c0.922,1.918,0.691,3.889,0.691,3.889
							C93.128,40.163,90.346,40.043,90.346,40.043z"/>
						<path fill="#FFFFFF" d="M100.561,22.05c0,0,1.16,6.315-2.935,6.536c-3.979,0.207-5.841-5.754-5.841-5.754
							s0.939,11.658,6.512,10.886C104.568,32.854,100.561,22.05,100.561,22.05z"/>
					</g>
				</g>
				<path fill="#FFFFFF" d="M70.368,38.537L70.368,38.537c4.651-1.055,8.2-6.464,9.246-8.632l0.651-1.386l0.413,1.477
					c0,0.082,0.44,1.702,0.44,3.846c0,0.235-0.01,0.479-0.01,0.734c1.593,0.052,2.734-0.269,3.453-1.003
					c1.007-1.055,1.314-3.05,0.931-6.1c-0.182-1.463-0.72-3.788-1.209-5.836c-0.239-1.045-0.45-2.033-0.604-2.729
					c-0.891-4.488,0.211-7.265,1.314-8.809c0.153-0.245,0.336-0.475,0.547-0.696c-3.214,1.08-5.899,2.763-8.68,5.529l1.956,2.269
					l0.797-0.748c0.757,2.815,0.211,5.405,0.211,5.405c-1.027-1.564-2.235-2.834-2.235-2.834l0.518-0.897l-1.745-2.038l-0.211-0.23
					c-2.158,2.973-2.857,5.404-2.857,5.404l1.544,1.4l0.892,0.811l0.297-0.858c1.659,3.084,0.145,5.97,0.145,5.97
					c-0.278-1.055-1.362-2.604-1.362-2.604l0.432-1.415l-2.283-2.072c-2.368,7.424-5.553,9.831-5.553,9.831s3.424-0.619,5.352-1.261
					C72.756,31.065,72.698,34.974,70.368,38.537z"/>
				<path fill="#FFFFFF" d="M105.021,11.769l-5.467,0.235c0,0.643-0.097,1.294-0.309,1.913c0.52,2.239,0.154,3.453,0.154,3.453
					c-0.922-2.129-1.621-2.719-1.621-2.719c-5.016-2.24-7.864,2.82-7.559,6.085c0.25,2.676,1.229,6.239,1.985,11.821
					c0.644,4.7-1.735,6.728-4.479,7.193c-0.058,0.014-0.123,0.023-0.183,0.033c-0.019,0-0.019,0.005-0.047,0.005
					c-0.423,0.062-0.912,0.077-1.401,0.072c-0.037,0-0.037,0-0.066,0c-0.049,0-0.086-0.009-0.152-0.009
					c-0.211-0.015-0.422-0.039-0.644-0.067c-2.109-0.292-6.876-1.156-11.807-1.28c2.897-1.688,5.161-4.618,6.427-6.695
					c0.058,0.581,0.125,1.285,0.125,2.057c0,0.379,0,0.787-0.048,1.199l-0.049,0.566l0.566,0.043
					c2.263,0.201,3.875-0.226,4.91-1.314c1.305-1.338,1.698-3.568,1.257-7.025c-0.183-1.52-0.738-3.875-1.209-5.947
					c-0.249-1.041-0.479-2.019-0.613-2.709c-0.815-4.081,0.153-6.565,1.112-7.927c0.768-1.064,1.794-1.846,2.945-2.225
					c0.008,0,0.026-0.009,0.057-0.009l1.861-5.75h0.584l-1.256,5.529c0.297-0.053,0.586-0.101,0.891-0.144l1.621-5.093h0.576
					L92.12,7.99c1.679-0.216,3.481-0.384,5.506-0.533c0.336,0.134,0.671,0.508,0.979,1.031l5.283-1.621l0.192,0.566l-5.056,1.966
					c0.067,0.096,0.097,0.211,0.125,0.317l5.506-0.686l0.096,0.595L99.4,10.689c0.027,0.101,0.037,0.197,0.058,0.297l5.562,0.182
					v0.601H105.021z M89.139,14.238c1.111-0.781,2.981-1.376,4.756-1.242c0.441,0.039,0.824-0.081,0.336-0.34
					c-1.313-0.695-4.401-0.46-5.476,0.288c-1.746,1.185-1.468,3.304-1.411,3.357C87.68,15.696,88.283,14.842,89.139,14.238z"/>
			</g>
		</g>
	</g>
</g>
<g>
	<path fill="#68737A" d="M23.305,122.956c0.547,0.346,1.334,0.613,2.168,0.613c1.228,0,1.947-0.67,1.947-1.592
		c0-0.881-0.509-1.371-1.766-1.859c-1.524-0.547-2.455-1.344-2.455-2.658c0-1.438,1.208-2.541,3.012-2.541
		c0.959,0,1.649,0.24,2.081,0.461l-0.336,0.979c-0.307-0.153-0.939-0.433-1.773-0.433c-1.286,0-1.775,0.769-1.775,1.41
		c0,0.854,0.576,1.285,1.861,1.804c1.572,0.612,2.388,1.37,2.388,2.723c0,1.468-1.074,2.687-3.271,2.687
		c-0.901,0-1.898-0.25-2.388-0.584L23.305,122.956z"/>
	<path fill="#68737A" d="M42.084,115.196c0.575-0.096,1.343-0.191,2.312-0.191c1.188,0,2.062,0.277,2.609,0.769
		c0.517,0.461,0.824,1.131,0.824,1.957c0,0.854-0.24,1.535-0.719,2.022c-0.644,0.672-1.679,1.006-2.859,1.006
		c-0.364,0-0.681,0-0.978-0.096v3.76h-1.189V115.196z M43.273,119.685c0.278,0.097,0.613,0.097,1.007,0.097
		c1.458,0,2.341-0.699,2.341-1.984c0-1.228-0.863-1.842-2.196-1.842c-0.538,0-0.931,0.067-1.151,0.125L43.273,119.685
		L43.273,119.685z"/>
	<path fill="#68737A" d="M69.207,119.657c0,3.213-1.956,4.92-4.335,4.92c-2.465,0-4.191-1.918-4.191-4.738
		c0-2.963,1.832-4.92,4.336-4.92C67.558,114.918,69.207,116.875,69.207,119.657z M61.967,119.81c0,1.985,1.064,3.789,2.973,3.789
		c1.918,0,2.983-1.765,2.983-3.886c0-1.858-0.959-3.787-2.964-3.787S61.967,117.758,61.967,119.81z"/>
	<path fill="#68737A" d="M82.549,115.071h1.209v4.527h0.037c0.25-0.373,0.489-0.709,0.739-1.016l2.839-3.513h1.505l-3.366,3.972
		l3.637,5.381h-1.431l-3.079-4.584l-0.881,1.008v3.576h-1.209V115.071z"/>
	<path fill="#68737A" d="M103.477,121.489l-0.959,2.934h-1.256l3.184-9.352h1.449l3.192,9.352h-1.295l-0.997-2.934H103.477z
		 M106.555,120.547l-0.92-2.692c-0.212-0.614-0.355-1.16-0.488-1.72h-0.029c-0.135,0.56-0.288,1.134-0.46,1.72l-0.921,2.692H106.555
		z"/>
	<path fill="#68737A" d="M122.227,124.422v-9.352h1.314l2.982,4.738c0.699,1.104,1.256,2.082,1.678,3.031h0.039
		c-0.096-1.256-0.125-2.389-0.125-3.855v-3.914h1.143v9.352h-1.238l-2.963-4.737c-0.672-1.035-1.285-2.108-1.746-3.115h-0.047
		c0.075,1.188,0.096,2.32,0.096,3.854v3.998H122.227z"/>
	<path fill="#68737A" d="M147.96,120.06h-3.616v3.356h4.027v1.006h-5.234v-9.352h5.043v1.008h-3.836v2.963h3.616V120.06z"/>
</g>
</svg>
