<?xml version="1.0" encoding="utf-8"?>
<!-- Generator: Adobe Illustrator 16.0.0, SVG Export Plug-In . SVG Version: 6.00 Build 0)  -->
<!DOCTYPE svg PUBLIC "-//W3C//DTD SVG 1.1//EN" "http://www.w3.org/Graphics/SVG/1.1/DTD/svg11.dtd">
<svg version="1.1" id="Layer_1" xmlns="http://www.w3.org/2000/svg" xmlns:xlink="http://www.w3.org/1999/xlink" x="0px" y="0px"
	 width="408.583px" height="30px" viewBox="0 0 408.583 30" enable-background="new 0 0 408.583 30" xml:space="preserve">
<g>
	<g>
		<g>
			<g>
				<path fill="#68737A" d="M287.154,24.8l-4.174,2.976L278.8,24.8c-2.963-2.028-5.504-3.767-6.838-6.413
					c1.101,4.952,5.94,6.812,11.019,10.78c5.069-3.969,9.916-5.828,11.015-10.78C292.662,21.034,290.119,22.771,287.154,24.8z"/>
				<g>
					<path fill="#981E32" d="M271.387,0.583v0.52c0.322,0.113,0.428,0.215,0.463,0.685v11.97c0,6.657,5.416,8.418,11.131,12.891
						c5.719-4.473,11.139-6.232,11.139-12.891V1.651c0.041-0.357,0.154-0.45,0.443-0.548v-0.52H271.387z"/>
				</g>
			</g>
		</g>
	</g>
	<g>
		<g>
			<g>
				<path fill="#FFFFFF" d="M285.234,20.07c0,0,0.93-0.396,1.434-1.926c0.447,0.933,0.332,1.893,0.332,1.893
					C286.586,20.132,285.234,20.07,285.234,20.07z"/>
				<path fill="#FFFFFF" d="M290.209,11.312c0,0,0.562,3.08-1.438,3.182c-1.93,0.106-2.834-2.802-2.834-2.802
					s0.465,5.674,3.168,5.302C292.152,16.573,290.209,11.312,290.209,11.312z"/>
			</g>
		</g>
		<path fill="#FFFFFF" d="M275.518,19.338h0.004c2.258-0.516,3.98-3.146,4.488-4.203l0.324-0.67l0.195,0.717
			c0.008,0.037,0.217,0.828,0.217,1.873c0,0.114-0.004,0.231-0.01,0.354c0.779,0.028,1.336-0.127,1.68-0.49
			c0.496-0.513,0.645-1.483,0.459-2.967c-0.09-0.711-0.352-1.841-0.586-2.835c-0.117-0.513-0.229-0.991-0.299-1.333
			c-0.436-2.181,0.107-3.539,0.637-4.286c0.082-0.12,0.172-0.23,0.268-0.339c-1.561,0.526-2.869,1.345-4.221,2.695l0.955,1.1
			l0.385-0.363c0.367,1.37,0.104,2.628,0.104,2.628c-0.502-0.763-1.091-1.378-1.091-1.378l0.261-0.436l-0.856-0.993l-0.101-0.111
			c-1.056,1.444-1.396,2.631-1.396,2.631l0.75,0.68l0.437,0.395l0.146-0.417c0.801,1.502,0.066,2.907,0.066,2.907
			c-0.129-0.514-0.66-1.272-0.66-1.272l0.209-0.687l-1.109-1.006c-1.156,3.613-2.699,4.78-2.699,4.78s1.672-0.305,2.602-0.614
			C276.674,15.699,276.65,17.602,275.518,19.338z"/>
		<path fill="#FFFFFF" d="M292.379,6.311l-2.672,0.112c0.002,0.319-0.037,0.637-0.139,0.932c0.246,1.089,0.074,1.682,0.074,1.682
			c-0.445-1.036-0.787-1.328-0.787-1.328c-2.451-1.087-3.824,1.377-3.682,2.963c0.119,1.307,0.598,3.041,0.965,5.756
			c0.312,2.289-0.846,3.275-2.182,3.504c-0.025,0.006-0.059,0.01-0.084,0.017c-0.01,0-0.016,0.001-0.021,0.001
			c-0.217,0.027-0.447,0.04-0.688,0.029c-0.01,0-0.02,0-0.025,0c-0.023,0-0.053-0.002-0.08-0.002
			c-0.104-0.009-0.205-0.018-0.311-0.028c-1.03-0.146-3.354-0.565-5.752-0.624c1.41-0.822,2.518-2.248,3.129-3.258
			c0.035,0.276,0.064,0.619,0.064,0.998c0,0.188-0.008,0.384-0.021,0.584l-0.023,0.275l0.273,0.02
			c1.104,0.101,1.887-0.11,2.396-0.637c0.623-0.654,0.817-1.74,0.606-3.422c-0.094-0.738-0.358-1.883-0.596-2.895
			c-0.117-0.505-0.229-0.982-0.296-1.314c-0.395-1.989,0.078-3.197,0.543-3.861c0.367-0.519,0.875-0.898,1.425-1.081
			c0.012-0.002,0.022-0.002,0.028-0.005l0.908-2.798h0.289l-0.613,2.69c0.144-0.023,0.287-0.049,0.435-0.07l0.785-2.48h0.284
			L286.1,4.474c0.812-0.109,1.694-0.188,2.676-0.261c0.16,0.066,0.33,0.25,0.479,0.506l2.57-0.794l0.094,0.279l-2.455,0.952
			c0.021,0.049,0.039,0.104,0.058,0.157l2.687-0.333l0.041,0.285l-2.603,0.521c0.006,0.047,0.015,0.098,0.022,0.146l2.709,0.087
			L292.379,6.311L292.379,6.311z M284.646,7.513c0.539-0.38,1.455-0.673,2.312-0.603c0.219,0.016,0.401-0.042,0.166-0.167
			c-0.644-0.34-2.142-0.224-2.67,0.138c-0.847,0.581-0.703,1.61-0.683,1.634C283.939,8.223,284.227,7.805,284.646,7.513z"/>
	</g>
</g>
<g>
	<g>
		<path fill="#68737A" d="M128.085,7.369c-0.175-1.542-1.013-2.772-2.77-2.772c-1.274,0-2.563,0.661-2.563,2.287
			c0,1.537,1.539,2.463,3.736,4.111c2.328,1.736,3.079,2.856,3.079,4.681c0,2.616-2.536,4.064-5.173,4.064
			c-1.408,0-2.615-0.264-3.76-0.7c-0.085-0.047-0.152-0.136-0.152-0.31v-3.166h0.571c0.243,2.438,1.843,3.405,3.538,3.405
			c1.562,0,2.981-1.185,2.981-2.786c0-1.435-0.771-2.6-4.065-4.772c-1.187-0.789-2.658-1.65-2.658-4.042
			c0-1.982,2.048-3.542,4.578-3.542c0.944,0,2.198,0.109,3.077,0.417c0.133,0.046,0.153,0.135,0.153,0.245v2.879L128.085,7.369
			L128.085,7.369z"/>
		<path fill="#68737A" d="M135.755,16.012c0,1.523-0.065,1.438,1.41,1.618v0.427h-4.4V17.63c1.47-0.182,1.406-0.095,1.406-1.618
			V7.14h-1.326c-1.423,0-1.75,0.899-2.287,1.977h-0.408l0.44-2.501h8.747l0.439,2.501h-0.407c-0.539-1.078-0.865-1.977-2.287-1.977
			h-1.329v8.872H135.755z"/>
		<path fill="#68737A" d="M141.571,14.321l-0.738,2.156c-0.211,0.631,0.093,1.159,0.803,1.159v0.421h-2.928v-0.421
			c0.433,0,0.901-0.271,1.158-0.805c0.691-1.416,2.575-6.681,3.912-10.238h0.902c1.093,3.232,2.735,8.195,3.283,9.627
			c0.354,0.901,0.61,1.416,1.305,1.416v0.421h-3.75v-0.421c1.012,0,1.11-0.528,0.854-1.241l-0.695-2.074H141.571z M145.468,13.707
			l-1.708-5.231h-0.031l-1.916,5.231H145.468z"/>
		<path fill="#68737A" d="M153.736,16.012c0,1.523-0.064,1.438,1.404,1.618v0.427h-4.396V17.63c1.473-0.182,1.406-0.095,1.406-1.618
			V7.14h-1.326c-1.42,0-1.746,0.899-2.286,1.977h-0.409l0.443-2.501h8.744l0.438,2.501h-0.408c-0.535-1.078-0.863-1.977-2.287-1.977
			h-1.322L153.736,16.012L153.736,16.012z"/>
		<path fill="#68737A" d="M158.523,17.63c1.475-0.182,1.264-0.095,1.264-1.618V8.657c0-1.517,0.211-1.438-1.264-1.616V6.615h7.16
			v2.631h-0.426c-0.164-1.208-0.488-2.106-1.664-2.106h-2.225v4.674h1.373c1.027,0,1.471-0.411,1.502-1.423h0.426v3.479h-0.426
			c-0.031-0.964-0.406-1.535-1.502-1.535h-1.373v3.692c0,1.391,0.639,1.508,2.109,1.508c2.369,0,2.254-0.676,3.006-2.423h0.424
			l-0.49,2.943h-7.895L158.523,17.63L158.523,17.63z"/>
	</g>
	<g>
		<g>
			<path fill="#68737A" d="M196.674,18.057c0,0,0,0-7.957-9.431v7.224c0,0.342,0.068,0.619,0.098,0.881
				c0.082,0.588,0.641,0.817,1.715,0.899v0.427h-4V17.63c0.785-0.082,1.322-0.312,1.404-0.899c0.033-0.262,0.1-0.539,0.1-0.881
				V8.153c-0.457-0.587-0.969-1.11-1.895-1.11V6.615h2.969c2.438,2.959,4.973,5.966,7.404,8.925h0.033V8.823
				c0-0.344-0.068-0.621-0.102-0.882c-0.082-0.589-0.633-0.814-1.713-0.898V6.615h4.002v0.428c-0.768,0.083-1.32,0.309-1.406,0.898
				c-0.031,0.262-0.098,0.538-0.098,0.882v9.233H196.674L196.674,18.057z"/>
		</g>
		<path fill="#68737A" d="M203.098,16.012c0,1.523-0.068,1.438,1.402,1.618v0.427h-4.395V17.63c1.471-0.18,1.402-0.095,1.402-1.618
			V8.66c0-1.519,0.066-1.44-1.402-1.617V6.62h4.395v0.422c-1.471,0.177-1.402,0.098-1.402,1.617V16.012z"/>
		<path fill="#68737A" d="M223.887,15.113c-0.752,1.75-0.639,2.423-3.006,2.423c-1.469,0-2.111-0.117-2.111-1.509v-3.691h1.377
			c1.096,0,1.471,0.575,1.5,1.539h0.424v-3.483h-0.424c-0.029,1.012-0.473,1.423-1.5,1.423h-1.377V7.141h2.598
			c1.174,0,1.504,0.898,1.662,2.107h0.428V6.62h-7.525h-3.236v0.422c1.107,0,1.535,0.506,1.125,1.537
			c-1.012,2.5-2.008,5.014-3.059,7.515c-0.848-2.481-1.793-5.292-2.43-7.221c-0.543-1.57,0.111-1.831,1.012-1.831V6.62h-4.152v0.422
			c0.785,0,0.996,0.506,1.605,2.254c0.992,2.778,2.104,5.932,3.104,8.761h0.832c1.373-3.353,2.764-6.684,4.135-10.033
			c0.344-0.818,0.588-0.981,1.064-0.981c1.471,0.177,1.258,0.098,1.258,1.617v7.354c0,1.522,0.213,1.438-1.258,1.617v0.426h7.893
			l0.49-2.941h-0.426v-0.002H223.887z"/>
		<path fill="#68737A" d="M246.646,16.012c0,1.523-0.068,1.438,1.398,1.618v0.427h-4.396V17.63c1.475-0.18,1.408-0.095,1.408-1.618
			V8.66c0-1.519,0.064-1.44-1.408-1.617V6.62h4.396v0.422c-1.469,0.177-1.398,0.098-1.398,1.617V16.012z"/>
		<path fill="#68737A" d="M263.355,6.62v0.422c0.961,0,1.484,0.471,0.93,1.472l-2.254,4.103l-1.979-4.103
			c-0.407-0.854-0.52-1.472,0.72-1.472V6.62h-2.737h-1.136h-7.606l-0.444,2.496h0.409c0.537-1.078,0.865-1.976,2.287-1.976h1.326
			v8.872c0,1.523,0.063,1.438-1.406,1.618v0.427h4.396V17.63c-1.471-0.18-1.405-0.095-1.405-1.618V7.141h1.325
			c1.341,0,2.24,0.801,2.791,1.795l2.302,4.562v2.516c0,1.522,0.065,1.438-1.404,1.617v0.426h4.396V17.63
			c-1.467-0.18-1.403-0.095-1.403-1.618v-1.83c0-0.407,0.031-0.866,0.194-1.191l2.729-4.952c0.445-0.784,0.884-0.996,1.341-0.996
			V6.62H263.355z"/>
		<path fill="#68737A" d="M186.156,4.143l-5.15,0.014v0.426c1.033,0.111,1.781,0.565,1.891,1.358
			c0.041,0.351,0.131,0.722,0.131,1.185v6.108c0,3.52-1.582,5.54-4.59,5.54c-3.275,0-4.258-2.353-4.258-5.43V6.905
			c0-2.044,0.061-2.08,2.039-2.321V4.157h-5.914v0.426c1.979,0.241,1.891,0.277,1.891,2.321v6.549c0,3.979,1.451,6.354,6.131,6.354
			c2.834,0,5.85-1.758,5.85-6.483V7.126c0-0.038,0-0.074,0-0.11c-0.021-1.907,0.721-2.185,1.971-2.386L186.156,4.143z"/>
		<path fill="#68737A" d="M240.121,12.071c-1.732-1.3-2.943-2.028-2.943-3.241c0-1.28,0.9-1.802,1.906-1.802
			c1.385,0,2.043,0.972,2.182,2.185h0.449V6.942c0-0.087-0.016-0.157-0.119-0.19c-0.693-0.242-1.682-0.33-2.426-0.33
			c-1.992,0-3.725,1.229-3.725,2.791c0,0.843,0.232,1.446,0.574,1.909h-0.008c0.008,0.006,0.016,0.012,0.021,0.02
			c0.42,0.559,0.998,0.917,1.506,1.257c2.603,1.718,3.188,2.634,3.207,3.76c0.049,2.501-4.636,3.815-7.72-0.99l-1.601-2.434
			c1.259-0.492,2.287-1.651,2.287-3.334c0-1.917-1.651-2.779-3.301-2.779h-4.759v0.423c1.472,0.179,1.404,0.099,1.404,1.618v7.356
			c0,1.523,0.065,1.438-1.404,1.619v0.426h4.398v-0.426c-1.474-0.181-1.408-0.096-1.408-1.619v-3.022h1.537
			c1.979,3.285,2.467,4.711,3.463,5.067c0.226,0.078,2.789,0.901,4.601,0.901c2.08,0,4.301-1.144,4.301-3.206
			C242.547,14.324,241.957,13.438,240.121,12.071z M230.006,12.648h-1.359V7.319h1.258c1.193,0,2.18,0.621,2.18,2.404
			C232.082,11.57,231.428,12.648,230.006,12.648z"/>
	</g>
	<g>
		<path fill="#68737A" d="M40.643,16.014c0,1.521-0.066,1.438,1.403,1.618v0.425h-4.395v-0.425c1.47-0.182,1.404-0.097,1.404-1.618
			V8.66c0-1.519-0.706-1.436-2.177-1.617V6.62h5.167v0.422c-1.47,0.182-1.403,0.098-1.403,1.617v2.828h5.734V8.66
			c0-1.519,0.065-1.436-1.405-1.617V6.62h4.394v0.422c-1.468,0.182-1.404,0.098-1.404,1.617v7.354c0,1.521-0.064,1.438,1.404,1.617
			v0.426h-4.394v-0.426c1.47-0.182,1.405-0.097,1.405-1.617v-3.857h-5.734L40.643,16.014L40.643,16.014z"/>
		<path fill="#68737A" d="M54.157,16.014c0,1.521-0.066,1.438,1.405,1.618v0.425h-4.395v-0.425c1.47-0.182,1.405-0.097,1.405-1.618
			V8.66c0-1.519,0.064-1.436-1.405-1.617V6.62h4.395v0.422c-1.471,0.182-1.405,0.098-1.405,1.617V16.014z"/>
		<path fill="#68737A" d="M67.741,18.057c-2.598-3.072-5.294-6.292-7.956-9.431v7.226c0,0.34,0.063,0.621,0.098,0.881
			c0.082,0.592,0.636,0.815,1.713,0.899v0.425h-4.002v-0.425c0.784-0.084,1.324-0.31,1.406-0.899
			c0.031-0.26,0.098-0.541,0.098-0.881V8.153c-0.459-0.587-0.966-1.11-1.897-1.11V6.62h2.976c2.435,2.955,4.966,5.963,7.401,8.919
			h0.032V8.824c0-0.344-0.065-0.622-0.097-0.882c-0.081-0.589-0.639-0.816-1.716-0.899V6.62h4.005v0.422
			c-0.769,0.083-1.324,0.311-1.408,0.899c-0.032,0.26-0.096,0.539-0.096,0.882v9.231h-0.557V18.057z"/>
		<path fill="#68737A" d="M70.151,12.272c0-2.516,2.125-5.852,6.534-5.852c1.584,0,2.336,0.295,3.137,0.56
			c0.458,0.146,0.637,0.373,0.637,0.634v2.109h-0.425c-0.048-1.309-0.882-2.729-3.479-2.729c-3.417,0-4.528,2.352-4.542,5.146
			c-0.018,2.581,1.289,5.543,4.606,5.543c2.044,0,2.223-0.758,2.223-2.028v-0.998c0-1.521,0.063-1.438-1.732-1.616v-0.423h4.722
			v0.423c-1.47,0.18-1.404,0.095-1.404,1.616v2.845c-1.046,0.408-2.419,0.753-3.907,0.753C73.173,18.254,70.151,16.65,70.151,12.272
			z"/>
		<path fill="#68737A" d="M87.439,16.014c0,1.521-0.066,1.438,1.404,1.618v0.425h-4.396v-0.425c1.469-0.182,1.406-0.097,1.406-1.618
			V7.141h-1.326c-1.421,0-1.748,0.898-2.288,1.978h-0.407l0.441-2.498h8.742l0.441,2.498h-0.41c-0.538-1.08-0.864-1.978-2.285-1.978
			h-1.324v8.873H87.439z"/>
		<path fill="#68737A" d="M91.458,12.55c0-3.531,2.744-6.129,6.142-6.129c3.546,0,5.605,3.056,5.605,5.575
			c0,3.448-2.581,6.259-6.193,6.259C93.891,18.254,91.458,15.721,91.458,12.55z M101.342,12.485c0-3.905-2.107-5.49-4.102-5.49
			c-2.778,0-3.92,2.482-3.92,4.705c0,3.955,2.025,5.983,4.133,5.983C100.494,17.684,101.342,14.675,101.342,12.485z"/>
		<path fill="#68737A" d="M113.746,18.057c-2.601-3.072-5.294-6.292-7.958-9.431v7.226c0,0.34,0.064,0.621,0.098,0.881
			c0.083,0.592,0.638,0.815,1.714,0.899v0.425h-4.002v-0.425c0.785-0.084,1.324-0.31,1.407-0.899
			c0.031-0.26,0.097-0.541,0.097-0.881V8.153c-0.457-0.587-0.963-1.11-1.896-1.11V6.62h2.975c2.435,2.955,4.965,5.963,7.401,8.919
			h0.031V8.824c0-0.344-0.065-0.622-0.096-0.882c-0.082-0.589-0.637-0.816-1.716-0.899V6.62h4.002v0.422
			c-0.766,0.083-1.322,0.311-1.404,0.899c-0.032,0.26-0.098,0.539-0.098,0.882v9.231h-0.555V18.057L113.746,18.057z"/>
		<path fill="#68737A" d="M22.487,4.431V4.414h-4.419v0.547c1.706,0.019,1.982,0.628,1.535,1.918l-3.345,9.107h-0.185L12.134,4.602
			h-0.997L6.998,15.986h-0.28L3.752,6.939C3.331,5.508,3.918,4.961,5.246,4.961V4.414H0v0.547c1.116,0,1.314,0.868,2.031,2.925
			l3.808,11.257h1.002l4.074-11.479l4.015,11.493h1.123c1.716-4.573,4.136-11.333,5.024-13.152c0.332-0.685,0.93-1.034,1.489-1.034
			V4.431H22.487z"/>
		<path fill="#68737A" d="M33.974,11.952c-1.708-1.282-2.905-2-2.905-3.197c0-1.265,0.889-1.779,1.88-1.779
			c1.369,0,2.017,0.958,2.154,2.155h0.444v-2.24c0-0.086-0.018-0.153-0.12-0.188c-0.684-0.24-1.658-0.326-2.393-0.326
			c-1.965,0-3.676,1.216-3.676,2.753c0,0.835,0.23,1.428,0.567,1.885h-0.004c0.006,0.006,0.013,0.013,0.02,0.019
			c0.412,0.553,0.982,0.905,1.486,1.243c2.565,1.692,3.163,2.597,3.163,3.708c0,1.035-0.775,2.07-2.205,2.174
			c-1.463,0.104-3.344-0.604-4.135-2.655c-0.704-1.969-2.133-6.11-3.099-8.968H24.21c-1.349,3.592-3.176,8.856-3.876,10.283
			c-0.258,0.537-0.729,0.812-1.168,0.812v0.424h0.702h2.254v-0.424c-0.714,0-1.023-0.537-0.812-1.171l0.749-2.176h4.142l0.698,2.095
			l0.54,1.615c0,0,2.904,0.761,4.795,0.761c2.052,0,4.137-1.128,4.137-3.163C36.367,14.173,35.786,13.301,33.974,11.952z
			 M22.3,13.667l1.933-5.28h0.032l1.724,5.28H22.3z"/>
	</g>
</g>
<g>
	<path fill="#68737A" d="M308.233,12.851v3.244c-0.774,0.273-1.742,0.535-2.755,0.535c-2.834,0-4.291-1.958-4.291-4.143
		c0-2.015,1.57-4.098,4.438-4.098c1.161,0,2.072,0.375,2.55,0.774l-0.455,0.66c-0.478-0.33-1.206-0.638-2.083-0.638
		c-2.071,0-3.232,1.412-3.232,3.278c0,2.015,1.377,3.369,3.107,3.369c0.672,0,1.172-0.068,1.616-0.284v-2.698H308.233z"/>
	<path fill="#68737A" d="M311.488,8.525h1.104v7.171h3.312v0.797h-4.417V8.525z"/>
	<path fill="#68737A" d="M318.033,12.373c0-2.231,1.685-3.984,3.983-3.984c2.3,0,3.984,1.753,3.984,3.984
		c0,2.379-1.525,4.257-3.984,4.257S318.033,14.752,318.033,12.373z M324.783,12.373c0-1.491-0.797-3.188-2.767-3.188
		c-1.969,0-2.766,1.696-2.766,3.188c0,1.56,0.705,3.46,2.766,3.46S324.783,13.933,324.783,12.373z"/>
	<path fill="#68737A" d="M328.982,16.493V8.525h2.471c1.184,0,2.071,0.592,2.071,1.628c0,1.298-1.013,1.912-1.628,2.026v0.022
		c1.047,0.034,2.117,0.683,2.117,1.981c0,1.332-1.138,2.31-2.789,2.31H328.982z M330.087,11.94h0.546
		c0.956,0,1.787-0.66,1.787-1.514c0-0.706-0.489-1.104-1.399-1.104h-0.934V11.94z M330.087,15.696h1.069
		c0.899,0,1.674-0.489,1.674-1.445c0-1.115-0.956-1.514-1.855-1.514h-0.888V15.696z"/>
	<path fill="#68737A" d="M340.08,8.525l2.971,7.968h-1.274l-0.819-2.344h-3.04l-0.854,2.344h-1.07l3.244-7.968H340.08z
		 M340.694,13.352c-0.398-1.104-0.785-2.208-1.184-3.643h-0.022c-0.41,1.434-0.831,2.538-1.264,3.643H340.694z"/>
	<path fill="#68737A" d="M345.441,8.525h1.104v7.171h3.312v0.797h-4.417V8.525z"/>
	<path fill="#68737A" d="M363.164,9.88c-0.375-0.307-1.229-0.694-2.083-0.694c-1.969,0-3.13,1.412-3.13,3.278
		c0,2.015,1.389,3.369,3.13,3.369c0.865,0,1.548-0.273,2.015-0.591l0.433,0.66c-0.535,0.364-1.479,0.729-2.504,0.729
		c-2.846,0-4.292-1.946-4.292-4.143c0-2.003,1.571-4.098,4.429-4.098c1.138,0,1.935,0.398,2.459,0.808L363.164,9.88z"/>
	<path fill="#68737A" d="M369.492,8.525l2.971,7.968h-1.274l-0.819-2.344h-3.04l-0.854,2.344h-1.07l3.244-7.968H369.492z
		 M370.106,13.352c-0.398-1.104-0.785-2.208-1.184-3.643H368.9c-0.41,1.434-0.831,2.538-1.264,3.643H370.106z"/>
	<path fill="#68737A" d="M383.505,16.493H382.4v-6.488h-0.022c-0.318,0.934-2.129,4.451-3.198,6.488h-0.444
		c-0.99-2.037-2.641-5.44-2.948-6.488h-0.022v6.488h-0.911V8.525h1.184c1.024,2.117,2.049,4.246,3.062,6.488
		c1.127-2.242,2.254-4.371,3.369-6.488h1.036V16.493z"/>
	<path fill="#68737A" d="M388,16.493h-1.104V8.525h2.004c1.685,0,2.72,0.751,2.72,2.299c0,1.343-1.149,2.562-2.937,2.562h-0.353
		v-0.729l0.364-0.012c1.069-0.057,1.741-0.626,1.741-1.81c0-0.876-0.489-1.514-1.673-1.514H388V16.493z"/>
	<path fill="#68737A" d="M395.478,8.525v4.827c0,1.65,0.615,2.515,2.038,2.515c1.491,0,1.992-1.184,1.992-2.322v-5.02h1.035v5.043
		c0,1.787-1.104,3.062-3.027,3.062c-2.243,0-3.142-1.184-3.142-3.232V8.525H395.478z"/>
	<path fill="#68737A" d="M407.555,9.755c-0.387-0.285-0.898-0.569-1.377-0.569c-0.797,0-1.241,0.467-1.241,1.082
		c0,0.569,0.49,0.99,1.515,1.73c1.093,0.796,1.729,1.525,1.729,2.55c0,1.263-1.194,2.083-2.47,2.083
		c-0.763,0-1.673-0.273-2.242-0.831l0.489-0.66c0.467,0.33,0.979,0.694,1.73,0.694c0.785,0,1.389-0.421,1.389-1.309
		c0-1.002-1.195-1.65-1.845-2.128c-0.66-0.513-1.399-1.002-1.399-2.129c0-1.07,1.036-1.878,2.276-1.878
		c0.831,0,1.525,0.296,1.97,0.796L407.555,9.755z"/>
</g>
</svg>
