<?xml version="1.0" encoding="utf-8"?>
<!-- Generator: Adobe Illustrator 16.0.0, SVG Export Plug-In . SVG Version: 6.00 Build 0)  -->
<!DOCTYPE svg PUBLIC "-//W3C//DTD SVG 1.1//EN" "http://www.w3.org/Graphics/SVG/1.1/DTD/svg11.dtd">
<svg version="1.1" id="Layer_1" xmlns="http://www.w3.org/2000/svg" xmlns:xlink="http://www.w3.org/1999/xlink" x="0px" y="0px"
	 width="179.646px" height="112.389px" viewBox="0 0 179.646 112.389" enable-background="new 0 0 179.646 112.389"
	 xml:space="preserve">
<g>
	<g>
		<path fill="#FFFFFF" d="M113.014,98.511c-1.759-1.319-2.988-2.057-2.988-3.287c0-1.3,0.914-1.829,1.936-1.829
			c1.404,0,2.072,0.985,2.213,2.216h0.457v-2.304c0-0.087-0.018-0.159-0.123-0.19c-0.702-0.246-1.704-0.334-2.461-0.334
			c-2.021,0-3.776,1.245-3.776,2.828c0,0.855,0.235,1.469,0.582,1.938h-0.007c0.008,0.007,0.017,0.014,0.021,0.021
			c0.426,0.567,1.011,0.931,1.527,1.276c2.637,1.741,3.23,2.671,3.253,3.813c0.048,2.535-4.702,3.87-7.831-1.005l-1.623-2.471
			c1.277-0.497,2.32-1.674,2.32-3.383c0-1.943-1.675-2.816-3.349-2.816h-4.827v0.43c1.492,0.18,1.426,0.1,1.426,1.641v7.462
			c0,1.547,0.066,1.461-1.426,1.644v0.432h4.462v-0.432c-1.493-0.183-1.428-0.097-1.428-1.644V99.45h1.562
			c2.005,3.332,2.502,4.778,3.513,5.14c0.226,0.08,2.827,0.917,4.665,0.917c2.109,0,4.362-1.16,4.362-3.252
			C115.474,100.795,114.877,99.897,113.014,98.511z M102.751,99.095h-1.378V93.69h1.276c1.21,0,2.209,0.628,2.209,2.438
			C104.858,98.002,104.193,99.095,102.751,99.095z"/>
		<path fill="#FFFFFF" d="M68.737,104.573c0,0,0,0-8.114-9.615v7.365c0,0.35,0.068,0.633,0.099,0.898
			c0.085,0.6,0.652,0.832,1.752,0.917v0.435H58.39v-0.435c0.802-0.085,1.35-0.317,1.432-0.917c0.035-0.267,0.101-0.55,0.101-0.898
			v-7.849c-0.465-0.6-0.984-1.134-1.932-1.134v-0.438h3.03c2.481,3.02,5.068,6.084,7.55,9.104h0.034v-6.853
			c0-0.351-0.068-0.632-0.103-0.898c-0.084-0.6-0.646-0.83-1.748-0.915v-0.438h4.083v0.438c-0.782,0.085-1.35,0.315-1.436,0.915
			c-0.033,0.268-0.098,0.549-0.098,0.898v9.417h-0.567V104.573z"/>
		<path fill="#FFFFFF" d="M75.287,102.488c0,1.554-0.065,1.468,1.433,1.65v0.435h-4.481v-0.435c1.5-0.184,1.433-0.098,1.433-1.65
			V94.99c0-1.549,0.067-1.469-1.433-1.649v-0.432h4.481v0.432c-1.498,0.182-1.433,0.102-1.433,1.649V102.488z"/>
		<path fill="#FFFFFF" d="M96.488,101.571c-0.768,1.785-0.65,2.471-3.064,2.471c-1.5,0-2.151-0.12-2.151-1.536V98.74h1.401
			c1.115,0,1.498,0.586,1.531,1.568h0.432v-3.553h-0.432c-0.033,1.033-0.482,1.451-1.531,1.451h-1.401v-4.766h2.645
			c1.198,0,1.535,0.914,1.699,2.147h0.432v-2.681h-7.674h-3.301v0.432c1.131,0,1.566,0.516,1.148,1.566
			c-1.033,2.55-2.05,5.113-3.117,7.664c-0.866-2.529-1.831-5.396-2.479-7.363c-0.554-1.603,0.116-1.867,1.033-1.867v-0.432H77.42
			v0.432c0.804,0,1.018,0.516,1.639,2.3c1.015,2.833,2.149,6.048,3.166,8.932h0.848c1.401-3.415,2.817-6.814,4.216-10.229
			c0.352-0.836,0.601-1.002,1.086-1.002c1.499,0.182,1.283,0.102,1.283,1.649v7.497c0,1.554,0.216,1.468-1.283,1.65v0.435h8.048
			l0.501-3.002L96.488,101.571L96.488,101.571z"/>
		<path fill="#FFFFFF" d="M119.464,102.488c0,1.554-0.068,1.468,1.432,1.65v0.435h-4.483v-0.435c1.501-0.184,1.436-0.098,1.436-1.65
			V94.99c0-1.549,0.065-1.469-1.436-1.649v-0.432h4.483v0.432c-1.5,0.182-1.432,0.102-1.432,1.649V102.488z"/>
		<path fill="#FFFFFF" d="M136.504,92.909v0.432c0.982,0,1.517,0.481,0.949,1.499l-2.299,4.187l-2.018-4.187
			c-0.416-0.866-0.531-1.499,0.731-1.499v-0.432h-2.793h-1.156h-7.76l-0.451,2.546h0.417c0.549-1.1,0.882-2.014,2.331-2.014h1.354
			v9.046c0,1.554,0.063,1.468-1.436,1.65v0.435h4.482v-0.435c-1.5-0.184-1.436-0.098-1.436-1.65v-9.046h1.353
			c1.367,0,2.285,0.815,2.848,1.829l2.348,4.654v2.562c0,1.554,0.066,1.468-1.434,1.65v0.434h4.481v-0.434
			c-1.497-0.184-1.434-0.098-1.434-1.65v-1.865c0-0.415,0.034-0.885,0.201-1.215l2.781-5.052c0.452-0.8,0.898-1.016,1.367-1.016
			v-0.432h-3.43V92.909z"/>
		<path fill="#FFFFFF" d="M58.01,92.9l-5.25,0.015v0.436c1.053,0.113,1.814,0.575,1.926,1.384c0.045,0.357,0.137,0.736,0.137,1.208
			v6.229c0,3.589-1.617,5.646-4.685,5.646c-3.341,0-4.343-2.396-4.343-5.535v-6.566c0-2.083,0.062-2.121,2.078-2.366v-0.436h-6.031
			v0.436c2.021,0.245,1.931,0.283,1.931,2.366v6.68c0,4.057,1.479,6.479,6.251,6.479c2.892,0,5.965-1.793,5.965-6.613v-6.32
			c0-0.038,0-0.074,0-0.11c-0.021-1.945,0.736-2.229,2.011-2.436L58.01,92.9z"/>
	</g>
	<g>
		<g>
			<path fill="#FFFFFF" d="M47.297,84.562c0,1.543-0.066,1.46,1.426,1.644v0.431H44.26v-0.431c1.493-0.184,1.427-0.101,1.427-1.644
				v-7.469c0-1.54-0.717-1.458-2.21-1.641v-0.43h5.246v0.43c-1.492,0.183-1.426,0.101-1.426,1.641v2.874h5.823v-2.874
				c0-1.54,0.065-1.458-1.428-1.641v-0.43h4.462v0.43c-1.491,0.183-1.426,0.101-1.426,1.641v7.469c0,1.543-0.064,1.46,1.426,1.644
				v0.431h-4.462v-0.431c1.493-0.184,1.428-0.101,1.428-1.644v-3.918h-5.823V84.562z"/>
			<path fill="#FFFFFF" d="M61.019,84.562c0,1.543-0.068,1.46,1.426,1.644v0.431h-4.462v-0.431c1.493-0.184,1.427-0.101,1.427-1.644
				v-7.469c0-1.54,0.066-1.458-1.427-1.641v-0.43h4.462v0.43c-1.494,0.183-1.426,0.101-1.426,1.641V84.562z"/>
			<path fill="#FFFFFF" d="M74.812,86.635c-2.638-3.118-5.375-6.389-8.079-9.575v7.337c0,0.346,0.064,0.63,0.101,0.896
				c0.083,0.6,0.646,0.828,1.74,0.913v0.431H64.51v-0.431c0.795-0.085,1.344-0.313,1.428-0.913c0.032-0.266,0.1-0.55,0.1-0.896
				v-7.815c-0.466-0.597-0.979-1.128-1.926-1.128v-0.43h3.021c2.473,3,5.043,6.055,7.516,9.057h0.032v-6.817
				c0-0.35-0.065-0.633-0.101-0.896c-0.082-0.598-0.646-0.828-1.742-0.912v-0.43h4.066v0.43c-0.78,0.084-1.343,0.314-1.429,0.912
				c-0.032,0.265-0.098,0.548-0.098,0.896v9.373L74.812,86.635L74.812,86.635z"/>
			<path fill="#FFFFFF" d="M77.258,80.762c0-2.555,2.158-5.942,6.637-5.942c1.608,0,2.372,0.302,3.186,0.568
				c0.464,0.148,0.646,0.38,0.646,0.646v2.141h-0.432c-0.05-1.328-0.896-2.771-3.532-2.771c-3.469,0-4.598,2.389-4.612,5.226
				c-0.018,2.621,1.31,5.627,4.678,5.627c2.075,0,2.257-0.767,2.257-2.058v-1.015c0-1.545,0.064-1.458-1.76-1.643v-0.43h4.795v0.43
				c-1.493,0.185-1.426,0.098-1.426,1.643v2.89c-1.062,0.412-2.456,0.763-3.967,0.763C80.328,86.835,77.258,85.209,77.258,80.762z"
				/>
			<path fill="#FFFFFF" d="M94.812,84.562c0,1.543-0.066,1.46,1.427,1.644v0.431h-4.464v-0.431c1.492-0.184,1.428-0.101,1.428-1.644
				v-9.009h-1.346c-1.443,0-1.775,0.909-2.323,2.006h-0.413l0.449-2.535h8.875l0.448,2.535h-0.415
				c-0.547-1.097-0.879-2.006-2.322-2.006h-1.344V84.562z"/>
			<path fill="#FFFFFF" d="M98.894,81.043c0-3.586,2.786-6.225,6.236-6.225c3.601,0,5.691,3.104,5.691,5.662
				c0,3.501-2.622,6.354-6.289,6.354C101.365,86.835,98.894,84.265,98.894,81.043z M108.929,80.978c0-3.966-2.14-5.574-4.164-5.574
				c-2.819,0-3.979,2.521-3.979,4.776c0,4.019,2.056,6.075,4.195,6.075C108.067,86.255,108.929,83.202,108.929,80.978z"/>
			<path fill="#FFFFFF" d="M121.523,86.635c-2.641-3.118-5.375-6.389-8.08-9.575v7.337c0,0.346,0.064,0.63,0.1,0.896
				c0.083,0.6,0.646,0.828,1.741,0.913v0.431h-4.063v-0.431c0.798-0.085,1.345-0.313,1.427-0.913c0.033-0.266,0.1-0.55,0.1-0.896
				v-7.815c-0.463-0.597-0.978-1.128-1.924-1.128v-0.43h3.02c2.474,3,5.042,6.055,7.517,9.057h0.031v-6.817
				c0-0.35-0.066-0.633-0.101-0.896c-0.082-0.598-0.645-0.828-1.74-0.912v-0.43h4.063v0.43c-0.778,0.084-1.343,0.314-1.426,0.912
				c-0.033,0.265-0.102,0.548-0.102,0.896v9.373L121.523,86.635L121.523,86.635z"/>
			<path fill="#FFFFFF" d="M28.63,72.8v-0.018h-4.487v0.557c1.73,0.019,2.013,0.637,1.559,1.947l-3.396,9.248h-0.189l-4-11.562
				h-1.012l-4.203,11.562h-0.285l-3.011-9.188c-0.429-1.455,0.169-2.008,1.516-2.008v-0.557H5.796v0.557
				c1.133,0,1.335,0.881,2.062,2.971l3.866,11.429h1.018l4.136-11.656l4.077,11.668h1.14c1.743-4.643,4.198-11.506,5.103-13.354
				c0.336-0.693,0.944-1.052,1.511-1.052V72.8H28.63z"/>
			<path fill="#FFFFFF" d="M40.562,80.403c-1.746-1.309-2.967-2.043-2.967-3.266c0-1.291,0.907-1.816,1.92-1.816
				c1.396,0,2.06,0.979,2.199,2.201h0.453v-2.287c0-0.088-0.017-0.155-0.123-0.191c-0.697-0.243-1.692-0.332-2.443-0.332
				c-2.007,0-3.752,1.24-3.752,2.812c0,0.854,0.234,1.458,0.579,1.926h-0.006c0.007,0.006,0.015,0.013,0.021,0.02
				c0.422,0.564,1.004,0.924,1.519,1.268c2.619,1.729,3.229,2.653,3.229,3.788c0,1.057-0.792,2.113-2.252,2.219
				c-1.494,0.106-3.416-0.615-4.225-2.714c-0.718-2.011-2.179-6.237-3.165-9.155h-0.962c-1.377,3.667-3.243,9.044-3.958,10.502
				c-0.263,0.549-0.744,0.831-1.193,0.831v0.432h0.718h2.302v-0.432c-0.729,0-1.045-0.548-0.83-1.195l0.765-2.224h4.229l0.713,2.141
				l0.549,1.648c0,0,2.968,0.776,4.898,0.776c2.095,0,4.224-1.152,4.224-3.229C43.006,82.671,42.413,81.782,40.562,80.403z
				 M28.641,82.156l1.973-5.393h0.033l1.759,5.393H28.641z"/>
		</g>
		<g>
			<path fill="#FFFFFF" d="M135.082,75.795c-0.177-1.565-1.024-2.815-2.811-2.815c-1.295,0-2.604,0.67-2.604,2.32
				c0,1.564,1.562,2.5,3.795,4.176c2.363,1.765,3.125,2.902,3.125,4.756c0,2.654-2.576,4.128-5.252,4.128
				c-1.432,0-2.658-0.271-3.819-0.715c-0.086-0.044-0.154-0.134-0.154-0.31v-3.218h0.579c0.247,2.477,1.872,3.46,3.595,3.46
				c1.585,0,3.025-1.205,3.025-2.834c0-1.453-0.781-2.637-4.128-4.842c-1.204-0.804-2.7-1.678-2.7-4.106
				c0-2.017,2.08-3.598,4.648-3.598c0.96,0,2.233,0.11,3.125,0.427c0.136,0.04,0.156,0.135,0.156,0.245v2.926H135.082z"/>
			<path fill="#FFFFFF" d="M142.871,84.573c0,1.547-0.062,1.458,1.429,1.646v0.428h-4.465V86.22c1.494-0.188,1.43-0.101,1.43-1.646
				v-9.015h-1.349c-1.442,0-1.774,0.914-2.322,2.008h-0.412l0.445-2.534h8.879l0.449,2.534h-0.415
				c-0.548-1.094-0.88-2.008-2.322-2.008h-1.347V84.573z"/>
			<path fill="#FFFFFF" d="M148.663,82.795l-0.759,2.226c-0.217,0.65,0.098,1.199,0.828,1.199v0.428h-3.021V86.22
				c0.446,0,0.931-0.289,1.194-0.833c0.714-1.463,2.655-6.886,4.033-10.557h0.929c1.128,3.337,2.819,8.451,3.384,9.927
				c0.368,0.926,0.633,1.463,1.347,1.463v0.428h-3.866V86.22c1.045,0,1.146-0.549,0.882-1.283l-0.717-2.142H148.663z
				 M152.684,82.167l-1.762-5.396h-0.031l-1.977,5.396H152.684z"/>
			<path fill="#FFFFFF" d="M161.131,84.573c0,1.547-0.064,1.458,1.427,1.646v0.428h-4.466V86.22
				c1.494-0.188,1.431-0.101,1.431-1.646v-9.015h-1.347c-1.444,0-1.772,0.914-2.324,2.008h-0.415l0.451-2.534h8.879l0.444,2.534
				h-0.416c-0.543-1.094-0.875-2.008-2.317-2.008h-1.347V84.573L161.131,84.573z"/>
			<path fill="#FFFFFF" d="M165.996,86.22c1.496-0.188,1.281-0.101,1.281-1.646v-7.471c0-1.544,0.215-1.461-1.281-1.643v-0.429
				h7.271v2.666h-0.435c-0.164-1.226-0.493-2.14-1.688-2.14h-2.261v4.752h1.395c1.045,0,1.495-0.416,1.524-1.444h0.434v3.53h-0.434
				c-0.029-0.98-0.412-1.562-1.524-1.562h-1.395v3.75c0,1.416,0.648,1.534,2.144,1.534c2.406,0,2.289-0.685,3.054-2.459h0.432
				l-0.499,2.986h-8.016L165.996,86.22L165.996,86.22z"/>
		</g>
	</g>
</g>
<path fill="#FFFFFF" d="M99.1,54.798l-8.549,6.086l-8.542-6.086c-6.073-4.151-11.278-7.711-14.007-13.117
	c2.253,10.135,12.165,13.925,22.549,22.053c10.387-8.128,20.3-11.918,22.555-22.053C110.377,47.087,105.172,50.647,99.1,54.798z"/>
<g>
	<path fill="#FFFFFF" d="M99.043,17.84c-1.315-0.691-4.379-0.457-5.463,0.286c-1.737,1.185-1.445,3.294-1.402,3.345
		c0.346-0.604,0.936-1.455,1.793-2.059c1.103-0.771,2.976-1.366,4.729-1.232C99.148,18.216,99.523,18.1,99.043,17.84z"/>
	<path fill="#FFFFFF" d="M66.823,5.234v1.062c0.661,0.228,0.877,0.438,0.949,1.402v24.499c0,13.627,11.089,17.228,22.785,26.383
		c11.7-9.155,22.795-12.756,22.795-26.383V7.424c0.087-0.743,0.323-0.923,0.919-1.128V5.234H66.823z M75.282,43.62
		c2.313-3.552,2.366-7.446,2.366-7.443c-1.904,0.639-5.328,1.256-5.328,1.256s3.165-2.396,5.532-9.789l2.271,2.062l-0.427,1.411
		c0,0,1.08,1.547,1.354,2.598c0,0,1.499-2.877-0.146-5.952l-0.296,0.857l-0.892-0.81l-1.528-1.392c0,0,0.699-2.425,2.852-5.385
		l0.205,0.227l1.751,2.035l-0.53,0.891c0,0,1.208,1.263,2.23,2.82c0,0,0.537-2.581-0.211-5.379l-0.795,0.741l-1.943-2.258
		c2.766-2.76,5.444-4.432,8.633-5.509c-0.193,0.219-0.378,0.449-0.549,0.692c-1.084,1.537-2.188,4.306-1.297,8.771
		c0.137,0.697,0.366,1.684,0.61,2.727c0.475,2.04,1.013,4.354,1.195,5.809c0.382,3.038,0.075,5.022-0.938,6.077
		c-0.708,0.732-1.843,1.053-3.436,0.994c0.012-0.246,0.019-0.491,0.019-0.727c0-2.136-0.432-3.75-0.451-3.832l-0.397-1.469
		l-0.658,1.372c-1.039,2.163-4.572,7.553-9.189,8.604C75.286,43.62,75.283,43.62,75.282,43.62z M98.78,45.052
		c-0.837,0.188-3.607,0.065-3.607,0.065s1.896-0.808,2.934-3.941C99.021,43.086,98.78,45.052,98.78,45.052z M103.093,38.821
		c-5.533,0.765-6.488-10.848-6.488-10.848s1.865,5.941,5.813,5.734c4.09-0.216,2.937-6.512,2.937-6.512
		S109.332,37.958,103.093,38.821z M109.791,16.956l-5.46,0.23c0.005,0.646-0.083,1.294-0.294,1.909
		c0.512,2.231,0.162,3.442,0.162,3.442c-0.918-2.127-1.616-2.715-1.616-2.715c-5.015-2.233-7.831,2.81-7.529,6.061
		c0.247,2.671,1.215,6.218,1.973,11.779c0.639,4.682-1.733,6.702-4.461,7.168c-0.06,0.01-0.117,0.021-0.178,0.029
		c-0.015,0-0.027,0.007-0.042,0.007c-0.438,0.058-0.912,0.077-1.41,0.062c-0.019,0-0.034,0-0.049,0
		c-0.055,0-0.111-0.006-0.163-0.006c-0.211-0.015-0.424-0.034-0.634-0.063c-2.117-0.29-6.867-1.152-11.771-1.271
		c2.885-1.688,5.142-4.6,6.398-6.671c0.075,0.575,0.138,1.272,0.138,2.042c0,0.385-0.018,0.785-0.055,1.2l-0.048,0.561l0.564,0.051
		c2.258,0.196,3.863-0.233,4.898-1.313c1.286-1.334,1.68-3.56,1.249-7.001c-0.19-1.515-0.735-3.855-1.215-5.924
		c-0.244-1.035-0.473-2.013-0.604-2.693c-0.812-4.068,0.153-6.54,1.107-7.896c0.753-1.063,1.786-1.84,2.919-2.216
		c0.021-0.001,0.039-0.008,0.06-0.008l1.86-5.728h0.584l-1.248,5.503c0.291-0.056,0.585-0.102,0.886-0.146l1.604-5.073H98
		l-1.054,4.915c1.665-0.216,3.473-0.381,5.476-0.53c0.326,0.136,0.672,0.508,0.982,1.028l5.26-1.617l0.191,0.564l-5.021,1.954
		c0.039,0.103,0.076,0.211,0.114,0.318l5.491-0.684l0.092,0.592l-5.332,1.062c0.02,0.101,0.036,0.199,0.049,0.299l5.551,0.178
		L109.791,16.956z"/>
</g>
</svg>
