<?xml version="1.0" encoding="utf-8"?>
<!-- Generator: Adobe Illustrator 16.0.0, SVG Export Plug-In . SVG Version: 6.00 Build 0)  -->
<!DOCTYPE svg PUBLIC "-//W3C//DTD SVG 1.1//EN" "http://www.w3.org/Graphics/SVG/1.1/DTD/svg11.dtd">
<svg version="1.1" id="Layer_1" xmlns="http://www.w3.org/2000/svg" xmlns:xlink="http://www.w3.org/1999/xlink" x="0px" y="0px"
	 width="179.646px" height="112.389px" viewBox="0 0 179.646 112.389" enable-background="new 0 0 179.646 112.389"
	 xml:space="preserve">
<g>
	<g>
		<path fill="#FFFFFF" d="M113.014,98.511c-1.763-1.319-2.988-2.057-2.988-3.287c0-1.3,0.914-1.829,1.936-1.829
			c1.404,0,2.072,0.985,2.213,2.216h0.457v-2.304c0-0.087-0.018-0.159-0.123-0.188c-0.698-0.246-1.7-0.334-2.461-0.334
			c-2.021,0-3.772,1.241-3.772,2.824c0,0.855,0.231,1.473,0.582,1.938h-0.007c0.008,0.007,0.017,0.014,0.021,0.021
			c0.426,0.567,1.011,0.935,1.527,1.276c2.637,1.741,3.229,2.671,3.253,3.813c0.048,2.531-4.702,3.866-7.831-1.009l-1.623-2.471
			c1.277-0.497,2.32-1.674,2.32-3.383c0-1.943-1.679-2.816-3.353-2.816h-4.827v0.434c1.492,0.18,1.43,0.1,1.43,1.641v7.462
			c0,1.547,0.062,1.461-1.43,1.646v0.432h4.462v-0.432c-1.489-0.187-1.428-0.101-1.428-1.646V99.45h1.562
			c2.005,3.332,2.502,4.774,3.513,5.14c0.226,0.08,2.827,0.917,4.665,0.917c2.109,0,4.362-1.16,4.362-3.252
			C115.474,100.795,114.877,99.897,113.014,98.511z M102.751,99.095h-1.378V93.69h1.276c1.21,0,2.209,0.628,2.209,2.438
			C104.858,98.002,104.193,99.095,102.751,99.095z"/>
		<path fill="#FFFFFF" d="M68.737,104.572c0,0,0,0-8.114-9.61v7.36c0,0.354,0.068,0.638,0.103,0.899
			c0.085,0.6,0.648,0.832,1.752,0.917v0.434H58.39v-0.434c0.802-0.085,1.35-0.317,1.432-0.917c0.035-0.267,0.101-0.55,0.101-0.899
			v-7.848c-0.465-0.6-0.98-1.134-1.932-1.134v-0.438h3.03c2.479,3.021,5.064,6.084,7.55,9.104h0.034v-6.854
			c0-0.351-0.068-0.632-0.104-0.896c-0.084-0.604-0.646-0.83-1.748-0.915v-0.438h4.083v0.438c-0.778,0.085-1.35,0.312-1.436,0.915
			c-0.033,0.268-0.101,0.549-0.101,0.896v9.417L68.737,104.572L68.737,104.572z"/>
		<path fill="#FFFFFF" d="M75.287,102.488c0,1.558-0.062,1.472,1.437,1.65v0.434H72.24v-0.434c1.5-0.184,1.433-0.098,1.433-1.65
			V94.99c0-1.553,0.067-1.473-1.433-1.649v-0.432h4.481v0.432c-1.498,0.182-1.437,0.102-1.437,1.649L75.287,102.488L75.287,102.488z
			"/>
		<path fill="#FFFFFF" d="M96.488,101.571c-0.768,1.785-0.65,2.475-3.064,2.475c-1.5,0-2.147-0.12-2.147-1.536V98.74h1.397
			c1.115,0,1.498,0.586,1.531,1.564h0.436v-3.553h-0.436c-0.033,1.033-0.479,1.451-1.531,1.451h-1.397V93.44h2.645
			c1.198,0,1.535,0.914,1.699,2.147h0.432v-2.681h-7.674h-3.301v0.432c1.131,0,1.566,0.516,1.148,1.562
			c-1.033,2.555-2.054,5.114-3.117,7.665c-0.866-2.525-1.831-5.396-2.479-7.359c-0.554-1.604,0.116-1.867,1.033-1.867v-0.432h-4.24
			v0.432c0.808,0,1.021,0.516,1.643,2.3c1.015,2.833,2.146,6.048,3.166,8.932h0.848c1.401-3.416,2.817-6.812,4.216-10.229
			c0.354-0.836,0.604-1.002,1.086-1.002c1.499,0.182,1.283,0.102,1.283,1.646v7.497c0,1.558,0.216,1.472-1.283,1.65v0.434h8.049
			l0.501-3.001L96.488,101.571L96.488,101.571z"/>
		<path fill="#FFFFFF" d="M119.464,102.488c0,1.558-0.064,1.472,1.436,1.65v0.434h-4.483v-0.434c1.501-0.184,1.438-0.098,1.438-1.65
			V94.99c0-1.553,0.062-1.473-1.438-1.649v-0.432h4.483v0.432c-1.5,0.182-1.436,0.102-1.436,1.649V102.488z"/>
		<path fill="#FFFFFF" d="M136.504,92.909v0.432c0.982,0,1.521,0.479,0.949,1.499l-2.299,4.187l-2.018-4.187
			c-0.416-0.866-0.531-1.499,0.729-1.499v-0.432h-2.793h-1.156h-7.76l-0.451,2.546h0.417c0.549-1.104,0.882-2.018,2.331-2.018h1.354
			v9.046c0,1.558,0.062,1.472-1.438,1.65v0.434h4.482v-0.434c-1.5-0.184-1.438-0.098-1.438-1.65V93.44h1.354
			c1.365,0,2.283,0.815,2.848,1.829l2.348,4.654v2.562c0,1.558,0.066,1.472-1.434,1.65v0.434h4.479v-0.434
			c-1.495-0.184-1.436-0.098-1.436-1.65v-1.861c0-0.415,0.034-0.889,0.201-1.215l2.781-5.056c0.45-0.8,0.896-1.016,1.365-1.016
			v-0.435H136.5v0.006L136.504,92.909L136.504,92.909z"/>
		<path fill="#FFFFFF" d="M58.01,92.9l-5.25,0.019v0.436c1.057,0.113,1.814,0.575,1.93,1.384c0.045,0.357,0.137,0.736,0.137,1.208
			v6.229c0,3.589-1.617,5.646-4.685,5.646c-3.345,0-4.347-2.396-4.347-5.531v-6.566c0-2.083,0.062-2.121,2.078-2.366v-0.436h-6.031
			v0.436c2.021,0.245,1.935,0.283,1.935,2.366v6.68c0,4.061,1.479,6.479,6.251,6.479c2.892,0,5.965-1.793,5.965-6.613v-6.319
			c0-0.036,0-0.071,0-0.107c-0.021-1.945,0.736-2.229,2.011-2.438L58.01,92.9z"/>
	</g>
	<g>
		<g>
			<path fill="#FFFFFF" d="M47.297,84.562c0,1.543-0.062,1.46,1.43,1.646v0.431H44.26v-0.431c1.493-0.188,1.431-0.104,1.431-1.646
				v-7.469c0-1.54-0.717-1.458-2.21-1.641V75.02h5.246v0.434c-1.492,0.183-1.43,0.101-1.43,1.641v2.874h5.823v-2.874
				c0-1.54,0.065-1.458-1.428-1.641V75.02h4.462v0.434c-1.491,0.183-1.426,0.101-1.426,1.641v7.469c0,1.543-0.064,1.46,1.426,1.646
				v0.431h-4.462v-0.431c1.493-0.188,1.428-0.104,1.428-1.646v-3.918h-5.823V84.562z"/>
			<path fill="#FFFFFF" d="M61.019,84.562c0,1.543-0.068,1.46,1.426,1.646v0.431h-4.462v-0.431c1.493-0.188,1.427-0.104,1.427-1.646
				v-7.469c0-1.54,0.066-1.458-1.427-1.641V75.02h4.462v0.434c-1.494,0.183-1.426,0.101-1.426,1.641V84.562z"/>
			<path fill="#FFFFFF" d="M74.812,86.635c-2.642-3.118-5.375-6.389-8.079-9.575v7.337c0,0.35,0.062,0.63,0.101,0.896
				c0.083,0.6,0.646,0.828,1.74,0.913v0.431H64.51v-0.431c0.799-0.085,1.348-0.313,1.432-0.913c0.032-0.27,0.1-0.55,0.1-0.896
				v-7.812c-0.466-0.601-0.979-1.128-1.926-1.128v-0.434h3.021c2.476,3,5.044,6.059,7.519,9.061h0.032v-6.817
				c0-0.35-0.065-0.633-0.104-0.896c-0.082-0.602-0.646-0.828-1.742-0.912v-0.434h4.066v0.434c-0.78,0.084-1.343,0.312-1.429,0.912
				c-0.032,0.265-0.102,0.548-0.102,0.896v9.373L74.812,86.635L74.812,86.635z"/>
			<path fill="#FFFFFF" d="M77.258,80.762c0-2.555,2.158-5.942,6.641-5.942c1.604,0,2.372,0.306,3.186,0.568
				c0.464,0.148,0.646,0.38,0.646,0.646v2.141h-0.436c-0.05-1.328-0.896-2.771-3.528-2.771c-3.473,0-4.602,2.393-4.612,5.229
				c-0.021,2.621,1.31,5.627,4.678,5.627c2.075,0,2.257-0.767,2.257-2.058v-1.019c0-1.545,0.064-1.458-1.76-1.643V81.11h4.795v0.434
				c-1.493,0.185-1.426,0.098-1.426,1.643v2.894c-1.062,0.408-2.456,0.763-3.967,0.763C80.328,86.835,77.258,85.209,77.258,80.762z"
				/>
			<path fill="#FFFFFF" d="M94.812,84.562c0,1.543-0.066,1.46,1.427,1.646v0.431h-4.464v-0.431c1.492-0.188,1.428-0.104,1.428-1.646
				v-9.009h-1.346c-1.443,0-1.775,0.909-2.323,2.006h-0.413l0.449-2.535h8.875l0.448,2.535h-0.415
				c-0.547-1.097-0.879-2.006-2.322-2.006h-1.344V84.562z"/>
			<path fill="#FFFFFF" d="M98.894,81.043c0-3.586,2.786-6.229,6.232-6.229c3.604,0,5.691,3.104,5.691,5.662
				c0,3.501-2.622,6.354-6.289,6.354C101.365,86.835,98.894,84.265,98.894,81.043z M108.929,80.978c0-3.966-2.144-5.574-4.164-5.574
				c-2.819,0-3.979,2.521-3.979,4.776c0,4.021,2.056,6.075,4.195,6.075C108.067,86.255,108.929,83.202,108.929,80.978z"/>
			<path fill="#FFFFFF" d="M121.523,86.635c-2.645-3.118-5.375-6.389-8.08-9.575v7.337c0,0.35,0.062,0.63,0.1,0.896
				c0.083,0.6,0.646,0.828,1.741,0.913v0.431h-4.062v-0.431c0.798-0.085,1.345-0.313,1.427-0.913c0.033-0.27,0.1-0.55,0.1-0.896
				v-7.812c-0.463-0.601-0.978-1.128-1.924-1.128v-0.434h3.021c2.475,3,5.042,6.059,7.518,9.061h0.031v-6.817
				c0-0.35-0.066-0.633-0.104-0.896c-0.082-0.602-0.645-0.828-1.74-0.912v-0.434h4.063v0.434c-0.778,0.084-1.343,0.312-1.426,0.912
				c-0.033,0.265-0.104,0.548-0.104,0.896v9.373L121.523,86.635L121.523,86.635z"/>
			<path fill="#FFFFFF" d="M28.63,72.8v-0.018h-4.483v0.557c1.729,0.019,2.013,0.637,1.559,1.947l-3.396,9.248H22.12l-4-11.562
				h-1.012l-4.203,11.562H12.62l-3.011-9.188c-0.433-1.455,0.169-2.008,1.516-2.008v-0.557H5.796v0.557
				c1.137,0,1.335,0.881,2.062,2.971l3.866,11.429h1.018l4.136-11.652l4.077,11.668h1.139c1.744-4.646,4.199-11.506,5.104-13.354
				c0.336-0.689,0.944-1.052,1.511-1.052V72.8H28.63z"/>
			<path fill="#FFFFFF" d="M40.562,80.403c-1.746-1.309-2.967-2.043-2.967-3.266c0-1.291,0.903-1.816,1.92-1.816
				c1.396,0,2.06,0.979,2.195,2.201h0.453v-2.287c0-0.088-0.017-0.151-0.123-0.188c-0.693-0.243-1.688-0.332-2.439-0.332
				c-2.012,0-3.752,1.24-3.752,2.812c0,0.854,0.23,1.458,0.579,1.93H36.42c0.011,0.006,0.019,0.013,0.021,0.02
				c0.422,0.564,1.004,0.924,1.519,1.271c2.619,1.729,3.229,2.65,3.229,3.786c0,1.06-0.792,2.112-2.252,2.222
				c-1.494,0.104-3.416-0.615-4.229-2.714c-0.718-2.015-2.179-6.237-3.165-9.155h-0.962c-1.377,3.667-3.243,9.044-3.958,10.502
				c-0.263,0.549-0.744,0.831-1.189,0.831v0.432h0.718h2.302v-0.432c-0.729,0-1.045-0.548-0.83-1.195l0.769-2.224h4.229l0.713,2.141
				l0.549,1.648c0,0,2.972,0.772,4.898,0.772c2.095,0,4.224-1.148,4.224-3.229C43.006,82.671,42.413,81.782,40.562,80.403z
				 M28.641,82.155l1.973-5.392h0.033l1.759,5.392H28.641z"/>
		</g>
		<g>
			<path fill="#FFFFFF" d="M135.082,75.795c-0.177-1.565-1.021-2.815-2.811-2.815c-1.295,0-2.604,0.67-2.604,2.32
				c0,1.564,1.562,2.5,3.795,4.176c2.363,1.769,3.125,2.902,3.125,4.756c0,2.654-2.576,4.128-5.252,4.128
				c-1.432,0-2.658-0.271-3.815-0.715c-0.086-0.044-0.154-0.134-0.154-0.31v-3.218h0.579c0.247,2.477,1.872,3.46,3.595,3.46
				c1.585,0,3.025-1.205,3.025-2.834c0-1.453-0.781-2.641-4.128-4.846c-1.204-0.804-2.7-1.678-2.7-4.104
				c0-2.021,2.08-3.603,4.646-3.603c0.96,0,2.233,0.111,3.125,0.432c0.14,0.04,0.156,0.135,0.156,0.245v2.926L135.082,75.795
				L135.082,75.795z"/>
			<path fill="#FFFFFF" d="M142.871,84.573c0,1.547-0.062,1.458,1.429,1.646v0.428h-4.465V86.22
				c1.494-0.188,1.434-0.101,1.434-1.646v-9.019h-1.353c-1.438,0-1.771,0.914-2.32,2.008h-0.41l0.441-2.53h8.879l0.449,2.53h-0.415
				c-0.548-1.094-0.88-2.008-2.322-2.008h-1.347V84.573z"/>
			<path fill="#FFFFFF" d="M148.663,82.795l-0.759,2.226c-0.217,0.65,0.098,1.199,0.828,1.199v0.428h-3.021V86.22
				c0.446,0,0.935-0.289,1.194-0.833c0.714-1.463,2.655-6.886,4.033-10.557h0.929c1.128,3.337,2.819,8.451,3.384,9.927
				c0.368,0.926,0.633,1.463,1.351,1.463v0.428h-3.866V86.22c1.045,0,1.146-0.549,0.882-1.283l-0.717-2.142H148.663L148.663,82.795z
				 M152.684,82.167l-1.766-5.396h-0.027l-1.979,5.396H152.684z"/>
			<path fill="#FFFFFF" d="M161.131,84.573c0,1.547-0.062,1.458,1.431,1.646v0.428h-4.47V86.22c1.494-0.188,1.435-0.101,1.435-1.646
				v-9.019h-1.351c-1.44,0-1.771,0.914-2.32,2.008h-0.415l0.451-2.53h8.879l0.44,2.53h-0.416c-0.543-1.094-0.875-2.008-2.313-2.008
				h-1.351V84.573L161.131,84.573z"/>
			<path fill="#FFFFFF" d="M165.996,86.22c1.496-0.188,1.281-0.101,1.281-1.646V77.1c0-1.544,0.215-1.461-1.281-1.643v-0.432h7.271
				v2.664h-0.438c-0.164-1.225-0.493-2.139-1.688-2.139h-2.265v4.752h1.396c1.045,0,1.495-0.416,1.521-1.442h0.438v3.528H171.8
				c-0.025-0.979-0.408-1.562-1.521-1.562h-1.396v3.75c0,1.416,0.648,1.532,2.146,1.532c2.406,0,2.289-0.687,3.054-2.459h0.436
				l-0.499,2.984H166L165.996,86.22L165.996,86.22z"/>
		</g>
	</g>
</g>
<path fill="#424A4F" d="M99.1,54.798l-8.553,6.086l-8.542-6.086C75.936,50.647,70.731,47.087,68,41.681
	c2.253,10.135,12.165,13.925,22.549,22.053c10.391-8.128,20.304-11.918,22.559-22.053C110.377,47.087,105.172,50.647,99.1,54.798z"
	/>
<path fill="#981E32" d="M66.823,5.234v1.062c0.661,0.228,0.877,0.438,0.949,1.402v24.499c0,13.627,11.089,17.228,22.785,26.383
	c11.696-9.155,22.795-12.756,22.795-26.383V7.424c0.087-0.743,0.319-0.923,0.919-1.128V5.234H66.823z"/>
<g>
	<g>
		<g>
			<path fill="#FFFFFF" d="M95.173,45.117c0,0,1.896-0.812,2.938-3.941c0.915,1.91,0.674,3.876,0.674,3.876
				C97.943,45.24,95.173,45.117,95.173,45.117z"/>
			<path fill="#FFFFFF" d="M105.354,27.196c0,0,1.149,6.3-2.938,6.516c-3.947,0.207-5.812-5.734-5.812-5.734
				s0.955,11.612,6.484,10.851C109.332,37.958,105.354,27.196,105.354,27.196z"/>
		</g>
	</g>
	<path fill="#FFFFFF" d="M75.282,43.62c0.001,0,0.004,0,0.008,0c4.617-1.056,8.15-6.441,9.189-8.604l0.658-1.372l0.396,1.469
		c0.021,0.082,0.451,1.696,0.451,3.832c0,0.235-0.007,0.48-0.021,0.729c1.597,0.059,2.729-0.262,3.438-0.994
		c1.013-1.055,1.319-3.039,0.938-6.077c-0.183-1.455-0.721-3.769-1.191-5.809c-0.244-1.043-0.478-2.029-0.61-2.729
		c-0.891-4.465,0.213-7.229,1.297-8.771c0.171-0.243,0.355-0.478,0.549-0.692c-3.188,1.077-5.863,2.749-8.633,5.509l1.943,2.262
		l0.795-0.741c0.748,2.798,0.211,5.379,0.211,5.379c-1.022-1.558-2.23-2.82-2.23-2.82l0.53-0.891l-1.751-2.035l-0.205-0.227
		c-2.148,2.96-2.852,5.385-2.852,5.385l1.524,1.392l0.896,0.812l0.296-0.857c1.645,3.075,0.146,5.952,0.146,5.952
		c-0.271-1.051-1.354-2.598-1.354-2.598l0.427-1.411l-2.271-2.062c-2.367,7.396-5.532,9.789-5.532,9.789s3.424-0.617,5.328-1.256
		C77.648,36.174,77.595,40.069,75.282,43.62z"/>
	<path fill="#FFFFFF" d="M109.791,16.956l-5.46,0.229c0.005,0.646-0.083,1.294-0.294,1.909c0.512,2.231,0.162,3.442,0.162,3.442
		c-0.918-2.127-1.616-2.718-1.616-2.718c-5.015-2.23-7.831,2.812-7.525,6.062c0.243,2.671,1.215,6.218,1.973,11.779
		c0.639,4.682-1.733,6.699-4.461,7.168c-0.062,0.01-0.117,0.021-0.178,0.025c-0.019,0-0.027,0.011-0.042,0.011
		c-0.438,0.058-0.912,0.073-1.41,0.062c-0.021,0-0.034,0-0.049,0c-0.059,0-0.111-0.006-0.163-0.006
		c-0.211-0.016-0.428-0.034-0.638-0.063c-2.113-0.29-6.863-1.148-11.771-1.271c2.885-1.688,5.142-4.604,6.396-6.671
		c0.075,0.575,0.142,1.271,0.142,2.042c0,0.385-0.021,0.785-0.059,1.2l-0.048,0.561l0.564,0.051
		c2.258,0.196,3.861-0.229,4.896-1.312c1.286-1.334,1.684-3.562,1.249-7.001c-0.188-1.519-0.731-3.855-1.215-5.924
		C90,25.498,89.771,24.518,89.64,23.84c-0.812-4.068,0.149-6.54,1.104-7.896c0.753-1.062,1.786-1.84,2.919-2.216
		c0.021-0.001,0.039-0.008,0.062-0.008l1.856-5.728h0.584l-1.248,5.503c0.291-0.06,0.586-0.104,0.89-0.146l1.604-5.073H98
		l-1.054,4.915c1.665-0.216,3.473-0.381,5.476-0.526c0.326,0.136,0.672,0.508,0.982,1.024l5.26-1.613l0.191,0.562l-5.021,1.954
		c0.039,0.103,0.076,0.211,0.114,0.318l5.491-0.688l0.092,0.592l-5.332,1.062c0.02,0.101,0.036,0.199,0.049,0.299l5.551,0.178
		L109.791,16.956z M93.97,19.412c1.103-0.771,2.976-1.366,4.729-1.232c0.449,0.036,0.824-0.08,0.344-0.34
		c-1.312-0.691-4.379-0.457-5.463,0.286c-1.737,1.185-1.445,3.294-1.398,3.345C92.523,20.866,93.113,20.016,93.97,19.412z"/>
</g>
</svg>
