<?xml version="1.0" encoding="utf-8"?>
<!-- Generator: Adobe Illustrator 16.0.0, SVG Export Plug-In . SVG Version: 6.00 Build 0)  -->
<!DOCTYPE svg PUBLIC "-//W3C//DTD SVG 1.1//EN" "http://www.w3.org/Graphics/SVG/1.1/DTD/svg11.dtd">
<svg version="1.1" id="Layer_1" xmlns="http://www.w3.org/2000/svg" xmlns:xlink="http://www.w3.org/1999/xlink" x="0px" y="0px"
	 width="170px" height="124.577px" viewBox="0 0 170 124.577" enable-background="new 0 0 170 124.577" xml:space="preserve">
<g>
	<path fill="#68737A" d="M25.657,124.276l-3.41-9.112l1.304-0.237c0.895,2.516,1.777,5.044,2.659,7.875h0.026
		c0.922-2.831,1.87-5.359,2.806-7.875l1.146,0.158l-3.674,9.191H25.657z"/>
	<path fill="#68737A" d="M40.725,115.059l3.437,9.218h-1.475l-0.948-2.713h-3.516l-0.987,2.713h-1.238l3.753-9.218H40.725z
		 M41.436,120.642c-0.461-1.277-0.908-2.555-1.369-4.214H40.04c-0.475,1.659-0.962,2.937-1.462,4.214H41.436z"/>
	<path fill="#68737A" d="M59.875,124.276h-1.001c-2.002-2.396-5.438-6.531-5.992-7.335h-0.026v7.335h-1.053v-9.218h0.948
		c2.027,2.396,5.425,6.426,6.044,7.348h0.026v-7.348h1.054V124.276z"/>
	<path fill="#68737A" d="M75.641,116.626c-0.435-0.355-1.422-0.804-2.41-0.804c-2.278,0-3.621,1.633-3.621,3.793
		c0,2.33,1.606,3.897,3.621,3.897c1.001,0,1.791-0.316,2.331-0.685l0.5,0.764c-0.618,0.421-1.712,0.843-2.896,0.843
		c-3.292,0-4.965-2.252-4.965-4.793c0-2.318,1.817-4.741,5.123-4.741c1.316,0,2.238,0.461,2.844,0.936L75.641,116.626z"/>
	<path fill="#68737A" d="M83.795,119.51c0-2.581,1.949-4.609,4.609-4.609s4.608,2.028,4.608,4.609c0,2.752-1.765,4.925-4.608,4.925
		C85.56,124.435,83.795,122.262,83.795,119.51z M91.604,119.51c0-1.726-0.921-3.688-3.199-3.688s-3.2,1.962-3.2,3.688
		c0,1.804,0.816,4.003,3.2,4.003C90.787,123.513,91.604,121.313,91.604,119.51z"/>
	<path fill="#68737A" d="M102.484,115.059v5.583c0,1.91,0.711,2.91,2.357,2.91c1.725,0,2.304-1.369,2.304-2.686v-5.808h1.198v5.834
		c0,2.067-1.277,3.542-3.502,3.542c-2.595,0-3.635-1.37-3.635-3.74v-5.636H102.484z"/>
	<path fill="#68737A" d="M119.251,124.276l-3.41-9.112l1.304-0.237c0.895,2.516,1.777,5.044,2.659,7.875h0.026
		c0.922-2.831,1.87-5.359,2.806-7.875l1.146,0.158l-3.674,9.191H119.251z"/>
	<path fill="#68737A" d="M135.951,115.98h-3.266v2.976h3.199v0.922h-3.199v3.477h3.832v0.922h-5.109v-9.218h4.543V115.98z"/>
	<path fill="#68737A" d="M144.54,115.059h2.634c1.501,0,2.673,0.777,2.673,2.37c0,1.356-0.658,2.12-1.541,2.687l2.291,3.924
		l-1.29,0.396l-2.133-3.977h-1.356v3.818h-1.277V115.059z M145.817,119.536h0.724c1.633,0,1.937-1.212,1.937-1.989
		c0-1.132-0.712-1.566-1.567-1.566h-1.093V119.536z"/>
</g>
<g>
	<g>
		<g>
			<g>
				<path fill="#68737A" d="M108.262,93.646c-1.773-1.332-3.011-2.062-3.011-3.299c0-1.307,0.92-1.844,1.946-1.844
					c1.4,0,2.082,0.998,2.234,2.234h0.449v-2.32c0-0.076-0.027-0.152-0.113-0.182c-0.709-0.25-1.719-0.336-2.484-0.336
					c-2.032,0-3.788,1.246-3.788,2.838c0,0.854,0.239,1.469,0.586,1.947l0,0l0.009,0.01c0.432,0.565,1.026,0.93,1.545,1.285
					c2.627,1.746,3.241,2.676,3.262,3.826c0.047,2.553-4.729,3.885-7.863-1.017L99.4,94.316c1.283-0.487,2.32-1.678,2.32-3.395
					c0-1.938-1.68-2.83-3.35-2.83H93.52v0.432c1.506,0.183,1.438,0.105,1.438,1.65v7.49c0,1.562,0.065,1.467-1.438,1.66v0.42h4.487
					v-0.42c-1.505-0.193-1.438-0.1-1.438-1.66v-3.07h1.574c2.004,3.328,2.504,4.787,3.521,5.15c0.229,0.074,2.84,0.922,4.671,0.922
					c2.13,0,4.395-1.16,4.395-3.264C110.729,95.938,110.133,95.036,108.262,93.646z M97.962,94.23H96.57v-5.43h1.285
					c1.209,0,2.215,0.645,2.215,2.457C100.07,93.139,99.4,94.23,97.962,94.23z"/>
				<path fill="#68737A" d="M63.799,99.734c0,0,0,0-8.135-9.647v7.388c0,0.344,0.059,0.645,0.088,0.899
					c0.095,0.604,0.661,0.836,1.764,0.933v0.43h-4.104v-0.43c0.814-0.097,1.362-0.328,1.438-0.933
					c0.048-0.258,0.105-0.558,0.105-0.899V89.6c-0.47-0.604-0.988-1.132-1.938-1.132v-0.45h3.04c2.494,3.03,5.074,6.102,7.587,9.129
					h0.029v-6.867c0-0.346-0.058-0.643-0.105-0.901c-0.077-0.612-0.662-0.834-1.756-0.91v-0.45h4.096v0.45
					c-0.776,0.076-1.343,0.298-1.438,0.91c-0.029,0.261-0.096,0.558-0.096,0.901v9.455H63.799z"/>
				<path fill="#68737A" d="M70.368,97.635c0,1.564-0.058,1.469,1.438,1.672v0.43h-4.488v-0.43c1.495-0.203,1.429-0.104,1.429-1.672
					v-7.52c0-1.562,0.066-1.486-1.429-1.648v-0.449h4.488v0.449c-1.496,0.162-1.438,0.088-1.438,1.648V97.635z"/>
				<path fill="#68737A" d="M91.66,96.727c-0.768,1.781-0.643,2.476-3.079,2.476c-1.506,0-2.147-0.125-2.147-1.545v-3.779h1.399
					c1.123,0,1.507,0.586,1.534,1.572h0.441v-3.558h-0.441c-0.027,1.033-0.479,1.445-1.534,1.445h-1.399v-4.783h2.656
					c1.189,0,1.523,0.92,1.697,2.154h0.441v-2.691h-7.704h-3.317v0.449c1.131,0,1.572,0.498,1.141,1.555
					c-1.035,2.568-2.043,5.142-3.117,7.711c-0.883-2.541-1.832-5.428-2.494-7.403c-0.565-1.603,0.106-1.858,1.026-1.858V88.02
					h-4.248v0.451c0.805,0,1.026,0.497,1.649,2.301c1.007,2.848,2.158,6.069,3.184,8.967h0.854c1.41-3.434,2.81-6.855,4.221-10.281
					c0.364-0.844,0.612-0.984,1.102-0.984c1.496,0.16,1.286,0.086,1.286,1.646v7.521c0,1.562,0.21,1.467-1.286,1.67v0.43h8.078
					l0.498-3.01H91.66V96.727z"/>
				<path fill="#68737A" d="M114.736,97.635c0,1.564-0.076,1.469,1.438,1.672v0.43h-4.518v-0.43
					c1.516-0.203,1.438-0.104,1.438-1.672v-7.52c0-1.562,0.077-1.486-1.438-1.648v-0.449h4.518v0.449
					c-1.515,0.162-1.438,0.088-1.438,1.648V97.635z"/>
				<path fill="#68737A" d="M131.865,88.018v0.449c0.979,0,1.507,0.471,0.939,1.496l-2.304,4.199l-2.052-4.199
					c-0.395-0.873-0.52-1.496,0.748-1.496v-0.449h-2.812h-1.15h-7.797l-0.461,2.562h0.434c0.546-1.104,0.883-2.022,2.32-2.022h1.381
					v9.082c0,1.563,0.059,1.467-1.438,1.67v0.43h4.498v-0.43c-1.515-0.203-1.438-0.105-1.438-1.67v-9.082h1.344
					c1.371,0,2.292,0.823,2.857,1.832l2.367,4.68v2.57c0,1.563,0.077,1.467-1.438,1.67v0.43h4.518v-0.43
					c-1.516-0.203-1.438-0.105-1.438-1.67v-1.859c0-0.434,0.027-0.894,0.182-1.229l2.801-5.073c0.461-0.795,0.902-1.006,1.372-1.006
					V88.02L131.865,88.018L131.865,88.018z"/>
				<path fill="#68737A" d="M53.027,88.018l-5.256,0.019v0.435c1.036,0.114,1.804,0.573,1.928,1.389
					c0.048,0.348,0.134,0.729,0.134,1.209v6.254c0,3.604-1.63,5.668-4.689,5.668c-3.366,0-4.373-2.398-4.373-5.553v-6.601
					c0-2.08,0.057-2.129,2.081-2.366v-0.435H36.79v0.435c2.053,0.237,1.957,0.286,1.957,2.366v6.715
					c0,4.066,1.466,6.492,6.271,6.492c2.906,0,5.995-1.783,5.995-6.637v-6.341c0-0.037,0-0.075,0-0.114
					c-0.029-1.957,0.738-2.226,2.014-2.445V88.018z"/>
			</g>
			<g>
				<g>
					<path fill="#68737A" d="M42.285,79.645c0,1.554-0.076,1.467,1.42,1.648v0.422h-4.469v-0.422
						c1.505-0.184,1.429-0.098,1.429-1.648v-7.496c0-1.553-0.72-1.467-2.226-1.653v-0.429h5.266v0.429
						c-1.496,0.188-1.42,0.103-1.42,1.653v2.884h5.841v-2.884c0-1.555,0.077-1.467-1.429-1.653v-0.429h4.469v0.429
						c-1.495,0.188-1.438,0.103-1.438,1.653v7.496c0,1.554-0.057,1.467,1.438,1.648v0.422h-4.469v-0.422
						c1.506-0.184,1.429-0.098,1.429-1.648v-3.934h-5.841V79.645z"/>
					<path fill="#68737A" d="M56.058,79.645c0,1.554-0.057,1.467,1.438,1.648v0.422h-4.498v-0.422
						c1.506-0.184,1.439-0.098,1.439-1.648v-7.496c0-1.553,0.066-1.467-1.439-1.653v-0.429h4.498v0.429
						c-1.495,0.188-1.438,0.103-1.438,1.653V79.645z"/>
					<path fill="#68737A" d="M69.917,81.715c-2.666-3.115-5.419-6.4-8.124-9.605v7.361c0,0.355,0.059,0.644,0.105,0.9
						c0.078,0.596,0.644,0.824,1.746,0.922v0.422h-4.086v-0.422c0.797-0.098,1.353-0.326,1.43-0.922
						c0.037-0.26,0.105-0.545,0.105-0.9v-7.846c-0.479-0.596-0.979-1.131-1.947-1.131v-0.43h3.04c2.493,3.014,5.064,6.082,7.549,9.1
						h0.029v-6.85c0-0.354-0.068-0.638-0.098-0.9c-0.086-0.6-0.642-0.834-1.744-0.92v-0.43h4.065v0.43
						c-0.757,0.086-1.343,0.32-1.419,0.92c-0.048,0.266-0.105,0.547-0.105,0.9v9.397h-0.546V81.715z"/>
					<path fill="#68737A" d="M72.362,75.827c0-2.563,2.168-5.966,6.666-5.966c1.602,0,2.389,0.308,3.185,0.576
						c0.47,0.144,0.652,0.379,0.652,0.638v2.157h-0.433c-0.037-1.338-0.9-2.78-3.538-2.78c-3.491,0-4.623,2.394-4.642,5.241
						c-0.01,2.632,1.323,5.646,4.699,5.646c2.091,0,2.282-0.766,2.282-2.07v-1.006c0-1.561,0.058-1.469-1.774-1.65v-0.426h4.795
						v0.426c-1.495,0.183-1.419,0.093-1.419,1.65v2.887c-1.055,0.431-2.465,0.787-3.989,0.787
						C75.451,81.938,72.362,80.295,72.362,75.827z"/>
					<path fill="#68737A" d="M89.973,79.645c0,1.554-0.058,1.467,1.438,1.648v0.422h-4.479v-0.422
						c1.496-0.184,1.42-0.098,1.42-1.648v-9.049h-1.343c-1.438,0-1.775,0.914-2.321,2.019h-0.433l0.462-2.548h8.92l0.44,2.548
						h-0.413c-0.557-1.104-0.872-2.019-2.34-2.019h-1.354v9.049H89.973z"/>
					<path fill="#68737A" d="M94.077,76.109c0-3.596,2.812-6.248,6.263-6.248c3.616,0,5.727,3.117,5.727,5.688
						c0,3.511-2.627,6.39-6.33,6.39C96.551,81.938,94.077,79.348,94.077,76.109z M104.146,76.047c0-3.984-2.139-5.598-4.172-5.598
						c-2.838,0-4.011,2.527-4.011,4.793c0,4.025,2.082,6.098,4.229,6.098C103.284,81.34,104.146,78.277,104.146,76.047z"/>
					<path fill="#68737A" d="M116.798,81.715c-2.646-3.115-5.399-6.4-8.104-9.605v7.361c0,0.355,0.059,0.644,0.098,0.9
						c0.086,0.596,0.645,0.824,1.734,0.922v0.422h-4.065v-0.422c0.796-0.098,1.354-0.326,1.438-0.922
						c0.028-0.26,0.097-0.545,0.097-0.9v-7.846c-0.46-0.596-0.979-1.131-1.929-1.131v-0.43h3.021c2.483,3.014,5.063,6.082,7.548,9.1
						h0.029v-6.85c0-0.354-0.064-0.638-0.104-0.9c-0.067-0.6-0.646-0.834-1.746-0.92v-0.43h4.076v0.43
						c-0.777,0.086-1.344,0.32-1.422,0.92c-0.025,0.266-0.104,0.547-0.104,0.9v9.397H116.8v0.003H116.798z"/>
					<path fill="#68737A" d="M23.545,67.833v-0.015h-4.518v0.562c1.735,0.017,2.033,0.634,1.573,1.947l-3.415,9.278h-0.183
						L12.984,68.01h-1.025L7.738,79.605H7.461L4.43,70.389c-0.422-1.465,0.191-2.01,1.534-2.01v-0.562H0.612v0.562
						c1.132,0,1.343,0.877,2.081,2.979l3.885,11.479h1.007l4.162-11.705l4.096,11.717h1.133c1.744-4.662,4.22-11.559,5.12-13.408
						c0.354-0.7,0.95-1.057,1.516-1.057v-0.551L23.545,67.833L23.545,67.833z"/>
					<path fill="#68737A" d="M35.504,75.467c-1.736-1.318-2.963-2.053-2.963-3.279c0-1.295,0.921-1.821,1.928-1.821
						c1.409,0,2.062,0.979,2.196,2.209h0.461v-2.291c0-0.093-0.01-0.162-0.115-0.201c-0.71-0.244-1.698-0.326-2.456-0.326
						c-2.014,0-3.769,1.246-3.769,2.818c0,0.858,0.229,1.469,0.575,1.934l0,0c0.019,0.011,0.019,0.011,0.019,0.021
						c0.423,0.57,1.008,0.932,1.526,1.275c2.627,1.729,3.241,2.661,3.241,3.803c0,1.057-0.797,2.108-2.264,2.227
						c-1.496,0.105-3.424-0.615-4.23-2.725c-0.719-2.021-2.187-6.264-3.184-9.193h-0.96c-1.38,3.68-3.261,9.088-3.979,10.537
						c-0.278,0.564-0.748,0.844-1.189,0.844v0.422h0.72h2.302v-0.422c-0.729,0-1.035-0.558-0.824-1.197l0.767-2.229h4.249
						l0.71,2.144l0.546,1.649c0,0,2.983,0.776,4.921,0.776c2.109,0,4.239-1.143,4.239-3.242
						C37.97,77.745,37.375,76.857,35.504,75.467z M23.545,77.223l1.994-5.41h0.029l1.755,5.41H23.545z"/>
				</g>
				<g>
					<path fill="#68737A" d="M130.427,70.838c-0.183-1.566-1.026-2.818-2.829-2.818c-1.312,0-2.638,0.672-2.638,2.32
						c0,1.578,1.593,2.518,3.826,4.201c2.39,1.766,3.155,2.91,3.155,4.775c0,2.666-2.59,4.145-5.293,4.145
						c-1.438,0-2.668-0.277-3.828-0.721c-0.086-0.049-0.152-0.135-0.152-0.316v-3.23h0.585c0.24,2.494,1.86,3.474,3.604,3.474
						c1.594,0,3.041-1.209,3.041-2.84c0-1.453-0.785-2.646-4.172-4.856c-1.188-0.812-2.687-1.688-2.687-4.13
						c0-2.021,2.071-3.61,4.671-3.61c0.949,0,2.254,0.115,3.137,0.434c0.146,0.037,0.152,0.133,0.152,0.244v2.934h-0.574
						L130.427,70.838L130.427,70.838z"/>
					<path fill="#68737A" d="M138.254,79.654c0,1.544-0.059,1.468,1.438,1.648v0.432h-4.498v-0.432
						c1.496-0.184,1.438-0.104,1.438-1.648v-9.049h-1.343c-1.458,0-1.794,0.914-2.341,2.019h-0.412l0.461-2.547h8.892l0.459,2.547
						h-0.422c-0.557-1.104-0.892-2.019-2.33-2.019h-1.343L138.254,79.654L138.254,79.654z"/>
					<path fill="#68737A" d="M144.064,77.866l-0.769,2.229c-0.211,0.66,0.097,1.207,0.825,1.207v0.432H141.1v-0.432
						c0.45,0,0.938-0.287,1.188-0.834c0.729-1.469,2.657-6.906,4.065-10.594h0.922c1.132,3.348,2.838,8.479,3.396,9.961
						c0.365,0.938,0.644,1.467,1.343,1.467v0.432h-3.854v-0.432c1.047,0,1.133-0.547,0.854-1.285l-0.699-2.151H144.064z
						 M148.104,77.243l-1.772-5.414h-0.03l-1.992,5.414H148.104z"/>
					<path fill="#68737A" d="M156.572,79.654c0,1.544-0.057,1.468,1.438,1.648v0.432h-4.498v-0.432
						c1.535-0.184,1.438-0.104,1.438-1.648v-9.049h-1.343c-1.438,0-1.774,0.914-2.33,2.019h-0.424l0.461-2.547h8.931l0.421,2.547
						h-0.393c-0.547-1.104-0.894-2.019-2.359-2.019h-1.344v9.049H156.572z"/>
					<path fill="#68737A" d="M161.464,81.303c1.505-0.184,1.284-0.104,1.284-1.648v-7.5c0-1.549,0.221-1.469-1.284-1.649v-0.428
						h7.31v2.676h-0.453c-0.15-1.231-0.485-2.146-1.688-2.146h-2.263v4.771h1.381c1.063,0,1.524-0.418,1.554-1.453h0.432v3.543
						h-0.432c-0.029-0.977-0.422-1.561-1.554-1.561h-1.381v3.768c0,1.421,0.644,1.525,2.138,1.525c2.418,0,2.303-0.673,3.061-2.455
						H170l-0.488,2.991h-8.048V81.303L161.464,81.303z"/>
				</g>
			</g>
		</g>
		<g>
			<g>
				<g>
					<g>
						<path fill="#68737A" d="M94.288,49.758l-8.593,6.11l-8.565-6.11c-6.101-4.167-11.317-7.735-14.07-13.164
							c2.264,10.176,12.219,13.975,22.635,22.141c10.426-8.167,20.4-11.965,22.662-22.141
							C105.605,42.023,100.378,45.591,94.288,49.758z"/>
						<g>
							<path fill="#981E32" d="M61.89,0v1.069c0.652,0.221,0.862,0.437,0.94,1.41v24.597c0,13.677,11.135,17.292,22.884,26.485
								c11.739-9.193,22.884-12.809,22.884-26.485V2.201c0.098-0.748,0.326-0.93,0.922-1.132V0H61.89z"/>
						</g>
					</g>
				</g>
			</g>
			<g>
				<g>
					<g>
						<path fill="#FFFFFF" d="M90.346,40.043c0,0,1.891-0.811,2.937-3.961c0.922,1.918,0.69,3.889,0.69,3.889
							C93.128,40.163,90.346,40.043,90.346,40.043z"/>
						<path fill="#FFFFFF" d="M100.561,22.05c0,0,1.16,6.315-2.935,6.536c-3.979,0.207-5.841-5.754-5.841-5.754
							s0.939,11.658,6.512,10.886C104.568,32.854,100.561,22.05,100.561,22.05z"/>
					</g>
				</g>
				<path fill="#FFFFFF" d="M70.368,38.537L70.368,38.537c4.651-1.055,8.2-6.464,9.246-8.632l0.651-1.386l0.413,1.477
					c0,0.082,0.44,1.702,0.44,3.846c0,0.235-0.01,0.479-0.01,0.734c1.593,0.052,2.734-0.269,3.453-1.003
					c1.007-1.055,1.314-3.05,0.931-6.1c-0.182-1.463-0.72-3.788-1.209-5.836c-0.239-1.045-0.45-2.033-0.604-2.729
					c-0.891-4.488,0.211-7.265,1.314-8.809c0.153-0.245,0.336-0.475,0.547-0.696c-3.214,1.08-5.899,2.763-8.68,5.529l1.956,2.269
					l0.797-0.748c0.757,2.815,0.211,5.405,0.211,5.405c-1.027-1.564-2.235-2.834-2.235-2.834l0.518-0.897l-1.745-2.038l-0.211-0.23
					c-2.158,2.973-2.857,5.404-2.857,5.404l1.544,1.4l0.892,0.811l0.297-0.858c1.659,3.084,0.145,5.97,0.145,5.97
					c-0.278-1.055-1.362-2.604-1.362-2.604l0.432-1.415l-2.283-2.072c-2.368,7.424-5.553,9.831-5.553,9.831s3.424-0.619,5.352-1.261
					C72.756,31.065,72.698,34.974,70.368,38.537z"/>
				<path fill="#FFFFFF" d="M105.021,11.769l-5.467,0.235c0,0.643-0.098,1.294-0.31,1.913c0.521,2.239,0.153,3.453,0.153,3.453
					c-0.922-2.129-1.621-2.719-1.621-2.719c-5.016-2.24-7.863,2.82-7.559,6.085c0.25,2.676,1.229,6.239,1.985,11.821
					c0.644,4.7-1.735,6.728-4.479,7.193c-0.058,0.014-0.123,0.023-0.183,0.033c-0.019,0-0.019,0.005-0.047,0.005
					c-0.423,0.062-0.912,0.077-1.401,0.072c-0.037,0-0.037,0-0.066,0c-0.049,0-0.086-0.009-0.151-0.009
					c-0.211-0.015-0.422-0.039-0.644-0.067c-2.109-0.292-6.876-1.156-11.807-1.28c2.897-1.688,5.161-4.618,6.427-6.695
					c0.058,0.581,0.125,1.285,0.125,2.057c0,0.379,0,0.787-0.048,1.199l-0.049,0.566l0.566,0.043
					c2.263,0.201,3.875-0.226,4.91-1.314c1.305-1.338,1.699-3.568,1.257-7.025c-0.184-1.52-0.738-3.875-1.209-5.947
					c-0.249-1.041-0.479-2.019-0.613-2.709c-0.815-4.081,0.153-6.565,1.111-7.927c0.769-1.064,1.795-1.846,2.945-2.225
					c0.008,0,0.026-0.009,0.057-0.009l1.861-5.75h0.584l-1.256,5.529c0.297-0.053,0.586-0.101,0.891-0.144l1.621-5.093h0.576
					L92.12,7.99c1.679-0.216,3.481-0.384,5.506-0.533c0.336,0.134,0.671,0.508,0.979,1.031l5.283-1.621l0.191,0.566l-5.057,1.966
					c0.067,0.096,0.098,0.211,0.125,0.317l5.506-0.686l0.097,0.595L99.4,10.689c0.026,0.101,0.037,0.197,0.058,0.297l5.562,0.182
					v0.601H105.021z M89.139,14.238c1.111-0.781,2.981-1.376,4.756-1.242c0.441,0.039,0.824-0.081,0.336-0.34
					c-1.312-0.695-4.4-0.46-5.476,0.288c-1.746,1.185-1.468,3.304-1.411,3.357C87.68,15.696,88.283,14.842,89.139,14.238z"/>
			</g>
		</g>
	</g>
</g>
</svg>
