<?xml version="1.0" standalone="no"?>
<!DOCTYPE svg PUBLIC "-//W3C//DTD SVG 1.1//EN" "http://www.w3.org/Graphics/SVG/1.1/DTD/svg11.dtd" >
<svg xmlns="http://www.w3.org/2000/svg">
<metadata></metadata>
<defs>
<font id="wsu-iconsregular" horiz-adv-x="2048" >
<font-face units-per-em="2048" ascent="2048" descent="0" />
<missing-glyph horiz-adv-x="512" />
<glyph unicode=" "  horiz-adv-x="512" />
<glyph unicode="&#x09;" horiz-adv-x="512" />
<glyph unicode="&#xa0;" horiz-adv-x="512" />
<glyph unicode="$" horiz-adv-x="2133" d="M1242 2044q173 0 331 -67.5t272.5 -182t182 -272.5t67.5 -332t-67.5 -331.5t-182 -272t-272 -182t-331.5 -67.5q-187 0 -355 77l-514 -378q-67 -51 -151 -38.5t-135 81.5q-41 57 -40.5 123.5t40.5 121.5l378 512q-77 168 -77 354q0 139 43 269.5t122 235.5t184 184 t235.5 122t269.5 43zM1242 593q122 0 232.5 47t190.5 127t127 190.5t47 232.5q0 163 -79.5 300.5t-217 217.5t-300.5 80t-300.5 -80t-217.5 -217.5t-80 -300.5t80 -300.5t217.5 -217t300.5 -79.5z" />
<glyph unicode="%" d="M819 1502q0 -170 -120 -290t-289 -120q-111 0 -205.5 55t-149.5 149.5t-55 205.5q0 169 120 289t290 120t289.5 -119.5t119.5 -289.5zM1700 1833q31 -58 -10 -126q-134 -201 -385 -576.5t-419.5 -627.5t-175.5 -264q-64 -102 -179 -102q-26 0 -53.5 3.5t-68 22.5 t-59.5 52q-34 55 11 126q24 37 495.5 744.5t483.5 725.5q64 100 177 100q139 0 183 -78zM1638 137q-170 0 -289.5 119.5t-119.5 289.5t120 290t289 120q111 0 205.5 -55t149.5 -149.5t55 -205.5q0 -169 -120 -289t-290 -120z" />
<glyph unicode="+" d="M1835 1146q16 -157 0 -314q-3 -35 -29 -58t-61 -23h-516v-516q0 -35 -23.5 -61t-57.5 -29q-158 -17 -316 0q-34 3 -57.5 29t-23.5 61v516h-514q-37 0 -63 23t-29 58q-16 157 0 314q3 35 29 59t63 24h514v514q0 36 23.5 62.5t57.5 29.5q158 17 316 0q34 -3 57.5 -29.5 t23.5 -62.5v-514h516q35 0 61 -24t29 -59z" />
<glyph unicode="-" d="M145 832q-17 158 0 316q3 34 29 57.5t61 23.5h1510q35 0 61 -23.5t29 -57.5q17 -158 0 -316q-3 -34 -29 -57.5t-61 -23.5h-1510q-35 0 -61 23.5t-29 57.5z" />
<glyph unicode="@" horiz-adv-x="2133" d="M1067 1850q218 0 415.5 -84.5t339.5 -227t225.5 -339t83.5 -412.5q0 -225 -55 -370t-107 -174q-20 -12 -245.5 -12t-441.5 6l-215 6q-110 0 -210 43t-172.5 116t-115 173.5t-42.5 211.5q0 110 42.5 210.5t115 173t172.5 115.5t210 43q146 0 270 -72.5t196.5 -197.5 t72.5 -272q0 -36 -3 -111.5t-3 -118.5t6 -45q13 -11 100 -13t101 13q16 10 37 105.5t21 169.5q0 162 -63.5 308.5t-170.5 252.5t-254.5 168.5t-309.5 62.5t-308.5 -62.5t-252.5 -168.5t-168.5 -252.5t-62.5 -308.5q0 -163 62.5 -310t168.5 -253t252.5 -168t308.5 -62l27 1 q26 1 66.5 3t96 3.5t114 3t120.5 2t115.5 -0.5t99 -4t71.5 -8q29 -4 -29 -47q-98 -73 -275 -140q-224 -84 -406 -84q-216 0 -412.5 83.5t-339 225.5t-227 339.5t-84.5 415.5q0 215 84.5 412t227 339.5t339.5 227t412 84.5zM794 787q0 -121 57.5 -198t163.5 -77 q121 0 222 81.5t101 193.5q0 121 -55.5 198t-166.5 77q-115 0 -218.5 -83t-103.5 -192z" />
<glyph unicode="A" horiz-adv-x="1425" />
<glyph unicode="B" horiz-adv-x="2133" d="M1069 -382q233 0 448 90q208 91 367 247q158 161 245 367q92 209 92 448t-92 448q-85 204 -245 367q-155 155 -367 248q-212 89 -448 89q-239 0 -448 -89q-214 -93 -367 -248q-163 -163 -248 -367q-89 -209 -89 -448t89 -448q87 -206 248 -367q156 -156 367 -247 q211 -90 448 -90zM1069 1815q208 0 407 -81q187 -80 331 -224q149 -149 224 -332q83 -196 83 -408q0 -211 -83 -407q-75 -182 -224 -331q-148 -148 -331 -226q-199 -81 -407 -81q-212 0 -408 81q-185 79 -332 226q-144 144 -224 331q-82 201 -82 407q0 207 82 408 q81 189 224 332t332 224q196 81 408 81zM1073 845v-380q0 -71 5 -108t25 -66t56.5 -38.5t101.5 -9.5q47 0 106.5 10.5t96.5 20.5l36 10v-246q-6 -4 -17 -10.5t-48 -23t-78 -29t-105.5 -23t-131.5 -10.5q-225 0 -325 108t-100 321v493h-241v241q69 23 115.5 44t96 56t80 80.5 t54.5 114t34 159.5h239v-379h380v-335h-380z" />
<glyph unicode="C" horiz-adv-x="1542" />
<glyph unicode="D" horiz-adv-x="1542" />
<glyph unicode="E" horiz-adv-x="1425" />
<glyph unicode="F" horiz-adv-x="1600" d="M804 -380q234 0 448 90q208 91 367 247q159 162 246 367q91 207 91 448t-91 448q-84 202 -246 367q-155 155 -367 248q-212 89 -448 89q-239 0 -448 -89q-214 -93 -367 -248q-161 -161 -247 -367q-90 -212 -90 -448t90 -448q88 -208 247 -367q156 -156 367 -247 q212 -90 448 -90zM804 1818q209 0 408 -81q185 -79 330 -224q148 -148 224 -333q84 -199 84 -408q0 -208 -84 -407q-75 -182 -224 -331q-148 -148 -330 -226q-199 -81 -408 -81q-211 0 -407 81q-187 80 -333 226q-144 144 -224 331q-81 199 -81 407q0 209 81 408 q81 190 224 333t333 224q196 81 407 81zM1175 1440h-226q-142 0 -235 -102.5t-93 -255.5v-137h-243v-237h243v-706h271v706h213l70 237h-283v162q0 35 17.5 59t39.5 24h226v250z" />
<glyph unicode="G" horiz-adv-x="1657" />
<glyph unicode="H" horiz-adv-x="1542" />
<glyph unicode="I" horiz-adv-x="590" />
<glyph unicode="J" horiz-adv-x="1066" />
<glyph unicode="K" horiz-adv-x="1425" />
<glyph unicode="L" horiz-adv-x="2133" d="M1069 -388q236 0 448 89q206 90 367 248q158 161 245 367q92 209 92 448t-92 448q-85 204 -245 367q-153 153 -367 247q-215 90 -448 90q-237 0 -448 -90q-216 -93 -367 -247q-163 -163 -248 -367q-89 -209 -89 -448t89 -448q87 -206 248 -367q158 -158 367 -248 q209 -89 448 -89zM1069 1809q208 0 407 -81q187 -80 331 -224q148 -148 224 -333q83 -196 83 -407q0 -212 -83 -408q-74 -180 -224 -330q-149 -149 -331 -227q-199 -81 -407 -81q-212 0 -408 81q-183 78 -332 227q-145 145 -224 330q-82 201 -82 408q0 206 82 407 q81 190 224 333t332 224q196 81 408 81zM553 1438q89 0 141.5 -48t54.5 -123q0 -74 -53.5 -123.5t-142.5 -49.5h-3q-85 0 -138.5 50t-53.5 123q0 74 54.5 122.5t140.5 48.5zM1434 998q157 0 249 -118.5t92 -320.5v-440h-292v440q0 106 -39 151t-111 45q-67 0 -106 -53 t-39 -143v-440h-292v636q-7 162 -9 194h291l10 -128q29 82 93.5 129.5t152.5 47.5zM407 119v830h293v-830h-293z" />
<glyph unicode="M" horiz-adv-x="1774" />
<glyph unicode="N" horiz-adv-x="1542" />
<glyph unicode="O" horiz-adv-x="1657" />
<glyph unicode="P" horiz-adv-x="2133" d="M2095 1244q92 -209 92 -448t-92 -448q-87 -206 -245 -367q-161 -158 -367 -248q-212 -89 -448 -89q-239 0 -448 89q-209 90 -367 248q-161 161 -248 367q-89 209 -89 448t89 448q85 204 248 367q151 154 367 247q211 90 448 90q233 0 448 -90q214 -94 367 -247 q160 -163 245 -367zM1997 388q83 196 83 408q0 211 -83 407q-76 185 -224 333q-144 144 -331 224q-199 81 -407 81q-212 0 -408 -81q-190 -81 -333 -224t-224 -333q-81 -199 -81 -407q0 -209 81 -408q79 -185 224 -330q131 -131 301 -212q-4 127 19 218l141 591 q-36 69 -36 171q0 119 61 200t148 81q69 0 107 -46.5t38 -117.5q0 -42 -16.5 -105t-42 -145t-37.5 -132q-21 -85 32 -146t139 -61q100 0 179 78t121.5 208.5t42.5 285.5q0 185 -118 300.5t-330 115.5q-120 0 -221.5 -42.5t-169 -114.5t-105 -165.5t-37.5 -196.5 q0 -125 68 -213q16 -18 19.5 -28.5t-0.5 -31.5q-12 -37 -23 -85q-14 -43 -56 -28q-108 43 -163.5 155t-55.5 259q0 94 30.5 188.5t94 182.5t153 155.5t218.5 108.5t278 41t279 -52t217 -138t137 -198t50 -232q0 -211 -72.5 -380t-206 -266t-304.5 -97q-85 0 -161 40.5 t-105 96.5q-62 -252 -75 -299q-24 -91 -96 -209q147 -43 299 -43q208 0 407 81q182 78 331 227q150 150 224 330z" />
<glyph unicode="Q" horiz-adv-x="1657" />
<glyph unicode="R" horiz-adv-x="1542" />
<glyph unicode="S" horiz-adv-x="2133" d="M2127 1212q92 -216 92 -448t-92 -448q-85 -204 -248 -367q-152 -155 -364 -248q-212 -89 -448 -89q-238 0 -450 89q-213 93 -365 248q-163 163 -248 367q-91 214 -91 448t91 448q85 204 248 367q155 155 365 247q215 90 450 90q233 0 448 -90q208 -91 364 -247 q163 -163 248 -367zM1651 727v73q0 13 -6.5 22.5t-16.5 9.5h-491v491q0 11 -9.5 18t-24.5 7h-73q-14 0 -24 -7t-10 -18v-491h-490q-10 0 -17 -9.5t-7 -22.5v-73q0 -14 7 -24t17 -10h490v-490q0 -11 10 -18.5t24 -7.5h73q14 0 24 7.5t10 18.5v490h491q10 0 16.5 10t6.5 24z " />
<glyph unicode="T" horiz-adv-x="2133" d="M1067 -390q236 0 448 89q212 93 364 248q163 163 248 367q92 216 92 448t-92 448q-85 204 -248 367q-156 156 -364 247q-214 90 -448 90q-235 0 -450 -90q-210 -92 -365 -247q-163 -163 -248 -367q-91 -214 -91 -448t91 -448q85 -204 248 -367q152 -155 365 -248 q212 -89 450 -89zM1067 1807q209 0 405 -81q188 -79 333 -224q145 -148 224 -333q83 -196 83 -407q0 -212 -83 -408q-81 -190 -224 -333q-145 -145 -333 -224q-196 -81 -405 -81q-212 0 -408 81q-188 79 -333 224q-143 143 -224 333q-83 196 -83 408q0 211 83 407 q79 185 224 333q145 145 333 224q196 81 408 81zM1769 1105q-85 -32 -158 -43q87 51 121 150q-68 -38 -173 -62q-75 81 -196 81q-113 0 -193 -78.5t-80 -190.5q0 -36 9 -64q-348 20 -561 286q-41 -71 -41 -137q0 -146 124 -228q-65 3 -124 34q0 -99 60.5 -174.5t155.5 -96.5 q-46 -8 -69 -8q-24 0 -51 6q27 -84 96 -136.5t156 -53.5q-134 -113 -333 -113q-55 0 -68 2q191 -123 416 -123q232 0 420 123q176 115 265 284.5t89 364.5v36q93 75 135 141z" />
<glyph unicode="U" horiz-adv-x="1542" />
<glyph unicode="V" horiz-adv-x="1425" />
<glyph unicode="W" horiz-adv-x="2011" />
<glyph unicode="X" horiz-adv-x="1425" />
<glyph unicode="Y" horiz-adv-x="2133" d="M1065 -373q236 0 448 89q205 87 366 248q162 165 246 367q92 209 92 448q0 236 -92 448q-87 205 -246 367q-161 158 -366 245q-212 92 -448 92q-239 0 -448 -92q-204 -85 -367 -245q-161 -161 -248 -367q-89 -212 -89 -448q0 -239 89 -448q85 -204 248 -367t367 -248 q209 -89 448 -89zM1065 1824q211 0 407 -83q182 -75 331 -224t224 -331q83 -196 83 -407q0 -215 -83 -408q-76 -185 -224 -333q-144 -144 -331 -224q-199 -81 -407 -81q-212 0 -408 81q-190 81 -333 224t-224 333q-81 196 -81 408q0 208 81 407q80 187 224 331 q148 148 333 224q193 83 408 83zM1615 860q30 -24 30 -64q0 -37 -30 -64q-16 -14 -44.5 -36.5t-109 -80.5t-165.5 -111.5t-209 -119.5t-244 -115q-2 0 -14 -3.5t-20 -3.5q-24 0 -43 13q-38 21 -41 64q-1 7 -5.5 68t-9 173.5t-4.5 215.5q0 105 4.5 216.5t8.5 172t6 67.5 q3 41 41 66q24 11 43 11q17 0 34 -6q120 -49 244 -115t209 -119.5t165.5 -111.5t109 -80.5t44.5 -36.5z" />
<glyph unicode="Z" horiz-adv-x="1303" />
<glyph unicode="a" horiz-adv-x="1188" />
<glyph unicode="b" horiz-adv-x="2133" />
<glyph unicode="c" horiz-adv-x="1066" />
<glyph unicode="d" horiz-adv-x="1188" />
<glyph unicode="e" horiz-adv-x="1188" />
<glyph unicode="f" horiz-adv-x="590" />
<glyph unicode="g" horiz-adv-x="1273" />
<glyph unicode="h" horiz-adv-x="1188" />
<glyph unicode="i" horiz-adv-x="475" />
<glyph unicode="j" horiz-adv-x="661" />
<glyph unicode="k" horiz-adv-x="1066" />
<glyph unicode="l" horiz-adv-x="475" />
<glyph unicode="m" horiz-adv-x="1774" />
<glyph unicode="n" horiz-adv-x="1188" />
<glyph unicode="o" horiz-adv-x="1188" />
<glyph unicode="p" horiz-adv-x="1188" />
<glyph unicode="q" horiz-adv-x="1188" />
<glyph unicode="r" horiz-adv-x="708" />
<glyph unicode="s" horiz-adv-x="1280" d="M710 838h491q10 0 17 -10t7 -24v-72q0 -13 -7 -23.5t-17 -10.5h-491v-491q0 -10 -10 -17t-24 -7h-72q-14 0 -24 7t-10 17v491h-491q-10 0 -17 10.5t-7 23.5v72q0 14 7 24t17 10h491v491q0 10 10 17t24 7h72q14 0 24 -7t10 -17v-491z" />
<glyph unicode="t" horiz-adv-x="590" />
<glyph unicode="u" horiz-adv-x="1188" />
<glyph unicode="v" horiz-adv-x="1066" d="M666 0h-222l-453 1239h239l340 -1017l345 1017h222z" />
<glyph unicode="w" horiz-adv-x="1542" d="M1321 0h-218l-248 958l-249 -958h-218l-354 1239h224l237 -977l254 977h230l243 -977l250 977h209z" />
<glyph unicode="x" horiz-adv-x="1066" d="M894 0l-305 467l-303 -467h-263l440 640l-416 599h269l286 -437l288 437h253l-420 -603l438 -636h-267z" />
<glyph unicode="y" horiz-adv-x="2133" d="M1065 -373q236 0 448 89q205 87 366 248q162 165 246 367q92 209 92 448q0 236 -92 448q-87 205 -246 367q-161 158 -366 245q-212 92 -448 92q-239 0 -448 -92q-204 -85 -367 -245q-161 -161 -248 -367q-89 -212 -89 -448q0 -239 89 -448q85 -204 248 -367t367 -248 q209 -89 448 -89zM1065 1824q211 0 407 -83q182 -75 331 -224t224 -331q83 -196 83 -407q0 -215 -83 -408q-76 -185 -224 -333q-144 -144 -331 -224q-199 -81 -407 -81q-212 0 -408 81q-190 81 -333 224t-224 333q-81 196 -81 408q0 208 81 407q80 187 224 331 q148 148 333 224q193 83 408 83zM1615 860q30 -24 30 -64q0 -37 -30 -64q-16 -14 -44.5 -36.5t-109 -80.5t-165.5 -111.5t-209 -119.5t-244 -115q-2 0 -14 -3.5t-20 -3.5q-24 0 -43 13q-38 21 -41 64q-1 7 -5.5 68t-9 173.5t-4.5 215.5q0 105 4.5 216.5t8.5 172t6 67.5 q3 41 41 66q24 11 43 11q17 0 34 -6q120 -49 244 -115t209 -119.5t165.5 -111.5t109 -80.5t44.5 -36.5z" />
<glyph unicode="z" horiz-adv-x="1066" d="M73 0v162l746 903h-689v174h958v-170l-742 -898h765v-171h-1038z" />
<glyph unicode="&#x201c;" d="M887 1297q0 -145 -31 -272t-96 -241.5t-174 -209t-257 -160.5q-12 -4 -26 -4q-18 0 -35 10.5t-25 27.5l-100 209q-13 26 -3.5 53.5t35.5 40.5q92 47 144 94t78 113q-176 3 -310 23q-22 3 -38 19t-21 37q-28 176 -28 322q0 172 28 333q5 23 21 38.5t38 18.5q179 26 357 26 q176 0 358 -26q21 -3 37 -19t19 -38q29 -161 29 -395zM1980 1297q0 -145 -31 -272t-96 -241.5t-174.5 -209t-257.5 -160.5q-12 -4 -26 -4q-18 0 -35 10.5t-25 27.5l-100 209q-13 26 -3.5 53.5t35.5 40.5q92 47 144 94t78 113q-175 3 -309 23q-22 3 -38.5 19t-21.5 37 q-28 161 -28 328q0 166 28 327q5 23 21.5 38.5t38.5 18.5q179 26 356 26q176 0 358 -26q21 -3 37 -19t19 -38q30 -167 30 -395z" />
<glyph unicode="&#x2026;" horiz-adv-x="1706" d="M188 1028q98 0 166 -68t68 -166t-68.5 -166.5t-165.5 -68.5q-98 0 -166.5 68.5t-68.5 166.5q0 97 68.5 165.5t166.5 68.5zM853 1028q98 0 166.5 -68.5t68.5 -165.5q0 -98 -69 -166.5t-166 -68.5t-165.5 68.5t-68.5 166.5t68.5 166t165.5 68zM1519 1028q98 0 166.5 -68.5 t68.5 -165.5q0 -98 -69 -166.5t-166 -68.5t-166 68.5t-69 166.5q0 97 68.5 165.5t166.5 68.5z" />
<glyph unicode="&#x2139;" d="M1024 1805q208 0 397.5 -81t327 -218.5t218.5 -327t81 -397.5t-81 -397.5t-218.5 -327t-327 -218.5t-397.5 -81t-397.5 81t-327 218.5t-218.5 327t-81 397.5t81 397.5t218.5 327t327 218.5t397.5 81zM1024 1171q62 0 109 46t47 108q0 61 -47 109.5t-109 48.5t-109 -48.5 t-47 -109.5q0 -62 47 -108t109 -46zM875 166h298q29 0 49 20t20 49v68q0 28 -20 48t-49 20l2 546q0 28 -20.5 48.5t-47.5 20.5h-232q-29 0 -49 -20t-20 -49v-68q0 -28 20 -48t49 -20v-410q-29 0 -49 -20t-20 -48v-68q0 -29 20 -49t49 -20z" />
<glyph unicode="&#x21a9;" d="M956 1801v-370q160 -8 301.5 -34t276.5 -79.5t232 -129t155.5 -190t58.5 -256.5q0 -119 -43 -229t-110 -187.5t-146.5 -136t-155 -87t-134.5 -29.5q-65 -1 -106 28t-48.5 69t24 84t98.5 70q132 50 180.5 137t-3.5 185q-44 81 -210 126.5t-370 48.5v-367q0 -63 -45 -87 q-27 -11 -47 -11q-33 0 -55 17q-110 74 -224 171t-195.5 181t-153.5 165t-104.5 122.5t-41.5 54.5q-21 25 -21 59.5t21 61.5q19 24 43 54.5t102 119.5t156 168t193 178.5t225 173.5q50 35 102 4q45 -24 45 -85z" />
<glyph unicode="&#x21aa;" d="M1696 1468l2 -1112q0 -34 -21 -55l-45 -49q-35 -39 -81 -22q-14 3 -26 15q-21 21 -21 49l11 924l-1033 -1045q-4 -3 -10 -8.5t-25 -17t-37.5 -16.5t-42 -2t-43.5 20q-31 31 -28.5 65t20.5 60l19 27l1050 1045l-922 -11q-49 0 -70 45q-8 20 -4 42.5t18 38.5l47 49 q23 27 56 24l1113 2q28 0 49 -19.5t24 -48.5z" />
<glyph unicode="&#x21ba;" d="M83 1779q3 21 17 37t34 23q45 14 77 -21l203 -235q100 117 239 200q199 118 439 118q52 2 137 -9q150 -20 292.5 -86.5t240.5 -164.5q104 -104 169 -227q68 -128 91 -273q47 -284 -89 -544q-124 -237 -380 -386q-248 -143 -495 -134q-123 4 -245 51.5t-222 123.5h-2 q-36 27 -47 72t8 86q24 48 73.5 65t97.5 -6q150 -73 331 -55q172 20 296 115q118 90 168 241t14 277q-34 124 -145 218q-100 88 -224 102q-123 9 -229 -53q-47 -28 -102 -87l269 -177q17 -11 26 -31.5t6 -41.5t-18 -37.5t-36 -20.5q-352 -100 -836 -100h-43q-25 0 -44 17 t-24 41q-7 38 -12 64.5t-20.5 139t-22 209t-6.5 234.5t14 255z" />
<glyph unicode="&#x21bb;" d="M1963 1711q15 -117 15.5 -253t-7 -239t-21 -205.5t-20.5 -143t-12 -61.5q-5 -24 -24 -41t-44 -17h-43q-486 0 -838 100q-20 5 -34.5 21t-17.5 37q-6 44 32 72l269 177q-58 62 -102 86q-109 67 -229 53q-121 -9 -224 -100q-111 -94 -145 -218q-36 -126 14 -277t168 -241 q119 -94 296 -115q181 -18 331 55q46 23 96.5 5.5t74.5 -65.5q19 -41 8 -86t-47 -72l-2 -2q-99 -74 -222.5 -121t-244.5 -51q-250 -9 -495 134q-258 150 -382 386q-64 121 -87.5 262t0.5 282q24 150 89 273q68 123 171 226q96 97 239 164t294 88q71 9 139 9q240 0 437 -120 q139 -80 239 -200l203 236q33 36 74 22q22 -7 36.5 -23t15.5 -37z" />
<glyph unicode="&#x22c6;" />
<glyph unicode="&#x2301;" />
<glyph unicode="&#x2302;" d="M1024 68q-284 0 -587 60q-33 8 -55 31.5t-26 55.5l-85 604h-169q-60 0 -91 56q-28 57 8 104q98 141 230.5 286t245.5 248t227.5 195.5t168 132t75.5 53.5q26 17 58 17t58 -17q157 -108 352 -275v224q0 29 20 48.5t48 19.5h205q29 0 48.5 -19.5t19.5 -48.5v-552 q137 -145 245 -299q28 -31 28 -70q0 -43 -30 -73t-72 -30h-169l-87 -604q-3 -31 -25 -54.5t-54 -32.5q-306 -60 -587 -60zM1289 405l17 273q0 29 -20 52q-21 21 -49 21h-426q-28 0 -49 -21q-20 -23 -20 -52l17 -273q1 -25 18.5 -43t41.5 -21q113 -10 205 -10t205 10 q24 3 41.5 21t18.5 43z" />
<glyph unicode="&#x2316;" d="M1024 2048q208 0 397.5 -81t327 -218.5t218.5 -327t81 -397.5t-81 -397.5t-218.5 -327t-327 -218.5t-397.5 -81t-397.5 81t-327 218.5t-218.5 327t-81 397.5t81 397.5t218.5 327t327 218.5t397.5 81zM1161 478v-220q232 45 407 220.5t220 408.5h-218q-28 0 -48 20t-20 49 v136q0 29 20 49t48 20h220q-47 232 -222 407t-407 220v-218q0 -28 -20 -48t-49 -20h-136q-29 0 -49 20t-20 48v218q-232 -45 -408 -220.5t-221 -406.5h220q28 0 48 -20t20 -49v-136q0 -29 -20 -49t-48 -20h-220q45 -231 221 -406.5t408 -220.5v218q0 28 20 48t49 20h136 q29 0 49 -20t20 -48zM1024 1161q56 0 96.5 -40.5t40.5 -96.5t-40.5 -96.5t-96.5 -40.5t-96.5 40.5t-40.5 96.5t40.5 96.5t96.5 40.5z" />
<glyph unicode="&#x231a;" />
<glyph unicode="&#x232b;" />
<glyph unicode="&#x2397;" />
<glyph unicode="&#x2398;" />
<glyph unicode="&#x2399;" d="M1022 2048q279 0 552 -32q28 -3 45 -26q15 -15 15 -44v-408q162 -15 327 -40q31 -5 59 -37q26 -36 26 -66v-945q0 -43 -32 -72q-29 -32 -73 -32h-138l-105 495q0 23 -21 34q-17 15 -43 15h-1216q-26 0 -43 -15q-17 -7 -25 -34l-103 -495h-140q-45 0 -71 32q-32 29 -32 72 v945q0 27 24 66q32 32 62 37q169 25 322 40v408q0 27 17 44q17 23 42 26q279 32 551 32zM1538 719l128 -559l2 -7q2 -7 2 -10q0 -23 -21 -47q-21 -21 -51 -21h-1150q-32 0 -47 21q-21 15 -21 47q0 3 1 10l1 7l126 559h1030z" />
<glyph unicode="&#x23cf;" d="M1178 887h-239q-49 0 -99.5 1t-94.5 2t-87.5 2.5t-79.5 3t-68.5 3t-57.5 2.5t-43 2t-28 1l-10 1q-28 2 -51 17t-34 40q-13 22 -13 47q0 30 17 56q43 66 93.5 133.5t101 126.5t102.5 115.5t101 105t93 90t82.5 75.5t65 56.5t45.5 38.5l20 16q31 21 64 21t64 -21l20 -16 q19 -16 45.5 -38.5t65 -56.5t82.5 -75.5t93 -90t101 -105t102.5 -115.5t101 -126.5t93.5 -133.5q34 -52 7 -103q-13 -25 -36.5 -40t-51.5 -17l-16 -1q-16 -1 -45 -2t-68 -2.5t-89.5 -3.5t-104.5 -3.5t-118.5 -3t-125.5 -2.5zM1837 275q-3 -31 -27.5 -50.5t-58.5 -19.5h-1386 q-34 0 -58.5 19.5t-27.5 50.5q-13 135 0 269q3 31 27.5 50.5t58.5 19.5h1386q34 0 58.5 -19.5t27.5 -50.5q13 -134 0 -269z" />
<glyph unicode="&#x23e9;" />
<glyph unicode="&#x23ea;" />
<glyph unicode="&#x23ed;" />
<glyph unicode="&#x23ee;" />
<glyph unicode="&#x23f0;" />
<glyph unicode="&#x23f1;" />
<glyph unicode="&#x23f2;" />
<glyph unicode="&#x2421;" d="M1340 1024l403 -405q27 -26 31.5 -61t-16.5 -59q-92 -117 -209 -209q-24 -21 -59.5 -17t-62.5 30l-403 405l-405 -405q-26 -26 -61 -30t-61 17q-115 92 -207 207q-21 26 -17 61t30 61l405 405l-403 403q-27 27 -31.5 62.5t16.5 59.5q90 115 207 209q26 21 61 16.5 t61 -31.5l405 -386l403 386q27 27 62.5 31.5t59.5 -16.5q117 -92 209 -209q21 -24 16.5 -59.5t-31.5 -62.5z" />
<glyph unicode="&#x25a0;" d="M1741 1619q34 -309 34 -629t-34 -629q-5 -48 -39.5 -83t-82.5 -39q-309 -34 -629 -34t-629 34q-48 4 -83 39t-39 83q-34 309 -34 629t34 629q4 48 39 82.5t83 39.5q309 34 629 34t629 -34q48 -5 82.5 -39.5t39.5 -82.5z" />
<glyph unicode="&#x25b4;" d="M1762 715q27 -48 0 -96q-29 -51 -81 -54l-19 -1q-20 -1 -55 -2.5t-81 -3.5t-105 -4.5t-121.5 -4t-135 -2.5t-140.5 -1t-140.5 1t-135 2.5t-121.5 4t-105 4.5t-81 3.5t-55 2.5l-19 1q-25 1 -47.5 16t-33.5 38q-27 48 0 96q71 126 165.5 259.5t175.5 232t159 185 t118.5 127.5t51.5 51q28 26 68 26t68 -26q11 -10 51.5 -51t118.5 -127.5t159 -185t175.5 -232t165.5 -259.5z" />
<glyph unicode="&#x25b6;" d="M1728 1090q47 -36 47 -100q0 -62 -47 -103q-472 -382 -999 -635q-119 -58 -236 -105q-28 -10 -54 -10q-39 0 -70 19q-61 36 -64 102q-2 18 -9 110t-15 274t-8 348t8 347t15 274t9 108q3 66 64 105q31 19 70 19q26 0 54 -10q193 -78 390 -182.5t336 -193.5t262.5 -178 t176.5 -131t70 -58z" />
<glyph unicode="&#x25b9;" d="M713 286q-48 -27 -96 0q-22 11 -36 33t-16 48l-1 19q-1 20 -2.5 55t-3.5 81t-4.5 105t-4 121.5t-2.5 135t-1 140.5t1 140.5t2.5 135t4 121.5t4.5 105t3.5 81t2.5 55l1 19q3 53 52 81q48 27 96 0q127 -71 260.5 -165.5t232 -175.5t185 -159t127 -118t50.5 -52 q27 -29 27 -68.5t-27 -67.5q-10 -12 -50.5 -52t-127 -118t-185 -159t-232 -175.5t-260.5 -165.5z" />
<glyph unicode="&#x25bb;" d="M1756 977l-696 -751q-21 -21 -51 -21h-529q-47 0 -64 40q-6 14 -6 28q0 25 17 45l667 706l-667 704q-30 37 -11 75q19 40 64 40h529q31 0 51 -23l696 -751q20 -19 20 -45t-20 -47z" />
<glyph unicode="&#x25be;" d="M286 1333q-27 48 0 96q11 22 33 36t48 16q3 1 93 6t252 10t312 5t312 -5t252 -10t93 -6q53 -3 81 -52q27 -48 0 -96q-71 -126 -165.5 -259.5t-175.5 -232t-159 -185t-118.5 -127.5t-51.5 -51q-28 -26 -67.5 -26t-68.5 26q-11 10 -51.5 51t-118.5 127.5t-159 185 t-175.5 232t-165.5 259.5z" />
<glyph unicode="&#x25c3;" d="M1335 1762q48 27 96 0q49 -28 52 -81l1 -19q1 -20 2.5 -55t3.5 -81t4.5 -105t4 -121.5t2.5 -135t1 -140.5t-1 -140.5t-2.5 -135t-4 -121.5t-4.5 -105t-3.5 -81t-2.5 -55l-1 -19q-2 -26 -16 -48t-36 -33q-48 -27 -96 0q-127 71 -261 165.5t-232.5 175.5t-185 159 t-127.5 118.5t-51 51.5q-26 29 -26 68.5t26 67.5q10 11 51 51.5t127.5 118.5t185 159t232.5 175.5t261 165.5z" />
<glyph unicode="&#x25c5;" d="M290 1069l698 751q20 23 51 23h529q45 0 64 -40q6 -14 6 -28q0 -28 -19 -47l-668 -704l668 -706q31 -31 13 -73q-17 -40 -64 -40h-529q-30 0 -51 21l-698 751q-17 21 -17 47t17 45z" />
<glyph unicode="&#x25ce;" d="M1830 1161h150q28 0 48 -20t20 -49v-136q0 -29 -20 -49t-48 -20h-150q-44 -258 -228 -443.5t-441 -228.5v-147q0 -28 -20 -48t-49 -20h-136q-29 0 -49 20t-20 48v150q-257 44 -441 228t-228 441h-150q-28 0 -48 20t-20 49v136q0 29 20 49t48 20h150q44 257 228 441 t441 228v150q0 28 20 48t49 20h136q29 0 49 -20t20 -48v-150q257 -44 441 -228t228 -441zM1024 465q148 0 277 76.5t205.5 205.5t76.5 277t-76.5 277t-205.5 205.5t-277 76.5t-277 -76.5t-205.5 -205.5t-76.5 -277t76.5 -277t205.5 -205.5t277 -76.5zM1024 751 q-113 0 -193 80t-80 193t80 193t193 80t193 -80t80 -193t-80 -193t-193 -80z" />
<glyph unicode="&#x25cf;" />
<glyph unicode="&#x25fc;" horiz-adv-x="1237" d="M0 1237h1237v-1237h-1237v1237z" />
<glyph unicode="&#x2601;" />
<glyph unicode="&#x2602;" />
<glyph unicode="&#x2608;" />
<glyph unicode="&#x2609;" />
<glyph unicode="&#x2615;" />
<glyph unicode="&#x265e;" />
<glyph unicode="&#x2661;" />
<glyph unicode="&#x2665;" />
<glyph unicode="&#x266a;" />
<glyph unicode="&#x266b;" />
<glyph unicode="&#x267f;" />
<glyph unicode="&#x2680;" />
<glyph unicode="&#x2681;" />
<glyph unicode="&#x2682;" />
<glyph unicode="&#x2683;" />
<glyph unicode="&#x2684;" />
<glyph unicode="&#x2685;" />
<glyph unicode="&#x2691;" d="M137 2048h273q56 0 96 -40.5t40 -96.5q0 -53 -41.5 -93t-94.5 -43v-1775h-273v1775q-57 2 -97 41t-40 95t40.5 96.5t96.5 40.5zM2048 1436v-1046q-3 -22 -17.5 -37t-35.5 -20q-148 -47 -288 -47q-80 0 -135 11q-61 11 -114.5 42t-95 69t-82 76.5t-93.5 73t-112 50.5 q-58 15 -134 17.5t-142.5 -5.5t-125 -18t-93.5 -19l-34 -9v1137q186 51 367 51q86 3 162 -17q59 -16 112 -46t93.5 -62.5t82 -64.5t95 -58.5t114.5 -37.5q59 -10 103 -13q90 -3 170 13q10 1 22.5 3t27.5 5.5t23 4.5q6 1 19 5t24 6t19 2q27 0 46.5 -19.5t21.5 -46.5z" />
<glyph unicode="&#x2696;" />
<glyph unicode="&#x2699;" d="M2044 1122q9 -96 0 -196q-5 -35 -30 -61.5t-60 -30.5l-175 -21q-38 -8 -63.5 -39.5t-25.5 -71.5q0 -37 19 -62q0 -3 106 -141q22 -27 21.5 -63t-23.5 -63q-61 -77 -138 -138q-27 -24 -64 -24t-62 22l-139 106q-25 19 -64 19q-41 0 -72 -26.5t-39 -66.5l-21 -171 q-4 -35 -30.5 -60t-61.5 -30q-64 -4 -98 -4t-98 4q-35 5 -61.5 30t-30.5 60l-21 171q-7 40 -38.5 66.5t-72.5 26.5q-37 0 -68 -21l-135 -104q-25 -22 -62 -22q-34 0 -64 24q-77 61 -138 138q-23 27 -23.5 63t21.5 63l102 135q23 29 23 68q0 43 -28 74.5t-70 36.5l-166 21 q-35 4 -60 30.5t-30 61.5q-9 96 0 196q3 35 29 61t61 31l166 21q42 7 70 38.5t28 74.5q0 37 -23 66l-102 135q-23 27 -22.5 63t24.5 63q61 77 138 138q27 23 63 23.5t63 -21.5l135 -104q31 -21 68 -21q41 0 72.5 26.5t38.5 66.5l21 171q4 35 30.5 60t61.5 30q96 9 196 0 q35 -5 61.5 -30t30.5 -60l21 -171q8 -40 39 -66.5t72 -26.5q31 0 64 19l139 106q27 22 63 21.5t63 -23.5q77 -61 138 -138q23 -27 23.5 -63t-21.5 -63q-106 -139 -106 -141q-19 -25 -19 -60q0 -41 25 -72t64 -41l175 -21q35 -4 60 -30.5t30 -61.5zM1024 676q144 0 246 102 t102 246t-102 246t-246 102t-246 -102t-102 -246t102 -246t246 -102z" />
<glyph unicode="&#x26a0;" d="M1143 1909l879 -1625q26 -36 26 -79q0 -57 -40 -97t-97 -40h-1774q-76 0 -118 66q-40 63 -2 135l888 1640q17 33 49 52t70 19q37 0 69.5 -19.5t49.5 -51.5zM1020 738h6q30 0 55 24t30 57q29 150 69 531q2 28 -16 53.5t-48 32.5q-91 17 -182 0q-28 -7 -48 -33t-18 -53 q40 -381 69 -531q4 -32 29 -56.5t54 -24.5zM1024 254q64 0 109 44.5t45 108.5t-45 109t-109 45t-109 -45t-45 -109t45 -108.5t109 -44.5z" />
<glyph unicode="&#x26bd;" />
<glyph unicode="&#x26c5;" />
<glyph unicode="&#x26c6;" />
<glyph unicode="&#x26d4;" d="M1024 2048q208 0 397.5 -81t327 -218.5t218.5 -327t81 -397.5t-81 -397.5t-218.5 -327t-327 -218.5t-397.5 -81t-397.5 81t-327 218.5t-218.5 327t-81 397.5t81 397.5t218.5 327t327 218.5t397.5 81zM407 819h1234q29 0 50 20.5t22 50.5q13 134 0 268q-1 30 -22 50.5 t-50 20.5h-1234q-29 0 -50 -20t-24 -51q-9 -134 0 -268q3 -31 24 -51t50 -20z" />
<glyph unicode="&#x26f5;" />
<glyph unicode="&#x26f8;" />
<glyph unicode="&#x26fd;" />
<glyph unicode="&#x2708;" />
<glyph unicode="&#x2709;" d="M870 951l-727 551q-61 58 -75 113v98q0 25 17 44t41 22q442 64 898 64q458 0 896 -64q26 -3 43 -22t17 -44v-98q-14 -55 -75 -113l-727 -551q-59 -46 -154 -46t-154 46zM1303 768l677 518v-951q0 -25 -17 -44t-43 -22q-438 -64 -896 -64q-456 0 -898 64q-24 3 -41 22 t-17 44v951l677 -518q112 -85 279 -85t279 85z" />
<glyph unicode="&#x270e;" />
<glyph unicode="&#x270f;" d="M90 -9q-41 0 -71 30q-37 37 -28 90l212 971q3 27 27 51l894 894q28 29 70 29t71 -29l764 -762q29 -31 29 -71.5t-29 -71.5l-896 -894q-21 -21 -51 -27q-986 -210 -992 -210zM1749 1259l-138 140l-719 -718q-44 -43 -105 -43t-104 43t-43 103t43 103l719 722l-139 138 l-719 -719q-32 -32 -74.5 -40.5t-81.5 6.5l-74 -392l288 -291l394 77q-15 38 -5.5 80t39.5 72z" />
<glyph unicode="&#x2710;" />
<glyph unicode="&#x2712;" />
<glyph unicode="&#x2713;" d="M1952 1666q25 -21 27.5 -55.5t-18.5 -65.5q-809 -1154 -875 -1246q-44 -60 -109.5 -82.5t-132 -1t-112.5 83.5l-593 834q-21 31 -19 66.5t27 57.5q107 92 243 168q28 15 62.5 4.5t55.5 -40.5l401 -563l685 972q21 31 55 41t62 -6q138 -76 241 -167z" />
<glyph unicode="&#x2744;" />
<glyph unicode="&#x2753;" d="M1024 2048q208 0 397.5 -81t327 -218.5t218.5 -327t81 -397.5t-81 -397.5t-218.5 -327t-327 -218.5t-397.5 -81t-397.5 81t-327 218.5t-218.5 327t-81 397.5t81 397.5t218.5 327t327 218.5t397.5 81zM960 751h139q28 0 48 21.5t20 50.5q15 68 102 141q152 137 188 203 q49 80 49 160q0 155 -126 275q-117 111 -320 111q-87 0 -163.5 -29t-130 -76.5t-90 -102.5t-55.5 -114l-4 -13q0 -3 -1.5 -8.5t-1.5 -8.5q0 -28 20 -46t49 -18h143q25 0 43.5 14t22.5 37q14 52 64.5 94.5t114.5 42.5q80 0 132 -49q47 -47 47 -101q0 -52 -28 -87 q-25 -32 -71.5 -71.5t-87.5 -74t-81.5 -76.5t-65 -94.5t-26.5 -112.5q0 -28 20.5 -48t49.5 -20zM1024 254q62 0 109 47t47 109t-47 108.5t-109 46.5t-109 -46.5t-47 -108.5t47 -109t109 -47z" />
<glyph unicode="&#x27a1;" d="M1973 960q-11 -14 -55 -61.5t-137.5 -140.5t-199.5 -189.5t-249.5 -209.5t-279.5 -199q-26 -23 -64 -23q-41 0 -71 29.5t-30 70.5v392q-225 34 -431.5 78.5t-244.5 64.5q-143 79 -143 252q0 171 143 250q37 21 241.5 64.5t434.5 78.5v394q0 27 14 51t38 37q52 28 102 -2 q137 -86 284.5 -202t248.5 -207t205.5 -196t135.5 -138.5t58 -63.5q24 -29 24 -66t-24 -64z" />
<glyph unicode="&#x2922;" />
<glyph unicode="&#x2941;" />
<glyph unicode="&#x2b05;" d="M1980 1024q0 -172 -141 -250q-39 -21 -244 -64.5t-434 -78.5v-394q0 -61 -50 -88q-52 -28 -102 2q-137 86 -282.5 199.5t-253 211t-202.5 191.5t-140 142.5t-56 62.5q-24 28 -24 65.5t24 64.5q11 14 55.5 62t138 140.5t200 189t250 209.5t279.5 199q26 23 64 23 q41 0 70 -29.5t29 -70.5v-392q224 -34 431 -78.5t247 -64.5q141 -78 141 -252z" />
<glyph unicode="&#x2b06;" d="M1911 988q0 -41 -29.5 -71t-70.5 -30h-392q-34 -225 -78.5 -431.5t-64.5 -244.5q-79 -143 -252 -143q-171 0 -250 143q-21 37 -64.5 241.5t-78.5 434.5h-394q-27 0 -51 14t-37 38q-28 52 2 102q86 137 199.5 282t211 252t192 201.5t142.5 138.5t62 56q28 24 65.5 24 t64.5 -24q14 -12 61.5 -55.5t140.5 -136.5t189.5 -198.5t209.5 -249t199 -279.5q23 -26 23 -64z" />
<glyph unicode="&#x2b07;" d="M1897 1007q-86 -137 -202 -284.5t-207 -248.5t-196 -205.5t-138.5 -135.5t-63.5 -58q-28 -24 -65.5 -24t-64.5 24q-14 11 -61.5 55t-140.5 137.5t-189.5 199.5t-209.5 249.5t-199 279.5q-23 26 -23 64q0 41 29.5 71t70.5 30h392q34 225 78.5 431.5t64.5 244.5 q79 143 252 143q171 0 250 -143q21 -37 64.5 -241.5t78.5 -434.5h394q27 0 51 -14t37 -38q28 -52 -2 -102z" />
<glyph unicode="&#x2b08;" d="M1764 1670q3 -42 5.5 -88.5t4.5 -197t-4.5 -290t-29.5 -330.5t-61 -354q-7 -27 -26.5 -47t-46.5 -28q-9 -4 -27 -4q-43 0 -73 30l-294 294q-185 -136 -356.5 -246.5t-213.5 -122.5q-156 -46 -279 77t-77 279q11 40 122 211t247 359l-294 294q-44 41 -26 100 q7 27 27.5 46.5t47.5 26.5q412 96 947 96q84 0 160 -2.5t112.5 -5t40.5 -3.5q38 -1 64.5 -28t29.5 -66z" />
<glyph unicode="&#x2b09;" d="M284 1670q3 39 28 66t63 28q4 1 40.5 3.5t113.5 5t162 2.5q535 0 945 -96q60 -14 77 -70q8 -27 1 -55t-27 -48l-294 -294q133 -184 244.5 -356.5t124.5 -213.5q46 -156 -77 -279q-124 -124 -281 -77q-41 12 -212.5 122.5t-357.5 246.5l-292 -294q-33 -30 -75 -30 q-19 0 -28 4q-56 17 -70 77q-38 163 -61 354t-29.5 329.5t-4.5 289.5t4.5 197t5.5 88z" />
<glyph unicode="&#x2b0a;" d="M1670 284q-42 -3 -88 -5.5t-197 -4.5t-289.5 4.5t-329.5 29.5t-354 61q-60 14 -77 70q-4 11 -4 30q0 43 30 73l294 294q-136 185 -246.5 356.5t-122.5 213.5q-46 156 77 279t279 77q40 -11 211 -122t359 -247l294 294q20 20 48 27t55 -1q55 -17 70 -75q96 -412 96 -947 q0 -84 -2.5 -160.5t-5 -113t-3.5 -39.5q-1 -38 -28 -64.5t-66 -29.5z" />
<glyph unicode="&#x2b0b;" d="M378 284q-39 3 -66 29.5t-28 64.5q-1 3 -3.5 39.5t-5 113t-2.5 160.5q0 535 96 947q15 58 70 75q27 8 55 1t48 -27l294 -294q191 138 360 248t210 121q156 46 279 -77t77 -279q-11 -42 -121.5 -213.5t-247.5 -358.5l294 -292q30 -30 30 -75q0 -10 -4 -28q-17 -56 -77 -70 q-163 -38 -354 -61t-329.5 -29.5t-289.5 -4.5t-197 4.5t-88 5.5z" />
<glyph unicode="&#x2b0c;" />
<glyph unicode="&#xe001;" d="M1745 1105q48 -51 21 -117q-11 -29 -37.5 -48.5t-58.5 -20.5l-413 -23q86 -242 155.5 -461t74.5 -260q7 -60 -15 -95.5t-75 -60.5q-50 -24 -87 -18t-92 46q-37 29 -164.5 212.5t-268.5 410.5l-269 -301q-33 -36 -83 -36q-21 0 -32 4q-32 8 -53 32.5t-26 57.5q0 2 -3 26.5 t-7.5 60.5t-9.5 87.5t-10 115.5t-9.5 133.5t-7 153t-2.5 165.5q0 457 79 794q9 49 60 74q49 23 98 0q469 -232 991 -700q119 -107 244 -232z" />
<glyph unicode="&#xe002;" d="M1195 2048q174 0 331.5 -67.5t272 -182t182 -272t67.5 -331.5t-67.5 -332t-182 -272.5t-272.5 -182t-331 -67.5q-186 0 -354 77l-515 -377q-67 -51 -150.5 -39t-134.5 81q-41 57 -40.5 124t40.5 122l377 512q-77 168 -77 354q0 173 67.5 331t182 272.5t272.5 182 t332 67.5zM1195 597q163 0 300.5 80t217 217.5t79.5 300.5q0 122 -47 232.5t-127 190.5t-190.5 127t-232.5 47q-163 0 -300.5 -79.5t-217.5 -217t-80 -300.5t80 -300.5t217.5 -217.5t300.5 -80zM1229 819h-68q-29 0 -49 20t-20 48v205h-205q-28 0 -48 20t-20 49v68 q0 29 19.5 48.5t48.5 19.5h205v205q0 28 20 48t49 20h68q29 0 48.5 -20t19.5 -48v-205h205q28 0 48 -19.5t20 -48.5v-68q0 -29 -20 -49t-48 -20h-205v-205q0 -29 -19.5 -48.5t-48.5 -19.5z" />
<glyph unicode="&#xe003;" />
<glyph unicode="&#xe004;" d="M1830 1161h150q28 0 48 -20t20 -49v-136q0 -29 -20 -49t-48 -20h-150q-44 -257 -228 -441t-441 -228v-150q0 -28 -20 -48t-49 -20h-136q-29 0 -49 20t-20 48v150q-257 44 -441 228t-228 441h-150q-28 0 -48 20t-20 49v136q0 29 20 49t48 20h150q44 257 228 441t441 228 v150q0 28 20 48t49 20h136q29 0 49 -20t20 -48v-150q257 -44 441 -228t228 -441zM1024 463q114 0 218 44.5t179 119.5t119.5 179t44.5 218t-44.5 218t-119.5 179t-179 119.5t-218 44.5t-218 -44.5t-179 -119.5t-119.5 -179t-44.5 -218t44.5 -218t119.5 -179t179 -119.5 t218 -44.5zM1024 1161q56 0 96.5 -40.5t40.5 -96.5t-40.5 -96.5t-96.5 -40.5t-96.5 40.5t-40.5 96.5t40.5 96.5t96.5 40.5z" />
<glyph unicode="&#xe010;" />
<glyph unicode="&#xe070;" d="M2039 1024q18 -34 0 -64q-18 -36 -140.5 -168t-243.5 -231q-32 -27 -68 -6q-3 2 -6 4.5t-5 6t-3.5 5.5t-2 6.5t-1.5 6.5t-1 7.5v7v8v7.5q0 9 2 13l30 192h-371v-384l170 36q54 11 75 -25q22 -33 -6 -64q-101 -119 -236.5 -237t-175.5 -136q-32 -19 -64 0 q-40 18 -175.5 136t-236.5 237q-29 29 -6 64q15 25 60 25h15l170 -36v384h-369l28 -192q12 -55 -17 -72q-36 -21 -68 6q-121 99 -243.5 230.5t-140.5 168.5q-18 30 0 64q19 37 141.5 169t242.5 230q34 25 68 6q3 -2 6 -4.5t5 -6t3.5 -5.5t2 -6.5t1.5 -6.5t1 -7.5v-7v-8v-7.5 q0 -2 -1 -7t-1 -8l-30 -194h371v384l-170 -37q-54 -11 -75 26q-25 33 6 64q100 118 236 236t176 137q32 19 64 0q40 -18 175.5 -136t236.5 -237q29 -32 6 -64q-16 -26 -60 -26h-15l-170 37v-384h369l-28 194q-12 58 17 74q34 19 68 -6q121 -99 243.5 -231t140.5 -168z" />
<glyph unicode="&#xe071;" />
<glyph unicode="&#xe0d0;" />
<glyph unicode="&#xe100;" />
<glyph unicode="&#xe102;" />
<glyph unicode="&#xe103;" />
<glyph unicode="&#xe1a0;" />
<glyph unicode="&#xe1a1;" />
<glyph unicode="&#xe1c1;" />
<glyph unicode="&#xe200;" />
<glyph unicode="&#xe201;" />
<glyph unicode="&#xe202;" />
<glyph unicode="&#xe206;" d="M1570 751h388q28 0 54.5 -20.5t29.5 -47.5q14 -69 0 -137q-3 -27 -29.5 -47.5t-54.5 -20.5h-388v-388q0 -29 -20 -55.5t-48 -30.5q-68 -9 -137 0q-28 4 -48 30.5t-20 55.5v388h-546v-388q0 -29 -20 -55.5t-48 -30.5q-69 -9 -137 0q-28 4 -48 30.5t-20 55.5v388h-388 q-28 0 -55 20t-31 48q-9 68 0 137q4 28 31 48t55 20h388v546h-388q-28 0 -55 20t-31 48q-9 69 0 137q4 28 31 48t55 20h388v388q0 28 20.5 54.5t47.5 29.5q69 14 137 0q27 -3 47.5 -29.5t20.5 -54.5v-388h546v388q0 28 20.5 54.5t47.5 29.5q69 14 137 0q27 -3 47.5 -29.5 t20.5 -54.5v-388h388q28 0 54.5 -20.5t29.5 -47.5q14 -68 0 -137q-3 -27 -29.5 -47.5t-54.5 -20.5h-388v-546zM1297 751v546h-546v-546h546z" />
<glyph unicode="&#xe220;" />
<glyph unicode="&#xe221;" />
<glyph unicode="&#xe225;" />
<glyph unicode="&#xe226;" />
<glyph unicode="&#xe2b3;" />
<glyph unicode="&#xe2b5;" />
<glyph unicode="&#xe300;" />
<glyph unicode="&#xe302;" d="M2044 1005q0 -84 -15 -149t-40.5 -108t-65.5 -74.5t-84 -49t-102 -29.5q-51 -144 -154 -273q-115 -148 -268 -235t-295 -87q-132 0 -272 79t-255 220q-106 127 -171 294q-61 12 -106.5 28.5t-87 47.5t-67.5 74.5t-41.5 109.5t-15.5 152q0 167 53 255t158 127 q31 97 73.5 183.5t112 176.5t154 154.5t205 105.5t260.5 41q139 0 259 -41t204.5 -105t154 -153.5t112 -176t74.5 -183.5q70 -26 116.5 -68.5t75 -122t28.5 -193.5zM1020 192q84 0 196 67t207 189q42 52 83 132q-189 -87 -380 -119q-44 -51 -106 -51q-58 0 -97.5 40 t-39.5 96q0 58 39.5 97.5t97.5 39.5q75 0 117 -66q218 46 427 168q22 133 -7 267q-204 -17 -482 177q-59 42 -136 113q-48 -75 -92 -122q-85 -88 -184.5 -135t-188.5 -44q-24 -159 21.5 -319t155.5 -293q86 -106 186.5 -171.5t182.5 -65.5z" />
<glyph unicode="&#xe310;" d="M1399 1385q239 -244 375 -569.5t137 -678.5h-334q0 299 -109.5 556.5t-309.5 460.5q-91 92 -192 165t-197.5 118.5t-186.5 77t-176.5 46t-148.5 20.5t-120 6v324q66 0 131 -4.5t156 -18t178 -36.5t191 -63.5t201.5 -94t203.5 -133t201 -176.5zM958 951q339 -346 339 -814 h-328q0 155 -63 313.5t-172 270.5q-252 257 -597 252v324q483 0 821 -346zM137 393v290q155 -1 278 -65.5t195.5 -189.5t72.5 -291h-290q-107 0 -181.5 74.5t-74.5 181.5z" />
<glyph unicode="&#xe320;" />
<glyph unicode="&#xe350;" d="M1926 2018q57 -41 54 -113q-18 -295 -35 -466q-61 -622 -181 -1183q-19 -69 -74 -94q-26 -15 -60 -15q-30 0 -62 15l-446 226l-198 -315q-17 -33 -49.5 -53t-68.5 -20q-10 0 -36 4q-43 11 -65 48t-22 87v424l682 783l-919 -597l-371 164q-31 16 -50.5 44.5t-24.5 62.5 q-6 72 49 121q157 128 337 246t338 204t324.5 163.5t287.5 125.5t236 88t160.5 53.5t70.5 20.5q69 21 123 -24z" />
<glyph unicode="&#xe352;" d="M1980 1139v-1037q0 -43 -30.5 -72.5t-72.5 -29.5h-1775q-44 0 -73 29t-29 73v1037q0 44 34 75l888 834q28 27 68 27t68 -27l888 -834q34 -31 34 -75zM1675 819l140 139q-160 164 -373 256t-452 92t-452.5 -92t-373.5 -256l141 -139q134 136 310.5 212t374.5 76 q196 0 373.5 -76t311.5 -212zM1385 527l142 141q-105 106 -243 165t-294 59t-294.5 -59t-243.5 -165l143 -141q76 78 179 122t216 44t216 -44t179 -122zM990 119q79 0 133.5 54.5t54.5 133.5t-54.5 133.5t-133.5 54.5t-133.5 -54.5t-54.5 -133.5t54.5 -133.5t133.5 -54.5z " />
<glyph unicode="&#xe400;" d="M612 698h-2q-128 -81 -132 -84q-67 1 -127 2.5t-102 4t-76.5 5t-56.5 4.5t-37 4t-23 3l-7 1q-23 3 -38 25q-16 19 -9 45q4 15 10.5 46.5t9 41.5t9.5 32.5t14.5 32.5t20.5 27t30.5 31.5t42.5 31.5q45 33 147 92t124 83q15 17 23.5 30.5t14 33t-1.5 42t-28 46.5 q-202 235 -100 459q42 90 124 132t172 42t172.5 -42t124.5 -132q34 -79 34 -154q-113 -16 -209.5 -79.5t-150.5 -178.5q-25 -55 -37 -115t-10 -135.5t37 -163.5t101 -175q-11 -7 -33.5 -20t-30.5 -18zM2046 708q6 -23 -9 -45t-38 -25l-15 -2q-14 -2 -45 -5t-76.5 -6.5 t-123 -6.5t-169.5 -4q-4 3 -132 84q-45 23 -66 38q66 87 101 174.5t37 163t-10.5 135.5t-38.5 116q-53 115 -149 178.5t-209 79.5q0 75 34 154q42 90 124.5 132t172.5 42t172 -42t124 -132q102 -224 -100 -459q-21 -24 -28 -46.5t-1.5 -42t14 -33t23.5 -30.5 q22 -24 124.5 -83.5t146.5 -91.5q24 -17 41.5 -31.5t30.5 -32t20 -26.5t15 -33t10 -31.5t9.5 -42t10.5 -46.5zM1024 137q-90 0 -169.5 1.5t-135 3.5t-101 4t-74 4.5t-47.5 4.5t-29 3l-9 2q-23 3 -39 26q-15 18 -8 44q4 17 10 47t9 41.5t10 32.5t14.5 32t20 28t30 31.5 t42.5 31.5q45 33 147 92t124 83q21 23 31 40.5t7.5 48t-29.5 62.5q-202 235 -101 459q42 90 124.5 132.5t172.5 42.5t172.5 -42.5t124.5 -132.5q101 -224 -101 -459q-27 -32 -29.5 -62.5t7.5 -48t31 -40.5q22 -24 124.5 -83.5t146.5 -91.5q24 -17 41.5 -31.5t30.5 -32 t20 -27.5t14.5 -32.5t10 -32t9.5 -41.5t10 -47q6 -23 -8 -44q-16 -23 -39 -26l-9 -2q-10 -1 -29.5 -3t-48 -4.5t-74 -4.5t-101 -4t-134.5 -3.5t-169 -1.5z" />
<glyph unicode="&#xe401;" />
<glyph unicode="&#xe402;" />
<glyph unicode="&#xe404;" />
<glyph unicode="&#xe406;" />
<glyph unicode="&#xe407;" d="M2050 531q4 -21 -5 -38t-29 -24l-6 -1q-7 -2 -19.5 -4.5t-29.5 -5.5t-44 -6.5t-57 -7.5q-142 -16 -226 -19q-29 79 -80.5 135t-130.5 106q-32 19 -113 51q-45 19 -61.5 26.5t-49.5 25t-49.5 35.5t-23.5 39q-20 58 45 160q207 321 73 550q-45 77 -114.5 124t-152.5 57 q92 192 243 192q56 0 122 -32q66 32 126 32q39 0 74.5 -14t63 -34.5t53 -57.5t43 -69t35.5 -84t28.5 -87.5t23.5 -94t19 -89t16 -86.5q3 -11 23 -120q8 -21 -6 -42q-22 -31 -303 -58q-19 -58 -8 -83q8 -28 41 -53.5t60.5 -37.5t81.5 -33q85 -38 111 -53q94 -58 149.5 -126 t76.5 -173zM1440 275q7 -48 -36 -62q-13 -4 -55 -12.5t-182 -21.5t-320 -17l-51 228q37 25 65.5 65t28.5 72q0 47 -50.5 77t-116.5 30t-116 -30t-50 -77q0 -32 28 -72t66 -67l-52 -226q-180 4 -320 17t-182.5 21.5t-55.5 12.5q-20 7 -29.5 24t-5.5 38q22 104 78.5 173 t150.5 130q35 21 115 51q107 44 140 70q35 26 43 56q20 59 -47 160q-203 322 -72 551q51 86 132.5 134.5t176.5 48.5t176.5 -48.5t130.5 -134.5q134 -230 -72 -551q-65 -102 -45 -160q7 -21 23.5 -39t49.5 -35.5t49.5 -25t61.5 -26.5q81 -32 113 -51q94 -60 150 -129 t80 -174z" />
<glyph unicode="&#xe412;" />
<glyph unicode="&#xe420;" />
<glyph unicode="&#xe421;" />
<glyph unicode="&#xe422;" />
<glyph unicode="&#xe500;" />
<glyph unicode="&#xe501;" />
<glyph unicode="&#xe502;" />
<glyph unicode="&#xe504;" />
<glyph unicode="&#xe505;" />
<glyph unicode="&#xe507;" />
<glyph unicode="&#xe510;" />
<glyph unicode="&#xe530;" />
<glyph unicode="&#xe531;" />
<glyph unicode="&#xe540;" />
<glyph unicode="&#xe541;" />
<glyph unicode="&#xe542;" />
<glyph unicode="&#xe543;" />
<glyph unicode="&#xe544;" />
<glyph unicode="&#xe545;" />
<glyph unicode="&#xe546;" />
<glyph unicode="&#xe551;" />
<glyph unicode="&#xe570;" />
<glyph unicode="&#xe571;" />
<glyph unicode="&#xe572;" />
<glyph unicode="&#xe573;" />
<glyph unicode="&#xe574;" />
<glyph unicode="&#xe575;" />
<glyph unicode="&#xe576;" />
<glyph unicode="&#xe578;" />
<glyph unicode="&#xe579;" />
<glyph unicode="&#xe582;" />
<glyph unicode="&#xe5d8;" />
<glyph unicode="&#xe5e0;" />
<glyph unicode="&#xe5e1;" />
<glyph unicode="&#xe5e2;" />
<glyph unicode="&#xe5e3;" />
<glyph unicode="&#xe5e4;" />
<glyph unicode="&#xe5e5;" />
<glyph unicode="&#xe5e6;" />
<glyph unicode="&#xe5e7;" />
<glyph unicode="&#xe5e8;" />
<glyph unicode="&#xe600;" />
<glyph unicode="&#xe602;" />
<glyph unicode="&#xe610;" />
<glyph unicode="&#xe611;" />
<glyph unicode="&#xe612;" />
<glyph unicode="&#xe613;" />
<glyph unicode="&#xe670;" />
<glyph unicode="&#xe671;" />
<glyph unicode="&#xe672;" d="M1717 2020l276 -205q55 -40 55 -108q0 -67 -55 -109l-276 -205q-34 -28 -74 -28h-414v-204h-410v204h-546q-55 0 -95.5 46t-40.5 104v396q0 56 40 96.5t96 40.5h1370q36 0 74 -28zM819 341h-414q-40 0 -74 28l-278 205q-53 41 -53 109t55 108l276 205q38 28 74 28h1370 q55 0 95.5 -46t40.5 -103v-397q0 -56 -40 -96.5t-96 -40.5h-546v-341h-410v341z" />
<glyph unicode="&#xe673;" d="M1327 1971l659 -281q27 -11 44.5 -37.5t17.5 -56.5v-1423q0 -56 -47 -86q-46 -28 -96 -8l-612 262l-484 -260q-22 -13 -47 -13q-20 0 -43 9l-657 284q-62 28 -62 93v1423q0 56 47 86q43 29 96 8l612 -264l484 260q20 11 35 11l2 2q30 4 51 -9zM1150 681q43 35 59 66 t16 70t-22.5 84.5t-46.5 62.5q-24 14 -56.5 21.5t-107.5 15.5q-66 40 -100 40q-8 0 -51.5 -9.5t-68.5 -1.5q-16 8 -37.5 1t-51.5 -7q-37 0 -47 14t-15 54q-3 21 -16.5 35.5t-36 26t-26.5 15.5q-32 27 -64 -8q-4 -5 -8 -12q-5 -8 -13 -6.5t-47 18.5q-53 23 -28 61 q22 33 85 54q36 11 75.5 15.5t82 -7.5t58.5 -47q9 -23 35 -10q33 17 40 70q5 37 -7 79q-9 32 -47 76.5t-55 77.5l-444 192v-672q125 -37 222 -37q18 0 36 -2.5t33 -5.5t32 -9.5t29 -11t28 -13.5t24.5 -14t22.5 -15t19 -13.5t17.5 -13t14.5 -10.5q-2 -5 -4 -14t-6.5 -34.5 t-6 -49.5t2 -54t14 -52.5t32.5 -41t55 -23.5q28 -5 47.5 -23t24.5 -34l5 -16q13 -100 26 -132q1 -2 4.5 -11t5 -12t6 -10.5t7.5 -10t8.5 -6.5t11.5 -2.5t13 4t16 10.5t19 19q48 53 67 81t42 72l11.5 23t11 21t9.5 17t10 17t10 13.5t12 13.5t13 11zM1843 1527l-337 146 q-147 -64 -196 -103q-61 -52 -81.5 -100t-0.5 -107.5t86 -137.5q7 -9 16.5 -17t23 -14t23 -10.5t26.5 -9t24 -6t26.5 -5.5t22.5 -5q23 -4 38.5 -7.5t32 -8.5t26.5 -10.5t20.5 -13.5t16 -18t10.5 -23t6.5 -30t1.5 -38t-2 -47q-3 -32 11 -111.5t27 -108.5q5 -13 30 -34.5 t53 -22.5q13 -2 41 16.5t55 49.5v776z" />
<glyph unicode="&#xe674;" />
<glyph unicode="&#xe680;" d="M1024 2048q208 0 397.5 -81t327 -218.5t218.5 -327t81 -397.5t-81 -397.5t-218.5 -327t-327 -218.5t-397.5 -81t-397.5 81t-327 218.5t-218.5 327t-81 397.5t81 397.5t218.5 327t327 218.5t397.5 81zM1024 260q155 0 296.5 60.5t244 163t163 244t60.5 296.5t-60.5 296.5 t-163 244t-244 163t-296.5 60.5t-296.5 -60.5t-244 -163t-163 -244t-60.5 -296.5t60.5 -296.5t163 -244t244 -163t296.5 -60.5zM956 478q-13 0 -19 2q-22 7 -36 25t-14 41v341h-341q-23 0 -41 14t-25 36q-7 20 1.5 41.5t26.5 34.5q24 16 54 34.5t125 73.5t186.5 102.5 t222.5 106t250 99.5q36 14 68 -15q29 -32 15 -68q-41 -119 -99.5 -250t-106 -222.5t-102.5 -186.5t-73.5 -125t-34.5 -54q-21 -30 -57 -30z" />
<glyph unicode="&#xe681;" d="M1024 2048q208 0 397.5 -81t327 -218.5t218.5 -327t81 -397.5t-81 -397.5t-218.5 -327t-327 -218.5t-397.5 -81t-397.5 81t-327 218.5t-218.5 327t-81 397.5t81 397.5t218.5 327t327 218.5t397.5 81zM1024 258q155 0 296.5 61t244 163.5t163 244.5t60.5 297t-60.5 296 t-163 243.5t-244 163.5t-296.5 61t-296.5 -61t-244 -163.5t-163 -243.5t-60.5 -296t60.5 -297t163 -244.5t244 -163.5t296.5 -61zM1408 1421q6 -2 15 -15q3 -7 4 -10t0 -31.5t-7.5 -74t-22.5 -142t-42 -231.5q-3 -23 -30 -27q-3 -3 -7 -3q-20 0 -29 20l-88 136l-179 -183 q64 -150 -34 -252q-53 -56 -133 -62h-4q-18 0 -25 15q-11 20 -3 34q23 40 11.5 93t-51.5 91q-39 39 -92 51.5t-92 -9.5q-18 -7 -34 2q-15 8 -15 30q5 65 58 128q35 38 87.5 51.5t96 8t76.5 -20.5l177 175l-136 87q-23 16 -17 39q3 23 27 29q66 13 248.5 44t217.5 31 q17 0 23 -4z" />
<glyph unicode="&#xe6d0;" d="M1024 2048q152 0 291.5 -62.5t240 -168t160 -250.5t59.5 -304q0 -120 -35.5 -251.5t-91.5 -245t-124.5 -223t-137 -195t-124.5 -151t-92 -100.5l-35 -35q-70 -62 -116.5 -61.5t-111.5 61.5l-36 36t-89 98.5t-125.5 153.5t-133 192.5t-126 225t-88.5 243t-36 252.5 q0 159 59.5 304t160 250.5t240 168t291.5 62.5zM1024 943q147 0 251.5 103.5t104.5 250.5t-104.5 251.5t-251.5 104.5t-250.5 -104.5t-103.5 -251.5t103.5 -250.5t250.5 -103.5z" />
<glyph unicode="&#xe6d1;" />
<glyph unicode="&#xe6d2;" />
<glyph unicode="&#xe710;" />
<glyph unicode="&#xe720;" />
<glyph unicode="&#xe7a0;" />
<glyph unicode="&#xe7b0;" />
<glyph unicode="&#xe800;" />
<glyph unicode="&#xe801;" />
<glyph unicode="&#xe810;" />
<glyph unicode="&#xe8a0;" />
<glyph unicode="&#xe8a1;" />
<glyph unicode="&#xe902;" d="M683 1911h682v-204h-682v204zM1024 137q-171 1 -312.5 10t-234.5 21.5t-167 32t-113 35t-69.5 37.5t-39.5 32.5t-20 27.5q-44 68 -59.5 192t-4.5 244t39 206l215 702q13 44 49 71t81 27h124l-166 -875q-6 -30 15 -57q21 -24 53 -24h337q0 -100 78 -160t195 -60t195 60 t78 160h339q27 0 48 20t21 48q0 12 -7 28l-162 860h122q45 0 81.5 -27t50.5 -71l215 -702q27 -87 38 -206.5t-4 -243.5t-59 -192q-11 -17 -20 -27.5t-39.5 -32.5t-69.5 -37.5t-113 -35t-167 -32t-234.5 -21.5t-312.5 -10zM614 1570h820v-205h-820v205zM546 1229h956v-273 h-956v273z" />
<glyph unicode="&#xe903;" d="M1769 1975q33 -10 53.5 -37t20.5 -61v-1194q0 -68 -80 -185.5t-188 -225.5t-226 -188t-186 -80l-41 -2q-28 -2 -98 -2q-77 0 -153.5 2.5t-141.5 6.5t-125 9t-110.5 10.5t-92.5 11.5t-75.5 11t-55.5 9t-37 7l-15 3q-35 8 -58 37t-23 64v1706q0 37 23 65t58 36l15 3 q15 3 37 7t55.5 9t75.5 11t92.5 11.5t110.5 10.5t125 9t141.5 6.5t153.5 2.5q136 0 262 -7.5t207.5 -17t148 -21t93.5 -18t34 -9.5zM1502 1502v136h-1024v-136h1024zM1502 1229v136h-1024v-136h1024zM1502 956v136h-1024v-136h1024zM1092 546v-341q52 0 94.5 40.5t42.5 95.5 v205q0 22 22.5 45t45.5 23h205q56 0 96 40.5t40 96.5h-341q-79 0 -142 -63t-63 -142z" />
<glyph unicode="&#xe962;" />
<glyph unicode="&#xe963;" />
<glyph unicode="&#xe966;" />
<glyph unicode="&#xe967;" d="M1999 1884q22 -7 35.5 -25t13.5 -41v-1408q0 -32 -23 -52t-54 -17q-46 2 -119 2q-66 0 -109 -1.5t-125 -11.5t-143.5 -28t-136 -56t-131.5 -92q-20 -17 -46 -17q-27 0 -47 17q-70 65 -182 121q206 68 336.5 246t130.5 401q0 139 -54 265.5t-145 217.5t-217.5 145 t-265.5 54q-253 0 -444 -164v378q0 22 14 40.5t35 25.5l6 2q7 1 18.5 3.5t27 5.5t36.5 5.5t44 5t51.5 4t57.5 1.5q345 0 598 -226q253 226 597 226q29 0 57.5 -1.5t51.5 -4t44 -5t36.5 -5.5t27 -5.5t17.5 -3.5zM478 469q-82 -72 -139 -115q-105 -84 -175 -130 q-24 -14 -61.5 -7.5t-59.5 30.5q-24 23 -31.5 61.5t9.5 64.5q51 78 126 173q49 61 118 137q-60 111 -60 239q0 140 68.5 257.5t186 186t257.5 68.5q104 0 198.5 -40.5t163.5 -109t109.5 -163t40.5 -199.5t-40.5 -199.5t-109.5 -163t-163.5 -109t-198.5 -40.5q-130 0 -239 59 zM717 1239q-131 0 -224.5 -93t-93.5 -224t93.5 -223.5t224.5 -92.5t224.5 92.5t93.5 223.5t-93.5 224t-224.5 93z" />
<glyph unicode="&#xe968;" />
<glyph unicode="&#xe969;" />
<glyph unicode="&#xe972;" />
<glyph unicode="&#xe973;" />
<glyph unicode="&#xe9a1;" d="M1869 1502h-1760q-38 0 -67.5 23.5t-32.5 57.5q-17 158 0 316q3 34 32.5 57.5t67.5 23.5h1760q40 0 69.5 -23.5t32.5 -57.5q17 -158 0 -316q-3 -34 -32.5 -57.5t-69.5 -23.5zM1869 751h-1760q-38 0 -67.5 23.5t-32.5 57.5q-17 158 0 316q3 34 32.5 57.5t67.5 23.5h1760 q40 0 69.5 -23.5t32.5 -57.5q17 -158 0 -316q-3 -34 -32.5 -57.5t-69.5 -23.5zM1869 0h-1760q-38 0 -67.5 23.5t-32.5 57.5q-17 158 0 316q3 34 32.5 57.5t67.5 23.5h1760q40 0 69.5 -23.5t32.5 -57.5q17 -158 0 -316q-3 -34 -32.5 -57.5t-69.5 -23.5z" />
<glyph unicode="&#xe9a2;" d="M397 1971q34 -3 57.5 -32.5t23.5 -69.5v-1760q0 -38 -23.5 -67.5t-57.5 -32.5q-158 -17 -316 0q-34 3 -57.5 32.5t-23.5 67.5v1760q0 40 23.5 69.5t57.5 32.5q158 17 316 0zM1148 1971q34 -3 57.5 -32.5t23.5 -69.5v-1760q0 -38 -23.5 -67.5t-57.5 -32.5q-158 -17 -316 0 q-34 3 -57.5 32.5t-23.5 67.5v1760q0 40 23.5 69.5t57.5 32.5q158 17 316 0zM1899 1971q34 -3 57.5 -32.5t23.5 -69.5v-1760q0 -38 -23.5 -67.5t-57.5 -32.5q-158 -17 -316 0q-34 3 -57.5 32.5t-23.5 67.5v1760q0 40 23.5 69.5t57.5 32.5q158 17 316 0z" />
<glyph unicode="&#xe9a3;" d="M68 1297v546q0 56 40.5 96.5t96.5 40.5h546q56 0 96 -40.5t40 -96.5v-546q0 -56 -40 -96t-96 -40h-546q-56 0 -96.5 40t-40.5 96zM1297 1980h546q56 0 96.5 -40.5t40.5 -96.5v-546q0 -56 -40.5 -96t-96.5 -40h-546q-56 0 -96 40t-40 96v546q0 56 40 96.5t96 40.5zM751 68 h-546q-56 0 -96.5 40.5t-40.5 96.5v546q0 56 40.5 96t96.5 40h546q56 0 96 -40t40 -96v-546q0 -56 -40 -96.5t-96 -40.5zM1843 68h-546q-56 0 -96 40.5t-40 96.5v546q0 56 40 96t96 40h546q56 0 96.5 -40t40.5 -96v-546q0 -56 -40.5 -96.5t-96.5 -40.5z" />
<glyph unicode="&#xe9b0;" />
<glyph unicode="&#xea00;" />
<glyph unicode="&#xea01;" />
<glyph unicode="&#xea02;" />
<glyph unicode="&#xea03;" />
<glyph unicode="&#xea04;" />
<glyph unicode="&#xea05;" />
<glyph unicode="&#xea10;" />
<glyph unicode="&#xea11;" />
<glyph unicode="&#xea12;" />
<glyph unicode="&#xea13;" />
<glyph unicode="&#xea14;" />
<glyph unicode="&#xea23;" />
<glyph unicode="&#xea24;" />
<glyph unicode="&#xea25;" />
<glyph unicode="&#xea26;" />
<glyph unicode="&#xea27;" />
<glyph unicode="&#xea28;" />
<glyph unicode="&#xea29;" />
<glyph unicode="&#xea2a;" />
<glyph unicode="&#xea2b;" />
<glyph unicode="&#xea2c;" />
<glyph unicode="&#xea30;" />
<glyph unicode="&#xea31;" />
<glyph unicode="&#xea32;" />
<glyph unicode="&#xea33;" />
<glyph unicode="&#xea34;" />
<glyph unicode="&#xea35;" />
<glyph unicode="&#xea83;" />
<glyph unicode="&#xea85;" />
<glyph unicode="&#xea86;" />
<glyph unicode="&#xea88;" />
<glyph unicode="&#xeab1;" />
<glyph unicode="&#xeab2;" />
<glyph unicode="&#xeab3;" />
<glyph unicode="&#xeb00;" d="M1813 1071q107 -89 171 -211.5t64 -245.5q0 -134 -72.5 -264t-200 -219.5t-275.5 -107.5q-214 -23 -478 -23q-262 0 -476 23q-148 18 -275 107.5t-199 219t-72 264.5q0 120 60 241t162 210q-4 38 -4 57q0 166 117 283.5t284 117.5q19 0 57 -4q84 138 234.5 228t314.5 90 q126 0 238.5 -52.5t191.5 -140t125 -205t46 -244.5q0 -65 -13 -124zM1067 282q9 6 37.5 29t84.5 73t114 106.5t125.5 135.5t118.5 155q23 37 2 70q-19 36 -60 36h-239q-16 106 -45.5 221t-43.5 136q-38 59 -137 59q-96 0 -134 -59q-15 -20 -44 -134.5t-46 -222.5h-239 q-41 0 -60 -36q-21 -33 2 -70q51 -76 118.5 -155t125.5 -135.5t114 -106.5t84.5 -73t37.5 -29q18 -15 43 -15q26 0 41 15z" />
<glyph unicode="&#xeb01;" d="M975 768q-8 6 -43 36.5t-99 92.5t-132 132.5t-146 165t-137 183.5q-25 39 -4 81q25 43 70 43h278q21 129 52 250.5t52 156.5q41 71 158 71t158 -71q18 -32 50 -156.5t54 -250.5h278q45 0 70 -43q21 -42 -4 -81q-60 -89 -138 -183.5t-146 -165.5t-131.5 -132t-98.5 -92 t-43 -37q-23 -17 -49 -17t-49 17zM1715 956h333q0 -510 -76 -824q-1 -5 -1 -6q-16 -56 -62 -91t-104 -35h-1564q-57 0 -102.5 34.5t-61.5 89.5q0 1 -1 6q-71 291 -76 766v60h333q0 -340 40 -615h1302q40 280 40 615z" />
<glyph unicode="&#xeb02;" />
<glyph unicode="&#xeb03;" />
<glyph unicode="&#xeb40;" d="M1815 1071q107 -89 170 -211.5t63 -245.5q0 -134 -72.5 -264t-199.5 -219.5t-274 -107.5q-216 -23 -478 -23t-478 23q-147 18 -274 107.5t-199.5 219.5t-72.5 264q0 128 69 255.5t183 216.5q-5 24 -5 55q0 166 117.5 283.5t284.5 117.5q27 0 42 -2q88 132 225 217.5 t289 85.5q126 0 244 -53.5t204 -141.5t138 -207.5t52 -245.5q0 -75 -28 -124zM1024 273q94 0 137 60q13 20 41.5 130.5t47.5 219.5h239q39 0 60 34q18 39 -4 70q-51 76 -120 157.5t-121 134.5t-118 112.5t-80.5 71.5t-38.5 32q-43 31 -86 0q-8 -5 -37.5 -29.5t-84.5 -75.5 t-113 -109.5t-125 -138t-118 -155.5q-22 -31 -4 -70q21 -34 60 -34h239q19 -109 47.5 -219.5t41.5 -130.5q43 -60 137 -60z" />
<glyph unicode="&#xeb41;" d="M975 1963q23 17 49 17t49 -17q8 -6 43 -37t98.5 -92t131.5 -132t146 -165t138 -182q25 -43 4 -84q-24 -42 -70 -42h-278q-22 -127 -54 -251.5t-50 -156.5q-42 -70 -158 -70t-158 70q-21 35 -52 156.5t-52 251.5h-278q-46 0 -70 42q-21 41 4 84q59 88 137 182t146 165 t132 132.5t99 92t43 36.5zM1715 956h333q0 -510 -76 -824q-1 -5 -1 -6q-16 -56 -62 -91t-104 -35h-1564q-57 0 -102.5 34.5t-61.5 89.5q0 1 -1 6q-71 291 -76 766v60h333q0 -340 40 -615h1302q40 280 40 615z" />
<glyph unicode="&#xeb42;" />
<glyph unicode="&#xeb43;" />
<glyph unicode="&#xeb80;" d="M1570 1775v205q0 19 12 37t29 25q43 18 74 -13q118 -108 227.5 -248t129.5 -183q14 -30 0 -56q-20 -42 -129.5 -182.5t-227.5 -250.5q-20 -17 -47 -17q-11 0 -27 7q-17 7 -29 25t-12 37v204h-307q-49 0 -69 -0.5t-49 -4t-40.5 -9t-32 -19.5t-35.5 -31t-41 -47 q-116 -138 -187 -230q29 -38 66.5 -84.5t73.5 -91t47 -57.5q25 -29 40 -46t36 -30.5t32 -18.5t41 -9t49 -4h69h307v204q0 19 11.5 36.5t29.5 25.5q44 18 74 -12q116 -106 225.5 -246.5t131.5 -184.5q14 -30 0 -56q-20 -42 -129.5 -182.5t-227.5 -250.5q-20 -17 -47 -17 q-9 0 -27 4q-17 8 -29 26.5t-12 37.5v205h-307q-78 0 -128 3.5t-113 17.5t-113 41t-108 74.5t-118 117.5q-184 226 -246 305l-305 38q-62 8 -100.5 58.5t-31.5 114.5q7 52 44 90t88 45l305 38q62 79 246 305q60 70 118 117.5t108 74.5t113 41t113 17.5t128 3.5h307z" />
<glyph unicode="&#xeb81;" d="M1069 459q-60 -70 -117.5 -117.5t-107 -74.5t-111.5 -41t-112 -17.5t-128 -3.5h-337q-64 0 -110 48.5t-46 113.5q0 54 33.5 96t83.5 53l2 2q273 36 416 62q67 12 118.5 44.5t76.5 70.5q10 11 27 30q31 37 201 248q-174 301 -220 373q-14 24 -36 44.5t-36 29.5l-15 9 q-6 4 -26 13q-21 11 -30 13q-26 14 -60 17q-64 12 -168.5 28t-176.5 26l-73 10q-32 6 -59 30l-5 4l-15 13q0 1 -1 2t-1 2q-31 38 -34 83l-2 15q0 65 46 110.5t110 45.5l375 2q37 -1 74.5 0t78.5 -5t80.5 -14.5t82 -29.5t82 -50t80 -75t77.5 -105q73 -115 237 -403h247v206 q0 19 12 36t29 24q43 18 74 -10q116 -108 225.5 -249t131.5 -185q15 -27 0 -55q-20 -42 -129.5 -182.5t-227.5 -250.5q-20 -17 -47 -17q-14 0 -27 6q-17 7 -29 25t-12 37v205h-267q-126 -166 -234 -292z" />
<glyph unicode="&#xeb82;" d="M1941 1875q20 -101 29 -218.5t9.5 -204.5t-3.5 -176.5t-7.5 -121.5t-5.5 -53q-3 -24 -19.5 -40.5t-40.5 -19.5l-17 -2q-17 -2 -47 -4.5t-67.5 -4.5t-89.5 -4t-103 -2q-249 0 -457 41q-35 6 -51 46q-10 39 17 69l169 162q-103 77 -246 111q-82 17 -155.5 21t-156 -6.5 t-170 -45.5t-177.5 -95q-13 -8 -38.5 -25.5t-36 -24t-29.5 -17.5t-28.5 -14.5t-23.5 -8t-25 -3.5t-22 5q-35 12 -38.5 56.5t28.5 121.5q105 246 343 404.5t523 158.5q181 0 345.5 -66t294.5 -184l179 179q34 30 68 17q38 -9 49 -51zM1043 68q-182 0 -346.5 65.5 t-295.5 184.5l-179 -179q-22 -22 -47 -22q-6 0 -21 5q-17 4 -29.5 18.5t-17.5 32.5q-20 100 -29 217t-9.5 204.5t3.5 177t7.5 122t5.5 53.5q1 23 18 40t40 20q1 0 18 2t46.5 4.5t67.5 4.5t89.5 4t102.5 2q249 0 457 -41q39 -6 53 -46q10 -39 -17 -69l-169 -162 q104 -79 246 -111q81 -17 154.5 -21t156.5 6.5t170.5 45.5t177.5 95q11 7 30.5 20l28.5 19t25 16t24 14l20 10t20 8t18 4t18.5 1t16.5 -4q35 -12 39.5 -56.5t-27.5 -121.5q-106 -246 -344 -404.5t-522 -158.5z" />
<glyph unicode="&#xeb83;" d="M751 1741q0 99 70 169t169 70t169 -70t70 -169t-70 -169t-169 -70t-169 70t-70 169zM459 1282q-99 0 -169 70t-70 169t70 169t169 70t169 -70t70 -169t-70 -169t-169 -70zM1521 1282q-99 0 -169 70t-70 169t70 169t169 70t169 -70t70 -169t-70 -169t-169 -70zM239 751 q-99 0 -169 70t-70 169t70 169t169 70t169 -70t70 -169t-70 -169t-169 -70zM1741 751q-99 0 -169 70t-70 169t70 169t169 70t169 -70t70 -169t-70 -169t-169 -70zM459 220q-99 0 -169 70t-70 169t70 169t169 70t169 -70t70 -169t-70 -169t-169 -70zM1521 220q-99 0 -169 70 t-70 169t70 169t169 70t169 -70t70 -169t-70 -169t-169 -70zM990 0q-99 0 -169 70t-70 169t70 169t169 70t169 -70t70 -169t-70 -169t-169 -70z" />
<glyph unicode="&#xeb84;" d="M1024 1843q300 0 566.5 -123t457.5 -340l-235 -219q-145 170 -350.5 266t-438.5 96t-438.5 -96t-350.5 -266l-235 219q191 217 456.5 340t567.5 123zM1024 1297q182 0 341.5 -83t272.5 -228l-230 -235q-66 95 -167.5 150t-216.5 55t-216.5 -55t-167.5 -150l-230 235 q113 145 272.5 228t341.5 83zM1024 751q113 0 193 -80t80 -193t-80 -193t-193 -80t-193 80t-80 193t80 193t193 80z" />
<glyph unicode="&#xeb85;" d="M1673 751q155 0 265 -110.5t110 -265.5t-110 -265t-265 -110t-265.5 110t-110.5 265q0 55 17 111l-324 286l-273 -241q34 -76 34 -156q0 -155 -110.5 -265t-265.5 -110t-265 110t-110 265t110 265.5t265 110.5q37 0 69 -6l375 332v261q-93 49 -149 138.5t-56 196.5 q0 155 110.5 265t265.5 110t265 -110t110 -265q0 -108 -55.5 -198t-148.5 -137v-261l390 -347q53 21 122 21z" />
<glyph unicode="&#xeb87;" d="M523 1436q-79 -3 -100 43t40 110q104 104 253.5 172.5t320.5 68.5q335 0 646 -288l209 209q21 24 54 24q7 0 25 -4q21 -7 36 -24t18 -38q8 -52 12.5 -108.5t6.5 -108.5t1.5 -106.5t-2.5 -101.5t-5 -94t-6.5 -84t-7.5 -71t-6.5 -55t-5.5 -38l-2 -16q-4 -25 -22 -43 t-42 -23q-2 0 -28.5 -3.5t-71.5 -8.5t-100.5 -10t-129 -8.5t-144.5 -3.5q-180 0 -309 21q-46 6 -64 51q-15 47 19 81l207 205q-77 72 -149 120.5t-144 76.5t-149.5 41t-166 15.5t-193.5 -1.5zM1523 544q81 3 101.5 -43.5t-39.5 -110.5q-105 -103 -253.5 -172t-318.5 -69 q-339 0 -648 286l-209 -207q-23 -23 -56 -23q-5 0 -23 4q-21 7 -36 24t-18 38q-8 52 -12.5 108.5t-6.5 108.5t-1.5 106.5t2.5 101.5t5 94t6.5 84t7.5 71t6.5 55t5.5 38l2 16q5 26 22.5 43.5t41.5 20.5q21 4 71.5 10.5t170.5 16t232 9.5q180 0 309 -21q46 -6 64 -51 q15 -47 -19 -81l-207 -205q77 -72 149 -120.5t144 -76.5t149 -41t165 -15.5t193 1.5z" />
<glyph unicode="&#xec01;" />
<glyph unicode="&#xec02;" />
<glyph unicode="&#xec04;" />
<glyph unicode="&#xec06;" />
<glyph unicode="&#xec07;" />
<glyph unicode="&#xec08;" />
<glyph unicode="&#xec09;" />
<glyph unicode="&#xec0a;" />
<glyph unicode="&#xec11;" />
<glyph unicode="&#xec15;" />
<glyph unicode="&#xec17;" />
<glyph unicode="&#xec19;" d="M1828 1978q35 -8 59 -37t24 -64v-1194q0 -68 -80 -185.5t-188.5 -225.5t-226.5 -188t-187 -80q-124 -4 -205 -4q-98 0 -194.5 3.5t-174 10t-146 13.5t-120.5 14.5t-88 13.5t-59 11l-24 4q-34 8 -57.5 36.5t-23.5 64.5v1706q0 35 23.5 64t57.5 37l24 4q23 5 59 11t88 13.5 t120.5 14.5t146 13.5t174 10t194.5 3.5q77 0 153.5 -2.5t141 -6.5t125 -9t110.5 -10.5t92 -11.5t75 -11t55.5 -9t37.5 -7zM1024 196q17 0 51.5 1t50.5 1q41 0 72 33.5t31 75.5v273q0 42 29.5 72.5t72.5 30.5h273q44 0 73.5 29.5t29.5 72.5v1007q-363 58 -683 58 q-326 0 -683 -58v-1536q376 -60 683 -60zM546 1570h956v-136h-956v136zM546 1161v136h956v-136h-956zM546 887v137h956v-137h-956z" />
<glyph unicode="&#xec30;" />
<glyph unicode="&#xec31;" />
<glyph unicode="&#xec32;" />
<glyph unicode="&#xec33;" />
<glyph unicode="&#xec34;" />
<glyph unicode="&#xec35;" />
<glyph unicode="&#xec36;" />
<glyph unicode="&#xec76;" />
<glyph unicode="&#xec77;" />
<glyph unicode="&#xec80;" />
<glyph unicode="&#xec81;" />
<glyph unicode="&#xec83;" />
<glyph unicode="&#xec87;" />
<glyph unicode="&#xec88;" />
<glyph unicode="&#xed00;" />
<glyph unicode="&#xed01;" />
<glyph unicode="&#xed11;" />
<glyph unicode="&#xed50;" d="M171 1843q71 0 120.5 -49.5t49.5 -120.5t-50 -121t-120 -50q-71 0 -121 50t-50 121q0 70 50 120t121 50zM1886 1502h-1205q-26 0 -46.5 19.5t-20.5 50.5v201q0 28 20 49t47 21h1205q34 0 59 -20t28 -50q7 -67 7 -100t-7 -101q-3 -30 -28 -50t-59 -20zM171 887 q-71 0 -121 50.5t-50 120.5t50 120.5t121 50.5q70 0 120 -50t50 -121t-50 -121t-120 -50zM1886 887h-1205q-26 0 -46.5 20t-20.5 51v200q0 29 20 50t47 21h1205q34 0 59 -20t28 -51q7 -67 7 -100t-7 -100q-3 -31 -28 -51t-59 -20zM171 273q-71 0 -121 50.5t-50 120.5t50 120 t121 50t120.5 -50t49.5 -120q0 -71 -50 -121t-120 -50zM1886 273h-1205q-26 0 -46.5 19.5t-20.5 50.5v201q0 28 20 49t47 21h1205q34 0 59 -20t28 -50q7 -67 7 -100.5t-7 -100.5q-3 -30 -28 -50t-59 -20z" />
<glyph unicode="&#xeda0;" d="M68 1434v409q0 56 40.5 96.5t96.5 40.5h1638q56 0 96.5 -40.5t40.5 -96.5v-409h-1912zM614 68h-409q-56 0 -96.5 40.5t-40.5 96.5v1024h546v-1161zM819 68v1161h1161v-1024q0 -56 -40.5 -96.5t-96.5 -40.5h-1024z" />
<glyph unicode="&#xee00;" />
<glyph unicode="&#xee01;" />
<glyph unicode="&#xee02;" d="M333 1033q0 -324 49 -621q328 -69 642 -81v-329q-190 8 -405.5 39t-292 47t-132.5 29q-47 11 -82 44.5t-46 79.5l-3 15q-3 14 -6.5 35t-8.5 53.5t-10.5 73.5t-11 89.5t-10 108t-8.5 123.5t-6 140t-2 154t2 153.5t6 138.5t9 121t10.5 105.5t11 87.5t11 71t9 51.5t6.5 33.5 t3 14q11 45 45 78t81 44q24 6 53 12.5t122.5 24t184 31t220.5 27t250 18.5v-327q-320 -13 -642 -81q-49 -286 -49 -603zM1299 403q-11 0 -36 9q-34 20 -34 70v269q-167 19 -365 57t-230 56q-88 52 -88 158q0 110 88 158q33 19 232.5 58t362.5 55v269q0 50 34 70q45 23 81 -4 q89 -59 184 -137t167.5 -146t135 -131.5t94.5 -99t38 -43.5q17 -21 17 -48t-17 -50q-5 -7 -37.5 -42.5t-95 -99t-135 -131.5t-167.5 -146t-184 -138q-19 -13 -45 -13z" />
<glyph unicode="&#xee03;" d="M1980 1809q0 -1 3 -14t6.5 -33.5t9 -51.5t11 -71t11 -87.5t10.5 -105.5t9 -121t6 -138.5t2 -153.5t-2 -154t-6 -140t-8.5 -123.5t-10 -108t-11 -89.5t-10.5 -73.5t-8.5 -53.5t-6.5 -35l-3 -15q-11 -46 -46 -79.5t-82 -44.5q-56 -13 -132.5 -29t-292 -47t-405.5 -39v329 q314 12 642 81q47 284 47 621q0 328 -47 603q-322 68 -642 81v327q120 -5 250 -18.5t220.5 -27t184 -31t122.5 -24t53 -12.5q47 -11 81 -44t45 -78zM755 403q-11 0 -36 9q-36 21 -36 70v269q-167 19 -362 57t-227 56q-88 52 -88 158q0 110 88 158q33 19 229.5 58t359.5 55 v269q0 49 36 70q42 21 81 -4q89 -59 184.5 -137t168.5 -146t136 -131.5t96 -99.5t38 -43q17 -21 17 -48t-17 -50q-5 -7 -38 -42.5t-96 -99t-136 -131.5t-168.5 -146t-184.5 -138q-19 -13 -45 -13z" />
<glyph unicode="&#xee04;" />
<glyph unicode="&#xee05;" />
<glyph unicode="&#xef20;" />
<glyph unicode="&#xef21;" />
<glyph unicode="&#xef70;" />
<glyph unicode="&#xf000;" />
<glyph unicode="&#xf004;" />
<glyph unicode="&#xf036;" />
<glyph unicode="&#xf070;" />
<glyph unicode="&#xf071;" />
<glyph unicode="&#xf072;" />
<glyph unicode="&#xf073;" />
<glyph unicode="&#xf103;" />
<glyph unicode="&#xf105;" />
<glyph unicode="&#xf106;" />
<glyph unicode="&#xf110;" />
<glyph unicode="&#xf111;" />
<glyph unicode="&#xf122;" />
<glyph unicode="&#xf127;" />
<glyph unicode="&#xf128;" />
<glyph unicode="&#xf129;" />
<glyph unicode="&#xf130;" />
<glyph unicode="&#xf131;" />
<glyph unicode="&#xf132;" />
<glyph unicode="&#xf133;" />
<glyph unicode="&#xf136;" />
<glyph unicode="&#xf140;" />
<glyph unicode="&#xf141;" />
<glyph unicode="&#xf142;" />
<glyph unicode="&#xf150;" />
<glyph unicode="&#xf151;" />
<glyph unicode="&#xf162;" />
<glyph unicode="&#xf163;" />
<glyph unicode="&#xf164;" />
<glyph unicode="&#xf165;" />
<glyph unicode="&#xf166;" />
<glyph unicode="&#xf170;" />
<glyph unicode="&#xf171;" />
<glyph unicode="&#xf172;" />
<glyph unicode="&#xf1a0;" />
<glyph unicode="&#xf200;" d="M1551 1417l476 -448q21 -21 21 -52q0 -28 -21 -49l-476 -441q-20 -17 -47 -17q-19 0 -34 8q-19 11 -28 31.5t-4 43.5l49 258h-395v-751h-341v751h-324l-96 -171q-21 -34 -60 -34h-203q-38 0 -57 32q-21 35 -5 66l139 273l-139 280q-17 33 5 66q21 34 57 34h203 q38 0 60 -36l96 -169h324v393q-61 40 -96.5 108t-35.5 148q0 129 86 217t212 88q127 0 215 -89.5t88 -217.5q0 -80 -33.5 -147t-94.5 -107v-393h393l-47 258q-5 23 4 43.5t28 31.5t41.5 9.5t39.5 -17.5z" />
<glyph unicode="&#xf201;" />
<glyph unicode="&#xf210;" />
<glyph unicode="&#xf211;" />
<glyph unicode="&#xf212;" />
<glyph unicode="&#xf213;" />
<glyph unicode="&#xf280;" />
<glyph unicode="&#xf281;" />
<glyph unicode="&#xf282;" />
<glyph unicode="&#xf303;" />
<glyph unicode="&#xf305;" />
<glyph unicode="&#xf313;" />
<glyph unicode="&#xf314;" />
<glyph unicode="&#xf315;" />
<glyph unicode="&#xf316;" />
<glyph unicode="&#xf320;" />
<glyph unicode="&#xf321;" />
<glyph unicode="&#xf322;" />
<glyph unicode="&#xf323;" />
<glyph unicode="&#xf324;" />
<glyph unicode="&#xf325;" />
<glyph unicode="&#xf380;" />
<glyph unicode="&#xf400;" />
<glyph unicode="&#xf401;" />
<glyph unicode="&#xf402;" />
<glyph unicode="&#xf403;" />
<glyph unicode="&#xf404;" />
<glyph unicode="&#xf405;" />
<glyph unicode="&#xf410;" />
<glyph unicode="&#xf414;" />
<glyph unicode="&#xf415;" />
<glyph unicode="&#xf416;" />
<glyph unicode="&#xf417;" />
<glyph unicode="&#xf418;" />
<glyph unicode="&#xf423;" />
<glyph unicode="&#xf424;" />
<glyph unicode="&#xf4b0;" d="M1948 1284q32 -146 32 -294q0 -149 -32 -295q-8 -35 -38 -58t-67 -23h-478v-477q0 -37 -23 -67t-58 -38q-146 -32 -294 -32q-149 0 -295 32q-35 8 -58 38t-23 67v477h-477q-37 0 -67 23t-38 58q-32 146 -32 295q0 148 32 294q8 35 38 58t67 23h477v478q0 37 22.5 67 t58.5 38q295 65 589 0q35 -8 58 -38t23 -67v-478h478q37 0 67 -23t38 -58z" />
<glyph unicode="&#xf4b2;" />
<glyph unicode="&#xf4b3;" />
<glyph unicode="&#xf4b4;" />
<glyph unicode="&#xf4b5;" />
<glyph unicode="&#xf4b6;" />
<glyph unicode="&#xf4b7;" />
<glyph unicode="&#xf4c2;" />
<glyph unicode="&#xf4d0;" />
<glyph unicode="&#xf4d1;" />
<glyph unicode="&#xf4e0;" />
<glyph unicode="&#xf4e1;" />
<glyph unicode="&#xf500;" d="M1062 1252l820 -753q23 -27 23 -57l2 -67q0 -49 -45 -70q-14 -6 -29 -6q-32 0 -50 21l-772 721l-759 -727q-36 -33 -81 -15q-45 23 -45 70l-2 66q0 33 25 58l815 759q21 20 48.5 20t49.5 -20z" />
<glyph unicode="&#xf501;" d="M964 254l-817 757q-23 27 -23 58v66q0 49 45 70q16 7 29 7q30 0 49 -22l768 -725l764 725q36 33 81 15q45 -23 45 -70v-66q0 -32 -26 -58l-817 -757q-21 -20 -48.5 -20t-49.5 20z" />
<glyph unicode="&#xf503;" d="M1882 1803q32 -32 29 -81q-20 -234 -71.5 -523t-95.5 -482t-118 -495q-8 -32 -33 -53t-59 -24h-9q-30 0 -55.5 16.5t-38.5 43.5q-118 262 -249 516q-224 -297 -280 -653h-616q64 611 454 1084q-245 126 -465 226q-31 13 -47 41t-13 62q3 32 25 56.5t54 32.5 q443 105 808 172.5t701 90.5q46 3 79 -30z" />
<glyph unicode="&#xf505;" d="M166 1803q33 33 79 30q336 -23 701 -90.5t808 -172.5q32 -8 54 -32.5t25 -56.5q3 -34 -13 -62t-47 -41q-220 -100 -465 -226q390 -473 454 -1084h-616q-56 356 -280 653q-155 -302 -252 -516q-11 -27 -36.5 -43.5t-54.5 -16.5h-11q-32 3 -57 24t-33 53 q-77 313 -119.5 497.5t-94.5 476.5t-71 526q-3 49 29 81z" />
<glyph unicode="&#xf600;" d="M969 1679q123 28 328 28q76 0 156 -5t122 -10l42 -5q52 -7 88.5 -45t41.5 -89l2 -43q26 -247 26 -486l-2 -137h215q42 0 54 -27q17 -33 -9 -66q-109 -122 -253 -240.5t-184 -137.5q-27 -14 -54 0q-40 20 -183.5 138t-251.5 240q-22 28 -10 59q18 34 55 34h213v476 l-407 126q-39 11 -58 47t-8 75q8 27 29 45t48 23zM1079 301q-123 -28 -328 -28q-76 0 -156 4.5t-122 9.5l-42 5q-53 7 -89.5 45t-40.5 90l-2 42q-26 248 -26 487l2 136h-215q-41 0 -56 28q-14 34 11 66q109 122 253 240.5t184 137.5q27 14 54 0q40 -20 183.5 -138 t251.5 -240q24 -30 8 -60q-15 -34 -53 -34h-213v-475l407 -126q38 -11 57.5 -47.5t8.5 -74.5q-8 -27 -29 -45t-48 -23z" />
<glyph unicode="&#xf601;" d="M2048 375q0 -155 -110 -265t-265 -110q-138 0 -242 87.5t-128 221.5l-712 374q-96 -69 -216 -69q-155 0 -265 110.5t-110 265.5t110 265t265 110q121 0 216 -68l706 371v5q0 155 110.5 265t265.5 110t265 -110t110 -265t-110 -265.5t-265 -110.5q-121 0 -216 68 l-706 -371v-8l655 -346q111 111 267 111q155 0 265 -110.5t110 -265.5z" />
<glyph unicode="&#x1f195;" />
<glyph unicode="&#x1f304;" />
<glyph unicode="&#x1f308;" />
<glyph unicode="&#x1f30e;" d="M1024 2048q208 0 397.5 -81t327 -218.5t218.5 -327t81 -397.5t-81 -397.5t-218.5 -327t-327 -218.5t-397.5 -81t-397.5 81t-327 218.5t-218.5 327t-81 397.5t81 397.5t218.5 327t327 218.5t397.5 81zM802 318q5 -24 19.5 -40t46 -22t79.5 21q26 14 61.5 29.5t49 23 t28.5 22.5t23 38q6 15 13 27t13 19t17 14.5t16.5 11t20.5 10.5t21 10q37 19 54 39.5t29.5 52.5t22.5 47q19 26 13 57t-19 54t-32 42q-22 22 -57 37.5t-122 43.5q-6 9 -15.5 22t-33.5 36t-41 26q-3 1 -53.5 7t-78.5 20q-12 6 -28 15.5t-24.5 14t-26.5 8t-45 3.5q-35 0 -50 14 t-13 37t3 51q2 24 -8 40.5t-27.5 32t-23.5 23.5q-18 18 -32 17t-37 -17q-8 -5 -16.5 -20t-15 -24.5t-22.5 -9.5t-40 18q-25 18 -28 49.5t13 61t49 53t73 28.5q15 2 45 5.5t44 5t37 1.5t35 -5t27 -14t24 -26.5t14 -41.5q6 -29 34 -32q34 -4 54 37q13 28 13 68q0 41 -32.5 95 t-31.5 65q0 49 34.5 89t103.5 65q61 22 188 157q-31 8 -67 12t-56 4l-20 1q-162 0 -311.5 -64t-266.5 -181q-164 -164 -216 -386q46 -78 71 -104q56 -60 151 -79q93 -20 165 -68.5t117 -98.5l-8 -16t-17.5 -40.5t-21 -59.5t-13 -67.5t1 -69.5t25.5 -60t56 -45 q31 -13 46.5 -27.5t15.5 -22.5v-8q-3 -11 -7 -27.5t-9 -52t-1 -52.5zM1698 563q145 211 145 461q0 163 -62.5 311.5t-178.5 266.5q-79 76 -164 124q0 -2 -9 -16.5t-8 -19.5q2 -23 9.5 -42.5t8 -24.5t-9.5 -34q-15 -33 -16.5 -62t6.5 -70q3 -25 47 -30t91.5 -6t55.5 -15 q1 -18 -18 -31t-45.5 -22t-30.5 -11q-2 -1 -11.5 -6t-12.5 -6.5t-11.5 -6.5t-12 -7.5t-10.5 -8t-10.5 -9.5t-8 -9.5t-8 -12t-5.5 -13.5q-22 -57 -4 -164q8 -42 37.5 -76t67.5 -42q88 -20 128 -4q6 0 10 1t7.5 -2t5 -4.5t3.5 -6t3 -7t2.5 -7.5t2.5 -8q4 -14 9 -42.5t7.5 -65 t-8.5 -52.5q-16 -27 -23.5 -93t0.5 -97q3 -12 21 -30z" />
<glyph unicode="&#x1f310;" d="M1024 0q-208 0 -397.5 81t-327 218.5t-218.5 327t-81 397.5t81 397.5t218.5 327t327 218.5t397.5 81t397.5 -81t327 -218.5t218.5 -327t81 -397.5t-81 -397.5t-218.5 -327t-327 -218.5t-397.5 -81zM779 1161h490q-9 135 -33 253.5t-53.5 194t-61.5 131t-57 79.5t-40 24 t-40 -24t-57 -79.5t-61.5 -131t-53.5 -194t-33 -253.5zM241 1161h309q10 154 45.5 309.5t87.5 270.5q-176 -84 -292.5 -232.5t-149.5 -347.5zM1498 1161h309q-33 199 -149.5 347.5t-292.5 232.5q52 -115 87.5 -270.5t45.5 -309.5zM683 294q-53 114 -88 273.5t-47 319.5h-309 q32 -201 149 -354.5t295 -238.5zM1024 218q14 0 40 29.5t58.5 89t62.5 137t54 187.5t32 226h-494q8 -116 32 -226t54 -187.5t62.5 -137t58.5 -89t40 -29.5zM1365 294q178 85 295 238.5t149 354.5h-309q-12 -160 -47 -319.5t-88 -273.5z" />
<glyph unicode="&#x1f331;" />
<glyph unicode="&#x1f332;" />
<glyph unicode="&#x1f333;" />
<glyph unicode="&#x1f334;" />
<glyph unicode="&#x1f342;" />
<glyph unicode="&#x1f34f;" />
<glyph unicode="&#x1f354;" />
<glyph unicode="&#x1f355;" />
<glyph unicode="&#x1f35a;" />
<glyph unicode="&#x1f35c;" />
<glyph unicode="&#x1f35d;" />
<glyph unicode="&#x1f364;" />
<glyph unicode="&#x1f368;" />
<glyph unicode="&#x1f373;" />
<glyph unicode="&#x1f374;" />
<glyph unicode="&#x1f375;" />
<glyph unicode="&#x1f377;" />
<glyph unicode="&#x1f378;" />
<glyph unicode="&#x1f37a;" />
<glyph unicode="&#x1f380;" />
<glyph unicode="&#x1f381;" />
<glyph unicode="&#x1f384;" />
<glyph unicode="&#x1f388;" />
<glyph unicode="&#x1f3a4;" />
<glyph unicode="&#x1f3af;" />
<glyph unicode="&#x1f3b1;" />
<glyph unicode="&#x1f3b3;" />
<glyph unicode="&#x1f3be;" />
<glyph unicode="&#x1f3c8;" />
<glyph unicode="&#x1f3e2;" />
<glyph unicode="&#x1f3e5;" />
<glyph unicode="&#x1f3e6;" />
<glyph unicode="&#x1f3e7;" />
<glyph unicode="&#x1f3e8;" />
<glyph unicode="&#x1f3ec;" />
<glyph unicode="&#x1f41f;" />
<glyph unicode="&#x1f426;" />
<glyph unicode="&#x1f43b;" />
<glyph unicode="&#x1f440;" />
<glyph unicode="&#x1f44d;" d="M1993 1235q63 -68 53 -198l-11 -147q-25 -330 -48 -443q-35 -180 -121 -260q-95 -88 -311 -110q-93 -9 -224 -9q-82 0 -152.5 8.5t-112 18t-90 31t-65 31t-58.5 35.5q-45 29 -73.5 43t-86.5 26t-138 12h-77v1003q65 15 120 36t96.5 42t76.5 51t58 53.5t43.5 59t31.5 59 t22 61.5t15.5 58.5t11.5 57.5l3 15q6 27 8.5 37.5t9 36t12 37t14.5 31t20 29t25.5 20.5t32.5 15.5t40 4.5q63 -3 107 -56q43 -49 59.5 -146.5t13 -204t-19.5 -276.5h533q125 0 182 -62zM341 68h-341v1229h341v-1229z" />
<glyph unicode="&#x1f44e;" d="M1993 813q-57 -62 -182 -62h-533q16 -171 19.5 -277t-13 -204t-59.5 -148q-45 -51 -107 -54q-22 0 -40 4.5t-32.5 15.5t-25.5 20.5t-20 29t-14.5 31t-12 37t-9 36t-8.5 37.5l-3 15q-7 37 -11.5 57.5t-15.5 58.5t-22 61.5t-31.5 59t-43.5 59.5t-58 53.5t-76.5 50.5 t-96.5 42t-120 36v1003h77q80 0 138 12t86.5 26t73.5 43q42 26 58.5 35.5t65 31t90 31t112 18t152.5 8.5q98 0 174 -4.5t140.5 -17.5t111 -29.5t84.5 -47t63 -63t45.5 -84.5t32 -104.5t21.5 -130.5t17 -155t15 -185v-3l11 -145q10 -132 -53 -198zM341 546h-341v1229h341 v-1229z" />
<glyph unicode="&#x1f45c;" />
<glyph unicode="&#x1f464;" d="M1931 70q-1 0 -9.5 -2l-25.5 -6t-39.5 -8t-58.5 -9.5t-76 -10.5q-286 -34 -698 -34q-592 0 -907 70q-26 8 -40 31t-7 50q30 141 104.5 232.5t200.5 171.5q41 26 152 70q54 22 80.5 33.5t68 34t64.5 46.5t32 52q25 76 -62 212q-270 431 -96 731q67 115 176 180.5t234 65.5 q126 0 234 -65t176 -181q174 -299 -94 -731q-87 -135 -64 -212q9 -28 32.5 -52.5t63.5 -46t69.5 -34.5t81.5 -33q111 -46 150 -70q126 -80 200.5 -171.5t104.5 -232.5q7 -27 -7 -50t-40 -31z" />
<glyph unicode="&#x1f465;" d="M2046 525q6 -27 -9 -51q-18 -25 -44 -28q-3 -2 -37 -6t-124.5 -9.5t-205.5 -8.5q-93 195 -286 314q-54 31 -139 62q-33 15 -34 15q76 120 115 233t40.5 204t-16 161.5t-52.5 128.5q-47 78 -99.5 129t-126.5 85q60 77 119 113t148 36q106 0 194 -49t141 -137 q139 -228 -71 -552q-64 -92 -49 -141q7 -23 38.5 -45.5t55 -33t77.5 -32.5q81 -32 113 -51q99 -60 164.5 -146.5t87.5 -190.5zM751 145q-224 0 -397 7t-232 12.5t-67 8.5q-25 3 -44 28q-15 21 -9 51q45 210 250 337q29 16 113 51q53 22 77 32.5t55 33t38 45.5q15 47 -46 141 q-211 326 -73 552q52 87 141 136.5t194 49.5q106 0 195.5 -49t141.5 -137q138 -226 -73 -552q-61 -94 -46 -141q7 -23 38 -45.5t55 -33t77 -32.5q84 -35 113 -51q98 -60 163 -146.5t89 -190.5q6 -28 -11 -51q-19 -25 -44 -28q-8 -3 -67.5 -8.5t-233 -12.5t-397.5 -7z" />
<glyph unicode="&#x1f467;" d="M1931 70q-1 0 -9.5 -2l-25.5 -6t-39.5 -8t-58.5 -9.5t-76 -10.5q-286 -34 -698 -34q-592 0 -907 70q-26 8 -40 31t-7 50q30 141 104.5 232.5t200.5 171.5q41 26 152 70q46 19 64.5 26.5t57.5 26.5t58 33t38.5 35.5t26.5 44.5q16 44 -10 111q-197 18 -367 56q-29 7 -43 30 q-16 21 -9 53q13 43 32 160q56 300 105 444q124 367 353 385q12 1 25 1q77 0 166 -43q89 43 169 43q59 0 110.5 -19t93.5 -66.5t73.5 -85.5t61.5 -120.5t46.5 -124.5t39 -144t29 -132t25.5 -134q1 -3 1 -4l32 -160q9 -33 -11 -60q-33 -41 -408 -76q-25 -74 -10 -114 q8 -28 31 -52t64.5 -46t69.5 -34.5t82 -33.5q111 -46 150 -70q126 -80 200.5 -171.5t104.5 -232.5q7 -27 -7 -50t-40 -31z" />
<glyph unicode="&#x1f489;" />
<glyph unicode="&#x1f48a;" />
<glyph unicode="&#x1f4a1;" />
<glyph unicode="&#x1f4a7;" />
<glyph unicode="&#x1f4ac;" d="M1952 1559q28 -180 28 -371q0 -192 -28 -367q-17 -114 -125 -207t-227 -106q-240 -23 -463 -26l-407 -395q-19 -19 -47 -19q-5 0 -28 5q-41 17 -41 64v349q-140 10 -166 13q-117 13 -226 110t-128 212q-26 182 -26 365q0 186 26 373q19 115 128 212.5t226 110.5 q293 29 576 29t576 -29q118 -13 226.5 -110.5t125.5 -212.5z" />
<glyph unicode="&#x1f4b0;" />
<glyph unicode="&#x1f4b3;" />
<glyph unicode="&#x1f4b5;" />
<glyph unicode="&#x1f4bb;" />
<glyph unicode="&#x1f4bc;" />
<glyph unicode="&#x1f4be;" />
<glyph unicode="&#x1f4bf;" />
<glyph unicode="&#x1f4c1;" />
<glyph unicode="&#x1f4c2;" d="M887 68q-342 0 -768 54q-51 7 -85 45.5t-34 90.5v1517q0 56 40.5 96t96.5 40h409q71 0 113 -61l96 -143h883q56 0 96.5 -40.5t40.5 -96.5v-136h-1105q-109 0 -180.5 -61t-96.5 -161q-168 -620 -210 -798q-12 -43 10 -72.5t54 -34.5q37 -5 70.5 15t45.5 58q1 2 33 124 t67.5 258.5t69 264t39.5 151.5q11 45 51 82t94 37h1194q69 0 109 -55q42 -55 22 -120l-259 -900q-23 -76 -102 -94h-4l-22 -6q-426 -54 -768 -54z" />
<glyph unicode="&#x1f4c4;" d="M1769 1975q33 -10 53.5 -37t20.5 -61v-1194q0 -68 -80 -185.5t-188 -225.5t-226 -188t-186 -80l-41 -2q-28 -2 -98 -2q-77 0 -153.5 2.5t-141.5 6.5t-125 9t-110.5 10.5t-92.5 11.5t-75.5 11t-55.5 9t-37 7l-15 3q-35 8 -58 37t-23 64v1706q0 37 23 65t58 36l15 3 q15 3 37 7t55.5 9t75.5 11t92.5 11.5t110.5 10.5t125 9t141.5 6.5t153.5 2.5q136 0 262 -7.5t207.5 -17t148 -21t93.5 -18t34 -9.5zM1297 614h205q56 0 96 40.5t40 96.5h-341q-79 0 -142 -63t-63 -142v-341q52 0 94.5 40.5t42.5 95.5v205q0 22 22.5 45t45.5 23z" />
<glyph unicode="&#x1f4c5;" />
<glyph unicode="&#x1f4c8;" />
<glyph unicode="&#x1f4c9;" />
<glyph unicode="&#x1f4ca;" />
<glyph unicode="&#x1f4cc;" d="M1316 2014l687 -691q45 -45 45 -109t-45 -111q-45 -45 -109 -45q-63 0 -108 45l-75 75l-397 -397q21 -354 -6 -448q-8 -36 -33.5 -62.5t-62.5 -37.5q-28 -5 -37 -5q-55 0 -96 41l-804 804q-25 25 -34.5 61t0.5 71t36 60.5t62 35.5q62 13 207 13q120 0 243 -8l397 399 l-87 89q-45 45 -45 109.5t45 110.5q45 45 108.5 45t108.5 -45zM431 661l235 -234l-495 -404q-34 -27 -77.5 -23t-70.5 38q-24 31 -23.5 68.5t23.5 66.5z" />
<glyph unicode="&#x1f4cd;" d="M1024 2048q152 0 291.5 -59.5t240 -160t160 -240t59.5 -291.5t-59.5 -291.5t-160 -240t-240 -160t-291.5 -59.5q-82 0 -149 15l-333 -510q-24 -38 -68 -48t-81 14q-33 21 -45.5 57t0.5 71l194 576q-126 105 -197.5 255t-71.5 321q0 152 59.5 291.5t160 240t240 160 t291.5 59.5zM887 1284q85 0 151.5 66.5t66.5 151.5t-66.5 151t-151.5 66q-84 0 -150.5 -69.5t-66.5 -154.5q0 -84 66 -147.5t151 -63.5z" />
<glyph unicode="&#x1f4ce;" d="M710 0q-130 0 -255.5 51t-230.5 156q-224 220 -224 514q0 130 47 250.5t130 203.5l346 340q59 61 139.5 92t167.5 31q187 0 324 -132q143 -143 143 -335q0 -179 -119 -298l-199 -186q-40 -40 -97 -38.5t-95 42.5t-37 97.5t41 96.5l197 184q40 37 40 102q3 78 -64 145 q-50 51 -123.5 54t-121.5 -45l-350 -344q-40 -42 -69 -109.5t-29 -150.5q0 -175 145 -320q78 -78 167.5 -109.5t165 -19.5t133.5 39t95 64l685 685q55 55 85 131.5t28 156.5q-3 177 -158 320q-55 50 -114 77t-107 32.5t-96.5 -3t-80 -21t-58.5 -29.5q-48 -30 -102.5 -16.5 t-85.5 61.5q-29 48 -16 102t61 85q149 92 347 92q252 0 438 -177q132 -127 187.5 -261t57.5 -255q3 -137 -47.5 -265t-144.5 -222l-687 -685q-85 -86 -206 -134.5t-253 -48.5z" />
<glyph unicode="&#x1f4d3;" d="M273 1638h307q57 0 101 -53q2 4 2 19q0 70 -50.5 120.5t-120.5 50.5h-102v130q0 39 25.5 68.5t63.5 33.5q319 41 662 41q342 0 661 -41q38 -4 63.5 -33.5t25.5 -68.5v-1762q0 -39 -25.5 -68.5t-63.5 -33.5q-319 -41 -661 -41q-343 0 -662 41q-38 4 -63.5 33.5t-25.5 68.5 v130h-137q-56 0 -96 40.5t-40 96.5t40 96t96 40h307q57 0 101 -53q2 4 2 19q0 70 -50.5 120.5t-120.5 50.5h-102v136h-137q-56 0 -96 40.5t-40 96.5t40 96t96 40h307q57 0 101 -53q2 4 2 19q0 70 -50.5 120.5t-120.5 50.5h-102v136h-137q-56 0 -96 40.5t-40 96.5t40 96 t96 40zM1570 1092v410h-683v-410h683z" />
<glyph unicode="&#x1f4d5;" d="M1911 1843h-1365q-50 0 -93 -40t-43 -96t43 -96.5t93 -40.5h1263q41 0 71.5 -30.5t30.5 -71.5v-1366q0 -43 -30 -72.5t-72 -29.5h-1263q-127 0 -218.5 87.5t-120.5 234.5q-30 168 -42 268q-32 260 -28 511q3 163 20.5 323t30 226.5t23.5 111.5q20 121 115.5 203.5 t219.5 82.5h1263q41 0 71.5 -30.5t30.5 -71.5v-103z" />
<glyph unicode="&#x1f4d6;" d="M341 1911h145q190 0 293.5 -42t176.5 -169v-1192q-183 106 -478 106h-137v1297zM1092 508v1192q72 127 177 169t295 42h143v-1297h-135q-297 0 -480 -106zM1843 1775h135q28 0 49 -20.5t21 -49.5v-1430q0 -29 -21 -49.5t-49 -20.5h-709q-35 -61 -100 -99t-145 -38 t-145 38t-100 99h-709q-28 0 -49 20.5t-21 49.5v1430q0 29 21 49.5t49 20.5h135v-1229q0 -28 19.5 -48t48.5 -20h205q352 0 495 -156q21 -22 51 -21.5t51 21.5q143 156 495 156h207q27 0 46.5 20t19.5 48v1229z" />
<glyph unicode="&#x1f4da;" d="M956 1911v-1152q-216 -74 -444 -74t-444 74v1152q0 50 43 93.5t94 43.5h68v-478q18 -25 85.5 -52t153.5 -27t153.5 27t85.5 52v478h68q51 0 94 -43t43 -94zM1980 1911v-1152q-216 -74 -444 -74t-444 74v1152q0 50 43 93.5t94 43.5h68v-478q18 -25 85.5 -52t153.5 -27 t153.5 27t85.5 52v478h68q51 0 94 -43t43 -94zM68 205v273q216 -77 444 -77t444 77v-273q0 -42 -22.5 -78t-60.5 -52q-173 -75 -361 -75t-361 75q-38 16 -60.5 52t-22.5 78zM1092 205v273q216 -77 444 -77t444 77v-273q0 -42 -22.5 -78t-60.5 -52q-173 -75 -361 -75t-361 75 q-38 16 -60.5 52t-22.5 78z" />
<glyph unicode="&#x1f4dd;" />
<glyph unicode="&#x1f4de;" d="M1173 365l203 183q21 28 55 28q6 0 15 -3t16 -7l6 -3l473 -239q39 -22 39 -64q-7 -89 -42.5 -171t-92.5 -138q-130 -130 -352 -130q-220 0 -475 124t-478 347q-167 167 -282.5 359.5t-163.5 370t-25.5 334t119.5 253.5q102 102 320 123q41 0 62 -38l260 -474 q11 -24 11 -38q0 -30 -26 -56l-203 -200q-16 -17 -18.5 -40.5t10.5 -44.5q93 -154 213 -271q127 -127 271 -216q21 -13 44.5 -9.5t40.5 20.5z" />
<glyph unicode="&#x1f4e0;" />
<glyph unicode="&#x1f4e2;" />
<glyph unicode="&#x1f4e4;" />
<glyph unicode="&#x1f4e5;" />
<glyph unicode="&#x1f4e6;" />
<glyph unicode="&#x1f4f0;" />
<glyph unicode="&#x1f4f1;" />
<glyph unicode="&#x1f4f7;" />
<glyph unicode="&#x1f4f9;" />
<glyph unicode="&#x1f4fb;" />
<glyph unicode="&#x1f500;" d="M463 695l533 886q54 86 145 140t216 54h213v207q0 19 12 36t29 24q41 17 74 -13q117 -108 226 -247.5t131 -183.5q14 -30 0 -56q-23 -45 -131.5 -185.5t-225.5 -247.5q-19 -19 -47 -19q-11 0 -27 7q-41 20 -41 61v207h-158q-29 0 -58 -15.5t-48 -43.5l-521 -837 q-58 -90 -144 -143t-184 -53h-346q-40 0 -75.5 34.5t-35.5 72.5q0 86 92 123l256 94q70 33 115 98zM789 1572l-228 -379q-89 148 -98 160q-48 69 -115 96l-256 96q-92 33 -92 123q0 38 35.5 72.5t75.5 34.5h346q98 0 184 -53t144 -143zM1638 0q-14 0 -27 6q-17 7 -29 24 t-12 36v207h-213q-125 0 -216 53.5t-145 140.5l-6 13l239 386q18 -27 35.5 -56t27.5 -46t14 -22q19 -28 48 -43.5t58 -15.5h158v207q0 19 11.5 35.5t29.5 23.5q41 18 74 -12q117 -108 226 -247.5t131 -183.5q14 -30 0 -56q-22 -43 -131 -183t-226 -250q-20 -17 -47 -17z" />
<glyph unicode="&#x1f501;" d="M1632 1474q-21 -43 -135.5 -185t-235.5 -250q-15 -15 -41 -15q-11 0 -23 4q-36 17 -36 56l2 213h-480q-159 0 -252 -85q-83 -74 -83 -190q0 -90 57 -175q24 -31 21.5 -69t-29.5 -65q-30 -30 -73 -30q-37 0 -64 21l-7 6q-7 6 -16 14.5t-20.5 20.5t-25.5 29t-27 35 q-96 135 -96 283q0 149 62 265q62 120 188 200q122 74 299 113q188 37 407 37h137v213q0 39 36 53q34 18 64 -8q122 -108 236 -251t135 -187q14 -26 0 -53zM919 4q-35 -15 -64 11q-122 108 -236 250.5t-135 186.5q-14 27 0 54q21 43 135.5 185t235.5 250q18 15 41 15 q12 0 23 -7q37 -14 37 -53v-213h478q158 0 251 85q84 74 84 190q0 88 -58 175q-24 31 -21.5 69t29.5 65q30 30 73 30q38 0 62 -21q5 -3 17.5 -14t36 -36.5t44.5 -54.5q96 -135 96 -284q0 -148 -62 -264q-63 -121 -188 -201q-122 -74 -298 -113q-183 -36 -408 -36h-136v-213 q0 -38 -37 -56z" />
<glyph unicode="&#x1f508;" />
<glyph unicode="&#x1f509;" />
<glyph unicode="&#x1f50a;" />
<glyph unicode="&#x1f50b;" />
<glyph unicode="&#x1f50c;" />
<glyph unicode="&#x1f50e;" />
<glyph unicode="&#x1f511;" />
<glyph unicode="&#x1f512;" />
<glyph unicode="&#x1f513;" />
<glyph unicode="&#x1f514;" />
<glyph unicode="&#x1f515;" />
<glyph unicode="&#x1f516;" d="M412 559q24 -9 66 -13v-273q-38 2 -86.5 15.5t-108.5 44.5t-112 74.5t-96 113t-62 153.5q-28 109 2 226q14 93 73.5 216t137 235t160 216t145.5 171.5t90 87.5q93 76 183 100q51 22 234 38t396 16q241 0 439 -32q41 -7 67 -28t34 -47t4.5 -52t-17.5 -44 q-536 -700 -542 -704q-38 -49 -98 -49h-815q-29 0 -63.5 -10t-72.5 -32t-65 -56.5t-40.5 -83t0.5 -112.5q11 -59 50 -104.5t97 -66.5zM1229 273h258q69 0 102 51l444 664q34 72 -1.5 122.5t-88.5 50.5h-55l-465 -615h-196q0 43 1 64.5t6.5 67t21 80.5t41.5 61h-538 q-16 0 -34 -10q-41 -22 -76 -80t-35 -142v-523q0 -36 37 -55q37 -21 72 4l196 134l203 -134q16 -13 39 -13q19 0 32 9q36 17 36 55v209z" />
<glyph unicode="&#x1f517;" d="M1775 1775q99 -99 152 -220.5t53 -251.5q0 -285 -237 -522q-51 -51 -105 -90q3 34 3 68q0 173 -75 340q75 104 72 204q0 127 -104 231t-231 104q-140 0 -279 -136q-50 -53 -75 -98q156 -49 280 -173q145 -144 189.5 -329t-23.5 -367q-12 -35 -40 -91q-89 -168 -261 -295 q-103 -78 -204 -113q-103 -36 -214 -36q-128 0 -250 53t-219 152q-216 216 -207 490t239 504q41 41 104 90q-20 -213 71 -412q-77 -110 -69.5 -223t101.5 -208q109 -105 230 -105q135 0 280 137q107 104 132 237q25 114 -49 249q-23 46 -47 75q-19 23 -23 26 q10 -60 5 -116.5t-14.5 -99t-27.5 -81t-34 -63.5t-34 -46q-57 36 -111 90q-216 216 -207 490t239 504q116 116 248.5 176.5t269.5 60.5q130 0 251.5 -53t220.5 -152z" />
<glyph unicode="&#x1f525;" />
<glyph unicode="&#x1f527;" />
<glyph unicode="&#x1f52a;" />
<glyph unicode="&#x1f680;" />
<glyph unicode="&#x1f681;" />
<glyph unicode="&#x1f682;" />
<glyph unicode="&#x1f686;" />
<glyph unicode="&#x1f687;" />
<glyph unicode="&#x1f68c;" />
<glyph unicode="&#x1f690;" />
<glyph unicode="&#x1f691;" />
<glyph unicode="&#x1f695;" />
<glyph unicode="&#x1f698;" />
<glyph unicode="&#x1f69a;" />
<glyph unicode="&#x1f69c;" />
<glyph unicode="&#x1f6a1;" />
<glyph unicode="&#x1f6a2;" />
<glyph unicode="&#x1f6a6;" />
<glyph unicode="&#x1f6ab;" d="M1024 2048q208 0 397.5 -81t327 -218.5t218.5 -327t81 -397.5t-81 -397.5t-218.5 -327t-327 -218.5t-397.5 -81t-397.5 81t-327 218.5t-218.5 327t-81 397.5t81 397.5t218.5 327t327 218.5t397.5 81zM433 661l954 952q-167 106 -363 106q-139 0 -267.5 -56t-222 -149.5 t-149.5 -222t-56 -267.5q0 -194 104 -363zM1024 329q139 0 267.5 56t222 149.5t149.5 222t56 267.5q0 196 -106 363l-952 -954q169 -104 363 -104z" />
<glyph unicode="&#x1f6ad;" />
<glyph unicode="&#x1f6b2;" />
<glyph unicode="&#x1f6bf;" />
</font>
</defs>
</svg>
